  0
SECTION
  2
HEADER
  9
$ACADVER
  1
AC1014
  9
$HANDSEED
  5
FFFF
  9
$MEASUREMENT
 70
     1
  0
ENDSEC
  0
SECTION
  2
TABLES
  0
TABLE
  2
VPORT
  5
8
330
0
100
AcDbSymbolTable
 70
     4
  0
VPORT
  5
2E
330
8
100
AcDbSymbolTableRecord
100
AcDbViewportTableRecord
  2
*ACTIVE
 70
     0
 10
0.0
 20
0.0
 11
1.0
 21
1.0
 12
210.0
 22
148.5
 13
0.0
 23
0.0
 14
10.0
 24
10.0
 15
10.0
 25
10.0
 16
0.0
 26
0.0
 36
1.0
 17
0.0
 27
0.0
 37
0.0
 40
341.0
 41
1.24
 42
50.0
 43
0.0
 44
0.0
 50
0.0
 51
0.0
 71
     0
 72
   100
 73
     1
 74
     3
 75
     0
 76
     0
 77
     0
 78
     0
  0
ENDTAB
  0
TABLE
  2
LTYPE
  5
5
330
0
100
AcDbSymbolTable
 70
     1
  0
LTYPE
  5
14
330
5
100
AcDbSymbolTableRecord
100
AcDbLinetypeTableRecord
  2
BYBLOCK
 70
     0
  3

 72
    65
 73
     0
 40
0.0
  0
LTYPE
  5
15
330
5
100
AcDbSymbolTableRecord
100
AcDbLinetypeTableRecord
  2
BYLAYER
 70
     0
  3

 72
    65
 73
     0
 40
0.0
  0
LTYPE
  5
16
330
5
100
AcDbSymbolTableRecord
100
AcDbLinetypeTableRecord
  2
CONTINUOUS
 70
     0
  3
Solid line
 72
    65
 73
     0
 40
0.0
  0
ENDTAB
  0
TABLE
  2
LAYER
  5
2
100
AcDbSymbolTable
 70
13
  0
LAYER
  5
50
100
AcDbSymbolTableRecord
100
AcDbLayerTableRecord
  2
0
 70
0
  6
CONTINUOUS
  0
LAYER
  5
51
100
AcDbSymbolTableRecord
100
AcDbLayerTableRecord
  2
BottomPlate_-_Cut
 70
0
  6
CONTINUOUS
  0
LAYER
  5
52
100
AcDbSymbolTableRecord
100
AcDbLayerTableRecord
  2
TopPlate_-_Cut
 70
0
  6
CONTINUOUS
  0
LAYER
  5
53
100
AcDbSymbolTableRecord
100
AcDbLayerTableRecord
  2
TopPlate_-_Etch
 70
0
  6
CONTINUOUS
  0
LAYER
  5
54
100
AcDbSymbolTableRecord
100
AcDbLayerTableRecord
  2
Cogs_-_Cut
 70
0
  6
CONTINUOUS
  0
LAYER
  5
55
100
AcDbSymbolTableRecord
100
AcDbLayerTableRecord
  2
Cogs_-_Secondary
 70
0
  6
CONTINUOUS
  0
LAYER
  5
56
100
AcDbSymbolTableRecord
100
AcDbLayerTableRecord
  2
Cogs_-_Etch
 70
0
  6
CONTINUOUS
  0
LAYER
  5
57
100
AcDbSymbolTableRecord
100
AcDbLayerTableRecord
  2
Edges_-_Cut
 70
0
  6
CONTINUOUS
  0
LAYER
  5
58
100
AcDbSymbolTableRecord
100
AcDbLayerTableRecord
  2
Edges_-_Etch
 70
0
  6
CONTINUOUS
  0
LAYER
  5
59
100
AcDbSymbolTableRecord
100
AcDbLayerTableRecord
  2
3mm_Utility_bits_-_Cut
 70
0
  6
CONTINUOUS
  0
LAYER
  5
5a
100
AcDbSymbolTableRecord
100
AcDbLayerTableRecord
  2
Temp
 70
0
  6
CONTINUOUS
  0
LAYER
  5
5b
100
AcDbSymbolTableRecord
100
AcDbLayerTableRecord
  2
Battery_holder_-_cut
 70
0
  6
CONTINUOUS
  0
LAYER
  5
5c
100
AcDbSymbolTableRecord
100
AcDbLayerTableRecord
  2
Battery_holder_3mm_-_cut
 70
0
  6
CONTINUOUS
  0
ENDTAB
  0
TABLE
  2
STYLE
  5
3
330
0
100
AcDbSymbolTable
 70
     1
  0
STYLE
  5
11
330
3
100
AcDbSymbolTableRecord
100
AcDbTextStyleTableRecord
  2
STANDARD
 70
     0
 40
0.0
 41
1.0
 50
0.0
 71
     0
 42
2.5
  3
txt
  4

  0
ENDTAB
  0
TABLE
  2
VIEW
  5
6
330
0
100
AcDbSymbolTable
 70
     0
  0
ENDTAB
  0
TABLE
  2
UCS
  5
7
330
0
100
AcDbSymbolTable
 70
     0
  0
ENDTAB
  0
TABLE
  2
APPID
  5
9
330
0
100
AcDbSymbolTable
 70
     2
  0
APPID
  5
12
330
9
100
AcDbSymbolTableRecord
100
AcDbRegAppTableRecord
  2
ACAD
 70
     0
  0
ENDTAB
  0
TABLE
  2
DIMSTYLE
  5
A
330
0
100
AcDbSymbolTable
 70
     1
  0
DIMSTYLE
105
27
330
A
100
AcDbSymbolTableRecord
100
AcDbDimStyleTableRecord
  2
ISO-25
 70
     0
  3

  4

  5

  6

  7

 40
1.0
 41
2.5
 42
0.625
 43
3.75
 44
1.25
 45
0.0
 46
0.0
 47
0.0
 48
0.0
140
2.5
141
2.5
142
0.0
143
0.03937007874016
144
1.0
145
0.0
146
1.0
147
0.625
 71
     0
 72
     0
 73
     0
 74
     0
 75
     0
 76
     0
 77
     1
 78
     8
170
     0
171
     3
172
     1
173
     0
174
     0
175
     0
176
     0
177
     0
178
     0
270
     2
271
     2
272
     2
273
     2
274
     3
340
11
275
     0
280
     0
281
     0
282
     0
283
     0
284
     8
285
     0
286
     0
287
     3
288
     0
  0
ENDTAB
  0
TABLE
  2
BLOCK_RECORD
  5
1
330
0
100
AcDbSymbolTable
 70
     1
  0
BLOCK_RECORD
  5
1F
330
1
100
AcDbSymbolTableRecord
100
AcDbBlockTableRecord
  2
*MODEL_SPACE
  0
BLOCK_RECORD
  5
1B
330
1
100
AcDbSymbolTableRecord
100
AcDbBlockTableRecord
  2
*PAPER_SPACE
  0
ENDTAB
  0
ENDSEC
  0
SECTION
  2
BLOCKS
  0
BLOCK
  5
20
330
1F
100
AcDbEntity
  8
0
100
AcDbBlockBegin
  2
*MODEL_SPACE
 70
     0
 10
0.0
 20
0.0
 30
0.0
  3
*MODEL_SPACE
  1

  0
ENDBLK
  5
21
330
1F
100
AcDbEntity
  8
0
100
AcDbBlockEnd
  0
BLOCK
  5
1C
330
1B
100
AcDbEntity
 67
     1
  8
0
100
AcDbBlockBegin
  2
*PAPER_SPACE
  1

  0
ENDBLK
  5
1D
330
1B
100
AcDbEntity
 67
     1
  8
0
100
AcDbBlockEnd
  0
ENDSEC
  0
SECTION
  2
ENTITIES
  0
SPLINE
  5
100
100
AcDbEntity
  8
Battery_holder_-_cut
 62
7
100
AcDbSpline
 70
8
 71
3
 72
8
 73
4
 74
0
 40
0
 40
0
 40
0
 40
0
 40
1
 40
1
 40
1
 40
1
 10
393.398980
 20
-23.694202
 30
0.0
 10
390.398873
 20
-23.694231
 30
0.0
 10
390.398704
 20
-23.694344
 30
0.0
 10
390.398704
 20
-26.818487
 30
0.0
  0
LINE
  5
101
100
AcDbEntity
  8
Battery_holder_-_cut
 62
7
100
AcDbLine
 10
390.398704
 20
-26.818487
 30
0.0
 11
390.398704
 21
-32.372000
 31
0.0
  0
SPLINE
  5
102
100
AcDbEntity
  8
Battery_holder_-_cut
 62
7
100
AcDbSpline
 70
8
 71
3
 72
8
 73
4
 74
0
 40
0
 40
0
 40
0
 40
0
 40
1
 40
1
 40
1
 40
1
 10
390.398704
 20
-32.372000
 30
0.0
 10
391.777077
 20
-34.732365
 30
0.0
 10
392.518983
 20
-37.460410
 30
0.0
 10
392.525841
 20
-40.193732
 30
0.0
  0
SPLINE
  5
103
100
AcDbEntity
  8
Battery_holder_-_cut
 62
7
100
AcDbSpline
 70
8
 71
3
 72
8
 73
4
 74
0
 40
0
 40
0
 40
0
 40
0
 40
1
 40
1
 40
1
 40
1
 10
392.525841
 20
-40.193732
 30
0.0
 10
392.520479
 20
-42.930018
 30
0.0
 10
391.778545
 20
-45.661392
 30
0.0
 10
390.398704
 20
-48.024298
 30
0.0
  0
LINE
  5
104
100
AcDbEntity
  8
Battery_holder_-_cut
 62
7
100
AcDbLine
 10
390.398704
 20
-48.024298
 30
0.0
 11
390.398704
 21
-104.693637
 31
0.0
  0
LINE
  5
105
100
AcDbEntity
  8
Battery_holder_-_cut
 62
7
100
AcDbLine
 10
390.398704
 20
-104.693637
 30
0.0
 11
396.398692
 21
-104.693637
 31
0.0
  0
LINE
  5
106
100
AcDbEntity
  8
Battery_holder_-_cut
 62
7
100
AcDbLine
 10
396.398692
 20
-104.693637
 30
0.0
 11
396.398692
 21
-34.694265
 31
0.0
  0
LINE
  5
107
100
AcDbEntity
  8
Battery_holder_-_cut
 62
7
100
AcDbLine
 10
396.398692
 20
-34.694265
 30
0.0
 11
396.398692
 21
-33.694352
 31
0.0
  0
LINE
  5
108
100
AcDbEntity
  8
Battery_holder_-_cut
 62
7
100
AcDbLine
 10
396.398692
 20
-33.694352
 30
0.0
 11
396.398692
 21
-28.694277
 31
0.0
  0
LINE
  5
109
100
AcDbEntity
  8
Battery_holder_-_cut
 62
7
100
AcDbLine
 10
396.398692
 20
-28.694277
 30
0.0
 11
399.398940
 21
-28.694277
 31
0.0
  0
LINE
  5
10a
100
AcDbEntity
  8
Battery_holder_-_cut
 62
7
100
AcDbLine
 10
399.398940
 20
-28.694277
 30
0.0
 11
401.398766
 21
-28.694277
 31
0.0
  0
LINE
  5
10b
100
AcDbEntity
  8
Battery_holder_-_cut
 62
7
100
AcDbLine
 10
401.398766
 20
-28.694277
 30
0.0
 11
453.398747
 21
-28.694277
 31
0.0
  0
LINE
  5
10c
100
AcDbEntity
  8
Battery_holder_-_cut
 62
7
100
AcDbLine
 10
453.398747
 20
-28.694277
 30
0.0
 11
458.398822
 21
-28.694277
 31
0.0
  0
LINE
  5
10d
100
AcDbEntity
  8
Battery_holder_-_cut
 62
7
100
AcDbLine
 10
458.398822
 20
-28.694277
 30
0.0
 11
461.398533
 21
-28.694277
 31
0.0
  0
LINE
  5
10e
100
AcDbEntity
  8
Battery_holder_-_cut
 62
7
100
AcDbLine
 10
461.398533
 20
-28.694277
 30
0.0
 11
461.398533
 21
-33.694916
 31
0.0
  0
LINE
  5
10f
100
AcDbEntity
  8
Battery_holder_-_cut
 62
7
100
AcDbLine
 10
461.398533
 20
-33.694916
 30
0.0
 11
461.398533
 21
-33.694916
 31
0.0
  0
LINE
  5
110
100
AcDbEntity
  8
Battery_holder_-_cut
 62
7
100
AcDbLine
 10
461.398533
 20
-33.694916
 30
0.0
 11
461.398533
 21
-104.695274
 31
0.0
  0
LINE
  5
111
100
AcDbEntity
  8
Battery_holder_-_cut
 62
7
100
AcDbLine
 10
461.398533
 20
-104.695274
 30
0.0
 11
467.398521
 21
-104.695274
 31
0.0
  0
LINE
  5
112
100
AcDbEntity
  8
Battery_holder_-_cut
 62
7
100
AcDbLine
 10
467.398521
 20
-104.695274
 30
0.0
 11
467.398521
 21
-48.018230
 31
0.0
  0
SPLINE
  5
113
100
AcDbEntity
  8
Battery_holder_-_cut
 62
7
100
AcDbSpline
 70
8
 71
3
 72
8
 73
4
 74
0
 40
0
 40
0
 40
0
 40
0
 40
1
 40
1
 40
1
 40
1
 10
467.398521
 20
-48.018230
 30
0.0
 10
466.019866
 20
-45.657385
 30
0.0
 10
465.277960
 20
-42.928719
 30
0.0
 10
465.271384
 20
-40.194833
 30
0.0
  0
SPLINE
  5
114
100
AcDbEntity
  8
Battery_holder_-_cut
 62
7
100
AcDbSpline
 70
8
 71
3
 72
8
 73
4
 74
0
 40
0
 40
0
 40
0
 40
0
 40
1
 40
1
 40
1
 40
1
 10
465.271384
 20
-40.194833
 30
0.0
 10
465.276747
 20
-37.458547
 30
0.0
 10
466.018681
 20
-34.727172
 30
0.0
 10
467.398521
 20
-32.364267
 30
0.0
  0
LINE
  5
115
100
AcDbEntity
  8
Battery_holder_-_cut
 62
7
100
AcDbLine
 10
467.398521
 20
-32.364267
 30
0.0
 11
467.398521
 21
-26.695579
 31
0.0
  0
SPLINE
  5
116
100
AcDbEntity
  8
Battery_holder_-_cut
 62
7
100
AcDbSpline
 70
8
 71
3
 72
8
 73
4
 74
0
 40
0
 40
0
 40
0
 40
0
 40
1
 40
1
 40
1
 40
1
 10
467.398521
 20
-26.695579
 30
0.0
 10
467.398521
 20
-23.695642
 30
0.0
 10
467.398493
 20
-23.695275
 30
0.0
 10
464.398273
 20
-23.695303
 30
0.0
  0
LINE
  5
117
100
AcDbEntity
  8
Battery_holder_-_cut
 62
7
100
AcDbLine
 10
464.398273
 20
-23.695303
 30
0.0
 11
461.398533
 21
-23.695303
 31
0.0
  0
LINE
  5
118
100
AcDbEntity
  8
Battery_holder_-_cut
 62
7
100
AcDbLine
 10
461.398533
 20
-23.695303
 30
0.0
 11
458.398285
 21
-23.695303
 31
0.0
  0
LINE
  5
119
100
AcDbEntity
  8
Battery_holder_-_cut
 62
7
100
AcDbLine
 10
458.398285
 20
-23.695303
 30
0.0
 11
458.398285
 21
-23.695303
 31
0.0
  0
LINE
  5
11a
100
AcDbEntity
  8
Battery_holder_-_cut
 62
7
100
AcDbLine
 10
458.398285
 20
-23.695303
 30
0.0
 11
399.398403
 21
-23.695303
 31
0.0
  0
LINE
  5
11b
100
AcDbEntity
  8
Battery_holder_-_cut
 62
7
100
AcDbLine
 10
399.398403
 20
-23.695303
 30
0.0
 11
396.398127
 21
-23.695303
 31
0.0
  0
LINE
  5
11c
100
AcDbEntity
  8
Battery_holder_-_cut
 62
7
100
AcDbLine
 10
396.398127
 20
-23.695303
 30
0.0
 11
393.398415
 21
-23.695303
 31
0.0
  0
LINE
  5
11d
100
AcDbEntity
  8
Battery_holder_-_cut
 62
7
100
AcDbLine
 10
393.398415
 20
-23.695303
 30
0.0
 11
393.398980
 21
-23.694202
 31
0.0
  0
SPLINE
  5
11e
100
AcDbEntity
  8
Battery_holder_-_cut
 62
7
100
AcDbSpline
 70
8
 71
3
 72
8
 73
4
 74
0
 40
0
 40
0
 40
0
 40
0
 40
1
 40
1
 40
1
 40
1
 10
393.398980
 20
-25.195173
 30
0.0
 10
394.184291
 20
-25.195258
 30
0.0
 10
394.898765
 20
-25.909703
 30
0.0
 10
394.898822
 20
-26.695015
 30
0.0
  0
SPLINE
  5
11f
100
AcDbEntity
  8
Battery_holder_-_cut
 62
7
100
AcDbSpline
 70
8
 71
3
 72
8
 73
4
 74
0
 40
0
 40
0
 40
0
 40
0
 40
1
 40
1
 40
1
 40
1
 10
394.898822
 20
-26.695015
 30
0.0
 10
394.898765
 20
-27.480326
 30
0.0
 10
394.184291
 20
-28.194800
 30
0.0
 10
393.398980
 20
-28.194885
 30
0.0
  0
SPLINE
  5
120
100
AcDbEntity
  8
Battery_holder_-_cut
 62
7
100
AcDbSpline
 70
8
 71
3
 72
8
 73
4
 74
0
 40
0
 40
0
 40
0
 40
0
 40
1
 40
1
 40
1
 40
1
 10
393.398980
 20
-28.194885
 30
0.0
 10
392.613471
 20
-28.194800
 30
0.0
 10
391.898884
 20
-27.479988
 30
0.0
 10
391.899110
 20
-26.694479
 30
0.0
  0
SPLINE
  5
121
100
AcDbEntity
  8
Battery_holder_-_cut
 62
7
100
AcDbSpline
 70
8
 71
3
 72
8
 73
4
 74
0
 40
0
 40
0
 40
0
 40
0
 40
1
 40
1
 40
1
 40
1
 10
391.899110
 20
-26.694479
 30
0.0
 10
391.899392
 20
-25.909365
 30
0.0
 10
392.613866
 20
-25.195258
 30
0.0
 10
393.398980
 20
-25.195173
 30
0.0
  0
LINE
  5
122
100
AcDbEntity
  8
Battery_holder_-_cut
 62
7
100
AcDbLine
 10
393.398980
 20
-25.195173
 30
0.0
 11
393.398980
 21
-25.195173
 31
0.0
  0
SPLINE
  5
123
100
AcDbEntity
  8
Battery_holder_-_cut
 62
7
100
AcDbSpline
 70
8
 71
3
 72
8
 73
4
 74
0
 40
0
 40
0
 40
0
 40
0
 40
1
 40
1
 40
1
 40
1
 10
464.398810
 20
-25.195173
 30
0.0
 10
465.184121
 20
-25.195258
 30
0.0
 10
465.898595
 20
-25.909703
 30
0.0
 10
465.898680
 20
-26.695015
 30
0.0
  0
SPLINE
  5
124
100
AcDbEntity
  8
Battery_holder_-_cut
 62
7
100
AcDbSpline
 70
8
 71
3
 72
8
 73
4
 74
0
 40
0
 40
0
 40
0
 40
0
 40
1
 40
1
 40
1
 40
1
 10
465.898680
 20
-26.695015
 30
0.0
 10
465.898595
 20
-27.480326
 30
0.0
 10
465.184121
 20
-28.194800
 30
0.0
 10
464.398810
 20
-28.194885
 30
0.0
  0
SPLINE
  5
125
100
AcDbEntity
  8
Battery_holder_-_cut
 62
7
100
AcDbSpline
 70
8
 71
3
 72
8
 73
4
 74
0
 40
0
 40
0
 40
0
 40
0
 40
1
 40
1
 40
1
 40
1
 10
464.398810
 20
-28.194885
 30
0.0
 10
463.613498
 20
-28.194800
 30
0.0
 10
462.899024
 20
-27.480326
 30
0.0
 10
462.898940
 20
-26.695015
 30
0.0
  0
SPLINE
  5
126
100
AcDbEntity
  8
Battery_holder_-_cut
 62
7
100
AcDbSpline
 70
8
 71
3
 72
8
 73
4
 74
0
 40
0
 40
0
 40
0
 40
0
 40
1
 40
1
 40
1
 40
1
 10
462.898940
 20
-26.695015
 30
0.0
 10
462.899024
 20
-25.909703
 30
0.0
 10
463.613498
 20
-25.195258
 30
0.0
 10
464.398810
 20
-25.195173
 30
0.0
  0
LINE
  5
127
100
AcDbEntity
  8
Battery_holder_-_cut
 62
7
100
AcDbLine
 10
464.398810
 20
-25.195173
 30
0.0
 11
464.398810
 21
-25.195173
 31
0.0
  0
SPLINE
  5
128
100
AcDbEntity
  8
Battery_holder_-_cut
 62
7
100
AcDbSpline
 70
8
 71
3
 72
8
 73
4
 74
0
 40
0
 40
0
 40
0
 40
0
 40
1
 40
1
 40
1
 40
1
 10
393.398980
 20
-100.195156
 30
0.0
 10
394.184094
 20
-100.195240
 30
0.0
 10
394.898455
 20
-100.909347
 30
0.0
 10
394.898822
 20
-101.694461
 30
0.0
  0
SPLINE
  5
129
100
AcDbEntity
  8
Battery_holder_-_cut
 62
7
100
AcDbSpline
 70
8
 71
3
 72
8
 73
4
 74
0
 40
0
 40
0
 40
0
 40
0
 40
1
 40
1
 40
1
 40
1
 10
394.898822
 20
-101.694461
 30
0.0
 10
394.898765
 20
-102.479773
 30
0.0
 10
394.184291
 20
-103.194247
 30
0.0
 10
393.398980
 20
-103.194331
 30
0.0
  0
SPLINE
  5
12a
100
AcDbEntity
  8
Battery_holder_-_cut
 62
7
100
AcDbSpline
 70
8
 71
3
 72
8
 73
4
 74
0
 40
0
 40
0
 40
0
 40
0
 40
1
 40
1
 40
1
 40
1
 10
393.398980
 20
-103.194331
 30
0.0
 10
392.613866
 20
-103.194247
 30
0.0
 10
391.899477
 20
-102.480140
 30
0.0
 10
391.899110
 20
-101.695026
 30
0.0
  0
SPLINE
  5
12b
100
AcDbEntity
  8
Battery_holder_-_cut
 62
7
100
AcDbSpline
 70
8
 71
3
 72
8
 73
4
 74
0
 40
0
 40
0
 40
0
 40
0
 40
1
 40
1
 40
1
 40
1
 10
391.899110
 20
-101.695026
 30
0.0
 10
391.899195
 20
-100.909714
 30
0.0
 10
392.613668
 20
-100.195240
 30
0.0
 10
393.398980
 20
-100.195156
 30
0.0
  0
LINE
  5
12c
100
AcDbEntity
  8
Battery_holder_-_cut
 62
7
100
AcDbLine
 10
393.398980
 20
-100.195156
 30
0.0
 11
393.398980
 21
-100.195156
 31
0.0
  0
SPLINE
  5
12d
100
AcDbEntity
  8
Battery_holder_-_cut
 62
7
100
AcDbSpline
 70
8
 71
3
 72
8
 73
4
 74
0
 40
0
 40
0
 40
0
 40
0
 40
1
 40
1
 40
1
 40
1
 10
464.398810
 20
-100.195156
 30
0.0
 10
465.183924
 20
-100.195240
 30
0.0
 10
465.898313
 20
-100.909347
 30
0.0
 10
465.898680
 20
-101.694461
 30
0.0
  0
SPLINE
  5
12e
100
AcDbEntity
  8
Battery_holder_-_cut
 62
7
100
AcDbSpline
 70
8
 71
3
 72
8
 73
4
 74
0
 40
0
 40
0
 40
0
 40
0
 40
1
 40
1
 40
1
 40
1
 10
465.898680
 20
-101.694461
 30
0.0
 10
465.898877
 20
-102.479942
 30
0.0
 10
465.184291
 20
-103.194783
 30
0.0
 10
464.398810
 20
-103.194868
 30
0.0
  0
SPLINE
  5
12f
100
AcDbEntity
  8
Battery_holder_-_cut
 62
7
100
AcDbSpline
 70
8
 71
3
 72
8
 73
4
 74
0
 40
0
 40
0
 40
0
 40
0
 40
1
 40
1
 40
1
 40
1
 10
464.398810
 20
-103.194868
 30
0.0
 10
463.613329
 20
-103.194783
 30
0.0
 10
462.898742
 20
-102.479942
 30
0.0
 10
462.898940
 20
-101.694461
 30
0.0
  0
SPLINE
  5
130
100
AcDbEntity
  8
Battery_holder_-_cut
 62
7
100
AcDbSpline
 70
8
 71
3
 72
8
 73
4
 74
0
 40
0
 40
0
 40
0
 40
0
 40
1
 40
1
 40
1
 40
1
 10
462.898940
 20
-101.694461
 30
0.0
 10
462.899222
 20
-100.909347
 30
0.0
 10
463.613696
 20
-100.195240
 30
0.0
 10
464.398810
 20
-100.195156
 30
0.0
  0
LINE
  5
131
100
AcDbEntity
  8
Battery_holder_-_cut
 62
7
100
AcDbLine
 10
464.398810
 20
-100.195156
 30
0.0
 11
464.398810
 21
-100.195156
 31
0.0
  0
LINE
  5
132
100
AcDbEntity
  8
Battery_holder_-_cut
 62
7
100
AcDbLine
 10
391.309491
 20
-139.194386
 30
0.0
 11
450.309345
 21
-139.194386
 31
0.0
  0
LINE
  5
133
100
AcDbEntity
  8
Battery_holder_-_cut
 62
7
100
AcDbLine
 10
450.309345
 20
-139.194386
 30
0.0
 11
453.309621
 21
-139.194386
 31
0.0
  0
LINE
  5
134
100
AcDbEntity
  8
Battery_holder_-_cut
 62
7
100
AcDbLine
 10
453.309621
 20
-139.194386
 30
0.0
 11
456.309333
 21
-139.194386
 31
0.0
  0
SPLINE
  5
135
100
AcDbEntity
  8
Battery_holder_-_cut
 62
7
100
AcDbSpline
 70
8
 71
3
 72
8
 73
4
 74
0
 40
0
 40
0
 40
0
 40
0
 40
1
 40
1
 40
1
 40
1
 10
456.309333
 20
-139.194386
 30
0.0
 10
459.309412
 20
-139.194358
 30
0.0
 10
459.309609
 20
-139.194245
 30
0.0
 10
459.309609
 20
-136.070102
 30
0.0
  0
LINE
  5
136
100
AcDbEntity
  8
Battery_holder_-_cut
 62
7
100
AcDbLine
 10
459.309609
 20
-136.070102
 30
0.0
 11
459.309609
 21
-130.516617
 31
0.0
  0
SPLINE
  5
137
100
AcDbEntity
  8
Battery_holder_-_cut
 62
7
100
AcDbSpline
 70
8
 71
3
 72
8
 73
4
 74
0
 40
0
 40
0
 40
0
 40
0
 40
1
 40
1
 40
1
 40
1
 10
459.309609
 20
-130.516617
 30
0.0
 10
457.931236
 20
-128.156252
 30
0.0
 10
457.189330
 20
-125.428207
 30
0.0
 10
457.182472
 20
-122.694885
 30
0.0
  0
SPLINE
  5
138
100
AcDbEntity
  8
Battery_holder_-_cut
 62
7
100
AcDbSpline
 70
8
 71
3
 72
8
 73
4
 74
0
 40
0
 40
0
 40
0
 40
0
 40
1
 40
1
 40
1
 40
1
 10
457.182472
 20
-122.694885
 30
0.0
 10
457.187834
 20
-119.958599
 30
0.0
 10
457.929768
 20
-117.227225
 30
0.0
 10
459.309609
 20
-114.864319
 30
0.0
  0
LINE
  5
139
100
AcDbEntity
  8
Battery_holder_-_cut
 62
7
100
AcDbLine
 10
459.309609
 20
-114.864319
 30
0.0
 11
459.309609
 21
-58.195031
 31
0.0
  0
LINE
  5
13a
100
AcDbEntity
  8
Battery_holder_-_cut
 62
7
100
AcDbLine
 10
459.309609
 20
-58.195031
 30
0.0
 11
453.309621
 21
-58.195031
 31
0.0
  0
LINE
  5
13b
100
AcDbEntity
  8
Battery_holder_-_cut
 62
7
100
AcDbLine
 10
453.309621
 20
-58.195031
 30
0.0
 11
453.309621
 21
-129.194237
 31
0.0
  0
LINE
  5
13c
100
AcDbEntity
  8
Battery_holder_-_cut
 62
7
100
AcDbLine
 10
453.309621
 20
-129.194237
 30
0.0
 11
451.221149
 21
-129.194237
 31
0.0
  0
SPLINE
  5
13d
100
AcDbEntity
  8
Battery_holder_-_cut
 62
7
100
AcDbSpline
 70
8
 71
3
 72
8
 73
4
 74
0
 40
0
 40
0
 40
0
 40
0
 40
1
 40
1
 40
1
 40
1
 10
451.221149
 20
-129.194237
 30
0.0
 10
450.309232
 20
-129.194237
 30
0.0
 10
450.309232
 20
-129.194237
 30
0.0
 10
450.309232
 20
-130.193840
 30
0.0
  0
LINE
  5
13e
100
AcDbEntity
  8
Battery_holder_-_cut
 62
7
100
AcDbLine
 10
450.309232
 20
-130.193840
 30
0.0
 11
450.309345
 21
-134.194312
 31
0.0
  0
LINE
  5
13f
100
AcDbEntity
  8
Battery_holder_-_cut
 62
7
100
AcDbLine
 10
450.309345
 20
-134.194312
 30
0.0
 11
391.309491
 21
-134.194312
 31
0.0
  0
LINE
  5
140
100
AcDbEntity
  8
Battery_holder_-_cut
 62
7
100
AcDbLine
 10
391.309491
 20
-134.194312
 30
0.0
 11
391.309237
 21
-130.193840
 31
0.0
  0
SPLINE
  5
141
100
AcDbEntity
  8
Battery_holder_-_cut
 62
7
100
AcDbSpline
 70
8
 71
3
 72
8
 73
4
 74
0
 40
0
 40
0
 40
0
 40
0
 40
1
 40
1
 40
1
 40
1
 10
391.309237
 20
-130.193840
 30
0.0
 10
391.309237
 20
-129.193842
 30
0.0
 10
391.309237
 20
-129.193842
 30
0.0
 10
390.309239
 20
-129.193842
 30
0.0
  0
LINE
  5
142
100
AcDbEntity
  8
Battery_holder_-_cut
 62
7
100
AcDbLine
 10
390.309239
 20
-129.193842
 30
0.0
 11
388.309215
 21
-129.193842
 31
0.0
  0
LINE
  5
143
100
AcDbEntity
  8
Battery_holder_-_cut
 62
7
100
AcDbLine
 10
388.309215
 20
-129.193842
 30
0.0
 11
388.309215
 21
-58.193507
 31
0.0
  0
LINE
  5
144
100
AcDbEntity
  8
Battery_holder_-_cut
 62
7
100
AcDbLine
 10
388.309215
 20
-58.193507
 30
0.0
 11
382.309227
 21
-58.193507
 31
0.0
  0
LINE
  5
145
100
AcDbEntity
  8
Battery_holder_-_cut
 62
7
100
AcDbLine
 10
382.309227
 20
-58.193507
 30
0.0
 11
382.309227
 21
-114.870528
 31
0.0
  0
SPLINE
  5
146
100
AcDbEntity
  8
Battery_holder_-_cut
 62
7
100
AcDbSpline
 70
8
 71
3
 72
8
 73
4
 74
0
 40
0
 40
0
 40
0
 40
0
 40
1
 40
1
 40
1
 40
1
 10
382.309227
 20
-114.870528
 30
0.0
 10
383.687883
 20
-117.231373
 30
0.0
 10
384.429788
 20
-119.960039
 30
0.0
 10
384.436364
 20
-122.693925
 30
0.0
  0
SPLINE
  5
147
100
AcDbEntity
  8
Battery_holder_-_cut
 62
7
100
AcDbSpline
 70
8
 71
3
 72
8
 73
4
 74
0
 40
0
 40
0
 40
0
 40
0
 40
1
 40
1
 40
1
 40
1
 10
384.436364
 20
-122.693925
 30
0.0
 10
384.431002
 20
-125.430211
 30
0.0
 10
383.689096
 20
-128.161586
 30
0.0
 10
382.309227
 20
-130.524491
 30
0.0
  0
LINE
  5
148
100
AcDbEntity
  8
Battery_holder_-_cut
 62
7
100
AcDbLine
 10
382.309227
 20
-130.524491
 30
0.0
 11
382.309227
 21
-136.193179
 31
0.0
  0
SPLINE
  5
149
100
AcDbEntity
  8
Battery_holder_-_cut
 62
7
100
AcDbSpline
 70
8
 71
3
 72
8
 73
4
 74
0
 40
0
 40
0
 40
0
 40
0
 40
1
 40
1
 40
1
 40
1
 10
382.309227
 20
-136.193179
 30
0.0
 10
382.309227
 20
-139.193116
 30
0.0
 10
382.309283
 20
-139.193483
 30
0.0
 10
385.309503
 20
-139.193455
 30
0.0
  0
LINE
  5
14a
100
AcDbEntity
  8
Battery_holder_-_cut
 62
7
100
AcDbLine
 10
385.309503
 20
-139.193455
 30
0.0
 11
388.309215
 21
-139.193455
 31
0.0
  0
LINE
  5
14b
100
AcDbEntity
  8
Battery_holder_-_cut
 62
7
100
AcDbLine
 10
388.309215
 20
-139.193455
 30
0.0
 11
391.309491
 21
-139.193455
 31
0.0
  0
LINE
  5
14c
100
AcDbEntity
  8
Battery_holder_-_cut
 62
7
100
AcDbLine
 10
391.309491
 20
-139.193455
 30
0.0
 11
391.309491
 21
-139.194386
 31
0.0
  0
SPLINE
  5
14d
100
AcDbEntity
  8
Battery_holder_-_cut
 62
7
100
AcDbSpline
 70
8
 71
3
 72
8
 73
4
 74
0
 40
0
 40
0
 40
0
 40
0
 40
1
 40
1
 40
1
 40
1
 10
456.309333
 20
-137.693444
 30
0.0
 10
455.524021
 20
-137.693359
 30
0.0
 10
454.809548
 20
-136.978885
 30
0.0
 10
454.809491
 20
-136.193574
 30
0.0
  0
SPLINE
  5
14e
100
AcDbEntity
  8
Battery_holder_-_cut
 62
7
100
AcDbSpline
 70
8
 71
3
 72
8
 73
4
 74
0
 40
0
 40
0
 40
0
 40
0
 40
1
 40
1
 40
1
 40
1
 10
454.809491
 20
-136.193574
 30
0.0
 10
454.809548
 20
-135.408262
 30
0.0
 10
455.524021
 20
-134.693789
 30
0.0
 10
456.309333
 20
-134.693704
 30
0.0
  0
SPLINE
  5
14f
100
AcDbEntity
  8
Battery_holder_-_cut
 62
7
100
AcDbSpline
 70
8
 71
3
 72
8
 73
4
 74
0
 40
0
 40
0
 40
0
 40
0
 40
1
 40
1
 40
1
 40
1
 10
456.309333
 20
-134.693704
 30
0.0
 10
457.094842
 20
-134.693789
 30
0.0
 10
457.809429
 20
-135.408629
 30
0.0
 10
457.809203
 20
-136.194138
 30
0.0
  0
SPLINE
  5
150
100
AcDbEntity
  8
Battery_holder_-_cut
 62
7
100
AcDbSpline
 70
8
 71
3
 72
8
 73
4
 74
0
 40
0
 40
0
 40
0
 40
0
 40
1
 40
1
 40
1
 40
1
 10
457.809203
 20
-136.194138
 30
0.0
 10
457.808921
 20
-136.979252
 30
0.0
 10
457.094447
 20
-137.693359
 30
0.0
 10
456.309333
 20
-137.693444
 30
0.0
  0
LINE
  5
151
100
AcDbEntity
  8
Battery_holder_-_cut
 62
7
100
AcDbLine
 10
456.309333
 20
-137.693444
 30
0.0
 11
456.309333
 21
-137.693444
 31
0.0
  0
SPLINE
  5
152
100
AcDbEntity
  8
Battery_holder_-_cut
 62
7
100
AcDbSpline
 70
8
 71
3
 72
8
 73
4
 74
0
 40
0
 40
0
 40
0
 40
0
 40
1
 40
1
 40
1
 40
1
 10
385.309503
 20
-137.693444
 30
0.0
 10
384.524192
 20
-137.693359
 30
0.0
 10
383.809718
 20
-136.978885
 30
0.0
 10
383.809633
 20
-136.193574
 30
0.0
  0
SPLINE
  5
153
100
AcDbEntity
  8
Battery_holder_-_cut
 62
7
100
AcDbSpline
 70
8
 71
3
 72
8
 73
4
 74
0
 40
0
 40
0
 40
0
 40
0
 40
1
 40
1
 40
1
 40
1
 10
383.809633
 20
-136.193574
 30
0.0
 10
383.809718
 20
-135.408262
 30
0.0
 10
384.524192
 20
-134.693789
 30
0.0
 10
385.309503
 20
-134.693704
 30
0.0
  0
SPLINE
  5
154
100
AcDbEntity
  8
Battery_holder_-_cut
 62
7
100
AcDbSpline
 70
8
 71
3
 72
8
 73
4
 74
0
 40
0
 40
0
 40
0
 40
0
 40
1
 40
1
 40
1
 40
1
 10
385.309503
 20
-134.693704
 30
0.0
 10
386.094815
 20
-134.693789
 30
0.0
 10
386.809289
 20
-135.408262
 30
0.0
 10
386.809345
 20
-136.193574
 30
0.0
  0
SPLINE
  5
155
100
AcDbEntity
  8
Battery_holder_-_cut
 62
7
100
AcDbSpline
 70
8
 71
3
 72
8
 73
4
 74
0
 40
0
 40
0
 40
0
 40
0
 40
1
 40
1
 40
1
 40
1
 10
386.809345
 20
-136.193574
 30
0.0
 10
386.809289
 20
-136.978885
 30
0.0
 10
386.094815
 20
-137.693359
 30
0.0
 10
385.309503
 20
-137.693444
 30
0.0
  0
LINE
  5
156
100
AcDbEntity
  8
Battery_holder_-_cut
 62
7
100
AcDbLine
 10
385.309503
 20
-137.693444
 30
0.0
 11
385.309503
 21
-137.693444
 31
0.0
  0
SPLINE
  5
157
100
AcDbEntity
  8
Battery_holder_-_cut
 62
7
100
AcDbSpline
 70
8
 71
3
 72
8
 73
4
 74
0
 40
0
 40
0
 40
0
 40
0
 40
1
 40
1
 40
1
 40
1
 10
456.309333
 20
-62.693484
 30
0.0
 10
455.524219
 20
-62.693399
 30
0.0
 10
454.809830
 20
-61.979292
 30
0.0
 10
454.809491
 20
-61.194178
 30
0.0
  0
SPLINE
  5
158
100
AcDbEntity
  8
Battery_holder_-_cut
 62
7
100
AcDbSpline
 70
8
 71
3
 72
8
 73
4
 74
0
 40
0
 40
0
 40
0
 40
0
 40
1
 40
1
 40
1
 40
1
 10
454.809491
 20
-61.194178
 30
0.0
 10
454.809548
 20
-60.408867
 30
0.0
 10
455.524021
 20
-59.694393
 30
0.0
 10
456.309333
 20
-59.694308
 30
0.0
  0
SPLINE
  5
159
100
AcDbEntity
  8
Battery_holder_-_cut
 62
7
100
AcDbSpline
 70
8
 71
3
 72
8
 73
4
 74
0
 40
0
 40
0
 40
0
 40
0
 40
1
 40
1
 40
1
 40
1
 10
456.309333
 20
-59.694308
 30
0.0
 10
457.094447
 20
-59.694393
 30
0.0
 10
457.808836
 20
-60.408500
 30
0.0
 10
457.809203
 20
-61.193614
 30
0.0
  0
SPLINE
  5
15a
100
AcDbEntity
  8
Battery_holder_-_cut
 62
7
100
AcDbSpline
 70
8
 71
3
 72
8
 73
4
 74
0
 40
0
 40
0
 40
0
 40
0
 40
1
 40
1
 40
1
 40
1
 10
457.809203
 20
-61.193614
 30
0.0
 10
457.809118
 20
-61.978925
 30
0.0
 10
457.094645
 20
-62.693399
 30
0.0
 10
456.309333
 20
-62.693484
 30
0.0
  0
LINE
  5
15b
100
AcDbEntity
  8
Battery_holder_-_cut
 62
7
100
AcDbLine
 10
456.309333
 20
-62.693484
 30
0.0
 11
456.309333
 21
-62.693484
 31
0.0
  0
SPLINE
  5
15c
100
AcDbEntity
  8
Battery_holder_-_cut
 62
7
100
AcDbSpline
 70
8
 71
3
 72
8
 73
4
 74
0
 40
0
 40
0
 40
0
 40
0
 40
1
 40
1
 40
1
 40
1
 10
385.309503
 20
-62.693484
 30
0.0
 10
384.524389
 20
-62.693399
 30
0.0
 10
383.810000
 20
-61.979292
 30
0.0
 10
383.809633
 20
-61.194178
 30
0.0
  0
SPLINE
  5
15d
100
AcDbEntity
  8
Battery_holder_-_cut
 62
7
100
AcDbSpline
 70
8
 71
3
 72
8
 73
4
 74
0
 40
0
 40
0
 40
0
 40
0
 40
1
 40
1
 40
1
 40
1
 10
383.809633
 20
-61.194178
 30
0.0
 10
383.809436
 20
-60.408697
 30
0.0
 10
384.524022
 20
-59.693857
 30
0.0
 10
385.309503
 20
-59.693772
 30
0.0
  0
SPLINE
  5
15e
100
AcDbEntity
  8
Battery_holder_-_cut
 62
7
100
AcDbSpline
 70
8
 71
3
 72
8
 73
4
 74
0
 40
0
 40
0
 40
0
 40
0
 40
1
 40
1
 40
1
 40
1
 10
385.309503
 20
-59.693772
 30
0.0
 10
386.094984
 20
-59.693857
 30
0.0
 10
386.809571
 20
-60.408697
 30
0.0
 10
386.809345
 20
-61.194178
 30
0.0
  0
SPLINE
  5
15f
100
AcDbEntity
  8
Battery_holder_-_cut
 62
7
100
AcDbSpline
 70
8
 71
3
 72
8
 73
4
 74
0
 40
0
 40
0
 40
0
 40
0
 40
1
 40
1
 40
1
 40
1
 10
386.809345
 20
-61.194178
 30
0.0
 10
386.809345
 20
-61.979292
 30
0.0
 10
386.094617
 20
-62.693399
 30
0.0
 10
385.309503
 20
-62.693484
 30
0.0
  0
LINE
  5
160
100
AcDbEntity
  8
Battery_holder_-_cut
 62
7
100
AcDbLine
 10
385.309503
 20
-62.693484
 30
0.0
 11
385.309503
 21
-62.693484
 31
0.0
  0
SPLINE
  5
161
100
AcDbEntity
  8
Battery_holder_-_cut
 62
7
100
AcDbSpline
 70
8
 71
3
 72
8
 73
4
 74
0
 40
0
 40
0
 40
0
 40
0
 40
1
 40
1
 40
1
 40
1
 10
401.398964
 20
-30.694217
 30
0.0
 10
398.398885
 20
-30.694245
 30
0.0
 10
398.398716
 20
-30.694358
 30
0.0
 10
398.398716
 20
-33.818501
 30
0.0
  0
LINE
  5
162
100
AcDbEntity
  8
Battery_holder_-_cut
 62
7
100
AcDbLine
 10
398.398716
 20
-33.818501
 30
0.0
 11
398.398716
 21
-39.372014
 31
0.0
  0
SPLINE
  5
163
100
AcDbEntity
  8
Battery_holder_-_cut
 62
7
100
AcDbSpline
 70
8
 71
3
 72
8
 73
4
 74
0
 40
0
 40
0
 40
0
 40
0
 40
1
 40
1
 40
1
 40
1
 10
398.398716
 20
-39.372014
 30
0.0
 10
399.777089
 20
-41.732379
 30
0.0
 10
400.518967
 20
-44.460424
 30
0.0
 10
400.525853
 20
-47.193746
 30
0.0
  0
SPLINE
  5
164
100
AcDbEntity
  8
Battery_holder_-_cut
 62
7
100
AcDbSpline
 70
8
 71
3
 72
8
 73
4
 74
0
 40
0
 40
0
 40
0
 40
0
 40
1
 40
1
 40
1
 40
1
 10
400.525853
 20
-47.193746
 30
0.0
 10
400.520491
 20
-49.930032
 30
0.0
 10
399.778557
 20
-52.661407
 30
0.0
 10
398.398716
 20
-55.024312
 30
0.0
  0
LINE
  5
165
100
AcDbEntity
  8
Battery_holder_-_cut
 62
7
100
AcDbLine
 10
398.398716
 20
-55.024312
 30
0.0
 11
398.398716
 21
-111.693665
 31
0.0
  0
LINE
  5
166
100
AcDbEntity
  8
Battery_holder_-_cut
 62
7
100
AcDbLine
 10
398.398716
 20
-111.693665
 30
0.0
 11
404.398676
 21
-111.693665
 31
0.0
  0
LINE
  5
167
100
AcDbEntity
  8
Battery_holder_-_cut
 62
7
100
AcDbLine
 10
404.398676
 20
-111.693665
 30
0.0
 11
404.398676
 21
-40.694366
 31
0.0
  0
LINE
  5
168
100
AcDbEntity
  8
Battery_holder_-_cut
 62
7
100
AcDbLine
 10
404.398676
 20
-40.694366
 30
0.0
 11
406.487233
 21
-40.694366
 31
0.0
  0
SPLINE
  5
169
100
AcDbEntity
  8
Battery_holder_-_cut
 62
7
100
AcDbSpline
 70
8
 71
3
 72
8
 73
4
 74
0
 40
0
 40
0
 40
0
 40
0
 40
1
 40
1
 40
1
 40
1
 10
406.487233
 20
-40.694366
 30
0.0
 10
407.399149
 20
-40.694366
 30
0.0
 10
407.399516
 20
-40.694620
 30
0.0
 10
407.399516
 20
-39.695017
 30
0.0
  0
LINE
  5
16a
100
AcDbEntity
  8
Battery_holder_-_cut
 62
7
100
AcDbLine
 10
407.399516
 20
-39.695017
 30
0.0
 11
407.399516
 21
-35.694291
 31
0.0
  0
LINE
  5
16b
100
AcDbEntity
  8
Battery_holder_-_cut
 62
7
100
AcDbLine
 10
407.399516
 20
-35.694291
 30
0.0
 11
436.899443
 21
-35.694291
 31
0.0
  0
LINE
  5
16c
100
AcDbEntity
  8
Battery_holder_-_cut
 62
7
100
AcDbLine
 10
436.899443
 20
-35.694291
 30
0.0
 11
436.899443
 21
-30.694217
 31
0.0
  0
LINE
  5
16d
100
AcDbEntity
  8
Battery_holder_-_cut
 62
7
100
AcDbLine
 10
436.899443
 20
-30.694217
 30
0.0
 11
407.399516
 21
-30.694217
 31
0.0
  0
LINE
  5
16e
100
AcDbEntity
  8
Battery_holder_-_cut
 62
7
100
AcDbLine
 10
407.399516
 20
-30.694217
 30
0.0
 11
404.399240
 21
-30.694217
 31
0.0
  0
LINE
  5
16f
100
AcDbEntity
  8
Battery_holder_-_cut
 62
7
100
AcDbLine
 10
404.399240
 20
-30.694217
 30
0.0
 11
401.399528
 21
-30.694217
 31
0.0
  0
LINE
  5
170
100
AcDbEntity
  8
Battery_holder_-_cut
 62
7
100
AcDbLine
 10
401.399528
 20
-30.694217
 30
0.0
 11
401.398964
 21
-30.694217
 31
0.0
  0
SPLINE
  5
171
100
AcDbEntity
  8
Battery_holder_-_cut
 62
7
100
AcDbSpline
 70
8
 71
3
 72
8
 73
4
 74
0
 40
0
 40
0
 40
0
 40
0
 40
1
 40
1
 40
1
 40
1
 10
401.398964
 20
-32.195187
 30
0.0
 10
402.184275
 20
-32.195272
 30
0.0
 10
402.898777
 20
-32.909718
 30
0.0
 10
402.898834
 20
-33.695029
 30
0.0
  0
SPLINE
  5
172
100
AcDbEntity
  8
Battery_holder_-_cut
 62
7
100
AcDbSpline
 70
8
 71
3
 72
8
 73
4
 74
0
 40
0
 40
0
 40
0
 40
0
 40
1
 40
1
 40
1
 40
1
 10
402.898834
 20
-33.695029
 30
0.0
 10
402.898777
 20
-34.480341
 30
0.0
 10
402.184275
 20
-35.194814
 30
0.0
 10
401.398964
 20
-35.194899
 30
0.0
  0
SPLINE
  5
173
100
AcDbEntity
  8
Battery_holder_-_cut
 62
7
100
AcDbSpline
 70
8
 71
3
 72
8
 73
4
 74
0
 40
0
 40
0
 40
0
 40
0
 40
1
 40
1
 40
1
 40
1
 10
401.398964
 20
-35.194899
 30
0.0
 10
400.613483
 20
-35.194814
 30
0.0
 10
399.898896
 20
-34.480002
 30
0.0
 10
399.899122
 20
-33.694493
 30
0.0
  0
SPLINE
  5
174
100
AcDbEntity
  8
Battery_holder_-_cut
 62
7
100
AcDbSpline
 70
8
 71
3
 72
8
 73
4
 74
0
 40
0
 40
0
 40
0
 40
0
 40
1
 40
1
 40
1
 40
1
 10
399.899122
 20
-33.694493
 30
0.0
 10
399.899404
 20
-32.909379
 30
0.0
 10
400.613850
 20
-32.195272
 30
0.0
 10
401.398964
 20
-32.195187
 30
0.0
  0
LINE
  5
175
100
AcDbEntity
  8
Battery_holder_-_cut
 62
7
100
AcDbLine
 10
401.398964
 20
-32.195187
 30
0.0
 11
401.398964
 21
-32.195187
 31
0.0
  0
SPLINE
  5
176
100
AcDbEntity
  8
Battery_holder_-_cut
 62
7
100
AcDbSpline
 70
8
 71
3
 72
8
 73
4
 74
0
 40
0
 40
0
 40
0
 40
0
 40
1
 40
1
 40
1
 40
1
 10
401.398964
 20
-107.195170
 30
0.0
 10
402.184106
 20
-107.195255
 30
0.0
 10
402.898467
 20
-107.909362
 30
0.0
 10
402.898834
 20
-108.694476
 30
0.0
  0
SPLINE
  5
177
100
AcDbEntity
  8
Battery_holder_-_cut
 62
7
100
AcDbSpline
 70
8
 71
3
 72
8
 73
4
 74
0
 40
0
 40
0
 40
0
 40
0
 40
1
 40
1
 40
1
 40
1
 10
402.898834
 20
-108.694476
 30
0.0
 10
402.898777
 20
-109.479787
 30
0.0
 10
402.184275
 20
-110.194261
 30
0.0
 10
401.398964
 20
-110.194346
 30
0.0
  0
SPLINE
  5
178
100
AcDbEntity
  8
Battery_holder_-_cut
 62
7
100
AcDbSpline
 70
8
 71
3
 72
8
 73
4
 74
0
 40
0
 40
0
 40
0
 40
0
 40
1
 40
1
 40
1
 40
1
 10
401.398964
 20
-110.194346
 30
0.0
 10
400.613850
 20
-110.194261
 30
0.0
 10
399.899489
 20
-109.480154
 30
0.0
 10
399.899122
 20
-108.695040
 30
0.0
  0
SPLINE
  5
179
100
AcDbEntity
  8
Battery_holder_-_cut
 62
7
100
AcDbSpline
 70
8
 71
3
 72
8
 73
4
 74
0
 40
0
 40
0
 40
0
 40
0
 40
1
 40
1
 40
1
 40
1
 10
399.899122
 20
-108.695040
 30
0.0
 10
399.899179
 20
-107.909728
 30
0.0
 10
400.613652
 20
-107.195255
 30
0.0
 10
401.398964
 20
-107.195170
 30
0.0
  0
LINE
  5
17a
100
AcDbEntity
  8
Battery_holder_-_cut
 62
7
100
AcDbLine
 10
401.398964
 20
-107.195170
 30
0.0
 11
401.398964
 21
-107.195170
 31
0.0
  0
SPLINE
  5
17b
100
AcDbEntity
  8
Battery_holder_-_cut
 62
7
100
AcDbSpline
 70
8
 71
3
 72
8
 73
4
 74
0
 40
0
 40
0
 40
0
 40
0
 40
1
 40
1
 40
1
 40
1
 10
412.398744
 20
-37.694062
 30
0.0
 10
409.398666
 20
-37.694090
 30
0.0
 10
409.398496
 20
-37.694203
 30
0.0
 10
409.398496
 20
-40.818346
 30
0.0
  0
LINE
  5
17c
100
AcDbEntity
  8
Battery_holder_-_cut
 62
7
100
AcDbLine
 10
409.398496
 20
-40.818346
 30
0.0
 11
409.398496
 21
-46.371859
 31
0.0
  0
SPLINE
  5
17d
100
AcDbEntity
  8
Battery_holder_-_cut
 62
7
100
AcDbSpline
 70
8
 71
3
 72
8
 73
4
 74
0
 40
0
 40
0
 40
0
 40
0
 40
1
 40
1
 40
1
 40
1
 10
409.398496
 20
-46.371859
 30
0.0
 10
410.776870
 20
-48.732224
 30
0.0
 10
411.518747
 20
-51.460269
 30
0.0
 10
411.525633
 20
-54.193591
 30
0.0
  0
SPLINE
  5
17e
100
AcDbEntity
  8
Battery_holder_-_cut
 62
7
100
AcDbSpline
 70
8
 71
3
 72
8
 73
4
 74
0
 40
0
 40
0
 40
0
 40
0
 40
1
 40
1
 40
1
 40
1
 10
411.525633
 20
-54.193591
 30
0.0
 10
411.520271
 20
-56.929877
 30
0.0
 10
410.778337
 20
-59.661252
 30
0.0
 10
409.398496
 20
-62.024157
 30
0.0
  0
LINE
  5
17f
100
AcDbEntity
  8
Battery_holder_-_cut
 62
7
100
AcDbLine
 10
409.398496
 20
-62.024157
 30
0.0
 11
409.398496
 21
-118.693510
 31
0.0
  0
LINE
  5
180
100
AcDbEntity
  8
Battery_holder_-_cut
 62
7
100
AcDbLine
 10
409.398496
 20
-118.693510
 30
0.0
 11
415.398456
 21
-118.693510
 31
0.0
  0
LINE
  5
181
100
AcDbEntity
  8
Battery_holder_-_cut
 62
7
100
AcDbLine
 10
415.398456
 20
-118.693510
 30
0.0
 11
415.398456
 21
-51.694372
 31
0.0
  0
LINE
  5
182
100
AcDbEntity
  8
Battery_holder_-_cut
 62
7
100
AcDbLine
 10
415.398456
 20
-51.694372
 30
0.0
 11
415.398456
 21
-47.694211
 31
0.0
  0
LINE
  5
183
100
AcDbEntity
  8
Battery_holder_-_cut
 62
7
100
AcDbLine
 10
415.398456
 20
-47.694211
 30
0.0
 11
415.398456
 21
-42.694136
 31
0.0
  0
LINE
  5
184
100
AcDbEntity
  8
Battery_holder_-_cut
 62
7
100
AcDbLine
 10
415.398456
 20
-42.694136
 30
0.0
 11
418.398732
 21
-42.694136
 31
0.0
  0
LINE
  5
185
100
AcDbEntity
  8
Battery_holder_-_cut
 62
7
100
AcDbLine
 10
418.398732
 20
-42.694136
 30
0.0
 11
419.398646
 21
-42.694136
 31
0.0
  0
LINE
  5
186
100
AcDbEntity
  8
Battery_holder_-_cut
 62
7
100
AcDbLine
 10
419.398646
 20
-42.694136
 30
0.0
 11
447.898659
 21
-42.694136
 31
0.0
  0
LINE
  5
187
100
AcDbEntity
  8
Battery_holder_-_cut
 62
7
100
AcDbLine
 10
447.898659
 20
-42.694136
 30
0.0
 11
447.898659
 21
-37.694062
 31
0.0
  0
LINE
  5
188
100
AcDbEntity
  8
Battery_holder_-_cut
 62
7
100
AcDbLine
 10
447.898659
 20
-37.694062
 30
0.0
 11
418.398732
 21
-37.694062
 31
0.0
  0
LINE
  5
189
100
AcDbEntity
  8
Battery_holder_-_cut
 62
7
100
AcDbLine
 10
418.398732
 20
-37.694062
 30
0.0
 11
415.398456
 21
-37.694062
 31
0.0
  0
LINE
  5
18a
100
AcDbEntity
  8
Battery_holder_-_cut
 62
7
100
AcDbLine
 10
415.398456
 20
-37.694062
 30
0.0
 11
412.398744
 21
-37.694062
 31
0.0
  0
LINE
  5
18b
100
AcDbEntity
  8
Battery_holder_-_cut
 62
7
100
AcDbLine
 10
412.398744
 20
-37.694062
 30
0.0
 11
412.398744
 21
-37.694062
 31
0.0
  0
SPLINE
  5
18c
100
AcDbEntity
  8
Battery_holder_-_cut
 62
7
100
AcDbSpline
 70
8
 71
3
 72
8
 73
4
 74
0
 40
0
 40
0
 40
0
 40
0
 40
1
 40
1
 40
1
 40
1
 10
412.398744
 20
-39.195032
 30
0.0
 10
413.184056
 20
-39.195117
 30
0.0
 10
413.898558
 20
-39.909562
 30
0.0
 10
413.898614
 20
-40.694874
 30
0.0
  0
SPLINE
  5
18d
100
AcDbEntity
  8
Battery_holder_-_cut
 62
7
100
AcDbSpline
 70
8
 71
3
 72
8
 73
4
 74
0
 40
0
 40
0
 40
0
 40
0
 40
1
 40
1
 40
1
 40
1
 10
413.898614
 20
-40.694874
 30
0.0
 10
413.898558
 20
-41.480186
 30
0.0
 10
413.184056
 20
-42.194659
 30
0.0
 10
412.398744
 20
-42.194744
 30
0.0
  0
SPLINE
  5
18e
100
AcDbEntity
  8
Battery_holder_-_cut
 62
7
100
AcDbSpline
 70
8
 71
3
 72
8
 73
4
 74
0
 40
0
 40
0
 40
0
 40
0
 40
1
 40
1
 40
1
 40
1
 10
412.398744
 20
-42.194744
 30
0.0
 10
411.613263
 20
-42.194659
 30
0.0
 10
410.898677
 20
-41.479847
 30
0.0
 10
410.898903
 20
-40.694338
 30
0.0
  0
SPLINE
  5
18f
100
AcDbEntity
  8
Battery_holder_-_cut
 62
7
100
AcDbSpline
 70
8
 71
3
 72
8
 73
4
 74
0
 40
0
 40
0
 40
0
 40
0
 40
1
 40
1
 40
1
 40
1
 10
410.898903
 20
-40.694338
 30
0.0
 10
410.898903
 20
-39.909224
 30
0.0
 10
411.613630
 20
-39.195117
 30
0.0
 10
412.398744
 20
-39.195032
 30
0.0
  0
LINE
  5
190
100
AcDbEntity
  8
Battery_holder_-_cut
 62
7
100
AcDbLine
 10
412.398744
 20
-39.195032
 30
0.0
 11
412.398744
 21
-39.195032
 31
0.0
  0
SPLINE
  5
191
100
AcDbEntity
  8
Battery_holder_-_cut
 62
7
100
AcDbSpline
 70
8
 71
3
 72
8
 73
4
 74
0
 40
0
 40
0
 40
0
 40
0
 40
1
 40
1
 40
1
 40
1
 10
412.398744
 20
-114.195029
 30
0.0
 10
413.183887
 20
-114.195114
 30
0.0
 10
413.898247
 20
-114.909221
 30
0.0
 10
413.898614
 20
-115.694335
 30
0.0
  0
SPLINE
  5
192
100
AcDbEntity
  8
Battery_holder_-_cut
 62
7
100
AcDbSpline
 70
8
 71
3
 72
8
 73
4
 74
0
 40
0
 40
0
 40
0
 40
0
 40
1
 40
1
 40
1
 40
1
 10
413.898614
 20
-115.694335
 30
0.0
 10
413.898558
 20
-116.479646
 30
0.0
 10
413.184056
 20
-117.194120
 30
0.0
 10
412.398744
 20
-117.194205
 30
0.0
  0
SPLINE
  5
193
100
AcDbEntity
  8
Battery_holder_-_cut
 62
7
100
AcDbSpline
 70
8
 71
3
 72
8
 73
4
 74
0
 40
0
 40
0
 40
0
 40
0
 40
1
 40
1
 40
1
 40
1
 10
412.398744
 20
-117.194205
 30
0.0
 10
411.613630
 20
-117.194120
 30
0.0
 10
410.899269
 20
-116.480013
 30
0.0
 10
410.898903
 20
-115.694899
 30
0.0
  0
SPLINE
  5
194
100
AcDbEntity
  8
Battery_holder_-_cut
 62
7
100
AcDbSpline
 70
8
 71
3
 72
8
 73
4
 74
0
 40
0
 40
0
 40
0
 40
0
 40
1
 40
1
 40
1
 40
1
 10
410.898903
 20
-115.694899
 30
0.0
 10
410.898959
 20
-114.909587
 30
0.0
 10
411.613433
 20
-114.195114
 30
0.0
 10
412.398744
 20
-114.195029
 30
0.0
  0
LINE
  5
195
100
AcDbEntity
  8
Battery_holder_-_cut
 62
7
100
AcDbLine
 10
412.398744
 20
-114.195029
 30
0.0
 11
412.398744
 21
-114.195029
 31
0.0
  0
SPLINE
  5
196
100
AcDbEntity
  8
Battery_holder_-_cut
 62
7
100
AcDbSpline
 70
8
 71
3
 72
8
 73
4
 74
0
 40
0
 40
0
 40
0
 40
0
 40
1
 40
1
 40
1
 40
1
 10
420.399095
 20
-44.693963
 30
0.0
 10
417.399017
 20
-44.693991
 30
0.0
 10
417.398819
 20
-44.694104
 30
0.0
 10
417.398819
 20
-47.818248
 30
0.0
  0
LINE
  5
197
100
AcDbEntity
  8
Battery_holder_-_cut
 62
7
100
AcDbLine
 10
417.398819
 20
-47.818248
 30
0.0
 11
417.398819
 21
-53.372296
 31
0.0
  0
SPLINE
  5
198
100
AcDbEntity
  8
Battery_holder_-_cut
 62
7
100
AcDbSpline
 70
8
 71
3
 72
8
 73
4
 74
0
 40
0
 40
0
 40
0
 40
0
 40
1
 40
1
 40
1
 40
1
 10
417.398819
 20
-53.372296
 30
0.0
 10
418.777192
 20
-55.732662
 30
0.0
 10
419.519098
 20
-58.460142
 30
0.0
 10
419.525956
 20
-61.193464
 30
0.0
  0
SPLINE
  5
199
100
AcDbEntity
  8
Battery_holder_-_cut
 62
7
100
AcDbSpline
 70
8
 71
3
 72
8
 73
4
 74
0
 40
0
 40
0
 40
0
 40
0
 40
1
 40
1
 40
1
 40
1
 10
419.525956
 20
-61.193464
 30
0.0
 10
419.520594
 20
-63.929750
 30
0.0
 10
418.778660
 20
-66.661125
 30
0.0
 10
417.398819
 20
-69.024030
 30
0.0
  0
LINE
  5
19a
100
AcDbEntity
  8
Battery_holder_-_cut
 62
7
100
AcDbLine
 10
417.398819
 20
-69.024030
 30
0.0
 11
417.398819
 21
-125.693948
 31
0.0
  0
LINE
  5
19b
100
AcDbEntity
  8
Battery_holder_-_cut
 62
7
100
AcDbLine
 10
417.398819
 20
-125.693948
 30
0.0
 11
423.398807
 21
-125.693948
 31
0.0
  0
LINE
  5
19c
100
AcDbEntity
  8
Battery_holder_-_cut
 62
7
100
AcDbLine
 10
423.398807
 20
-125.693948
 30
0.0
 11
423.398807
 21
-57.694360
 31
0.0
  0
LINE
  5
19d
100
AcDbEntity
  8
Battery_holder_-_cut
 62
7
100
AcDbLine
 10
423.398807
 20
-57.694360
 30
0.0
 11
423.398807
 21
-54.694084
 31
0.0
  0
LINE
  5
19e
100
AcDbEntity
  8
Battery_holder_-_cut
 62
7
100
AcDbLine
 10
423.398807
 20
-54.694084
 30
0.0
 11
423.398807
 21
-49.694038
 31
0.0
  0
LINE
  5
19f
100
AcDbEntity
  8
Battery_holder_-_cut
 62
7
100
AcDbLine
 10
423.398807
 20
-49.694038
 30
0.0
 11
426.399083
 21
-49.694038
 31
0.0
  0
LINE
  5
1a0
100
AcDbEntity
  8
Battery_holder_-_cut
 62
7
100
AcDbLine
 10
426.399083
 20
-49.694038
 30
0.0
 11
427.398968
 21
-49.694038
 31
0.0
  0
LINE
  5
1a1
100
AcDbEntity
  8
Battery_holder_-_cut
 62
7
100
AcDbLine
 10
427.398968
 20
-49.694038
 30
0.0
 11
455.899010
 21
-49.694038
 31
0.0
  0
LINE
  5
1a2
100
AcDbEntity
  8
Battery_holder_-_cut
 62
7
100
AcDbLine
 10
455.899010
 20
-49.694038
 30
0.0
 11
455.899010
 21
-44.693963
 31
0.0
  0
LINE
  5
1a3
100
AcDbEntity
  8
Battery_holder_-_cut
 62
7
100
AcDbLine
 10
455.899010
 20
-44.693963
 30
0.0
 11
426.399083
 21
-44.693963
 31
0.0
  0
LINE
  5
1a4
100
AcDbEntity
  8
Battery_holder_-_cut
 62
7
100
AcDbLine
 10
426.399083
 20
-44.693963
 30
0.0
 11
423.398807
 21
-44.693963
 31
0.0
  0
LINE
  5
1a5
100
AcDbEntity
  8
Battery_holder_-_cut
 62
7
100
AcDbLine
 10
423.398807
 20
-44.693963
 30
0.0
 11
420.399095
 21
-44.693963
 31
0.0
  0
LINE
  5
1a6
100
AcDbEntity
  8
Battery_holder_-_cut
 62
7
100
AcDbLine
 10
420.399095
 20
-44.693963
 30
0.0
 11
420.399095
 21
-44.693963
 31
0.0
  0
SPLINE
  5
1a7
100
AcDbEntity
  8
Battery_holder_-_cut
 62
7
100
AcDbSpline
 70
8
 71
3
 72
8
 73
4
 74
0
 40
0
 40
0
 40
0
 40
0
 40
1
 40
1
 40
1
 40
1
 10
420.399095
 20
-46.195470
 30
0.0
 10
421.184407
 20
-46.195554
 30
0.0
 10
421.898881
 20
-46.909464
 30
0.0
 10
421.898937
 20
-47.694775
 30
0.0
  0
SPLINE
  5
1a8
100
AcDbEntity
  8
Battery_holder_-_cut
 62
7
100
AcDbSpline
 70
8
 71
3
 72
8
 73
4
 74
0
 40
0
 40
0
 40
0
 40
0
 40
1
 40
1
 40
1
 40
1
 10
421.898937
 20
-47.694775
 30
0.0
 10
421.898881
 20
-48.480087
 30
0.0
 10
421.184407
 20
-49.195097
 30
0.0
 10
420.399095
 20
-49.195182
 30
0.0
  0
SPLINE
  5
1a9
100
AcDbEntity
  8
Battery_holder_-_cut
 62
7
100
AcDbSpline
 70
8
 71
3
 72
8
 73
4
 74
0
 40
0
 40
0
 40
0
 40
0
 40
1
 40
1
 40
1
 40
1
 10
420.399095
 20
-49.195182
 30
0.0
 10
419.613586
 20
-49.195097
 30
0.0
 10
418.898999
 20
-48.480284
 30
0.0
 10
418.899225
 20
-47.694775
 30
0.0
  0
SPLINE
  5
1aa
100
AcDbEntity
  8
Battery_holder_-_cut
 62
7
100
AcDbSpline
 70
8
 71
3
 72
8
 73
4
 74
0
 40
0
 40
0
 40
0
 40
0
 40
1
 40
1
 40
1
 40
1
 10
418.899225
 20
-47.694775
 30
0.0
 10
418.899507
 20
-46.909661
 30
0.0
 10
419.613981
 20
-46.195554
 30
0.0
 10
420.399095
 20
-46.195470
 30
0.0
  0
LINE
  5
1ab
100
AcDbEntity
  8
Battery_holder_-_cut
 62
7
100
AcDbLine
 10
420.399095
 20
-46.195470
 30
0.0
 11
420.399095
 21
-46.195470
 31
0.0
  0
SPLINE
  5
1ac
100
AcDbEntity
  8
Battery_holder_-_cut
 62
7
100
AcDbSpline
 70
8
 71
3
 72
8
 73
4
 74
0
 40
0
 40
0
 40
0
 40
0
 40
1
 40
1
 40
1
 40
1
 10
420.399095
 20
-121.194930
 30
0.0
 10
421.184209
 20
-121.195015
 30
0.0
 10
421.898598
 20
-121.909122
 30
0.0
 10
421.898937
 20
-122.694236
 30
0.0
  0
SPLINE
  5
1ad
100
AcDbEntity
  8
Battery_holder_-_cut
 62
7
100
AcDbSpline
 70
8
 71
3
 72
8
 73
4
 74
0
 40
0
 40
0
 40
0
 40
0
 40
1
 40
1
 40
1
 40
1
 10
421.898937
 20
-122.694236
 30
0.0
 10
421.898881
 20
-123.479547
 30
0.0
 10
421.184407
 20
-124.194557
 30
0.0
 10
420.399095
 20
-124.194642
 30
0.0
  0
SPLINE
  5
1ae
100
AcDbEntity
  8
Battery_holder_-_cut
 62
7
100
AcDbSpline
 70
8
 71
3
 72
8
 73
4
 74
0
 40
0
 40
0
 40
0
 40
0
 40
1
 40
1
 40
1
 40
1
 10
420.399095
 20
-124.194642
 30
0.0
 10
419.613981
 20
-124.194557
 30
0.0
 10
418.899592
 20
-123.480451
 30
0.0
 10
418.899225
 20
-122.695337
 30
0.0
  0
SPLINE
  5
1af
100
AcDbEntity
  8
Battery_holder_-_cut
 62
7
100
AcDbSpline
 70
8
 71
3
 72
8
 73
4
 74
0
 40
0
 40
0
 40
0
 40
0
 40
1
 40
1
 40
1
 40
1
 10
418.899225
 20
-122.695337
 30
0.0
 10
418.899310
 20
-121.910025
 30
0.0
 10
419.613784
 20
-121.195015
 30
0.0
 10
420.399095
 20
-121.194930
 30
0.0
  0
LINE
  5
1b0
100
AcDbEntity
  8
Battery_holder_-_cut
 62
7
100
AcDbLine
 10
420.399095
 20
-121.194930
 30
0.0
 11
420.399095
 21
-121.194930
 31
0.0
  0
SPLINE
  5
1b1
100
AcDbEntity
  8
Battery_holder_-_cut
 62
7
100
AcDbSpline
 70
8
 71
3
 72
8
 73
4
 74
0
 40
0
 40
0
 40
0
 40
0
 40
1
 40
1
 40
1
 40
1
 10
428.398966
 20
-51.694203
 30
0.0
 10
425.398888
 20
-51.694231
 30
0.0
 10
425.398718
 20
-51.694372
 30
0.0
 10
425.398718
 20
-54.818516
 30
0.0
  0
LINE
  5
1b2
100
AcDbEntity
  8
Battery_holder_-_cut
 62
7
100
AcDbLine
 10
425.398718
 20
-54.818516
 30
0.0
 11
425.398718
 21
-60.372000
 31
0.0
  0
SPLINE
  5
1b3
100
AcDbEntity
  8
Battery_holder_-_cut
 62
7
100
AcDbSpline
 70
8
 71
3
 72
8
 73
4
 74
0
 40
0
 40
0
 40
0
 40
0
 40
1
 40
1
 40
1
 40
1
 10
425.398718
 20
-60.372000
 30
0.0
 10
426.777063
 20
-62.732366
 30
0.0
 10
427.518969
 20
-65.460410
 30
0.0
 10
427.525855
 20
-68.193732
 30
0.0
  0
SPLINE
  5
1b4
100
AcDbEntity
  8
Battery_holder_-_cut
 62
7
100
AcDbSpline
 70
8
 71
3
 72
8
 73
4
 74
0
 40
0
 40
0
 40
0
 40
0
 40
1
 40
1
 40
1
 40
1
 10
427.525855
 20
-68.193732
 30
0.0
 10
427.520493
 20
-70.930010
 30
0.0
 10
426.778559
 20
-73.661384
 30
0.0
 10
425.398718
 20
-76.024290
 30
0.0
  0
LINE
  5
1b5
100
AcDbEntity
  8
Battery_holder_-_cut
 62
7
100
AcDbLine
 10
425.398718
 20
-76.024290
 30
0.0
 11
425.398718
 21
-132.693651
 31
0.0
  0
LINE
  5
1b6
100
AcDbEntity
  8
Battery_holder_-_cut
 62
7
100
AcDbLine
 10
425.398718
 20
-132.693651
 30
0.0
 11
431.398678
 21
-132.693651
 31
0.0
  0
LINE
  5
1b7
100
AcDbEntity
  8
Battery_holder_-_cut
 62
7
100
AcDbLine
 10
431.398678
 20
-132.693651
 30
0.0
 11
431.398678
 21
-61.694352
 31
0.0
  0
LINE
  5
1b8
100
AcDbEntity
  8
Battery_holder_-_cut
 62
7
100
AcDbLine
 10
431.398678
 20
-61.694352
 30
0.0
 11
433.487235
 21
-61.694352
 31
0.0
  0
SPLINE
  5
1b9
100
AcDbEntity
  8
Battery_holder_-_cut
 62
7
100
AcDbSpline
 70
8
 71
3
 72
8
 73
4
 74
0
 40
0
 40
0
 40
0
 40
0
 40
1
 40
1
 40
1
 40
1
 10
433.487235
 20
-61.694352
 30
0.0
 10
434.399152
 20
-61.694352
 30
0.0
 10
434.399491
 20
-61.694606
 30
0.0
 10
434.399491
 20
-60.695003
 30
0.0
  0
LINE
  5
1ba
100
AcDbEntity
  8
Battery_holder_-_cut
 62
7
100
AcDbLine
 10
434.399491
 20
-60.695003
 30
0.0
 11
434.399491
 21
-56.694278
 31
0.0
  0
LINE
  5
1bb
100
AcDbEntity
  8
Battery_holder_-_cut
 62
7
100
AcDbLine
 10
434.399491
 20
-56.694278
 30
0.0
 11
458.399414
 21
-56.694278
 31
0.0
  0
LINE
  5
1bc
100
AcDbEntity
  8
Battery_holder_-_cut
 62
7
100
AcDbLine
 10
458.399414
 20
-56.694278
 30
0.0
 11
458.399414
 21
-51.694203
 31
0.0
  0
LINE
  5
1bd
100
AcDbEntity
  8
Battery_holder_-_cut
 62
7
100
AcDbLine
 10
458.399414
 20
-51.694203
 30
0.0
 11
434.399491
 21
-51.694203
 31
0.0
  0
LINE
  5
1be
100
AcDbEntity
  8
Battery_holder_-_cut
 62
7
100
AcDbLine
 10
434.399491
 20
-51.694203
 30
0.0
 11
431.399243
 21
-51.694203
 31
0.0
  0
LINE
  5
1bf
100
AcDbEntity
  8
Battery_holder_-_cut
 62
7
100
AcDbLine
 10
431.399243
 20
-51.694203
 30
0.0
 11
428.399531
 21
-51.694203
 31
0.0
  0
LINE
  5
1c0
100
AcDbEntity
  8
Battery_holder_-_cut
 62
7
100
AcDbLine
 10
428.399531
 20
-51.694203
 30
0.0
 11
428.398966
 21
-51.694203
 31
0.0
  0
SPLINE
  5
1c1
100
AcDbEntity
  8
Battery_holder_-_cut
 62
7
100
AcDbSpline
 70
8
 71
3
 72
8
 73
4
 74
0
 40
0
 40
0
 40
0
 40
0
 40
1
 40
1
 40
1
 40
1
 10
428.398966
 20
-53.195174
 30
0.0
 10
429.184278
 20
-53.195258
 30
0.0
 10
429.898752
 20
-53.909732
 30
0.0
 10
429.898836
 20
-54.695044
 30
0.0
  0
SPLINE
  5
1c2
100
AcDbEntity
  8
Battery_holder_-_cut
 62
7
100
AcDbSpline
 70
8
 71
3
 72
8
 73
4
 74
0
 40
0
 40
0
 40
0
 40
0
 40
1
 40
1
 40
1
 40
1
 10
429.898836
 20
-54.695044
 30
0.0
 10
429.898752
 20
-55.480355
 30
0.0
 10
429.184278
 20
-56.194801
 30
0.0
 10
428.398966
 20
-56.194885
 30
0.0
  0
SPLINE
  5
1c3
100
AcDbEntity
  8
Battery_holder_-_cut
 62
7
100
AcDbSpline
 70
8
 71
3
 72
8
 73
4
 74
0
 40
0
 40
0
 40
0
 40
0
 40
1
 40
1
 40
1
 40
1
 10
428.398966
 20
-56.194885
 30
0.0
 10
427.613485
 20
-56.194801
 30
0.0
 10
426.898899
 20
-55.479988
 30
0.0
 10
426.899125
 20
-54.694479
 30
0.0
  0
SPLINE
  5
1c4
100
AcDbEntity
  8
Battery_holder_-_cut
 62
7
100
AcDbSpline
 70
8
 71
3
 72
8
 73
4
 74
0
 40
0
 40
0
 40
0
 40
0
 40
1
 40
1
 40
1
 40
1
 10
426.899125
 20
-54.694479
 30
0.0
 10
426.899407
 20
-53.909365
 30
0.0
 10
427.613852
 20
-53.195258
 30
0.0
 10
428.398966
 20
-53.195174
 30
0.0
  0
LINE
  5
1c5
100
AcDbEntity
  8
Battery_holder_-_cut
 62
7
100
AcDbLine
 10
428.398966
 20
-53.195174
 30
0.0
 11
428.398966
 21
-53.195174
 31
0.0
  0
SPLINE
  5
1c6
100
AcDbEntity
  8
Battery_holder_-_cut
 62
7
100
AcDbSpline
 70
8
 71
3
 72
8
 73
4
 74
0
 40
0
 40
0
 40
0
 40
0
 40
1
 40
1
 40
1
 40
1
 10
428.398966
 20
-128.195199
 30
0.0
 10
429.184080
 20
-128.195255
 30
0.0
 10
429.898469
 20
-128.909390
 30
0.0
 10
429.898836
 20
-129.694476
 30
0.0
  0
SPLINE
  5
1c7
100
AcDbEntity
  8
Battery_holder_-_cut
 62
7
100
AcDbSpline
 70
8
 71
3
 72
8
 73
4
 74
0
 40
0
 40
0
 40
0
 40
0
 40
1
 40
1
 40
1
 40
1
 10
429.898836
 20
-129.694476
 30
0.0
 10
429.898752
 20
-130.479816
 30
0.0
 10
429.184278
 20
-131.194261
 30
0.0
 10
428.398966
 20
-131.194346
 30
0.0
  0
SPLINE
  5
1c8
100
AcDbEntity
  8
Battery_holder_-_cut
 62
7
100
AcDbSpline
 70
8
 71
3
 72
8
 73
4
 74
0
 40
0
 40
0
 40
0
 40
0
 40
1
 40
1
 40
1
 40
1
 10
428.398966
 20
-131.194346
 30
0.0
 10
427.613852
 20
-131.194261
 30
0.0
 10
426.899491
 20
-130.480154
 30
0.0
 10
426.899125
 20
-129.695040
 30
0.0
  0
SPLINE
  5
1c9
100
AcDbEntity
  8
Battery_holder_-_cut
 62
7
100
AcDbSpline
 70
8
 71
3
 72
8
 73
4
 74
0
 40
0
 40
0
 40
0
 40
0
 40
1
 40
1
 40
1
 40
1
 10
426.899125
 20
-129.695040
 30
0.0
 10
426.899181
 20
-128.909729
 30
0.0
 10
427.613655
 20
-128.195255
 30
0.0
 10
428.398966
 20
-128.195199
 30
0.0
  0
LINE
  5
1ca
100
AcDbEntity
  8
Battery_holder_-_cut
 62
7
100
AcDbLine
 10
428.398966
 20
-128.195199
 30
0.0
 11
428.398966
 21
-128.195199
 31
0.0
  0
SPLINE
  5
1cb
100
AcDbEntity
  8
Battery_holder_-_cut
 62
7
100
AcDbSpline
 70
8
 71
3
 72
8
 73
4
 74
0
 40
0
 40
0
 40
0
 40
0
 40
1
 40
1
 40
1
 40
1
 10
406.705250
 20
-141.314496
 30
0.0
 10
406.705250
 20
-147.314512
 30
0.0
 10
406.705250
 20
-149.314508
 30
0.0
 10
406.705250
 20
-156.314494
 30
0.0
  0
SPLINE
  5
1cc
100
AcDbEntity
  8
Battery_holder_-_cut
 62
7
100
AcDbSpline
 70
8
 71
3
 72
8
 73
4
 74
0
 40
0
 40
0
 40
0
 40
0
 40
1
 40
1
 40
1
 40
1
 10
406.705250
 20
-156.314494
 30
0.0
 10
406.697630
 20
-163.072870
 30
0.0
 10
402.060069
 20
-171.315763
 30
0.0
 10
398.320173
 20
-176.945052
 30
0.0
  0
SPLINE
  5
1cd
100
AcDbEntity
  8
Battery_holder_-_cut
 62
7
100
AcDbSpline
 70
8
 71
3
 72
8
 73
4
 74
0
 40
0
 40
0
 40
0
 40
0
 40
1
 40
1
 40
1
 40
1
 10
398.320173
 20
-176.945052
 30
0.0
 10
394.580306
 20
-182.574341
 30
0.0
 10
389.154781
 20
-187.068165
 30
0.0
 10
382.927548
 20
-189.694384
 30
0.0
  0
LINE
  5
1ce
100
AcDbEntity
  8
Battery_holder_-_cut
 62
7
100
AcDbLine
 10
382.927548
 20
-189.694384
 30
0.0
 11
382.927548
 21
-222.314729
 31
0.0
  0
LINE
  5
1cf
100
AcDbEntity
  8
Battery_holder_-_cut
 62
7
100
AcDbLine
 10
382.927548
 20
-222.314729
 30
0.0
 11
459.927902
 21
-222.314729
 31
0.0
  0
LINE
  5
1d0
100
AcDbEntity
  8
Battery_holder_-_cut
 62
7
100
AcDbLine
 10
459.927902
 20
-222.314729
 30
0.0
 11
459.927902
 21
-189.731299
 31
0.0
  0
SPLINE
  5
1d1
100
AcDbEntity
  8
Battery_holder_-_cut
 62
7
100
AcDbSpline
 70
8
 71
3
 72
8
 73
4
 74
0
 40
0
 40
0
 40
0
 40
0
 40
1
 40
1
 40
1
 40
1
 10
459.927902
 20
-189.731299
 30
0.0
 10
453.694996
 20
-187.102681
 30
0.0
 10
448.265351
 20
-182.602986
 30
0.0
 10
444.525059
 20
-176.966585
 30
0.0
  0
SPLINE
  5
1d2
100
AcDbEntity
  8
Battery_holder_-_cut
 62
7
100
AcDbSpline
 70
8
 71
3
 72
8
 73
4
 74
0
 40
0
 40
0
 40
0
 40
0
 40
1
 40
1
 40
1
 40
1
 10
444.525059
 20
-176.966585
 30
0.0
 10
440.784797
 20
-171.330184
 30
0.0
 10
436.150425
 20
-163.079022
 30
0.0
 10
436.150115
 20
-156.314494
 30
0.0
  0
SPLINE
  5
1d3
100
AcDbEntity
  8
Battery_holder_-_cut
 62
7
100
AcDbSpline
 70
8
 71
3
 72
8
 73
4
 74
0
 40
0
 40
0
 40
0
 40
0
 40
1
 40
1
 40
1
 40
1
 10
436.150115
 20
-156.314494
 30
0.0
 10
436.152937
 20
-150.581489
 30
0.0
 10
436.150115
 20
-147.314512
 30
0.0
 10
436.150115
 20
-141.314496
 30
0.0
  0
LINE
  5
1d4
100
AcDbEntity
  8
Battery_holder_-_cut
 62
7
100
AcDbLine
 10
436.150115
 20
-141.314496
 30
0.0
 11
406.705250
 21
-141.314496
 31
0.0
  0
SPLINE
  5
1d5
100
AcDbEntity
  8
Battery_holder_-_cut
 62
7
100
AcDbSpline
 70
8
 71
3
 72
8
 73
4
 74
0
 40
0
 40
0
 40
0
 40
0
 40
1
 40
1
 40
1
 40
1
 10
421.427711
 20
-216.514301
 30
0.0
 10
422.108431
 20
-216.514413
 30
0.0
 10
422.727654
 20
-217.133919
 30
0.0
 10
422.727485
 20
-217.814611
 30
0.0
  0
SPLINE
  5
1d6
100
AcDbEntity
  8
Battery_holder_-_cut
 62
7
100
AcDbSpline
 70
8
 71
3
 72
8
 73
4
 74
0
 40
0
 40
0
 40
0
 40
0
 40
1
 40
1
 40
1
 40
1
 10
422.727485
 20
-217.814611
 30
0.0
 10
422.727372
 20
-218.495134
 30
0.0
 10
422.108233
 20
-219.114273
 30
0.0
 10
421.427711
 20
-219.114386
 30
0.0
  0
SPLINE
  5
1d7
100
AcDbEntity
  8
Battery_holder_-_cut
 62
7
100
AcDbSpline
 70
8
 71
3
 72
8
 73
4
 74
0
 40
0
 40
0
 40
0
 40
0
 40
1
 40
1
 40
1
 40
1
 10
421.427711
 20
-219.114386
 30
0.0
 10
420.747019
 20
-219.114555
 30
0.0
 10
420.127513
 20
-218.495331
 30
0.0
 10
420.127400
 20
-217.814611
 30
0.0
  0
SPLINE
  5
1d8
100
AcDbEntity
  8
Battery_holder_-_cut
 62
7
100
AcDbSpline
 70
8
 71
3
 72
8
 73
4
 74
0
 40
0
 40
0
 40
0
 40
0
 40
1
 40
1
 40
1
 40
1
 10
420.127400
 20
-217.814611
 30
0.0
 10
420.127231
 20
-217.133722
 30
0.0
 10
420.746821
 20
-216.514131
 30
0.0
 10
421.427711
 20
-216.514301
 30
0.0
  0
LINE
  5
1d9
100
AcDbEntity
  8
Battery_holder_-_cut
 62
7
100
AcDbLine
 10
421.427711
 20
-216.514301
 30
0.0
 11
421.427711
 21
-216.514301
 31
0.0
  0
SPLINE
  5
1da
100
AcDbEntity
  8
Battery_holder_-_cut
 62
7
100
AcDbSpline
 70
8
 71
3
 72
8
 73
4
 74
0
 40
0
 40
0
 40
0
 40
0
 40
1
 40
1
 40
1
 40
1
 10
385.927796
 20
-217.814611
 30
0.0
 10
386.713107
 20
-217.814668
 30
0.0
 10
387.427609
 20
-218.529706
 30
0.0
 10
387.427666
 20
-219.315017
 30
0.0
  0
SPLINE
  5
1db
100
AcDbEntity
  8
Battery_holder_-_cut
 62
7
100
AcDbSpline
 70
8
 71
3
 72
8
 73
4
 74
0
 40
0
 40
0
 40
0
 40
0
 40
1
 40
1
 40
1
 40
1
 10
387.427666
 20
-219.315017
 30
0.0
 10
387.427581
 20
-220.100329
 30
0.0
 10
386.713107
 20
-220.814831
 30
0.0
 10
385.927796
 20
-220.814887
 30
0.0
  0
SPLINE
  5
1dc
100
AcDbEntity
  8
Battery_holder_-_cut
 62
7
100
AcDbSpline
 70
8
 71
3
 72
8
 73
4
 74
0
 40
0
 40
0
 40
0
 40
0
 40
1
 40
1
 40
1
 40
1
 10
385.927796
 20
-220.814887
 30
0.0
 10
385.142484
 20
-220.814831
 30
0.0
 10
384.428039
 20
-220.100329
 30
0.0
 10
384.427954
 20
-219.315017
 30
0.0
  0
SPLINE
  5
1dd
100
AcDbEntity
  8
Battery_holder_-_cut
 62
7
100
AcDbSpline
 70
8
 71
3
 72
8
 73
4
 74
0
 40
0
 40
0
 40
0
 40
0
 40
1
 40
1
 40
1
 40
1
 10
384.427954
 20
-219.315017
 30
0.0
 10
384.428010
 20
-218.529706
 30
0.0
 10
385.142484
 20
-217.814668
 30
0.0
 10
385.927796
 20
-217.814611
 30
0.0
  0
LINE
  5
1de
100
AcDbEntity
  8
Battery_holder_-_cut
 62
7
100
AcDbLine
 10
385.927796
 20
-217.814611
 30
0.0
 11
385.927796
 21
-217.814611
 31
0.0
  0
SPLINE
  5
1df
100
AcDbEntity
  8
Battery_holder_-_cut
 62
7
100
AcDbSpline
 70
8
 71
3
 72
8
 73
4
 74
0
 40
0
 40
0
 40
0
 40
0
 40
1
 40
1
 40
1
 40
1
 10
456.927625
 20
-217.814611
 30
0.0
 10
457.712937
 20
-217.814668
 30
0.0
 10
458.427439
 20
-218.529706
 30
0.0
 10
458.427495
 20
-219.315017
 30
0.0
  0
SPLINE
  5
1e0
100
AcDbEntity
  8
Battery_holder_-_cut
 62
7
100
AcDbSpline
 70
8
 71
3
 72
8
 73
4
 74
0
 40
0
 40
0
 40
0
 40
0
 40
1
 40
1
 40
1
 40
1
 10
458.427495
 20
-219.315017
 30
0.0
 10
458.427411
 20
-220.100329
 30
0.0
 10
457.712937
 20
-220.814831
 30
0.0
 10
456.927625
 20
-220.814887
 30
0.0
  0
SPLINE
  5
1e1
100
AcDbEntity
  8
Battery_holder_-_cut
 62
7
100
AcDbSpline
 70
8
 71
3
 72
8
 73
4
 74
0
 40
0
 40
0
 40
0
 40
0
 40
1
 40
1
 40
1
 40
1
 10
456.927625
 20
-220.814887
 30
0.0
 10
456.142342
 20
-220.814803
 30
0.0
 10
455.427868
 20
-220.100301
 30
0.0
 10
455.427784
 20
-219.315017
 30
0.0
  0
SPLINE
  5
1e2
100
AcDbEntity
  8
Battery_holder_-_cut
 62
7
100
AcDbSpline
 70
8
 71
3
 72
8
 73
4
 74
0
 40
0
 40
0
 40
0
 40
0
 40
1
 40
1
 40
1
 40
1
 10
455.427784
 20
-219.315017
 30
0.0
 10
455.427840
 20
-218.529706
 30
0.0
 10
456.142314
 20
-217.814696
 30
0.0
 10
456.927625
 20
-217.814611
 30
0.0
  0
LINE
  5
1e3
100
AcDbEntity
  8
Battery_holder_-_cut
 62
7
100
AcDbLine
 10
456.927625
 20
-217.814611
 30
0.0
 11
456.927625
 21
-217.814611
 31
0.0
  0
ENDSEC
  0
SECTION
  2
OBJECTS
  0
DICTIONARY
  5
C
330
0
100
AcDbDictionary
  3
ACAD_GROUP
350
D
  3
ACAD_MLINESTYLE
350
17
  0
DICTIONARY
  5
D
330
C
100
AcDbDictionary
  0
DICTIONARY
  5
1A
330
C
100
AcDbDictionary
  0
DICTIONARY
  5
17
330
C
100
AcDbDictionary
  3
STANDARD
350
18
  0
DICTIONARY
  5
19
330
C
100
AcDbDictionary
  0
ENDSEC
  0
EOF
