  0
SECTION
  2
HEADER
  9
$ACADVER
  1
AC1014
  9
$HANDSEED
  5
FFFF
  9
$MEASUREMENT
 70
     1
  0
ENDSEC
  0
SECTION
  2
TABLES
  0
TABLE
  2
VPORT
  5
8
330
0
100
AcDbSymbolTable
 70
     4
  0
VPORT
  5
2E
330
8
100
AcDbSymbolTableRecord
100
AcDbViewportTableRecord
  2
*ACTIVE
 70
     0
 10
0.0
 20
0.0
 11
1.0
 21
1.0
 12
210.0
 22
148.5
 13
0.0
 23
0.0
 14
10.0
 24
10.0
 15
10.0
 25
10.0
 16
0.0
 26
0.0
 36
1.0
 17
0.0
 27
0.0
 37
0.0
 40
341.0
 41
1.24
 42
50.0
 43
0.0
 44
0.0
 50
0.0
 51
0.0
 71
     0
 72
   100
 73
     1
 74
     3
 75
     0
 76
     0
 77
     0
 78
     0
  0
ENDTAB
  0
TABLE
  2
LTYPE
  5
5
330
0
100
AcDbSymbolTable
 70
     1
  0
LTYPE
  5
14
330
5
100
AcDbSymbolTableRecord
100
AcDbLinetypeTableRecord
  2
BYBLOCK
 70
     0
  3

 72
    65
 73
     0
 40
0.0
  0
LTYPE
  5
15
330
5
100
AcDbSymbolTableRecord
100
AcDbLinetypeTableRecord
  2
BYLAYER
 70
     0
  3

 72
    65
 73
     0
 40
0.0
  0
LTYPE
  5
16
330
5
100
AcDbSymbolTableRecord
100
AcDbLinetypeTableRecord
  2
CONTINUOUS
 70
     0
  3
Solid line
 72
    65
 73
     0
 40
0.0
  0
ENDTAB
  0
TABLE
  2
LAYER
  5
2
100
AcDbSymbolTable
 70
11
  0
LAYER
  5
50
100
AcDbSymbolTableRecord
100
AcDbLayerTableRecord
  2
0
 70
0
  6
CONTINUOUS
  0
LAYER
  5
51
100
AcDbSymbolTableRecord
100
AcDbLayerTableRecord
  2
BottomPlate_-_Cut
 70
0
  6
CONTINUOUS
  0
LAYER
  5
52
100
AcDbSymbolTableRecord
100
AcDbLayerTableRecord
  2
TopPlate_-_Cut
 70
0
  6
CONTINUOUS
  0
LAYER
  5
53
100
AcDbSymbolTableRecord
100
AcDbLayerTableRecord
  2
TopPlate_-_Etch
 70
0
  6
CONTINUOUS
  0
LAYER
  5
54
100
AcDbSymbolTableRecord
100
AcDbLayerTableRecord
  2
Cogs_-_Cut
 70
0
  6
CONTINUOUS
  0
LAYER
  5
55
100
AcDbSymbolTableRecord
100
AcDbLayerTableRecord
  2
Cogs_-_Secondary
 70
0
  6
CONTINUOUS
  0
LAYER
  5
56
100
AcDbSymbolTableRecord
100
AcDbLayerTableRecord
  2
Cogs_-_Etch
 70
0
  6
CONTINUOUS
  0
LAYER
  5
57
100
AcDbSymbolTableRecord
100
AcDbLayerTableRecord
  2
Edges_-_Cut
 70
0
  6
CONTINUOUS
  0
LAYER
  5
58
100
AcDbSymbolTableRecord
100
AcDbLayerTableRecord
  2
3mm_Utility_bits_-_Cut
 70
0
  6
CONTINUOUS
  0
LAYER
  5
59
100
AcDbSymbolTableRecord
100
AcDbLayerTableRecord
  2
Temp
 70
0
  6
CONTINUOUS
  0
LAYER
  5
5a
100
AcDbSymbolTableRecord
100
AcDbLayerTableRecord
  2
Battery_holder_-_cut
 70
0
  6
CONTINUOUS
  0
ENDTAB
  0
TABLE
  2
STYLE
  5
3
330
0
100
AcDbSymbolTable
 70
     1
  0
STYLE
  5
11
330
3
100
AcDbSymbolTableRecord
100
AcDbTextStyleTableRecord
  2
STANDARD
 70
     0
 40
0.0
 41
1.0
 50
0.0
 71
     0
 42
2.5
  3
txt
  4

  0
ENDTAB
  0
TABLE
  2
VIEW
  5
6
330
0
100
AcDbSymbolTable
 70
     0
  0
ENDTAB
  0
TABLE
  2
UCS
  5
7
330
0
100
AcDbSymbolTable
 70
     0
  0
ENDTAB
  0
TABLE
  2
APPID
  5
9
330
0
100
AcDbSymbolTable
 70
     2
  0
APPID
  5
12
330
9
100
AcDbSymbolTableRecord
100
AcDbRegAppTableRecord
  2
ACAD
 70
     0
  0
ENDTAB
  0
TABLE
  2
DIMSTYLE
  5
A
330
0
100
AcDbSymbolTable
 70
     1
  0
DIMSTYLE
105
27
330
A
100
AcDbSymbolTableRecord
100
AcDbDimStyleTableRecord
  2
ISO-25
 70
     0
  3

  4

  5

  6

  7

 40
1.0
 41
2.5
 42
0.625
 43
3.75
 44
1.25
 45
0.0
 46
0.0
 47
0.0
 48
0.0
140
2.5
141
2.5
142
0.0
143
0.03937007874016
144
1.0
145
0.0
146
1.0
147
0.625
 71
     0
 72
     0
 73
     0
 74
     0
 75
     0
 76
     0
 77
     1
 78
     8
170
     0
171
     3
172
     1
173
     0
174
     0
175
     0
176
     0
177
     0
178
     0
270
     2
271
     2
272
     2
273
     2
274
     3
340
11
275
     0
280
     0
281
     0
282
     0
283
     0
284
     8
285
     0
286
     0
287
     3
288
     0
  0
ENDTAB
  0
TABLE
  2
BLOCK_RECORD
  5
1
330
0
100
AcDbSymbolTable
 70
     1
  0
BLOCK_RECORD
  5
1F
330
1
100
AcDbSymbolTableRecord
100
AcDbBlockTableRecord
  2
*MODEL_SPACE
  0
BLOCK_RECORD
  5
1B
330
1
100
AcDbSymbolTableRecord
100
AcDbBlockTableRecord
  2
*PAPER_SPACE
  0
ENDTAB
  0
ENDSEC
  0
SECTION
  2
BLOCKS
  0
BLOCK
  5
20
330
1F
100
AcDbEntity
  8
0
100
AcDbBlockBegin
  2
*MODEL_SPACE
 70
     0
 10
0.0
 20
0.0
 30
0.0
  3
*MODEL_SPACE
  1

  0
ENDBLK
  5
21
330
1F
100
AcDbEntity
  8
0
100
AcDbBlockEnd
  0
BLOCK
  5
1C
330
1B
100
AcDbEntity
 67
     1
  8
0
100
AcDbBlockBegin
  2
*PAPER_SPACE
  1

  0
ENDBLK
  5
1D
330
1B
100
AcDbEntity
 67
     1
  8
0
100
AcDbBlockEnd
  0
ENDSEC
  0
SECTION
  2
ENTITIES
  0
LINE
  5
100
100
AcDbEntity
  8
Battery_holder_-_cut
 62
7
100
AcDbLine
 10
381.398722
 20
-204.347533
 30
0.0
 11
381.398722
 21
-281.347916
 31
0.0
  0
LINE
  5
101
100
AcDbEntity
  8
Battery_holder_-_cut
 62
7
100
AcDbLine
 10
381.398722
 20
-281.347916
 30
0.0
 11
459.398425
 21
-281.347916
 31
0.0
  0
SPLINE
  5
102
100
AcDbEntity
  8
Battery_holder_-_cut
 62
7
100
AcDbSpline
 70
8
 71
3
 72
8
 73
4
 74
0
 40
0
 40
0
 40
0
 40
0
 40
1
 40
1
 40
1
 40
1
 10
459.398425
 20
-281.347916
 30
0.0
 10
462.398447
 20
-281.347916
 30
0.0
 10
462.398701
 20
-281.347916
 30
0.0
 10
462.398701
 20
-278.347639
 30
0.0
  0
LINE
  5
103
100
AcDbEntity
  8
Battery_holder_-_cut
 62
7
100
AcDbLine
 10
462.398701
 20
-278.347639
 30
0.0
 11
462.398701
 21
-275.347928
 31
0.0
  0
LINE
  5
104
100
AcDbEntity
  8
Battery_holder_-_cut
 62
7
100
AcDbLine
 10
462.398701
 20
-275.347928
 30
0.0
 11
462.398701
 21
-272.347651
 31
0.0
  0
LINE
  5
105
100
AcDbEntity
  8
Battery_holder_-_cut
 62
7
100
AcDbLine
 10
462.398701
 20
-272.347651
 30
0.0
 11
462.398701
 21
-213.347769
 31
0.0
  0
LINE
  5
106
100
AcDbEntity
  8
Battery_holder_-_cut
 62
7
100
AcDbLine
 10
462.398701
 20
-213.347769
 30
0.0
 11
462.398701
 21
-210.347521
 31
0.0
  0
LINE
  5
107
100
AcDbEntity
  8
Battery_holder_-_cut
 62
7
100
AcDbLine
 10
462.398701
 20
-210.347521
 30
0.0
 11
462.398701
 21
-207.347810
 31
0.0
  0
SPLINE
  5
108
100
AcDbEntity
  8
Battery_holder_-_cut
 62
7
100
AcDbSpline
 70
8
 71
3
 72
8
 73
4
 74
0
 40
0
 40
0
 40
0
 40
0
 40
1
 40
1
 40
1
 40
1
 10
462.398701
 20
-207.347810
 30
0.0
 10
462.398673
 20
-204.347787
 30
0.0
 10
462.398532
 20
-204.347505
 30
0.0
 10
459.274416
 20
-204.347533
 30
0.0
  0
LINE
  5
109
100
AcDbEntity
  8
Battery_holder_-_cut
 62
7
100
AcDbLine
 10
459.274416
 20
-204.347533
 30
0.0
 11
381.398722
 21
-204.347533
 31
0.0
  0
SPLINE
  5
10a
100
AcDbEntity
  8
Battery_holder_-_cut
 62
7
100
AcDbSpline
 70
8
 71
3
 72
8
 73
4
 74
0
 40
0
 40
0
 40
0
 40
0
 40
1
 40
1
 40
1
 40
1
 10
384.398405
 20
-205.847940
 30
0.0
 10
385.183717
 20
-205.847996
 30
0.0
 10
385.898247
 20
-206.562498
 30
0.0
 10
385.898304
 20
-207.347810
 30
0.0
  0
SPLINE
  5
10b
100
AcDbEntity
  8
Battery_holder_-_cut
 62
7
100
AcDbSpline
 70
8
 71
3
 72
8
 73
4
 74
0
 40
0
 40
0
 40
0
 40
0
 40
1
 40
1
 40
1
 40
1
 10
385.898304
 20
-207.347810
 30
0.0
 10
385.898219
 20
-208.133121
 30
0.0
 10
385.183717
 20
-208.847595
 30
0.0
 10
384.398405
 20
-208.847651
 30
0.0
  0
SPLINE
  5
10c
100
AcDbEntity
  8
Battery_holder_-_cut
 62
7
100
AcDbSpline
 70
8
 71
3
 72
8
 73
4
 74
0
 40
0
 40
0
 40
0
 40
0
 40
1
 40
1
 40
1
 40
1
 10
384.398405
 20
-208.847651
 30
0.0
 10
383.613122
 20
-208.847567
 30
0.0
 10
382.898648
 20
-208.133093
 30
0.0
 10
382.898564
 20
-207.347810
 30
0.0
  0
SPLINE
  5
10d
100
AcDbEntity
  8
Battery_holder_-_cut
 62
7
100
AcDbSpline
 70
8
 71
3
 72
8
 73
4
 74
0
 40
0
 40
0
 40
0
 40
0
 40
1
 40
1
 40
1
 40
1
 10
382.898564
 20
-207.347810
 30
0.0
 10
382.898620
 20
-206.562498
 30
0.0
 10
383.613094
 20
-205.848024
 30
0.0
 10
384.398405
 20
-205.847940
 30
0.0
  0
LINE
  5
10e
100
AcDbEntity
  8
Battery_holder_-_cut
 62
7
100
AcDbLine
 10
384.398405
 20
-205.847940
 30
0.0
 11
384.398405
 21
-205.847940
 31
0.0
  0
SPLINE
  5
10f
100
AcDbEntity
  8
Battery_holder_-_cut
 62
7
100
AcDbSpline
 70
8
 71
3
 72
8
 73
4
 74
0
 40
0
 40
0
 40
0
 40
0
 40
1
 40
1
 40
1
 40
1
 10
459.398425
 20
-205.847940
 30
0.0
 10
460.183736
 20
-205.848024
 30
0.0
 10
460.898210
 20
-206.562498
 30
0.0
 10
460.898266
 20
-207.347810
 30
0.0
  0
SPLINE
  5
110
100
AcDbEntity
  8
Battery_holder_-_cut
 62
7
100
AcDbSpline
 70
8
 71
3
 72
8
 73
4
 74
0
 40
0
 40
0
 40
0
 40
0
 40
1
 40
1
 40
1
 40
1
 10
460.898266
 20
-207.347810
 30
0.0
 10
460.898182
 20
-208.133093
 30
0.0
 10
460.183708
 20
-208.847567
 30
0.0
 10
459.398425
 20
-208.847651
 30
0.0
  0
SPLINE
  5
111
100
AcDbEntity
  8
Battery_holder_-_cut
 62
7
100
AcDbSpline
 70
8
 71
3
 72
8
 73
4
 74
0
 40
0
 40
0
 40
0
 40
0
 40
1
 40
1
 40
1
 40
1
 10
459.398425
 20
-208.847651
 30
0.0
 10
458.613141
 20
-208.847567
 30
0.0
 10
457.898668
 20
-208.133093
 30
0.0
 10
457.898583
 20
-207.347810
 30
0.0
  0
SPLINE
  5
112
100
AcDbEntity
  8
Battery_holder_-_cut
 62
7
100
AcDbSpline
 70
8
 71
3
 72
8
 73
4
 74
0
 40
0
 40
0
 40
0
 40
0
 40
1
 40
1
 40
1
 40
1
 10
457.898583
 20
-207.347810
 30
0.0
 10
457.898639
 20
-206.562498
 30
0.0
 10
458.613113
 20
-205.848024
 30
0.0
 10
459.398425
 20
-205.847940
 30
0.0
  0
LINE
  5
113
100
AcDbEntity
  8
Battery_holder_-_cut
 62
7
100
AcDbLine
 10
459.398425
 20
-205.847940
 30
0.0
 11
459.398425
 21
-205.847940
 31
0.0
  0
SPLINE
  5
114
100
AcDbEntity
  8
Battery_holder_-_cut
 62
7
100
AcDbSpline
 70
8
 71
3
 72
8
 73
4
 74
0
 40
0
 40
0
 40
0
 40
0
 40
1
 40
1
 40
1
 40
1
 10
384.398405
 20
-276.847769
 30
0.0
 10
385.183717
 20
-276.847826
 30
0.0
 10
385.898247
 20
-277.562328
 30
0.0
 10
385.898304
 20
-278.347639
 30
0.0
  0
SPLINE
  5
115
100
AcDbEntity
  8
Battery_holder_-_cut
 62
7
100
AcDbSpline
 70
8
 71
3
 72
8
 73
4
 74
0
 40
0
 40
0
 40
0
 40
0
 40
1
 40
1
 40
1
 40
1
 10
385.898304
 20
-278.347639
 30
0.0
 10
385.898247
 20
-279.132951
 30
0.0
 10
385.183717
 20
-279.847453
 30
0.0
 10
384.398405
 20
-279.847509
 30
0.0
  0
SPLINE
  5
116
100
AcDbEntity
  8
Battery_holder_-_cut
 62
7
100
AcDbSpline
 70
8
 71
3
 72
8
 73
4
 74
0
 40
0
 40
0
 40
0
 40
0
 40
1
 40
1
 40
1
 40
1
 10
384.398405
 20
-279.847509
 30
0.0
 10
383.613094
 20
-279.847425
 30
0.0
 10
382.898620
 20
-279.132951
 30
0.0
 10
382.898564
 20
-278.347639
 30
0.0
  0
SPLINE
  5
117
100
AcDbEntity
  8
Battery_holder_-_cut
 62
7
100
AcDbSpline
 70
8
 71
3
 72
8
 73
4
 74
0
 40
0
 40
0
 40
0
 40
0
 40
1
 40
1
 40
1
 40
1
 10
382.898564
 20
-278.347639
 30
0.0
 10
382.898620
 20
-277.562328
 30
0.0
 10
383.613094
 20
-276.847854
 30
0.0
 10
384.398405
 20
-276.847769
 30
0.0
  0
LINE
  5
118
100
AcDbEntity
  8
Battery_holder_-_cut
 62
7
100
AcDbLine
 10
384.398405
 20
-276.847769
 30
0.0
 11
384.398405
 21
-276.847769
 31
0.0
  0
SPLINE
  5
119
100
AcDbEntity
  8
Battery_holder_-_cut
 62
7
100
AcDbSpline
 70
8
 71
3
 72
8
 73
4
 74
0
 40
0
 40
0
 40
0
 40
0
 40
1
 40
1
 40
1
 40
1
 10
459.398425
 20
-276.847769
 30
0.0
 10
460.183736
 20
-276.847854
 30
0.0
 10
460.898210
 20
-277.562328
 30
0.0
 10
460.898266
 20
-278.347639
 30
0.0
  0
SPLINE
  5
11a
100
AcDbEntity
  8
Battery_holder_-_cut
 62
7
100
AcDbSpline
 70
8
 71
3
 72
8
 73
4
 74
0
 40
0
 40
0
 40
0
 40
0
 40
1
 40
1
 40
1
 40
1
 10
460.898266
 20
-278.347639
 30
0.0
 10
460.898210
 20
-279.132951
 30
0.0
 10
460.183736
 20
-279.847425
 30
0.0
 10
459.398425
 20
-279.847509
 30
0.0
  0
SPLINE
  5
11b
100
AcDbEntity
  8
Battery_holder_-_cut
 62
7
100
AcDbSpline
 70
8
 71
3
 72
8
 73
4
 74
0
 40
0
 40
0
 40
0
 40
0
 40
1
 40
1
 40
1
 40
1
 10
459.398425
 20
-279.847509
 30
0.0
 10
458.613113
 20
-279.847425
 30
0.0
 10
457.898639
 20
-279.132951
 30
0.0
 10
457.898583
 20
-278.347639
 30
0.0
  0
SPLINE
  5
11c
100
AcDbEntity
  8
Battery_holder_-_cut
 62
7
100
AcDbSpline
 70
8
 71
3
 72
8
 73
4
 74
0
 40
0
 40
0
 40
0
 40
0
 40
1
 40
1
 40
1
 40
1
 10
457.898583
 20
-278.347639
 30
0.0
 10
457.898639
 20
-277.562328
 30
0.0
 10
458.613113
 20
-276.847854
 30
0.0
 10
459.398425
 20
-276.847769
 30
0.0
  0
LINE
  5
11d
100
AcDbEntity
  8
Battery_holder_-_cut
 62
7
100
AcDbLine
 10
459.398425
 20
-276.847769
 30
0.0
 11
459.398425
 21
-276.847769
 31
0.0
  0
SPLINE
  5
11e
100
AcDbEntity
  8
Battery_holder_-_cut
 62
7
100
AcDbSpline
 70
8
 71
3
 72
8
 73
4
 74
0
 40
0
 40
0
 40
0
 40
0
 40
1
 40
1
 40
1
 40
1
 10
393.398980
 20
-86.347538
 30
0.0
 10
390.398873
 20
-86.347566
 30
0.0
 10
390.398704
 20
-86.347679
 30
0.0
 10
390.398704
 20
-89.471823
 30
0.0
  0
LINE
  5
11f
100
AcDbEntity
  8
Battery_holder_-_cut
 62
7
100
AcDbLine
 10
390.398704
 20
-89.471823
 30
0.0
 11
390.398704
 21
-95.025335
 31
0.0
  0
SPLINE
  5
120
100
AcDbEntity
  8
Battery_holder_-_cut
 62
7
100
AcDbSpline
 70
8
 71
3
 72
8
 73
4
 74
0
 40
0
 40
0
 40
0
 40
0
 40
1
 40
1
 40
1
 40
1
 10
390.398704
 20
-95.025335
 30
0.0
 10
391.777077
 20
-97.385701
 30
0.0
 10
392.518983
 20
-100.113745
 30
0.0
 10
392.525841
 20
-102.847067
 30
0.0
  0
SPLINE
  5
121
100
AcDbEntity
  8
Battery_holder_-_cut
 62
7
100
AcDbSpline
 70
8
 71
3
 72
8
 73
4
 74
0
 40
0
 40
0
 40
0
 40
0
 40
1
 40
1
 40
1
 40
1
 10
392.525841
 20
-102.847067
 30
0.0
 10
392.520479
 20
-105.583353
 30
0.0
 10
391.778545
 20
-108.314728
 30
0.0
 10
390.398704
 20
-110.677633
 30
0.0
  0
LINE
  5
122
100
AcDbEntity
  8
Battery_holder_-_cut
 62
7
100
AcDbLine
 10
390.398704
 20
-110.677633
 30
0.0
 11
390.398704
 21
-167.346972
 31
0.0
  0
LINE
  5
123
100
AcDbEntity
  8
Battery_holder_-_cut
 62
7
100
AcDbLine
 10
390.398704
 20
-167.346972
 30
0.0
 11
396.398692
 21
-167.346972
 31
0.0
  0
LINE
  5
124
100
AcDbEntity
  8
Battery_holder_-_cut
 62
7
100
AcDbLine
 10
396.398692
 20
-167.346972
 30
0.0
 11
396.398692
 21
-97.347601
 31
0.0
  0
LINE
  5
125
100
AcDbEntity
  8
Battery_holder_-_cut
 62
7
100
AcDbLine
 10
396.398692
 20
-97.347601
 30
0.0
 11
396.398692
 21
-96.347687
 31
0.0
  0
LINE
  5
126
100
AcDbEntity
  8
Battery_holder_-_cut
 62
7
100
AcDbLine
 10
396.398692
 20
-96.347687
 30
0.0
 11
396.398692
 21
-91.347613
 31
0.0
  0
LINE
  5
127
100
AcDbEntity
  8
Battery_holder_-_cut
 62
7
100
AcDbLine
 10
396.398692
 20
-91.347613
 30
0.0
 11
399.398940
 21
-91.347613
 31
0.0
  0
LINE
  5
128
100
AcDbEntity
  8
Battery_holder_-_cut
 62
7
100
AcDbLine
 10
399.398940
 20
-91.347613
 30
0.0
 11
401.398766
 21
-91.347613
 31
0.0
  0
LINE
  5
129
100
AcDbEntity
  8
Battery_holder_-_cut
 62
7
100
AcDbLine
 10
401.398766
 20
-91.347613
 30
0.0
 11
453.398747
 21
-91.347613
 31
0.0
  0
LINE
  5
12a
100
AcDbEntity
  8
Battery_holder_-_cut
 62
7
100
AcDbLine
 10
453.398747
 20
-91.347613
 30
0.0
 11
458.398822
 21
-91.347613
 31
0.0
  0
LINE
  5
12b
100
AcDbEntity
  8
Battery_holder_-_cut
 62
7
100
AcDbLine
 10
458.398822
 20
-91.347613
 30
0.0
 11
461.398534
 21
-91.347613
 31
0.0
  0
LINE
  5
12c
100
AcDbEntity
  8
Battery_holder_-_cut
 62
7
100
AcDbLine
 10
461.398534
 20
-91.347613
 30
0.0
 11
461.398534
 21
-96.348252
 31
0.0
  0
LINE
  5
12d
100
AcDbEntity
  8
Battery_holder_-_cut
 62
7
100
AcDbLine
 10
461.398534
 20
-96.348252
 30
0.0
 11
461.398534
 21
-96.348252
 31
0.0
  0
LINE
  5
12e
100
AcDbEntity
  8
Battery_holder_-_cut
 62
7
100
AcDbLine
 10
461.398534
 20
-96.348252
 30
0.0
 11
461.398534
 21
-167.348609
 31
0.0
  0
LINE
  5
12f
100
AcDbEntity
  8
Battery_holder_-_cut
 62
7
100
AcDbLine
 10
461.398534
 20
-167.348609
 30
0.0
 11
467.398522
 21
-167.348609
 31
0.0
  0
LINE
  5
130
100
AcDbEntity
  8
Battery_holder_-_cut
 62
7
100
AcDbLine
 10
467.398522
 20
-167.348609
 30
0.0
 11
467.398522
 21
-110.671566
 31
0.0
  0
SPLINE
  5
131
100
AcDbEntity
  8
Battery_holder_-_cut
 62
7
100
AcDbSpline
 70
8
 71
3
 72
8
 73
4
 74
0
 40
0
 40
0
 40
0
 40
0
 40
1
 40
1
 40
1
 40
1
 10
467.398522
 20
-110.671566
 30
0.0
 10
466.019866
 20
-108.310720
 30
0.0
 10
465.277960
 20
-105.582055
 30
0.0
 10
465.271384
 20
-102.848168
 30
0.0
  0
SPLINE
  5
132
100
AcDbEntity
  8
Battery_holder_-_cut
 62
7
100
AcDbSpline
 70
8
 71
3
 72
8
 73
4
 74
0
 40
0
 40
0
 40
0
 40
0
 40
1
 40
1
 40
1
 40
1
 10
465.271384
 20
-102.848168
 30
0.0
 10
465.276747
 20
-100.111883
 30
0.0
 10
466.018681
 20
-97.380508
 30
0.0
 10
467.398522
 20
-95.017602
 30
0.0
  0
LINE
  5
133
100
AcDbEntity
  8
Battery_holder_-_cut
 62
7
100
AcDbLine
 10
467.398522
 20
-95.017602
 30
0.0
 11
467.398522
 21
-89.348915
 31
0.0
  0
SPLINE
  5
134
100
AcDbEntity
  8
Battery_holder_-_cut
 62
7
100
AcDbSpline
 70
8
 71
3
 72
8
 73
4
 74
0
 40
0
 40
0
 40
0
 40
0
 40
1
 40
1
 40
1
 40
1
 10
467.398522
 20
-89.348915
 30
0.0
 10
467.398522
 20
-86.348977
 30
0.0
 10
467.398493
 20
-86.348610
 30
0.0
 10
464.398274
 20
-86.348639
 30
0.0
  0
LINE
  5
135
100
AcDbEntity
  8
Battery_holder_-_cut
 62
7
100
AcDbLine
 10
464.398274
 20
-86.348639
 30
0.0
 11
461.398534
 21
-86.348639
 31
0.0
  0
LINE
  5
136
100
AcDbEntity
  8
Battery_holder_-_cut
 62
7
100
AcDbLine
 10
461.398534
 20
-86.348639
 30
0.0
 11
458.398286
 21
-86.348639
 31
0.0
  0
LINE
  5
137
100
AcDbEntity
  8
Battery_holder_-_cut
 62
7
100
AcDbLine
 10
458.398286
 20
-86.348639
 30
0.0
 11
458.398286
 21
-86.348639
 31
0.0
  0
LINE
  5
138
100
AcDbEntity
  8
Battery_holder_-_cut
 62
7
100
AcDbLine
 10
458.398286
 20
-86.348639
 30
0.0
 11
399.398404
 21
-86.348639
 31
0.0
  0
LINE
  5
139
100
AcDbEntity
  8
Battery_holder_-_cut
 62
7
100
AcDbLine
 10
399.398404
 20
-86.348639
 30
0.0
 11
396.398127
 21
-86.348639
 31
0.0
  0
LINE
  5
13a
100
AcDbEntity
  8
Battery_holder_-_cut
 62
7
100
AcDbLine
 10
396.398127
 20
-86.348639
 30
0.0
 11
393.398416
 21
-86.348639
 31
0.0
  0
LINE
  5
13b
100
AcDbEntity
  8
Battery_holder_-_cut
 62
7
100
AcDbLine
 10
393.398416
 20
-86.348639
 30
0.0
 11
393.398980
 21
-86.347538
 31
0.0
  0
SPLINE
  5
13c
100
AcDbEntity
  8
Battery_holder_-_cut
 62
7
100
AcDbSpline
 70
8
 71
3
 72
8
 73
4
 74
0
 40
0
 40
0
 40
0
 40
0
 40
1
 40
1
 40
1
 40
1
 10
393.398980
 20
-87.848509
 30
0.0
 10
394.184292
 20
-87.848593
 30
0.0
 10
394.898765
 20
-88.563039
 30
0.0
 10
394.898822
 20
-89.348350
 30
0.0
  0
SPLINE
  5
13d
100
AcDbEntity
  8
Battery_holder_-_cut
 62
7
100
AcDbSpline
 70
8
 71
3
 72
8
 73
4
 74
0
 40
0
 40
0
 40
0
 40
0
 40
1
 40
1
 40
1
 40
1
 10
394.898822
 20
-89.348350
 30
0.0
 10
394.898765
 20
-90.133662
 30
0.0
 10
394.184292
 20
-90.848136
 30
0.0
 10
393.398980
 20
-90.848220
 30
0.0
  0
SPLINE
  5
13e
100
AcDbEntity
  8
Battery_holder_-_cut
 62
7
100
AcDbSpline
 70
8
 71
3
 72
8
 73
4
 74
0
 40
0
 40
0
 40
0
 40
0
 40
1
 40
1
 40
1
 40
1
 10
393.398980
 20
-90.848220
 30
0.0
 10
392.613471
 20
-90.848136
 30
0.0
 10
391.898884
 20
-90.133323
 30
0.0
 10
391.899110
 20
-89.347814
 30
0.0
  0
SPLINE
  5
13f
100
AcDbEntity
  8
Battery_holder_-_cut
 62
7
100
AcDbSpline
 70
8
 71
3
 72
8
 73
4
 74
0
 40
0
 40
0
 40
0
 40
0
 40
1
 40
1
 40
1
 40
1
 10
391.899110
 20
-89.347814
 30
0.0
 10
391.899392
 20
-88.562700
 30
0.0
 10
392.613866
 20
-87.848593
 30
0.0
 10
393.398980
 20
-87.848509
 30
0.0
  0
LINE
  5
140
100
AcDbEntity
  8
Battery_holder_-_cut
 62
7
100
AcDbLine
 10
393.398980
 20
-87.848509
 30
0.0
 11
393.398980
 21
-87.848509
 31
0.0
  0
SPLINE
  5
141
100
AcDbEntity
  8
Battery_holder_-_cut
 62
7
100
AcDbSpline
 70
8
 71
3
 72
8
 73
4
 74
0
 40
0
 40
0
 40
0
 40
0
 40
1
 40
1
 40
1
 40
1
 10
464.398810
 20
-87.848509
 30
0.0
 10
465.184121
 20
-87.848593
 30
0.0
 10
465.898595
 20
-88.563039
 30
0.0
 10
465.898680
 20
-89.348350
 30
0.0
  0
SPLINE
  5
142
100
AcDbEntity
  8
Battery_holder_-_cut
 62
7
100
AcDbSpline
 70
8
 71
3
 72
8
 73
4
 74
0
 40
0
 40
0
 40
0
 40
0
 40
1
 40
1
 40
1
 40
1
 10
465.898680
 20
-89.348350
 30
0.0
 10
465.898595
 20
-90.133662
 30
0.0
 10
465.184121
 20
-90.848136
 30
0.0
 10
464.398810
 20
-90.848220
 30
0.0
  0
SPLINE
  5
143
100
AcDbEntity
  8
Battery_holder_-_cut
 62
7
100
AcDbSpline
 70
8
 71
3
 72
8
 73
4
 74
0
 40
0
 40
0
 40
0
 40
0
 40
1
 40
1
 40
1
 40
1
 10
464.398810
 20
-90.848220
 30
0.0
 10
463.613498
 20
-90.848136
 30
0.0
 10
462.899024
 20
-90.133662
 30
0.0
 10
462.898940
 20
-89.348350
 30
0.0
  0
SPLINE
  5
144
100
AcDbEntity
  8
Battery_holder_-_cut
 62
7
100
AcDbSpline
 70
8
 71
3
 72
8
 73
4
 74
0
 40
0
 40
0
 40
0
 40
0
 40
1
 40
1
 40
1
 40
1
 10
462.898940
 20
-89.348350
 30
0.0
 10
462.899024
 20
-88.563039
 30
0.0
 10
463.613498
 20
-87.848593
 30
0.0
 10
464.398810
 20
-87.848509
 30
0.0
  0
LINE
  5
145
100
AcDbEntity
  8
Battery_holder_-_cut
 62
7
100
AcDbLine
 10
464.398810
 20
-87.848509
 30
0.0
 11
464.398810
 21
-87.848509
 31
0.0
  0
SPLINE
  5
146
100
AcDbEntity
  8
Battery_holder_-_cut
 62
7
100
AcDbSpline
 70
8
 71
3
 72
8
 73
4
 74
0
 40
0
 40
0
 40
0
 40
0
 40
1
 40
1
 40
1
 40
1
 10
393.398980
 20
-162.848491
 30
0.0
 10
394.184094
 20
-162.848576
 30
0.0
 10
394.898455
 20
-163.562683
 30
0.0
 10
394.898822
 20
-164.347797
 30
0.0
  0
SPLINE
  5
147
100
AcDbEntity
  8
Battery_holder_-_cut
 62
7
100
AcDbSpline
 70
8
 71
3
 72
8
 73
4
 74
0
 40
0
 40
0
 40
0
 40
0
 40
1
 40
1
 40
1
 40
1
 10
394.898822
 20
-164.347797
 30
0.0
 10
394.898765
 20
-165.133108
 30
0.0
 10
394.184292
 20
-165.847582
 30
0.0
 10
393.398980
 20
-165.847667
 30
0.0
  0
SPLINE
  5
148
100
AcDbEntity
  8
Battery_holder_-_cut
 62
7
100
AcDbSpline
 70
8
 71
3
 72
8
 73
4
 74
0
 40
0
 40
0
 40
0
 40
0
 40
1
 40
1
 40
1
 40
1
 10
393.398980
 20
-165.847667
 30
0.0
 10
392.613866
 20
-165.847582
 30
0.0
 10
391.899477
 20
-165.133475
 30
0.0
 10
391.899110
 20
-164.348361
 30
0.0
  0
SPLINE
  5
149
100
AcDbEntity
  8
Battery_holder_-_cut
 62
7
100
AcDbSpline
 70
8
 71
3
 72
8
 73
4
 74
0
 40
0
 40
0
 40
0
 40
0
 40
1
 40
1
 40
1
 40
1
 10
391.899110
 20
-164.348361
 30
0.0
 10
391.899195
 20
-163.563050
 30
0.0
 10
392.613668
 20
-162.848576
 30
0.0
 10
393.398980
 20
-162.848491
 30
0.0
  0
LINE
  5
14a
100
AcDbEntity
  8
Battery_holder_-_cut
 62
7
100
AcDbLine
 10
393.398980
 20
-162.848491
 30
0.0
 11
393.398980
 21
-162.848491
 31
0.0
  0
SPLINE
  5
14b
100
AcDbEntity
  8
Battery_holder_-_cut
 62
7
100
AcDbSpline
 70
8
 71
3
 72
8
 73
4
 74
0
 40
0
 40
0
 40
0
 40
0
 40
1
 40
1
 40
1
 40
1
 10
464.398810
 20
-162.848491
 30
0.0
 10
465.183924
 20
-162.848576
 30
0.0
 10
465.898313
 20
-163.562683
 30
0.0
 10
465.898680
 20
-164.347797
 30
0.0
  0
SPLINE
  5
14c
100
AcDbEntity
  8
Battery_holder_-_cut
 62
7
100
AcDbSpline
 70
8
 71
3
 72
8
 73
4
 74
0
 40
0
 40
0
 40
0
 40
0
 40
1
 40
1
 40
1
 40
1
 10
465.898680
 20
-164.347797
 30
0.0
 10
465.898877
 20
-165.133278
 30
0.0
 10
465.184291
 20
-165.848118
 30
0.0
 10
464.398810
 20
-165.848203
 30
0.0
  0
SPLINE
  5
14d
100
AcDbEntity
  8
Battery_holder_-_cut
 62
7
100
AcDbSpline
 70
8
 71
3
 72
8
 73
4
 74
0
 40
0
 40
0
 40
0
 40
0
 40
1
 40
1
 40
1
 40
1
 10
464.398810
 20
-165.848203
 30
0.0
 10
463.613329
 20
-165.848118
 30
0.0
 10
462.898742
 20
-165.133278
 30
0.0
 10
462.898940
 20
-164.347797
 30
0.0
  0
SPLINE
  5
14e
100
AcDbEntity
  8
Battery_holder_-_cut
 62
7
100
AcDbSpline
 70
8
 71
3
 72
8
 73
4
 74
0
 40
0
 40
0
 40
0
 40
0
 40
1
 40
1
 40
1
 40
1
 10
462.898940
 20
-164.347797
 30
0.0
 10
462.899222
 20
-163.562683
 30
0.0
 10
463.613696
 20
-162.848576
 30
0.0
 10
464.398810
 20
-162.848491
 30
0.0
  0
LINE
  5
14f
100
AcDbEntity
  8
Battery_holder_-_cut
 62
7
100
AcDbLine
 10
464.398810
 20
-162.848491
 30
0.0
 11
464.398810
 21
-162.848491
 31
0.0
  0
LINE
  5
150
100
AcDbEntity
  8
Battery_holder_-_cut
 62
7
100
AcDbLine
 10
390.398591
 20
-202.348497
 30
0.0
 11
449.398445
 21
-202.348497
 31
0.0
  0
LINE
  5
151
100
AcDbEntity
  8
Battery_holder_-_cut
 62
7
100
AcDbLine
 10
449.398445
 20
-202.348497
 30
0.0
 11
452.398721
 21
-202.348497
 31
0.0
  0
LINE
  5
152
100
AcDbEntity
  8
Battery_holder_-_cut
 62
7
100
AcDbLine
 10
452.398721
 20
-202.348497
 30
0.0
 11
455.398433
 21
-202.348497
 31
0.0
  0
SPLINE
  5
153
100
AcDbEntity
  8
Battery_holder_-_cut
 62
7
100
AcDbSpline
 70
8
 71
3
 72
8
 73
4
 74
0
 40
0
 40
0
 40
0
 40
0
 40
1
 40
1
 40
1
 40
1
 10
455.398433
 20
-202.348497
 30
0.0
 10
458.398511
 20
-202.348469
 30
0.0
 10
458.398709
 20
-202.348356
 30
0.0
 10
458.398709
 20
-199.224212
 30
0.0
  0
LINE
  5
154
100
AcDbEntity
  8
Battery_holder_-_cut
 62
7
100
AcDbLine
 10
458.398709
 20
-199.224212
 30
0.0
 11
458.398709
 21
-193.670728
 31
0.0
  0
SPLINE
  5
155
100
AcDbEntity
  8
Battery_holder_-_cut
 62
7
100
AcDbSpline
 70
8
 71
3
 72
8
 73
4
 74
0
 40
0
 40
0
 40
0
 40
0
 40
1
 40
1
 40
1
 40
1
 10
458.398709
 20
-193.670728
 30
0.0
 10
457.020336
 20
-191.310362
 30
0.0
 10
456.278430
 20
-188.582318
 30
0.0
 10
456.271572
 20
-185.848996
 30
0.0
  0
SPLINE
  5
156
100
AcDbEntity
  8
Battery_holder_-_cut
 62
7
100
AcDbSpline
 70
8
 71
3
 72
8
 73
4
 74
0
 40
0
 40
0
 40
0
 40
0
 40
1
 40
1
 40
1
 40
1
 10
456.271572
 20
-185.848996
 30
0.0
 10
456.276934
 20
-183.112710
 30
0.0
 10
457.018868
 20
-180.381335
 30
0.0
 10
458.398709
 20
-178.018430
 30
0.0
  0
LINE
  5
157
100
AcDbEntity
  8
Battery_holder_-_cut
 62
7
100
AcDbLine
 10
458.398709
 20
-178.018430
 30
0.0
 11
458.398709
 21
-121.349077
 31
0.0
  0
LINE
  5
158
100
AcDbEntity
  8
Battery_holder_-_cut
 62
7
100
AcDbLine
 10
458.398709
 20
-121.349077
 30
0.0
 11
452.398721
 21
-121.349077
 31
0.0
  0
LINE
  5
159
100
AcDbEntity
  8
Battery_holder_-_cut
 62
7
100
AcDbLine
 10
452.398721
 20
-121.349077
 30
0.0
 11
452.398721
 21
-192.348348
 31
0.0
  0
LINE
  5
15a
100
AcDbEntity
  8
Battery_holder_-_cut
 62
7
100
AcDbLine
 10
452.398721
 20
-192.348348
 30
0.0
 11
450.310248
 21
-192.348348
 31
0.0
  0
SPLINE
  5
15b
100
AcDbEntity
  8
Battery_holder_-_cut
 62
7
100
AcDbSpline
 70
8
 71
3
 72
8
 73
4
 74
0
 40
0
 40
0
 40
0
 40
0
 40
1
 40
1
 40
1
 40
1
 10
450.310248
 20
-192.348348
 30
0.0
 10
449.398332
 20
-192.348348
 30
0.0
 10
449.398332
 20
-192.348348
 30
0.0
 10
449.398332
 20
-193.347950
 30
0.0
  0
LINE
  5
15c
100
AcDbEntity
  8
Battery_holder_-_cut
 62
7
100
AcDbLine
 10
449.398332
 20
-193.347950
 30
0.0
 11
449.398445
 21
-197.348422
 31
0.0
  0
LINE
  5
15d
100
AcDbEntity
  8
Battery_holder_-_cut
 62
7
100
AcDbLine
 10
449.398445
 20
-197.348422
 30
0.0
 11
390.398591
 21
-197.348422
 31
0.0
  0
LINE
  5
15e
100
AcDbEntity
  8
Battery_holder_-_cut
 62
7
100
AcDbLine
 10
390.398591
 20
-197.348422
 30
0.0
 11
390.398337
 21
-193.347950
 31
0.0
  0
SPLINE
  5
15f
100
AcDbEntity
  8
Battery_holder_-_cut
 62
7
100
AcDbSpline
 70
8
 71
3
 72
8
 73
4
 74
0
 40
0
 40
0
 40
0
 40
0
 40
1
 40
1
 40
1
 40
1
 10
390.398337
 20
-193.347950
 30
0.0
 10
390.398337
 20
-192.347952
 30
0.0
 10
390.398337
 20
-192.347952
 30
0.0
 10
389.398339
 20
-192.347952
 30
0.0
  0
LINE
  5
160
100
AcDbEntity
  8
Battery_holder_-_cut
 62
7
100
AcDbLine
 10
389.398339
 20
-192.347952
 30
0.0
 11
387.398315
 21
-192.347952
 31
0.0
  0
LINE
  5
161
100
AcDbEntity
  8
Battery_holder_-_cut
 62
7
100
AcDbLine
 10
387.398315
 20
-192.347952
 30
0.0
 11
387.398315
 21
-121.347553
 31
0.0
  0
LINE
  5
162
100
AcDbEntity
  8
Battery_holder_-_cut
 62
7
100
AcDbLine
 10
387.398315
 20
-121.347553
 30
0.0
 11
381.398327
 21
-121.347553
 31
0.0
  0
LINE
  5
163
100
AcDbEntity
  8
Battery_holder_-_cut
 62
7
100
AcDbLine
 10
381.398327
 20
-121.347553
 30
0.0
 11
381.398327
 21
-178.024638
 31
0.0
  0
SPLINE
  5
164
100
AcDbEntity
  8
Battery_holder_-_cut
 62
7
100
AcDbSpline
 70
8
 71
3
 72
8
 73
4
 74
0
 40
0
 40
0
 40
0
 40
0
 40
1
 40
1
 40
1
 40
1
 10
381.398327
 20
-178.024638
 30
0.0
 10
382.776982
 20
-180.385484
 30
0.0
 10
383.518888
 20
-183.114149
 30
0.0
 10
383.525464
 20
-185.848036
 30
0.0
  0
SPLINE
  5
165
100
AcDbEntity
  8
Battery_holder_-_cut
 62
7
100
AcDbSpline
 70
8
 71
3
 72
8
 73
4
 74
0
 40
0
 40
0
 40
0
 40
0
 40
1
 40
1
 40
1
 40
1
 10
383.525464
 20
-185.848036
 30
0.0
 10
383.520102
 20
-188.584322
 30
0.0
 10
382.778196
 20
-191.315696
 30
0.0
 10
381.398327
 20
-193.678602
 30
0.0
  0
LINE
  5
166
100
AcDbEntity
  8
Battery_holder_-_cut
 62
7
100
AcDbLine
 10
381.398327
 20
-193.678602
 30
0.0
 11
381.398327
 21
-199.347289
 31
0.0
  0
SPLINE
  5
167
100
AcDbEntity
  8
Battery_holder_-_cut
 62
7
100
AcDbSpline
 70
8
 71
3
 72
8
 73
4
 74
0
 40
0
 40
0
 40
0
 40
0
 40
1
 40
1
 40
1
 40
1
 10
381.398327
 20
-199.347289
 30
0.0
 10
381.398327
 20
-202.347227
 30
0.0
 10
381.398383
 20
-202.347594
 30
0.0
 10
384.398603
 20
-202.347566
 30
0.0
  0
LINE
  5
168
100
AcDbEntity
  8
Battery_holder_-_cut
 62
7
100
AcDbLine
 10
384.398603
 20
-202.347566
 30
0.0
 11
387.398315
 21
-202.347566
 31
0.0
  0
LINE
  5
169
100
AcDbEntity
  8
Battery_holder_-_cut
 62
7
100
AcDbLine
 10
387.398315
 20
-202.347566
 30
0.0
 11
390.398591
 21
-202.347566
 31
0.0
  0
LINE
  5
16a
100
AcDbEntity
  8
Battery_holder_-_cut
 62
7
100
AcDbLine
 10
390.398591
 20
-202.347566
 30
0.0
 11
390.398591
 21
-202.348497
 31
0.0
  0
SPLINE
  5
16b
100
AcDbEntity
  8
Battery_holder_-_cut
 62
7
100
AcDbSpline
 70
8
 71
3
 72
8
 73
4
 74
0
 40
0
 40
0
 40
0
 40
0
 40
1
 40
1
 40
1
 40
1
 10
455.398433
 20
-200.847554
 30
0.0
 10
454.613121
 20
-200.847470
 30
0.0
 10
453.898647
 20
-200.132996
 30
0.0
 10
453.898591
 20
-199.347684
 30
0.0
  0
SPLINE
  5
16c
100
AcDbEntity
  8
Battery_holder_-_cut
 62
7
100
AcDbSpline
 70
8
 71
3
 72
8
 73
4
 74
0
 40
0
 40
0
 40
0
 40
0
 40
1
 40
1
 40
1
 40
1
 10
453.898591
 20
-199.347684
 30
0.0
 10
453.898647
 20
-198.562373
 30
0.0
 10
454.613121
 20
-197.847899
 30
0.0
 10
455.398433
 20
-197.847814
 30
0.0
  0
SPLINE
  5
16d
100
AcDbEntity
  8
Battery_holder_-_cut
 62
7
100
AcDbSpline
 70
8
 71
3
 72
8
 73
4
 74
0
 40
0
 40
0
 40
0
 40
0
 40
1
 40
1
 40
1
 40
1
 10
455.398433
 20
-197.847814
 30
0.0
 10
456.183942
 20
-197.847899
 30
0.0
 10
456.898528
 20
-198.562740
 30
0.0
 10
456.898303
 20
-199.348249
 30
0.0
  0
SPLINE
  5
16e
100
AcDbEntity
  8
Battery_holder_-_cut
 62
7
100
AcDbSpline
 70
8
 71
3
 72
8
 73
4
 74
0
 40
0
 40
0
 40
0
 40
0
 40
1
 40
1
 40
1
 40
1
 10
456.898303
 20
-199.348249
 30
0.0
 10
456.898020
 20
-200.133363
 30
0.0
 10
456.183547
 20
-200.847470
 30
0.0
 10
455.398433
 20
-200.847554
 30
0.0
  0
LINE
  5
16f
100
AcDbEntity
  8
Battery_holder_-_cut
 62
7
100
AcDbLine
 10
455.398433
 20
-200.847554
 30
0.0
 11
455.398433
 21
-200.847554
 31
0.0
  0
SPLINE
  5
170
100
AcDbEntity
  8
Battery_holder_-_cut
 62
7
100
AcDbSpline
 70
8
 71
3
 72
8
 73
4
 74
0
 40
0
 40
0
 40
0
 40
0
 40
1
 40
1
 40
1
 40
1
 10
384.398603
 20
-200.847554
 30
0.0
 10
383.613291
 20
-200.847470
 30
0.0
 10
382.898818
 20
-200.132996
 30
0.0
 10
382.898733
 20
-199.347684
 30
0.0
  0
SPLINE
  5
171
100
AcDbEntity
  8
Battery_holder_-_cut
 62
7
100
AcDbSpline
 70
8
 71
3
 72
8
 73
4
 74
0
 40
0
 40
0
 40
0
 40
0
 40
1
 40
1
 40
1
 40
1
 10
382.898733
 20
-199.347684
 30
0.0
 10
382.898818
 20
-198.562373
 30
0.0
 10
383.613291
 20
-197.847899
 30
0.0
 10
384.398603
 20
-197.847814
 30
0.0
  0
SPLINE
  5
172
100
AcDbEntity
  8
Battery_holder_-_cut
 62
7
100
AcDbSpline
 70
8
 71
3
 72
8
 73
4
 74
0
 40
0
 40
0
 40
0
 40
0
 40
1
 40
1
 40
1
 40
1
 10
384.398603
 20
-197.847814
 30
0.0
 10
385.183914
 20
-197.847899
 30
0.0
 10
385.898388
 20
-198.562373
 30
0.0
 10
385.898445
 20
-199.347684
 30
0.0
  0
SPLINE
  5
173
100
AcDbEntity
  8
Battery_holder_-_cut
 62
7
100
AcDbSpline
 70
8
 71
3
 72
8
 73
4
 74
0
 40
0
 40
0
 40
0
 40
0
 40
1
 40
1
 40
1
 40
1
 10
385.898445
 20
-199.347684
 30
0.0
 10
385.898388
 20
-200.132996
 30
0.0
 10
385.183914
 20
-200.847470
 30
0.0
 10
384.398603
 20
-200.847554
 30
0.0
  0
LINE
  5
174
100
AcDbEntity
  8
Battery_holder_-_cut
 62
7
100
AcDbLine
 10
384.398603
 20
-200.847554
 30
0.0
 11
384.398603
 21
-200.847554
 31
0.0
  0
SPLINE
  5
175
100
AcDbEntity
  8
Battery_holder_-_cut
 62
7
100
AcDbSpline
 70
8
 71
3
 72
8
 73
4
 74
0
 40
0
 40
0
 40
0
 40
0
 40
1
 40
1
 40
1
 40
1
 10
455.398433
 20
-125.847529
 30
0.0
 10
454.613319
 20
-125.847445
 30
0.0
 10
453.898930
 20
-125.133338
 30
0.0
 10
453.898591
 20
-124.348224
 30
0.0
  0
SPLINE
  5
176
100
AcDbEntity
  8
Battery_holder_-_cut
 62
7
100
AcDbSpline
 70
8
 71
3
 72
8
 73
4
 74
0
 40
0
 40
0
 40
0
 40
0
 40
1
 40
1
 40
1
 40
1
 10
453.898591
 20
-124.348224
 30
0.0
 10
453.898647
 20
-123.562912
 30
0.0
 10
454.613121
 20
-122.848439
 30
0.0
 10
455.398433
 20
-122.848354
 30
0.0
  0
SPLINE
  5
177
100
AcDbEntity
  8
Battery_holder_-_cut
 62
7
100
AcDbSpline
 70
8
 71
3
 72
8
 73
4
 74
0
 40
0
 40
0
 40
0
 40
0
 40
1
 40
1
 40
1
 40
1
 10
455.398433
 20
-122.848354
 30
0.0
 10
456.183547
 20
-122.848439
 30
0.0
 10
456.897936
 20
-123.562545
 30
0.0
 10
456.898303
 20
-124.347659
 30
0.0
  0
SPLINE
  5
178
100
AcDbEntity
  8
Battery_holder_-_cut
 62
7
100
AcDbSpline
 70
8
 71
3
 72
8
 73
4
 74
0
 40
0
 40
0
 40
0
 40
0
 40
1
 40
1
 40
1
 40
1
 10
456.898303
 20
-124.347659
 30
0.0
 10
456.898218
 20
-125.132971
 30
0.0
 10
456.183744
 20
-125.847445
 30
0.0
 10
455.398433
 20
-125.847529
 30
0.0
  0
LINE
  5
179
100
AcDbEntity
  8
Battery_holder_-_cut
 62
7
100
AcDbLine
 10
455.398433
 20
-125.847529
 30
0.0
 11
455.398433
 21
-125.847529
 31
0.0
  0
SPLINE
  5
17a
100
AcDbEntity
  8
Battery_holder_-_cut
 62
7
100
AcDbSpline
 70
8
 71
3
 72
8
 73
4
 74
0
 40
0
 40
0
 40
0
 40
0
 40
1
 40
1
 40
1
 40
1
 10
384.398603
 20
-125.847529
 30
0.0
 10
383.613489
 20
-125.847445
 30
0.0
 10
382.899100
 20
-125.133338
 30
0.0
 10
382.898733
 20
-124.348224
 30
0.0
  0
SPLINE
  5
17b
100
AcDbEntity
  8
Battery_holder_-_cut
 62
7
100
AcDbSpline
 70
8
 71
3
 72
8
 73
4
 74
0
 40
0
 40
0
 40
0
 40
0
 40
1
 40
1
 40
1
 40
1
 10
382.898733
 20
-124.348224
 30
0.0
 10
382.898535
 20
-123.562743
 30
0.0
 10
383.613122
 20
-122.847902
 30
0.0
 10
384.398603
 20
-122.847818
 30
0.0
  0
SPLINE
  5
17c
100
AcDbEntity
  8
Battery_holder_-_cut
 62
7
100
AcDbSpline
 70
8
 71
3
 72
8
 73
4
 74
0
 40
0
 40
0
 40
0
 40
0
 40
1
 40
1
 40
1
 40
1
 10
384.398603
 20
-122.847818
 30
0.0
 10
385.184084
 20
-122.847902
 30
0.0
 10
385.898670
 20
-123.562743
 30
0.0
 10
385.898445
 20
-124.348224
 30
0.0
  0
SPLINE
  5
17d
100
AcDbEntity
  8
Battery_holder_-_cut
 62
7
100
AcDbSpline
 70
8
 71
3
 72
8
 73
4
 74
0
 40
0
 40
0
 40
0
 40
0
 40
1
 40
1
 40
1
 40
1
 10
385.898445
 20
-124.348224
 30
0.0
 10
385.898162
 20
-125.133338
 30
0.0
 10
385.183717
 20
-125.847445
 30
0.0
 10
384.398603
 20
-125.847529
 30
0.0
  0
LINE
  5
17e
100
AcDbEntity
  8
Battery_holder_-_cut
 62
7
100
AcDbLine
 10
384.398603
 20
-125.847529
 30
0.0
 11
384.398603
 21
-125.847529
 31
0.0
  0
SPLINE
  5
17f
100
AcDbEntity
  8
Battery_holder_-_cut
 62
7
100
AcDbSpline
 70
8
 71
3
 72
8
 73
4
 74
0
 40
0
 40
0
 40
0
 40
0
 40
1
 40
1
 40
1
 40
1
 10
401.398964
 20
-93.347552
 30
0.0
 10
398.398885
 20
-93.347580
 30
0.0
 10
398.398716
 20
-93.347693
 30
0.0
 10
398.398716
 20
-96.471837
 30
0.0
  0
LINE
  5
180
100
AcDbEntity
  8
Battery_holder_-_cut
 62
7
100
AcDbLine
 10
398.398716
 20
-96.471837
 30
0.0
 11
398.398716
 21
-102.025349
 31
0.0
  0
SPLINE
  5
181
100
AcDbEntity
  8
Battery_holder_-_cut
 62
7
100
AcDbSpline
 70
8
 71
3
 72
8
 73
4
 74
0
 40
0
 40
0
 40
0
 40
0
 40
1
 40
1
 40
1
 40
1
 10
398.398716
 20
-102.025349
 30
0.0
 10
399.777089
 20
-104.385715
 30
0.0
 10
400.518967
 20
-107.113759
 30
0.0
 10
400.525853
 20
-109.847082
 30
0.0
  0
SPLINE
  5
182
100
AcDbEntity
  8
Battery_holder_-_cut
 62
7
100
AcDbSpline
 70
8
 71
3
 72
8
 73
4
 74
0
 40
0
 40
0
 40
0
 40
0
 40
1
 40
1
 40
1
 40
1
 10
400.525853
 20
-109.847082
 30
0.0
 10
400.520491
 20
-112.583367
 30
0.0
 10
399.778557
 20
-115.314742
 30
0.0
 10
398.398716
 20
-117.677648
 30
0.0
  0
LINE
  5
183
100
AcDbEntity
  8
Battery_holder_-_cut
 62
7
100
AcDbLine
 10
398.398716
 20
-117.677648
 30
0.0
 11
398.398716
 21
-174.347001
 31
0.0
  0
LINE
  5
184
100
AcDbEntity
  8
Battery_holder_-_cut
 62
7
100
AcDbLine
 10
398.398716
 20
-174.347001
 30
0.0
 11
404.398676
 21
-174.347001
 31
0.0
  0
LINE
  5
185
100
AcDbEntity
  8
Battery_holder_-_cut
 62
7
100
AcDbLine
 10
404.398676
 20
-174.347001
 30
0.0
 11
404.398676
 21
-103.347701
 31
0.0
  0
LINE
  5
186
100
AcDbEntity
  8
Battery_holder_-_cut
 62
7
100
AcDbLine
 10
404.398676
 20
-103.347701
 30
0.0
 11
406.487233
 21
-103.347701
 31
0.0
  0
SPLINE
  5
187
100
AcDbEntity
  8
Battery_holder_-_cut
 62
7
100
AcDbSpline
 70
8
 71
3
 72
8
 73
4
 74
0
 40
0
 40
0
 40
0
 40
0
 40
1
 40
1
 40
1
 40
1
 10
406.487233
 20
-103.347701
 30
0.0
 10
407.399150
 20
-103.347701
 30
0.0
 10
407.399516
 20
-103.347955
 30
0.0
 10
407.399516
 20
-102.348353
 30
0.0
  0
LINE
  5
188
100
AcDbEntity
  8
Battery_holder_-_cut
 62
7
100
AcDbLine
 10
407.399516
 20
-102.348353
 30
0.0
 11
407.399516
 21
-98.347627
 31
0.0
  0
LINE
  5
189
100
AcDbEntity
  8
Battery_holder_-_cut
 62
7
100
AcDbLine
 10
407.399516
 20
-98.347627
 30
0.0
 11
436.899443
 21
-98.347627
 31
0.0
  0
LINE
  5
18a
100
AcDbEntity
  8
Battery_holder_-_cut
 62
7
100
AcDbLine
 10
436.899443
 20
-98.347627
 30
0.0
 11
436.899443
 21
-93.347552
 31
0.0
  0
LINE
  5
18b
100
AcDbEntity
  8
Battery_holder_-_cut
 62
7
100
AcDbLine
 10
436.899443
 20
-93.347552
 30
0.0
 11
407.399516
 21
-93.347552
 31
0.0
  0
LINE
  5
18c
100
AcDbEntity
  8
Battery_holder_-_cut
 62
7
100
AcDbLine
 10
407.399516
 20
-93.347552
 30
0.0
 11
404.399240
 21
-93.347552
 31
0.0
  0
LINE
  5
18d
100
AcDbEntity
  8
Battery_holder_-_cut
 62
7
100
AcDbLine
 10
404.399240
 20
-93.347552
 30
0.0
 11
401.399528
 21
-93.347552
 31
0.0
  0
LINE
  5
18e
100
AcDbEntity
  8
Battery_holder_-_cut
 62
7
100
AcDbLine
 10
401.399528
 20
-93.347552
 30
0.0
 11
401.398964
 21
-93.347552
 31
0.0
  0
SPLINE
  5
18f
100
AcDbEntity
  8
Battery_holder_-_cut
 62
7
100
AcDbSpline
 70
8
 71
3
 72
8
 73
4
 74
0
 40
0
 40
0
 40
0
 40
0
 40
1
 40
1
 40
1
 40
1
 10
401.398964
 20
-94.848523
 30
0.0
 10
402.184276
 20
-94.848607
 30
0.0
 10
402.898778
 20
-95.563053
 30
0.0
 10
402.898834
 20
-96.348365
 30
0.0
  0
SPLINE
  5
190
100
AcDbEntity
  8
Battery_holder_-_cut
 62
7
100
AcDbSpline
 70
8
 71
3
 72
8
 73
4
 74
0
 40
0
 40
0
 40
0
 40
0
 40
1
 40
1
 40
1
 40
1
 10
402.898834
 20
-96.348365
 30
0.0
 10
402.898778
 20
-97.133676
 30
0.0
 10
402.184276
 20
-97.848150
 30
0.0
 10
401.398964
 20
-97.848235
 30
0.0
  0
SPLINE
  5
191
100
AcDbEntity
  8
Battery_holder_-_cut
 62
7
100
AcDbSpline
 70
8
 71
3
 72
8
 73
4
 74
0
 40
0
 40
0
 40
0
 40
0
 40
1
 40
1
 40
1
 40
1
 10
401.398964
 20
-97.848235
 30
0.0
 10
400.613483
 20
-97.848150
 30
0.0
 10
399.898896
 20
-97.133337
 30
0.0
 10
399.899122
 20
-96.347828
 30
0.0
  0
SPLINE
  5
192
100
AcDbEntity
  8
Battery_holder_-_cut
 62
7
100
AcDbSpline
 70
8
 71
3
 72
8
 73
4
 74
0
 40
0
 40
0
 40
0
 40
0
 40
1
 40
1
 40
1
 40
1
 10
399.899122
 20
-96.347828
 30
0.0
 10
399.899404
 20
-95.562714
 30
0.0
 10
400.613850
 20
-94.848607
 30
0.0
 10
401.398964
 20
-94.848523
 30
0.0
  0
LINE
  5
193
100
AcDbEntity
  8
Battery_holder_-_cut
 62
7
100
AcDbLine
 10
401.398964
 20
-94.848523
 30
0.0
 11
401.398964
 21
-94.848523
 31
0.0
  0
SPLINE
  5
194
100
AcDbEntity
  8
Battery_holder_-_cut
 62
7
100
AcDbSpline
 70
8
 71
3
 72
8
 73
4
 74
0
 40
0
 40
0
 40
0
 40
0
 40
1
 40
1
 40
1
 40
1
 10
401.398964
 20
-169.848505
 30
0.0
 10
402.184106
 20
-169.848590
 30
0.0
 10
402.898467
 20
-170.562697
 30
0.0
 10
402.898834
 20
-171.347811
 30
0.0
  0
SPLINE
  5
195
100
AcDbEntity
  8
Battery_holder_-_cut
 62
7
100
AcDbSpline
 70
8
 71
3
 72
8
 73
4
 74
0
 40
0
 40
0
 40
0
 40
0
 40
1
 40
1
 40
1
 40
1
 10
402.898834
 20
-171.347811
 30
0.0
 10
402.898778
 20
-172.133123
 30
0.0
 10
402.184276
 20
-172.847596
 30
0.0
 10
401.398964
 20
-172.847681
 30
0.0
  0
SPLINE
  5
196
100
AcDbEntity
  8
Battery_holder_-_cut
 62
7
100
AcDbSpline
 70
8
 71
3
 72
8
 73
4
 74
0
 40
0
 40
0
 40
0
 40
0
 40
1
 40
1
 40
1
 40
1
 10
401.398964
 20
-172.847681
 30
0.0
 10
400.613850
 20
-172.847596
 30
0.0
 10
399.899489
 20
-172.133489
 30
0.0
 10
399.899122
 20
-171.348375
 30
0.0
  0
SPLINE
  5
197
100
AcDbEntity
  8
Battery_holder_-_cut
 62
7
100
AcDbSpline
 70
8
 71
3
 72
8
 73
4
 74
0
 40
0
 40
0
 40
0
 40
0
 40
1
 40
1
 40
1
 40
1
 10
399.899122
 20
-171.348375
 30
0.0
 10
399.899179
 20
-170.563064
 30
0.0
 10
400.613652
 20
-169.848590
 30
0.0
 10
401.398964
 20
-169.848505
 30
0.0
  0
LINE
  5
198
100
AcDbEntity
  8
Battery_holder_-_cut
 62
7
100
AcDbLine
 10
401.398964
 20
-169.848505
 30
0.0
 11
401.398964
 21
-169.848505
 31
0.0
  0
SPLINE
  5
199
100
AcDbEntity
  8
Battery_holder_-_cut
 62
7
100
AcDbSpline
 70
8
 71
3
 72
8
 73
4
 74
0
 40
0
 40
0
 40
0
 40
0
 40
1
 40
1
 40
1
 40
1
 10
412.398744
 20
-100.347397
 30
0.0
 10
409.398666
 20
-100.347425
 30
0.0
 10
409.398496
 20
-100.347538
 30
0.0
 10
409.398496
 20
-103.471682
 30
0.0
  0
LINE
  5
19a
100
AcDbEntity
  8
Battery_holder_-_cut
 62
7
100
AcDbLine
 10
409.398496
 20
-103.471682
 30
0.0
 11
409.398496
 21
-109.025194
 31
0.0
  0
SPLINE
  5
19b
100
AcDbEntity
  8
Battery_holder_-_cut
 62
7
100
AcDbSpline
 70
8
 71
3
 72
8
 73
4
 74
0
 40
0
 40
0
 40
0
 40
0
 40
1
 40
1
 40
1
 40
1
 10
409.398496
 20
-109.025194
 30
0.0
 10
410.776870
 20
-111.385560
 30
0.0
 10
411.518747
 20
-114.113604
 30
0.0
 10
411.525634
 20
-116.846927
 30
0.0
  0
SPLINE
  5
19c
100
AcDbEntity
  8
Battery_holder_-_cut
 62
7
100
AcDbSpline
 70
8
 71
3
 72
8
 73
4
 74
0
 40
0
 40
0
 40
0
 40
0
 40
1
 40
1
 40
1
 40
1
 10
411.525634
 20
-116.846927
 30
0.0
 10
411.520271
 20
-119.583212
 30
0.0
 10
410.778337
 20
-122.314587
 30
0.0
 10
409.398496
 20
-124.677493
 30
0.0
  0
LINE
  5
19d
100
AcDbEntity
  8
Battery_holder_-_cut
 62
7
100
AcDbLine
 10
409.398496
 20
-124.677493
 30
0.0
 11
409.398496
 21
-181.346846
 31
0.0
  0
LINE
  5
19e
100
AcDbEntity
  8
Battery_holder_-_cut
 62
7
100
AcDbLine
 10
409.398496
 20
-181.346846
 30
0.0
 11
415.398456
 21
-181.346846
 31
0.0
  0
LINE
  5
19f
100
AcDbEntity
  8
Battery_holder_-_cut
 62
7
100
AcDbLine
 10
415.398456
 20
-181.346846
 30
0.0
 11
415.398456
 21
-114.347708
 31
0.0
  0
LINE
  5
1a0
100
AcDbEntity
  8
Battery_holder_-_cut
 62
7
100
AcDbLine
 10
415.398456
 20
-114.347708
 30
0.0
 11
415.398456
 21
-110.347546
 31
0.0
  0
LINE
  5
1a1
100
AcDbEntity
  8
Battery_holder_-_cut
 62
7
100
AcDbLine
 10
415.398456
 20
-110.347546
 30
0.0
 11
415.398456
 21
-105.347472
 31
0.0
  0
LINE
  5
1a2
100
AcDbEntity
  8
Battery_holder_-_cut
 62
7
100
AcDbLine
 10
415.398456
 20
-105.347472
 30
0.0
 11
418.398732
 21
-105.347472
 31
0.0
  0
LINE
  5
1a3
100
AcDbEntity
  8
Battery_holder_-_cut
 62
7
100
AcDbLine
 10
418.398732
 20
-105.347472
 30
0.0
 11
419.398646
 21
-105.347472
 31
0.0
  0
LINE
  5
1a4
100
AcDbEntity
  8
Battery_holder_-_cut
 62
7
100
AcDbLine
 10
419.398646
 20
-105.347472
 30
0.0
 11
447.898659
 21
-105.347472
 31
0.0
  0
LINE
  5
1a5
100
AcDbEntity
  8
Battery_holder_-_cut
 62
7
100
AcDbLine
 10
447.898659
 20
-105.347472
 30
0.0
 11
447.898659
 21
-100.347397
 31
0.0
  0
LINE
  5
1a6
100
AcDbEntity
  8
Battery_holder_-_cut
 62
7
100
AcDbLine
 10
447.898659
 20
-100.347397
 30
0.0
 11
418.398732
 21
-100.347397
 31
0.0
  0
LINE
  5
1a7
100
AcDbEntity
  8
Battery_holder_-_cut
 62
7
100
AcDbLine
 10
418.398732
 20
-100.347397
 30
0.0
 11
415.398456
 21
-100.347397
 31
0.0
  0
LINE
  5
1a8
100
AcDbEntity
  8
Battery_holder_-_cut
 62
7
100
AcDbLine
 10
415.398456
 20
-100.347397
 30
0.0
 11
412.398744
 21
-100.347397
 31
0.0
  0
LINE
  5
1a9
100
AcDbEntity
  8
Battery_holder_-_cut
 62
7
100
AcDbLine
 10
412.398744
 20
-100.347397
 30
0.0
 11
412.398744
 21
-100.347397
 31
0.0
  0
SPLINE
  5
1aa
100
AcDbEntity
  8
Battery_holder_-_cut
 62
7
100
AcDbSpline
 70
8
 71
3
 72
8
 73
4
 74
0
 40
0
 40
0
 40
0
 40
0
 40
1
 40
1
 40
1
 40
1
 10
412.398744
 20
-101.848368
 30
0.0
 10
413.184056
 20
-101.848452
 30
0.0
 10
413.898558
 20
-102.562898
 30
0.0
 10
413.898614
 20
-103.348209
 30
0.0
  0
SPLINE
  5
1ab
100
AcDbEntity
  8
Battery_holder_-_cut
 62
7
100
AcDbSpline
 70
8
 71
3
 72
8
 73
4
 74
0
 40
0
 40
0
 40
0
 40
0
 40
1
 40
1
 40
1
 40
1
 10
413.898614
 20
-103.348209
 30
0.0
 10
413.898558
 20
-104.133521
 30
0.0
 10
413.184056
 20
-104.847995
 30
0.0
 10
412.398744
 20
-104.848079
 30
0.0
  0
SPLINE
  5
1ac
100
AcDbEntity
  8
Battery_holder_-_cut
 62
7
100
AcDbSpline
 70
8
 71
3
 72
8
 73
4
 74
0
 40
0
 40
0
 40
0
 40
0
 40
1
 40
1
 40
1
 40
1
 10
412.398744
 20
-104.848079
 30
0.0
 10
411.613264
 20
-104.847995
 30
0.0
 10
410.898677
 20
-104.133182
 30
0.0
 10
410.898903
 20
-103.347673
 30
0.0
  0
SPLINE
  5
1ad
100
AcDbEntity
  8
Battery_holder_-_cut
 62
7
100
AcDbSpline
 70
8
 71
3
 72
8
 73
4
 74
0
 40
0
 40
0
 40
0
 40
0
 40
1
 40
1
 40
1
 40
1
 10
410.898903
 20
-103.347673
 30
0.0
 10
410.898903
 20
-102.562559
 30
0.0
 10
411.613630
 20
-101.848452
 30
0.0
 10
412.398744
 20
-101.848368
 30
0.0
  0
LINE
  5
1ae
100
AcDbEntity
  8
Battery_holder_-_cut
 62
7
100
AcDbLine
 10
412.398744
 20
-101.848368
 30
0.0
 11
412.398744
 21
-101.848368
 31
0.0
  0
SPLINE
  5
1af
100
AcDbEntity
  8
Battery_holder_-_cut
 62
7
100
AcDbSpline
 70
8
 71
3
 72
8
 73
4
 74
0
 40
0
 40
0
 40
0
 40
0
 40
1
 40
1
 40
1
 40
1
 10
412.398744
 20
-176.848364
 30
0.0
 10
413.183887
 20
-176.848449
 30
0.0
 10
413.898248
 20
-177.562556
 30
0.0
 10
413.898614
 20
-178.347670
 30
0.0
  0
SPLINE
  5
1b0
100
AcDbEntity
  8
Battery_holder_-_cut
 62
7
100
AcDbSpline
 70
8
 71
3
 72
8
 73
4
 74
0
 40
0
 40
0
 40
0
 40
0
 40
1
 40
1
 40
1
 40
1
 10
413.898614
 20
-178.347670
 30
0.0
 10
413.898558
 20
-179.132982
 30
0.0
 10
413.184056
 20
-179.847455
 30
0.0
 10
412.398744
 20
-179.847540
 30
0.0
  0
SPLINE
  5
1b1
100
AcDbEntity
  8
Battery_holder_-_cut
 62
7
100
AcDbSpline
 70
8
 71
3
 72
8
 73
4
 74
0
 40
0
 40
0
 40
0
 40
0
 40
1
 40
1
 40
1
 40
1
 10
412.398744
 20
-179.847540
 30
0.0
 10
411.613630
 20
-179.847455
 30
0.0
 10
410.899270
 20
-179.133348
 30
0.0
 10
410.898903
 20
-178.348234
 30
0.0
  0
SPLINE
  5
1b2
100
AcDbEntity
  8
Battery_holder_-_cut
 62
7
100
AcDbSpline
 70
8
 71
3
 72
8
 73
4
 74
0
 40
0
 40
0
 40
0
 40
0
 40
1
 40
1
 40
1
 40
1
 10
410.898903
 20
-178.348234
 30
0.0
 10
410.898959
 20
-177.562923
 30
0.0
 10
411.613433
 20
-176.848449
 30
0.0
 10
412.398744
 20
-176.848364
 30
0.0
  0
LINE
  5
1b3
100
AcDbEntity
  8
Battery_holder_-_cut
 62
7
100
AcDbLine
 10
412.398744
 20
-176.848364
 30
0.0
 11
412.398744
 21
-176.848364
 31
0.0
  0
SPLINE
  5
1b4
100
AcDbEntity
  8
Battery_holder_-_cut
 62
7
100
AcDbSpline
 70
8
 71
3
 72
8
 73
4
 74
0
 40
0
 40
0
 40
0
 40
0
 40
1
 40
1
 40
1
 40
1
 10
420.399095
 20
-107.347298
 30
0.0
 10
417.399017
 20
-107.347327
 30
0.0
 10
417.398819
 20
-107.347439
 30
0.0
 10
417.398819
 20
-110.471583
 30
0.0
  0
LINE
  5
1b5
100
AcDbEntity
  8
Battery_holder_-_cut
 62
7
100
AcDbLine
 10
417.398819
 20
-110.471583
 30
0.0
 11
417.398819
 21
-116.025632
 31
0.0
  0
SPLINE
  5
1b6
100
AcDbEntity
  8
Battery_holder_-_cut
 62
7
100
AcDbSpline
 70
8
 71
3
 72
8
 73
4
 74
0
 40
0
 40
0
 40
0
 40
0
 40
1
 40
1
 40
1
 40
1
 10
417.398819
 20
-116.025632
 30
0.0
 10
418.777192
 20
-118.385997
 30
0.0
 10
419.519098
 20
-121.113477
 30
0.0
 10
419.525956
 20
-123.846800
 30
0.0
  0
SPLINE
  5
1b7
100
AcDbEntity
  8
Battery_holder_-_cut
 62
7
100
AcDbSpline
 70
8
 71
3
 72
8
 73
4
 74
0
 40
0
 40
0
 40
0
 40
0
 40
1
 40
1
 40
1
 40
1
 10
419.525956
 20
-123.846800
 30
0.0
 10
419.520594
 20
-126.583085
 30
0.0
 10
418.778660
 20
-129.314460
 30
0.0
 10
417.398819
 20
-131.677366
 30
0.0
  0
LINE
  5
1b8
100
AcDbEntity
  8
Battery_holder_-_cut
 62
7
100
AcDbLine
 10
417.398819
 20
-131.677366
 30
0.0
 11
417.398819
 21
-188.347283
 31
0.0
  0
LINE
  5
1b9
100
AcDbEntity
  8
Battery_holder_-_cut
 62
7
100
AcDbLine
 10
417.398819
 20
-188.347283
 30
0.0
 11
423.398807
 21
-188.347283
 31
0.0
  0
LINE
  5
1ba
100
AcDbEntity
  8
Battery_holder_-_cut
 62
7
100
AcDbLine
 10
423.398807
 20
-188.347283
 30
0.0
 11
423.398807
 21
-120.347696
 31
0.0
  0
LINE
  5
1bb
100
AcDbEntity
  8
Battery_holder_-_cut
 62
7
100
AcDbLine
 10
423.398807
 20
-120.347696
 30
0.0
 11
423.398807
 21
-117.347419
 31
0.0
  0
LINE
  5
1bc
100
AcDbEntity
  8
Battery_holder_-_cut
 62
7
100
AcDbLine
 10
423.398807
 20
-117.347419
 30
0.0
 11
423.398807
 21
-112.347373
 31
0.0
  0
LINE
  5
1bd
100
AcDbEntity
  8
Battery_holder_-_cut
 62
7
100
AcDbLine
 10
423.398807
 20
-112.347373
 30
0.0
 11
426.399083
 21
-112.347373
 31
0.0
  0
LINE
  5
1be
100
AcDbEntity
  8
Battery_holder_-_cut
 62
7
100
AcDbLine
 10
426.399083
 20
-112.347373
 30
0.0
 11
427.398968
 21
-112.347373
 31
0.0
  0
LINE
  5
1bf
100
AcDbEntity
  8
Battery_holder_-_cut
 62
7
100
AcDbLine
 10
427.398968
 20
-112.347373
 30
0.0
 11
455.899010
 21
-112.347373
 31
0.0
  0
LINE
  5
1c0
100
AcDbEntity
  8
Battery_holder_-_cut
 62
7
100
AcDbLine
 10
455.899010
 20
-112.347373
 30
0.0
 11
455.899010
 21
-107.347298
 31
0.0
  0
LINE
  5
1c1
100
AcDbEntity
  8
Battery_holder_-_cut
 62
7
100
AcDbLine
 10
455.899010
 20
-107.347298
 30
0.0
 11
426.399083
 21
-107.347298
 31
0.0
  0
LINE
  5
1c2
100
AcDbEntity
  8
Battery_holder_-_cut
 62
7
100
AcDbLine
 10
426.399083
 20
-107.347298
 30
0.0
 11
423.398807
 21
-107.347298
 31
0.0
  0
LINE
  5
1c3
100
AcDbEntity
  8
Battery_holder_-_cut
 62
7
100
AcDbLine
 10
423.398807
 20
-107.347298
 30
0.0
 11
420.399095
 21
-107.347298
 31
0.0
  0
LINE
  5
1c4
100
AcDbEntity
  8
Battery_holder_-_cut
 62
7
100
AcDbLine
 10
420.399095
 20
-107.347298
 30
0.0
 11
420.399095
 21
-107.347298
 31
0.0
  0
SPLINE
  5
1c5
100
AcDbEntity
  8
Battery_holder_-_cut
 62
7
100
AcDbSpline
 70
8
 71
3
 72
8
 73
4
 74
0
 40
0
 40
0
 40
0
 40
0
 40
1
 40
1
 40
1
 40
1
 10
420.399095
 20
-108.848805
 30
0.0
 10
421.184407
 20
-108.848890
 30
0.0
 10
421.898881
 20
-109.562799
 30
0.0
 10
421.898937
 20
-110.348111
 30
0.0
  0
SPLINE
  5
1c6
100
AcDbEntity
  8
Battery_holder_-_cut
 62
7
100
AcDbSpline
 70
8
 71
3
 72
8
 73
4
 74
0
 40
0
 40
0
 40
0
 40
0
 40
1
 40
1
 40
1
 40
1
 10
421.898937
 20
-110.348111
 30
0.0
 10
421.898881
 20
-111.133422
 30
0.0
 10
421.184407
 20
-111.848432
 30
0.0
 10
420.399095
 20
-111.848517
 30
0.0
  0
SPLINE
  5
1c7
100
AcDbEntity
  8
Battery_holder_-_cut
 62
7
100
AcDbSpline
 70
8
 71
3
 72
8
 73
4
 74
0
 40
0
 40
0
 40
0
 40
0
 40
1
 40
1
 40
1
 40
1
 10
420.399095
 20
-111.848517
 30
0.0
 10
419.613586
 20
-111.848432
 30
0.0
 10
418.899000
 20
-111.133620
 30
0.0
 10
418.899225
 20
-110.348111
 30
0.0
  0
SPLINE
  5
1c8
100
AcDbEntity
  8
Battery_holder_-_cut
 62
7
100
AcDbSpline
 70
8
 71
3
 72
8
 73
4
 74
0
 40
0
 40
0
 40
0
 40
0
 40
1
 40
1
 40
1
 40
1
 10
418.899225
 20
-110.348111
 30
0.0
 10
418.899508
 20
-109.562997
 30
0.0
 10
419.613981
 20
-108.848890
 30
0.0
 10
420.399095
 20
-108.848805
 30
0.0
  0
LINE
  5
1c9
100
AcDbEntity
  8
Battery_holder_-_cut
 62
7
100
AcDbLine
 10
420.399095
 20
-108.848805
 30
0.0
 11
420.399095
 21
-108.848805
 31
0.0
  0
SPLINE
  5
1ca
100
AcDbEntity
  8
Battery_holder_-_cut
 62
7
100
AcDbSpline
 70
8
 71
3
 72
8
 73
4
 74
0
 40
0
 40
0
 40
0
 40
0
 40
1
 40
1
 40
1
 40
1
 10
420.399095
 20
-183.848266
 30
0.0
 10
421.184209
 20
-183.848350
 30
0.0
 10
421.898598
 20
-184.562457
 30
0.0
 10
421.898937
 20
-185.347571
 30
0.0
  0
SPLINE
  5
1cb
100
AcDbEntity
  8
Battery_holder_-_cut
 62
7
100
AcDbSpline
 70
8
 71
3
 72
8
 73
4
 74
0
 40
0
 40
0
 40
0
 40
0
 40
1
 40
1
 40
1
 40
1
 10
421.898937
 20
-185.347571
 30
0.0
 10
421.898881
 20
-186.132883
 30
0.0
 10
421.184407
 20
-186.847893
 30
0.0
 10
420.399095
 20
-186.847978
 30
0.0
  0
SPLINE
  5
1cc
100
AcDbEntity
  8
Battery_holder_-_cut
 62
7
100
AcDbSpline
 70
8
 71
3
 72
8
 73
4
 74
0
 40
0
 40
0
 40
0
 40
0
 40
1
 40
1
 40
1
 40
1
 10
420.399095
 20
-186.847978
 30
0.0
 10
419.613981
 20
-186.847893
 30
0.0
 10
418.899592
 20
-186.133786
 30
0.0
 10
418.899225
 20
-185.348672
 30
0.0
  0
SPLINE
  5
1cd
100
AcDbEntity
  8
Battery_holder_-_cut
 62
7
100
AcDbSpline
 70
8
 71
3
 72
8
 73
4
 74
0
 40
0
 40
0
 40
0
 40
0
 40
1
 40
1
 40
1
 40
1
 10
418.899225
 20
-185.348672
 30
0.0
 10
418.899310
 20
-184.563360
 30
0.0
 10
419.613784
 20
-183.848350
 30
0.0
 10
420.399095
 20
-183.848266
 30
0.0
  0
LINE
  5
1ce
100
AcDbEntity
  8
Battery_holder_-_cut
 62
7
100
AcDbLine
 10
420.399095
 20
-183.848266
 30
0.0
 11
420.399095
 21
-183.848266
 31
0.0
  0
SPLINE
  5
1cf
100
AcDbEntity
  8
Battery_holder_-_cut
 62
7
100
AcDbSpline
 70
8
 71
3
 72
8
 73
4
 74
0
 40
0
 40
0
 40
0
 40
0
 40
1
 40
1
 40
1
 40
1
 10
428.398966
 20
-114.347538
 30
0.0
 10
425.398888
 20
-114.347567
 30
0.0
 10
425.398718
 20
-114.347708
 30
0.0
 10
425.398718
 20
-117.471851
 30
0.0
  0
LINE
  5
1d0
100
AcDbEntity
  8
Battery_holder_-_cut
 62
7
100
AcDbLine
 10
425.398718
 20
-117.471851
 30
0.0
 11
425.398718
 21
-123.025335
 31
0.0
  0
SPLINE
  5
1d1
100
AcDbEntity
  8
Battery_holder_-_cut
 62
7
100
AcDbSpline
 70
8
 71
3
 72
8
 73
4
 74
0
 40
0
 40
0
 40
0
 40
0
 40
1
 40
1
 40
1
 40
1
 10
425.398718
 20
-123.025335
 30
0.0
 10
426.777064
 20
-125.385701
 30
0.0
 10
427.518969
 20
-128.113746
 30
0.0
 10
427.525856
 20
-130.847068
 30
0.0
  0
SPLINE
  5
1d2
100
AcDbEntity
  8
Battery_holder_-_cut
 62
7
100
AcDbSpline
 70
8
 71
3
 72
8
 73
4
 74
0
 40
0
 40
0
 40
0
 40
0
 40
1
 40
1
 40
1
 40
1
 10
427.525856
 20
-130.847068
 30
0.0
 10
427.520493
 20
-133.583345
 30
0.0
 10
426.778559
 20
-136.314720
 30
0.0
 10
425.398718
 20
-138.677625
 30
0.0
  0
LINE
  5
1d3
100
AcDbEntity
  8
Battery_holder_-_cut
 62
7
100
AcDbLine
 10
425.398718
 20
-138.677625
 30
0.0
 11
425.398718
 21
-195.346987
 31
0.0
  0
LINE
  5
1d4
100
AcDbEntity
  8
Battery_holder_-_cut
 62
7
100
AcDbLine
 10
425.398718
 20
-195.346987
 30
0.0
 11
431.398678
 21
-195.346987
 31
0.0
  0
LINE
  5
1d5
100
AcDbEntity
  8
Battery_holder_-_cut
 62
7
100
AcDbLine
 10
431.398678
 20
-195.346987
 30
0.0
 11
431.398678
 21
-124.347688
 31
0.0
  0
LINE
  5
1d6
100
AcDbEntity
  8
Battery_holder_-_cut
 62
7
100
AcDbLine
 10
431.398678
 20
-124.347688
 30
0.0
 11
433.487236
 21
-124.347688
 31
0.0
  0
SPLINE
  5
1d7
100
AcDbEntity
  8
Battery_holder_-_cut
 62
7
100
AcDbSpline
 70
8
 71
3
 72
8
 73
4
 74
0
 40
0
 40
0
 40
0
 40
0
 40
1
 40
1
 40
1
 40
1
 10
433.487236
 20
-124.347688
 30
0.0
 10
434.399152
 20
-124.347688
 30
0.0
 10
434.399491
 20
-124.347942
 30
0.0
 10
434.399491
 20
-123.348339
 30
0.0
  0
LINE
  5
1d8
100
AcDbEntity
  8
Battery_holder_-_cut
 62
7
100
AcDbLine
 10
434.399491
 20
-123.348339
 30
0.0
 11
434.399491
 21
-119.347613
 31
0.0
  0
LINE
  5
1d9
100
AcDbEntity
  8
Battery_holder_-_cut
 62
7
100
AcDbLine
 10
434.399491
 20
-119.347613
 30
0.0
 11
458.399414
 21
-119.347613
 31
0.0
  0
LINE
  5
1da
100
AcDbEntity
  8
Battery_holder_-_cut
 62
7
100
AcDbLine
 10
458.399414
 20
-119.347613
 30
0.0
 11
458.399414
 21
-114.347538
 31
0.0
  0
LINE
  5
1db
100
AcDbEntity
  8
Battery_holder_-_cut
 62
7
100
AcDbLine
 10
458.399414
 20
-114.347538
 30
0.0
 11
434.399491
 21
-114.347538
 31
0.0
  0
LINE
  5
1dc
100
AcDbEntity
  8
Battery_holder_-_cut
 62
7
100
AcDbLine
 10
434.399491
 20
-114.347538
 30
0.0
 11
431.399243
 21
-114.347538
 31
0.0
  0
LINE
  5
1dd
100
AcDbEntity
  8
Battery_holder_-_cut
 62
7
100
AcDbLine
 10
431.399243
 20
-114.347538
 30
0.0
 11
428.399531
 21
-114.347538
 31
0.0
  0
LINE
  5
1de
100
AcDbEntity
  8
Battery_holder_-_cut
 62
7
100
AcDbLine
 10
428.399531
 20
-114.347538
 30
0.0
 11
428.398966
 21
-114.347538
 31
0.0
  0
SPLINE
  5
1df
100
AcDbEntity
  8
Battery_holder_-_cut
 62
7
100
AcDbSpline
 70
8
 71
3
 72
8
 73
4
 74
0
 40
0
 40
0
 40
0
 40
0
 40
1
 40
1
 40
1
 40
1
 10
428.398966
 20
-115.848509
 30
0.0
 10
429.184278
 20
-115.848594
 30
0.0
 10
429.898752
 20
-116.563067
 30
0.0
 10
429.898836
 20
-117.348379
 30
0.0
  0
SPLINE
  5
1e0
100
AcDbEntity
  8
Battery_holder_-_cut
 62
7
100
AcDbSpline
 70
8
 71
3
 72
8
 73
4
 74
0
 40
0
 40
0
 40
0
 40
0
 40
1
 40
1
 40
1
 40
1
 10
429.898836
 20
-117.348379
 30
0.0
 10
429.898752
 20
-118.133691
 30
0.0
 10
429.184278
 20
-118.848136
 30
0.0
 10
428.398966
 20
-118.848221
 30
0.0
  0
SPLINE
  5
1e1
100
AcDbEntity
  8
Battery_holder_-_cut
 62
7
100
AcDbSpline
 70
8
 71
3
 72
8
 73
4
 74
0
 40
0
 40
0
 40
0
 40
0
 40
1
 40
1
 40
1
 40
1
 10
428.398966
 20
-118.848221
 30
0.0
 10
427.613486
 20
-118.848136
 30
0.0
 10
426.898899
 20
-118.133324
 30
0.0
 10
426.899125
 20
-117.347815
 30
0.0
  0
SPLINE
  5
1e2
100
AcDbEntity
  8
Battery_holder_-_cut
 62
7
100
AcDbSpline
 70
8
 71
3
 72
8
 73
4
 74
0
 40
0
 40
0
 40
0
 40
0
 40
1
 40
1
 40
1
 40
1
 10
426.899125
 20
-117.347815
 30
0.0
 10
426.899407
 20
-116.562701
 30
0.0
 10
427.613852
 20
-115.848594
 30
0.0
 10
428.398966
 20
-115.848509
 30
0.0
  0
LINE
  5
1e3
100
AcDbEntity
  8
Battery_holder_-_cut
 62
7
100
AcDbLine
 10
428.398966
 20
-115.848509
 30
0.0
 11
428.398966
 21
-115.848509
 31
0.0
  0
SPLINE
  5
1e4
100
AcDbEntity
  8
Battery_holder_-_cut
 62
7
100
AcDbSpline
 70
8
 71
3
 72
8
 73
4
 74
0
 40
0
 40
0
 40
0
 40
0
 40
1
 40
1
 40
1
 40
1
 10
428.398966
 20
-190.848534
 30
0.0
 10
429.184080
 20
-190.848590
 30
0.0
 10
429.898470
 20
-191.562726
 30
0.0
 10
429.898836
 20
-192.347811
 30
0.0
  0
SPLINE
  5
1e5
100
AcDbEntity
  8
Battery_holder_-_cut
 62
7
100
AcDbSpline
 70
8
 71
3
 72
8
 73
4
 74
0
 40
0
 40
0
 40
0
 40
0
 40
1
 40
1
 40
1
 40
1
 10
429.898836
 20
-192.347811
 30
0.0
 10
429.898752
 20
-193.133151
 30
0.0
 10
429.184278
 20
-193.847597
 30
0.0
 10
428.398966
 20
-193.847681
 30
0.0
  0
SPLINE
  5
1e6
100
AcDbEntity
  8
Battery_holder_-_cut
 62
7
100
AcDbSpline
 70
8
 71
3
 72
8
 73
4
 74
0
 40
0
 40
0
 40
0
 40
0
 40
1
 40
1
 40
1
 40
1
 10
428.398966
 20
-193.847681
 30
0.0
 10
427.613852
 20
-193.847597
 30
0.0
 10
426.899492
 20
-193.133490
 30
0.0
 10
426.899125
 20
-192.348376
 30
0.0
  0
SPLINE
  5
1e7
100
AcDbEntity
  8
Battery_holder_-_cut
 62
7
100
AcDbSpline
 70
8
 71
3
 72
8
 73
4
 74
0
 40
0
 40
0
 40
0
 40
0
 40
1
 40
1
 40
1
 40
1
 10
426.899125
 20
-192.348376
 30
0.0
 10
426.899181
 20
-191.563064
 30
0.0
 10
427.613655
 20
-190.848590
 30
0.0
 10
428.398966
 20
-190.848534
 30
0.0
  0
LINE
  5
1e8
100
AcDbEntity
  8
Battery_holder_-_cut
 62
7
100
AcDbLine
 10
428.398966
 20
-190.848534
 30
0.0
 11
428.398966
 21
-190.848534
 31
0.0
  0
ENDSEC
  0
SECTION
  2
OBJECTS
  0
DICTIONARY
  5
C
330
0
100
AcDbDictionary
  3
ACAD_GROUP
350
D
  3
ACAD_MLINESTYLE
350
17
  0
DICTIONARY
  5
D
330
C
100
AcDbDictionary
  0
DICTIONARY
  5
1A
330
C
100
AcDbDictionary
  0
DICTIONARY
  5
17
330
C
100
AcDbDictionary
  3
STANDARD
350
18
  0
DICTIONARY
  5
19
330
C
100
AcDbDictionary
  0
ENDSEC
  0
EOF
