  0
SECTION
  2
HEADER
  9
$ACADVER
  1
AC1014
  9
$HANDSEED
  5
FFFF
  9
$MEASUREMENT
 70
     1
  0
ENDSEC
  0
SECTION
  2
TABLES
  0
TABLE
  2
VPORT
  5
8
330
0
100
AcDbSymbolTable
 70
     4
  0
VPORT
  5
2E
330
8
100
AcDbSymbolTableRecord
100
AcDbViewportTableRecord
  2
*ACTIVE
 70
     0
 10
0.0
 20
0.0
 11
1.0
 21
1.0
 12
210.0
 22
148.5
 13
0.0
 23
0.0
 14
10.0
 24
10.0
 15
10.0
 25
10.0
 16
0.0
 26
0.0
 36
1.0
 17
0.0
 27
0.0
 37
0.0
 40
341.0
 41
1.24
 42
50.0
 43
0.0
 44
0.0
 50
0.0
 51
0.0
 71
     0
 72
   100
 73
     1
 74
     3
 75
     0
 76
     0
 77
     0
 78
     0
  0
ENDTAB
  0
TABLE
  2
LTYPE
  5
5
330
0
100
AcDbSymbolTable
 70
     1
  0
LTYPE
  5
14
330
5
100
AcDbSymbolTableRecord
100
AcDbLinetypeTableRecord
  2
BYBLOCK
 70
     0
  3

 72
    65
 73
     0
 40
0.0
  0
LTYPE
  5
15
330
5
100
AcDbSymbolTableRecord
100
AcDbLinetypeTableRecord
  2
BYLAYER
 70
     0
  3

 72
    65
 73
     0
 40
0.0
  0
LTYPE
  5
16
330
5
100
AcDbSymbolTableRecord
100
AcDbLinetypeTableRecord
  2
CONTINUOUS
 70
     0
  3
Solid line
 72
    65
 73
     0
 40
0.0
  0
ENDTAB
  0
TABLE
  2
LAYER
  5
2
100
AcDbSymbolTable
 70
13
  0
LAYER
  5
50
100
AcDbSymbolTableRecord
100
AcDbLayerTableRecord
  2
0
 70
0
  6
CONTINUOUS
  0
LAYER
  5
51
100
AcDbSymbolTableRecord
100
AcDbLayerTableRecord
  2
BottomPlate_-_Cut
 70
0
  6
CONTINUOUS
  0
LAYER
  5
52
100
AcDbSymbolTableRecord
100
AcDbLayerTableRecord
  2
TopPlate_-_Cut
 70
0
  6
CONTINUOUS
  0
LAYER
  5
53
100
AcDbSymbolTableRecord
100
AcDbLayerTableRecord
  2
TopPlate_-_Etch
 70
0
  6
CONTINUOUS
  0
LAYER
  5
54
100
AcDbSymbolTableRecord
100
AcDbLayerTableRecord
  2
Cogs_-_Cut
 70
0
  6
CONTINUOUS
  0
LAYER
  5
55
100
AcDbSymbolTableRecord
100
AcDbLayerTableRecord
  2
Cogs_-_Secondary
 70
0
  6
CONTINUOUS
  0
LAYER
  5
56
100
AcDbSymbolTableRecord
100
AcDbLayerTableRecord
  2
Cogs_-_Etch
 70
0
  6
CONTINUOUS
  0
LAYER
  5
57
100
AcDbSymbolTableRecord
100
AcDbLayerTableRecord
  2
Edges_-_Cut
 70
0
  6
CONTINUOUS
  0
LAYER
  5
58
100
AcDbSymbolTableRecord
100
AcDbLayerTableRecord
  2
Edges_-_Etch
 70
0
  6
CONTINUOUS
  0
LAYER
  5
59
100
AcDbSymbolTableRecord
100
AcDbLayerTableRecord
  2
3mm_Utility_bits_-_Cut
 70
0
  6
CONTINUOUS
  0
LAYER
  5
5a
100
AcDbSymbolTableRecord
100
AcDbLayerTableRecord
  2
Temp
 70
0
  6
CONTINUOUS
  0
LAYER
  5
5b
100
AcDbSymbolTableRecord
100
AcDbLayerTableRecord
  2
Battery_holder_-_cut
 70
0
  6
CONTINUOUS
  0
LAYER
  5
5c
100
AcDbSymbolTableRecord
100
AcDbLayerTableRecord
  2
Battery_holder_3mm_-_cut
 70
0
  6
CONTINUOUS
  0
ENDTAB
  0
TABLE
  2
STYLE
  5
3
330
0
100
AcDbSymbolTable
 70
     1
  0
STYLE
  5
11
330
3
100
AcDbSymbolTableRecord
100
AcDbTextStyleTableRecord
  2
STANDARD
 70
     0
 40
0.0
 41
1.0
 50
0.0
 71
     0
 42
2.5
  3
txt
  4

  0
ENDTAB
  0
TABLE
  2
VIEW
  5
6
330
0
100
AcDbSymbolTable
 70
     0
  0
ENDTAB
  0
TABLE
  2
UCS
  5
7
330
0
100
AcDbSymbolTable
 70
     0
  0
ENDTAB
  0
TABLE
  2
APPID
  5
9
330
0
100
AcDbSymbolTable
 70
     2
  0
APPID
  5
12
330
9
100
AcDbSymbolTableRecord
100
AcDbRegAppTableRecord
  2
ACAD
 70
     0
  0
ENDTAB
  0
TABLE
  2
DIMSTYLE
  5
A
330
0
100
AcDbSymbolTable
 70
     1
  0
DIMSTYLE
105
27
330
A
100
AcDbSymbolTableRecord
100
AcDbDimStyleTableRecord
  2
ISO-25
 70
     0
  3

  4

  5

  6

  7

 40
1.0
 41
2.5
 42
0.625
 43
3.75
 44
1.25
 45
0.0
 46
0.0
 47
0.0
 48
0.0
140
2.5
141
2.5
142
0.0
143
0.03937007874016
144
1.0
145
0.0
146
1.0
147
0.625
 71
     0
 72
     0
 73
     0
 74
     0
 75
     0
 76
     0
 77
     1
 78
     8
170
     0
171
     3
172
     1
173
     0
174
     0
175
     0
176
     0
177
     0
178
     0
270
     2
271
     2
272
     2
273
     2
274
     3
340
11
275
     0
280
     0
281
     0
282
     0
283
     0
284
     8
285
     0
286
     0
287
     3
288
     0
  0
ENDTAB
  0
TABLE
  2
BLOCK_RECORD
  5
1
330
0
100
AcDbSymbolTable
 70
     1
  0
BLOCK_RECORD
  5
1F
330
1
100
AcDbSymbolTableRecord
100
AcDbBlockTableRecord
  2
*MODEL_SPACE
  0
BLOCK_RECORD
  5
1B
330
1
100
AcDbSymbolTableRecord
100
AcDbBlockTableRecord
  2
*PAPER_SPACE
  0
ENDTAB
  0
ENDSEC
  0
SECTION
  2
BLOCKS
  0
BLOCK
  5
20
330
1F
100
AcDbEntity
  8
0
100
AcDbBlockBegin
  2
*MODEL_SPACE
 70
     0
 10
0.0
 20
0.0
 30
0.0
  3
*MODEL_SPACE
  1

  0
ENDBLK
  5
21
330
1F
100
AcDbEntity
  8
0
100
AcDbBlockEnd
  0
BLOCK
  5
1C
330
1B
100
AcDbEntity
 67
     1
  8
0
100
AcDbBlockBegin
  2
*PAPER_SPACE
  1

  0
ENDBLK
  5
1D
330
1B
100
AcDbEntity
 67
     1
  8
0
100
AcDbBlockEnd
  0
ENDSEC
  0
SECTION
  2
ENTITIES
  0
SPLINE
  5
100
100
AcDbEntity
  8
Battery_holder_3mm_-_cut
 62
7
100
AcDbSpline
 70
8
 71
3
 72
8
 73
4
 74
0
 40
0
 40
0
 40
0
 40
0
 40
1
 40
1
 40
1
 40
1
 10
356.309394
 20
-268.194081
 30
0.0
 10
353.657177
 20
-268.194041
 30
0.0
 10
351.113577
 20
-269.247613
 30
0.0
 10
349.238177
 20
-271.123013
 30
0.0
  0
SPLINE
  5
101
100
AcDbEntity
  8
Battery_holder_3mm_-_cut
 62
7
100
AcDbSpline
 70
8
 71
3
 72
8
 73
4
 74
0
 40
0
 40
0
 40
0
 40
0
 40
1
 40
1
 40
1
 40
1
 10
349.238177
 20
-271.123013
 30
0.0
 10
347.362776
 20
-272.998414
 30
0.0
 10
346.309205
 20
-275.542014
 30
0.0
 10
346.309244
 20
-278.194230
 30
0.0
  0
SPLINE
  5
102
100
AcDbEntity
  8
Battery_holder_3mm_-_cut
 62
7
100
AcDbSpline
 70
8
 71
3
 72
8
 73
4
 74
0
 40
0
 40
0
 40
0
 40
0
 40
1
 40
1
 40
1
 40
1
 10
346.309244
 20
-278.194230
 30
0.0
 10
346.309205
 20
-280.846447
 30
0.0
 10
347.362776
 20
-283.390047
 30
0.0
 10
349.238177
 20
-285.265447
 30
0.0
  0
SPLINE
  5
103
100
AcDbEntity
  8
Battery_holder_3mm_-_cut
 62
7
100
AcDbSpline
 70
8
 71
3
 72
8
 73
4
 74
0
 40
0
 40
0
 40
0
 40
0
 40
1
 40
1
 40
1
 40
1
 10
349.238177
 20
-285.265447
 30
0.0
 10
351.113577
 20
-287.140848
 30
0.0
 10
353.657177
 20
-288.194419
 30
0.0
 10
356.309394
 20
-288.194380
 30
0.0
  0
LINE
  5
104
100
AcDbEntity
  8
Battery_holder_3mm_-_cut
 62
7
100
AcDbLine
 10
356.309394
 20
-288.194380
 30
0.0
 11
367.309456
 21
-288.194380
 31
0.0
  0
LINE
  5
105
100
AcDbEntity
  8
Battery_holder_3mm_-_cut
 62
7
100
AcDbLine
 10
367.309456
 20
-288.194380
 30
0.0
 11
367.309456
 21
-268.194081
 31
0.0
  0
LINE
  5
106
100
AcDbEntity
  8
Battery_holder_3mm_-_cut
 62
7
100
AcDbLine
 10
367.309456
 20
-268.194081
 30
0.0
 11
356.309394
 21
-268.194081
 31
0.0
  0
LINE
  5
107
100
AcDbEntity
  8
Battery_holder_3mm_-_cut
 62
7
100
AcDbLine
 10
356.309394
 20
-268.194081
 30
0.0
 11
356.309394
 21
-268.194081
 31
0.0
  0
SPLINE
  5
108
100
AcDbEntity
  8
Battery_holder_3mm_-_cut
 62
7
100
AcDbSpline
 70
8
 71
3
 72
8
 73
4
 74
0
 40
0
 40
0
 40
0
 40
0
 40
1
 40
1
 40
1
 40
1
 10
364.309745
 20
-269.693923
 30
0.0
 10
364.707612
 20
-269.693965
 30
0.0
 10
365.089164
 20
-269.852074
 30
0.0
 10
365.370446
 20
-270.133462
 30
0.0
  0
SPLINE
  5
109
100
AcDbEntity
  8
Battery_holder_3mm_-_cut
 62
7
100
AcDbSpline
 70
8
 71
3
 72
8
 73
4
 74
0
 40
0
 40
0
 40
0
 40
0
 40
1
 40
1
 40
1
 40
1
 10
365.370446
 20
-270.133462
 30
0.0
 10
365.651728
 20
-270.414850
 30
0.0
 10
365.809694
 20
-270.796461
 30
0.0
 10
365.809586
 20
-271.194329
 30
0.0
  0
SPLINE
  5
10a
100
AcDbEntity
  8
Battery_holder_3mm_-_cut
 62
7
100
AcDbSpline
 70
8
 71
3
 72
8
 73
4
 74
0
 40
0
 40
0
 40
0
 40
0
 40
1
 40
1
 40
1
 40
1
 10
365.809586
 20
-271.194329
 30
0.0
 10
365.809515
 20
-272.022644
 30
0.0
 10
365.138059
 20
-272.694112
 30
0.0
 10
364.309745
 20
-272.694199
 30
0.0
  0
SPLINE
  5
10b
100
AcDbEntity
  8
Battery_holder_3mm_-_cut
 62
7
100
AcDbSpline
 70
8
 71
3
 72
8
 73
4
 74
0
 40
0
 40
0
 40
0
 40
0
 40
1
 40
1
 40
1
 40
1
 10
364.309745
 20
-272.694199
 30
0.0
 10
363.481419
 20
-272.694127
 30
0.0
 10
362.809946
 20
-272.022655
 30
0.0
 10
362.809875
 20
-271.194329
 30
0.0
  0
SPLINE
  5
10c
100
AcDbEntity
  8
Battery_holder_3mm_-_cut
 62
7
100
AcDbSpline
 70
8
 71
3
 72
8
 73
4
 74
0
 40
0
 40
0
 40
0
 40
0
 40
1
 40
1
 40
1
 40
1
 10
362.809875
 20
-271.194329
 30
0.0
 10
362.809767
 20
-270.796456
 30
0.0
 10
362.967737
 20
-270.414841
 30
0.0
 10
363.249025
 20
-270.133452
 30
0.0
  0
SPLINE
  5
10d
100
AcDbEntity
  8
Battery_holder_3mm_-_cut
 62
7
100
AcDbSpline
 70
8
 71
3
 72
8
 73
4
 74
0
 40
0
 40
0
 40
0
 40
0
 40
1
 40
1
 40
1
 40
1
 10
363.249025
 20
-270.133452
 30
0.0
 10
363.530313
 20
-269.852063
 30
0.0
 10
363.911872
 20
-269.693957
 30
0.0
 10
364.309745
 20
-269.693923
 30
0.0
  0
LINE
  5
10e
100
AcDbEntity
  8
Battery_holder_3mm_-_cut
 62
7
100
AcDbLine
 10
364.309745
 20
-269.693923
 30
0.0
 11
364.309745
 21
-269.693923
 31
0.0
  0
SPLINE
  5
10f
100
AcDbEntity
  8
Battery_holder_3mm_-_cut
 62
7
100
AcDbSpline
 70
8
 71
3
 72
8
 73
4
 74
0
 40
0
 40
0
 40
0
 40
0
 40
1
 40
1
 40
1
 40
1
 10
349.309521
 20
-276.694360
 30
0.0
 10
350.137835
 20
-276.694448
 30
0.0
 10
350.809291
 20
-277.365916
 30
0.0
 10
350.809362
 20
-278.194230
 30
0.0
  0
SPLINE
  5
110
100
AcDbEntity
  8
Battery_holder_3mm_-_cut
 62
7
100
AcDbSpline
 70
8
 71
3
 72
8
 73
4
 74
0
 40
0
 40
0
 40
0
 40
0
 40
1
 40
1
 40
1
 40
1
 10
350.809362
 20
-278.194230
 30
0.0
 10
350.809275
 20
-279.022534
 30
0.0
 10
350.137824
 20
-279.693985
 30
0.0
 10
349.309521
 20
-279.694072
 30
0.0
  0
SPLINE
  5
111
100
AcDbEntity
  8
Battery_holder_3mm_-_cut
 62
7
100
AcDbSpline
 70
8
 71
3
 72
8
 73
4
 74
0
 40
0
 40
0
 40
0
 40
0
 40
1
 40
1
 40
1
 40
1
 10
349.309521
 20
-279.694072
 30
0.0
 10
348.481206
 20
-279.694000
 30
0.0
 10
347.809738
 20
-279.022545
 30
0.0
 10
347.809651
 20
-278.194230
 30
0.0
  0
SPLINE
  5
112
100
AcDbEntity
  8
Battery_holder_3mm_-_cut
 62
7
100
AcDbSpline
 70
8
 71
3
 72
8
 73
4
 74
0
 40
0
 40
0
 40
0
 40
0
 40
1
 40
1
 40
1
 40
1
 10
347.809651
 20
-278.194230
 30
0.0
 10
347.809722
 20
-277.365905
 30
0.0
 10
348.481195
 20
-276.694432
 30
0.0
 10
349.309521
 20
-276.694360
 30
0.0
  0
LINE
  5
113
100
AcDbEntity
  8
Battery_holder_3mm_-_cut
 62
7
100
AcDbLine
 10
349.309521
 20
-276.694360
 30
0.0
 11
349.309521
 21
-276.694360
 31
0.0
  0
SPLINE
  5
114
100
AcDbEntity
  8
Battery_holder_3mm_-_cut
 62
7
100
AcDbSpline
 70
8
 71
3
 72
8
 73
4
 74
0
 40
0
 40
0
 40
0
 40
0
 40
1
 40
1
 40
1
 40
1
 10
358.309757
 20
-276.694360
 30
0.0
 10
359.138071
 20
-276.694448
 30
0.0
 10
359.809527
 20
-277.365916
 30
0.0
 10
359.809598
 20
-278.194230
 30
0.0
  0
SPLINE
  5
115
100
AcDbEntity
  8
Battery_holder_3mm_-_cut
 62
7
100
AcDbSpline
 70
8
 71
3
 72
8
 73
4
 74
0
 40
0
 40
0
 40
0
 40
0
 40
1
 40
1
 40
1
 40
1
 10
359.809598
 20
-278.194230
 30
0.0
 10
359.809511
 20
-279.022534
 30
0.0
 10
359.138060
 20
-279.693985
 30
0.0
 10
358.309757
 20
-279.694072
 30
0.0
  0
SPLINE
  5
116
100
AcDbEntity
  8
Battery_holder_3mm_-_cut
 62
7
100
AcDbSpline
 70
8
 71
3
 72
8
 73
4
 74
0
 40
0
 40
0
 40
0
 40
0
 40
1
 40
1
 40
1
 40
1
 10
358.309757
 20
-279.694072
 30
0.0
 10
357.911889
 20
-279.694180
 30
0.0
 10
357.530278
 20
-279.536214
 30
0.0
 10
357.248890
 20
-279.254932
 30
0.0
  0
SPLINE
  5
117
100
AcDbEntity
  8
Battery_holder_3mm_-_cut
 62
7
100
AcDbSpline
 70
8
 71
3
 72
8
 73
4
 74
0
 40
0
 40
0
 40
0
 40
0
 40
1
 40
1
 40
1
 40
1
 10
357.248890
 20
-279.254932
 30
0.0
 10
356.967502
 20
-278.973650
 30
0.0
 10
356.809392
 20
-278.592098
 30
0.0
 10
356.809350
 20
-278.194230
 30
0.0
  0
SPLINE
  5
118
100
AcDbEntity
  8
Battery_holder_3mm_-_cut
 62
7
100
AcDbSpline
 70
8
 71
3
 72
8
 73
4
 74
0
 40
0
 40
0
 40
0
 40
0
 40
1
 40
1
 40
1
 40
1
 10
356.809350
 20
-278.194230
 30
0.0
 10
356.809385
 20
-277.796358
 30
0.0
 10
356.967491
 20
-277.414799
 30
0.0
 10
357.248880
 20
-277.133510
 30
0.0
  0
SPLINE
  5
119
100
AcDbEntity
  8
Battery_holder_3mm_-_cut
 62
7
100
AcDbSpline
 70
8
 71
3
 72
8
 73
4
 74
0
 40
0
 40
0
 40
0
 40
0
 40
1
 40
1
 40
1
 40
1
 10
357.248880
 20
-277.133510
 30
0.0
 10
357.530269
 20
-276.852222
 30
0.0
 10
357.911884
 20
-276.694253
 30
0.0
 10
358.309757
 20
-276.694360
 30
0.0
  0
LINE
  5
11a
100
AcDbEntity
  8
Battery_holder_3mm_-_cut
 62
7
100
AcDbLine
 10
358.309757
 20
-276.694360
 30
0.0
 11
358.309757
 21
-276.694360
 31
0.0
  0
SPLINE
  5
11b
100
AcDbEntity
  8
Battery_holder_3mm_-_cut
 62
7
100
AcDbSpline
 70
8
 71
3
 72
8
 73
4
 74
0
 40
0
 40
0
 40
0
 40
0
 40
1
 40
1
 40
1
 40
1
 10
364.309745
 20
-283.694233
 30
0.0
 10
365.138059
 20
-283.694321
 30
0.0
 10
365.809515
 20
-284.365789
 30
0.0
 10
365.809586
 20
-285.194103
 30
0.0
  0
SPLINE
  5
11c
100
AcDbEntity
  8
Battery_holder_3mm_-_cut
 62
7
100
AcDbSpline
 70
8
 71
3
 72
8
 73
4
 74
0
 40
0
 40
0
 40
0
 40
0
 40
1
 40
1
 40
1
 40
1
 10
365.809586
 20
-285.194103
 30
0.0
 10
365.809515
 20
-286.022418
 30
0.0
 10
365.138059
 20
-286.693886
 30
0.0
 10
364.309745
 20
-286.693973
 30
0.0
  0
SPLINE
  5
11d
100
AcDbEntity
  8
Battery_holder_3mm_-_cut
 62
7
100
AcDbSpline
 70
8
 71
3
 72
8
 73
4
 74
0
 40
0
 40
0
 40
0
 40
0
 40
1
 40
1
 40
1
 40
1
 10
364.309745
 20
-286.693973
 30
0.0
 10
363.481419
 20
-286.693902
 30
0.0
 10
362.809946
 20
-286.022429
 30
0.0
 10
362.809875
 20
-285.194103
 30
0.0
  0
SPLINE
  5
11e
100
AcDbEntity
  8
Battery_holder_3mm_-_cut
 62
7
100
AcDbSpline
 70
8
 71
3
 72
8
 73
4
 74
0
 40
0
 40
0
 40
0
 40
0
 40
1
 40
1
 40
1
 40
1
 10
362.809875
 20
-285.194103
 30
0.0
 10
362.809946
 20
-284.365778
 30
0.0
 10
363.481419
 20
-283.694305
 30
0.0
 10
364.309745
 20
-283.694233
 30
0.0
  0
LINE
  5
11f
100
AcDbEntity
  8
Battery_holder_3mm_-_cut
 62
7
100
AcDbLine
 10
364.309745
 20
-283.694233
 30
0.0
 11
364.309745
 21
-283.694233
 31
0.0
  0
SPLINE
  5
120
100
AcDbEntity
  8
Battery_holder_3mm_-_cut
 62
7
100
AcDbSpline
 70
8
 71
3
 72
8
 73
4
 74
0
 40
0
 40
0
 40
0
 40
0
 40
1
 40
1
 40
1
 40
1
 10
310.309373
 20
-268.194081
 30
0.0
 10
307.657156
 20
-268.194041
 30
0.0
 10
305.113556
 20
-269.247613
 30
0.0
 10
303.238156
 20
-271.123013
 30
0.0
  0
SPLINE
  5
121
100
AcDbEntity
  8
Battery_holder_3mm_-_cut
 62
7
100
AcDbSpline
 70
8
 71
3
 72
8
 73
4
 74
0
 40
0
 40
0
 40
0
 40
0
 40
1
 40
1
 40
1
 40
1
 10
303.238156
 20
-271.123013
 30
0.0
 10
301.362755
 20
-272.998414
 30
0.0
 10
300.309184
 20
-275.542014
 30
0.0
 10
300.309224
 20
-278.194230
 30
0.0
  0
SPLINE
  5
122
100
AcDbEntity
  8
Battery_holder_3mm_-_cut
 62
7
100
AcDbSpline
 70
8
 71
3
 72
8
 73
4
 74
0
 40
0
 40
0
 40
0
 40
0
 40
1
 40
1
 40
1
 40
1
 10
300.309224
 20
-278.194230
 30
0.0
 10
300.309184
 20
-280.846447
 30
0.0
 10
301.362755
 20
-283.390047
 30
0.0
 10
303.238156
 20
-285.265447
 30
0.0
  0
SPLINE
  5
123
100
AcDbEntity
  8
Battery_holder_3mm_-_cut
 62
7
100
AcDbSpline
 70
8
 71
3
 72
8
 73
4
 74
0
 40
0
 40
0
 40
0
 40
0
 40
1
 40
1
 40
1
 40
1
 10
303.238156
 20
-285.265447
 30
0.0
 10
305.113556
 20
-287.140848
 30
0.0
 10
307.657156
 20
-288.194419
 30
0.0
 10
310.309373
 20
-288.194380
 30
0.0
  0
LINE
  5
124
100
AcDbEntity
  8
Battery_holder_3mm_-_cut
 62
7
100
AcDbLine
 10
310.309373
 20
-288.194380
 30
0.0
 11
321.309436
 21
-288.194380
 31
0.0
  0
LINE
  5
125
100
AcDbEntity
  8
Battery_holder_3mm_-_cut
 62
7
100
AcDbLine
 10
321.309436
 20
-288.194380
 30
0.0
 11
321.309436
 21
-268.194081
 31
0.0
  0
LINE
  5
126
100
AcDbEntity
  8
Battery_holder_3mm_-_cut
 62
7
100
AcDbLine
 10
321.309436
 20
-268.194081
 30
0.0
 11
310.309373
 21
-268.194081
 31
0.0
  0
LINE
  5
127
100
AcDbEntity
  8
Battery_holder_3mm_-_cut
 62
7
100
AcDbLine
 10
310.309373
 20
-268.194081
 30
0.0
 11
310.309373
 21
-268.194081
 31
0.0
  0
SPLINE
  5
128
100
AcDbEntity
  8
Battery_holder_3mm_-_cut
 62
7
100
AcDbSpline
 70
8
 71
3
 72
8
 73
4
 74
0
 40
0
 40
0
 40
0
 40
0
 40
1
 40
1
 40
1
 40
1
 10
318.309724
 20
-269.693923
 30
0.0
 10
318.707591
 20
-269.693965
 30
0.0
 10
319.089143
 20
-269.852074
 30
0.0
 10
319.370425
 20
-270.133462
 30
0.0
  0
SPLINE
  5
129
100
AcDbEntity
  8
Battery_holder_3mm_-_cut
 62
7
100
AcDbSpline
 70
8
 71
3
 72
8
 73
4
 74
0
 40
0
 40
0
 40
0
 40
0
 40
1
 40
1
 40
1
 40
1
 10
319.370425
 20
-270.133462
 30
0.0
 10
319.651707
 20
-270.414850
 30
0.0
 10
319.809673
 20
-270.796461
 30
0.0
 10
319.809566
 20
-271.194329
 30
0.0
  0
SPLINE
  5
12a
100
AcDbEntity
  8
Battery_holder_3mm_-_cut
 62
7
100
AcDbSpline
 70
8
 71
3
 72
8
 73
4
 74
0
 40
0
 40
0
 40
0
 40
0
 40
1
 40
1
 40
1
 40
1
 10
319.809566
 20
-271.194329
 30
0.0
 10
319.809494
 20
-272.022644
 30
0.0
 10
319.138038
 20
-272.694112
 30
0.0
 10
318.309724
 20
-272.694199
 30
0.0
  0
SPLINE
  5
12b
100
AcDbEntity
  8
Battery_holder_3mm_-_cut
 62
7
100
AcDbSpline
 70
8
 71
3
 72
8
 73
4
 74
0
 40
0
 40
0
 40
0
 40
0
 40
1
 40
1
 40
1
 40
1
 10
318.309724
 20
-272.694199
 30
0.0
 10
317.481398
 20
-272.694127
 30
0.0
 10
316.809926
 20
-272.022655
 30
0.0
 10
316.809854
 20
-271.194329
 30
0.0
  0
SPLINE
  5
12c
100
AcDbEntity
  8
Battery_holder_3mm_-_cut
 62
7
100
AcDbSpline
 70
8
 71
3
 72
8
 73
4
 74
0
 40
0
 40
0
 40
0
 40
0
 40
1
 40
1
 40
1
 40
1
 10
316.809854
 20
-271.194329
 30
0.0
 10
316.809746
 20
-270.796456
 30
0.0
 10
316.967716
 20
-270.414841
 30
0.0
 10
317.249004
 20
-270.133452
 30
0.0
  0
SPLINE
  5
12d
100
AcDbEntity
  8
Battery_holder_3mm_-_cut
 62
7
100
AcDbSpline
 70
8
 71
3
 72
8
 73
4
 74
0
 40
0
 40
0
 40
0
 40
0
 40
1
 40
1
 40
1
 40
1
 10
317.249004
 20
-270.133452
 30
0.0
 10
317.530292
 20
-269.852063
 30
0.0
 10
317.911851
 20
-269.693957
 30
0.0
 10
318.309724
 20
-269.693923
 30
0.0
  0
LINE
  5
12e
100
AcDbEntity
  8
Battery_holder_3mm_-_cut
 62
7
100
AcDbLine
 10
318.309724
 20
-269.693923
 30
0.0
 11
318.309724
 21
-269.693923
 31
0.0
  0
LINE
  5
12f
100
AcDbEntity
  8
Battery_holder_3mm_-_cut
 62
7
100
AcDbLine
 10
314.041649
 20
-275.193954
 30
0.0
 11
315.773562
 21
-278.194230
 31
0.0
  0
LINE
  5
130
100
AcDbEntity
  8
Battery_holder_3mm_-_cut
 62
7
100
AcDbLine
 10
315.773562
 20
-278.194230
 30
0.0
 11
314.041649
 21
-281.193942
 31
0.0
  0
LINE
  5
131
100
AcDbEntity
  8
Battery_holder_3mm_-_cut
 62
7
100
AcDbLine
 10
314.041649
 20
-281.193942
 30
0.0
 11
310.577823
 21
-281.193942
 31
0.0
  0
LINE
  5
132
100
AcDbEntity
  8
Battery_holder_3mm_-_cut
 62
7
100
AcDbLine
 10
310.577823
 20
-281.193942
 30
0.0
 11
308.845345
 21
-278.194230
 31
0.0
  0
LINE
  5
133
100
AcDbEntity
  8
Battery_holder_3mm_-_cut
 62
7
100
AcDbLine
 10
308.845345
 20
-278.194230
 30
0.0
 11
310.577823
 21
-275.194518
 31
0.0
  0
LINE
  5
134
100
AcDbEntity
  8
Battery_holder_3mm_-_cut
 62
7
100
AcDbLine
 10
310.577823
 20
-275.194518
 30
0.0
 11
314.041649
 21
-275.194518
 31
0.0
  0
LINE
  5
135
100
AcDbEntity
  8
Battery_holder_3mm_-_cut
 62
7
100
AcDbLine
 10
314.041649
 20
-275.194518
 30
0.0
 11
314.041649
 21
-275.193954
 31
0.0
  0
SPLINE
  5
136
100
AcDbEntity
  8
Battery_holder_3mm_-_cut
 62
7
100
AcDbSpline
 70
8
 71
3
 72
8
 73
4
 74
0
 40
0
 40
0
 40
0
 40
0
 40
1
 40
1
 40
1
 40
1
 10
303.309500
 20
-276.694360
 30
0.0
 10
304.137814
 20
-276.694448
 30
0.0
 10
304.809270
 20
-277.365916
 30
0.0
 10
304.809342
 20
-278.194230
 30
0.0
  0
SPLINE
  5
137
100
AcDbEntity
  8
Battery_holder_3mm_-_cut
 62
7
100
AcDbSpline
 70
8
 71
3
 72
8
 73
4
 74
0
 40
0
 40
0
 40
0
 40
0
 40
1
 40
1
 40
1
 40
1
 10
304.809342
 20
-278.194230
 30
0.0
 10
304.809254
 20
-279.022534
 30
0.0
 10
304.137803
 20
-279.693985
 30
0.0
 10
303.309500
 20
-279.694072
 30
0.0
  0
SPLINE
  5
138
100
AcDbEntity
  8
Battery_holder_3mm_-_cut
 62
7
100
AcDbSpline
 70
8
 71
3
 72
8
 73
4
 74
0
 40
0
 40
0
 40
0
 40
0
 40
1
 40
1
 40
1
 40
1
 10
303.309500
 20
-279.694072
 30
0.0
 10
302.481185
 20
-279.694000
 30
0.0
 10
301.809717
 20
-279.022545
 30
0.0
 10
301.809630
 20
-278.194230
 30
0.0
  0
SPLINE
  5
139
100
AcDbEntity
  8
Battery_holder_3mm_-_cut
 62
7
100
AcDbSpline
 70
8
 71
3
 72
8
 73
4
 74
0
 40
0
 40
0
 40
0
 40
0
 40
1
 40
1
 40
1
 40
1
 10
301.809630
 20
-278.194230
 30
0.0
 10
301.809702
 20
-277.365905
 30
0.0
 10
302.481174
 20
-276.694432
 30
0.0
 10
303.309500
 20
-276.694360
 30
0.0
  0
LINE
  5
13a
100
AcDbEntity
  8
Battery_holder_3mm_-_cut
 62
7
100
AcDbLine
 10
303.309500
 20
-276.694360
 30
0.0
 11
303.309500
 21
-276.694360
 31
0.0
  0
SPLINE
  5
13b
100
AcDbEntity
  8
Battery_holder_3mm_-_cut
 62
7
100
AcDbSpline
 70
8
 71
3
 72
8
 73
4
 74
0
 40
0
 40
0
 40
0
 40
0
 40
1
 40
1
 40
1
 40
1
 10
318.309724
 20
-283.694233
 30
0.0
 10
319.138038
 20
-283.694321
 30
0.0
 10
319.809494
 20
-284.365789
 30
0.0
 10
319.809566
 20
-285.194103
 30
0.0
  0
SPLINE
  5
13c
100
AcDbEntity
  8
Battery_holder_3mm_-_cut
 62
7
100
AcDbSpline
 70
8
 71
3
 72
8
 73
4
 74
0
 40
0
 40
0
 40
0
 40
0
 40
1
 40
1
 40
1
 40
1
 10
319.809566
 20
-285.194103
 30
0.0
 10
319.809494
 20
-286.022418
 30
0.0
 10
319.138038
 20
-286.693886
 30
0.0
 10
318.309724
 20
-286.693973
 30
0.0
  0
SPLINE
  5
13d
100
AcDbEntity
  8
Battery_holder_3mm_-_cut
 62
7
100
AcDbSpline
 70
8
 71
3
 72
8
 73
4
 74
0
 40
0
 40
0
 40
0
 40
0
 40
1
 40
1
 40
1
 40
1
 10
318.309724
 20
-286.693973
 30
0.0
 10
317.481398
 20
-286.693902
 30
0.0
 10
316.809926
 20
-286.022429
 30
0.0
 10
316.809854
 20
-285.194103
 30
0.0
  0
SPLINE
  5
13e
100
AcDbEntity
  8
Battery_holder_3mm_-_cut
 62
7
100
AcDbSpline
 70
8
 71
3
 72
8
 73
4
 74
0
 40
0
 40
0
 40
0
 40
0
 40
1
 40
1
 40
1
 40
1
 10
316.809854
 20
-285.194103
 30
0.0
 10
316.809926
 20
-284.365778
 30
0.0
 10
317.481398
 20
-283.694305
 30
0.0
 10
318.309724
 20
-283.694233
 30
0.0
  0
LINE
  5
13f
100
AcDbEntity
  8
Battery_holder_3mm_-_cut
 62
7
100
AcDbLine
 10
318.309724
 20
-283.694233
 30
0.0
 11
318.309724
 21
-283.694233
 31
0.0
  0
SPLINE
  5
140
100
AcDbEntity
  8
Battery_holder_3mm_-_cut
 62
7
100
AcDbSpline
 70
8
 71
3
 72
8
 73
4
 74
0
 40
0
 40
0
 40
0
 40
0
 40
1
 40
1
 40
1
 40
1
 10
287.309391
 20
-290.194376
 30
0.0
 10
284.657173
 20
-290.194334
 30
0.0
 10
282.113570
 20
-291.247904
 30
0.0
 10
280.238168
 20
-293.123305
 30
0.0
  0
SPLINE
  5
141
100
AcDbEntity
  8
Battery_holder_3mm_-_cut
 62
7
100
AcDbSpline
 70
8
 71
3
 72
8
 73
4
 74
0
 40
0
 40
0
 40
0
 40
0
 40
1
 40
1
 40
1
 40
1
 10
280.238168
 20
-293.123305
 30
0.0
 10
278.362766
 20
-294.998705
 30
0.0
 10
277.309193
 20
-297.542307
 30
0.0
 10
277.309233
 20
-300.194525
 30
0.0
  0
SPLINE
  5
142
100
AcDbEntity
  8
Battery_holder_3mm_-_cut
 62
7
100
AcDbSpline
 70
8
 71
3
 72
8
 73
4
 74
0
 40
0
 40
0
 40
0
 40
0
 40
1
 40
1
 40
1
 40
1
 10
277.309233
 20
-300.194525
 30
0.0
 10
277.309193
 20
-302.846743
 30
0.0
 10
278.362766
 20
-305.390344
 30
0.0
 10
280.238168
 20
-307.265745
 30
0.0
  0
SPLINE
  5
143
100
AcDbEntity
  8
Battery_holder_3mm_-_cut
 62
7
100
AcDbSpline
 70
8
 71
3
 72
8
 73
4
 74
0
 40
0
 40
0
 40
0
 40
0
 40
1
 40
1
 40
1
 40
1
 10
280.238168
 20
-307.265745
 30
0.0
 10
282.113570
 20
-309.141146
 30
0.0
 10
284.657173
 20
-310.194716
 30
0.0
 10
287.309391
 20
-310.194674
 30
0.0
  0
SPLINE
  5
144
100
AcDbEntity
  8
Battery_holder_3mm_-_cut
 62
7
100
AcDbSpline
 70
8
 71
3
 72
8
 73
4
 74
0
 40
0
 40
0
 40
0
 40
0
 40
1
 40
1
 40
1
 40
1
 10
287.309391
 20
-310.194674
 30
0.0
 10
287.309391
 20
-310.194674
 30
0.0
 10
387.309219
 20
-310.194674
 30
0.0
 10
387.309219
 20
-310.194674
 30
0.0
  0
SPLINE
  5
145
100
AcDbEntity
  8
Battery_holder_3mm_-_cut
 62
7
100
AcDbSpline
 70
8
 71
3
 72
8
 73
4
 74
0
 40
0
 40
0
 40
0
 40
0
 40
1
 40
1
 40
1
 40
1
 10
387.309219
 20
-310.194674
 30
0.0
 10
389.961436
 20
-310.194714
 30
0.0
 10
392.505036
 20
-309.141142
 30
0.0
 10
394.380436
 20
-307.265742
 30
0.0
  0
SPLINE
  5
146
100
AcDbEntity
  8
Battery_holder_3mm_-_cut
 62
7
100
AcDbSpline
 70
8
 71
3
 72
8
 73
4
 74
0
 40
0
 40
0
 40
0
 40
0
 40
1
 40
1
 40
1
 40
1
 10
394.380436
 20
-307.265742
 30
0.0
 10
396.255836
 20
-305.390342
 30
0.0
 10
397.309408
 20
-302.846742
 30
0.0
 10
397.309368
 20
-300.194525
 30
0.0
  0
SPLINE
  5
147
100
AcDbEntity
  8
Battery_holder_3mm_-_cut
 62
7
100
AcDbSpline
 70
8
 71
3
 72
8
 73
4
 74
0
 40
0
 40
0
 40
0
 40
0
 40
1
 40
1
 40
1
 40
1
 10
397.309368
 20
-300.194525
 30
0.0
 10
397.309408
 20
-297.542308
 30
0.0
 10
396.255836
 20
-294.998708
 30
0.0
 10
394.380436
 20
-293.123308
 30
0.0
  0
SPLINE
  5
148
100
AcDbEntity
  8
Battery_holder_3mm_-_cut
 62
7
100
AcDbSpline
 70
8
 71
3
 72
8
 73
4
 74
0
 40
0
 40
0
 40
0
 40
0
 40
1
 40
1
 40
1
 40
1
 10
394.380436
 20
-293.123308
 30
0.0
 10
392.505036
 20
-291.247907
 30
0.0
 10
389.961436
 20
-290.194336
 30
0.0
 10
387.309219
 20
-290.194376
 30
0.0
  0
LINE
  5
149
100
AcDbEntity
  8
Battery_holder_3mm_-_cut
 62
7
100
AcDbLine
 10
387.309219
 20
-290.194376
 30
0.0
 11
287.309391
 21
-290.194376
 31
0.0
  0
LINE
  5
14a
100
AcDbEntity
  8
Battery_holder_3mm_-_cut
 62
7
100
AcDbLine
 10
287.309391
 20
-290.194376
 30
0.0
 11
287.309391
 21
-290.194376
 31
0.0
  0
SPLINE
  5
14b
100
AcDbEntity
  8
Battery_holder_3mm_-_cut
 62
7
100
AcDbSpline
 70
8
 71
3
 72
8
 73
4
 74
0
 40
0
 40
0
 40
0
 40
0
 40
1
 40
1
 40
1
 40
1
 10
287.309391
 20
-298.694119
 30
0.0
 10
287.707263
 20
-298.694153
 30
0.0
 10
288.088822
 20
-298.852259
 30
0.0
 10
288.370110
 20
-299.133648
 30
0.0
  0
SPLINE
  5
14c
100
AcDbEntity
  8
Battery_holder_3mm_-_cut
 62
7
100
AcDbSpline
 70
8
 71
3
 72
8
 73
4
 74
0
 40
0
 40
0
 40
0
 40
0
 40
1
 40
1
 40
1
 40
1
 10
288.370110
 20
-299.133648
 30
0.0
 10
288.651399
 20
-299.415037
 30
0.0
 10
288.809368
 20
-299.796652
 30
0.0
 10
288.809261
 20
-300.194525
 30
0.0
  0
SPLINE
  5
14d
100
AcDbEntity
  8
Battery_holder_3mm_-_cut
 62
7
100
AcDbSpline
 70
8
 71
3
 72
8
 73
4
 74
0
 40
0
 40
0
 40
0
 40
0
 40
1
 40
1
 40
1
 40
1
 10
288.809261
 20
-300.194525
 30
0.0
 10
288.809189
 20
-301.022851
 30
0.0
 10
288.137716
 20
-301.694323
 30
0.0
 10
287.309391
 20
-301.694395
 30
0.0
  0
SPLINE
  5
14e
100
AcDbEntity
  8
Battery_holder_3mm_-_cut
 62
7
100
AcDbSpline
 70
8
 71
3
 72
8
 73
4
 74
0
 40
0
 40
0
 40
0
 40
0
 40
1
 40
1
 40
1
 40
1
 10
287.309391
 20
-301.694395
 30
0.0
 10
286.911518
 20
-301.694503
 30
0.0
 10
286.529903
 20
-301.536533
 30
0.0
 10
286.248514
 20
-301.255245
 30
0.0
  0
SPLINE
  5
14f
100
AcDbEntity
  8
Battery_holder_3mm_-_cut
 62
7
100
AcDbSpline
 70
8
 71
3
 72
8
 73
4
 74
0
 40
0
 40
0
 40
0
 40
0
 40
1
 40
1
 40
1
 40
1
 10
286.248514
 20
-301.255245
 30
0.0
 10
285.967125
 20
-300.973957
 30
0.0
 10
285.809019
 20
-300.592398
 30
0.0
 10
285.808984
 20
-300.194525
 30
0.0
  0
SPLINE
  5
150
100
AcDbEntity
  8
Battery_holder_3mm_-_cut
 62
7
100
AcDbSpline
 70
8
 71
3
 72
8
 73
4
 74
0
 40
0
 40
0
 40
0
 40
0
 40
1
 40
1
 40
1
 40
1
 10
285.808984
 20
-300.194525
 30
0.0
 10
285.808877
 20
-299.796559
 30
0.0
 10
285.966920
 20
-299.414863
 30
0.0
 10
286.248324
 20
-299.133458
 30
0.0
  0
SPLINE
  5
151
100
AcDbEntity
  8
Battery_holder_3mm_-_cut
 62
7
100
AcDbSpline
 70
8
 71
3
 72
8
 73
4
 74
0
 40
0
 40
0
 40
0
 40
0
 40
1
 40
1
 40
1
 40
1
 10
286.248324
 20
-299.133458
 30
0.0
 10
286.529728
 20
-298.852054
 30
0.0
 10
286.911425
 20
-298.694011
 30
0.0
 10
287.309391
 20
-298.694119
 30
0.0
  0
LINE
  5
152
100
AcDbEntity
  8
Battery_holder_3mm_-_cut
 62
7
100
AcDbLine
 10
287.309391
 20
-298.694119
 30
0.0
 11
287.309391
 21
-298.694119
 31
0.0
  0
SPLINE
  5
153
100
AcDbEntity
  8
Battery_holder_3mm_-_cut
 62
7
100
AcDbSpline
 70
8
 71
3
 72
8
 73
4
 74
0
 40
0
 40
0
 40
0
 40
0
 40
1
 40
1
 40
1
 40
1
 10
387.309219
 20
-298.694119
 30
0.0
 10
387.707091
 20
-298.694153
 30
0.0
 10
388.088651
 20
-298.852259
 30
0.0
 10
388.369939
 20
-299.133648
 30
0.0
  0
SPLINE
  5
154
100
AcDbEntity
  8
Battery_holder_3mm_-_cut
 62
7
100
AcDbSpline
 70
8
 71
3
 72
8
 73
4
 74
0
 40
0
 40
0
 40
0
 40
0
 40
1
 40
1
 40
1
 40
1
 10
388.369939
 20
-299.133648
 30
0.0
 10
388.651227
 20
-299.415037
 30
0.0
 10
388.809197
 20
-299.796652
 30
0.0
 10
388.809089
 20
-300.194525
 30
0.0
  0
SPLINE
  5
155
100
AcDbEntity
  8
Battery_holder_3mm_-_cut
 62
7
100
AcDbSpline
 70
8
 71
3
 72
8
 73
4
 74
0
 40
0
 40
0
 40
0
 40
0
 40
1
 40
1
 40
1
 40
1
 10
388.809089
 20
-300.194525
 30
0.0
 10
388.809017
 20
-301.022851
 30
0.0
 10
388.137544
 20
-301.694323
 30
0.0
 10
387.309219
 20
-301.694395
 30
0.0
  0
SPLINE
  5
156
100
AcDbEntity
  8
Battery_holder_3mm_-_cut
 62
7
100
AcDbSpline
 70
8
 71
3
 72
8
 73
4
 74
0
 40
0
 40
0
 40
0
 40
0
 40
1
 40
1
 40
1
 40
1
 10
387.309219
 20
-301.694395
 30
0.0
 10
386.480893
 20
-301.694323
 30
0.0
 10
385.809421
 20
-301.022851
 30
0.0
 10
385.809349
 20
-300.194525
 30
0.0
  0
SPLINE
  5
157
100
AcDbEntity
  8
Battery_holder_3mm_-_cut
 62
7
100
AcDbSpline
 70
8
 71
3
 72
8
 73
4
 74
0
 40
0
 40
0
 40
0
 40
0
 40
1
 40
1
 40
1
 40
1
 10
385.809349
 20
-300.194525
 30
0.0
 10
385.809241
 20
-299.796652
 30
0.0
 10
385.967211
 20
-299.415037
 30
0.0
 10
386.248499
 20
-299.133648
 30
0.0
  0
SPLINE
  5
158
100
AcDbEntity
  8
Battery_holder_3mm_-_cut
 62
7
100
AcDbSpline
 70
8
 71
3
 72
8
 73
4
 74
0
 40
0
 40
0
 40
0
 40
0
 40
1
 40
1
 40
1
 40
1
 10
386.248499
 20
-299.133648
 30
0.0
 10
386.529787
 20
-298.852259
 30
0.0
 10
386.911346
 20
-298.694153
 30
0.0
 10
387.309219
 20
-298.694119
 30
0.0
  0
LINE
  5
159
100
AcDbEntity
  8
Battery_holder_3mm_-_cut
 62
7
100
AcDbLine
 10
387.309219
 20
-298.694119
 30
0.0
 11
387.309219
 21
-298.694119
 31
0.0
  0
SPLINE
  5
15a
100
AcDbEntity
  8
Battery_holder_3mm_-_cut
 62
7
100
AcDbSpline
 70
8
 71
3
 72
8
 73
4
 74
0
 40
0
 40
0
 40
0
 40
0
 40
1
 40
1
 40
1
 40
1
 10
288.309304
 20
-268.194081
 30
0.0
 10
290.961521
 20
-268.194041
 30
0.0
 10
293.505121
 20
-269.247613
 30
0.0
 10
295.380521
 20
-271.123013
 30
0.0
  0
SPLINE
  5
15b
100
AcDbEntity
  8
Battery_holder_3mm_-_cut
 62
7
100
AcDbSpline
 70
8
 71
3
 72
8
 73
4
 74
0
 40
0
 40
0
 40
0
 40
0
 40
1
 40
1
 40
1
 40
1
 10
295.380521
 20
-271.123013
 30
0.0
 10
297.255922
 20
-272.998414
 30
0.0
 10
298.309493
 20
-275.542014
 30
0.0
 10
298.309453
 20
-278.194230
 30
0.0
  0
SPLINE
  5
15c
100
AcDbEntity
  8
Battery_holder_3mm_-_cut
 62
7
100
AcDbSpline
 70
8
 71
3
 72
8
 73
4
 74
0
 40
0
 40
0
 40
0
 40
0
 40
1
 40
1
 40
1
 40
1
 10
298.309453
 20
-278.194230
 30
0.0
 10
298.309493
 20
-280.846447
 30
0.0
 10
297.255922
 20
-283.390047
 30
0.0
 10
295.380521
 20
-285.265447
 30
0.0
  0
SPLINE
  5
15d
100
AcDbEntity
  8
Battery_holder_3mm_-_cut
 62
7
100
AcDbSpline
 70
8
 71
3
 72
8
 73
4
 74
0
 40
0
 40
0
 40
0
 40
0
 40
1
 40
1
 40
1
 40
1
 10
295.380521
 20
-285.265447
 30
0.0
 10
293.505121
 20
-287.140848
 30
0.0
 10
290.961521
 20
-288.194419
 30
0.0
 10
288.309304
 20
-288.194380
 30
0.0
  0
LINE
  5
15e
100
AcDbEntity
  8
Battery_holder_3mm_-_cut
 62
7
100
AcDbLine
 10
288.309304
 20
-288.194380
 30
0.0
 11
277.309233
 21
-288.194380
 31
0.0
  0
LINE
  5
15f
100
AcDbEntity
  8
Battery_holder_3mm_-_cut
 62
7
100
AcDbLine
 10
277.309233
 20
-288.194380
 30
0.0
 11
277.309233
 21
-268.194081
 31
0.0
  0
LINE
  5
160
100
AcDbEntity
  8
Battery_holder_3mm_-_cut
 62
7
100
AcDbLine
 10
277.309233
 20
-268.194081
 30
0.0
 11
288.309304
 21
-268.194081
 31
0.0
  0
LINE
  5
161
100
AcDbEntity
  8
Battery_holder_3mm_-_cut
 62
7
100
AcDbLine
 10
288.309304
 20
-268.194081
 30
0.0
 11
288.309304
 21
-268.194081
 31
0.0
  0
SPLINE
  5
162
100
AcDbEntity
  8
Battery_holder_3mm_-_cut
 62
7
100
AcDbSpline
 70
8
 71
3
 72
8
 73
4
 74
0
 40
0
 40
0
 40
0
 40
0
 40
1
 40
1
 40
1
 40
1
 10
280.308973
 20
-269.693923
 30
0.0
 10
279.911100
 20
-269.693957
 30
0.0
 10
279.529541
 20
-269.852063
 30
0.0
 10
279.248253
 20
-270.133452
 30
0.0
  0
SPLINE
  5
163
100
AcDbEntity
  8
Battery_holder_3mm_-_cut
 62
7
100
AcDbSpline
 70
8
 71
3
 72
8
 73
4
 74
0
 40
0
 40
0
 40
0
 40
0
 40
1
 40
1
 40
1
 40
1
 10
279.248253
 20
-270.133452
 30
0.0
 10
278.966965
 20
-270.414841
 30
0.0
 10
278.808995
 20
-270.796456
 30
0.0
 10
278.809103
 20
-271.194329
 30
0.0
  0
SPLINE
  5
164
100
AcDbEntity
  8
Battery_holder_3mm_-_cut
 62
7
100
AcDbSpline
 70
8
 71
3
 72
8
 73
4
 74
0
 40
0
 40
0
 40
0
 40
0
 40
1
 40
1
 40
1
 40
1
 10
278.809103
 20
-271.194329
 30
0.0
 10
278.809175
 20
-272.022655
 30
0.0
 10
279.480647
 20
-272.694127
 30
0.0
 10
280.308973
 20
-272.694199
 30
0.0
  0
SPLINE
  5
165
100
AcDbEntity
  8
Battery_holder_3mm_-_cut
 62
7
100
AcDbSpline
 70
8
 71
3
 72
8
 73
4
 74
0
 40
0
 40
0
 40
0
 40
0
 40
1
 40
1
 40
1
 40
1
 10
280.308973
 20
-272.694199
 30
0.0
 10
281.137287
 20
-272.694112
 30
0.0
 10
281.808743
 20
-272.022644
 30
0.0
 10
281.808815
 20
-271.194329
 30
0.0
  0
SPLINE
  5
166
100
AcDbEntity
  8
Battery_holder_3mm_-_cut
 62
7
100
AcDbSpline
 70
8
 71
3
 72
8
 73
4
 74
0
 40
0
 40
0
 40
0
 40
0
 40
1
 40
1
 40
1
 40
1
 10
281.808815
 20
-271.194329
 30
0.0
 10
281.808922
 20
-270.796461
 30
0.0
 10
281.650956
 20
-270.414850
 30
0.0
 10
281.369674
 20
-270.133462
 30
0.0
  0
SPLINE
  5
167
100
AcDbEntity
  8
Battery_holder_3mm_-_cut
 62
7
100
AcDbSpline
 70
8
 71
3
 72
8
 73
4
 74
0
 40
0
 40
0
 40
0
 40
0
 40
1
 40
1
 40
1
 40
1
 10
281.369674
 20
-270.133462
 30
0.0
 10
281.088392
 20
-269.852074
 30
0.0
 10
280.706841
 20
-269.693965
 30
0.0
 10
280.308973
 20
-269.693923
 30
0.0
  0
LINE
  5
168
100
AcDbEntity
  8
Battery_holder_3mm_-_cut
 62
7
100
AcDbLine
 10
280.308973
 20
-269.693923
 30
0.0
 11
280.308973
 21
-269.693923
 31
0.0
  0
SPLINE
  5
169
100
AcDbEntity
  8
Battery_holder_3mm_-_cut
 62
7
100
AcDbSpline
 70
8
 71
3
 72
8
 73
4
 74
0
 40
0
 40
0
 40
0
 40
0
 40
1
 40
1
 40
1
 40
1
 10
295.309177
 20
-276.694360
 30
0.0
 10
294.480863
 20
-276.694448
 30
0.0
 10
293.809407
 20
-277.365916
 30
0.0
 10
293.809335
 20
-278.194230
 30
0.0
  0
SPLINE
  5
16a
100
AcDbEntity
  8
Battery_holder_3mm_-_cut
 62
7
100
AcDbSpline
 70
8
 71
3
 72
8
 73
4
 74
0
 40
0
 40
0
 40
0
 40
0
 40
1
 40
1
 40
1
 40
1
 10
293.809335
 20
-278.194230
 30
0.0
 10
293.809423
 20
-279.022534
 30
0.0
 10
294.480874
 20
-279.693985
 30
0.0
 10
295.309177
 20
-279.694072
 30
0.0
  0
SPLINE
  5
16b
100
AcDbEntity
  8
Battery_holder_3mm_-_cut
 62
7
100
AcDbSpline
 70
8
 71
3
 72
8
 73
4
 74
0
 40
0
 40
0
 40
0
 40
0
 40
1
 40
1
 40
1
 40
1
 10
295.309177
 20
-279.694072
 30
0.0
 10
296.137492
 20
-279.694000
 30
0.0
 10
296.808960
 20
-279.022545
 30
0.0
 10
296.809047
 20
-278.194230
 30
0.0
  0
SPLINE
  5
16c
100
AcDbEntity
  8
Battery_holder_3mm_-_cut
 62
7
100
AcDbSpline
 70
8
 71
3
 72
8
 73
4
 74
0
 40
0
 40
0
 40
0
 40
0
 40
1
 40
1
 40
1
 40
1
 10
296.809047
 20
-278.194230
 30
0.0
 10
296.808975
 20
-277.365905
 30
0.0
 10
296.137503
 20
-276.694432
 30
0.0
 10
295.309177
 20
-276.694360
 30
0.0
  0
LINE
  5
16d
100
AcDbEntity
  8
Battery_holder_3mm_-_cut
 62
7
100
AcDbLine
 10
295.309177
 20
-276.694360
 30
0.0
 11
295.309177
 21
-276.694360
 31
0.0
  0
SPLINE
  5
16e
100
AcDbEntity
  8
Battery_holder_3mm_-_cut
 62
7
100
AcDbSpline
 70
8
 71
3
 72
8
 73
4
 74
0
 40
0
 40
0
 40
0
 40
0
 40
1
 40
1
 40
1
 40
1
 10
286.308941
 20
-276.694360
 30
0.0
 10
285.480627
 20
-276.694448
 30
0.0
 10
284.809171
 20
-277.365916
 30
0.0
 10
284.809099
 20
-278.194230
 30
0.0
  0
SPLINE
  5
16f
100
AcDbEntity
  8
Battery_holder_3mm_-_cut
 62
7
100
AcDbSpline
 70
8
 71
3
 72
8
 73
4
 74
0
 40
0
 40
0
 40
0
 40
0
 40
1
 40
1
 40
1
 40
1
 10
284.809099
 20
-278.194230
 30
0.0
 10
284.809187
 20
-279.022534
 30
0.0
 10
285.480638
 20
-279.693985
 30
0.0
 10
286.308941
 20
-279.694072
 30
0.0
  0
SPLINE
  5
170
100
AcDbEntity
  8
Battery_holder_3mm_-_cut
 62
7
100
AcDbSpline
 70
8
 71
3
 72
8
 73
4
 74
0
 40
0
 40
0
 40
0
 40
0
 40
1
 40
1
 40
1
 40
1
 10
286.308941
 20
-279.694072
 30
0.0
 10
286.706809
 20
-279.694180
 30
0.0
 10
287.088420
 20
-279.536214
 30
0.0
 10
287.369808
 20
-279.254932
 30
0.0
  0
SPLINE
  5
171
100
AcDbEntity
  8
Battery_holder_3mm_-_cut
 62
7
100
AcDbSpline
 70
8
 71
3
 72
8
 73
4
 74
0
 40
0
 40
0
 40
0
 40
0
 40
1
 40
1
 40
1
 40
1
 10
287.369808
 20
-279.254932
 30
0.0
 10
287.651196
 20
-278.973650
 30
0.0
 10
287.809305
 20
-278.592098
 30
0.0
 10
287.809347
 20
-278.194230
 30
0.0
  0
SPLINE
  5
172
100
AcDbEntity
  8
Battery_holder_3mm_-_cut
 62
7
100
AcDbSpline
 70
8
 71
3
 72
8
 73
4
 74
0
 40
0
 40
0
 40
0
 40
0
 40
1
 40
1
 40
1
 40
1
 10
287.809347
 20
-278.194230
 30
0.0
 10
287.809313
 20
-277.796358
 30
0.0
 10
287.651207
 20
-277.414799
 30
0.0
 10
287.369818
 20
-277.133510
 30
0.0
  0
SPLINE
  5
173
100
AcDbEntity
  8
Battery_holder_3mm_-_cut
 62
7
100
AcDbSpline
 70
8
 71
3
 72
8
 73
4
 74
0
 40
0
 40
0
 40
0
 40
0
 40
1
 40
1
 40
1
 40
1
 10
287.369818
 20
-277.133510
 30
0.0
 10
287.088429
 20
-276.852222
 30
0.0
 10
286.706814
 20
-276.694253
 30
0.0
 10
286.308941
 20
-276.694360
 30
0.0
  0
LINE
  5
174
100
AcDbEntity
  8
Battery_holder_3mm_-_cut
 62
7
100
AcDbLine
 10
286.308941
 20
-276.694360
 30
0.0
 11
286.308941
 21
-276.694360
 31
0.0
  0
SPLINE
  5
175
100
AcDbEntity
  8
Battery_holder_3mm_-_cut
 62
7
100
AcDbSpline
 70
8
 71
3
 72
8
 73
4
 74
0
 40
0
 40
0
 40
0
 40
0
 40
1
 40
1
 40
1
 40
1
 10
280.308973
 20
-283.694233
 30
0.0
 10
279.480647
 20
-283.694305
 30
0.0
 10
278.809175
 20
-284.365778
 30
0.0
 10
278.809103
 20
-285.194103
 30
0.0
  0
SPLINE
  5
176
100
AcDbEntity
  8
Battery_holder_3mm_-_cut
 62
7
100
AcDbSpline
 70
8
 71
3
 72
8
 73
4
 74
0
 40
0
 40
0
 40
0
 40
0
 40
1
 40
1
 40
1
 40
1
 10
278.809103
 20
-285.194103
 30
0.0
 10
278.809175
 20
-286.022429
 30
0.0
 10
279.480647
 20
-286.693902
 30
0.0
 10
280.308973
 20
-286.693973
 30
0.0
  0
SPLINE
  5
177
100
AcDbEntity
  8
Battery_holder_3mm_-_cut
 62
7
100
AcDbSpline
 70
8
 71
3
 72
8
 73
4
 74
0
 40
0
 40
0
 40
0
 40
0
 40
1
 40
1
 40
1
 40
1
 10
280.308973
 20
-286.693973
 30
0.0
 10
281.137287
 20
-286.693886
 30
0.0
 10
281.808743
 20
-286.022418
 30
0.0
 10
281.808815
 20
-285.194103
 30
0.0
  0
SPLINE
  5
178
100
AcDbEntity
  8
Battery_holder_3mm_-_cut
 62
7
100
AcDbSpline
 70
8
 71
3
 72
8
 73
4
 74
0
 40
0
 40
0
 40
0
 40
0
 40
1
 40
1
 40
1
 40
1
 10
281.808815
 20
-285.194103
 30
0.0
 10
281.808743
 20
-284.365789
 30
0.0
 10
281.137287
 20
-283.694321
 30
0.0
 10
280.308973
 20
-283.694233
 30
0.0
  0
LINE
  5
179
100
AcDbEntity
  8
Battery_holder_3mm_-_cut
 62
7
100
AcDbLine
 10
280.308973
 20
-283.694233
 30
0.0
 11
280.308973
 21
-283.694233
 31
0.0
  0
SPLINE
  5
17a
100
AcDbEntity
  8
Battery_holder_3mm_-_cut
 62
7
100
AcDbSpline
 70
8
 71
3
 72
8
 73
4
 74
0
 40
0
 40
0
 40
0
 40
0
 40
1
 40
1
 40
1
 40
1
 10
334.309297
 20
-268.194081
 30
0.0
 10
336.961513
 20
-268.194041
 30
0.0
 10
339.505113
 20
-269.247613
 30
0.0
 10
341.380514
 20
-271.123013
 30
0.0
  0
SPLINE
  5
17b
100
AcDbEntity
  8
Battery_holder_3mm_-_cut
 62
7
100
AcDbSpline
 70
8
 71
3
 72
8
 73
4
 74
0
 40
0
 40
0
 40
0
 40
0
 40
1
 40
1
 40
1
 40
1
 10
341.380514
 20
-271.123013
 30
0.0
 10
343.255914
 20
-272.998414
 30
0.0
 10
344.309486
 20
-275.542014
 30
0.0
 10
344.309446
 20
-278.194230
 30
0.0
  0
SPLINE
  5
17c
100
AcDbEntity
  8
Battery_holder_3mm_-_cut
 62
7
100
AcDbSpline
 70
8
 71
3
 72
8
 73
4
 74
0
 40
0
 40
0
 40
0
 40
0
 40
1
 40
1
 40
1
 40
1
 10
344.309446
 20
-278.194230
 30
0.0
 10
344.309486
 20
-280.846447
 30
0.0
 10
343.255914
 20
-283.390047
 30
0.0
 10
341.380514
 20
-285.265447
 30
0.0
  0
SPLINE
  5
17d
100
AcDbEntity
  8
Battery_holder_3mm_-_cut
 62
7
100
AcDbSpline
 70
8
 71
3
 72
8
 73
4
 74
0
 40
0
 40
0
 40
0
 40
0
 40
1
 40
1
 40
1
 40
1
 10
341.380514
 20
-285.265447
 30
0.0
 10
339.505113
 20
-287.140848
 30
0.0
 10
336.961513
 20
-288.194419
 30
0.0
 10
334.309297
 20
-288.194380
 30
0.0
  0
LINE
  5
17e
100
AcDbEntity
  8
Battery_holder_3mm_-_cut
 62
7
100
AcDbLine
 10
334.309297
 20
-288.194380
 30
0.0
 11
323.309234
 21
-288.194380
 31
0.0
  0
LINE
  5
17f
100
AcDbEntity
  8
Battery_holder_3mm_-_cut
 62
7
100
AcDbLine
 10
323.309234
 20
-288.194380
 30
0.0
 11
323.309234
 21
-268.194081
 31
0.0
  0
LINE
  5
180
100
AcDbEntity
  8
Battery_holder_3mm_-_cut
 62
7
100
AcDbLine
 10
323.309234
 20
-268.194081
 30
0.0
 11
334.309297
 21
-268.194081
 31
0.0
  0
LINE
  5
181
100
AcDbEntity
  8
Battery_holder_3mm_-_cut
 62
7
100
AcDbLine
 10
334.309297
 20
-268.194081
 30
0.0
 11
334.309297
 21
-268.194081
 31
0.0
  0
SPLINE
  5
182
100
AcDbEntity
  8
Battery_holder_3mm_-_cut
 62
7
100
AcDbSpline
 70
8
 71
3
 72
8
 73
4
 74
0
 40
0
 40
0
 40
0
 40
0
 40
1
 40
1
 40
1
 40
1
 10
326.308946
 20
-269.693923
 30
0.0
 10
325.911078
 20
-269.693965
 30
0.0
 10
325.529526
 20
-269.852074
 30
0.0
 10
325.248244
 20
-270.133462
 30
0.0
  0
SPLINE
  5
183
100
AcDbEntity
  8
Battery_holder_3mm_-_cut
 62
7
100
AcDbSpline
 70
8
 71
3
 72
8
 73
4
 74
0
 40
0
 40
0
 40
0
 40
0
 40
1
 40
1
 40
1
 40
1
 10
325.248244
 20
-270.133462
 30
0.0
 10
324.966962
 20
-270.414850
 30
0.0
 10
324.808996
 20
-270.796461
 30
0.0
 10
324.809104
 20
-271.194329
 30
0.0
  0
SPLINE
  5
184
100
AcDbEntity
  8
Battery_holder_3mm_-_cut
 62
7
100
AcDbSpline
 70
8
 71
3
 72
8
 73
4
 74
0
 40
0
 40
0
 40
0
 40
0
 40
1
 40
1
 40
1
 40
1
 10
324.809104
 20
-271.194329
 30
0.0
 10
324.809176
 20
-272.022644
 30
0.0
 10
325.480631
 20
-272.694112
 30
0.0
 10
326.308946
 20
-272.694199
 30
0.0
  0
SPLINE
  5
185
100
AcDbEntity
  8
Battery_holder_3mm_-_cut
 62
7
100
AcDbSpline
 70
8
 71
3
 72
8
 73
4
 74
0
 40
0
 40
0
 40
0
 40
0
 40
1
 40
1
 40
1
 40
1
 10
326.308946
 20
-272.694199
 30
0.0
 10
327.137271
 20
-272.694127
 30
0.0
 10
327.808744
 20
-272.022655
 30
0.0
 10
327.808816
 20
-271.194329
 30
0.0
  0
SPLINE
  5
186
100
AcDbEntity
  8
Battery_holder_3mm_-_cut
 62
7
100
AcDbSpline
 70
8
 71
3
 72
8
 73
4
 74
0
 40
0
 40
0
 40
0
 40
0
 40
1
 40
1
 40
1
 40
1
 10
327.808816
 20
-271.194329
 30
0.0
 10
327.808924
 20
-270.796456
 30
0.0
 10
327.650954
 20
-270.414841
 30
0.0
 10
327.369666
 20
-270.133452
 30
0.0
  0
SPLINE
  5
187
100
AcDbEntity
  8
Battery_holder_3mm_-_cut
 62
7
100
AcDbSpline
 70
8
 71
3
 72
8
 73
4
 74
0
 40
0
 40
0
 40
0
 40
0
 40
1
 40
1
 40
1
 40
1
 10
327.369666
 20
-270.133452
 30
0.0
 10
327.088377
 20
-269.852063
 30
0.0
 10
326.706818
 20
-269.693957
 30
0.0
 10
326.308946
 20
-269.693923
 30
0.0
  0
LINE
  5
188
100
AcDbEntity
  8
Battery_holder_3mm_-_cut
 62
7
100
AcDbLine
 10
326.308946
 20
-269.693923
 30
0.0
 11
326.308946
 21
-269.693923
 31
0.0
  0
LINE
  5
189
100
AcDbEntity
  8
Battery_holder_3mm_-_cut
 62
7
100
AcDbLine
 10
330.577021
 20
-275.193954
 30
0.0
 11
328.845108
 21
-278.194230
 31
0.0
  0
LINE
  5
18a
100
AcDbEntity
  8
Battery_holder_3mm_-_cut
 62
7
100
AcDbLine
 10
328.845108
 20
-278.194230
 30
0.0
 11
330.577021
 21
-281.193942
 31
0.0
  0
LINE
  5
18b
100
AcDbEntity
  8
Battery_holder_3mm_-_cut
 62
7
100
AcDbLine
 10
330.577021
 20
-281.193942
 30
0.0
 11
334.040847
 21
-281.193942
 31
0.0
  0
LINE
  5
18c
100
AcDbEntity
  8
Battery_holder_3mm_-_cut
 62
7
100
AcDbLine
 10
334.040847
 20
-281.193942
 30
0.0
 11
335.773324
 21
-278.194230
 31
0.0
  0
LINE
  5
18d
100
AcDbEntity
  8
Battery_holder_3mm_-_cut
 62
7
100
AcDbLine
 10
335.773324
 20
-278.194230
 30
0.0
 11
334.040847
 21
-275.194518
 31
0.0
  0
LINE
  5
18e
100
AcDbEntity
  8
Battery_holder_3mm_-_cut
 62
7
100
AcDbLine
 10
334.040847
 20
-275.194518
 30
0.0
 11
330.577021
 21
-275.194518
 31
0.0
  0
LINE
  5
18f
100
AcDbEntity
  8
Battery_holder_3mm_-_cut
 62
7
100
AcDbLine
 10
330.577021
 20
-275.194518
 30
0.0
 11
330.577021
 21
-275.193954
 31
0.0
  0
SPLINE
  5
190
100
AcDbEntity
  8
Battery_holder_3mm_-_cut
 62
7
100
AcDbSpline
 70
8
 71
3
 72
8
 73
4
 74
0
 40
0
 40
0
 40
0
 40
0
 40
1
 40
1
 40
1
 40
1
 10
341.309170
 20
-276.694360
 30
0.0
 10
340.480855
 20
-276.694448
 30
0.0
 10
339.809400
 20
-277.365916
 30
0.0
 10
339.809328
 20
-278.194230
 30
0.0
  0
SPLINE
  5
191
100
AcDbEntity
  8
Battery_holder_3mm_-_cut
 62
7
100
AcDbSpline
 70
8
 71
3
 72
8
 73
4
 74
0
 40
0
 40
0
 40
0
 40
0
 40
1
 40
1
 40
1
 40
1
 10
339.809328
 20
-278.194230
 30
0.0
 10
339.809415
 20
-279.022534
 30
0.0
 10
340.480866
 20
-279.693985
 30
0.0
 10
341.309170
 20
-279.694072
 30
0.0
  0
SPLINE
  5
192
100
AcDbEntity
  8
Battery_holder_3mm_-_cut
 62
7
100
AcDbSpline
 70
8
 71
3
 72
8
 73
4
 74
0
 40
0
 40
0
 40
0
 40
0
 40
1
 40
1
 40
1
 40
1
 10
341.309170
 20
-279.694072
 30
0.0
 10
342.137484
 20
-279.694000
 30
0.0
 10
342.808952
 20
-279.022545
 30
0.0
 10
342.809040
 20
-278.194230
 30
0.0
  0
SPLINE
  5
193
100
AcDbEntity
  8
Battery_holder_3mm_-_cut
 62
7
100
AcDbSpline
 70
8
 71
3
 72
8
 73
4
 74
0
 40
0
 40
0
 40
0
 40
0
 40
1
 40
1
 40
1
 40
1
 10
342.809040
 20
-278.194230
 30
0.0
 10
342.808968
 20
-277.365905
 30
0.0
 10
342.137495
 20
-276.694432
 30
0.0
 10
341.309170
 20
-276.694360
 30
0.0
  0
LINE
  5
194
100
AcDbEntity
  8
Battery_holder_3mm_-_cut
 62
7
100
AcDbLine
 10
341.309170
 20
-276.694360
 30
0.0
 11
341.309170
 21
-276.694360
 31
0.0
  0
SPLINE
  5
195
100
AcDbEntity
  8
Battery_holder_3mm_-_cut
 62
7
100
AcDbSpline
 70
8
 71
3
 72
8
 73
4
 74
0
 40
0
 40
0
 40
0
 40
0
 40
1
 40
1
 40
1
 40
1
 10
326.308946
 20
-283.694233
 30
0.0
 10
325.480631
 20
-283.694321
 30
0.0
 10
324.809176
 20
-284.365789
 30
0.0
 10
324.809104
 20
-285.194103
 30
0.0
  0
SPLINE
  5
196
100
AcDbEntity
  8
Battery_holder_3mm_-_cut
 62
7
100
AcDbSpline
 70
8
 71
3
 72
8
 73
4
 74
0
 40
0
 40
0
 40
0
 40
0
 40
1
 40
1
 40
1
 40
1
 10
324.809104
 20
-285.194103
 30
0.0
 10
324.809176
 20
-286.022418
 30
0.0
 10
325.480631
 20
-286.693886
 30
0.0
 10
326.308946
 20
-286.693973
 30
0.0
  0
SPLINE
  5
197
100
AcDbEntity
  8
Battery_holder_3mm_-_cut
 62
7
100
AcDbSpline
 70
8
 71
3
 72
8
 73
4
 74
0
 40
0
 40
0
 40
0
 40
0
 40
1
 40
1
 40
1
 40
1
 10
326.308946
 20
-286.693973
 30
0.0
 10
327.137271
 20
-286.693902
 30
0.0
 10
327.808744
 20
-286.022429
 30
0.0
 10
327.808816
 20
-285.194103
 30
0.0
  0
SPLINE
  5
198
100
AcDbEntity
  8
Battery_holder_3mm_-_cut
 62
7
100
AcDbSpline
 70
8
 71
3
 72
8
 73
4
 74
0
 40
0
 40
0
 40
0
 40
0
 40
1
 40
1
 40
1
 40
1
 10
327.808816
 20
-285.194103
 30
0.0
 10
327.808744
 20
-284.365778
 30
0.0
 10
327.137271
 20
-283.694305
 30
0.0
 10
326.308946
 20
-283.694233
 30
0.0
  0
LINE
  5
199
100
AcDbEntity
  8
Battery_holder_3mm_-_cut
 62
7
100
AcDbLine
 10
326.308946
 20
-283.694233
 30
0.0
 11
326.308946
 21
-283.694233
 31
0.0
  0
ENDSEC
  0
SECTION
  2
OBJECTS
  0
DICTIONARY
  5
C
330
0
100
AcDbDictionary
  3
ACAD_GROUP
350
D
  3
ACAD_MLINESTYLE
350
17
  0
DICTIONARY
  5
D
330
C
100
AcDbDictionary
  0
DICTIONARY
  5
1A
330
C
100
AcDbDictionary
  0
DICTIONARY
  5
17
330
C
100
AcDbDictionary
  3
STANDARD
350
18
  0
DICTIONARY
  5
19
330
C
100
AcDbDictionary
  0
ENDSEC
  0
EOF
