  0
SECTION
  2
HEADER
  9
$ACADVER
  1
AC1014
  9
$HANDSEED
  5
FFFF
  9
$MEASUREMENT
 70
     1
  0
ENDSEC
  0
SECTION
  2
TABLES
  0
TABLE
  2
VPORT
  5
8
330
0
100
AcDbSymbolTable
 70
     4
  0
VPORT
  5
2E
330
8
100
AcDbSymbolTableRecord
100
AcDbViewportTableRecord
  2
*ACTIVE
 70
     0
 10
0.0
 20
0.0
 11
1.0
 21
1.0
 12
210.0
 22
148.5
 13
0.0
 23
0.0
 14
10.0
 24
10.0
 15
10.0
 25
10.0
 16
0.0
 26
0.0
 36
1.0
 17
0.0
 27
0.0
 37
0.0
 40
341.0
 41
1.24
 42
50.0
 43
0.0
 44
0.0
 50
0.0
 51
0.0
 71
     0
 72
   100
 73
     1
 74
     3
 75
     0
 76
     0
 77
     0
 78
     0
  0
ENDTAB
  0
TABLE
  2
LTYPE
  5
5
330
0
100
AcDbSymbolTable
 70
     1
  0
LTYPE
  5
14
330
5
100
AcDbSymbolTableRecord
100
AcDbLinetypeTableRecord
  2
BYBLOCK
 70
     0
  3

 72
    65
 73
     0
 40
0.0
  0
LTYPE
  5
15
330
5
100
AcDbSymbolTableRecord
100
AcDbLinetypeTableRecord
  2
BYLAYER
 70
     0
  3

 72
    65
 73
     0
 40
0.0
  0
LTYPE
  5
16
330
5
100
AcDbSymbolTableRecord
100
AcDbLinetypeTableRecord
  2
CONTINUOUS
 70
     0
  3
Solid line
 72
    65
 73
     0
 40
0.0
  0
ENDTAB
  0
TABLE
  2
LAYER
  5
2
100
AcDbSymbolTable
 70
13
  0
LAYER
  5
50
100
AcDbSymbolTableRecord
100
AcDbLayerTableRecord
  2
0
 70
0
  6
CONTINUOUS
  0
LAYER
  5
51
100
AcDbSymbolTableRecord
100
AcDbLayerTableRecord
  2
BottomPlate_-_Cut
 70
0
  6
CONTINUOUS
  0
LAYER
  5
52
100
AcDbSymbolTableRecord
100
AcDbLayerTableRecord
  2
TopPlate_-_Cut
 70
0
  6
CONTINUOUS
  0
LAYER
  5
53
100
AcDbSymbolTableRecord
100
AcDbLayerTableRecord
  2
TopPlate_-_Etch
 70
0
  6
CONTINUOUS
  0
LAYER
  5
54
100
AcDbSymbolTableRecord
100
AcDbLayerTableRecord
  2
Cogs_-_Cut
 70
0
  6
CONTINUOUS
  0
LAYER
  5
55
100
AcDbSymbolTableRecord
100
AcDbLayerTableRecord
  2
Cogs_-_Secondary
 70
0
  6
CONTINUOUS
  0
LAYER
  5
56
100
AcDbSymbolTableRecord
100
AcDbLayerTableRecord
  2
Cogs_-_Etch
 70
0
  6
CONTINUOUS
  0
LAYER
  5
57
100
AcDbSymbolTableRecord
100
AcDbLayerTableRecord
  2
Edges_-_Cut
 70
0
  6
CONTINUOUS
  0
LAYER
  5
58
100
AcDbSymbolTableRecord
100
AcDbLayerTableRecord
  2
Edges_-_Etch
 70
0
  6
CONTINUOUS
  0
LAYER
  5
59
100
AcDbSymbolTableRecord
100
AcDbLayerTableRecord
  2
3mm_Utility_bits_-_Cut
 70
0
  6
CONTINUOUS
  0
LAYER
  5
5a
100
AcDbSymbolTableRecord
100
AcDbLayerTableRecord
  2
Temp
 70
0
  6
CONTINUOUS
  0
LAYER
  5
5b
100
AcDbSymbolTableRecord
100
AcDbLayerTableRecord
  2
Battery_holder_-_cut
 70
0
  6
CONTINUOUS
  0
LAYER
  5
5c
100
AcDbSymbolTableRecord
100
AcDbLayerTableRecord
  2
Battery_holder_3mm_-_cut
 70
0
  6
CONTINUOUS
  0
ENDTAB
  0
TABLE
  2
STYLE
  5
3
330
0
100
AcDbSymbolTable
 70
     1
  0
STYLE
  5
11
330
3
100
AcDbSymbolTableRecord
100
AcDbTextStyleTableRecord
  2
STANDARD
 70
     0
 40
0.0
 41
1.0
 50
0.0
 71
     0
 42
2.5
  3
txt
  4

  0
ENDTAB
  0
TABLE
  2
VIEW
  5
6
330
0
100
AcDbSymbolTable
 70
     0
  0
ENDTAB
  0
TABLE
  2
UCS
  5
7
330
0
100
AcDbSymbolTable
 70
     0
  0
ENDTAB
  0
TABLE
  2
APPID
  5
9
330
0
100
AcDbSymbolTable
 70
     2
  0
APPID
  5
12
330
9
100
AcDbSymbolTableRecord
100
AcDbRegAppTableRecord
  2
ACAD
 70
     0
  0
ENDTAB
  0
TABLE
  2
DIMSTYLE
  5
A
330
0
100
AcDbSymbolTable
 70
     1
  0
DIMSTYLE
105
27
330
A
100
AcDbSymbolTableRecord
100
AcDbDimStyleTableRecord
  2
ISO-25
 70
     0
  3

  4

  5

  6

  7

 40
1.0
 41
2.5
 42
0.625
 43
3.75
 44
1.25
 45
0.0
 46
0.0
 47
0.0
 48
0.0
140
2.5
141
2.5
142
0.0
143
0.03937007874016
144
1.0
145
0.0
146
1.0
147
0.625
 71
     0
 72
     0
 73
     0
 74
     0
 75
     0
 76
     0
 77
     1
 78
     8
170
     0
171
     3
172
     1
173
     0
174
     0
175
     0
176
     0
177
     0
178
     0
270
     2
271
     2
272
     2
273
     2
274
     3
340
11
275
     0
280
     0
281
     0
282
     0
283
     0
284
     8
285
     0
286
     0
287
     3
288
     0
  0
ENDTAB
  0
TABLE
  2
BLOCK_RECORD
  5
1
330
0
100
AcDbSymbolTable
 70
     1
  0
BLOCK_RECORD
  5
1F
330
1
100
AcDbSymbolTableRecord
100
AcDbBlockTableRecord
  2
*MODEL_SPACE
  0
BLOCK_RECORD
  5
1B
330
1
100
AcDbSymbolTableRecord
100
AcDbBlockTableRecord
  2
*PAPER_SPACE
  0
ENDTAB
  0
ENDSEC
  0
SECTION
  2
BLOCKS
  0
BLOCK
  5
20
330
1F
100
AcDbEntity
  8
0
100
AcDbBlockBegin
  2
*MODEL_SPACE
 70
     0
 10
0.0
 20
0.0
 30
0.0
  3
*MODEL_SPACE
  1

  0
ENDBLK
  5
21
330
1F
100
AcDbEntity
  8
0
100
AcDbBlockEnd
  0
BLOCK
  5
1C
330
1B
100
AcDbEntity
 67
     1
  8
0
100
AcDbBlockBegin
  2
*PAPER_SPACE
  1

  0
ENDBLK
  5
1D
330
1B
100
AcDbEntity
 67
     1
  8
0
100
AcDbBlockEnd
  0
ENDSEC
  0
SECTION
  2
ENTITIES
  0
SPLINE
  5
100
100
AcDbEntity
  8
Battery_holder_3mm_-_cut
 62
7
100
AcDbSpline
 70
8
 71
3
 72
8
 73
4
 74
0
 40
0
 40
0
 40
0
 40
0
 40
1
 40
1
 40
1
 40
1
 10
152.309387
 20
-237.847433
 30
0.0
 10
149.657170
 20
-237.847393
 30
0.0
 10
147.113570
 20
-238.900965
 30
0.0
 10
145.238170
 20
-240.776365
 30
0.0
  0
SPLINE
  5
101
100
AcDbEntity
  8
Battery_holder_3mm_-_cut
 62
7
100
AcDbSpline
 70
8
 71
3
 72
8
 73
4
 74
0
 40
0
 40
0
 40
0
 40
0
 40
1
 40
1
 40
1
 40
1
 10
145.238170
 20
-240.776365
 30
0.0
 10
143.362769
 20
-242.651766
 30
0.0
 10
142.309198
 20
-245.195366
 30
0.0
 10
142.309238
 20
-247.847582
 30
0.0
  0
SPLINE
  5
102
100
AcDbEntity
  8
Battery_holder_3mm_-_cut
 62
7
100
AcDbSpline
 70
8
 71
3
 72
8
 73
4
 74
0
 40
0
 40
0
 40
0
 40
0
 40
1
 40
1
 40
1
 40
1
 10
142.309238
 20
-247.847582
 30
0.0
 10
142.309198
 20
-250.499799
 30
0.0
 10
143.362769
 20
-253.043399
 30
0.0
 10
145.238170
 20
-254.918800
 30
0.0
  0
SPLINE
  5
103
100
AcDbEntity
  8
Battery_holder_3mm_-_cut
 62
7
100
AcDbSpline
 70
8
 71
3
 72
8
 73
4
 74
0
 40
0
 40
0
 40
0
 40
0
 40
1
 40
1
 40
1
 40
1
 10
145.238170
 20
-254.918800
 30
0.0
 10
147.113570
 20
-256.794200
 30
0.0
 10
149.657170
 20
-257.847771
 30
0.0
 10
152.309387
 20
-257.847732
 30
0.0
  0
LINE
  5
104
100
AcDbEntity
  8
Battery_holder_3mm_-_cut
 62
7
100
AcDbLine
 10
152.309387
 20
-257.847732
 30
0.0
 11
163.309438
 21
-257.847732
 31
0.0
  0
LINE
  5
105
100
AcDbEntity
  8
Battery_holder_3mm_-_cut
 62
7
100
AcDbLine
 10
163.309438
 20
-257.847732
 30
0.0
 11
163.309438
 21
-237.847433
 31
0.0
  0
LINE
  5
106
100
AcDbEntity
  8
Battery_holder_3mm_-_cut
 62
7
100
AcDbLine
 10
163.309438
 20
-237.847433
 30
0.0
 11
152.309387
 21
-237.847433
 31
0.0
  0
LINE
  5
107
100
AcDbEntity
  8
Battery_holder_3mm_-_cut
 62
7
100
AcDbLine
 10
152.309387
 20
-237.847433
 30
0.0
 11
152.309387
 21
-237.847433
 31
0.0
  0
SPLINE
  5
108
100
AcDbEntity
  8
Battery_holder_3mm_-_cut
 62
7
100
AcDbSpline
 70
8
 71
3
 72
8
 73
4
 74
0
 40
0
 40
0
 40
0
 40
0
 40
1
 40
1
 40
1
 40
1
 10
160.309724
 20
-239.347275
 30
0.0
 10
160.707594
 20
-239.347312
 30
0.0
 10
161.089150
 20
-239.505420
 30
0.0
 10
161.370436
 20
-239.786808
 30
0.0
  0
SPLINE
  5
109
100
AcDbEntity
  8
Battery_holder_3mm_-_cut
 62
7
100
AcDbSpline
 70
8
 71
3
 72
8
 73
4
 74
0
 40
0
 40
0
 40
0
 40
0
 40
1
 40
1
 40
1
 40
1
 10
161.370436
 20
-239.786808
 30
0.0
 10
161.651722
 20
-240.068197
 30
0.0
 10
161.809690
 20
-240.449810
 30
0.0
 10
161.809582
 20
-240.847681
 30
0.0
  0
SPLINE
  5
10a
100
AcDbEntity
  8
Battery_holder_3mm_-_cut
 62
7
100
AcDbSpline
 70
8
 71
3
 72
8
 73
4
 74
0
 40
0
 40
0
 40
0
 40
0
 40
1
 40
1
 40
1
 40
1
 10
161.809582
 20
-240.847681
 30
0.0
 10
161.809511
 20
-241.676002
 30
0.0
 10
161.138045
 20
-242.347473
 30
0.0
 10
160.309724
 20
-242.347551
 30
0.0
  0
SPLINE
  5
10b
100
AcDbEntity
  8
Battery_holder_3mm_-_cut
 62
7
100
AcDbSpline
 70
8
 71
3
 72
8
 73
4
 74
0
 40
0
 40
0
 40
0
 40
0
 40
1
 40
1
 40
1
 40
1
 10
160.309724
 20
-242.347551
 30
0.0
 10
159.481404
 20
-242.347472
 30
0.0
 10
158.809940
 20
-241.676001
 30
0.0
 10
158.809868
 20
-240.847681
 30
0.0
  0
SPLINE
  5
10c
100
AcDbEntity
  8
Battery_holder_3mm_-_cut
 62
7
100
AcDbSpline
 70
8
 71
3
 72
8
 73
4
 74
0
 40
0
 40
0
 40
0
 40
0
 40
1
 40
1
 40
1
 40
1
 10
158.809868
 20
-240.847681
 30
0.0
 10
158.809760
 20
-240.449811
 30
0.0
 10
158.967728
 20
-240.068198
 30
0.0
 10
159.249013
 20
-239.786809
 30
0.0
  0
SPLINE
  5
10d
100
AcDbEntity
  8
Battery_holder_3mm_-_cut
 62
7
100
AcDbSpline
 70
8
 71
3
 72
8
 73
4
 74
0
 40
0
 40
0
 40
0
 40
0
 40
1
 40
1
 40
1
 40
1
 10
159.249013
 20
-239.786809
 30
0.0
 10
159.530298
 20
-239.505421
 30
0.0
 10
159.911854
 20
-239.347313
 30
0.0
 10
160.309724
 20
-239.347275
 30
0.0
  0
LINE
  5
10e
100
AcDbEntity
  8
Battery_holder_3mm_-_cut
 62
7
100
AcDbLine
 10
160.309724
 20
-239.347275
 30
0.0
 11
160.309724
 21
-239.347275
 31
0.0
  0
SPLINE
  5
10f
100
AcDbEntity
  8
Battery_holder_3mm_-_cut
 62
7
100
AcDbSpline
 70
8
 71
3
 72
8
 73
4
 74
0
 40
0
 40
0
 40
0
 40
0
 40
1
 40
1
 40
1
 40
1
 10
145.309503
 20
-246.347712
 30
0.0
 10
146.137823
 20
-246.347792
 30
0.0
 10
146.809287
 20
-247.019262
 30
0.0
 10
146.809358
 20
-247.847582
 30
0.0
  0
SPLINE
  5
110
100
AcDbEntity
  8
Battery_holder_3mm_-_cut
 62
7
100
AcDbSpline
 70
8
 71
3
 72
8
 73
4
 74
0
 40
0
 40
0
 40
0
 40
0
 40
1
 40
1
 40
1
 40
1
 10
146.809358
 20
-247.847582
 30
0.0
 10
146.809271
 20
-248.675891
 30
0.0
 10
146.137812
 20
-249.347345
 30
0.0
 10
145.309503
 20
-249.347424
 30
0.0
  0
SPLINE
  5
111
100
AcDbEntity
  8
Battery_holder_3mm_-_cut
 62
7
100
AcDbSpline
 70
8
 71
3
 72
8
 73
4
 74
0
 40
0
 40
0
 40
0
 40
0
 40
1
 40
1
 40
1
 40
1
 10
145.309503
 20
-249.347424
 30
0.0
 10
144.481193
 20
-249.347345
 30
0.0
 10
143.809734
 20
-248.675891
 30
0.0
 10
143.809647
 20
-247.847582
 30
0.0
  0
SPLINE
  5
112
100
AcDbEntity
  8
Battery_holder_3mm_-_cut
 62
7
100
AcDbSpline
 70
8
 71
3
 72
8
 73
4
 74
0
 40
0
 40
0
 40
0
 40
0
 40
1
 40
1
 40
1
 40
1
 10
143.809647
 20
-247.847582
 30
0.0
 10
143.809718
 20
-247.019262
 30
0.0
 10
144.481182
 20
-246.347792
 30
0.0
 10
145.309503
 20
-246.347712
 30
0.0
  0
LINE
  5
113
100
AcDbEntity
  8
Battery_holder_3mm_-_cut
 62
7
100
AcDbLine
 10
145.309503
 20
-246.347712
 30
0.0
 11
145.309503
 21
-246.347712
 31
0.0
  0
SPLINE
  5
114
100
AcDbEntity
  8
Battery_holder_3mm_-_cut
 62
7
100
AcDbSpline
 70
8
 71
3
 72
8
 73
4
 74
0
 40
0
 40
0
 40
0
 40
0
 40
1
 40
1
 40
1
 40
1
 10
154.309747
 20
-246.347712
 30
0.0
 10
155.138067
 20
-246.347792
 30
0.0
 10
155.809531
 20
-247.019262
 30
0.0
 10
155.809603
 20
-247.847582
 30
0.0
  0
SPLINE
  5
115
100
AcDbEntity
  8
Battery_holder_3mm_-_cut
 62
7
100
AcDbSpline
 70
8
 71
3
 72
8
 73
4
 74
0
 40
0
 40
0
 40
0
 40
0
 40
1
 40
1
 40
1
 40
1
 10
155.809603
 20
-247.847582
 30
0.0
 10
155.809516
 20
-248.675891
 30
0.0
 10
155.138056
 20
-249.347345
 30
0.0
 10
154.309747
 20
-249.347424
 30
0.0
  0
SPLINE
  5
116
100
AcDbEntity
  8
Battery_holder_3mm_-_cut
 62
7
100
AcDbSpline
 70
8
 71
3
 72
8
 73
4
 74
0
 40
0
 40
0
 40
0
 40
0
 40
1
 40
1
 40
1
 40
1
 10
154.309747
 20
-249.347424
 30
0.0
 10
153.911879
 20
-249.347533
 30
0.0
 10
153.530267
 20
-249.189567
 30
0.0
 10
153.248878
 20
-248.908285
 30
0.0
  0
SPLINE
  5
117
100
AcDbEntity
  8
Battery_holder_3mm_-_cut
 62
7
100
AcDbSpline
 70
8
 71
3
 72
8
 73
4
 74
0
 40
0
 40
0
 40
0
 40
0
 40
1
 40
1
 40
1
 40
1
 10
153.248878
 20
-248.908285
 30
0.0
 10
152.967490
 20
-248.627003
 30
0.0
 10
152.809380
 20
-248.245451
 30
0.0
 10
152.809338
 20
-247.847582
 30
0.0
  0
SPLINE
  5
118
100
AcDbEntity
  8
Battery_holder_3mm_-_cut
 62
7
100
AcDbSpline
 70
8
 71
3
 72
8
 73
4
 74
0
 40
0
 40
0
 40
0
 40
0
 40
1
 40
1
 40
1
 40
1
 10
152.809338
 20
-247.847582
 30
0.0
 10
152.809372
 20
-247.449709
 30
0.0
 10
152.967479
 20
-247.068150
 30
0.0
 10
153.248868
 20
-246.786862
 30
0.0
  0
SPLINE
  5
119
100
AcDbEntity
  8
Battery_holder_3mm_-_cut
 62
7
100
AcDbSpline
 70
8
 71
3
 72
8
 73
4
 74
0
 40
0
 40
0
 40
0
 40
0
 40
1
 40
1
 40
1
 40
1
 10
153.248868
 20
-246.786862
 30
0.0
 10
153.530258
 20
-246.505573
 30
0.0
 10
153.911874
 20
-246.347604
 30
0.0
 10
154.309747
 20
-246.347712
 30
0.0
  0
LINE
  5
11a
100
AcDbEntity
  8
Battery_holder_3mm_-_cut
 62
7
100
AcDbLine
 10
154.309747
 20
-246.347712
 30
0.0
 11
154.309747
 21
-246.347712
 31
0.0
  0
SPLINE
  5
11b
100
AcDbEntity
  8
Battery_holder_3mm_-_cut
 62
7
100
AcDbSpline
 70
8
 71
3
 72
8
 73
4
 74
0
 40
0
 40
0
 40
0
 40
0
 40
1
 40
1
 40
1
 40
1
 10
160.309724
 20
-253.347586
 30
0.0
 10
161.138045
 20
-253.347664
 30
0.0
 10
161.809511
 20
-254.019134
 30
0.0
 10
161.809582
 20
-254.847456
 30
0.0
  0
SPLINE
  5
11c
100
AcDbEntity
  8
Battery_holder_3mm_-_cut
 62
7
100
AcDbSpline
 70
8
 71
3
 72
8
 73
4
 74
0
 40
0
 40
0
 40
0
 40
0
 40
1
 40
1
 40
1
 40
1
 10
161.809582
 20
-254.847456
 30
0.0
 10
161.809511
 20
-255.675777
 30
0.0
 10
161.138045
 20
-256.347248
 30
0.0
 10
160.309724
 20
-256.347326
 30
0.0
  0
SPLINE
  5
11d
100
AcDbEntity
  8
Battery_holder_3mm_-_cut
 62
7
100
AcDbSpline
 70
8
 71
3
 72
8
 73
4
 74
0
 40
0
 40
0
 40
0
 40
0
 40
1
 40
1
 40
1
 40
1
 10
160.309724
 20
-256.347326
 30
0.0
 10
159.481404
 20
-256.347246
 30
0.0
 10
158.809940
 20
-255.675776
 30
0.0
 10
158.809868
 20
-254.847456
 30
0.0
  0
SPLINE
  5
11e
100
AcDbEntity
  8
Battery_holder_3mm_-_cut
 62
7
100
AcDbSpline
 70
8
 71
3
 72
8
 73
4
 74
0
 40
0
 40
0
 40
0
 40
0
 40
1
 40
1
 40
1
 40
1
 10
158.809868
 20
-254.847456
 30
0.0
 10
158.809940
 20
-254.019135
 30
0.0
 10
159.481404
 20
-253.347665
 30
0.0
 10
160.309724
 20
-253.347586
 30
0.0
  0
LINE
  5
11f
100
AcDbEntity
  8
Battery_holder_3mm_-_cut
 62
7
100
AcDbLine
 10
160.309724
 20
-253.347586
 30
0.0
 11
160.309724
 21
-253.347586
 31
0.0
  0
SPLINE
  5
120
100
AcDbEntity
  8
Battery_holder_3mm_-_cut
 62
7
100
AcDbSpline
 70
8
 71
3
 72
8
 73
4
 74
0
 40
0
 40
0
 40
0
 40
0
 40
1
 40
1
 40
1
 40
1
 10
175.309386
 20
-237.847433
 30
0.0
 10
172.657169
 20
-237.847393
 30
0.0
 10
170.113569
 20
-238.900965
 30
0.0
 10
168.238169
 20
-240.776365
 30
0.0
  0
SPLINE
  5
121
100
AcDbEntity
  8
Battery_holder_3mm_-_cut
 62
7
100
AcDbSpline
 70
8
 71
3
 72
8
 73
4
 74
0
 40
0
 40
0
 40
0
 40
0
 40
1
 40
1
 40
1
 40
1
 10
168.238169
 20
-240.776365
 30
0.0
 10
166.362769
 20
-242.651766
 30
0.0
 10
165.309197
 20
-245.195366
 30
0.0
 10
165.309237
 20
-247.847582
 30
0.0
  0
SPLINE
  5
122
100
AcDbEntity
  8
Battery_holder_3mm_-_cut
 62
7
100
AcDbSpline
 70
8
 71
3
 72
8
 73
4
 74
0
 40
0
 40
0
 40
0
 40
0
 40
1
 40
1
 40
1
 40
1
 10
165.309237
 20
-247.847582
 30
0.0
 10
165.309197
 20
-250.499799
 30
0.0
 10
166.362769
 20
-253.043399
 30
0.0
 10
168.238169
 20
-254.918800
 30
0.0
  0
SPLINE
  5
123
100
AcDbEntity
  8
Battery_holder_3mm_-_cut
 62
7
100
AcDbSpline
 70
8
 71
3
 72
8
 73
4
 74
0
 40
0
 40
0
 40
0
 40
0
 40
1
 40
1
 40
1
 40
1
 10
168.238169
 20
-254.918800
 30
0.0
 10
170.113569
 20
-256.794200
 30
0.0
 10
172.657169
 20
-257.847771
 30
0.0
 10
175.309386
 20
-257.847732
 30
0.0
  0
LINE
  5
124
100
AcDbEntity
  8
Battery_holder_3mm_-_cut
 62
7
100
AcDbLine
 10
175.309386
 20
-257.847732
 30
0.0
 11
186.309437
 21
-257.847732
 31
0.0
  0
LINE
  5
125
100
AcDbEntity
  8
Battery_holder_3mm_-_cut
 62
7
100
AcDbLine
 10
186.309437
 20
-257.847732
 30
0.0
 11
186.309437
 21
-237.847433
 31
0.0
  0
LINE
  5
126
100
AcDbEntity
  8
Battery_holder_3mm_-_cut
 62
7
100
AcDbLine
 10
186.309437
 20
-237.847433
 30
0.0
 11
175.309386
 21
-237.847433
 31
0.0
  0
LINE
  5
127
100
AcDbEntity
  8
Battery_holder_3mm_-_cut
 62
7
100
AcDbLine
 10
175.309386
 20
-237.847433
 30
0.0
 11
175.309386
 21
-237.847433
 31
0.0
  0
SPLINE
  5
128
100
AcDbEntity
  8
Battery_holder_3mm_-_cut
 62
7
100
AcDbSpline
 70
8
 71
3
 72
8
 73
4
 74
0
 40
0
 40
0
 40
0
 40
0
 40
1
 40
1
 40
1
 40
1
 10
183.309723
 20
-239.347275
 30
0.0
 10
183.707593
 20
-239.347312
 30
0.0
 10
184.089150
 20
-239.505420
 30
0.0
 10
184.370435
 20
-239.786808
 30
0.0
  0
SPLINE
  5
129
100
AcDbEntity
  8
Battery_holder_3mm_-_cut
 62
7
100
AcDbSpline
 70
8
 71
3
 72
8
 73
4
 74
0
 40
0
 40
0
 40
0
 40
0
 40
1
 40
1
 40
1
 40
1
 10
184.370435
 20
-239.786808
 30
0.0
 10
184.651721
 20
-240.068197
 30
0.0
 10
184.809689
 20
-240.449810
 30
0.0
 10
184.809582
 20
-240.847681
 30
0.0
  0
SPLINE
  5
12a
100
AcDbEntity
  8
Battery_holder_3mm_-_cut
 62
7
100
AcDbSpline
 70
8
 71
3
 72
8
 73
4
 74
0
 40
0
 40
0
 40
0
 40
0
 40
1
 40
1
 40
1
 40
1
 10
184.809582
 20
-240.847681
 30
0.0
 10
184.809510
 20
-241.676002
 30
0.0
 10
184.138044
 20
-242.347473
 30
0.0
 10
183.309723
 20
-242.347551
 30
0.0
  0
SPLINE
  5
12b
100
AcDbEntity
  8
Battery_holder_3mm_-_cut
 62
7
100
AcDbSpline
 70
8
 71
3
 72
8
 73
4
 74
0
 40
0
 40
0
 40
0
 40
0
 40
1
 40
1
 40
1
 40
1
 10
183.309723
 20
-242.347551
 30
0.0
 10
182.481403
 20
-242.347472
 30
0.0
 10
181.809939
 20
-241.676001
 30
0.0
 10
181.809867
 20
-240.847681
 30
0.0
  0
SPLINE
  5
12c
100
AcDbEntity
  8
Battery_holder_3mm_-_cut
 62
7
100
AcDbSpline
 70
8
 71
3
 72
8
 73
4
 74
0
 40
0
 40
0
 40
0
 40
0
 40
1
 40
1
 40
1
 40
1
 10
181.809867
 20
-240.847681
 30
0.0
 10
181.809759
 20
-240.449811
 30
0.0
 10
181.967727
 20
-240.068198
 30
0.0
 10
182.249012
 20
-239.786809
 30
0.0
  0
SPLINE
  5
12d
100
AcDbEntity
  8
Battery_holder_3mm_-_cut
 62
7
100
AcDbSpline
 70
8
 71
3
 72
8
 73
4
 74
0
 40
0
 40
0
 40
0
 40
0
 40
1
 40
1
 40
1
 40
1
 10
182.249012
 20
-239.786809
 30
0.0
 10
182.530297
 20
-239.505421
 30
0.0
 10
182.911853
 20
-239.347313
 30
0.0
 10
183.309723
 20
-239.347275
 30
0.0
  0
LINE
  5
12e
100
AcDbEntity
  8
Battery_holder_3mm_-_cut
 62
7
100
AcDbLine
 10
183.309723
 20
-239.347275
 30
0.0
 11
183.309723
 21
-239.347275
 31
0.0
  0
LINE
  5
12f
100
AcDbEntity
  8
Battery_holder_3mm_-_cut
 62
7
100
AcDbLine
 10
179.041665
 20
-244.847306
 30
0.0
 11
180.773581
 21
-247.847582
 31
0.0
  0
LINE
  5
130
100
AcDbEntity
  8
Battery_holder_3mm_-_cut
 62
7
100
AcDbLine
 10
180.773581
 20
-247.847582
 30
0.0
 11
179.041665
 21
-250.847294
 31
0.0
  0
LINE
  5
131
100
AcDbEntity
  8
Battery_holder_3mm_-_cut
 62
7
100
AcDbLine
 10
179.041665
 20
-250.847294
 30
0.0
 11
175.577827
 21
-250.847294
 31
0.0
  0
LINE
  5
132
100
AcDbEntity
  8
Battery_holder_3mm_-_cut
 62
7
100
AcDbLine
 10
175.577827
 20
-250.847294
 30
0.0
 11
173.845358
 21
-247.847582
 31
0.0
  0
LINE
  5
133
100
AcDbEntity
  8
Battery_holder_3mm_-_cut
 62
7
100
AcDbLine
 10
173.845358
 20
-247.847582
 30
0.0
 11
175.577827
 21
-244.847871
 31
0.0
  0
LINE
  5
134
100
AcDbEntity
  8
Battery_holder_3mm_-_cut
 62
7
100
AcDbLine
 10
175.577827
 20
-244.847871
 30
0.0
 11
179.041665
 21
-244.847871
 31
0.0
  0
LINE
  5
135
100
AcDbEntity
  8
Battery_holder_3mm_-_cut
 62
7
100
AcDbLine
 10
179.041665
 20
-244.847871
 30
0.0
 11
179.041665
 21
-244.847306
 31
0.0
  0
SPLINE
  5
136
100
AcDbEntity
  8
Battery_holder_3mm_-_cut
 62
7
100
AcDbSpline
 70
8
 71
3
 72
8
 73
4
 74
0
 40
0
 40
0
 40
0
 40
0
 40
1
 40
1
 40
1
 40
1
 10
168.309502
 20
-246.347712
 30
0.0
 10
169.137822
 20
-246.347792
 30
0.0
 10
169.809286
 20
-247.019262
 30
0.0
 10
169.809358
 20
-247.847582
 30
0.0
  0
SPLINE
  5
137
100
AcDbEntity
  8
Battery_holder_3mm_-_cut
 62
7
100
AcDbSpline
 70
8
 71
3
 72
8
 73
4
 74
0
 40
0
 40
0
 40
0
 40
0
 40
1
 40
1
 40
1
 40
1
 10
169.809358
 20
-247.847582
 30
0.0
 10
169.809270
 20
-248.675891
 30
0.0
 10
169.137811
 20
-249.347345
 30
0.0
 10
168.309502
 20
-249.347424
 30
0.0
  0
SPLINE
  5
138
100
AcDbEntity
  8
Battery_holder_3mm_-_cut
 62
7
100
AcDbSpline
 70
8
 71
3
 72
8
 73
4
 74
0
 40
0
 40
0
 40
0
 40
0
 40
1
 40
1
 40
1
 40
1
 10
168.309502
 20
-249.347424
 30
0.0
 10
167.481193
 20
-249.347345
 30
0.0
 10
166.809733
 20
-248.675891
 30
0.0
 10
166.809646
 20
-247.847582
 30
0.0
  0
SPLINE
  5
139
100
AcDbEntity
  8
Battery_holder_3mm_-_cut
 62
7
100
AcDbSpline
 70
8
 71
3
 72
8
 73
4
 74
0
 40
0
 40
0
 40
0
 40
0
 40
1
 40
1
 40
1
 40
1
 10
166.809646
 20
-247.847582
 30
0.0
 10
166.809718
 20
-247.019262
 30
0.0
 10
167.481182
 20
-246.347792
 30
0.0
 10
168.309502
 20
-246.347712
 30
0.0
  0
LINE
  5
13a
100
AcDbEntity
  8
Battery_holder_3mm_-_cut
 62
7
100
AcDbLine
 10
168.309502
 20
-246.347712
 30
0.0
 11
168.309502
 21
-246.347712
 31
0.0
  0
SPLINE
  5
13b
100
AcDbEntity
  8
Battery_holder_3mm_-_cut
 62
7
100
AcDbSpline
 70
8
 71
3
 72
8
 73
4
 74
0
 40
0
 40
0
 40
0
 40
0
 40
1
 40
1
 40
1
 40
1
 10
183.309723
 20
-253.347586
 30
0.0
 10
184.138044
 20
-253.347664
 30
0.0
 10
184.809510
 20
-254.019134
 30
0.0
 10
184.809582
 20
-254.847456
 30
0.0
  0
SPLINE
  5
13c
100
AcDbEntity
  8
Battery_holder_3mm_-_cut
 62
7
100
AcDbSpline
 70
8
 71
3
 72
8
 73
4
 74
0
 40
0
 40
0
 40
0
 40
0
 40
1
 40
1
 40
1
 40
1
 10
184.809582
 20
-254.847456
 30
0.0
 10
184.809510
 20
-255.675777
 30
0.0
 10
184.138044
 20
-256.347248
 30
0.0
 10
183.309723
 20
-256.347326
 30
0.0
  0
SPLINE
  5
13d
100
AcDbEntity
  8
Battery_holder_3mm_-_cut
 62
7
100
AcDbSpline
 70
8
 71
3
 72
8
 73
4
 74
0
 40
0
 40
0
 40
0
 40
0
 40
1
 40
1
 40
1
 40
1
 10
183.309723
 20
-256.347326
 30
0.0
 10
182.481403
 20
-256.347246
 30
0.0
 10
181.809939
 20
-255.675776
 30
0.0
 10
181.809867
 20
-254.847456
 30
0.0
  0
SPLINE
  5
13e
100
AcDbEntity
  8
Battery_holder_3mm_-_cut
 62
7
100
AcDbSpline
 70
8
 71
3
 72
8
 73
4
 74
0
 40
0
 40
0
 40
0
 40
0
 40
1
 40
1
 40
1
 40
1
 10
181.809867
 20
-254.847456
 30
0.0
 10
181.809939
 20
-254.019135
 30
0.0
 10
182.481403
 20
-253.347665
 30
0.0
 10
183.309723
 20
-253.347586
 30
0.0
  0
LINE
  5
13f
100
AcDbEntity
  8
Battery_holder_3mm_-_cut
 62
7
100
AcDbLine
 10
183.309723
 20
-253.347586
 30
0.0
 11
183.309723
 21
-253.347586
 31
0.0
  0
SPLINE
  5
140
100
AcDbEntity
  8
Battery_holder_3mm_-_cut
 62
7
100
AcDbSpline
 70
8
 71
3
 72
8
 73
4
 74
0
 40
0
 40
0
 40
0
 40
0
 40
1
 40
1
 40
1
 40
1
 10
122.309588
 20
-259.848010
 30
0.0
 10
119.657371
 20
-259.847970
 30
0.0
 10
117.113771
 20
-260.901542
 30
0.0
 10
115.238371
 20
-262.776942
 30
0.0
  0
SPLINE
  5
141
100
AcDbEntity
  8
Battery_holder_3mm_-_cut
 62
7
100
AcDbSpline
 70
8
 71
3
 72
8
 73
4
 74
0
 40
0
 40
0
 40
0
 40
0
 40
1
 40
1
 40
1
 40
1
 10
115.238371
 20
-262.776942
 30
0.0
 10
113.362971
 20
-264.652343
 30
0.0
 10
112.309399
 20
-267.195943
 30
0.0
 10
112.309439
 20
-269.848159
 30
0.0
  0
SPLINE
  5
142
100
AcDbEntity
  8
Battery_holder_3mm_-_cut
 62
7
100
AcDbSpline
 70
8
 71
3
 72
8
 73
4
 74
0
 40
0
 40
0
 40
0
 40
0
 40
1
 40
1
 40
1
 40
1
 10
112.309439
 20
-269.848159
 30
0.0
 10
112.309399
 20
-272.500376
 30
0.0
 10
113.362971
 20
-275.043976
 30
0.0
 10
115.238371
 20
-276.919376
 30
0.0
  0
SPLINE
  5
143
100
AcDbEntity
  8
Battery_holder_3mm_-_cut
 62
7
100
AcDbSpline
 70
8
 71
3
 72
8
 73
4
 74
0
 40
0
 40
0
 40
0
 40
0
 40
1
 40
1
 40
1
 40
1
 10
115.238371
 20
-276.919376
 30
0.0
 10
117.113771
 20
-278.794777
 30
0.0
 10
119.657371
 20
-279.848348
 30
0.0
 10
122.309588
 20
-279.848309
 30
0.0
  0
SPLINE
  5
144
100
AcDbEntity
  8
Battery_holder_3mm_-_cut
 62
7
100
AcDbSpline
 70
8
 71
3
 72
8
 73
4
 74
0
 40
0
 40
0
 40
0
 40
0
 40
1
 40
1
 40
1
 40
1
 10
122.309588
 20
-279.848309
 30
0.0
 10
122.309588
 20
-279.848309
 30
0.0
 10
222.309411
 20
-279.848309
 30
0.0
 10
222.309411
 20
-279.848309
 30
0.0
  0
SPLINE
  5
145
100
AcDbEntity
  8
Battery_holder_3mm_-_cut
 62
7
100
AcDbSpline
 70
8
 71
3
 72
8
 73
4
 74
0
 40
0
 40
0
 40
0
 40
0
 40
1
 40
1
 40
1
 40
1
 10
222.309411
 20
-279.848309
 30
0.0
 10
224.961627
 20
-279.848347
 30
0.0
 10
227.505226
 20
-278.794776
 30
0.0
 10
229.380626
 20
-276.919375
 30
0.0
  0
SPLINE
  5
146
100
AcDbEntity
  8
Battery_holder_3mm_-_cut
 62
7
100
AcDbSpline
 70
8
 71
3
 72
8
 73
4
 74
0
 40
0
 40
0
 40
0
 40
0
 40
1
 40
1
 40
1
 40
1
 10
229.380626
 20
-276.919375
 30
0.0
 10
231.256026
 20
-275.043975
 30
0.0
 10
232.309597
 20
-272.500375
 30
0.0
 10
232.309557
 20
-269.848159
 30
0.0
  0
SPLINE
  5
147
100
AcDbEntity
  8
Battery_holder_3mm_-_cut
 62
7
100
AcDbSpline
 70
8
 71
3
 72
8
 73
4
 74
0
 40
0
 40
0
 40
0
 40
0
 40
1
 40
1
 40
1
 40
1
 10
232.309557
 20
-269.848159
 30
0.0
 10
232.309597
 20
-267.195943
 30
0.0
 10
231.256026
 20
-264.652343
 30
0.0
 10
229.380626
 20
-262.776943
 30
0.0
  0
SPLINE
  5
148
100
AcDbEntity
  8
Battery_holder_3mm_-_cut
 62
7
100
AcDbSpline
 70
8
 71
3
 72
8
 73
4
 74
0
 40
0
 40
0
 40
0
 40
0
 40
1
 40
1
 40
1
 40
1
 10
229.380626
 20
-262.776943
 30
0.0
 10
227.505226
 20
-260.901543
 30
0.0
 10
224.961627
 20
-259.847971
 30
0.0
 10
222.309411
 20
-259.848010
 30
0.0
  0
LINE
  5
149
100
AcDbEntity
  8
Battery_holder_3mm_-_cut
 62
7
100
AcDbLine
 10
222.309411
 20
-259.848010
 30
0.0
 11
122.309588
 21
-259.848010
 31
0.0
  0
LINE
  5
14a
100
AcDbEntity
  8
Battery_holder_3mm_-_cut
 62
7
100
AcDbLine
 10
122.309588
 20
-259.848010
 30
0.0
 11
122.309588
 21
-259.848010
 31
0.0
  0
SPLINE
  5
14b
100
AcDbEntity
  8
Battery_holder_3mm_-_cut
 62
7
100
AcDbSpline
 70
8
 71
3
 72
8
 73
4
 74
0
 40
0
 40
0
 40
0
 40
0
 40
1
 40
1
 40
1
 40
1
 10
122.309588
 20
-268.347753
 30
0.0
 10
122.707458
 20
-268.347791
 30
0.0
 10
123.089014
 20
-268.505899
 30
0.0
 10
123.370299
 20
-268.787287
 30
0.0
  0
SPLINE
  5
14c
100
AcDbEntity
  8
Battery_holder_3mm_-_cut
 62
7
100
AcDbSpline
 70
8
 71
3
 72
8
 73
4
 74
0
 40
0
 40
0
 40
0
 40
0
 40
1
 40
1
 40
1
 40
1
 10
123.370299
 20
-268.787287
 30
0.0
 10
123.651584
 20
-269.068676
 30
0.0
 10
123.809552
 20
-269.450289
 30
0.0
 10
123.809444
 20
-269.848159
 30
0.0
  0
SPLINE
  5
14d
100
AcDbEntity
  8
Battery_holder_3mm_-_cut
 62
7
100
AcDbSpline
 70
8
 71
3
 72
8
 73
4
 74
0
 40
0
 40
0
 40
0
 40
0
 40
1
 40
1
 40
1
 40
1
 10
123.809444
 20
-269.848159
 30
0.0
 10
123.809372
 20
-270.676479
 30
0.0
 10
123.137908
 20
-271.347950
 30
0.0
 10
122.309588
 20
-271.348029
 30
0.0
  0
SPLINE
  5
14e
100
AcDbEntity
  8
Battery_holder_3mm_-_cut
 62
7
100
AcDbSpline
 70
8
 71
3
 72
8
 73
4
 74
0
 40
0
 40
0
 40
0
 40
0
 40
1
 40
1
 40
1
 40
1
 10
122.309588
 20
-271.348029
 30
0.0
 10
121.911715
 20
-271.348138
 30
0.0
 10
121.530099
 20
-271.190168
 30
0.0
 10
121.248709
 20
-270.908880
 30
0.0
  0
SPLINE
  5
14f
100
AcDbEntity
  8
Battery_holder_3mm_-_cut
 62
7
100
AcDbSpline
 70
8
 71
3
 72
8
 73
4
 74
0
 40
0
 40
0
 40
0
 40
0
 40
1
 40
1
 40
1
 40
1
 10
121.248709
 20
-270.908880
 30
0.0
 10
120.967320
 20
-270.627592
 30
0.0
 10
120.809213
 20
-270.246032
 30
0.0
 10
120.809179
 20
-269.848159
 30
0.0
  0
SPLINE
  5
150
100
AcDbEntity
  8
Battery_holder_3mm_-_cut
 62
7
100
AcDbSpline
 70
8
 71
3
 72
8
 73
4
 74
0
 40
0
 40
0
 40
0
 40
0
 40
1
 40
1
 40
1
 40
1
 10
120.809179
 20
-269.848159
 30
0.0
 10
120.809071
 20
-269.450193
 30
0.0
 10
120.967115
 20
-269.068496
 30
0.0
 10
121.248520
 20
-268.787092
 30
0.0
  0
SPLINE
  5
151
100
AcDbEntity
  8
Battery_holder_3mm_-_cut
 62
7
100
AcDbSpline
 70
8
 71
3
 72
8
 73
4
 74
0
 40
0
 40
0
 40
0
 40
0
 40
1
 40
1
 40
1
 40
1
 10
121.248520
 20
-268.787092
 30
0.0
 10
121.529924
 20
-268.505688
 30
0.0
 10
121.911622
 20
-268.347645
 30
0.0
 10
122.309588
 20
-268.347753
 30
0.0
  0
LINE
  5
152
100
AcDbEntity
  8
Battery_holder_3mm_-_cut
 62
7
100
AcDbLine
 10
122.309588
 20
-268.347753
 30
0.0
 11
122.309588
 21
-268.347753
 31
0.0
  0
SPLINE
  5
153
100
AcDbEntity
  8
Battery_holder_3mm_-_cut
 62
7
100
AcDbSpline
 70
8
 71
3
 72
8
 73
4
 74
0
 40
0
 40
0
 40
0
 40
0
 40
1
 40
1
 40
1
 40
1
 10
222.309411
 20
-268.347753
 30
0.0
 10
222.707281
 20
-268.347791
 30
0.0
 10
223.088836
 20
-268.505899
 30
0.0
 10
223.370121
 20
-268.787287
 30
0.0
  0
SPLINE
  5
154
100
AcDbEntity
  8
Battery_holder_3mm_-_cut
 62
7
100
AcDbSpline
 70
8
 71
3
 72
8
 73
4
 74
0
 40
0
 40
0
 40
0
 40
0
 40
1
 40
1
 40
1
 40
1
 10
223.370121
 20
-268.787287
 30
0.0
 10
223.651406
 20
-269.068676
 30
0.0
 10
223.809374
 20
-269.450289
 30
0.0
 10
223.809266
 20
-269.848159
 30
0.0
  0
SPLINE
  5
155
100
AcDbEntity
  8
Battery_holder_3mm_-_cut
 62
7
100
AcDbSpline
 70
8
 71
3
 72
8
 73
4
 74
0
 40
0
 40
0
 40
0
 40
0
 40
1
 40
1
 40
1
 40
1
 10
223.809266
 20
-269.848159
 30
0.0
 10
223.809195
 20
-270.676479
 30
0.0
 10
223.137731
 20
-271.347950
 30
0.0
 10
222.309411
 20
-271.348029
 30
0.0
  0
SPLINE
  5
156
100
AcDbEntity
  8
Battery_holder_3mm_-_cut
 62
7
100
AcDbSpline
 70
8
 71
3
 72
8
 73
4
 74
0
 40
0
 40
0
 40
0
 40
0
 40
1
 40
1
 40
1
 40
1
 10
222.309411
 20
-271.348029
 30
0.0
 10
221.481089
 20
-271.347951
 30
0.0
 10
220.809624
 20
-270.676480
 30
0.0
 10
220.809552
 20
-269.848159
 30
0.0
  0
SPLINE
  5
157
100
AcDbEntity
  8
Battery_holder_3mm_-_cut
 62
7
100
AcDbSpline
 70
8
 71
3
 72
8
 73
4
 74
0
 40
0
 40
0
 40
0
 40
0
 40
1
 40
1
 40
1
 40
1
 10
220.809552
 20
-269.848159
 30
0.0
 10
220.809444
 20
-269.450289
 30
0.0
 10
220.967412
 20
-269.068675
 30
0.0
 10
221.248698
 20
-268.787286
 30
0.0
  0
SPLINE
  5
158
100
AcDbEntity
  8
Battery_holder_3mm_-_cut
 62
7
100
AcDbSpline
 70
8
 71
3
 72
8
 73
4
 74
0
 40
0
 40
0
 40
0
 40
0
 40
1
 40
1
 40
1
 40
1
 10
221.248698
 20
-268.787286
 30
0.0
 10
221.529984
 20
-268.505898
 30
0.0
 10
221.911540
 20
-268.347791
 30
0.0
 10
222.309411
 20
-268.347753
 30
0.0
  0
LINE
  5
159
100
AcDbEntity
  8
Battery_holder_3mm_-_cut
 62
7
100
AcDbLine
 10
222.309411
 20
-268.347753
 30
0.0
 11
222.309411
 21
-268.347753
 31
0.0
  0
SPLINE
  5
15a
100
AcDbEntity
  8
Battery_holder_3mm_-_cut
 62
7
100
AcDbSpline
 70
8
 71
3
 72
8
 73
4
 74
0
 40
0
 40
0
 40
0
 40
0
 40
1
 40
1
 40
1
 40
1
 10
222.309286
 20
-237.847151
 30
0.0
 10
224.961503
 20
-237.847111
 30
0.0
 10
227.505103
 20
-238.900683
 30
0.0
 10
229.380504
 20
-240.776083
 30
0.0
  0
SPLINE
  5
15b
100
AcDbEntity
  8
Battery_holder_3mm_-_cut
 62
7
100
AcDbSpline
 70
8
 71
3
 72
8
 73
4
 74
0
 40
0
 40
0
 40
0
 40
0
 40
1
 40
1
 40
1
 40
1
 10
229.380504
 20
-240.776083
 30
0.0
 10
231.255904
 20
-242.651483
 30
0.0
 10
232.309475
 20
-245.195084
 30
0.0
 10
232.309436
 20
-247.847300
 30
0.0
  0
SPLINE
  5
15c
100
AcDbEntity
  8
Battery_holder_3mm_-_cut
 62
7
100
AcDbSpline
 70
8
 71
3
 72
8
 73
4
 74
0
 40
0
 40
0
 40
0
 40
0
 40
1
 40
1
 40
1
 40
1
 10
232.309436
 20
-247.847300
 30
0.0
 10
232.309475
 20
-250.499517
 30
0.0
 10
231.255904
 20
-253.043117
 30
0.0
 10
229.380504
 20
-254.918517
 30
0.0
  0
SPLINE
  5
15d
100
AcDbEntity
  8
Battery_holder_3mm_-_cut
 62
7
100
AcDbSpline
 70
8
 71
3
 72
8
 73
4
 74
0
 40
0
 40
0
 40
0
 40
0
 40
1
 40
1
 40
1
 40
1
 10
229.380504
 20
-254.918517
 30
0.0
 10
227.505103
 20
-256.793918
 30
0.0
 10
224.961503
 20
-257.847489
 30
0.0
 10
222.309286
 20
-257.847450
 30
0.0
  0
LINE
  5
15e
100
AcDbEntity
  8
Battery_holder_3mm_-_cut
 62
7
100
AcDbLine
 10
222.309286
 20
-257.847450
 30
0.0
 11
211.309235
 21
-257.847450
 31
0.0
  0
LINE
  5
15f
100
AcDbEntity
  8
Battery_holder_3mm_-_cut
 62
7
100
AcDbLine
 10
211.309235
 20
-257.847450
 30
0.0
 11
211.309235
 21
-237.847151
 31
0.0
  0
LINE
  5
160
100
AcDbEntity
  8
Battery_holder_3mm_-_cut
 62
7
100
AcDbLine
 10
211.309235
 20
-237.847151
 30
0.0
 11
222.309286
 21
-237.847151
 31
0.0
  0
LINE
  5
161
100
AcDbEntity
  8
Battery_holder_3mm_-_cut
 62
7
100
AcDbLine
 10
222.309286
 20
-237.847151
 30
0.0
 11
222.309286
 21
-237.847151
 31
0.0
  0
SPLINE
  5
162
100
AcDbEntity
  8
Battery_holder_3mm_-_cut
 62
7
100
AcDbSpline
 70
8
 71
3
 72
8
 73
4
 74
0
 40
0
 40
0
 40
0
 40
0
 40
1
 40
1
 40
1
 40
1
 10
214.308950
 20
-239.346993
 30
0.0
 10
213.911079
 20
-239.347030
 30
0.0
 10
213.529523
 20
-239.505138
 30
0.0
 10
213.248237
 20
-239.786526
 30
0.0
  0
SPLINE
  5
163
100
AcDbEntity
  8
Battery_holder_3mm_-_cut
 62
7
100
AcDbSpline
 70
8
 71
3
 72
8
 73
4
 74
0
 40
0
 40
0
 40
0
 40
0
 40
1
 40
1
 40
1
 40
1
 10
213.248237
 20
-239.786526
 30
0.0
 10
212.966951
 20
-240.067914
 30
0.0
 10
212.808983
 20
-240.449528
 30
0.0
 10
212.809091
 20
-240.847399
 30
0.0
  0
SPLINE
  5
164
100
AcDbEntity
  8
Battery_holder_3mm_-_cut
 62
7
100
AcDbSpline
 70
8
 71
3
 72
8
 73
4
 74
0
 40
0
 40
0
 40
0
 40
0
 40
1
 40
1
 40
1
 40
1
 10
212.809091
 20
-240.847399
 30
0.0
 10
212.809163
 20
-241.675720
 30
0.0
 10
213.480628
 20
-242.347191
 30
0.0
 10
214.308950
 20
-242.347269
 30
0.0
  0
SPLINE
  5
165
100
AcDbEntity
  8
Battery_holder_3mm_-_cut
 62
7
100
AcDbSpline
 70
8
 71
3
 72
8
 73
4
 74
0
 40
0
 40
0
 40
0
 40
0
 40
1
 40
1
 40
1
 40
1
 10
214.308950
 20
-242.347269
 30
0.0
 10
215.137270
 20
-242.347189
 30
0.0
 10
215.808734
 20
-241.675719
 30
0.0
 10
215.808806
 20
-240.847399
 30
0.0
  0
SPLINE
  5
166
100
AcDbEntity
  8
Battery_holder_3mm_-_cut
 62
7
100
AcDbSpline
 70
8
 71
3
 72
8
 73
4
 74
0
 40
0
 40
0
 40
0
 40
0
 40
1
 40
1
 40
1
 40
1
 10
215.808806
 20
-240.847399
 30
0.0
 10
215.808913
 20
-240.449529
 30
0.0
 10
215.650945
 20
-240.067915
 30
0.0
 10
215.369660
 20
-239.786527
 30
0.0
  0
SPLINE
  5
167
100
AcDbEntity
  8
Battery_holder_3mm_-_cut
 62
7
100
AcDbSpline
 70
8
 71
3
 72
8
 73
4
 74
0
 40
0
 40
0
 40
0
 40
0
 40
1
 40
1
 40
1
 40
1
 10
215.369660
 20
-239.786527
 30
0.0
 10
215.088375
 20
-239.505139
 30
0.0
 10
214.706820
 20
-239.347031
 30
0.0
 10
214.308950
 20
-239.346993
 30
0.0
  0
LINE
  5
168
100
AcDbEntity
  8
Battery_holder_3mm_-_cut
 62
7
100
AcDbLine
 10
214.308950
 20
-239.346993
 30
0.0
 11
214.308950
 21
-239.346993
 31
0.0
  0
SPLINE
  5
169
100
AcDbEntity
  8
Battery_holder_3mm_-_cut
 62
7
100
AcDbSpline
 70
8
 71
3
 72
8
 73
4
 74
0
 40
0
 40
0
 40
0
 40
0
 40
1
 40
1
 40
1
 40
1
 10
229.309171
 20
-246.347430
 30
0.0
 10
228.480851
 20
-246.347510
 30
0.0
 10
227.809387
 20
-247.018980
 30
0.0
 10
227.809315
 20
-247.847300
 30
0.0
  0
SPLINE
  5
16a
100
AcDbEntity
  8
Battery_holder_3mm_-_cut
 62
7
100
AcDbSpline
 70
8
 71
3
 72
8
 73
4
 74
0
 40
0
 40
0
 40
0
 40
0
 40
1
 40
1
 40
1
 40
1
 10
227.809315
 20
-247.847300
 30
0.0
 10
227.809402
 20
-248.675609
 30
0.0
 10
228.480862
 20
-249.347062
 30
0.0
 10
229.309171
 20
-249.347142
 30
0.0
  0
SPLINE
  5
16b
100
AcDbEntity
  8
Battery_holder_3mm_-_cut
 62
7
100
AcDbSpline
 70
8
 71
3
 72
8
 73
4
 74
0
 40
0
 40
0
 40
0
 40
0
 40
1
 40
1
 40
1
 40
1
 10
229.309171
 20
-249.347142
 30
0.0
 10
230.137480
 20
-249.347062
 30
0.0
 10
230.808939
 20
-248.675609
 30
0.0
 10
230.809027
 20
-247.847300
 30
0.0
  0
SPLINE
  5
16c
100
AcDbEntity
  8
Battery_holder_3mm_-_cut
 62
7
100
AcDbSpline
 70
8
 71
3
 72
8
 73
4
 74
0
 40
0
 40
0
 40
0
 40
0
 40
1
 40
1
 40
1
 40
1
 10
230.809027
 20
-247.847300
 30
0.0
 10
230.808955
 20
-247.018980
 30
0.0
 10
230.137491
 20
-246.347510
 30
0.0
 10
229.309171
 20
-246.347430
 30
0.0
  0
LINE
  5
16d
100
AcDbEntity
  8
Battery_holder_3mm_-_cut
 62
7
100
AcDbLine
 10
229.309171
 20
-246.347430
 30
0.0
 11
229.309171
 21
-246.347430
 31
0.0
  0
SPLINE
  5
16e
100
AcDbEntity
  8
Battery_holder_3mm_-_cut
 62
7
100
AcDbSpline
 70
8
 71
3
 72
8
 73
4
 74
0
 40
0
 40
0
 40
0
 40
0
 40
1
 40
1
 40
1
 40
1
 10
220.308926
 20
-246.347430
 30
0.0
 10
219.480606
 20
-246.347510
 30
0.0
 10
218.809142
 20
-247.018980
 30
0.0
 10
218.809070
 20
-247.847300
 30
0.0
  0
SPLINE
  5
16f
100
AcDbEntity
  8
Battery_holder_3mm_-_cut
 62
7
100
AcDbSpline
 70
8
 71
3
 72
8
 73
4
 74
0
 40
0
 40
0
 40
0
 40
0
 40
1
 40
1
 40
1
 40
1
 10
218.809070
 20
-247.847300
 30
0.0
 10
218.809158
 20
-248.675609
 30
0.0
 10
219.480617
 20
-249.347062
 30
0.0
 10
220.308926
 20
-249.347142
 30
0.0
  0
SPLINE
  5
170
100
AcDbEntity
  8
Battery_holder_3mm_-_cut
 62
7
100
AcDbSpline
 70
8
 71
3
 72
8
 73
4
 74
0
 40
0
 40
0
 40
0
 40
0
 40
1
 40
1
 40
1
 40
1
 10
220.308926
 20
-249.347142
 30
0.0
 10
220.706795
 20
-249.347250
 30
0.0
 10
221.088407
 20
-249.189285
 30
0.0
 10
221.369795
 20
-248.908003
 30
0.0
  0
SPLINE
  5
171
100
AcDbEntity
  8
Battery_holder_3mm_-_cut
 62
7
100
AcDbSpline
 70
8
 71
3
 72
8
 73
4
 74
0
 40
0
 40
0
 40
0
 40
0
 40
1
 40
1
 40
1
 40
1
 10
221.369795
 20
-248.908003
 30
0.0
 10
221.651184
 20
-248.626721
 30
0.0
 10
221.809293
 20
-248.245168
 30
0.0
 10
221.809335
 20
-247.847300
 30
0.0
  0
SPLINE
  5
172
100
AcDbEntity
  8
Battery_holder_3mm_-_cut
 62
7
100
AcDbSpline
 70
8
 71
3
 72
8
 73
4
 74
0
 40
0
 40
0
 40
0
 40
0
 40
1
 40
1
 40
1
 40
1
 10
221.809335
 20
-247.847300
 30
0.0
 10
221.809301
 20
-247.449427
 30
0.0
 10
221.651194
 20
-247.067868
 30
0.0
 10
221.369805
 20
-246.786579
 30
0.0
  0
SPLINE
  5
173
100
AcDbEntity
  8
Battery_holder_3mm_-_cut
 62
7
100
AcDbSpline
 70
8
 71
3
 72
8
 73
4
 74
0
 40
0
 40
0
 40
0
 40
0
 40
1
 40
1
 40
1
 40
1
 10
221.369805
 20
-246.786579
 30
0.0
 10
221.088416
 20
-246.505291
 30
0.0
 10
220.706799
 20
-246.347322
 30
0.0
 10
220.308926
 20
-246.347430
 30
0.0
  0
LINE
  5
174
100
AcDbEntity
  8
Battery_holder_3mm_-_cut
 62
7
100
AcDbLine
 10
220.308926
 20
-246.347430
 30
0.0
 11
220.308926
 21
-246.347430
 31
0.0
  0
SPLINE
  5
175
100
AcDbEntity
  8
Battery_holder_3mm_-_cut
 62
7
100
AcDbSpline
 70
8
 71
3
 72
8
 73
4
 74
0
 40
0
 40
0
 40
0
 40
0
 40
1
 40
1
 40
1
 40
1
 10
214.308950
 20
-253.347303
 30
0.0
 10
213.480628
 20
-253.347381
 30
0.0
 10
212.809163
 20
-254.018852
 30
0.0
 10
212.809091
 20
-254.847173
 30
0.0
  0
SPLINE
  5
176
100
AcDbEntity
  8
Battery_holder_3mm_-_cut
 62
7
100
AcDbSpline
 70
8
 71
3
 72
8
 73
4
 74
0
 40
0
 40
0
 40
0
 40
0
 40
1
 40
1
 40
1
 40
1
 10
212.809091
 20
-254.847173
 30
0.0
 10
212.809163
 20
-255.675494
 30
0.0
 10
213.480628
 20
-256.346965
 30
0.0
 10
214.308950
 20
-256.347043
 30
0.0
  0
SPLINE
  5
177
100
AcDbEntity
  8
Battery_holder_3mm_-_cut
 62
7
100
AcDbSpline
 70
8
 71
3
 72
8
 73
4
 74
0
 40
0
 40
0
 40
0
 40
0
 40
1
 40
1
 40
1
 40
1
 10
214.308950
 20
-256.347043
 30
0.0
 10
215.137270
 20
-256.346964
 30
0.0
 10
215.808734
 20
-255.675493
 30
0.0
 10
215.808806
 20
-254.847173
 30
0.0
  0
SPLINE
  5
178
100
AcDbEntity
  8
Battery_holder_3mm_-_cut
 62
7
100
AcDbSpline
 70
8
 71
3
 72
8
 73
4
 74
0
 40
0
 40
0
 40
0
 40
0
 40
1
 40
1
 40
1
 40
1
 10
215.808806
 20
-254.847173
 30
0.0
 10
215.808734
 20
-254.018853
 30
0.0
 10
215.137270
 20
-253.347383
 30
0.0
 10
214.308950
 20
-253.347303
 30
0.0
  0
LINE
  5
179
100
AcDbEntity
  8
Battery_holder_3mm_-_cut
 62
7
100
AcDbLine
 10
214.308950
 20
-253.347303
 30
0.0
 11
214.308950
 21
-253.347303
 31
0.0
  0
SPLINE
  5
17a
100
AcDbEntity
  8
Battery_holder_3mm_-_cut
 62
7
100
AcDbSpline
 70
8
 71
3
 72
8
 73
4
 74
0
 40
0
 40
0
 40
0
 40
0
 40
1
 40
1
 40
1
 40
1
 10
199.309287
 20
-237.847433
 30
0.0
 10
201.961504
 20
-237.847393
 30
0.0
 10
204.505104
 20
-238.900965
 30
0.0
 10
206.380504
 20
-240.776365
 30
0.0
  0
SPLINE
  5
17b
100
AcDbEntity
  8
Battery_holder_3mm_-_cut
 62
7
100
AcDbSpline
 70
8
 71
3
 72
8
 73
4
 74
0
 40
0
 40
0
 40
0
 40
0
 40
1
 40
1
 40
1
 40
1
 10
206.380504
 20
-240.776365
 30
0.0
 10
208.255905
 20
-242.651766
 30
0.0
 10
209.309476
 20
-245.195366
 30
0.0
 10
209.309437
 20
-247.847582
 30
0.0
  0
SPLINE
  5
17c
100
AcDbEntity
  8
Battery_holder_3mm_-_cut
 62
7
100
AcDbSpline
 70
8
 71
3
 72
8
 73
4
 74
0
 40
0
 40
0
 40
0
 40
0
 40
1
 40
1
 40
1
 40
1
 10
209.309437
 20
-247.847582
 30
0.0
 10
209.309476
 20
-250.499799
 30
0.0
 10
208.255905
 20
-253.043399
 30
0.0
 10
206.380504
 20
-254.918800
 30
0.0
  0
SPLINE
  5
17d
100
AcDbEntity
  8
Battery_holder_3mm_-_cut
 62
7
100
AcDbSpline
 70
8
 71
3
 72
8
 73
4
 74
0
 40
0
 40
0
 40
0
 40
0
 40
1
 40
1
 40
1
 40
1
 10
206.380504
 20
-254.918800
 30
0.0
 10
204.505104
 20
-256.794200
 30
0.0
 10
201.961504
 20
-257.847771
 30
0.0
 10
199.309287
 20
-257.847732
 30
0.0
  0
LINE
  5
17e
100
AcDbEntity
  8
Battery_holder_3mm_-_cut
 62
7
100
AcDbLine
 10
199.309287
 20
-257.847732
 30
0.0
 11
188.309236
 21
-257.847732
 31
0.0
  0
LINE
  5
17f
100
AcDbEntity
  8
Battery_holder_3mm_-_cut
 62
7
100
AcDbLine
 10
188.309236
 20
-257.847732
 30
0.0
 11
188.309236
 21
-237.847433
 31
0.0
  0
LINE
  5
180
100
AcDbEntity
  8
Battery_holder_3mm_-_cut
 62
7
100
AcDbLine
 10
188.309236
 20
-237.847433
 30
0.0
 11
199.309287
 21
-237.847433
 31
0.0
  0
LINE
  5
181
100
AcDbEntity
  8
Battery_holder_3mm_-_cut
 62
7
100
AcDbLine
 10
199.309287
 20
-237.847433
 30
0.0
 11
199.309287
 21
-237.847433
 31
0.0
  0
SPLINE
  5
182
100
AcDbEntity
  8
Battery_holder_3mm_-_cut
 62
7
100
AcDbSpline
 70
8
 71
3
 72
8
 73
4
 74
0
 40
0
 40
0
 40
0
 40
0
 40
1
 40
1
 40
1
 40
1
 10
191.308950
 20
-239.347275
 30
0.0
 10
190.911080
 20
-239.347312
 30
0.0
 10
190.529524
 20
-239.505420
 30
0.0
 10
190.248238
 20
-239.786808
 30
0.0
  0
SPLINE
  5
183
100
AcDbEntity
  8
Battery_holder_3mm_-_cut
 62
7
100
AcDbSpline
 70
8
 71
3
 72
8
 73
4
 74
0
 40
0
 40
0
 40
0
 40
0
 40
1
 40
1
 40
1
 40
1
 10
190.248238
 20
-239.786808
 30
0.0
 10
189.966952
 20
-240.068197
 30
0.0
 10
189.808984
 20
-240.449810
 30
0.0
 10
189.809092
 20
-240.847681
 30
0.0
  0
SPLINE
  5
184
100
AcDbEntity
  8
Battery_holder_3mm_-_cut
 62
7
100
AcDbSpline
 70
8
 71
3
 72
8
 73
4
 74
0
 40
0
 40
0
 40
0
 40
0
 40
1
 40
1
 40
1
 40
1
 10
189.809092
 20
-240.847681
 30
0.0
 10
189.809164
 20
-241.676002
 30
0.0
 10
190.480629
 20
-242.347473
 30
0.0
 10
191.308950
 20
-242.347551
 30
0.0
  0
SPLINE
  5
185
100
AcDbEntity
  8
Battery_holder_3mm_-_cut
 62
7
100
AcDbSpline
 70
8
 71
3
 72
8
 73
4
 74
0
 40
0
 40
0
 40
0
 40
0
 40
1
 40
1
 40
1
 40
1
 10
191.308950
 20
-242.347551
 30
0.0
 10
192.137271
 20
-242.347472
 30
0.0
 10
192.808735
 20
-241.676001
 30
0.0
 10
192.808806
 20
-240.847681
 30
0.0
  0
SPLINE
  5
186
100
AcDbEntity
  8
Battery_holder_3mm_-_cut
 62
7
100
AcDbSpline
 70
8
 71
3
 72
8
 73
4
 74
0
 40
0
 40
0
 40
0
 40
0
 40
1
 40
1
 40
1
 40
1
 10
192.808806
 20
-240.847681
 30
0.0
 10
192.808914
 20
-240.449811
 30
0.0
 10
192.650946
 20
-240.068198
 30
0.0
 10
192.369661
 20
-239.786809
 30
0.0
  0
SPLINE
  5
187
100
AcDbEntity
  8
Battery_holder_3mm_-_cut
 62
7
100
AcDbSpline
 70
8
 71
3
 72
8
 73
4
 74
0
 40
0
 40
0
 40
0
 40
0
 40
1
 40
1
 40
1
 40
1
 10
192.369661
 20
-239.786809
 30
0.0
 10
192.088376
 20
-239.505421
 30
0.0
 10
191.706821
 20
-239.347313
 30
0.0
 10
191.308950
 20
-239.347275
 30
0.0
  0
LINE
  5
188
100
AcDbEntity
  8
Battery_holder_3mm_-_cut
 62
7
100
AcDbLine
 10
191.308950
 20
-239.347275
 30
0.0
 11
191.308950
 21
-239.347275
 31
0.0
  0
LINE
  5
189
100
AcDbEntity
  8
Battery_holder_3mm_-_cut
 62
7
100
AcDbLine
 10
195.577008
 20
-244.847306
 30
0.0
 11
193.845093
 21
-247.847582
 31
0.0
  0
LINE
  5
18a
100
AcDbEntity
  8
Battery_holder_3mm_-_cut
 62
7
100
AcDbLine
 10
193.845093
 20
-247.847582
 30
0.0
 11
195.577008
 21
-250.847294
 31
0.0
  0
LINE
  5
18b
100
AcDbEntity
  8
Battery_holder_3mm_-_cut
 62
7
100
AcDbLine
 10
195.577008
 20
-250.847294
 30
0.0
 11
199.040846
 21
-250.847294
 31
0.0
  0
LINE
  5
18c
100
AcDbEntity
  8
Battery_holder_3mm_-_cut
 62
7
100
AcDbLine
 10
199.040846
 20
-250.847294
 30
0.0
 11
200.773315
 21
-247.847582
 31
0.0
  0
LINE
  5
18d
100
AcDbEntity
  8
Battery_holder_3mm_-_cut
 62
7
100
AcDbLine
 10
200.773315
 20
-247.847582
 30
0.0
 11
199.040846
 21
-244.847871
 31
0.0
  0
LINE
  5
18e
100
AcDbEntity
  8
Battery_holder_3mm_-_cut
 62
7
100
AcDbLine
 10
199.040846
 20
-244.847871
 30
0.0
 11
195.577008
 21
-244.847871
 31
0.0
  0
LINE
  5
18f
100
AcDbEntity
  8
Battery_holder_3mm_-_cut
 62
7
100
AcDbLine
 10
195.577008
 20
-244.847871
 30
0.0
 11
195.577008
 21
-244.847306
 31
0.0
  0
SPLINE
  5
190
100
AcDbEntity
  8
Battery_holder_3mm_-_cut
 62
7
100
AcDbSpline
 70
8
 71
3
 72
8
 73
4
 74
0
 40
0
 40
0
 40
0
 40
0
 40
1
 40
1
 40
1
 40
1
 10
206.309172
 20
-246.347712
 30
0.0
 10
205.480852
 20
-246.347792
 30
0.0
 10
204.809388
 20
-247.019262
 30
0.0
 10
204.809316
 20
-247.847582
 30
0.0
  0
SPLINE
  5
191
100
AcDbEntity
  8
Battery_holder_3mm_-_cut
 62
7
100
AcDbSpline
 70
8
 71
3
 72
8
 73
4
 74
0
 40
0
 40
0
 40
0
 40
0
 40
1
 40
1
 40
1
 40
1
 10
204.809316
 20
-247.847582
 30
0.0
 10
204.809403
 20
-248.675891
 30
0.0
 10
205.480863
 20
-249.347345
 30
0.0
 10
206.309172
 20
-249.347424
 30
0.0
  0
SPLINE
  5
192
100
AcDbEntity
  8
Battery_holder_3mm_-_cut
 62
7
100
AcDbSpline
 70
8
 71
3
 72
8
 73
4
 74
0
 40
0
 40
0
 40
0
 40
0
 40
1
 40
1
 40
1
 40
1
 10
206.309172
 20
-249.347424
 30
0.0
 10
207.137481
 20
-249.347345
 30
0.0
 10
207.808940
 20
-248.675891
 30
0.0
 10
207.809028
 20
-247.847582
 30
0.0
  0
SPLINE
  5
193
100
AcDbEntity
  8
Battery_holder_3mm_-_cut
 62
7
100
AcDbSpline
 70
8
 71
3
 72
8
 73
4
 74
0
 40
0
 40
0
 40
0
 40
0
 40
1
 40
1
 40
1
 40
1
 10
207.809028
 20
-247.847582
 30
0.0
 10
207.808956
 20
-247.019262
 30
0.0
 10
207.137492
 20
-246.347792
 30
0.0
 10
206.309172
 20
-246.347712
 30
0.0
  0
LINE
  5
194
100
AcDbEntity
  8
Battery_holder_3mm_-_cut
 62
7
100
AcDbLine
 10
206.309172
 20
-246.347712
 30
0.0
 11
206.309172
 21
-246.347712
 31
0.0
  0
SPLINE
  5
195
100
AcDbEntity
  8
Battery_holder_3mm_-_cut
 62
7
100
AcDbSpline
 70
8
 71
3
 72
8
 73
4
 74
0
 40
0
 40
0
 40
0
 40
0
 40
1
 40
1
 40
1
 40
1
 10
191.308950
 20
-253.347586
 30
0.0
 10
190.480629
 20
-253.347664
 30
0.0
 10
189.809164
 20
-254.019134
 30
0.0
 10
189.809092
 20
-254.847456
 30
0.0
  0
SPLINE
  5
196
100
AcDbEntity
  8
Battery_holder_3mm_-_cut
 62
7
100
AcDbSpline
 70
8
 71
3
 72
8
 73
4
 74
0
 40
0
 40
0
 40
0
 40
0
 40
1
 40
1
 40
1
 40
1
 10
189.809092
 20
-254.847456
 30
0.0
 10
189.809164
 20
-255.675777
 30
0.0
 10
190.480629
 20
-256.347248
 30
0.0
 10
191.308950
 20
-256.347326
 30
0.0
  0
SPLINE
  5
197
100
AcDbEntity
  8
Battery_holder_3mm_-_cut
 62
7
100
AcDbSpline
 70
8
 71
3
 72
8
 73
4
 74
0
 40
0
 40
0
 40
0
 40
0
 40
1
 40
1
 40
1
 40
1
 10
191.308950
 20
-256.347326
 30
0.0
 10
192.137271
 20
-256.347246
 30
0.0
 10
192.808735
 20
-255.675776
 30
0.0
 10
192.808806
 20
-254.847456
 30
0.0
  0
SPLINE
  5
198
100
AcDbEntity
  8
Battery_holder_3mm_-_cut
 62
7
100
AcDbSpline
 70
8
 71
3
 72
8
 73
4
 74
0
 40
0
 40
0
 40
0
 40
0
 40
1
 40
1
 40
1
 40
1
 10
192.808806
 20
-254.847456
 30
0.0
 10
192.808735
 20
-254.019135
 30
0.0
 10
192.137271
 20
-253.347665
 30
0.0
 10
191.308950
 20
-253.347586
 30
0.0
  0
LINE
  5
199
100
AcDbEntity
  8
Battery_holder_3mm_-_cut
 62
7
100
AcDbLine
 10
191.308950
 20
-253.347586
 30
0.0
 11
191.308950
 21
-253.347586
 31
0.0
  0
ENDSEC
  0
SECTION
  2
OBJECTS
  0
DICTIONARY
  5
C
330
0
100
AcDbDictionary
  3
ACAD_GROUP
350
D
  3
ACAD_MLINESTYLE
350
17
  0
DICTIONARY
  5
D
330
C
100
AcDbDictionary
  0
DICTIONARY
  5
1A
330
C
100
AcDbDictionary
  0
DICTIONARY
  5
17
330
C
100
AcDbDictionary
  3
STANDARD
350
18
  0
DICTIONARY
  5
19
330
C
100
AcDbDictionary
  0
ENDSEC
  0
EOF
