  0
SECTION
  2
HEADER
  9
$ACADVER
  1
AC1014
  9
$HANDSEED
  5
FFFF
  9
$MEASUREMENT
 70
     1
  0
ENDSEC
  0
SECTION
  2
TABLES
  0
TABLE
  2
VPORT
  5
8
330
0
100
AcDbSymbolTable
 70
     4
  0
VPORT
  5
2E
330
8
100
AcDbSymbolTableRecord
100
AcDbViewportTableRecord
  2
*ACTIVE
 70
     0
 10
0.0
 20
0.0
 11
1.0
 21
1.0
 12
210.0
 22
148.5
 13
0.0
 23
0.0
 14
10.0
 24
10.0
 15
10.0
 25
10.0
 16
0.0
 26
0.0
 36
1.0
 17
0.0
 27
0.0
 37
0.0
 40
341.0
 41
1.24
 42
50.0
 43
0.0
 44
0.0
 50
0.0
 51
0.0
 71
     0
 72
   100
 73
     1
 74
     3
 75
     0
 76
     0
 77
     0
 78
     0
  0
ENDTAB
  0
TABLE
  2
LTYPE
  5
5
330
0
100
AcDbSymbolTable
 70
     1
  0
LTYPE
  5
14
330
5
100
AcDbSymbolTableRecord
100
AcDbLinetypeTableRecord
  2
BYBLOCK
 70
     0
  3

 72
    65
 73
     0
 40
0.0
  0
LTYPE
  5
15
330
5
100
AcDbSymbolTableRecord
100
AcDbLinetypeTableRecord
  2
BYLAYER
 70
     0
  3

 72
    65
 73
     0
 40
0.0
  0
LTYPE
  5
16
330
5
100
AcDbSymbolTableRecord
100
AcDbLinetypeTableRecord
  2
CONTINUOUS
 70
     0
  3
Solid line
 72
    65
 73
     0
 40
0.0
  0
ENDTAB
  0
TABLE
  2
LAYER
  5
2
100
AcDbSymbolTable
 70
10
  0
LAYER
  5
50
100
AcDbSymbolTableRecord
100
AcDbLayerTableRecord
  2
0
 70
0
  6
CONTINUOUS
  0
LAYER
  5
51
100
AcDbSymbolTableRecord
100
AcDbLayerTableRecord
  2
BottomPlate_-_Cut
 70
0
  6
CONTINUOUS
  0
LAYER
  5
52
100
AcDbSymbolTableRecord
100
AcDbLayerTableRecord
  2
TopPlate_-_Cut
 70
0
  6
CONTINUOUS
  0
LAYER
  5
53
100
AcDbSymbolTableRecord
100
AcDbLayerTableRecord
  2
TopPlate_-_Etch
 70
0
  6
CONTINUOUS
  0
LAYER
  5
54
100
AcDbSymbolTableRecord
100
AcDbLayerTableRecord
  2
Cogs_-_Cut
 70
0
  6
CONTINUOUS
  0
LAYER
  5
55
100
AcDbSymbolTableRecord
100
AcDbLayerTableRecord
  2
Cogs_-_Secondary
 70
0
  6
CONTINUOUS
  0
LAYER
  5
56
100
AcDbSymbolTableRecord
100
AcDbLayerTableRecord
  2
Cogs_-_Etch
 70
0
  6
CONTINUOUS
  0
LAYER
  5
57
100
AcDbSymbolTableRecord
100
AcDbLayerTableRecord
  2
Edges_-_Cut
 70
0
  6
CONTINUOUS
  0
LAYER
  5
58
100
AcDbSymbolTableRecord
100
AcDbLayerTableRecord
  2
3mm_Utility_bits_-_Cut
 70
0
  6
CONTINUOUS
  0
LAYER
  5
59
100
AcDbSymbolTableRecord
100
AcDbLayerTableRecord
  2
Temp
 70
0
  6
CONTINUOUS
  0
ENDTAB
  0
TABLE
  2
STYLE
  5
3
330
0
100
AcDbSymbolTable
 70
     1
  0
STYLE
  5
11
330
3
100
AcDbSymbolTableRecord
100
AcDbTextStyleTableRecord
  2
STANDARD
 70
     0
 40
0.0
 41
1.0
 50
0.0
 71
     0
 42
2.5
  3
txt
  4

  0
ENDTAB
  0
TABLE
  2
VIEW
  5
6
330
0
100
AcDbSymbolTable
 70
     0
  0
ENDTAB
  0
TABLE
  2
UCS
  5
7
330
0
100
AcDbSymbolTable
 70
     0
  0
ENDTAB
  0
TABLE
  2
APPID
  5
9
330
0
100
AcDbSymbolTable
 70
     2
  0
APPID
  5
12
330
9
100
AcDbSymbolTableRecord
100
AcDbRegAppTableRecord
  2
ACAD
 70
     0
  0
ENDTAB
  0
TABLE
  2
DIMSTYLE
  5
A
330
0
100
AcDbSymbolTable
 70
     1
  0
DIMSTYLE
105
27
330
A
100
AcDbSymbolTableRecord
100
AcDbDimStyleTableRecord
  2
ISO-25
 70
     0
  3

  4

  5

  6

  7

 40
1.0
 41
2.5
 42
0.625
 43
3.75
 44
1.25
 45
0.0
 46
0.0
 47
0.0
 48
0.0
140
2.5
141
2.5
142
0.0
143
0.03937007874016
144
1.0
145
0.0
146
1.0
147
0.625
 71
     0
 72
     0
 73
     0
 74
     0
 75
     0
 76
     0
 77
     1
 78
     8
170
     0
171
     3
172
     1
173
     0
174
     0
175
     0
176
     0
177
     0
178
     0
270
     2
271
     2
272
     2
273
     2
274
     3
340
11
275
     0
280
     0
281
     0
282
     0
283
     0
284
     8
285
     0
286
     0
287
     3
288
     0
  0
ENDTAB
  0
TABLE
  2
BLOCK_RECORD
  5
1
330
0
100
AcDbSymbolTable
 70
     1
  0
BLOCK_RECORD
  5
1F
330
1
100
AcDbSymbolTableRecord
100
AcDbBlockTableRecord
  2
*MODEL_SPACE
  0
BLOCK_RECORD
  5
1B
330
1
100
AcDbSymbolTableRecord
100
AcDbBlockTableRecord
  2
*PAPER_SPACE
  0
ENDTAB
  0
ENDSEC
  0
SECTION
  2
BLOCKS
  0
BLOCK
  5
20
330
1F
100
AcDbEntity
  8
0
100
AcDbBlockBegin
  2
*MODEL_SPACE
 70
     0
 10
0.0
 20
0.0
 30
0.0
  3
*MODEL_SPACE
  1

  0
ENDBLK
  5
21
330
1F
100
AcDbEntity
  8
0
100
AcDbBlockEnd
  0
BLOCK
  5
1C
330
1B
100
AcDbEntity
 67
     1
  8
0
100
AcDbBlockBegin
  2
*PAPER_SPACE
  1

  0
ENDBLK
  5
1D
330
1B
100
AcDbEntity
 67
     1
  8
0
100
AcDbBlockEnd
  0
ENDSEC
  0
SECTION
  2
ENTITIES
  0
SPLINE
  5
100
100
AcDbEntity
  8
BottomPlate_-_Cut
 62
7
100
AcDbSpline
 70
8
 71
3
 72
8
 73
4
 74
0
 40
0
 40
0
 40
0
 40
0
 40
1
 40
1
 40
1
 40
1
 10
106.089097
 20
108.511239
 30
0.0
 10
99.782729
 20
108.511239
 30
0.0
 10
90.322919
 20
103.049837
 30
0.0
 10
87.169735
 20
97.588357
 30
0.0
  0
LINE
  5
101
100
AcDbEntity
  8
BottomPlate_-_Cut
 62
7
100
AcDbLine
 10
87.169735
 20
97.588357
 30
0.0
 11
5.186936
 21
-44.410212
 31
0.0
  0
SPLINE
  5
102
100
AcDbEntity
  8
BottomPlate_-_Cut
 62
7
100
AcDbSpline
 70
8
 71
3
 72
8
 73
4
 74
0
 40
0
 40
0
 40
0
 40
0
 40
1
 40
1
 40
1
 40
1
 10
5.186936
 20
-44.410212
 30
0.0
 10
2.033865
 20
-49.871717
 30
0.0
 10
2.033808
 20
-60.794558
 30
0.0
 10
5.186936
 20
-66.255976
 30
0.0
  0
LINE
  5
103
100
AcDbEntity
  8
BottomPlate_-_Cut
 62
7
100
AcDbLine
 10
5.186936
 20
-66.255976
 30
0.0
 11
87.169735
 21
-208.253996
 31
0.0
  0
SPLINE
  5
104
100
AcDbEntity
  8
BottomPlate_-_Cut
 62
7
100
AcDbSpline
 70
8
 71
3
 72
8
 73
4
 74
0
 40
0
 40
0
 40
0
 40
0
 40
1
 40
1
 40
1
 40
1
 10
87.169735
 20
-208.253996
 30
0.0
 10
90.322919
 20
-213.715588
 30
0.0
 10
99.782729
 20
-219.177435
 30
0.0
 10
106.089097
 20
-219.177435
 30
0.0
  0
LINE
  5
105
100
AcDbEntity
  8
BottomPlate_-_Cut
 62
7
100
AcDbLine
 10
106.089097
 20
-219.177435
 30
0.0
 11
270.054697
 21
-219.177435
 31
0.0
  0
SPLINE
  5
106
100
AcDbEntity
  8
BottomPlate_-_Cut
 62
7
100
AcDbSpline
 70
8
 71
3
 72
8
 73
4
 74
0
 40
0
 40
0
 40
0
 40
0
 40
1
 40
1
 40
1
 40
1
 10
270.054697
 20
-219.177435
 30
0.0
 10
276.361121
 20
-219.177520
 30
0.0
 10
285.820302
 20
-213.716124
 30
0.0
 10
288.973514
 20
-208.254532
 30
0.0
  0
LINE
  5
107
100
AcDbEntity
  8
BottomPlate_-_Cut
 62
7
100
AcDbLine
 10
288.973514
 20
-208.254532
 30
0.0
 11
370.956304
 21
-66.256526
 31
0.0
  0
SPLINE
  5
108
100
AcDbEntity
  8
BottomPlate_-_Cut
 62
7
100
AcDbSpline
 70
8
 71
3
 72
8
 73
4
 74
0
 40
0
 40
0
 40
0
 40
0
 40
1
 40
1
 40
1
 40
1
 10
370.956304
 20
-66.256526
 30
0.0
 10
374.109544
 20
-60.795122
 30
0.0
 10
374.109516
 20
-49.872236
 30
0.0
 10
370.956304
 20
-44.410762
 30
0.0
  0
LINE
  5
109
100
AcDbEntity
  8
BottomPlate_-_Cut
 62
7
100
AcDbLine
 10
370.956304
 20
-44.410762
 30
0.0
 11
288.973514
 21
97.588357
 31
0.0
  0
SPLINE
  5
10a
100
AcDbEntity
  8
BottomPlate_-_Cut
 62
7
100
AcDbSpline
 70
8
 71
3
 72
8
 73
4
 74
0
 40
0
 40
0
 40
0
 40
0
 40
1
 40
1
 40
1
 40
1
 10
288.973514
 20
97.588357
 30
0.0
 10
285.820302
 20
103.049913
 30
0.0
 10
276.361093
 20
108.511253
 30
0.0
 10
270.054697
 20
108.511239
 30
0.0
  0
LINE
  5
10b
100
AcDbEntity
  8
BottomPlate_-_Cut
 62
7
100
AcDbLine
 10
270.054697
 20
108.511239
 30
0.0
 11
106.089097
 21
108.511239
 31
0.0
  0
LINE
  5
10c
100
AcDbEntity
  8
BottomPlate_-_Cut
 62
7
100
AcDbLine
 10
106.089097
 20
108.511239
 30
0.0
 11
106.089097
 21
108.511239
 31
0.0
  0
LINE
  5
10d
100
AcDbEntity
  8
BottomPlate_-_Cut
 62
7
100
AcDbLine
 10
103.071744
 20
104.192467
 30
0.0
 11
113.071893
 21
104.192467
 31
0.0
  0
LINE
  5
10e
100
AcDbEntity
  8
BottomPlate_-_Cut
 62
7
100
AcDbLine
 10
113.071893
 20
104.192467
 30
0.0
 11
113.071893
 21
99.142233
 31
0.0
  0
LINE
  5
10f
100
AcDbEntity
  8
BottomPlate_-_Cut
 62
7
100
AcDbLine
 10
113.071893
 20
99.142233
 30
0.0
 11
103.071744
 21
99.142233
 31
0.0
  0
LINE
  5
110
100
AcDbEntity
  8
BottomPlate_-_Cut
 62
7
100
AcDbLine
 10
103.071744
 20
99.142233
 30
0.0
 11
103.071744
 21
104.192467
 31
0.0
  0
LINE
  5
111
100
AcDbEntity
  8
BottomPlate_-_Cut
 62
7
100
AcDbLine
 10
103.071744
 20
104.192467
 30
0.0
 11
103.071744
 21
104.192467
 31
0.0
  0
LINE
  5
112
100
AcDbEntity
  8
BottomPlate_-_Cut
 62
7
100
AcDbLine
 10
133.071636
 20
104.192467
 30
0.0
 11
153.071932
 21
104.192467
 31
0.0
  0
LINE
  5
113
100
AcDbEntity
  8
BottomPlate_-_Cut
 62
7
100
AcDbLine
 10
153.071932
 20
104.192467
 30
0.0
 11
153.071932
 21
99.142233
 31
0.0
  0
LINE
  5
114
100
AcDbEntity
  8
BottomPlate_-_Cut
 62
7
100
AcDbLine
 10
153.071932
 20
99.142233
 30
0.0
 11
133.071636
 21
99.142233
 31
0.0
  0
LINE
  5
115
100
AcDbEntity
  8
BottomPlate_-_Cut
 62
7
100
AcDbLine
 10
133.071636
 20
99.142233
 30
0.0
 11
133.071636
 21
104.192467
 31
0.0
  0
LINE
  5
116
100
AcDbEntity
  8
BottomPlate_-_Cut
 62
7
100
AcDbLine
 10
133.071636
 20
104.192467
 30
0.0
 11
133.071636
 21
104.192467
 31
0.0
  0
LINE
  5
117
100
AcDbEntity
  8
BottomPlate_-_Cut
 62
7
100
AcDbLine
 10
173.071674
 20
104.192467
 30
0.0
 11
203.071566
 21
104.192467
 31
0.0
  0
LINE
  5
118
100
AcDbEntity
  8
BottomPlate_-_Cut
 62
7
100
AcDbLine
 10
203.071566
 20
104.192467
 30
0.0
 11
203.071566
 21
99.142233
 31
0.0
  0
LINE
  5
119
100
AcDbEntity
  8
BottomPlate_-_Cut
 62
7
100
AcDbLine
 10
203.071566
 20
99.142233
 30
0.0
 11
173.071674
 21
99.142233
 31
0.0
  0
LINE
  5
11a
100
AcDbEntity
  8
BottomPlate_-_Cut
 62
7
100
AcDbLine
 10
173.071674
 20
99.142233
 30
0.0
 11
173.071674
 21
104.192467
 31
0.0
  0
LINE
  5
11b
100
AcDbEntity
  8
BottomPlate_-_Cut
 62
7
100
AcDbLine
 10
173.071674
 20
104.192467
 30
0.0
 11
173.071674
 21
104.192467
 31
0.0
  0
LINE
  5
11c
100
AcDbEntity
  8
BottomPlate_-_Cut
 62
7
100
AcDbLine
 10
223.071862
 20
104.192467
 30
0.0
 11
243.071605
 21
104.192467
 31
0.0
  0
LINE
  5
11d
100
AcDbEntity
  8
BottomPlate_-_Cut
 62
7
100
AcDbLine
 10
243.071605
 20
104.192467
 30
0.0
 11
243.071605
 21
99.142233
 31
0.0
  0
LINE
  5
11e
100
AcDbEntity
  8
BottomPlate_-_Cut
 62
7
100
AcDbLine
 10
243.071605
 20
99.142233
 30
0.0
 11
223.071862
 21
99.142233
 31
0.0
  0
LINE
  5
11f
100
AcDbEntity
  8
BottomPlate_-_Cut
 62
7
100
AcDbLine
 10
223.071862
 20
99.142233
 30
0.0
 11
223.071862
 21
104.192467
 31
0.0
  0
LINE
  5
120
100
AcDbEntity
  8
BottomPlate_-_Cut
 62
7
100
AcDbLine
 10
223.071862
 20
104.192467
 30
0.0
 11
223.071862
 21
104.192467
 31
0.0
  0
LINE
  5
121
100
AcDbEntity
  8
BottomPlate_-_Cut
 62
7
100
AcDbLine
 10
263.071901
 20
104.192467
 30
0.0
 11
273.071497
 21
104.192467
 31
0.0
  0
LINE
  5
122
100
AcDbEntity
  8
BottomPlate_-_Cut
 62
7
100
AcDbLine
 10
273.071497
 20
104.192467
 30
0.0
 11
273.071497
 21
99.142233
 31
0.0
  0
LINE
  5
123
100
AcDbEntity
  8
BottomPlate_-_Cut
 62
7
100
AcDbLine
 10
273.071497
 20
99.142233
 30
0.0
 11
263.071901
 21
99.142233
 31
0.0
  0
LINE
  5
124
100
AcDbEntity
  8
BottomPlate_-_Cut
 62
7
100
AcDbLine
 10
263.071901
 20
99.142233
 30
0.0
 11
263.071901
 21
104.192467
 31
0.0
  0
LINE
  5
125
100
AcDbEntity
  8
BottomPlate_-_Cut
 62
7
100
AcDbLine
 10
263.071901
 20
104.192467
 30
0.0
 11
263.071901
 21
104.192467
 31
0.0
  0
LINE
  5
126
100
AcDbEntity
  8
BottomPlate_-_Cut
 62
7
100
AcDbLine
 10
92.418958
 20
98.041456
 30
0.0
 11
96.792299
 21
95.516339
 31
0.0
  0
LINE
  5
127
100
AcDbEntity
  8
BottomPlate_-_Cut
 62
7
100
AcDbLine
 10
96.792299
 20
95.516339
 30
0.0
 11
91.792778
 21
86.856747
 31
0.0
  0
LINE
  5
128
100
AcDbEntity
  8
BottomPlate_-_Cut
 62
7
100
AcDbLine
 10
91.792778
 20
86.856747
 30
0.0
 11
87.418884
 21
89.381864
 31
0.0
  0
LINE
  5
129
100
AcDbEntity
  8
BottomPlate_-_Cut
 62
7
100
AcDbLine
 10
87.418884
 20
89.381864
 30
0.0
 11
92.418958
 21
98.041456
 31
0.0
  0
LINE
  5
12a
100
AcDbEntity
  8
BottomPlate_-_Cut
 62
7
100
AcDbLine
 10
92.418958
 20
98.041456
 30
0.0
 11
92.418958
 21
98.041456
 31
0.0
  0
LINE
  5
12b
100
AcDbEntity
  8
BottomPlate_-_Cut
 62
7
100
AcDbLine
 10
283.724830
 20
98.041456
 30
0.0
 11
288.724368
 21
89.381864
 31
0.0
  0
LINE
  5
12c
100
AcDbEntity
  8
BottomPlate_-_Cut
 62
7
100
AcDbLine
 10
288.724368
 20
89.381864
 30
0.0
 11
284.351024
 21
86.856747
 31
0.0
  0
LINE
  5
12d
100
AcDbEntity
  8
BottomPlate_-_Cut
 62
7
100
AcDbLine
 10
284.351024
 20
86.856747
 30
0.0
 11
279.350941
 21
95.516339
 31
0.0
  0
LINE
  5
12e
100
AcDbEntity
  8
BottomPlate_-_Cut
 62
7
100
AcDbLine
 10
279.350941
 20
95.516339
 30
0.0
 11
283.724830
 21
98.041456
 31
0.0
  0
LINE
  5
12f
100
AcDbEntity
  8
BottomPlate_-_Cut
 62
7
100
AcDbLine
 10
283.724830
 20
98.041456
 30
0.0
 11
283.724830
 21
98.041456
 31
0.0
  0
SPLINE
  5
130
100
AcDbEntity
  8
BottomPlate_-_Cut
 62
7
100
AcDbSpline
 70
8
 71
3
 72
8
 73
4
 74
0
 40
0
 40
0
 40
0
 40
0
 40
1
 40
1
 40
1
 40
1
 10
188.071895
 20
96.166773
 30
0.0
 10
188.900212
 20
96.166695
 30
0.0
 10
189.571675
 20
95.495232
 30
0.0
 10
189.571754
 20
94.666916
 30
0.0
  0
SPLINE
  5
131
100
AcDbEntity
  8
BottomPlate_-_Cut
 62
7
100
AcDbSpline
 70
8
 71
3
 72
8
 73
4
 74
0
 40
0
 40
0
 40
0
 40
0
 40
1
 40
1
 40
1
 40
1
 10
189.571754
 20
94.666916
 30
0.0
 10
189.571675
 20
93.838600
 30
0.0
 10
188.900211
 20
93.167137
 30
0.0
 10
188.071895
 20
93.167059
 30
0.0
  0
SPLINE
  5
132
100
AcDbEntity
  8
BottomPlate_-_Cut
 62
7
100
AcDbSpline
 70
8
 71
3
 72
8
 73
4
 74
0
 40
0
 40
0
 40
0
 40
0
 40
1
 40
1
 40
1
 40
1
 10
188.071895
 20
93.167059
 30
0.0
 10
187.674025
 20
93.166951
 30
0.0
 10
187.292412
 20
93.324919
 30
0.0
 10
187.011023
 20
93.606205
 30
0.0
  0
SPLINE
  5
133
100
AcDbEntity
  8
BottomPlate_-_Cut
 62
7
100
AcDbSpline
 70
8
 71
3
 72
8
 73
4
 74
0
 40
0
 40
0
 40
0
 40
0
 40
1
 40
1
 40
1
 40
1
 10
187.011023
 20
93.606205
 30
0.0
 10
186.729635
 20
93.887490
 30
0.0
 10
186.571527
 20
94.269046
 30
0.0
 10
186.571489
 20
94.666916
 30
0.0
  0
SPLINE
  5
134
100
AcDbEntity
  8
BottomPlate_-_Cut
 62
7
100
AcDbSpline
 70
8
 71
3
 72
8
 73
4
 74
0
 40
0
 40
0
 40
0
 40
0
 40
1
 40
1
 40
1
 40
1
 10
186.571489
 20
94.666916
 30
0.0
 10
186.571527
 20
95.064786
 30
0.0
 10
186.729635
 20
95.446342
 30
0.0
 10
187.011023
 20
95.727627
 30
0.0
  0
SPLINE
  5
135
100
AcDbEntity
  8
BottomPlate_-_Cut
 62
7
100
AcDbSpline
 70
8
 71
3
 72
8
 73
4
 74
0
 40
0
 40
0
 40
0
 40
0
 40
1
 40
1
 40
1
 40
1
 10
187.011023
 20
95.727627
 30
0.0
 10
187.292412
 20
96.008913
 30
0.0
 10
187.674025
 20
96.166881
 30
0.0
 10
188.071895
 20
96.166773
 30
0.0
  0
LINE
  5
136
100
AcDbEntity
  8
BottomPlate_-_Cut
 62
7
100
AcDbLine
 10
188.071895
 20
96.166773
 30
0.0
 11
188.071895
 21
96.166773
 31
0.0
  0
SPLINE
  5
137
100
AcDbEntity
  8
BottomPlate_-_Cut
 62
7
100
AcDbSpline
 70
8
 71
3
 72
8
 73
4
 74
0
 40
0
 40
0
 40
0
 40
0
 40
1
 40
1
 40
1
 40
1
 10
110.129506
 20
83.666864
 30
0.0
 10
112.338561
 20
83.666956
 30
0.0
 10
114.129462
 20
81.876302
 30
0.0
 10
114.129673
 20
79.667247
 30
0.0
  0
SPLINE
  5
138
100
AcDbEntity
  8
BottomPlate_-_Cut
 62
7
100
AcDbSpline
 70
8
 71
3
 72
8
 73
4
 74
0
 40
0
 40
0
 40
0
 40
0
 40
1
 40
1
 40
1
 40
1
 10
114.129673
 20
79.667247
 30
0.0
 10
114.129718
 20
78.606323
 30
0.0
 10
113.708288
 20
77.588838
 30
0.0
 10
112.958101
 20
76.838651
 30
0.0
  0
SPLINE
  5
139
100
AcDbEntity
  8
BottomPlate_-_Cut
 62
7
100
AcDbSpline
 70
8
 71
3
 72
8
 73
4
 74
0
 40
0
 40
0
 40
0
 40
0
 40
1
 40
1
 40
1
 40
1
 10
112.958101
 20
76.838651
 30
0.0
 10
112.207915
 20
76.088464
 30
0.0
 10
111.190431
 20
75.667033
 30
0.0
 10
110.129506
 20
75.667077
 30
0.0
  0
SPLINE
  5
13a
100
AcDbEntity
  8
BottomPlate_-_Cut
 62
7
100
AcDbSpline
 70
8
 71
3
 72
8
 73
4
 74
0
 40
0
 40
0
 40
0
 40
0
 40
1
 40
1
 40
1
 40
1
 10
110.129506
 20
75.667077
 30
0.0
 10
109.068581
 20
75.667032
 30
0.0
 10
108.051096
 20
76.088463
 30
0.0
 10
107.300909
 20
76.838650
 30
0.0
  0
SPLINE
  5
13b
100
AcDbEntity
  8
BottomPlate_-_Cut
 62
7
100
AcDbSpline
 70
8
 71
3
 72
8
 73
4
 74
0
 40
0
 40
0
 40
0
 40
0
 40
1
 40
1
 40
1
 40
1
 10
107.300909
 20
76.838650
 30
0.0
 10
106.550722
 20
77.588837
 30
0.0
 10
106.129291
 20
78.606322
 30
0.0
 10
106.129336
 20
79.667247
 30
0.0
  0
SPLINE
  5
13c
100
AcDbEntity
  8
BottomPlate_-_Cut
 62
7
100
AcDbSpline
 70
8
 71
3
 72
8
 73
4
 74
0
 40
0
 40
0
 40
0
 40
0
 40
1
 40
1
 40
1
 40
1
 10
106.129336
 20
79.667247
 30
0.0
 10
106.129548
 20
81.876303
 30
0.0
 10
107.920451
 20
83.666958
 30
0.0
 10
110.129506
 20
83.666864
 30
0.0
  0
LINE
  5
13d
100
AcDbEntity
  8
BottomPlate_-_Cut
 62
7
100
AcDbLine
 10
110.129506
 20
83.666864
 30
0.0
 11
110.129506
 21
83.666864
 31
0.0
  0
SPLINE
  5
13e
100
AcDbEntity
  8
BottomPlate_-_Cut
 62
7
100
AcDbSpline
 70
8
 71
3
 72
8
 73
4
 74
0
 40
0
 40
0
 40
0
 40
0
 40
1
 40
1
 40
1
 40
1
 10
266.014287
 20
83.666864
 30
0.0
 10
268.223128
 20
83.666654
 30
0.0
 10
270.013695
 20
81.876088
 30
0.0
 10
270.013907
 20
79.667247
 30
0.0
  0
SPLINE
  5
13f
100
AcDbEntity
  8
BottomPlate_-_Cut
 62
7
100
AcDbSpline
 70
8
 71
3
 72
8
 73
4
 74
0
 40
0
 40
0
 40
0
 40
0
 40
1
 40
1
 40
1
 40
1
 10
270.013907
 20
79.667247
 30
0.0
 10
270.014001
 20
77.458191
 30
0.0
 10
268.223344
 20
75.667288
 30
0.0
 10
266.014287
 20
75.667077
 30
0.0
  0
SPLINE
  5
140
100
AcDbEntity
  8
BottomPlate_-_Cut
 62
7
100
AcDbSpline
 70
8
 71
3
 72
8
 73
4
 74
0
 40
0
 40
0
 40
0
 40
0
 40
1
 40
1
 40
1
 40
1
 10
266.014287
 20
75.667077
 30
0.0
 10
264.953363
 20
75.667032
 30
0.0
 10
263.935878
 20
76.088463
 30
0.0
 10
263.185691
 20
76.838650
 30
0.0
  0
SPLINE
  5
141
100
AcDbEntity
  8
BottomPlate_-_Cut
 62
7
100
AcDbSpline
 70
8
 71
3
 72
8
 73
4
 74
0
 40
0
 40
0
 40
0
 40
0
 40
1
 40
1
 40
1
 40
1
 10
263.185691
 20
76.838650
 30
0.0
 10
262.435503
 20
77.588837
 30
0.0
 10
262.014073
 20
78.606322
 30
0.0
 10
262.014118
 20
79.667247
 30
0.0
  0
SPLINE
  5
142
100
AcDbEntity
  8
BottomPlate_-_Cut
 62
7
100
AcDbSpline
 70
8
 71
3
 72
8
 73
4
 74
0
 40
0
 40
0
 40
0
 40
0
 40
1
 40
1
 40
1
 40
1
 10
262.014118
 20
79.667247
 30
0.0
 10
262.014329
 20
81.876303
 30
0.0
 10
263.805232
 20
83.666958
 30
0.0
 10
266.014287
 20
83.666864
 30
0.0
  0
LINE
  5
143
100
AcDbEntity
  8
BottomPlate_-_Cut
 62
7
100
AcDbLine
 10
266.014287
 20
83.666864
 30
0.0
 11
266.014287
 21
83.666864
 31
0.0
  0
LINE
  5
144
100
AcDbEntity
  8
BottomPlate_-_Cut
 62
7
100
AcDbLine
 10
77.418737
 20
72.061025
 30
0.0
 11
81.792631
 21
69.535910
 31
0.0
  0
LINE
  5
145
100
AcDbEntity
  8
BottomPlate_-_Cut
 62
7
100
AcDbLine
 10
81.792631
 20
69.535910
 30
0.0
 11
71.792482
 21
52.215622
 31
0.0
  0
LINE
  5
146
100
AcDbEntity
  8
BottomPlate_-_Cut
 62
7
100
AcDbLine
 10
71.792482
 20
52.215622
 30
0.0
 11
67.419141
 21
54.740740
 31
0.0
  0
LINE
  5
147
100
AcDbEntity
  8
BottomPlate_-_Cut
 62
7
100
AcDbLine
 10
67.419141
 20
54.740740
 30
0.0
 11
77.418737
 21
72.061025
 31
0.0
  0
LINE
  5
148
100
AcDbEntity
  8
BottomPlate_-_Cut
 62
7
100
AcDbLine
 10
77.418737
 20
72.061025
 30
0.0
 11
77.418737
 21
72.061025
 31
0.0
  0
LINE
  5
149
100
AcDbEntity
  8
BottomPlate_-_Cut
 62
7
100
AcDbLine
 10
298.724518
 20
72.061025
 30
0.0
 11
308.724639
 21
54.740740
 31
0.0
  0
LINE
  5
14a
100
AcDbEntity
  8
BottomPlate_-_Cut
 62
7
100
AcDbLine
 10
308.724639
 20
54.740740
 30
0.0
 11
304.350759
 21
52.215622
 31
0.0
  0
LINE
  5
14b
100
AcDbEntity
  8
BottomPlate_-_Cut
 62
7
100
AcDbLine
 10
304.350759
 20
52.215622
 30
0.0
 11
294.351174
 21
69.535910
 31
0.0
  0
LINE
  5
14c
100
AcDbEntity
  8
BottomPlate_-_Cut
 62
7
100
AcDbLine
 10
294.351174
 20
69.535910
 30
0.0
 11
298.724518
 21
72.061025
 31
0.0
  0
LINE
  5
14d
100
AcDbEntity
  8
BottomPlate_-_Cut
 62
7
100
AcDbLine
 10
298.724518
 20
72.061025
 30
0.0
 11
298.724518
 21
72.061025
 31
0.0
  0
SPLINE
  5
14e
100
AcDbEntity
  8
BottomPlate_-_Cut
 62
7
100
AcDbSpline
 70
8
 71
3
 72
8
 73
4
 74
0
 40
0
 40
0
 40
0
 40
0
 40
1
 40
1
 40
1
 40
1
 10
136.110486
 20
45.925153
 30
0.0
 10
136.805146
 20
45.925048
 30
0.0
 10
137.368253
 20
45.361941
 30
0.0
 10
137.368359
 20
44.667281
 30
0.0
  0
SPLINE
  5
14f
100
AcDbEntity
  8
BottomPlate_-_Cut
 62
7
100
AcDbSpline
 70
8
 71
3
 72
8
 73
4
 74
0
 40
0
 40
0
 40
0
 40
0
 40
1
 40
1
 40
1
 40
1
 10
137.368359
 20
44.667281
 30
0.0
 10
137.368454
 20
44.333592
 30
0.0
 10
137.235977
 20
44.013535
 30
0.0
 10
137.000075
 20
43.777530
 30
0.0
  0
SPLINE
  5
150
100
AcDbEntity
  8
BottomPlate_-_Cut
 62
7
100
AcDbSpline
 70
8
 71
3
 72
8
 73
4
 74
0
 40
0
 40
0
 40
0
 40
0
 40
1
 40
1
 40
1
 40
1
 10
137.000075
 20
43.777530
 30
0.0
 10
136.764173
 20
43.541525
 30
0.0
 10
136.444175
 20
43.408908
 30
0.0
 10
136.110486
 20
43.408857
 30
0.0
  0
SPLINE
  5
151
100
AcDbEntity
  8
BottomPlate_-_Cut
 62
7
100
AcDbSpline
 70
8
 71
3
 72
8
 73
4
 74
0
 40
0
 40
0
 40
0
 40
0
 40
1
 40
1
 40
1
 40
1
 10
136.110486
 20
43.408857
 30
0.0
 10
135.776702
 20
43.408762
 30
0.0
 10
135.456562
 20
43.541315
 30
0.0
 10
135.220541
 20
43.777336
 30
0.0
  0
SPLINE
  5
152
100
AcDbEntity
  8
BottomPlate_-_Cut
 62
7
100
AcDbSpline
 70
8
 71
3
 72
8
 73
4
 74
0
 40
0
 40
0
 40
0
 40
0
 40
1
 40
1
 40
1
 40
1
 10
135.220541
 20
43.777336
 30
0.0
 10
134.984521
 20
44.013357
 30
0.0
 10
134.851968
 20
44.333497
 30
0.0
 10
134.852063
 20
44.667281
 30
0.0
  0
SPLINE
  5
153
100
AcDbEntity
  8
BottomPlate_-_Cut
 62
7
100
AcDbSpline
 70
8
 71
3
 72
8
 73
4
 74
0
 40
0
 40
0
 40
0
 40
0
 40
1
 40
1
 40
1
 40
1
 10
134.852063
 20
44.667281
 30
0.0
 10
134.852114
 20
45.000969
 30
0.0
 10
134.984731
 20
45.320968
 30
0.0
 10
135.220736
 20
45.556870
 30
0.0
  0
SPLINE
  5
154
100
AcDbEntity
  8
BottomPlate_-_Cut
 62
7
100
AcDbSpline
 70
8
 71
3
 72
8
 73
4
 74
0
 40
0
 40
0
 40
0
 40
0
 40
1
 40
1
 40
1
 40
1
 10
135.220736
 20
45.556870
 30
0.0
 10
135.456741
 20
45.792771
 30
0.0
 10
135.776798
 20
45.925249
 30
0.0
 10
136.110486
 20
45.925153
 30
0.0
  0
LINE
  5
155
100
AcDbEntity
  8
BottomPlate_-_Cut
 62
7
100
AcDbLine
 10
136.110486
 20
45.925153
 30
0.0
 11
136.110486
 21
45.925153
 31
0.0
  0
SPLINE
  5
156
100
AcDbEntity
  8
BottomPlate_-_Cut
 62
7
100
AcDbSpline
 70
8
 71
3
 72
8
 73
4
 74
0
 40
0
 40
0
 40
0
 40
0
 40
1
 40
1
 40
1
 40
1
 10
240.033308
 20
45.925153
 30
0.0
 10
240.727968
 20
45.925048
 30
0.0
 10
241.291075
 20
45.361941
 30
0.0
 10
241.291181
 20
44.667281
 30
0.0
  0
SPLINE
  5
157
100
AcDbEntity
  8
BottomPlate_-_Cut
 62
7
100
AcDbSpline
 70
8
 71
3
 72
8
 73
4
 74
0
 40
0
 40
0
 40
0
 40
0
 40
1
 40
1
 40
1
 40
1
 10
241.291181
 20
44.667281
 30
0.0
 10
241.291276
 20
44.333592
 30
0.0
 10
241.158798
 20
44.013535
 30
0.0
 10
240.922897
 20
43.777530
 30
0.0
  0
SPLINE
  5
158
100
AcDbEntity
  8
BottomPlate_-_Cut
 62
7
100
AcDbSpline
 70
8
 71
3
 72
8
 73
4
 74
0
 40
0
 40
0
 40
0
 40
0
 40
1
 40
1
 40
1
 40
1
 10
240.922897
 20
43.777530
 30
0.0
 10
240.686995
 20
43.541525
 30
0.0
 10
240.366996
 20
43.408908
 30
0.0
 10
240.033308
 20
43.408857
 30
0.0
  0
SPLINE
  5
159
100
AcDbEntity
  8
BottomPlate_-_Cut
 62
7
100
AcDbSpline
 70
8
 71
3
 72
8
 73
4
 74
0
 40
0
 40
0
 40
0
 40
0
 40
1
 40
1
 40
1
 40
1
 10
240.033308
 20
43.408857
 30
0.0
 10
239.699619
 20
43.408908
 30
0.0
 10
239.379620
 20
43.541525
 30
0.0
 10
239.143719
 20
43.777530
 30
0.0
  0
SPLINE
  5
15a
100
AcDbEntity
  8
BottomPlate_-_Cut
 62
7
100
AcDbSpline
 70
8
 71
3
 72
8
 73
4
 74
0
 40
0
 40
0
 40
0
 40
0
 40
1
 40
1
 40
1
 40
1
 10
239.143719
 20
43.777530
 30
0.0
 10
238.907817
 20
44.013535
 30
0.0
 10
238.775340
 20
44.333592
 30
0.0
 10
238.775435
 20
44.667281
 30
0.0
  0
SPLINE
  5
15b
100
AcDbEntity
  8
BottomPlate_-_Cut
 62
7
100
AcDbSpline
 70
8
 71
3
 72
8
 73
4
 74
0
 40
0
 40
0
 40
0
 40
0
 40
1
 40
1
 40
1
 40
1
 10
238.775435
 20
44.667281
 30
0.0
 10
238.775541
 20
45.361941
 30
0.0
 10
239.338647
 20
45.925048
 30
0.0
 10
240.033308
 20
45.925153
 30
0.0
  0
LINE
  5
15c
100
AcDbEntity
  8
BottomPlate_-_Cut
 62
7
100
AcDbLine
 10
240.033308
 20
45.925153
 30
0.0
 11
240.033308
 21
45.925153
 31
0.0
  0
LINE
  5
15d
100
AcDbEntity
  8
BottomPlate_-_Cut
 62
7
100
AcDbLine
 10
57.418992
 20
37.419901
 30
0.0
 11
61.792335
 21
34.894786
 31
0.0
  0
LINE
  5
15e
100
AcDbEntity
  8
BottomPlate_-_Cut
 62
7
100
AcDbLine
 10
61.792335
 20
34.894786
 30
0.0
 11
46.792665
 21
8.914356
 31
0.0
  0
LINE
  5
15f
100
AcDbEntity
  8
BottomPlate_-_Cut
 62
7
100
AcDbLine
 10
46.792665
 20
8.914356
 30
0.0
 11
42.418770
 21
11.439472
 31
0.0
  0
LINE
  5
160
100
AcDbEntity
  8
BottomPlate_-_Cut
 62
7
100
AcDbLine
 10
42.418770
 20
11.439472
 30
0.0
 11
57.418992
 21
37.419901
 31
0.0
  0
LINE
  5
161
100
AcDbEntity
  8
BottomPlate_-_Cut
 62
7
100
AcDbLine
 10
57.418992
 20
37.419901
 30
0.0
 11
57.418992
 21
37.419901
 31
0.0
  0
LINE
  5
162
100
AcDbEntity
  8
BottomPlate_-_Cut
 62
7
100
AcDbLine
 10
318.724788
 20
37.419901
 30
0.0
 11
333.724476
 21
11.439472
 31
0.0
  0
LINE
  5
163
100
AcDbEntity
  8
BottomPlate_-_Cut
 62
7
100
AcDbLine
 10
333.724476
 20
11.439472
 30
0.0
 11
329.351132
 21
8.914356
 31
0.0
  0
LINE
  5
164
100
AcDbEntity
  8
BottomPlate_-_Cut
 62
7
100
AcDbLine
 10
329.351132
 20
8.914356
 30
0.0
 11
314.350908
 21
34.894786
 31
0.0
  0
LINE
  5
165
100
AcDbEntity
  8
BottomPlate_-_Cut
 62
7
100
AcDbLine
 10
314.350908
 20
34.894786
 30
0.0
 11
318.724788
 21
37.419901
 31
0.0
  0
LINE
  5
166
100
AcDbEntity
  8
BottomPlate_-_Cut
 62
7
100
AcDbLine
 10
318.724788
 20
37.419901
 30
0.0
 11
318.724788
 21
37.419901
 31
0.0
  0
SPLINE
  5
167
100
AcDbEntity
  8
BottomPlate_-_Cut
 62
7
100
AcDbSpline
 70
8
 71
3
 72
8
 73
4
 74
0
 40
0
 40
0
 40
0
 40
0
 40
1
 40
1
 40
1
 40
1
 10
126.110340
 20
35.925007
 30
0.0
 10
126.805000
 20
35.924901
 30
0.0
 10
127.368107
 20
35.361794
 30
0.0
 10
127.368213
 20
34.667134
 30
0.0
  0
SPLINE
  5
168
100
AcDbEntity
  8
BottomPlate_-_Cut
 62
7
100
AcDbSpline
 70
8
 71
3
 72
8
 73
4
 74
0
 40
0
 40
0
 40
0
 40
0
 40
1
 40
1
 40
1
 40
1
 10
127.368213
 20
34.667134
 30
0.0
 10
127.368308
 20
34.333445
 30
0.0
 10
127.235831
 20
34.013388
 30
0.0
 10
126.999930
 20
33.777382
 30
0.0
  0
SPLINE
  5
169
100
AcDbEntity
  8
BottomPlate_-_Cut
 62
7
100
AcDbSpline
 70
8
 71
3
 72
8
 73
4
 74
0
 40
0
 40
0
 40
0
 40
0
 40
1
 40
1
 40
1
 40
1
 10
126.999930
 20
33.777382
 30
0.0
 10
126.764028
 20
33.541377
 30
0.0
 10
126.444029
 20
33.408759
 30
0.0
 10
126.110340
 20
33.408708
 30
0.0
  0
SPLINE
  5
16a
100
AcDbEntity
  8
BottomPlate_-_Cut
 62
7
100
AcDbSpline
 70
8
 71
3
 72
8
 73
4
 74
0
 40
0
 40
0
 40
0
 40
0
 40
1
 40
1
 40
1
 40
1
 10
126.110340
 20
33.408708
 30
0.0
 10
125.776555
 20
33.408612
 30
0.0
 10
125.456414
 20
33.541165
 30
0.0
 10
125.220392
 20
33.777186
 30
0.0
  0
SPLINE
  5
16b
100
AcDbEntity
  8
BottomPlate_-_Cut
 62
7
100
AcDbSpline
 70
8
 71
3
 72
8
 73
4
 74
0
 40
0
 40
0
 40
0
 40
0
 40
1
 40
1
 40
1
 40
1
 10
125.220392
 20
33.777186
 30
0.0
 10
124.984371
 20
34.013208
 30
0.0
 10
124.851818
 20
34.333349
 30
0.0
 10
124.851914
 20
34.667134
 30
0.0
  0
SPLINE
  5
16c
100
AcDbEntity
  8
BottomPlate_-_Cut
 62
7
100
AcDbSpline
 70
8
 71
3
 72
8
 73
4
 74
0
 40
0
 40
0
 40
0
 40
0
 40
1
 40
1
 40
1
 40
1
 10
124.851914
 20
34.667134
 30
0.0
 10
124.851964
 20
35.000823
 30
0.0
 10
124.984582
 20
35.320822
 30
0.0
 10
125.220588
 20
35.556724
 30
0.0
  0
SPLINE
  5
16d
100
AcDbEntity
  8
BottomPlate_-_Cut
 62
7
100
AcDbSpline
 70
8
 71
3
 72
8
 73
4
 74
0
 40
0
 40
0
 40
0
 40
0
 40
1
 40
1
 40
1
 40
1
 10
125.220588
 20
35.556724
 30
0.0
 10
125.456593
 20
35.792626
 30
0.0
 10
125.776651
 20
35.925103
 30
0.0
 10
126.110340
 20
35.925007
 30
0.0
  0
LINE
  5
16e
100
AcDbEntity
  8
BottomPlate_-_Cut
 62
7
100
AcDbLine
 10
126.110340
 20
35.925007
 30
0.0
 11
126.110340
 21
35.925007
 31
0.0
  0
SPLINE
  5
16f
100
AcDbEntity
  8
BottomPlate_-_Cut
 62
7
100
AcDbSpline
 70
8
 71
3
 72
8
 73
4
 74
0
 40
0
 40
0
 40
0
 40
0
 40
1
 40
1
 40
1
 40
1
 10
146.110082
 20
35.925007
 30
0.0
 10
146.443771
 20
35.925103
 30
0.0
 10
146.763829
 20
35.792626
 30
0.0
 10
146.999834
 20
35.556724
 30
0.0
  0
SPLINE
  5
170
100
AcDbEntity
  8
BottomPlate_-_Cut
 62
7
100
AcDbSpline
 70
8
 71
3
 72
8
 73
4
 74
0
 40
0
 40
0
 40
0
 40
0
 40
1
 40
1
 40
1
 40
1
 10
146.999834
 20
35.556724
 30
0.0
 10
147.235840
 20
35.320822
 30
0.0
 10
147.368458
 20
35.000823
 30
0.0
 10
147.368508
 20
34.667134
 30
0.0
  0
SPLINE
  5
171
100
AcDbEntity
  8
BottomPlate_-_Cut
 62
7
100
AcDbSpline
 70
8
 71
3
 72
8
 73
4
 74
0
 40
0
 40
0
 40
0
 40
0
 40
1
 40
1
 40
1
 40
1
 10
147.368508
 20
34.667134
 30
0.0
 10
147.368604
 20
34.333349
 30
0.0
 10
147.236051
 20
34.013208
 30
0.0
 10
147.000030
 20
33.777186
 30
0.0
  0
SPLINE
  5
172
100
AcDbEntity
  8
BottomPlate_-_Cut
 62
7
100
AcDbSpline
 70
8
 71
3
 72
8
 73
4
 74
0
 40
0
 40
0
 40
0
 40
0
 40
1
 40
1
 40
1
 40
1
 10
147.000030
 20
33.777186
 30
0.0
 10
146.764008
 20
33.541165
 30
0.0
 10
146.443867
 20
33.408612
 30
0.0
 10
146.110082
 20
33.408708
 30
0.0
  0
SPLINE
  5
173
100
AcDbEntity
  8
BottomPlate_-_Cut
 62
7
100
AcDbSpline
 70
8
 71
3
 72
8
 73
4
 74
0
 40
0
 40
0
 40
0
 40
0
 40
1
 40
1
 40
1
 40
1
 10
146.110082
 20
33.408708
 30
0.0
 10
145.776393
 20
33.408759
 30
0.0
 10
145.456394
 20
33.541377
 30
0.0
 10
145.220492
 20
33.777382
 30
0.0
  0
SPLINE
  5
174
100
AcDbEntity
  8
BottomPlate_-_Cut
 62
7
100
AcDbSpline
 70
8
 71
3
 72
8
 73
4
 74
0
 40
0
 40
0
 40
0
 40
0
 40
1
 40
1
 40
1
 40
1
 10
145.220492
 20
33.777382
 30
0.0
 10
144.984591
 20
34.013388
 30
0.0
 10
144.852113
 20
34.333445
 30
0.0
 10
144.852209
 20
34.667134
 30
0.0
  0
SPLINE
  5
175
100
AcDbEntity
  8
BottomPlate_-_Cut
 62
7
100
AcDbSpline
 70
8
 71
3
 72
8
 73
4
 74
0
 40
0
 40
0
 40
0
 40
0
 40
1
 40
1
 40
1
 40
1
 10
144.852209
 20
34.667134
 30
0.0
 10
144.852315
 20
35.361794
 30
0.0
 10
145.415422
 20
35.924901
 30
0.0
 10
146.110082
 20
35.925007
 30
0.0
  0
LINE
  5
176
100
AcDbEntity
  8
BottomPlate_-_Cut
 62
7
100
AcDbLine
 10
146.110082
 20
35.925007
 30
0.0
 11
146.110082
 21
35.925007
 31
0.0
  0
SPLINE
  5
177
100
AcDbEntity
  8
BottomPlate_-_Cut
 62
7
100
AcDbSpline
 70
8
 71
3
 72
8
 73
4
 74
0
 40
0
 40
0
 40
0
 40
0
 40
1
 40
1
 40
1
 40
1
 10
230.033158
 20
35.925007
 30
0.0
 10
230.366847
 20
35.925103
 30
0.0
 10
230.686905
 20
35.792626
 30
0.0
 10
230.922910
 20
35.556724
 30
0.0
  0
SPLINE
  5
178
100
AcDbEntity
  8
BottomPlate_-_Cut
 62
7
100
AcDbSpline
 70
8
 71
3
 72
8
 73
4
 74
0
 40
0
 40
0
 40
0
 40
0
 40
1
 40
1
 40
1
 40
1
 10
230.922910
 20
35.556724
 30
0.0
 10
231.158916
 20
35.320822
 30
0.0
 10
231.291534
 20
35.000823
 30
0.0
 10
231.291584
 20
34.667134
 30
0.0
  0
SPLINE
  5
179
100
AcDbEntity
  8
BottomPlate_-_Cut
 62
7
100
AcDbSpline
 70
8
 71
3
 72
8
 73
4
 74
0
 40
0
 40
0
 40
0
 40
0
 40
1
 40
1
 40
1
 40
1
 10
231.291584
 20
34.667134
 30
0.0
 10
231.291680
 20
34.333349
 30
0.0
 10
231.159127
 20
34.013208
 30
0.0
 10
230.923106
 20
33.777186
 30
0.0
  0
SPLINE
  5
17a
100
AcDbEntity
  8
BottomPlate_-_Cut
 62
7
100
AcDbSpline
 70
8
 71
3
 72
8
 73
4
 74
0
 40
0
 40
0
 40
0
 40
0
 40
1
 40
1
 40
1
 40
1
 10
230.923106
 20
33.777186
 30
0.0
 10
230.687084
 20
33.541165
 30
0.0
 10
230.366943
 20
33.408612
 30
0.0
 10
230.033158
 20
33.408708
 30
0.0
  0
SPLINE
  5
17b
100
AcDbEntity
  8
BottomPlate_-_Cut
 62
7
100
AcDbSpline
 70
8
 71
3
 72
8
 73
4
 74
0
 40
0
 40
0
 40
0
 40
0
 40
1
 40
1
 40
1
 40
1
 10
230.033158
 20
33.408708
 30
0.0
 10
229.699469
 20
33.408759
 30
0.0
 10
229.379470
 20
33.541377
 30
0.0
 10
229.143568
 20
33.777382
 30
0.0
  0
SPLINE
  5
17c
100
AcDbEntity
  8
BottomPlate_-_Cut
 62
7
100
AcDbSpline
 70
8
 71
3
 72
8
 73
4
 74
0
 40
0
 40
0
 40
0
 40
0
 40
1
 40
1
 40
1
 40
1
 10
229.143568
 20
33.777382
 30
0.0
 10
228.907667
 20
34.013388
 30
0.0
 10
228.775189
 20
34.333445
 30
0.0
 10
228.775285
 20
34.667134
 30
0.0
  0
SPLINE
  5
17d
100
AcDbEntity
  8
BottomPlate_-_Cut
 62
7
100
AcDbSpline
 70
8
 71
3
 72
8
 73
4
 74
0
 40
0
 40
0
 40
0
 40
0
 40
1
 40
1
 40
1
 40
1
 10
228.775285
 20
34.667134
 30
0.0
 10
228.775391
 20
35.361794
 30
0.0
 10
229.338498
 20
35.924901
 30
0.0
 10
230.033158
 20
35.925007
 30
0.0
  0
LINE
  5
17e
100
AcDbEntity
  8
BottomPlate_-_Cut
 62
7
100
AcDbLine
 10
230.033158
 20
35.925007
 30
0.0
 11
230.033158
 21
35.925007
 31
0.0
  0
SPLINE
  5
17f
100
AcDbEntity
  8
BottomPlate_-_Cut
 62
7
100
AcDbSpline
 70
8
 71
3
 72
8
 73
4
 74
0
 40
0
 40
0
 40
0
 40
0
 40
1
 40
1
 40
1
 40
1
 10
250.033454
 20
35.925007
 30
0.0
 10
250.728114
 20
35.924901
 30
0.0
 10
251.291221
 20
35.361794
 30
0.0
 10
251.291327
 20
34.667134
 30
0.0
  0
SPLINE
  5
180
100
AcDbEntity
  8
BottomPlate_-_Cut
 62
7
100
AcDbSpline
 70
8
 71
3
 72
8
 73
4
 74
0
 40
0
 40
0
 40
0
 40
0
 40
1
 40
1
 40
1
 40
1
 10
251.291327
 20
34.667134
 30
0.0
 10
251.291423
 20
34.333445
 30
0.0
 10
251.158946
 20
34.013388
 30
0.0
 10
250.923044
 20
33.777382
 30
0.0
  0
SPLINE
  5
181
100
AcDbEntity
  8
BottomPlate_-_Cut
 62
7
100
AcDbSpline
 70
8
 71
3
 72
8
 73
4
 74
0
 40
0
 40
0
 40
0
 40
0
 40
1
 40
1
 40
1
 40
1
 10
250.923044
 20
33.777382
 30
0.0
 10
250.687142
 20
33.541377
 30
0.0
 10
250.367143
 20
33.408759
 30
0.0
 10
250.033454
 20
33.408708
 30
0.0
  0
SPLINE
  5
182
100
AcDbEntity
  8
BottomPlate_-_Cut
 62
7
100
AcDbSpline
 70
8
 71
3
 72
8
 73
4
 74
0
 40
0
 40
0
 40
0
 40
0
 40
1
 40
1
 40
1
 40
1
 10
250.033454
 20
33.408708
 30
0.0
 10
249.699670
 20
33.408613
 30
0.0
 10
249.379529
 20
33.541166
 30
0.0
 10
249.143508
 20
33.777187
 30
0.0
  0
SPLINE
  5
183
100
AcDbEntity
  8
BottomPlate_-_Cut
 62
7
100
AcDbSpline
 70
8
 71
3
 72
8
 73
4
 74
0
 40
0
 40
0
 40
0
 40
0
 40
1
 40
1
 40
1
 40
1
 10
249.143508
 20
33.777187
 30
0.0
 10
248.907488
 20
34.013209
 30
0.0
 10
248.774935
 20
34.333350
 30
0.0
 10
248.775031
 20
34.667134
 30
0.0
  0
SPLINE
  5
184
100
AcDbEntity
  8
BottomPlate_-_Cut
 62
7
100
AcDbSpline
 70
8
 71
3
 72
8
 73
4
 74
0
 40
0
 40
0
 40
0
 40
0
 40
1
 40
1
 40
1
 40
1
 10
248.775031
 20
34.667134
 30
0.0
 10
248.775082
 20
35.000822
 30
0.0
 10
248.907699
 20
35.320821
 30
0.0
 10
249.143704
 20
35.556723
 30
0.0
  0
SPLINE
  5
185
100
AcDbEntity
  8
BottomPlate_-_Cut
 62
7
100
AcDbSpline
 70
8
 71
3
 72
8
 73
4
 74
0
 40
0
 40
0
 40
0
 40
0
 40
1
 40
1
 40
1
 40
1
 10
249.143704
 20
35.556723
 30
0.0
 10
249.379709
 20
35.792625
 30
0.0
 10
249.699766
 20
35.925102
 30
0.0
 10
250.033454
 20
35.925007
 30
0.0
  0
LINE
  5
186
100
AcDbEntity
  8
BottomPlate_-_Cut
 62
7
100
AcDbLine
 10
250.033454
 20
35.925007
 30
0.0
 11
250.033454
 21
35.925007
 31
0.0
  0
SPLINE
  5
187
100
AcDbEntity
  8
BottomPlate_-_Cut
 62
7
100
AcDbSpline
 70
8
 71
3
 72
8
 73
4
 74
0
 40
0
 40
0
 40
0
 40
0
 40
1
 40
1
 40
1
 40
1
 10
136.110486
 20
25.924858
 30
0.0
 10
136.805146
 20
25.924752
 30
0.0
 10
137.368253
 20
25.361645
 30
0.0
 10
137.368359
 20
24.666985
 30
0.0
  0
SPLINE
  5
188
100
AcDbEntity
  8
BottomPlate_-_Cut
 62
7
100
AcDbSpline
 70
8
 71
3
 72
8
 73
4
 74
0
 40
0
 40
0
 40
0
 40
0
 40
1
 40
1
 40
1
 40
1
 10
137.368359
 20
24.666985
 30
0.0
 10
137.368253
 20
23.972325
 30
0.0
 10
136.805146
 20
23.409218
 30
0.0
 10
136.110486
 20
23.409112
 30
0.0
  0
SPLINE
  5
189
100
AcDbEntity
  8
BottomPlate_-_Cut
 62
7
100
AcDbSpline
 70
8
 71
3
 72
8
 73
4
 74
0
 40
0
 40
0
 40
0
 40
0
 40
1
 40
1
 40
1
 40
1
 10
136.110486
 20
23.409112
 30
0.0
 10
135.776798
 20
23.409017
 30
0.0
 10
135.456741
 20
23.541494
 30
0.0
 10
135.220736
 20
23.777396
 30
0.0
  0
SPLINE
  5
18a
100
AcDbEntity
  8
BottomPlate_-_Cut
 62
7
100
AcDbSpline
 70
8
 71
3
 72
8
 73
4
 74
0
 40
0
 40
0
 40
0
 40
0
 40
1
 40
1
 40
1
 40
1
 10
135.220736
 20
23.777396
 30
0.0
 10
134.984731
 20
24.013298
 30
0.0
 10
134.852114
 20
24.333296
 30
0.0
 10
134.852063
 20
24.666985
 30
0.0
  0
SPLINE
  5
18b
100
AcDbEntity
  8
BottomPlate_-_Cut
 62
7
100
AcDbSpline
 70
8
 71
3
 72
8
 73
4
 74
0
 40
0
 40
0
 40
0
 40
0
 40
1
 40
1
 40
1
 40
1
 10
134.852063
 20
24.666985
 30
0.0
 10
134.852114
 20
25.000673
 30
0.0
 10
134.984731
 20
25.320672
 30
0.0
 10
135.220736
 20
25.556574
 30
0.0
  0
SPLINE
  5
18c
100
AcDbEntity
  8
BottomPlate_-_Cut
 62
7
100
AcDbSpline
 70
8
 71
3
 72
8
 73
4
 74
0
 40
0
 40
0
 40
0
 40
0
 40
1
 40
1
 40
1
 40
1
 10
135.220736
 20
25.556574
 30
0.0
 10
135.456741
 20
25.792475
 30
0.0
 10
135.776798
 20
25.924953
 30
0.0
 10
136.110486
 20
25.924858
 30
0.0
  0
LINE
  5
18d
100
AcDbEntity
  8
BottomPlate_-_Cut
 62
7
100
AcDbLine
 10
136.110486
 20
25.924858
 30
0.0
 11
136.110486
 21
25.924858
 31
0.0
  0
SPLINE
  5
18e
100
AcDbEntity
  8
BottomPlate_-_Cut
 62
7
100
AcDbSpline
 70
8
 71
3
 72
8
 73
4
 74
0
 40
0
 40
0
 40
0
 40
0
 40
1
 40
1
 40
1
 40
1
 10
240.033308
 20
25.924858
 30
0.0
 10
240.727968
 20
25.924752
 30
0.0
 10
241.291075
 20
25.361645
 30
0.0
 10
241.291181
 20
24.666985
 30
0.0
  0
SPLINE
  5
18f
100
AcDbEntity
  8
BottomPlate_-_Cut
 62
7
100
AcDbSpline
 70
8
 71
3
 72
8
 73
4
 74
0
 40
0
 40
0
 40
0
 40
0
 40
1
 40
1
 40
1
 40
1
 10
241.291181
 20
24.666985
 30
0.0
 10
241.291075
 20
23.972325
 30
0.0
 10
240.727968
 20
23.409218
 30
0.0
 10
240.033308
 20
23.409112
 30
0.0
  0
SPLINE
  5
190
100
AcDbEntity
  8
BottomPlate_-_Cut
 62
7
100
AcDbSpline
 70
8
 71
3
 72
8
 73
4
 74
0
 40
0
 40
0
 40
0
 40
0
 40
1
 40
1
 40
1
 40
1
 10
240.033308
 20
23.409112
 30
0.0
 10
239.338647
 20
23.409218
 30
0.0
 10
238.775541
 20
23.972325
 30
0.0
 10
238.775435
 20
24.666985
 30
0.0
  0
SPLINE
  5
191
100
AcDbEntity
  8
BottomPlate_-_Cut
 62
7
100
AcDbSpline
 70
8
 71
3
 72
8
 73
4
 74
0
 40
0
 40
0
 40
0
 40
0
 40
1
 40
1
 40
1
 40
1
 10
238.775435
 20
24.666985
 30
0.0
 10
238.775541
 20
25.361645
 30
0.0
 10
239.338647
 20
25.924752
 30
0.0
 10
240.033308
 20
25.924858
 30
0.0
  0
LINE
  5
192
100
AcDbEntity
  8
BottomPlate_-_Cut
 62
7
100
AcDbLine
 10
240.033308
 20
25.924858
 30
0.0
 11
240.033308
 21
25.924858
 31
0.0
  0
SPLINE
  5
193
100
AcDbEntity
  8
BottomPlate_-_Cut
 62
7
100
AcDbSpline
 70
8
 71
3
 72
8
 73
4
 74
0
 40
0
 40
0
 40
0
 40
0
 40
1
 40
1
 40
1
 40
1
 10
58.168094
 20
21.166769
 30
0.0
 10
58.996410
 20
21.166691
 30
0.0
 10
59.667873
 20
20.495229
 30
0.0
 10
59.667953
 20
19.666913
 30
0.0
  0
SPLINE
  5
194
100
AcDbEntity
  8
BottomPlate_-_Cut
 62
7
100
AcDbSpline
 70
8
 71
3
 72
8
 73
4
 74
0
 40
0
 40
0
 40
0
 40
0
 40
1
 40
1
 40
1
 40
1
 10
59.667953
 20
19.666913
 30
0.0
 10
59.667875
 20
18.838596
 30
0.0
 10
58.996411
 20
18.167132
 30
0.0
 10
58.168094
 20
18.167054
 30
0.0
  0
SPLINE
  5
195
100
AcDbEntity
  8
BottomPlate_-_Cut
 62
7
100
AcDbSpline
 70
8
 71
3
 72
8
 73
4
 74
0
 40
0
 40
0
 40
0
 40
0
 40
1
 40
1
 40
1
 40
1
 10
58.168094
 20
18.167054
 30
0.0
 10
57.770223
 20
18.166946
 30
0.0
 10
57.388610
 20
18.324915
 30
0.0
 10
57.107221
 20
18.606200
 30
0.0
  0
SPLINE
  5
196
100
AcDbEntity
  8
BottomPlate_-_Cut
 62
7
100
AcDbSpline
 70
8
 71
3
 72
8
 73
4
 74
0
 40
0
 40
0
 40
0
 40
0
 40
1
 40
1
 40
1
 40
1
 10
57.107221
 20
18.606200
 30
0.0
 10
56.825833
 20
18.887486
 30
0.0
 10
56.667725
 20
19.269042
 30
0.0
 10
56.667688
 20
19.666913
 30
0.0
  0
SPLINE
  5
197
100
AcDbEntity
  8
BottomPlate_-_Cut
 62
7
100
AcDbSpline
 70
8
 71
3
 72
8
 73
4
 74
0
 40
0
 40
0
 40
0
 40
0
 40
1
 40
1
 40
1
 40
1
 10
56.667688
 20
19.666913
 30
0.0
 10
56.667726
 20
20.064783
 30
0.0
 10
56.825834
 20
20.446338
 30
0.0
 10
57.107222
 20
20.727624
 30
0.0
  0
SPLINE
  5
198
100
AcDbEntity
  8
BottomPlate_-_Cut
 62
7
100
AcDbSpline
 70
8
 71
3
 72
8
 73
4
 74
0
 40
0
 40
0
 40
0
 40
0
 40
1
 40
1
 40
1
 40
1
 10
57.107222
 20
20.727624
 30
0.0
 10
57.388611
 20
21.008909
 30
0.0
 10
57.770224
 20
21.166877
 30
0.0
 10
58.168094
 20
21.166769
 30
0.0
  0
LINE
  5
199
100
AcDbEntity
  8
BottomPlate_-_Cut
 62
7
100
AcDbLine
 10
58.168094
 20
21.166769
 30
0.0
 11
58.168094
 21
21.166769
 31
0.0
  0
SPLINE
  5
19a
100
AcDbEntity
  8
BottomPlate_-_Cut
 62
7
100
AcDbSpline
 70
8
 71
3
 72
8
 73
4
 74
0
 40
0
 40
0
 40
0
 40
0
 40
1
 40
1
 40
1
 40
1
 10
317.975686
 20
21.166769
 30
0.0
 10
318.804006
 20
21.166697
 30
0.0
 10
319.475476
 20
20.495233
 30
0.0
 10
319.475556
 20
19.666913
 30
0.0
  0
SPLINE
  5
19b
100
AcDbEntity
  8
BottomPlate_-_Cut
 62
7
100
AcDbSpline
 70
8
 71
3
 72
8
 73
4
 74
0
 40
0
 40
0
 40
0
 40
0
 40
1
 40
1
 40
1
 40
1
 10
319.475556
 20
19.666913
 30
0.0
 10
319.475478
 20
18.838592
 30
0.0
 10
318.804007
 20
18.167126
 30
0.0
 10
317.975686
 20
18.167054
 30
0.0
  0
SPLINE
  5
19c
100
AcDbEntity
  8
BottomPlate_-_Cut
 62
7
100
AcDbSpline
 70
8
 71
3
 72
8
 73
4
 74
0
 40
0
 40
0
 40
0
 40
0
 40
1
 40
1
 40
1
 40
1
 10
317.975686
 20
18.167054
 30
0.0
 10
317.577815
 20
18.166946
 30
0.0
 10
317.196201
 20
18.324915
 30
0.0
 10
316.914813
 20
18.606200
 30
0.0
  0
SPLINE
  5
19d
100
AcDbEntity
  8
BottomPlate_-_Cut
 62
7
100
AcDbSpline
 70
8
 71
3
 72
8
 73
4
 74
0
 40
0
 40
0
 40
0
 40
0
 40
1
 40
1
 40
1
 40
1
 10
316.914813
 20
18.606200
 30
0.0
 10
316.633424
 20
18.887486
 30
0.0
 10
316.475317
 20
19.269042
 30
0.0
 10
316.475279
 20
19.666913
 30
0.0
  0
SPLINE
  5
19e
100
AcDbEntity
  8
BottomPlate_-_Cut
 62
7
100
AcDbSpline
 70
8
 71
3
 72
8
 73
4
 74
0
 40
0
 40
0
 40
0
 40
0
 40
1
 40
1
 40
1
 40
1
 10
316.475279
 20
19.666913
 30
0.0
 10
316.475318
 20
20.064783
 30
0.0
 10
316.633425
 20
20.446338
 30
0.0
 10
316.914814
 20
20.727624
 30
0.0
  0
SPLINE
  5
19f
100
AcDbEntity
  8
BottomPlate_-_Cut
 62
7
100
AcDbSpline
 70
8
 71
3
 72
8
 73
4
 74
0
 40
0
 40
0
 40
0
 40
0
 40
1
 40
1
 40
1
 40
1
 10
316.914814
 20
20.727624
 30
0.0
 10
317.196202
 20
21.008909
 30
0.0
 10
317.577815
 20
21.166877
 30
0.0
 10
317.975686
 20
21.166769
 30
0.0
  0
LINE
  5
1a0
100
AcDbEntity
  8
BottomPlate_-_Cut
 62
7
100
AcDbLine
 10
317.975686
 20
21.166769
 30
0.0
 11
317.975686
 21
21.166769
 31
0.0
  0
LINE
  5
1a1
100
AcDbEntity
  8
BottomPlate_-_Cut
 62
7
100
AcDbLine
 10
32.419174
 20
-5.880814
 30
0.0
 11
36.792518
 21
-8.405932
 31
0.0
  0
LINE
  5
1a2
100
AcDbEntity
  8
BottomPlate_-_Cut
 62
7
100
AcDbLine
 10
36.792518
 20
-8.405932
 30
0.0
 11
26.792370
 21
-25.726768
 31
0.0
  0
LINE
  5
1a3
100
AcDbEntity
  8
BottomPlate_-_Cut
 62
7
100
AcDbLine
 10
26.792370
 20
-25.726768
 30
0.0
 11
22.419028
 21
-23.201652
 31
0.0
  0
LINE
  5
1a4
100
AcDbEntity
  8
BottomPlate_-_Cut
 62
7
100
AcDbLine
 10
22.419028
 20
-23.201652
 30
0.0
 11
32.419174
 21
-5.880814
 31
0.0
  0
LINE
  5
1a5
100
AcDbEntity
  8
BottomPlate_-_Cut
 62
7
100
AcDbLine
 10
32.419174
 20
-5.880814
 30
0.0
 11
32.419174
 21
-5.880814
 31
0.0
  0
LINE
  5
1a6
100
AcDbEntity
  8
BottomPlate_-_Cut
 62
7
100
AcDbLine
 10
343.724625
 20
-5.880814
 30
0.0
 11
353.724774
 21
-23.201652
 31
0.0
  0
LINE
  5
1a7
100
AcDbEntity
  8
BottomPlate_-_Cut
 62
7
100
AcDbLine
 10
353.724774
 20
-23.201652
 30
0.0
 11
349.350866
 21
-25.726768
 31
0.0
  0
LINE
  5
1a8
100
AcDbEntity
  8
BottomPlate_-_Cut
 62
7
100
AcDbLine
 10
349.350866
 20
-25.726768
 30
0.0
 11
339.350717
 21
-8.405932
 31
0.0
  0
LINE
  5
1a9
100
AcDbEntity
  8
BottomPlate_-_Cut
 62
7
100
AcDbLine
 10
339.350717
 20
-8.405932
 30
0.0
 11
343.724625
 21
-5.880814
 31
0.0
  0
LINE
  5
1aa
100
AcDbEntity
  8
BottomPlate_-_Cut
 62
7
100
AcDbLine
 10
343.724625
 20
-5.880814
 30
0.0
 11
343.724625
 21
-5.880814
 31
0.0
  0
SPLINE
  5
1ab
100
AcDbEntity
  8
BottomPlate_-_Cut
 62
7
100
AcDbSpline
 70
8
 71
3
 72
8
 73
4
 74
0
 40
0
 40
0
 40
0
 40
0
 40
1
 40
1
 40
1
 40
1
 10
214.052325
 20
-8.833123
 30
0.0
 10
214.450196
 20
-8.833015
 30
0.0
 10
214.831810
 20
-8.990982
 30
0.0
 10
215.113199
 20
-9.272267
 30
0.0
  0
SPLINE
  5
1ac
100
AcDbEntity
  8
BottomPlate_-_Cut
 62
7
100
AcDbSpline
 70
8
 71
3
 72
8
 73
4
 74
0
 40
0
 40
0
 40
0
 40
0
 40
1
 40
1
 40
1
 40
1
 10
215.113199
 20
-9.272267
 30
0.0
 10
215.394588
 20
-9.553553
 30
0.0
 10
215.552696
 20
-9.935108
 30
0.0
 10
215.552734
 20
-10.332979
 30
0.0
  0
SPLINE
  5
1ad
100
AcDbEntity
  8
BottomPlate_-_Cut
 62
7
100
AcDbSpline
 70
8
 71
3
 72
8
 73
4
 74
0
 40
0
 40
0
 40
0
 40
0
 40
1
 40
1
 40
1
 40
1
 10
215.552734
 20
-10.332979
 30
0.0
 10
215.552697
 20
-10.730850
 30
0.0
 10
215.394589
 20
-11.112407
 30
0.0
 10
215.113200
 20
-11.393693
 30
0.0
  0
SPLINE
  5
1ae
100
AcDbEntity
  8
BottomPlate_-_Cut
 62
7
100
AcDbSpline
 70
8
 71
3
 72
8
 73
4
 74
0
 40
0
 40
0
 40
0
 40
0
 40
1
 40
1
 40
1
 40
1
 10
215.113200
 20
-11.393693
 30
0.0
 10
214.831811
 20
-11.674978
 30
0.0
 10
214.450196
 20
-11.832946
 30
0.0
 10
214.052325
 20
-11.832838
 30
0.0
  0
SPLINE
  5
1af
100
AcDbEntity
  8
BottomPlate_-_Cut
 62
7
100
AcDbSpline
 70
8
 71
3
 72
8
 73
4
 74
0
 40
0
 40
0
 40
0
 40
0
 40
1
 40
1
 40
1
 40
1
 10
214.052325
 20
-11.832838
 30
0.0
 10
213.224009
 20
-11.832758
 30
0.0
 10
212.552547
 20
-11.161295
 30
0.0
 10
212.552469
 20
-10.332979
 30
0.0
  0
SPLINE
  5
1b0
100
AcDbEntity
  8
BottomPlate_-_Cut
 62
7
100
AcDbSpline
 70
8
 71
3
 72
8
 73
4
 74
0
 40
0
 40
0
 40
0
 40
0
 40
1
 40
1
 40
1
 40
1
 10
212.552469
 20
-10.332979
 30
0.0
 10
212.552549
 20
-9.504665
 30
0.0
 10
213.224010
 20
-8.833203
 30
0.0
 10
214.052325
 20
-8.833123
 30
0.0
  0
LINE
  5
1b1
100
AcDbEntity
  8
BottomPlate_-_Cut
 62
7
100
AcDbLine
 10
214.052325
 20
-8.833123
 30
0.0
 11
214.052325
 21
-8.833123
 31
0.0
  0
LINE
  5
1b2
100
AcDbEntity
  8
BottomPlate_-_Cut
 62
7
100
AcDbLine
 10
12.418880
 20
-40.521937
 30
0.0
 11
16.792773
 21
-43.047056
 31
0.0
  0
LINE
  5
1b3
100
AcDbEntity
  8
BottomPlate_-_Cut
 62
7
100
AcDbLine
 10
16.792773
 20
-43.047056
 30
0.0
 11
11.792700
 21
-51.707750
 31
0.0
  0
LINE
  5
1b4
100
AcDbEntity
  8
BottomPlate_-_Cut
 62
7
100
AcDbLine
 10
11.792700
 20
-51.707750
 30
0.0
 11
7.418806
 21
-49.182632
 31
0.0
  0
LINE
  5
1b5
100
AcDbEntity
  8
BottomPlate_-_Cut
 62
7
100
AcDbLine
 10
7.418806
 20
-49.182632
 30
0.0
 11
12.418880
 21
-40.521937
 31
0.0
  0
LINE
  5
1b6
100
AcDbEntity
  8
BottomPlate_-_Cut
 62
7
100
AcDbLine
 10
12.418880
 20
-40.521937
 30
0.0
 11
12.418880
 21
-40.521937
 31
0.0
  0
LINE
  5
1b7
100
AcDbEntity
  8
BottomPlate_-_Cut
 62
7
100
AcDbLine
 10
363.724359
 20
-40.521937
 30
0.0
 11
368.724434
 21
-49.182632
 31
0.0
  0
LINE
  5
1b8
100
AcDbEntity
  8
BottomPlate_-_Cut
 62
7
100
AcDbLine
 10
368.724434
 20
-49.182632
 30
0.0
 11
364.351090
 21
-51.707750
 31
0.0
  0
LINE
  5
1b9
100
AcDbEntity
  8
BottomPlate_-_Cut
 62
7
100
AcDbLine
 10
364.351090
 20
-51.707750
 30
0.0
 11
359.351016
 21
-43.047056
 31
0.0
  0
LINE
  5
1ba
100
AcDbEntity
  8
BottomPlate_-_Cut
 62
7
100
AcDbLine
 10
359.351016
 20
-43.047056
 30
0.0
 11
363.724359
 21
-40.521937
 31
0.0
  0
LINE
  5
1bb
100
AcDbEntity
  8
BottomPlate_-_Cut
 62
7
100
AcDbLine
 10
363.724359
 20
-40.521937
 30
0.0
 11
363.724359
 21
-40.521937
 31
0.0
  0
SPLINE
  5
1bc
100
AcDbEntity
  8
BottomPlate_-_Cut
 62
7
100
AcDbSpline
 70
8
 71
3
 72
8
 73
4
 74
0
 40
0
 40
0
 40
0
 40
0
 40
1
 40
1
 40
1
 40
1
 10
84.148524
 20
-44.075073
 30
0.0
 10
84.482213
 20
-44.074977
 30
0.0
 10
84.802270
 20
-44.207454
 30
0.0
 10
85.038276
 20
-44.443356
 30
0.0
  0
SPLINE
  5
1bd
100
AcDbEntity
  8
BottomPlate_-_Cut
 62
7
100
AcDbSpline
 70
8
 71
3
 72
8
 73
4
 74
0
 40
0
 40
0
 40
0
 40
0
 40
1
 40
1
 40
1
 40
1
 10
85.038276
 20
-44.443356
 30
0.0
 10
85.274281
 20
-44.679258
 30
0.0
 10
85.406899
 20
-44.999257
 30
0.0
 10
85.406950
 20
-45.332946
 30
0.0
  0
SPLINE
  5
1be
100
AcDbEntity
  8
BottomPlate_-_Cut
 62
7
100
AcDbSpline
 70
8
 71
3
 72
8
 73
4
 74
0
 40
0
 40
0
 40
0
 40
0
 40
1
 40
1
 40
1
 40
1
 10
85.406950
 20
-45.332946
 30
0.0
 10
85.406899
 20
-45.666635
 30
0.0
 10
85.274281
 20
-45.986634
 30
0.0
 10
85.038276
 20
-46.222536
 30
0.0
  0
SPLINE
  5
1bf
100
AcDbEntity
  8
BottomPlate_-_Cut
 62
7
100
AcDbSpline
 70
8
 71
3
 72
8
 73
4
 74
0
 40
0
 40
0
 40
0
 40
0
 40
1
 40
1
 40
1
 40
1
 10
85.038276
 20
-46.222536
 30
0.0
 10
84.802270
 20
-46.458438
 30
0.0
 10
84.482213
 20
-46.590915
 30
0.0
 10
84.148524
 20
-46.590819
 30
0.0
  0
SPLINE
  5
1c0
100
AcDbEntity
  8
BottomPlate_-_Cut
 62
7
100
AcDbSpline
 70
8
 71
3
 72
8
 73
4
 74
0
 40
0
 40
0
 40
0
 40
0
 40
1
 40
1
 40
1
 40
1
 10
84.148524
 20
-46.590819
 30
0.0
 10
83.453863
 20
-46.590713
 30
0.0
 10
82.890756
 20
-46.027606
 30
0.0
 10
82.890651
 20
-45.332946
 30
0.0
  0
SPLINE
  5
1c1
100
AcDbEntity
  8
BottomPlate_-_Cut
 62
7
100
AcDbSpline
 70
8
 71
3
 72
8
 73
4
 74
0
 40
0
 40
0
 40
0
 40
0
 40
1
 40
1
 40
1
 40
1
 10
82.890651
 20
-45.332946
 30
0.0
 10
82.890756
 20
-44.638286
 30
0.0
 10
83.453863
 20
-44.075179
 30
0.0
 10
84.148524
 20
-44.075073
 30
0.0
  0
LINE
  5
1c2
100
AcDbEntity
  8
BottomPlate_-_Cut
 62
7
100
AcDbLine
 10
84.148524
 20
-44.075073
 30
0.0
 11
84.148524
 21
-44.075073
 31
0.0
  0
SPLINE
  5
1c3
100
AcDbEntity
  8
BottomPlate_-_Cut
 62
7
100
AcDbSpline
 70
8
 71
3
 72
8
 73
4
 74
0
 40
0
 40
0
 40
0
 40
0
 40
1
 40
1
 40
1
 40
1
 10
291.994731
 20
-44.075073
 30
0.0
 10
292.689388
 20
-44.075183
 30
0.0
 10
293.252490
 20
-44.638289
 30
0.0
 10
293.252596
 20
-45.332946
 30
0.0
  0
SPLINE
  5
1c4
100
AcDbEntity
  8
BottomPlate_-_Cut
 62
7
100
AcDbSpline
 70
8
 71
3
 72
8
 73
4
 74
0
 40
0
 40
0
 40
0
 40
0
 40
1
 40
1
 40
1
 40
1
 10
293.252596
 20
-45.332946
 30
0.0
 10
293.252490
 20
-46.027603
 30
0.0
 10
292.689388
 20
-46.590708
 30
0.0
 10
291.994731
 20
-46.590819
 30
0.0
  0
SPLINE
  5
1c5
100
AcDbEntity
  8
BottomPlate_-_Cut
 62
7
100
AcDbSpline
 70
8
 71
3
 72
8
 73
4
 74
0
 40
0
 40
0
 40
0
 40
0
 40
1
 40
1
 40
1
 40
1
 10
291.994731
 20
-46.590819
 30
0.0
 10
291.300063
 20
-46.590724
 30
0.0
 10
290.736944
 20
-46.027614
 30
0.0
 10
290.736838
 20
-45.332946
 30
0.0
  0
SPLINE
  5
1c6
100
AcDbEntity
  8
BottomPlate_-_Cut
 62
7
100
AcDbSpline
 70
8
 71
3
 72
8
 73
4
 74
0
 40
0
 40
0
 40
0
 40
0
 40
1
 40
1
 40
1
 40
1
 10
290.736838
 20
-45.332946
 30
0.0
 10
290.736944
 20
-44.638278
 30
0.0
 10
291.300063
 20
-44.075168
 30
0.0
 10
291.994731
 20
-44.075073
 30
0.0
  0
LINE
  5
1c7
100
AcDbEntity
  8
BottomPlate_-_Cut
 62
7
100
AcDbLine
 10
291.994731
 20
-44.075073
 30
0.0
 11
291.994731
 21
-44.075073
 31
0.0
  0
SPLINE
  5
1c8
100
AcDbEntity
  8
BottomPlate_-_Cut
 62
7
100
AcDbSpline
 70
8
 71
3
 72
8
 73
4
 74
0
 40
0
 40
0
 40
0
 40
0
 40
1
 40
1
 40
1
 40
1
 10
32.187114
 20
-51.332923
 30
0.0
 10
33.248039
 20
-51.332877
 30
0.0
 10
34.265524
 20
-51.754308
 30
0.0
 10
35.015711
 20
-52.504495
 30
0.0
  0
SPLINE
  5
1c9
100
AcDbEntity
  8
BottomPlate_-_Cut
 62
7
100
AcDbSpline
 70
8
 71
3
 72
8
 73
4
 74
0
 40
0
 40
0
 40
0
 40
0
 40
1
 40
1
 40
1
 40
1
 10
35.015711
 20
-52.504495
 30
0.0
 10
35.765898
 20
-53.254683
 30
0.0
 10
36.187329
 20
-54.272168
 30
0.0
 10
36.187284
 20
-55.333092
 30
0.0
  0
SPLINE
  5
1ca
100
AcDbEntity
  8
BottomPlate_-_Cut
 62
7
100
AcDbSpline
 70
8
 71
3
 72
8
 73
4
 74
0
 40
0
 40
0
 40
0
 40
0
 40
1
 40
1
 40
1
 40
1
 10
36.187284
 20
-55.333092
 30
0.0
 10
36.187329
 20
-56.394017
 30
0.0
 10
35.765898
 20
-57.411502
 30
0.0
 10
35.015711
 20
-58.161689
 30
0.0
  0
SPLINE
  5
1cb
100
AcDbEntity
  8
BottomPlate_-_Cut
 62
7
100
AcDbSpline
 70
8
 71
3
 72
8
 73
4
 74
0
 40
0
 40
0
 40
0
 40
0
 40
1
 40
1
 40
1
 40
1
 10
35.015711
 20
-58.161689
 30
0.0
 10
34.265524
 20
-58.911876
 30
0.0
 10
33.248039
 20
-59.333307
 30
0.0
 10
32.187114
 20
-59.333262
 30
0.0
  0
SPLINE
  5
1cc
100
AcDbEntity
  8
BottomPlate_-_Cut
 62
7
100
AcDbSpline
 70
8
 71
3
 72
8
 73
4
 74
0
 40
0
 40
0
 40
0
 40
0
 40
1
 40
1
 40
1
 40
1
 10
32.187114
 20
-59.333262
 30
0.0
 10
31.126189
 20
-59.333307
 30
0.0
 10
30.108704
 20
-58.911876
 30
0.0
 10
29.358517
 20
-58.161689
 30
0.0
  0
SPLINE
  5
1cd
100
AcDbEntity
  8
BottomPlate_-_Cut
 62
7
100
AcDbSpline
 70
8
 71
3
 72
8
 73
4
 74
0
 40
0
 40
0
 40
0
 40
0
 40
1
 40
1
 40
1
 40
1
 10
29.358517
 20
-58.161689
 30
0.0
 10
28.608330
 20
-57.411502
 30
0.0
 10
28.186899
 20
-56.394017
 30
0.0
 10
28.186944
 20
-55.333092
 30
0.0
  0
SPLINE
  5
1ce
100
AcDbEntity
  8
BottomPlate_-_Cut
 62
7
100
AcDbSpline
 70
8
 71
3
 72
8
 73
4
 74
0
 40
0
 40
0
 40
0
 40
0
 40
1
 40
1
 40
1
 40
1
 10
28.186944
 20
-55.333092
 30
0.0
 10
28.186899
 20
-54.272168
 30
0.0
 10
28.608330
 20
-53.254683
 30
0.0
 10
29.358517
 20
-52.504495
 30
0.0
  0
SPLINE
  5
1cf
100
AcDbEntity
  8
BottomPlate_-_Cut
 62
7
100
AcDbSpline
 70
8
 71
3
 72
8
 73
4
 74
0
 40
0
 40
0
 40
0
 40
0
 40
1
 40
1
 40
1
 40
1
 10
29.358517
 20
-52.504495
 30
0.0
 10
30.108704
 20
-51.754308
 30
0.0
 10
31.126189
 20
-51.332877
 30
0.0
 10
32.187114
 20
-51.332923
 30
0.0
  0
LINE
  5
1d0
100
AcDbEntity
  8
BottomPlate_-_Cut
 62
7
100
AcDbLine
 10
32.187114
 20
-51.332923
 30
0.0
 11
32.187114
 21
-51.332923
 31
0.0
  0
SPLINE
  5
1d1
100
AcDbEntity
  8
BottomPlate_-_Cut
 62
7
100
AcDbSpline
 70
8
 71
3
 72
8
 73
4
 74
0
 40
0
 40
0
 40
0
 40
0
 40
1
 40
1
 40
1
 40
1
 10
188.071895
 20
-51.332923
 30
0.0
 10
190.280952
 20
-51.333133
 30
0.0
 10
192.071609
 20
-53.124036
 30
0.0
 10
192.071515
 20
-55.333092
 30
0.0
  0
SPLINE
  5
1d2
100
AcDbEntity
  8
BottomPlate_-_Cut
 62
7
100
AcDbSpline
 70
8
 71
3
 72
8
 73
4
 74
0
 40
0
 40
0
 40
0
 40
0
 40
1
 40
1
 40
1
 40
1
 10
192.071515
 20
-55.333092
 30
0.0
 10
192.071609
 20
-57.542149
 30
0.0
 10
190.280952
 20
-59.333052
 30
0.0
 10
188.071895
 20
-59.333262
 30
0.0
  0
SPLINE
  5
1d3
100
AcDbEntity
  8
BottomPlate_-_Cut
 62
7
100
AcDbSpline
 70
8
 71
3
 72
8
 73
4
 74
0
 40
0
 40
0
 40
0
 40
0
 40
1
 40
1
 40
1
 40
1
 10
188.071895
 20
-59.333262
 30
0.0
 10
187.010971
 20
-59.333306
 30
0.0
 10
185.993487
 20
-58.911875
 30
0.0
 10
185.243300
 20
-58.161688
 30
0.0
  0
SPLINE
  5
1d4
100
AcDbEntity
  8
BottomPlate_-_Cut
 62
7
100
AcDbSpline
 70
8
 71
3
 72
8
 73
4
 74
0
 40
0
 40
0
 40
0
 40
0
 40
1
 40
1
 40
1
 40
1
 10
185.243300
 20
-58.161688
 30
0.0
 10
184.493114
 20
-57.411501
 30
0.0
 10
184.071683
 20
-56.394017
 30
0.0
 10
184.071728
 20
-55.333092
 30
0.0
  0
SPLINE
  5
1d5
100
AcDbEntity
  8
BottomPlate_-_Cut
 62
7
100
AcDbSpline
 70
8
 71
3
 72
8
 73
4
 74
0
 40
0
 40
0
 40
0
 40
0
 40
1
 40
1
 40
1
 40
1
 10
184.071728
 20
-55.333092
 30
0.0
 10
184.071683
 20
-54.272168
 30
0.0
 10
184.493114
 20
-53.254683
 30
0.0
 10
185.243300
 20
-52.504496
 30
0.0
  0
SPLINE
  5
1d6
100
AcDbEntity
  8
BottomPlate_-_Cut
 62
7
100
AcDbSpline
 70
8
 71
3
 72
8
 73
4
 74
0
 40
0
 40
0
 40
0
 40
0
 40
1
 40
1
 40
1
 40
1
 10
185.243300
 20
-52.504496
 30
0.0
 10
185.993487
 20
-51.754309
 30
0.0
 10
187.010971
 20
-51.332878
 30
0.0
 10
188.071895
 20
-51.332923
 30
0.0
  0
LINE
  5
1d7
100
AcDbEntity
  8
BottomPlate_-_Cut
 62
7
100
AcDbLine
 10
188.071895
 20
-51.332923
 30
0.0
 11
188.071895
 21
-51.332923
 31
0.0
  0
SPLINE
  5
1d8
100
AcDbEntity
  8
BottomPlate_-_Cut
 62
7
100
AcDbSpline
 70
8
 71
3
 72
8
 73
4
 74
0
 40
0
 40
0
 40
0
 40
0
 40
1
 40
1
 40
1
 40
1
 10
343.956132
 20
-51.332923
 30
0.0
 10
345.017055
 20
-51.332880
 30
0.0
 10
346.034538
 20
-51.754311
 30
0.0
 10
346.784723
 20
-52.504498
 30
0.0
  0
SPLINE
  5
1d9
100
AcDbEntity
  8
BottomPlate_-_Cut
 62
7
100
AcDbSpline
 70
8
 71
3
 72
8
 73
4
 74
0
 40
0
 40
0
 40
0
 40
0
 40
1
 40
1
 40
1
 40
1
 10
346.784723
 20
-52.504498
 30
0.0
 10
347.534909
 20
-53.254685
 30
0.0
 10
347.956338
 20
-54.272169
 30
0.0
 10
347.956293
 20
-55.333092
 30
0.0
  0
SPLINE
  5
1da
100
AcDbEntity
  8
BottomPlate_-_Cut
 62
7
100
AcDbSpline
 70
8
 71
3
 72
8
 73
4
 74
0
 40
0
 40
0
 40
0
 40
0
 40
1
 40
1
 40
1
 40
1
 10
347.956293
 20
-55.333092
 30
0.0
 10
347.956338
 20
-56.394016
 30
0.0
 10
347.534909
 20
-57.411499
 30
0.0
 10
346.784723
 20
-58.161686
 30
0.0
  0
SPLINE
  5
1db
100
AcDbEntity
  8
BottomPlate_-_Cut
 62
7
100
AcDbSpline
 70
8
 71
3
 72
8
 73
4
 74
0
 40
0
 40
0
 40
0
 40
0
 40
1
 40
1
 40
1
 40
1
 10
346.784723
 20
-58.161686
 30
0.0
 10
346.034538
 20
-58.911873
 30
0.0
 10
345.017055
 20
-59.333305
 30
0.0
 10
343.956132
 20
-59.333262
 30
0.0
  0
SPLINE
  5
1dc
100
AcDbEntity
  8
BottomPlate_-_Cut
 62
7
100
AcDbSpline
 70
8
 71
3
 72
8
 73
4
 74
0
 40
0
 40
0
 40
0
 40
0
 40
1
 40
1
 40
1
 40
1
 10
343.956132
 20
-59.333262
 30
0.0
 10
341.747073
 20
-59.333055
 30
0.0
 10
339.956413
 20
-57.542151
 30
0.0
 10
339.956507
 20
-55.333092
 30
0.0
  0
SPLINE
  5
1dd
100
AcDbEntity
  8
BottomPlate_-_Cut
 62
7
100
AcDbSpline
 70
8
 71
3
 72
8
 73
4
 74
0
 40
0
 40
0
 40
0
 40
0
 40
1
 40
1
 40
1
 40
1
 10
339.956507
 20
-55.333092
 30
0.0
 10
339.956413
 20
-53.124033
 30
0.0
 10
341.747073
 20
-51.333130
 30
0.0
 10
343.956132
 20
-51.332923
 30
0.0
  0
LINE
  5
1de
100
AcDbEntity
  8
BottomPlate_-_Cut
 62
7
100
AcDbLine
 10
343.956132
 20
-51.332923
 30
0.0
 11
343.956132
 21
-51.332923
 31
0.0
  0
SPLINE
  5
1df
100
AcDbEntity
  8
BottomPlate_-_Cut
 62
7
100
AcDbSpline
 70
8
 71
3
 72
8
 73
4
 74
0
 40
0
 40
0
 40
0
 40
0
 40
1
 40
1
 40
1
 40
1
 10
136.110486
 20
-53.833236
 30
0.0
 10
136.938801
 20
-53.833316
 30
0.0
 10
137.610262
 20
-54.504778
 30
0.0
 10
137.610342
 20
-55.333092
 30
0.0
  0
SPLINE
  5
1e0
100
AcDbEntity
  8
BottomPlate_-_Cut
 62
7
100
AcDbSpline
 70
8
 71
3
 72
8
 73
4
 74
0
 40
0
 40
0
 40
0
 40
0
 40
1
 40
1
 40
1
 40
1
 10
137.610342
 20
-55.333092
 30
0.0
 10
137.610262
 20
-56.161407
 30
0.0
 10
136.938801
 20
-56.832869
 30
0.0
 10
136.110486
 20
-56.832948
 30
0.0
  0
SPLINE
  5
1e1
100
AcDbEntity
  8
BottomPlate_-_Cut
 62
7
100
AcDbSpline
 70
8
 71
3
 72
8
 73
4
 74
0
 40
0
 40
0
 40
0
 40
0
 40
1
 40
1
 40
1
 40
1
 10
136.110486
 20
-56.832948
 30
0.0
 10
135.712615
 20
-56.833057
 30
0.0
 10
135.331001
 20
-56.675089
 30
0.0
 10
135.049612
 20
-56.393804
 30
0.0
  0
SPLINE
  5
1e2
100
AcDbEntity
  8
BottomPlate_-_Cut
 62
7
100
AcDbSpline
 70
8
 71
3
 72
8
 73
4
 74
0
 40
0
 40
0
 40
0
 40
0
 40
1
 40
1
 40
1
 40
1
 10
135.049612
 20
-56.393804
 30
0.0
 10
134.768224
 20
-56.112519
 30
0.0
 10
134.610115
 20
-55.730963
 30
0.0
 10
134.610077
 20
-55.333092
 30
0.0
  0
SPLINE
  5
1e3
100
AcDbEntity
  8
BottomPlate_-_Cut
 62
7
100
AcDbSpline
 70
8
 71
3
 72
8
 73
4
 74
0
 40
0
 40
0
 40
0
 40
0
 40
1
 40
1
 40
1
 40
1
 10
134.610077
 20
-55.333092
 30
0.0
 10
134.610115
 20
-54.935222
 30
0.0
 10
134.768224
 20
-54.553666
 30
0.0
 10
135.049612
 20
-54.272381
 30
0.0
  0
SPLINE
  5
1e4
100
AcDbEntity
  8
BottomPlate_-_Cut
 62
7
100
AcDbSpline
 70
8
 71
3
 72
8
 73
4
 74
0
 40
0
 40
0
 40
0
 40
0
 40
1
 40
1
 40
1
 40
1
 10
135.049612
 20
-54.272381
 30
0.0
 10
135.331001
 20
-53.991096
 30
0.0
 10
135.712615
 20
-53.833128
 30
0.0
 10
136.110486
 20
-53.833236
 30
0.0
  0
LINE
  5
1e5
100
AcDbEntity
  8
BottomPlate_-_Cut
 62
7
100
AcDbLine
 10
136.110486
 20
-53.833236
 30
0.0
 11
136.110486
 21
-53.833236
 31
0.0
  0
SPLINE
  5
1e6
100
AcDbEntity
  8
BottomPlate_-_Cut
 62
7
100
AcDbSpline
 70
8
 71
3
 72
8
 73
4
 74
0
 40
0
 40
0
 40
0
 40
0
 40
1
 40
1
 40
1
 40
1
 10
74.148927
 20
-54.074669
 30
0.0
 10
74.482616
 20
-54.074720
 30
0.0
 10
74.802615
 20
-54.207337
 30
0.0
 10
75.038516
 20
-54.443342
 30
0.0
  0
SPLINE
  5
1e7
100
AcDbEntity
  8
BottomPlate_-_Cut
 62
7
100
AcDbSpline
 70
8
 71
3
 72
8
 73
4
 74
0
 40
0
 40
0
 40
0
 40
0
 40
1
 40
1
 40
1
 40
1
 10
75.038516
 20
-54.443342
 30
0.0
 10
75.274418
 20
-54.679347
 30
0.0
 10
75.406895
 20
-54.999404
 30
0.0
 10
75.406800
 20
-55.333092
 30
0.0
  0
SPLINE
  5
1e8
100
AcDbEntity
  8
BottomPlate_-_Cut
 62
7
100
AcDbSpline
 70
8
 71
3
 72
8
 73
4
 74
0
 40
0
 40
0
 40
0
 40
0
 40
1
 40
1
 40
1
 40
1
 10
75.406800
 20
-55.333092
 30
0.0
 10
75.406695
 20
-56.027753
 30
0.0
 10
74.843588
 20
-56.590859
 30
0.0
 10
74.148927
 20
-56.590965
 30
0.0
  0
SPLINE
  5
1e9
100
AcDbEntity
  8
BottomPlate_-_Cut
 62
7
100
AcDbSpline
 70
8
 71
3
 72
8
 73
4
 74
0
 40
0
 40
0
 40
0
 40
0
 40
1
 40
1
 40
1
 40
1
 10
74.148927
 20
-56.590965
 30
0.0
 10
73.815239
 20
-56.591060
 30
0.0
 10
73.495182
 20
-56.458583
 30
0.0
 10
73.259177
 20
-56.222681
 30
0.0
  0
SPLINE
  5
1ea
100
AcDbEntity
  8
BottomPlate_-_Cut
 62
7
100
AcDbSpline
 70
8
 71
3
 72
8
 73
4
 74
0
 40
0
 40
0
 40
0
 40
0
 40
1
 40
1
 40
1
 40
1
 10
73.259177
 20
-56.222681
 30
0.0
 10
73.023172
 20
-55.986780
 30
0.0
 10
72.890555
 20
-55.666781
 30
0.0
 10
72.890504
 20
-55.333092
 30
0.0
  0
SPLINE
  5
1eb
100
AcDbEntity
  8
BottomPlate_-_Cut
 62
7
100
AcDbSpline
 70
8
 71
3
 72
8
 73
4
 74
0
 40
0
 40
0
 40
0
 40
0
 40
1
 40
1
 40
1
 40
1
 10
72.890504
 20
-55.333092
 30
0.0
 10
72.890409
 20
-54.999309
 30
0.0
 10
73.022962
 20
-54.679168
 30
0.0
 10
73.258983
 20
-54.443148
 30
0.0
  0
SPLINE
  5
1ec
100
AcDbEntity
  8
BottomPlate_-_Cut
 62
7
100
AcDbSpline
 70
8
 71
3
 72
8
 73
4
 74
0
 40
0
 40
0
 40
0
 40
0
 40
1
 40
1
 40
1
 40
1
 10
73.258983
 20
-54.443148
 30
0.0
 10
73.495003
 20
-54.207127
 30
0.0
 10
73.815144
 20
-54.074574
 30
0.0
 10
74.148927
 20
-54.074669
 30
0.0
  0
LINE
  5
1ed
100
AcDbEntity
  8
BottomPlate_-_Cut
 62
7
100
AcDbLine
 10
74.148927
 20
-54.074669
 30
0.0
 11
74.148927
 21
-54.074669
 31
0.0
  0
SPLINE
  5
1ee
100
AcDbEntity
  8
BottomPlate_-_Cut
 62
7
100
AcDbSpline
 70
8
 71
3
 72
8
 73
4
 74
0
 40
0
 40
0
 40
0
 40
0
 40
1
 40
1
 40
1
 40
1
 10
94.148673
 20
-54.074669
 30
0.0
 10
94.482361
 20
-54.074720
 30
0.0
 10
94.802360
 20
-54.207337
 30
0.0
 10
95.038262
 20
-54.443342
 30
0.0
  0
SPLINE
  5
1ef
100
AcDbEntity
  8
BottomPlate_-_Cut
 62
7
100
AcDbSpline
 70
8
 71
3
 72
8
 73
4
 74
0
 40
0
 40
0
 40
0
 40
0
 40
1
 40
1
 40
1
 40
1
 10
95.038262
 20
-54.443342
 30
0.0
 10
95.274164
 20
-54.679347
 30
0.0
 10
95.406641
 20
-54.999404
 30
0.0
 10
95.406546
 20
-55.333092
 30
0.0
  0
SPLINE
  5
1f0
100
AcDbEntity
  8
BottomPlate_-_Cut
 62
7
100
AcDbSpline
 70
8
 71
3
 72
8
 73
4
 74
0
 40
0
 40
0
 40
0
 40
0
 40
1
 40
1
 40
1
 40
1
 10
95.406546
 20
-55.333092
 30
0.0
 10
95.406440
 20
-56.027753
 30
0.0
 10
94.843333
 20
-56.590859
 30
0.0
 10
94.148673
 20
-56.590965
 30
0.0
  0
SPLINE
  5
1f1
100
AcDbEntity
  8
BottomPlate_-_Cut
 62
7
100
AcDbSpline
 70
8
 71
3
 72
8
 73
4
 74
0
 40
0
 40
0
 40
0
 40
0
 40
1
 40
1
 40
1
 40
1
 10
94.148673
 20
-56.590965
 30
0.0
 10
93.454012
 20
-56.590861
 30
0.0
 10
92.890903
 20
-56.027754
 30
0.0
 10
92.890797
 20
-55.333092
 30
0.0
  0
SPLINE
  5
1f2
100
AcDbEntity
  8
BottomPlate_-_Cut
 62
7
100
AcDbSpline
 70
8
 71
3
 72
8
 73
4
 74
0
 40
0
 40
0
 40
0
 40
0
 40
1
 40
1
 40
1
 40
1
 10
92.890797
 20
-55.333092
 30
0.0
 10
92.890702
 20
-54.999403
 30
0.0
 10
93.023180
 20
-54.679346
 30
0.0
 10
93.259082
 20
-54.443341
 30
0.0
  0
SPLINE
  5
1f3
100
AcDbEntity
  8
BottomPlate_-_Cut
 62
7
100
AcDbSpline
 70
8
 71
3
 72
8
 73
4
 74
0
 40
0
 40
0
 40
0
 40
0
 40
1
 40
1
 40
1
 40
1
 10
93.259082
 20
-54.443341
 30
0.0
 10
93.494985
 20
-54.207336
 30
0.0
 10
93.814984
 20
-54.074719
 30
0.0
 10
94.148673
 20
-54.074669
 30
0.0
  0
LINE
  5
1f4
100
AcDbEntity
  8
BottomPlate_-_Cut
 62
7
100
AcDbLine
 10
94.148673
 20
-54.074669
 30
0.0
 11
94.148673
 21
-54.074669
 31
0.0
  0
SPLINE
  5
1f5
100
AcDbEntity
  8
BottomPlate_-_Cut
 62
7
100
AcDbSpline
 70
8
 71
3
 72
8
 73
4
 74
0
 40
0
 40
0
 40
0
 40
0
 40
1
 40
1
 40
1
 40
1
 10
281.994570
 20
-54.074669
 30
0.0
 10
282.328352
 20
-54.074577
 30
0.0
 10
282.648490
 20
-54.207131
 30
0.0
 10
282.884508
 20
-54.443152
 30
0.0
  0
SPLINE
  5
1f6
100
AcDbEntity
  8
BottomPlate_-_Cut
 62
7
100
AcDbSpline
 70
8
 71
3
 72
8
 73
4
 74
0
 40
0
 40
0
 40
0
 40
0
 40
1
 40
1
 40
1
 40
1
 10
282.884508
 20
-54.443152
 30
0.0
 10
283.120526
 20
-54.679172
 30
0.0
 10
283.253078
 20
-54.999311
 30
0.0
 10
283.252982
 20
-55.333092
 30
0.0
  0
SPLINE
  5
1f7
100
AcDbEntity
  8
BottomPlate_-_Cut
 62
7
100
AcDbSpline
 70
8
 71
3
 72
8
 73
4
 74
0
 40
0
 40
0
 40
0
 40
0
 40
1
 40
1
 40
1
 40
1
 10
283.252982
 20
-55.333092
 30
0.0
 10
283.252932
 20
-55.666779
 30
0.0
 10
283.120316
 20
-55.986776
 30
0.0
 10
282.884313
 20
-56.222677
 30
0.0
  0
SPLINE
  5
1f8
100
AcDbEntity
  8
BottomPlate_-_Cut
 62
7
100
AcDbSpline
 70
8
 71
3
 72
8
 73
4
 74
0
 40
0
 40
0
 40
0
 40
0
 40
1
 40
1
 40
1
 40
1
 10
282.884313
 20
-56.222677
 30
0.0
 10
282.648311
 20
-56.458579
 30
0.0
 10
282.328257
 20
-56.591057
 30
0.0
 10
281.994570
 20
-56.590965
 30
0.0
  0
SPLINE
  5
1f9
100
AcDbEntity
  8
BottomPlate_-_Cut
 62
7
100
AcDbSpline
 70
8
 71
3
 72
8
 73
4
 74
0
 40
0
 40
0
 40
0
 40
0
 40
1
 40
1
 40
1
 40
1
 10
281.994570
 20
-56.590965
 30
0.0
 10
281.299910
 20
-56.590859
 30
0.0
 10
280.736803
 20
-56.027753
 30
0.0
 10
280.736698
 20
-55.333092
 30
0.0
  0
SPLINE
  5
1fa
100
AcDbEntity
  8
BottomPlate_-_Cut
 62
7
100
AcDbSpline
 70
8
 71
3
 72
8
 73
4
 74
0
 40
0
 40
0
 40
0
 40
0
 40
1
 40
1
 40
1
 40
1
 10
280.736698
 20
-55.333092
 30
0.0
 10
280.736602
 20
-54.999404
 30
0.0
 10
280.869080
 20
-54.679347
 30
0.0
 10
281.104982
 20
-54.443342
 30
0.0
  0
SPLINE
  5
1fb
100
AcDbEntity
  8
BottomPlate_-_Cut
 62
7
100
AcDbSpline
 70
8
 71
3
 72
8
 73
4
 74
0
 40
0
 40
0
 40
0
 40
0
 40
1
 40
1
 40
1
 40
1
 10
281.104982
 20
-54.443342
 30
0.0
 10
281.340883
 20
-54.207337
 30
0.0
 10
281.660882
 20
-54.074720
 30
0.0
 10
281.994570
 20
-54.074669
 30
0.0
  0
LINE
  5
1fc
100
AcDbEntity
  8
BottomPlate_-_Cut
 62
7
100
AcDbLine
 10
281.994570
 20
-54.074669
 30
0.0
 11
281.994570
 21
-54.074669
 31
0.0
  0
SPLINE
  5
1fd
100
AcDbEntity
  8
BottomPlate_-_Cut
 62
7
100
AcDbSpline
 70
8
 71
3
 72
8
 73
4
 74
0
 40
0
 40
0
 40
0
 40
0
 40
1
 40
1
 40
1
 40
1
 10
301.994852
 20
-54.074669
 30
0.0
 10
302.328544
 20
-54.074715
 30
0.0
 10
302.648548
 20
-54.207330
 30
0.0
 10
302.884454
 20
-54.443335
 30
0.0
  0
SPLINE
  5
1fe
100
AcDbEntity
  8
BottomPlate_-_Cut
 62
7
100
AcDbSpline
 70
8
 71
3
 72
8
 73
4
 74
0
 40
0
 40
0
 40
0
 40
0
 40
1
 40
1
 40
1
 40
1
 10
302.884454
 20
-54.443335
 30
0.0
 10
303.120360
 20
-54.679341
 30
0.0
 10
303.252840
 20
-54.999401
 30
0.0
 10
303.252745
 20
-55.333092
 30
0.0
  0
SPLINE
  5
1ff
100
AcDbEntity
  8
BottomPlate_-_Cut
 62
7
100
AcDbSpline
 70
8
 71
3
 72
8
 73
4
 74
0
 40
0
 40
0
 40
0
 40
0
 40
1
 40
1
 40
1
 40
1
 10
303.252745
 20
-55.333092
 30
0.0
 10
303.252639
 20
-56.027760
 30
0.0
 10
302.689520
 20
-56.590870
 30
0.0
 10
301.994852
 20
-56.590965
 30
0.0
  0
SPLINE
  5
200
100
AcDbEntity
  8
BottomPlate_-_Cut
 62
7
100
AcDbSpline
 70
8
 71
3
 72
8
 73
4
 74
0
 40
0
 40
0
 40
0
 40
0
 40
1
 40
1
 40
1
 40
1
 10
301.994852
 20
-56.590965
 30
0.0
 10
301.300195
 20
-56.590855
 30
0.0
 10
300.737094
 20
-56.027749
 30
0.0
 10
300.736988
 20
-55.333092
 30
0.0
  0
SPLINE
  5
201
100
AcDbEntity
  8
BottomPlate_-_Cut
 62
7
100
AcDbSpline
 70
8
 71
3
 72
8
 73
4
 74
0
 40
0
 40
0
 40
0
 40
0
 40
1
 40
1
 40
1
 40
1
 10
300.736988
 20
-55.333092
 30
0.0
 10
300.736893
 20
-54.999405
 30
0.0
 10
300.869369
 20
-54.679350
 30
0.0
 10
301.105269
 20
-54.443345
 30
0.0
  0
SPLINE
  5
202
100
AcDbEntity
  8
BottomPlate_-_Cut
 62
7
100
AcDbSpline
 70
8
 71
3
 72
8
 73
4
 74
0
 40
0
 40
0
 40
0
 40
0
 40
1
 40
1
 40
1
 40
1
 10
301.105269
 20
-54.443345
 30
0.0
 10
301.341169
 20
-54.207341
 30
0.0
 10
301.661165
 20
-54.074722
 30
0.0
 10
301.994852
 20
-54.074669
 30
0.0
  0
LINE
  5
203
100
AcDbEntity
  8
BottomPlate_-_Cut
 62
7
100
AcDbLine
 10
301.994852
 20
-54.074669
 30
0.0
 11
301.994852
 21
-54.074669
 31
0.0
  0
LINE
  5
204
100
AcDbEntity
  8
BottomPlate_-_Cut
 62
7
100
AcDbLine
 10
11.792700
 20
-58.958434
 30
0.0
 11
16.792222
 21
-67.618578
 31
0.0
  0
LINE
  5
205
100
AcDbEntity
  8
BottomPlate_-_Cut
 62
7
100
AcDbLine
 10
16.792222
 20
-67.618578
 30
0.0
 11
12.418880
 21
-70.143697
 31
0.0
  0
LINE
  5
206
100
AcDbEntity
  8
BottomPlate_-_Cut
 62
7
100
AcDbLine
 10
12.418880
 20
-70.143697
 30
0.0
 11
7.418806
 21
-61.483553
 31
0.0
  0
LINE
  5
207
100
AcDbEntity
  8
BottomPlate_-_Cut
 62
7
100
AcDbLine
 10
7.418806
 20
-61.483553
 30
0.0
 11
11.792700
 21
-58.958434
 31
0.0
  0
LINE
  5
208
100
AcDbEntity
  8
BottomPlate_-_Cut
 62
7
100
AcDbLine
 10
11.792700
 20
-58.958434
 30
0.0
 11
11.792700
 21
-58.958434
 31
0.0
  0
LINE
  5
209
100
AcDbEntity
  8
BottomPlate_-_Cut
 62
7
100
AcDbLine
 10
364.351090
 20
-58.958434
 30
0.0
 11
368.724434
 21
-61.483553
 31
0.0
  0
LINE
  5
20a
100
AcDbEntity
  8
BottomPlate_-_Cut
 62
7
100
AcDbLine
 10
368.724434
 20
-61.483553
 30
0.0
 11
363.724924
 21
-70.143697
 31
0.0
  0
LINE
  5
20b
100
AcDbEntity
  8
BottomPlate_-_Cut
 62
7
100
AcDbLine
 10
363.724924
 20
-70.143697
 30
0.0
 11
359.351016
 21
-67.618578
 31
0.0
  0
LINE
  5
20c
100
AcDbEntity
  8
BottomPlate_-_Cut
 62
7
100
AcDbLine
 10
359.351016
 20
-67.618578
 30
0.0
 11
364.351090
 21
-58.958434
 31
0.0
  0
LINE
  5
20d
100
AcDbEntity
  8
BottomPlate_-_Cut
 62
7
100
AcDbLine
 10
364.351090
 20
-58.958434
 30
0.0
 11
364.351090
 21
-58.958434
 31
0.0
  0
SPLINE
  5
20e
100
AcDbEntity
  8
BottomPlate_-_Cut
 62
7
100
AcDbSpline
 70
8
 71
3
 72
8
 73
4
 74
0
 40
0
 40
0
 40
0
 40
0
 40
1
 40
1
 40
1
 40
1
 10
84.148524
 20
-64.074816
 30
0.0
 10
84.482308
 20
-64.074720
 30
0.0
 10
84.802450
 20
-64.207273
 30
0.0
 10
85.038471
 20
-64.443294
 30
0.0
  0
SPLINE
  5
20f
100
AcDbEntity
  8
BottomPlate_-_Cut
 62
7
100
AcDbSpline
 70
8
 71
3
 72
8
 73
4
 74
0
 40
0
 40
0
 40
0
 40
0
 40
1
 40
1
 40
1
 40
1
 10
85.038471
 20
-64.443294
 30
0.0
 10
85.274493
 20
-64.679316
 30
0.0
 10
85.407046
 20
-64.999457
 30
0.0
 10
85.406950
 20
-65.333242
 30
0.0
  0
SPLINE
  5
210
100
AcDbEntity
  8
BottomPlate_-_Cut
 62
7
100
AcDbSpline
 70
8
 71
3
 72
8
 73
4
 74
0
 40
0
 40
0
 40
0
 40
0
 40
1
 40
1
 40
1
 40
1
 10
85.406950
 20
-65.333242
 30
0.0
 10
85.406899
 20
-65.666931
 30
0.0
 10
85.274281
 20
-65.986930
 30
0.0
 10
85.038276
 20
-66.222832
 30
0.0
  0
SPLINE
  5
211
100
AcDbEntity
  8
BottomPlate_-_Cut
 62
7
100
AcDbSpline
 70
8
 71
3
 72
8
 73
4
 74
0
 40
0
 40
0
 40
0
 40
0
 40
1
 40
1
 40
1
 40
1
 10
85.038276
 20
-66.222832
 30
0.0
 10
84.802270
 20
-66.458733
 30
0.0
 10
84.482213
 20
-66.591210
 30
0.0
 10
84.148524
 20
-66.591115
 30
0.0
  0
SPLINE
  5
212
100
AcDbEntity
  8
BottomPlate_-_Cut
 62
7
100
AcDbSpline
 70
8
 71
3
 72
8
 73
4
 74
0
 40
0
 40
0
 40
0
 40
0
 40
1
 40
1
 40
1
 40
1
 10
84.148524
 20
-66.591115
 30
0.0
 10
83.453863
 20
-66.591009
 30
0.0
 10
82.890756
 20
-66.027902
 30
0.0
 10
82.890651
 20
-65.333242
 30
0.0
  0
SPLINE
  5
213
100
AcDbEntity
  8
BottomPlate_-_Cut
 62
7
100
AcDbSpline
 70
8
 71
3
 72
8
 73
4
 74
0
 40
0
 40
0
 40
0
 40
0
 40
1
 40
1
 40
1
 40
1
 10
82.890651
 20
-65.333242
 30
0.0
 10
82.890555
 20
-64.999553
 30
0.0
 10
83.023032
 20
-64.679495
 30
0.0
 10
83.258934
 20
-64.443490
 30
0.0
  0
SPLINE
  5
214
100
AcDbEntity
  8
BottomPlate_-_Cut
 62
7
100
AcDbSpline
 70
8
 71
3
 72
8
 73
4
 74
0
 40
0
 40
0
 40
0
 40
0
 40
1
 40
1
 40
1
 40
1
 10
83.258934
 20
-64.443490
 30
0.0
 10
83.494835
 20
-64.207484
 30
0.0
 10
83.814835
 20
-64.074866
 30
0.0
 10
84.148524
 20
-64.074816
 30
0.0
  0
LINE
  5
215
100
AcDbEntity
  8
BottomPlate_-_Cut
 62
7
100
AcDbLine
 10
84.148524
 20
-64.074816
 30
0.0
 11
84.148524
 21
-64.074816
 31
0.0
  0
SPLINE
  5
216
100
AcDbEntity
  8
BottomPlate_-_Cut
 62
7
100
AcDbSpline
 70
8
 71
3
 72
8
 73
4
 74
0
 40
0
 40
0
 40
0
 40
0
 40
1
 40
1
 40
1
 40
1
 10
291.994731
 20
-64.074816
 30
0.0
 10
292.328419
 20
-64.074869
 30
0.0
 10
292.648416
 20
-64.207487
 30
0.0
 10
292.884316
 20
-64.443493
 30
0.0
  0
SPLINE
  5
217
100
AcDbEntity
  8
BottomPlate_-_Cut
 62
7
100
AcDbSpline
 70
8
 71
3
 72
8
 73
4
 74
0
 40
0
 40
0
 40
0
 40
0
 40
1
 40
1
 40
1
 40
1
 10
292.884316
 20
-64.443493
 30
0.0
 10
293.120216
 20
-64.679498
 30
0.0
 10
293.252691
 20
-64.999554
 30
0.0
 10
293.252596
 20
-65.333242
 30
0.0
  0
SPLINE
  5
218
100
AcDbEntity
  8
BottomPlate_-_Cut
 62
7
100
AcDbSpline
 70
8
 71
3
 72
8
 73
4
 74
0
 40
0
 40
0
 40
0
 40
0
 40
1
 40
1
 40
1
 40
1
 10
293.252596
 20
-65.333242
 30
0.0
 10
293.252490
 20
-66.027899
 30
0.0
 10
292.689388
 20
-66.591004
 30
0.0
 10
291.994731
 20
-66.591115
 30
0.0
  0
SPLINE
  5
219
100
AcDbEntity
  8
BottomPlate_-_Cut
 62
7
100
AcDbSpline
 70
8
 71
3
 72
8
 73
4
 74
0
 40
0
 40
0
 40
0
 40
0
 40
1
 40
1
 40
1
 40
1
 10
291.994731
 20
-66.591115
 30
0.0
 10
291.300063
 20
-66.591020
 30
0.0
 10
290.736944
 20
-66.027910
 30
0.0
 10
290.736838
 20
-65.333242
 30
0.0
  0
SPLINE
  5
21a
100
AcDbEntity
  8
BottomPlate_-_Cut
 62
7
100
AcDbSpline
 70
8
 71
3
 72
8
 73
4
 74
0
 40
0
 40
0
 40
0
 40
0
 40
1
 40
1
 40
1
 40
1
 10
290.736838
 20
-65.333242
 30
0.0
 10
290.736743
 20
-64.999549
 30
0.0
 10
290.869222
 20
-64.679489
 30
0.0
 10
291.105128
 20
-64.443483
 30
0.0
  0
SPLINE
  5
21b
100
AcDbEntity
  8
BottomPlate_-_Cut
 62
7
100
AcDbSpline
 70
8
 71
3
 72
8
 73
4
 74
0
 40
0
 40
0
 40
0
 40
0
 40
1
 40
1
 40
1
 40
1
 10
291.105128
 20
-64.443483
 30
0.0
 10
291.341034
 20
-64.207477
 30
0.0
 10
291.661039
 20
-64.074861
 30
0.0
 10
291.994731
 20
-64.074816
 30
0.0
  0
LINE
  5
21c
100
AcDbEntity
  8
BottomPlate_-_Cut
 62
7
100
AcDbLine
 10
291.994731
 20
-64.074816
 30
0.0
 11
291.994731
 21
-64.074816
 31
0.0
  0
LINE
  5
21d
100
AcDbEntity
  8
BottomPlate_-_Cut
 62
7
100
AcDbLine
 10
26.792370
 20
-84.938864
 30
0.0
 11
36.792518
 21
-102.259152
 31
0.0
  0
LINE
  5
21e
100
AcDbEntity
  8
BottomPlate_-_Cut
 62
7
100
AcDbLine
 10
36.792518
 20
-102.259152
 30
0.0
 11
32.418624
 21
-104.784268
 31
0.0
  0
LINE
  5
21f
100
AcDbEntity
  8
BottomPlate_-_Cut
 62
7
100
AcDbLine
 10
32.418624
 20
-104.784268
 30
0.0
 11
22.419028
 21
-87.463982
 31
0.0
  0
LINE
  5
220
100
AcDbEntity
  8
BottomPlate_-_Cut
 62
7
100
AcDbLine
 10
22.419028
 20
-87.463982
 30
0.0
 11
26.792370
 21
-84.938864
 31
0.0
  0
LINE
  5
221
100
AcDbEntity
  8
BottomPlate_-_Cut
 62
7
100
AcDbLine
 10
26.792370
 20
-84.938864
 30
0.0
 11
26.792370
 21
-84.938864
 31
0.0
  0
LINE
  5
222
100
AcDbEntity
  8
BottomPlate_-_Cut
 62
7
100
AcDbLine
 10
349.350866
 20
-84.938864
 30
0.0
 11
353.724774
 21
-87.463982
 31
0.0
  0
LINE
  5
223
100
AcDbEntity
  8
BottomPlate_-_Cut
 62
7
100
AcDbLine
 10
353.724774
 20
-87.463982
 30
0.0
 11
343.724625
 21
-104.784268
 31
0.0
  0
LINE
  5
224
100
AcDbEntity
  8
BottomPlate_-_Cut
 62
7
100
AcDbLine
 10
343.724625
 20
-104.784268
 30
0.0
 11
339.351281
 21
-102.259152
 31
0.0
  0
LINE
  5
225
100
AcDbEntity
  8
BottomPlate_-_Cut
 62
7
100
AcDbLine
 10
339.351281
 20
-102.259152
 30
0.0
 11
349.350866
 21
-84.938864
 31
0.0
  0
LINE
  5
226
100
AcDbEntity
  8
BottomPlate_-_Cut
 62
7
100
AcDbLine
 10
349.350866
 20
-84.938864
 30
0.0
 11
349.350866
 21
-84.938864
 31
0.0
  0
SPLINE
  5
227
100
AcDbEntity
  8
BottomPlate_-_Cut
 62
7
100
AcDbSpline
 70
8
 71
3
 72
8
 73
4
 74
0
 40
0
 40
0
 40
0
 40
0
 40
1
 40
1
 40
1
 40
1
 10
214.052325
 20
-98.832796
 30
0.0
 10
214.450291
 20
-98.832688
 30
0.0
 10
214.831989
 20
-98.990731
 30
0.0
 10
215.113394
 20
-99.272136
 30
0.0
  0
SPLINE
  5
228
100
AcDbEntity
  8
BottomPlate_-_Cut
 62
7
100
AcDbSpline
 70
8
 71
3
 72
8
 73
4
 74
0
 40
0
 40
0
 40
0
 40
0
 40
1
 40
1
 40
1
 40
1
 10
215.113394
 20
-99.272136
 30
0.0
 10
215.394799
 20
-99.553541
 30
0.0
 10
215.552843
 20
-99.935239
 30
0.0
 10
215.552734
 20
-100.333206
 30
0.0
  0
SPLINE
  5
229
100
AcDbEntity
  8
BottomPlate_-_Cut
 62
7
100
AcDbSpline
 70
8
 71
3
 72
8
 73
4
 74
0
 40
0
 40
0
 40
0
 40
0
 40
1
 40
1
 40
1
 40
1
 10
215.552734
 20
-100.333206
 30
0.0
 10
215.552696
 20
-100.731076
 30
0.0
 10
215.394588
 20
-101.112632
 30
0.0
 10
215.113199
 20
-101.393917
 30
0.0
  0
SPLINE
  5
22a
100
AcDbEntity
  8
BottomPlate_-_Cut
 62
7
100
AcDbSpline
 70
8
 71
3
 72
8
 73
4
 74
0
 40
0
 40
0
 40
0
 40
0
 40
1
 40
1
 40
1
 40
1
 10
215.113199
 20
-101.393917
 30
0.0
 10
214.831810
 20
-101.675202
 30
0.0
 10
214.450196
 20
-101.833170
 30
0.0
 10
214.052325
 20
-101.833061
 30
0.0
  0
SPLINE
  5
22b
100
AcDbEntity
  8
BottomPlate_-_Cut
 62
7
100
AcDbSpline
 70
8
 71
3
 72
8
 73
4
 74
0
 40
0
 40
0
 40
0
 40
0
 40
1
 40
1
 40
1
 40
1
 10
214.052325
 20
-101.833061
 30
0.0
 10
213.224010
 20
-101.832982
 30
0.0
 10
212.552549
 20
-101.161520
 30
0.0
 10
212.552469
 20
-100.333206
 30
0.0
  0
SPLINE
  5
22c
100
AcDbEntity
  8
BottomPlate_-_Cut
 62
7
100
AcDbSpline
 70
8
 71
3
 72
8
 73
4
 74
0
 40
0
 40
0
 40
0
 40
0
 40
1
 40
1
 40
1
 40
1
 10
212.552469
 20
-100.333206
 30
0.0
 10
212.552361
 20
-99.935335
 30
0.0
 10
212.710328
 20
-99.553721
 30
0.0
 10
212.991613
 20
-99.272332
 30
0.0
  0
SPLINE
  5
22d
100
AcDbEntity
  8
BottomPlate_-_Cut
 62
7
100
AcDbSpline
 70
8
 71
3
 72
8
 73
4
 74
0
 40
0
 40
0
 40
0
 40
0
 40
1
 40
1
 40
1
 40
1
 10
212.991613
 20
-99.272332
 30
0.0
 10
213.272898
 20
-98.990943
 30
0.0
 10
213.654454
 20
-98.832835
 30
0.0
 10
214.052325
 20
-98.832796
 30
0.0
  0
LINE
  5
22e
100
AcDbEntity
  8
BottomPlate_-_Cut
 62
7
100
AcDbLine
 10
214.052325
 20
-98.832796
 30
0.0
 11
214.052325
 21
-98.832796
 31
0.0
  0
LINE
  5
22f
100
AcDbEntity
  8
BottomPlate_-_Cut
 62
7
100
AcDbLine
 10
46.792665
 20
-119.579991
 30
0.0
 11
61.792335
 21
-145.560970
 31
0.0
  0
LINE
  5
230
100
AcDbEntity
  8
BottomPlate_-_Cut
 62
7
100
AcDbLine
 10
61.792335
 20
-145.560970
 30
0.0
 11
57.418992
 21
-148.086086
 31
0.0
  0
LINE
  5
231
100
AcDbEntity
  8
BottomPlate_-_Cut
 62
7
100
AcDbLine
 10
57.418992
 20
-148.086086
 30
0.0
 11
42.418770
 21
-122.105106
 31
0.0
  0
LINE
  5
232
100
AcDbEntity
  8
BottomPlate_-_Cut
 62
7
100
AcDbLine
 10
42.418770
 20
-122.105106
 30
0.0
 11
46.792665
 21
-119.579991
 31
0.0
  0
LINE
  5
233
100
AcDbEntity
  8
BottomPlate_-_Cut
 62
7
100
AcDbLine
 10
46.792665
 20
-119.579991
 30
0.0
 11
46.792665
 21
-119.579991
 31
0.0
  0
LINE
  5
234
100
AcDbEntity
  8
BottomPlate_-_Cut
 62
7
100
AcDbLine
 10
329.351132
 20
-119.579991
 30
0.0
 11
333.724476
 21
-122.105106
 31
0.0
  0
LINE
  5
235
100
AcDbEntity
  8
BottomPlate_-_Cut
 62
7
100
AcDbLine
 10
333.724476
 20
-122.105106
 30
0.0
 11
318.724788
 21
-148.086086
 31
0.0
  0
LINE
  5
236
100
AcDbEntity
  8
BottomPlate_-_Cut
 62
7
100
AcDbLine
 10
318.724788
 20
-148.086086
 30
0.0
 11
314.350908
 21
-145.560970
 31
0.0
  0
LINE
  5
237
100
AcDbEntity
  8
BottomPlate_-_Cut
 62
7
100
AcDbLine
 10
314.350908
 20
-145.560970
 30
0.0
 11
329.351132
 21
-119.579991
 31
0.0
  0
LINE
  5
238
100
AcDbEntity
  8
BottomPlate_-_Cut
 62
7
100
AcDbLine
 10
329.351132
 20
-119.579991
 30
0.0
 11
329.351132
 21
-119.579991
 31
0.0
  0
SPLINE
  5
239
100
AcDbEntity
  8
BottomPlate_-_Cut
 62
7
100
AcDbSpline
 70
8
 71
3
 72
8
 73
4
 74
0
 40
0
 40
0
 40
0
 40
0
 40
1
 40
1
 40
1
 40
1
 10
58.168094
 20
-128.833242
 30
0.0
 10
58.996410
 20
-128.833320
 30
0.0
 10
59.667873
 20
-129.504782
 30
0.0
 10
59.667953
 20
-130.333098
 30
0.0
  0
SPLINE
  5
23a
100
AcDbEntity
  8
BottomPlate_-_Cut
 62
7
100
AcDbSpline
 70
8
 71
3
 72
8
 73
4
 74
0
 40
0
 40
0
 40
0
 40
0
 40
1
 40
1
 40
1
 40
1
 10
59.667953
 20
-130.333098
 30
0.0
 10
59.667873
 20
-131.161413
 30
0.0
 10
58.996410
 20
-131.832875
 30
0.0
 10
58.168094
 20
-131.832953
 30
0.0
  0
SPLINE
  5
23b
100
AcDbEntity
  8
BottomPlate_-_Cut
 62
7
100
AcDbSpline
 70
8
 71
3
 72
8
 73
4
 74
0
 40
0
 40
0
 40
0
 40
0
 40
1
 40
1
 40
1
 40
1
 10
58.168094
 20
-131.832953
 30
0.0
 10
57.770224
 20
-131.833061
 30
0.0
 10
57.388611
 20
-131.675093
 30
0.0
 10
57.107222
 20
-131.393808
 30
0.0
  0
SPLINE
  5
23c
100
AcDbEntity
  8
BottomPlate_-_Cut
 62
7
100
AcDbSpline
 70
8
 71
3
 72
8
 73
4
 74
0
 40
0
 40
0
 40
0
 40
0
 40
1
 40
1
 40
1
 40
1
 10
57.107222
 20
-131.393808
 30
0.0
 10
56.825834
 20
-131.112523
 30
0.0
 10
56.667726
 20
-130.730968
 30
0.0
 10
56.667688
 20
-130.333098
 30
0.0
  0
SPLINE
  5
23d
100
AcDbEntity
  8
BottomPlate_-_Cut
 62
7
100
AcDbSpline
 70
8
 71
3
 72
8
 73
4
 74
0
 40
0
 40
0
 40
0
 40
0
 40
1
 40
1
 40
1
 40
1
 10
56.667688
 20
-130.333098
 30
0.0
 10
56.667726
 20
-129.935227
 30
0.0
 10
56.825834
 20
-129.553672
 30
0.0
 10
57.107222
 20
-129.272387
 30
0.0
  0
SPLINE
  5
23e
100
AcDbEntity
  8
BottomPlate_-_Cut
 62
7
100
AcDbSpline
 70
8
 71
3
 72
8
 73
4
 74
0
 40
0
 40
0
 40
0
 40
0
 40
1
 40
1
 40
1
 40
1
 10
57.107222
 20
-129.272387
 30
0.0
 10
57.388611
 20
-128.991102
 30
0.0
 10
57.770224
 20
-128.833134
 30
0.0
 10
58.168094
 20
-128.833242
 30
0.0
  0
LINE
  5
23f
100
AcDbEntity
  8
BottomPlate_-_Cut
 62
7
100
AcDbLine
 10
58.168094
 20
-128.833242
 30
0.0
 11
58.168094
 21
-128.833242
 31
0.0
  0
SPLINE
  5
240
100
AcDbEntity
  8
BottomPlate_-_Cut
 62
7
100
AcDbSpline
 70
8
 71
3
 72
8
 73
4
 74
0
 40
0
 40
0
 40
0
 40
0
 40
1
 40
1
 40
1
 40
1
 10
317.975686
 20
-128.833242
 30
0.0
 10
318.804006
 20
-128.833313
 30
0.0
 10
319.475476
 20
-129.504777
 30
0.0
 10
319.475556
 20
-130.333098
 30
0.0
  0
SPLINE
  5
241
100
AcDbEntity
  8
BottomPlate_-_Cut
 62
7
100
AcDbSpline
 70
8
 71
3
 72
8
 73
4
 74
0
 40
0
 40
0
 40
0
 40
0
 40
1
 40
1
 40
1
 40
1
 10
319.475556
 20
-130.333098
 30
0.0
 10
319.475476
 20
-131.161418
 30
0.0
 10
318.804006
 20
-131.832882
 30
0.0
 10
317.975686
 20
-131.832953
 30
0.0
  0
SPLINE
  5
242
100
AcDbEntity
  8
BottomPlate_-_Cut
 62
7
100
AcDbSpline
 70
8
 71
3
 72
8
 73
4
 74
0
 40
0
 40
0
 40
0
 40
0
 40
1
 40
1
 40
1
 40
1
 10
317.975686
 20
-131.832953
 30
0.0
 10
317.577815
 20
-131.833061
 30
0.0
 10
317.196202
 20
-131.675093
 30
0.0
 10
316.914814
 20
-131.393808
 30
0.0
  0
SPLINE
  5
243
100
AcDbEntity
  8
BottomPlate_-_Cut
 62
7
100
AcDbSpline
 70
8
 71
3
 72
8
 73
4
 74
0
 40
0
 40
0
 40
0
 40
0
 40
1
 40
1
 40
1
 40
1
 10
316.914814
 20
-131.393808
 30
0.0
 10
316.633425
 20
-131.112523
 30
0.0
 10
316.475318
 20
-130.730968
 30
0.0
 10
316.475279
 20
-130.333098
 30
0.0
  0
SPLINE
  5
244
100
AcDbEntity
  8
BottomPlate_-_Cut
 62
7
100
AcDbSpline
 70
8
 71
3
 72
8
 73
4
 74
0
 40
0
 40
0
 40
0
 40
0
 40
1
 40
1
 40
1
 40
1
 10
316.475279
 20
-130.333098
 30
0.0
 10
316.475318
 20
-129.935227
 30
0.0
 10
316.633425
 20
-129.553672
 30
0.0
 10
316.914814
 20
-129.272387
 30
0.0
  0
SPLINE
  5
245
100
AcDbEntity
  8
BottomPlate_-_Cut
 62
7
100
AcDbSpline
 70
8
 71
3
 72
8
 73
4
 74
0
 40
0
 40
0
 40
0
 40
0
 40
1
 40
1
 40
1
 40
1
 10
316.914814
 20
-129.272387
 30
0.0
 10
317.196202
 20
-128.991102
 30
0.0
 10
317.577815
 20
-128.833134
 30
0.0
 10
317.975686
 20
-128.833242
 30
0.0
  0
LINE
  5
246
100
AcDbEntity
  8
BottomPlate_-_Cut
 62
7
100
AcDbLine
 10
317.975686
 20
-128.833242
 30
0.0
 11
317.975686
 21
-128.833242
 31
0.0
  0
SPLINE
  5
247
100
AcDbEntity
  8
BottomPlate_-_Cut
 62
7
100
AcDbSpline
 70
8
 71
3
 72
8
 73
4
 74
0
 40
0
 40
0
 40
0
 40
0
 40
1
 40
1
 40
1
 40
1
 10
136.110486
 20
-134.074746
 30
0.0
 10
136.444175
 20
-134.074797
 30
0.0
 10
136.764173
 20
-134.207414
 30
0.0
 10
137.000075
 20
-134.443419
 30
0.0
  0
SPLINE
  5
248
100
AcDbEntity
  8
BottomPlate_-_Cut
 62
7
100
AcDbSpline
 70
8
 71
3
 72
8
 73
4
 74
0
 40
0
 40
0
 40
0
 40
0
 40
1
 40
1
 40
1
 40
1
 10
137.000075
 20
-134.443419
 30
0.0
 10
137.235977
 20
-134.679424
 30
0.0
 10
137.368454
 20
-134.999481
 30
0.0
 10
137.368359
 20
-135.333169
 30
0.0
  0
SPLINE
  5
249
100
AcDbEntity
  8
BottomPlate_-_Cut
 62
7
100
AcDbSpline
 70
8
 71
3
 72
8
 73
4
 74
0
 40
0
 40
0
 40
0
 40
0
 40
1
 40
1
 40
1
 40
1
 10
137.368359
 20
-135.333169
 30
0.0
 10
137.368255
 20
-136.027831
 30
0.0
 10
136.805147
 20
-136.590939
 30
0.0
 10
136.110486
 20
-136.591045
 30
0.0
  0
SPLINE
  5
24a
100
AcDbEntity
  8
BottomPlate_-_Cut
 62
7
100
AcDbSpline
 70
8
 71
3
 72
8
 73
4
 74
0
 40
0
 40
0
 40
0
 40
0
 40
1
 40
1
 40
1
 40
1
 10
136.110486
 20
-136.591045
 30
0.0
 10
135.776797
 20
-136.591140
 30
0.0
 10
135.456740
 20
-136.458663
 30
0.0
 10
135.220735
 20
-136.222760
 30
0.0
  0
SPLINE
  5
24b
100
AcDbEntity
  8
BottomPlate_-_Cut
 62
7
100
AcDbSpline
 70
8
 71
3
 72
8
 73
4
 74
0
 40
0
 40
0
 40
0
 40
0
 40
1
 40
1
 40
1
 40
1
 10
135.220735
 20
-136.222760
 30
0.0
 10
134.984730
 20
-135.986858
 30
0.0
 10
134.852113
 20
-135.666858
 30
0.0
 10
134.852063
 20
-135.333169
 30
0.0
  0
SPLINE
  5
24c
100
AcDbEntity
  8
BottomPlate_-_Cut
 62
7
100
AcDbSpline
 70
8
 71
3
 72
8
 73
4
 74
0
 40
0
 40
0
 40
0
 40
0
 40
1
 40
1
 40
1
 40
1
 10
134.852063
 20
-135.333169
 30
0.0
 10
134.851968
 20
-134.999386
 30
0.0
 10
134.984521
 20
-134.679245
 30
0.0
 10
135.220541
 20
-134.443225
 30
0.0
  0
SPLINE
  5
24d
100
AcDbEntity
  8
BottomPlate_-_Cut
 62
7
100
AcDbSpline
 70
8
 71
3
 72
8
 73
4
 74
0
 40
0
 40
0
 40
0
 40
0
 40
1
 40
1
 40
1
 40
1
 10
135.220541
 20
-134.443225
 30
0.0
 10
135.456562
 20
-134.207204
 30
0.0
 10
135.776702
 20
-134.074651
 30
0.0
 10
136.110486
 20
-134.074746
 30
0.0
  0
LINE
  5
24e
100
AcDbEntity
  8
BottomPlate_-_Cut
 62
7
100
AcDbLine
 10
136.110486
 20
-134.074746
 30
0.0
 11
136.110486
 21
-134.074746
 31
0.0
  0
SPLINE
  5
24f
100
AcDbEntity
  8
BottomPlate_-_Cut
 62
7
100
AcDbSpline
 70
8
 71
3
 72
8
 73
4
 74
0
 40
0
 40
0
 40
0
 40
0
 40
1
 40
1
 40
1
 40
1
 10
240.033308
 20
-134.074746
 30
0.0
 10
240.366996
 20
-134.074797
 30
0.0
 10
240.686995
 20
-134.207414
 30
0.0
 10
240.922897
 20
-134.443419
 30
0.0
  0
SPLINE
  5
250
100
AcDbEntity
  8
BottomPlate_-_Cut
 62
7
100
AcDbSpline
 70
8
 71
3
 72
8
 73
4
 74
0
 40
0
 40
0
 40
0
 40
0
 40
1
 40
1
 40
1
 40
1
 10
240.922897
 20
-134.443419
 30
0.0
 10
241.158798
 20
-134.679424
 30
0.0
 10
241.291276
 20
-134.999481
 30
0.0
 10
241.291181
 20
-135.333169
 30
0.0
  0
SPLINE
  5
251
100
AcDbEntity
  8
BottomPlate_-_Cut
 62
7
100
AcDbSpline
 70
8
 71
3
 72
8
 73
4
 74
0
 40
0
 40
0
 40
0
 40
0
 40
1
 40
1
 40
1
 40
1
 10
241.291181
 20
-135.333169
 30
0.0
 10
241.291076
 20
-136.027831
 30
0.0
 10
240.727969
 20
-136.590939
 30
0.0
 10
240.033308
 20
-136.591045
 30
0.0
  0
SPLINE
  5
252
100
AcDbEntity
  8
BottomPlate_-_Cut
 62
7
100
AcDbSpline
 70
8
 71
3
 72
8
 73
4
 74
0
 40
0
 40
0
 40
0
 40
0
 40
1
 40
1
 40
1
 40
1
 10
240.033308
 20
-136.591045
 30
0.0
 10
239.338646
 20
-136.590939
 30
0.0
 10
238.775539
 20
-136.027831
 30
0.0
 10
238.775435
 20
-135.333169
 30
0.0
  0
SPLINE
  5
253
100
AcDbEntity
  8
BottomPlate_-_Cut
 62
7
100
AcDbSpline
 70
8
 71
3
 72
8
 73
4
 74
0
 40
0
 40
0
 40
0
 40
0
 40
1
 40
1
 40
1
 40
1
 10
238.775435
 20
-135.333169
 30
0.0
 10
238.775340
 20
-134.999481
 30
0.0
 10
238.907817
 20
-134.679424
 30
0.0
 10
239.143719
 20
-134.443419
 30
0.0
  0
SPLINE
  5
254
100
AcDbEntity
  8
BottomPlate_-_Cut
 62
7
100
AcDbSpline
 70
8
 71
3
 72
8
 73
4
 74
0
 40
0
 40
0
 40
0
 40
0
 40
1
 40
1
 40
1
 40
1
 10
239.143719
 20
-134.443419
 30
0.0
 10
239.379620
 20
-134.207414
 30
0.0
 10
239.699619
 20
-134.074797
 30
0.0
 10
240.033308
 20
-134.074746
 30
0.0
  0
LINE
  5
255
100
AcDbEntity
  8
BottomPlate_-_Cut
 62
7
100
AcDbLine
 10
240.033308
 20
-134.074746
 30
0.0
 11
240.033308
 21
-134.074746
 31
0.0
  0
SPLINE
  5
256
100
AcDbEntity
  8
BottomPlate_-_Cut
 62
7
100
AcDbSpline
 70
8
 71
3
 72
8
 73
4
 74
0
 40
0
 40
0
 40
0
 40
0
 40
1
 40
1
 40
1
 40
1
 10
126.110340
 20
-144.074893
 30
0.0
 10
126.805001
 20
-144.074998
 30
0.0
 10
127.368108
 20
-144.638107
 30
0.0
 10
127.368213
 20
-145.332768
 30
0.0
  0
SPLINE
  5
257
100
AcDbEntity
  8
BottomPlate_-_Cut
 62
7
100
AcDbSpline
 70
8
 71
3
 72
8
 73
4
 74
0
 40
0
 40
0
 40
0
 40
0
 40
1
 40
1
 40
1
 40
1
 10
127.368213
 20
-145.332768
 30
0.0
 10
127.368308
 20
-145.666457
 30
0.0
 10
127.235830
 20
-145.986514
 30
0.0
 10
126.999929
 20
-146.222519
 30
0.0
  0
SPLINE
  5
258
100
AcDbEntity
  8
BottomPlate_-_Cut
 62
7
100
AcDbSpline
 70
8
 71
3
 72
8
 73
4
 74
0
 40
0
 40
0
 40
0
 40
0
 40
1
 40
1
 40
1
 40
1
 10
126.999929
 20
-146.222519
 30
0.0
 10
126.764027
 20
-146.458523
 30
0.0
 10
126.444028
 20
-146.591141
 30
0.0
 10
126.110340
 20
-146.591192
 30
0.0
  0
SPLINE
  5
259
100
AcDbEntity
  8
BottomPlate_-_Cut
 62
7
100
AcDbSpline
 70
8
 71
3
 72
8
 73
4
 74
0
 40
0
 40
0
 40
0
 40
0
 40
1
 40
1
 40
1
 40
1
 10
126.110340
 20
-146.591192
 30
0.0
 10
125.776555
 20
-146.591288
 30
0.0
 10
125.456414
 20
-146.458735
 30
0.0
 10
125.220393
 20
-146.222714
 30
0.0
  0
SPLINE
  5
25a
100
AcDbEntity
  8
BottomPlate_-_Cut
 62
7
100
AcDbSpline
 70
8
 71
3
 72
8
 73
4
 74
0
 40
0
 40
0
 40
0
 40
0
 40
1
 40
1
 40
1
 40
1
 10
125.220393
 20
-146.222714
 30
0.0
 10
124.984372
 20
-145.986693
 30
0.0
 10
124.851818
 20
-145.666553
 30
0.0
 10
124.851914
 20
-145.332768
 30
0.0
  0
SPLINE
  5
25b
100
AcDbEntity
  8
BottomPlate_-_Cut
 62
7
100
AcDbSpline
 70
8
 71
3
 72
8
 73
4
 74
0
 40
0
 40
0
 40
0
 40
0
 40
1
 40
1
 40
1
 40
1
 10
124.851914
 20
-145.332768
 30
0.0
 10
124.851964
 20
-144.999079
 30
0.0
 10
124.984581
 20
-144.679079
 30
0.0
 10
125.220587
 20
-144.443177
 30
0.0
  0
SPLINE
  5
25c
100
AcDbEntity
  8
BottomPlate_-_Cut
 62
7
100
AcDbSpline
 70
8
 71
3
 72
8
 73
4
 74
0
 40
0
 40
0
 40
0
 40
0
 40
1
 40
1
 40
1
 40
1
 10
125.220587
 20
-144.443177
 30
0.0
 10
125.456592
 20
-144.207274
 30
0.0
 10
125.776650
 20
-144.074797
 30
0.0
 10
126.110340
 20
-144.074893
 30
0.0
  0
LINE
  5
25d
100
AcDbEntity
  8
BottomPlate_-_Cut
 62
7
100
AcDbLine
 10
126.110340
 20
-144.074893
 30
0.0
 11
126.110340
 21
-144.074893
 31
0.0
  0
SPLINE
  5
25e
100
AcDbEntity
  8
BottomPlate_-_Cut
 62
7
100
AcDbSpline
 70
8
 71
3
 72
8
 73
4
 74
0
 40
0
 40
0
 40
0
 40
0
 40
1
 40
1
 40
1
 40
1
 10
146.110082
 20
-144.074893
 30
0.0
 10
146.443772
 20
-144.074797
 30
0.0
 10
146.763830
 20
-144.207274
 30
0.0
 10
146.999835
 20
-144.443177
 30
0.0
  0
SPLINE
  5
25f
100
AcDbEntity
  8
BottomPlate_-_Cut
 62
7
100
AcDbSpline
 70
8
 71
3
 72
8
 73
4
 74
0
 40
0
 40
0
 40
0
 40
0
 40
1
 40
1
 40
1
 40
1
 10
146.999835
 20
-144.443177
 30
0.0
 10
147.235841
 20
-144.679079
 30
0.0
 10
147.368458
 20
-144.999079
 30
0.0
 10
147.368508
 20
-145.332768
 30
0.0
  0
SPLINE
  5
260
100
AcDbEntity
  8
BottomPlate_-_Cut
 62
7
100
AcDbSpline
 70
8
 71
3
 72
8
 73
4
 74
0
 40
0
 40
0
 40
0
 40
0
 40
1
 40
1
 40
1
 40
1
 10
147.368508
 20
-145.332768
 30
0.0
 10
147.368604
 20
-145.666553
 30
0.0
 10
147.236050
 20
-145.986693
 30
0.0
 10
147.000029
 20
-146.222714
 30
0.0
  0
SPLINE
  5
261
100
AcDbEntity
  8
BottomPlate_-_Cut
 62
7
100
AcDbSpline
 70
8
 71
3
 72
8
 73
4
 74
0
 40
0
 40
0
 40
0
 40
0
 40
1
 40
1
 40
1
 40
1
 10
147.000029
 20
-146.222714
 30
0.0
 10
146.764007
 20
-146.458735
 30
0.0
 10
146.443867
 20
-146.591288
 30
0.0
 10
146.110082
 20
-146.591192
 30
0.0
  0
SPLINE
  5
262
100
AcDbEntity
  8
BottomPlate_-_Cut
 62
7
100
AcDbSpline
 70
8
 71
3
 72
8
 73
4
 74
0
 40
0
 40
0
 40
0
 40
0
 40
1
 40
1
 40
1
 40
1
 10
146.110082
 20
-146.591192
 30
0.0
 10
145.776394
 20
-146.591141
 30
0.0
 10
145.456395
 20
-146.458523
 30
0.0
 10
145.220493
 20
-146.222519
 30
0.0
  0
SPLINE
  5
263
100
AcDbEntity
  8
BottomPlate_-_Cut
 62
7
100
AcDbSpline
 70
8
 71
3
 72
8
 73
4
 74
0
 40
0
 40
0
 40
0
 40
0
 40
1
 40
1
 40
1
 40
1
 10
145.220493
 20
-146.222519
 30
0.0
 10
144.984592
 20
-145.986514
 30
0.0
 10
144.852114
 20
-145.666457
 30
0.0
 10
144.852209
 20
-145.332768
 30
0.0
  0
SPLINE
  5
264
100
AcDbEntity
  8
BottomPlate_-_Cut
 62
7
100
AcDbSpline
 70
8
 71
3
 72
8
 73
4
 74
0
 40
0
 40
0
 40
0
 40
0
 40
1
 40
1
 40
1
 40
1
 10
144.852209
 20
-145.332768
 30
0.0
 10
144.852314
 20
-144.638107
 30
0.0
 10
145.415421
 20
-144.074998
 30
0.0
 10
146.110082
 20
-144.074893
 30
0.0
  0
LINE
  5
265
100
AcDbEntity
  8
BottomPlate_-_Cut
 62
7
100
AcDbLine
 10
146.110082
 20
-144.074893
 30
0.0
 11
146.110082
 21
-144.074893
 31
0.0
  0
SPLINE
  5
266
100
AcDbEntity
  8
BottomPlate_-_Cut
 62
7
100
AcDbSpline
 70
8
 71
3
 72
8
 73
4
 74
0
 40
0
 40
0
 40
0
 40
0
 40
1
 40
1
 40
1
 40
1
 10
230.033158
 20
-144.074893
 30
0.0
 10
230.366848
 20
-144.074797
 30
0.0
 10
230.686906
 20
-144.207274
 30
0.0
 10
230.922911
 20
-144.443177
 30
0.0
  0
SPLINE
  5
267
100
AcDbEntity
  8
BottomPlate_-_Cut
 62
7
100
AcDbSpline
 70
8
 71
3
 72
8
 73
4
 74
0
 40
0
 40
0
 40
0
 40
0
 40
1
 40
1
 40
1
 40
1
 10
230.922911
 20
-144.443177
 30
0.0
 10
231.158917
 20
-144.679079
 30
0.0
 10
231.291534
 20
-144.999079
 30
0.0
 10
231.291584
 20
-145.332768
 30
0.0
  0
SPLINE
  5
268
100
AcDbEntity
  8
BottomPlate_-_Cut
 62
7
100
AcDbSpline
 70
8
 71
3
 72
8
 73
4
 74
0
 40
0
 40
0
 40
0
 40
0
 40
1
 40
1
 40
1
 40
1
 10
231.291584
 20
-145.332768
 30
0.0
 10
231.291680
 20
-145.666553
 30
0.0
 10
231.159126
 20
-145.986693
 30
0.0
 10
230.923105
 20
-146.222714
 30
0.0
  0
SPLINE
  5
269
100
AcDbEntity
  8
BottomPlate_-_Cut
 62
7
100
AcDbSpline
 70
8
 71
3
 72
8
 73
4
 74
0
 40
0
 40
0
 40
0
 40
0
 40
1
 40
1
 40
1
 40
1
 10
230.923105
 20
-146.222714
 30
0.0
 10
230.687083
 20
-146.458735
 30
0.0
 10
230.366943
 20
-146.591288
 30
0.0
 10
230.033158
 20
-146.591192
 30
0.0
  0
SPLINE
  5
26a
100
AcDbEntity
  8
BottomPlate_-_Cut
 62
7
100
AcDbSpline
 70
8
 71
3
 72
8
 73
4
 74
0
 40
0
 40
0
 40
0
 40
0
 40
1
 40
1
 40
1
 40
1
 10
230.033158
 20
-146.591192
 30
0.0
 10
229.699470
 20
-146.591141
 30
0.0
 10
229.379471
 20
-146.458523
 30
0.0
 10
229.143569
 20
-146.222519
 30
0.0
  0
SPLINE
  5
26b
100
AcDbEntity
  8
BottomPlate_-_Cut
 62
7
100
AcDbSpline
 70
8
 71
3
 72
8
 73
4
 74
0
 40
0
 40
0
 40
0
 40
0
 40
1
 40
1
 40
1
 40
1
 10
229.143569
 20
-146.222519
 30
0.0
 10
228.907668
 20
-145.986514
 30
0.0
 10
228.775190
 20
-145.666457
 30
0.0
 10
228.775285
 20
-145.332768
 30
0.0
  0
SPLINE
  5
26c
100
AcDbEntity
  8
BottomPlate_-_Cut
 62
7
100
AcDbSpline
 70
8
 71
3
 72
8
 73
4
 74
0
 40
0
 40
0
 40
0
 40
0
 40
1
 40
1
 40
1
 40
1
 10
228.775285
 20
-145.332768
 30
0.0
 10
228.775390
 20
-144.638107
 30
0.0
 10
229.338497
 20
-144.074998
 30
0.0
 10
230.033158
 20
-144.074893
 30
0.0
  0
LINE
  5
26d
100
AcDbEntity
  8
BottomPlate_-_Cut
 62
7
100
AcDbLine
 10
230.033158
 20
-144.074893
 30
0.0
 11
230.033158
 21
-144.074893
 31
0.0
  0
SPLINE
  5
26e
100
AcDbEntity
  8
BottomPlate_-_Cut
 62
7
100
AcDbSpline
 70
8
 71
3
 72
8
 73
4
 74
0
 40
0
 40
0
 40
0
 40
0
 40
1
 40
1
 40
1
 40
1
 10
250.033454
 20
-144.074893
 30
0.0
 10
250.728115
 20
-144.074998
 30
0.0
 10
251.291223
 20
-144.638107
 30
0.0
 10
251.291327
 20
-145.332768
 30
0.0
  0
SPLINE
  5
26f
100
AcDbEntity
  8
BottomPlate_-_Cut
 62
7
100
AcDbSpline
 70
8
 71
3
 72
8
 73
4
 74
0
 40
0
 40
0
 40
0
 40
0
 40
1
 40
1
 40
1
 40
1
 10
251.291327
 20
-145.332768
 30
0.0
 10
251.291422
 20
-145.666457
 30
0.0
 10
251.158945
 20
-145.986514
 30
0.0
 10
250.923043
 20
-146.222519
 30
0.0
  0
SPLINE
  5
270
100
AcDbEntity
  8
BottomPlate_-_Cut
 62
7
100
AcDbSpline
 70
8
 71
3
 72
8
 73
4
 74
0
 40
0
 40
0
 40
0
 40
0
 40
1
 40
1
 40
1
 40
1
 10
250.923043
 20
-146.222519
 30
0.0
 10
250.687141
 20
-146.458523
 30
0.0
 10
250.367143
 20
-146.591141
 30
0.0
 10
250.033454
 20
-146.591192
 30
0.0
  0
SPLINE
  5
271
100
AcDbEntity
  8
BottomPlate_-_Cut
 62
7
100
AcDbSpline
 70
8
 71
3
 72
8
 73
4
 74
0
 40
0
 40
0
 40
0
 40
0
 40
1
 40
1
 40
1
 40
1
 10
250.033454
 20
-146.591192
 30
0.0
 10
249.699670
 20
-146.591287
 30
0.0
 10
249.379530
 20
-146.458734
 30
0.0
 10
249.143509
 20
-146.222713
 30
0.0
  0
SPLINE
  5
272
100
AcDbEntity
  8
BottomPlate_-_Cut
 62
7
100
AcDbSpline
 70
8
 71
3
 72
8
 73
4
 74
0
 40
0
 40
0
 40
0
 40
0
 40
1
 40
1
 40
1
 40
1
 10
249.143509
 20
-146.222713
 30
0.0
 10
248.907489
 20
-145.986692
 30
0.0
 10
248.774936
 20
-145.666552
 30
0.0
 10
248.775031
 20
-145.332768
 30
0.0
  0
SPLINE
  5
273
100
AcDbEntity
  8
BottomPlate_-_Cut
 62
7
100
AcDbSpline
 70
8
 71
3
 72
8
 73
4
 74
0
 40
0
 40
0
 40
0
 40
0
 40
1
 40
1
 40
1
 40
1
 10
248.775031
 20
-145.332768
 30
0.0
 10
248.775081
 20
-144.999079
 30
0.0
 10
248.907698
 20
-144.679080
 30
0.0
 10
249.143703
 20
-144.443178
 30
0.0
  0
SPLINE
  5
274
100
AcDbEntity
  8
BottomPlate_-_Cut
 62
7
100
AcDbSpline
 70
8
 71
3
 72
8
 73
4
 74
0
 40
0
 40
0
 40
0
 40
0
 40
1
 40
1
 40
1
 40
1
 10
249.143703
 20
-144.443178
 30
0.0
 10
249.379708
 20
-144.207275
 30
0.0
 10
249.699765
 20
-144.074798
 30
0.0
 10
250.033454
 20
-144.074893
 30
0.0
  0
LINE
  5
275
100
AcDbEntity
  8
BottomPlate_-_Cut
 62
7
100
AcDbLine
 10
250.033454
 20
-144.074893
 30
0.0
 11
250.033454
 21
-144.074893
 31
0.0
  0
SPLINE
  5
276
100
AcDbEntity
  8
BottomPlate_-_Cut
 62
7
100
AcDbSpline
 70
8
 71
3
 72
8
 73
4
 74
0
 40
0
 40
0
 40
0
 40
0
 40
1
 40
1
 40
1
 40
1
 10
136.110486
 20
-154.075042
 30
0.0
 10
136.805146
 20
-154.075148
 30
0.0
 10
137.368253
 20
-154.638255
 30
0.0
 10
137.368359
 20
-155.332915
 30
0.0
  0
SPLINE
  5
277
100
AcDbEntity
  8
BottomPlate_-_Cut
 62
7
100
AcDbSpline
 70
8
 71
3
 72
8
 73
4
 74
0
 40
0
 40
0
 40
0
 40
0
 40
1
 40
1
 40
1
 40
1
 10
137.368359
 20
-155.332915
 30
0.0
 10
137.368253
 20
-156.027575
 30
0.0
 10
136.805146
 20
-156.590682
 30
0.0
 10
136.110486
 20
-156.590788
 30
0.0
  0
SPLINE
  5
278
100
AcDbEntity
  8
BottomPlate_-_Cut
 62
7
100
AcDbSpline
 70
8
 71
3
 72
8
 73
4
 74
0
 40
0
 40
0
 40
0
 40
0
 40
1
 40
1
 40
1
 40
1
 10
136.110486
 20
-156.590788
 30
0.0
 10
135.776798
 20
-156.590883
 30
0.0
 10
135.456741
 20
-156.458406
 30
0.0
 10
135.220736
 20
-156.222504
 30
0.0
  0
SPLINE
  5
279
100
AcDbEntity
  8
BottomPlate_-_Cut
 62
7
100
AcDbSpline
 70
8
 71
3
 72
8
 73
4
 74
0
 40
0
 40
0
 40
0
 40
0
 40
1
 40
1
 40
1
 40
1
 10
135.220736
 20
-156.222504
 30
0.0
 10
134.984731
 20
-155.986602
 30
0.0
 10
134.852114
 20
-155.666603
 30
0.0
 10
134.852063
 20
-155.332915
 30
0.0
  0
SPLINE
  5
27a
100
AcDbEntity
  8
BottomPlate_-_Cut
 62
7
100
AcDbSpline
 70
8
 71
3
 72
8
 73
4
 74
0
 40
0
 40
0
 40
0
 40
0
 40
1
 40
1
 40
1
 40
1
 10
134.852063
 20
-155.332915
 30
0.0
 10
134.852114
 20
-154.999226
 30
0.0
 10
134.984731
 20
-154.679228
 30
0.0
 10
135.220736
 20
-154.443326
 30
0.0
  0
SPLINE
  5
27b
100
AcDbEntity
  8
BottomPlate_-_Cut
 62
7
100
AcDbSpline
 70
8
 71
3
 72
8
 73
4
 74
0
 40
0
 40
0
 40
0
 40
0
 40
1
 40
1
 40
1
 40
1
 10
135.220736
 20
-154.443326
 30
0.0
 10
135.456741
 20
-154.207424
 30
0.0
 10
135.776798
 20
-154.074947
 30
0.0
 10
136.110486
 20
-154.075042
 30
0.0
  0
LINE
  5
27c
100
AcDbEntity
  8
BottomPlate_-_Cut
 62
7
100
AcDbLine
 10
136.110486
 20
-154.075042
 30
0.0
 11
136.110486
 21
-154.075042
 31
0.0
  0
SPLINE
  5
27d
100
AcDbEntity
  8
BottomPlate_-_Cut
 62
7
100
AcDbSpline
 70
8
 71
3
 72
8
 73
4
 74
0
 40
0
 40
0
 40
0
 40
0
 40
1
 40
1
 40
1
 40
1
 10
240.033308
 20
-154.075042
 30
0.0
 10
240.727968
 20
-154.075148
 30
0.0
 10
241.291075
 20
-154.638255
 30
0.0
 10
241.291181
 20
-155.332915
 30
0.0
  0
SPLINE
  5
27e
100
AcDbEntity
  8
BottomPlate_-_Cut
 62
7
100
AcDbSpline
 70
8
 71
3
 72
8
 73
4
 74
0
 40
0
 40
0
 40
0
 40
0
 40
1
 40
1
 40
1
 40
1
 10
241.291181
 20
-155.332915
 30
0.0
 10
241.291075
 20
-156.027575
 30
0.0
 10
240.727968
 20
-156.590682
 30
0.0
 10
240.033308
 20
-156.590788
 30
0.0
  0
SPLINE
  5
27f
100
AcDbEntity
  8
BottomPlate_-_Cut
 62
7
100
AcDbSpline
 70
8
 71
3
 72
8
 73
4
 74
0
 40
0
 40
0
 40
0
 40
0
 40
1
 40
1
 40
1
 40
1
 10
240.033308
 20
-156.590788
 30
0.0
 10
239.338647
 20
-156.590682
 30
0.0
 10
238.775541
 20
-156.027575
 30
0.0
 10
238.775435
 20
-155.332915
 30
0.0
  0
SPLINE
  5
280
100
AcDbEntity
  8
BottomPlate_-_Cut
 62
7
100
AcDbSpline
 70
8
 71
3
 72
8
 73
4
 74
0
 40
0
 40
0
 40
0
 40
0
 40
1
 40
1
 40
1
 40
1
 10
238.775435
 20
-155.332915
 30
0.0
 10
238.775541
 20
-154.638255
 30
0.0
 10
239.338647
 20
-154.075148
 30
0.0
 10
240.033308
 20
-154.075042
 30
0.0
  0
LINE
  5
281
100
AcDbEntity
  8
BottomPlate_-_Cut
 62
7
100
AcDbLine
 10
240.033308
 20
-154.075042
 30
0.0
 11
240.033308
 21
-154.075042
 31
0.0
  0
LINE
  5
282
100
AcDbEntity
  8
BottomPlate_-_Cut
 62
7
100
AcDbLine
 10
71.792482
 20
-162.881256
 30
0.0
 11
81.792631
 21
-180.202094
 31
0.0
  0
LINE
  5
283
100
AcDbEntity
  8
BottomPlate_-_Cut
 62
7
100
AcDbLine
 10
81.792631
 20
-180.202094
 30
0.0
 11
77.418737
 21
-182.727221
 31
0.0
  0
LINE
  5
284
100
AcDbEntity
  8
BottomPlate_-_Cut
 62
7
100
AcDbLine
 10
77.418737
 20
-182.727221
 30
0.0
 11
67.418591
 21
-165.406374
 31
0.0
  0
LINE
  5
285
100
AcDbEntity
  8
BottomPlate_-_Cut
 62
7
100
AcDbLine
 10
67.418591
 20
-165.406374
 30
0.0
 11
71.792482
 21
-162.881256
 31
0.0
  0
LINE
  5
286
100
AcDbEntity
  8
BottomPlate_-_Cut
 62
7
100
AcDbLine
 10
71.792482
 20
-162.881256
 30
0.0
 11
71.792482
 21
-162.881256
 31
0.0
  0
LINE
  5
287
100
AcDbEntity
  8
BottomPlate_-_Cut
 62
7
100
AcDbLine
 10
304.351323
 20
-162.881256
 30
0.0
 11
308.724639
 21
-165.406374
 31
0.0
  0
LINE
  5
288
100
AcDbEntity
  8
BottomPlate_-_Cut
 62
7
100
AcDbLine
 10
308.724639
 20
-165.406374
 30
0.0
 11
298.724518
 21
-182.727221
 31
0.0
  0
LINE
  5
289
100
AcDbEntity
  8
BottomPlate_-_Cut
 62
7
100
AcDbLine
 10
298.724518
 20
-182.727221
 30
0.0
 11
294.351174
 21
-180.202094
 31
0.0
  0
LINE
  5
28a
100
AcDbEntity
  8
BottomPlate_-_Cut
 62
7
100
AcDbLine
 10
294.351174
 20
-180.202094
 30
0.0
 11
304.351323
 21
-162.881256
 31
0.0
  0
LINE
  5
28b
100
AcDbEntity
  8
BottomPlate_-_Cut
 62
7
100
AcDbLine
 10
304.351323
 20
-162.881256
 30
0.0
 11
304.351323
 21
-162.881256
 31
0.0
  0
SPLINE
  5
28c
100
AcDbEntity
  8
BottomPlate_-_Cut
 62
7
100
AcDbSpline
 70
8
 71
3
 72
8
 73
4
 74
0
 40
0
 40
0
 40
0
 40
0
 40
1
 40
1
 40
1
 40
1
 10
110.129506
 20
-186.332723
 30
0.0
 10
111.190429
 20
-186.332679
 30
0.0
 10
112.207912
 20
-186.754109
 30
0.0
 10
112.958098
 20
-187.504294
 30
0.0
  0
SPLINE
  5
28d
100
AcDbEntity
  8
BottomPlate_-_Cut
 62
7
100
AcDbSpline
 70
8
 71
3
 72
8
 73
4
 74
0
 40
0
 40
0
 40
0
 40
0
 40
1
 40
1
 40
1
 40
1
 10
112.958098
 20
-187.504294
 30
0.0
 10
113.708285
 20
-188.254479
 30
0.0
 10
114.129716
 20
-189.271962
 30
0.0
 10
114.129673
 20
-190.332884
 30
0.0
  0
SPLINE
  5
28e
100
AcDbEntity
  8
BottomPlate_-_Cut
 62
7
100
AcDbSpline
 70
8
 71
3
 72
8
 73
4
 74
0
 40
0
 40
0
 40
0
 40
0
 40
1
 40
1
 40
1
 40
1
 10
114.129673
 20
-190.332884
 30
0.0
 10
114.129716
 20
-191.393807
 30
0.0
 10
113.708285
 20
-192.411290
 30
0.0
 10
112.958098
 20
-193.161475
 30
0.0
  0
SPLINE
  5
28f
100
AcDbEntity
  8
BottomPlate_-_Cut
 62
7
100
AcDbSpline
 70
8
 71
3
 72
8
 73
4
 74
0
 40
0
 40
0
 40
0
 40
0
 40
1
 40
1
 40
1
 40
1
 10
112.958098
 20
-193.161475
 30
0.0
 10
112.207912
 20
-193.911660
 30
0.0
 10
111.190429
 20
-194.333090
 30
0.0
 10
110.129506
 20
-194.333046
 30
0.0
  0
SPLINE
  5
290
100
AcDbEntity
  8
BottomPlate_-_Cut
 62
7
100
AcDbSpline
 70
8
 71
3
 72
8
 73
4
 74
0
 40
0
 40
0
 40
0
 40
0
 40
1
 40
1
 40
1
 40
1
 10
110.129506
 20
-194.333046
 30
0.0
 10
109.068583
 20
-194.333091
 30
0.0
 10
108.051099
 20
-193.911661
 30
0.0
 10
107.300912
 20
-193.161476
 30
0.0
  0
SPLINE
  5
291
100
AcDbEntity
  8
BottomPlate_-_Cut
 62
7
100
AcDbSpline
 70
8
 71
3
 72
8
 73
4
 74
0
 40
0
 40
0
 40
0
 40
0
 40
1
 40
1
 40
1
 40
1
 10
107.300912
 20
-193.161476
 30
0.0
 10
106.550725
 20
-192.411291
 30
0.0
 10
106.129294
 20
-191.393808
 30
0.0
 10
106.129336
 20
-190.332884
 30
0.0
  0
SPLINE
  5
292
100
AcDbEntity
  8
BottomPlate_-_Cut
 62
7
100
AcDbSpline
 70
8
 71
3
 72
8
 73
4
 74
0
 40
0
 40
0
 40
0
 40
0
 40
1
 40
1
 40
1
 40
1
 10
106.129336
 20
-190.332884
 30
0.0
 10
106.129294
 20
-189.271961
 30
0.0
 10
106.550725
 20
-188.254478
 30
0.0
 10
107.300912
 20
-187.504293
 30
0.0
  0
SPLINE
  5
293
100
AcDbEntity
  8
BottomPlate_-_Cut
 62
7
100
AcDbSpline
 70
8
 71
3
 72
8
 73
4
 74
0
 40
0
 40
0
 40
0
 40
0
 40
1
 40
1
 40
1
 40
1
 10
107.300912
 20
-187.504293
 30
0.0
 10
108.051099
 20
-186.754108
 30
0.0
 10
109.068583
 20
-186.332678
 30
0.0
 10
110.129506
 20
-186.332723
 30
0.0
  0
LINE
  5
294
100
AcDbEntity
  8
BottomPlate_-_Cut
 62
7
100
AcDbLine
 10
110.129506
 20
-186.332723
 30
0.0
 11
110.129506
 21
-186.332723
 31
0.0
  0
SPLINE
  5
295
100
AcDbEntity
  8
BottomPlate_-_Cut
 62
7
100
AcDbSpline
 70
8
 71
3
 72
8
 73
4
 74
0
 40
0
 40
0
 40
0
 40
0
 40
1
 40
1
 40
1
 40
1
 10
266.014287
 20
-186.332723
 30
0.0
 10
268.223341
 20
-186.332933
 30
0.0
 10
270.013996
 20
-188.123831
 30
0.0
 10
270.013907
 20
-190.332884
 30
0.0
  0
SPLINE
  5
296
100
AcDbEntity
  8
BottomPlate_-_Cut
 62
7
100
AcDbSpline
 70
8
 71
3
 72
8
 73
4
 74
0
 40
0
 40
0
 40
0
 40
0
 40
1
 40
1
 40
1
 40
1
 10
270.013907
 20
-190.332884
 30
0.0
 10
270.013996
 20
-192.541938
 30
0.0
 10
268.223341
 20
-194.332836
 30
0.0
 10
266.014287
 20
-194.333046
 30
0.0
  0
SPLINE
  5
297
100
AcDbEntity
  8
BottomPlate_-_Cut
 62
7
100
AcDbSpline
 70
8
 71
3
 72
8
 73
4
 74
0
 40
0
 40
0
 40
0
 40
0
 40
1
 40
1
 40
1
 40
1
 10
266.014287
 20
-194.333046
 30
0.0
 10
264.953364
 20
-194.333091
 30
0.0
 10
263.935880
 20
-193.911661
 30
0.0
 10
263.185694
 20
-193.161476
 30
0.0
  0
SPLINE
  5
298
100
AcDbEntity
  8
BottomPlate_-_Cut
 62
7
100
AcDbSpline
 70
8
 71
3
 72
8
 73
4
 74
0
 40
0
 40
0
 40
0
 40
0
 40
1
 40
1
 40
1
 40
1
 10
263.185694
 20
-193.161476
 30
0.0
 10
262.435507
 20
-192.411291
 30
0.0
 10
262.014075
 20
-191.393808
 30
0.0
 10
262.014118
 20
-190.332884
 30
0.0
  0
SPLINE
  5
299
100
AcDbEntity
  8
BottomPlate_-_Cut
 62
7
100
AcDbSpline
 70
8
 71
3
 72
8
 73
4
 74
0
 40
0
 40
0
 40
0
 40
0
 40
1
 40
1
 40
1
 40
1
 10
262.014118
 20
-190.332884
 30
0.0
 10
262.014075
 20
-189.271961
 30
0.0
 10
262.435507
 20
-188.254478
 30
0.0
 10
263.185694
 20
-187.504293
 30
0.0
  0
SPLINE
  5
29a
100
AcDbEntity
  8
BottomPlate_-_Cut
 62
7
100
AcDbSpline
 70
8
 71
3
 72
8
 73
4
 74
0
 40
0
 40
0
 40
0
 40
0
 40
1
 40
1
 40
1
 40
1
 10
263.185694
 20
-187.504293
 30
0.0
 10
263.935880
 20
-186.754108
 30
0.0
 10
264.953364
 20
-186.332678
 30
0.0
 10
266.014287
 20
-186.332723
 30
0.0
  0
LINE
  5
29b
100
AcDbEntity
  8
BottomPlate_-_Cut
 62
7
100
AcDbLine
 10
266.014287
 20
-186.332723
 30
0.0
 11
266.014287
 21
-186.332723
 31
0.0
  0
LINE
  5
29c
100
AcDbEntity
  8
BottomPlate_-_Cut
 62
7
100
AcDbLine
 10
91.792227
 20
-197.522383
 30
0.0
 11
96.792299
 21
-206.182513
 31
0.0
  0
LINE
  5
29d
100
AcDbEntity
  8
BottomPlate_-_Cut
 62
7
100
AcDbLine
 10
96.792299
 20
-206.182513
 30
0.0
 11
92.418958
 21
-208.707640
 31
0.0
  0
LINE
  5
29e
100
AcDbEntity
  8
BottomPlate_-_Cut
 62
7
100
AcDbLine
 10
92.418958
 20
-208.707640
 30
0.0
 11
87.418884
 21
-200.047510
 31
0.0
  0
LINE
  5
29f
100
AcDbEntity
  8
BottomPlate_-_Cut
 62
7
100
AcDbLine
 10
87.418884
 20
-200.047510
 30
0.0
 11
91.792227
 21
-197.522383
 31
0.0
  0
LINE
  5
2a0
100
AcDbEntity
  8
BottomPlate_-_Cut
 62
7
100
AcDbLine
 10
91.792227
 20
-197.522383
 30
0.0
 11
91.792227
 21
-197.522383
 31
0.0
  0
LINE
  5
2a1
100
AcDbEntity
  8
BottomPlate_-_Cut
 62
7
100
AcDbLine
 10
284.351024
 20
-197.522383
 30
0.0
 11
288.724904
 21
-200.047510
 31
0.0
  0
LINE
  5
2a2
100
AcDbEntity
  8
BottomPlate_-_Cut
 62
7
100
AcDbLine
 10
288.724904
 20
-200.047510
 30
0.0
 11
283.724830
 21
-208.707640
 31
0.0
  0
LINE
  5
2a3
100
AcDbEntity
  8
BottomPlate_-_Cut
 62
7
100
AcDbLine
 10
283.724830
 20
-208.707640
 30
0.0
 11
279.350941
 21
-206.182513
 31
0.0
  0
LINE
  5
2a4
100
AcDbEntity
  8
BottomPlate_-_Cut
 62
7
100
AcDbLine
 10
279.350941
 20
-206.182513
 30
0.0
 11
284.351024
 21
-197.522383
 31
0.0
  0
LINE
  5
2a5
100
AcDbEntity
  8
BottomPlate_-_Cut
 62
7
100
AcDbLine
 10
284.351024
 20
-197.522383
 30
0.0
 11
284.351024
 21
-197.522383
 31
0.0
  0
SPLINE
  5
2a6
100
AcDbEntity
  8
BottomPlate_-_Cut
 62
7
100
AcDbSpline
 70
8
 71
3
 72
8
 73
4
 74
0
 40
0
 40
0
 40
0
 40
0
 40
1
 40
1
 40
1
 40
1
 10
188.071895
 20
-203.832702
 30
0.0
 10
188.469766
 20
-203.832740
 30
0.0
 10
188.851322
 20
-203.990847
 30
0.0
 10
189.132608
 20
-204.272236
 30
0.0
  0
SPLINE
  5
2a7
100
AcDbEntity
  8
BottomPlate_-_Cut
 62
7
100
AcDbSpline
 70
8
 71
3
 72
8
 73
4
 74
0
 40
0
 40
0
 40
0
 40
0
 40
1
 40
1
 40
1
 40
1
 10
189.132608
 20
-204.272236
 30
0.0
 10
189.413894
 20
-204.553624
 30
0.0
 10
189.571862
 20
-204.935238
 30
0.0
 10
189.571754
 20
-205.333108
 30
0.0
  0
SPLINE
  5
2a8
100
AcDbEntity
  8
BottomPlate_-_Cut
 62
7
100
AcDbSpline
 70
8
 71
3
 72
8
 73
4
 74
0
 40
0
 40
0
 40
0
 40
0
 40
1
 40
1
 40
1
 40
1
 10
189.571754
 20
-205.333108
 30
0.0
 10
189.571667
 20
-206.161419
 30
0.0
 10
188.900206
 20
-206.832872
 30
0.0
 10
188.071895
 20
-206.832950
 30
0.0
  0
SPLINE
  5
2a9
100
AcDbEntity
  8
BottomPlate_-_Cut
 62
7
100
AcDbSpline
 70
8
 71
3
 72
8
 73
4
 74
0
 40
0
 40
0
 40
0
 40
0
 40
1
 40
1
 40
1
 40
1
 10
188.071895
 20
-206.832950
 30
0.0
 10
187.674028
 20
-206.833058
 30
0.0
 10
187.292417
 20
-206.675092
 30
0.0
 10
187.011029
 20
-206.393810
 30
0.0
  0
SPLINE
  5
2aa
100
AcDbEntity
  8
BottomPlate_-_Cut
 62
7
100
AcDbSpline
 70
8
 71
3
 72
8
 73
4
 74
0
 40
0
 40
0
 40
0
 40
0
 40
1
 40
1
 40
1
 40
1
 10
187.011029
 20
-206.393810
 30
0.0
 10
186.729641
 20
-206.112528
 30
0.0
 10
186.571531
 20
-205.730976
 30
0.0
 10
186.571489
 20
-205.333108
 30
0.0
  0
SPLINE
  5
2ab
100
AcDbEntity
  8
BottomPlate_-_Cut
 62
7
100
AcDbSpline
 70
8
 71
3
 72
8
 73
4
 74
0
 40
0
 40
0
 40
0
 40
0
 40
1
 40
1
 40
1
 40
1
 10
186.571489
 20
-205.333108
 30
0.0
 10
186.571381
 20
-204.935143
 30
0.0
 10
186.729425
 20
-204.553446
 30
0.0
 10
187.010829
 20
-204.272042
 30
0.0
  0
SPLINE
  5
2ac
100
AcDbEntity
  8
BottomPlate_-_Cut
 62
7
100
AcDbSpline
 70
8
 71
3
 72
8
 73
4
 74
0
 40
0
 40
0
 40
0
 40
0
 40
1
 40
1
 40
1
 40
1
 10
187.010829
 20
-204.272042
 30
0.0
 10
187.292233
 20
-203.990638
 30
0.0
 10
187.673930
 20
-203.832594
 30
0.0
 10
188.071895
 20
-203.832702
 30
0.0
  0
LINE
  5
2ad
100
AcDbEntity
  8
BottomPlate_-_Cut
 62
7
100
AcDbLine
 10
188.071895
 20
-203.832702
 30
0.0
 11
188.071895
 21
-203.832702
 31
0.0
  0
LINE
  5
2ae
100
AcDbEntity
  8
BottomPlate_-_Cut
 62
7
100
AcDbLine
 10
103.071744
 20
-209.807855
 30
0.0
 11
113.071893
 21
-209.807855
 31
0.0
  0
LINE
  5
2af
100
AcDbEntity
  8
BottomPlate_-_Cut
 62
7
100
AcDbLine
 10
113.071893
 20
-209.807855
 30
0.0
 11
113.071893
 21
-214.858108
 31
0.0
  0
LINE
  5
2b0
100
AcDbEntity
  8
BottomPlate_-_Cut
 62
7
100
AcDbLine
 10
113.071893
 20
-214.858108
 30
0.0
 11
103.071744
 21
-214.858108
 31
0.0
  0
LINE
  5
2b1
100
AcDbEntity
  8
BottomPlate_-_Cut
 62
7
100
AcDbLine
 10
103.071744
 20
-214.858108
 30
0.0
 11
103.071744
 21
-209.807855
 31
0.0
  0
LINE
  5
2b2
100
AcDbEntity
  8
BottomPlate_-_Cut
 62
7
100
AcDbLine
 10
103.071744
 20
-209.807855
 30
0.0
 11
103.071744
 21
-209.807855
 31
0.0
  0
LINE
  5
2b3
100
AcDbEntity
  8
BottomPlate_-_Cut
 62
7
100
AcDbLine
 10
133.071636
 20
-209.807855
 30
0.0
 11
153.071932
 21
-209.807855
 31
0.0
  0
LINE
  5
2b4
100
AcDbEntity
  8
BottomPlate_-_Cut
 62
7
100
AcDbLine
 10
153.071932
 20
-209.807855
 30
0.0
 11
153.071932
 21
-214.858108
 31
0.0
  0
LINE
  5
2b5
100
AcDbEntity
  8
BottomPlate_-_Cut
 62
7
100
AcDbLine
 10
153.071932
 20
-214.858108
 30
0.0
 11
133.071636
 21
-214.858108
 31
0.0
  0
LINE
  5
2b6
100
AcDbEntity
  8
BottomPlate_-_Cut
 62
7
100
AcDbLine
 10
133.071636
 20
-214.858108
 30
0.0
 11
133.071636
 21
-209.807855
 31
0.0
  0
LINE
  5
2b7
100
AcDbEntity
  8
BottomPlate_-_Cut
 62
7
100
AcDbLine
 10
133.071636
 20
-209.807855
 30
0.0
 11
133.071636
 21
-209.807855
 31
0.0
  0
LINE
  5
2b8
100
AcDbEntity
  8
BottomPlate_-_Cut
 62
7
100
AcDbLine
 10
173.071674
 20
-209.807855
 30
0.0
 11
203.071566
 21
-209.807855
 31
0.0
  0
LINE
  5
2b9
100
AcDbEntity
  8
BottomPlate_-_Cut
 62
7
100
AcDbLine
 10
203.071566
 20
-209.807855
 30
0.0
 11
203.071566
 21
-214.858108
 31
0.0
  0
LINE
  5
2ba
100
AcDbEntity
  8
BottomPlate_-_Cut
 62
7
100
AcDbLine
 10
203.071566
 20
-214.858108
 30
0.0
 11
173.071674
 21
-214.858108
 31
0.0
  0
LINE
  5
2bb
100
AcDbEntity
  8
BottomPlate_-_Cut
 62
7
100
AcDbLine
 10
173.071674
 20
-214.858108
 30
0.0
 11
173.071674
 21
-209.807855
 31
0.0
  0
LINE
  5
2bc
100
AcDbEntity
  8
BottomPlate_-_Cut
 62
7
100
AcDbLine
 10
173.071674
 20
-209.807855
 30
0.0
 11
173.071674
 21
-209.807855
 31
0.0
  0
LINE
  5
2bd
100
AcDbEntity
  8
BottomPlate_-_Cut
 62
7
100
AcDbLine
 10
223.071862
 20
-209.807855
 30
0.0
 11
243.071605
 21
-209.807855
 31
0.0
  0
LINE
  5
2be
100
AcDbEntity
  8
BottomPlate_-_Cut
 62
7
100
AcDbLine
 10
243.071605
 20
-209.807855
 30
0.0
 11
243.071605
 21
-214.858108
 31
0.0
  0
LINE
  5
2bf
100
AcDbEntity
  8
BottomPlate_-_Cut
 62
7
100
AcDbLine
 10
243.071605
 20
-214.858108
 30
0.0
 11
223.071862
 21
-214.858108
 31
0.0
  0
LINE
  5
2c0
100
AcDbEntity
  8
BottomPlate_-_Cut
 62
7
100
AcDbLine
 10
223.071862
 20
-214.858108
 30
0.0
 11
223.071862
 21
-209.807855
 31
0.0
  0
LINE
  5
2c1
100
AcDbEntity
  8
BottomPlate_-_Cut
 62
7
100
AcDbLine
 10
223.071862
 20
-209.807855
 30
0.0
 11
223.071862
 21
-209.807855
 31
0.0
  0
LINE
  5
2c2
100
AcDbEntity
  8
BottomPlate_-_Cut
 62
7
100
AcDbLine
 10
263.071901
 20
-209.807855
 30
0.0
 11
273.071497
 21
-209.807855
 31
0.0
  0
LINE
  5
2c3
100
AcDbEntity
  8
BottomPlate_-_Cut
 62
7
100
AcDbLine
 10
273.071497
 20
-209.807855
 30
0.0
 11
273.071497
 21
-214.858108
 31
0.0
  0
LINE
  5
2c4
100
AcDbEntity
  8
BottomPlate_-_Cut
 62
7
100
AcDbLine
 10
273.071497
 20
-214.858108
 30
0.0
 11
263.071901
 21
-214.858108
 31
0.0
  0
LINE
  5
2c5
100
AcDbEntity
  8
BottomPlate_-_Cut
 62
7
100
AcDbLine
 10
263.071901
 20
-214.858108
 30
0.0
 11
263.071901
 21
-209.807855
 31
0.0
  0
LINE
  5
2c6
100
AcDbEntity
  8
BottomPlate_-_Cut
 62
7
100
AcDbLine
 10
263.071901
 20
-209.807855
 30
0.0
 11
263.071901
 21
-209.807855
 31
0.0
  0
ENDSEC
  0
SECTION
  2
OBJECTS
  0
DICTIONARY
  5
C
330
0
100
AcDbDictionary
  3
ACAD_GROUP
350
D
  3
ACAD_MLINESTYLE
350
17
  0
DICTIONARY
  5
D
330
C
100
AcDbDictionary
  0
DICTIONARY
  5
1A
330
C
100
AcDbDictionary
  0
DICTIONARY
  5
17
330
C
100
AcDbDictionary
  3
STANDARD
350
18
  0
DICTIONARY
  5
19
330
C
100
AcDbDictionary
  0
ENDSEC
  0
EOF
