  0
SECTION
  2
HEADER
  9
$ACADVER
  1
AC1014
  9
$HANDSEED
  5
FFFF
  9
$MEASUREMENT
 70
     1
  0
ENDSEC
  0
SECTION
  2
TABLES
  0
TABLE
  2
VPORT
  5
8
330
0
100
AcDbSymbolTable
 70
     4
  0
VPORT
  5
2E
330
8
100
AcDbSymbolTableRecord
100
AcDbViewportTableRecord
  2
*ACTIVE
 70
     0
 10
0.0
 20
0.0
 11
1.0
 21
1.0
 12
210.0
 22
148.5
 13
0.0
 23
0.0
 14
10.0
 24
10.0
 15
10.0
 25
10.0
 16
0.0
 26
0.0
 36
1.0
 17
0.0
 27
0.0
 37
0.0
 40
341.0
 41
1.24
 42
50.0
 43
0.0
 44
0.0
 50
0.0
 51
0.0
 71
     0
 72
   100
 73
     1
 74
     3
 75
     0
 76
     0
 77
     0
 78
     0
  0
ENDTAB
  0
TABLE
  2
LTYPE
  5
5
330
0
100
AcDbSymbolTable
 70
     1
  0
LTYPE
  5
14
330
5
100
AcDbSymbolTableRecord
100
AcDbLinetypeTableRecord
  2
BYBLOCK
 70
     0
  3

 72
    65
 73
     0
 40
0.0
  0
LTYPE
  5
15
330
5
100
AcDbSymbolTableRecord
100
AcDbLinetypeTableRecord
  2
BYLAYER
 70
     0
  3

 72
    65
 73
     0
 40
0.0
  0
LTYPE
  5
16
330
5
100
AcDbSymbolTableRecord
100
AcDbLinetypeTableRecord
  2
CONTINUOUS
 70
     0
  3
Solid line
 72
    65
 73
     0
 40
0.0
  0
ENDTAB
  0
TABLE
  2
LAYER
  5
2
100
AcDbSymbolTable
 70
8
  0
LAYER
  5
50
100
AcDbSymbolTableRecord
100
AcDbLayerTableRecord
  2
0
 70
0
  6
CONTINUOUS
  0
LAYER
  5
51
100
AcDbSymbolTableRecord
100
AcDbLayerTableRecord
  2
BottomPlace_-_Cut
 70
0
  6
CONTINUOUS
  0
LAYER
  5
52
100
AcDbSymbolTableRecord
100
AcDbLayerTableRecord
  2
TopPlate_-_Cut
 70
0
  6
CONTINUOUS
  0
LAYER
  5
53
100
AcDbSymbolTableRecord
100
AcDbLayerTableRecord
  2
TopPlate_-_Etch
 70
0
  6
CONTINUOUS
  0
LAYER
  5
54
100
AcDbSymbolTableRecord
100
AcDbLayerTableRecord
  2
Cogs_-_Cut
 70
0
  6
CONTINUOUS
  0
LAYER
  5
55
100
AcDbSymbolTableRecord
100
AcDbLayerTableRecord
  2
Cogs_-_Etch
 70
0
  6
CONTINUOUS
  0
LAYER
  5
56
100
AcDbSymbolTableRecord
100
AcDbLayerTableRecord
  2
Edges
 70
0
  6
CONTINUOUS
  0
LAYER
  5
57
100
AcDbSymbolTableRecord
100
AcDbLayerTableRecord
  2
Temp
 70
0
  6
CONTINUOUS
  0
ENDTAB
  0
TABLE
  2
STYLE
  5
3
330
0
100
AcDbSymbolTable
 70
     1
  0
STYLE
  5
11
330
3
100
AcDbSymbolTableRecord
100
AcDbTextStyleTableRecord
  2
STANDARD
 70
     0
 40
0.0
 41
1.0
 50
0.0
 71
     0
 42
2.5
  3
txt
  4

  0
ENDTAB
  0
TABLE
  2
VIEW
  5
6
330
0
100
AcDbSymbolTable
 70
     0
  0
ENDTAB
  0
TABLE
  2
UCS
  5
7
330
0
100
AcDbSymbolTable
 70
     0
  0
ENDTAB
  0
TABLE
  2
APPID
  5
9
330
0
100
AcDbSymbolTable
 70
     2
  0
APPID
  5
12
330
9
100
AcDbSymbolTableRecord
100
AcDbRegAppTableRecord
  2
ACAD
 70
     0
  0
ENDTAB
  0
TABLE
  2
DIMSTYLE
  5
A
330
0
100
AcDbSymbolTable
 70
     1
  0
DIMSTYLE
105
27
330
A
100
AcDbSymbolTableRecord
100
AcDbDimStyleTableRecord
  2
ISO-25
 70
     0
  3

  4

  5

  6

  7

 40
1.0
 41
2.5
 42
0.625
 43
3.75
 44
1.25
 45
0.0
 46
0.0
 47
0.0
 48
0.0
140
2.5
141
2.5
142
0.0
143
0.03937007874016
144
1.0
145
0.0
146
1.0
147
0.625
 71
     0
 72
     0
 73
     0
 74
     0
 75
     0
 76
     0
 77
     1
 78
     8
170
     0
171
     3
172
     1
173
     0
174
     0
175
     0
176
     0
177
     0
178
     0
270
     2
271
     2
272
     2
273
     2
274
     3
340
11
275
     0
280
     0
281
     0
282
     0
283
     0
284
     8
285
     0
286
     0
287
     3
288
     0
  0
ENDTAB
  0
TABLE
  2
BLOCK_RECORD
  5
1
330
0
100
AcDbSymbolTable
 70
     1
  0
BLOCK_RECORD
  5
1F
330
1
100
AcDbSymbolTableRecord
100
AcDbBlockTableRecord
  2
*MODEL_SPACE
  0
BLOCK_RECORD
  5
1B
330
1
100
AcDbSymbolTableRecord
100
AcDbBlockTableRecord
  2
*PAPER_SPACE
  0
ENDTAB
  0
ENDSEC
  0
SECTION
  2
BLOCKS
  0
BLOCK
  5
20
330
1F
100
AcDbEntity
  8
0
100
AcDbBlockBegin
  2
*MODEL_SPACE
 70
     0
 10
0.0
 20
0.0
 30
0.0
  3
*MODEL_SPACE
  1

  0
ENDBLK
  5
21
330
1F
100
AcDbEntity
  8
0
100
AcDbBlockEnd
  0
BLOCK
  5
1C
330
1B
100
AcDbEntity
 67
     1
  8
0
100
AcDbBlockBegin
  2
*PAPER_SPACE
  1

  0
ENDBLK
  5
1D
330
1B
100
AcDbEntity
 67
     1
  8
0
100
AcDbBlockEnd
  0
ENDSEC
  0
SECTION
  2
ENTITIES
  0
SPLINE
  5
100
100
AcDbEntity
  8
BottomPlace_-_Cut
 62
7
100
AcDbSpline
 70
8
 71
3
 72
8
 73
4
 74
0
 40
0
 40
0
 40
0
 40
0
 40
1
 40
1
 40
1
 40
1
 10
819.137920
 20
276.628086
 30
0.0
 10
810.199680
 20
292.109662
 30
0.0
 10
783.385200
 20
307.590902
 30
0.0
 10
765.508800
 20
307.590862
 30
0.0
  0
LINE
  5
101
100
AcDbEntity
  8
BottomPlace_-_Cut
 62
7
100
AcDbLine
 10
765.508800
 20
307.590862
 30
0.0
 11
300.724560
 21
307.590886
 31
0.0
  0
SPLINE
  5
102
100
AcDbEntity
  8
BottomPlace_-_Cut
 62
7
100
AcDbSpline
 70
8
 71
3
 72
8
 73
4
 74
0
 40
0
 40
0
 40
0
 40
0
 40
1
 40
1
 40
1
 40
1
 10
300.724560
 20
307.590886
 30
0.0
 10
282.848240
 20
307.590886
 30
0.0
 10
256.033840
 20
292.109582
 30
0.0
 10
247.095680
 20
276.628222
 30
0.0
  0
LINE
  5
103
100
AcDbEntity
  8
BottomPlace_-_Cut
 62
7
100
AcDbLine
 10
247.095680
 20
276.628222
 30
0.0
 11
14.703360
 21
-125.886823
 31
0.0
  0
SPLINE
  5
104
100
AcDbEntity
  8
BottomPlace_-_Cut
 62
7
100
AcDbSpline
 70
8
 71
3
 72
8
 73
4
 74
0
 40
0
 40
0
 40
0
 40
0
 40
1
 40
1
 40
1
 40
1
 10
14.703360
 20
-125.886823
 30
0.0
 10
5.765520
 20
-141.368255
 30
0.0
 10
5.765600
 20
-172.330887
 30
0.0
 10
14.703600
 20
-187.812071
 30
0.0
  0
LINE
  5
105
100
AcDbEntity
  8
BottomPlace_-_Cut
 62
7
100
AcDbLine
 10
14.703600
 20
-187.812071
 30
0.0
 11
247.095760
 21
-590.326927
 31
0.0
  0
SPLINE
  5
106
100
AcDbEntity
  8
BottomPlace_-_Cut
 62
7
100
AcDbSpline
 70
8
 71
3
 72
8
 73
4
 74
0
 40
0
 40
0
 40
0
 40
0
 40
1
 40
1
 40
1
 40
1
 10
247.095760
 20
-590.326927
 30
0.0
 10
256.033920
 20
-605.808607
 30
0.0
 10
282.848320
 20
-621.289647
 30
0.0
 10
300.724640
 20
-621.289647
 30
0.0
  0
LINE
  5
107
100
AcDbEntity
  8
BottomPlace_-_Cut
 62
7
100
AcDbLine
 10
300.724640
 20
-621.289647
 30
0.0
 11
765.508720
 21
-621.289487
 31
0.0
  0
SPLINE
  5
108
100
AcDbEntity
  8
BottomPlace_-_Cut
 62
7
100
AcDbSpline
 70
8
 71
3
 72
8
 73
4
 74
0
 40
0
 40
0
 40
0
 40
0
 40
1
 40
1
 40
1
 40
1
 10
765.508720
 20
-621.289487
 30
0.0
 10
783.385200
 20
-621.289727
 30
0.0
 10
810.199680
 20
-605.808607
 30
0.0
 10
819.137920
 20
-590.326927
 30
0.0
  0
LINE
  5
109
100
AcDbEntity
  8
BottomPlace_-_Cut
 62
7
100
AcDbLine
 10
819.137920
 20
-590.326927
 30
0.0
 11
1051.529840
 21
-187.812087
 31
0.0
  0
SPLINE
  5
10a
100
AcDbEntity
  8
BottomPlace_-_Cut
 62
7
100
AcDbSpline
 70
8
 71
3
 72
8
 73
4
 74
0
 40
0
 40
0
 40
0
 40
0
 40
1
 40
1
 40
1
 40
1
 10
1051.529840
 20
-187.812087
 30
0.0
 10
1060.468160
 20
-172.330943
 30
0.0
 10
1060.468160
 20
-141.368063
 30
0.0
 10
1051.529920
 20
-125.886719
 30
0.0
  0
LINE
  5
10b
100
AcDbEntity
  8
BottomPlace_-_Cut
 62
7
100
AcDbLine
 10
1051.529920
 20
-125.886719
 30
0.0
 11
819.137920
 21
276.628086
 31
0.0
  0
LINE
  5
10c
100
AcDbEntity
  8
BottomPlace_-_Cut
 62
7
100
AcDbLine
 10
292.172240
 20
295.348246
 30
0.0
 11
292.172240
 21
281.032622
 31
0.0
  0
LINE
  5
10d
100
AcDbEntity
  8
BottomPlace_-_Cut
 62
7
100
AcDbLine
 10
292.172240
 20
281.032622
 30
0.0
 11
320.519120
 21
281.032622
 31
0.0
  0
LINE
  5
10e
100
AcDbEntity
  8
BottomPlace_-_Cut
 62
7
100
AcDbLine
 10
320.519120
 20
281.032622
 30
0.0
 11
320.519120
 21
295.348246
 31
0.0
  0
LINE
  5
10f
100
AcDbEntity
  8
BottomPlace_-_Cut
 62
7
100
AcDbLine
 10
320.519120
 20
295.348246
 30
0.0
 11
292.172240
 21
295.348246
 31
0.0
  0
LINE
  5
110
100
AcDbEntity
  8
BottomPlace_-_Cut
 62
7
100
AcDbLine
 10
292.172240
 20
295.348246
 30
0.0
 11
292.172240
 21
295.348246
 31
0.0
  0
LINE
  5
111
100
AcDbEntity
  8
BottomPlace_-_Cut
 62
7
100
AcDbLine
 10
377.211280
 20
295.348246
 30
0.0
 11
377.211280
 21
281.032622
 31
0.0
  0
LINE
  5
112
100
AcDbEntity
  8
BottomPlace_-_Cut
 62
7
100
AcDbLine
 10
377.211280
 20
281.032622
 30
0.0
 11
433.905040
 21
281.032622
 31
0.0
  0
LINE
  5
113
100
AcDbEntity
  8
BottomPlace_-_Cut
 62
7
100
AcDbLine
 10
433.905040
 20
281.032622
 30
0.0
 11
433.905040
 21
295.348246
 31
0.0
  0
LINE
  5
114
100
AcDbEntity
  8
BottomPlace_-_Cut
 62
7
100
AcDbLine
 10
433.905040
 20
295.348246
 30
0.0
 11
377.211280
 21
295.348246
 31
0.0
  0
LINE
  5
115
100
AcDbEntity
  8
BottomPlace_-_Cut
 62
7
100
AcDbLine
 10
377.211280
 20
295.348246
 30
0.0
 11
377.211280
 21
295.348246
 31
0.0
  0
LINE
  5
116
100
AcDbEntity
  8
BottomPlace_-_Cut
 62
7
100
AcDbLine
 10
490.597200
 20
295.348246
 30
0.0
 11
490.597200
 21
281.032622
 31
0.0
  0
LINE
  5
117
100
AcDbEntity
  8
BottomPlace_-_Cut
 62
7
100
AcDbLine
 10
490.597200
 20
281.032622
 30
0.0
 11
575.636320
 21
281.032622
 31
0.0
  0
LINE
  5
118
100
AcDbEntity
  8
BottomPlace_-_Cut
 62
7
100
AcDbLine
 10
575.636320
 20
281.032622
 30
0.0
 11
575.636320
 21
295.348246
 31
0.0
  0
LINE
  5
119
100
AcDbEntity
  8
BottomPlace_-_Cut
 62
7
100
AcDbLine
 10
575.636320
 20
295.348246
 30
0.0
 11
490.597200
 21
295.348246
 31
0.0
  0
LINE
  5
11a
100
AcDbEntity
  8
BottomPlace_-_Cut
 62
7
100
AcDbLine
 10
490.597200
 20
295.348246
 30
0.0
 11
490.597200
 21
295.348246
 31
0.0
  0
LINE
  5
11b
100
AcDbEntity
  8
BottomPlace_-_Cut
 62
7
100
AcDbLine
 10
632.330080
 20
295.348246
 30
0.0
 11
632.330080
 21
281.032622
 31
0.0
  0
LINE
  5
11c
100
AcDbEntity
  8
BottomPlace_-_Cut
 62
7
100
AcDbLine
 10
632.330080
 20
281.032622
 30
0.0
 11
689.022240
 21
281.032622
 31
0.0
  0
LINE
  5
11d
100
AcDbEntity
  8
BottomPlace_-_Cut
 62
7
100
AcDbLine
 10
689.022240
 20
281.032622
 30
0.0
 11
689.022240
 21
295.348246
 31
0.0
  0
LINE
  5
11e
100
AcDbEntity
  8
BottomPlace_-_Cut
 62
7
100
AcDbLine
 10
689.022240
 20
295.348246
 30
0.0
 11
632.330080
 21
295.348246
 31
0.0
  0
LINE
  5
11f
100
AcDbEntity
  8
BottomPlace_-_Cut
 62
7
100
AcDbLine
 10
632.330080
 20
295.348246
 30
0.0
 11
632.330080
 21
295.348246
 31
0.0
  0
LINE
  5
120
100
AcDbEntity
  8
BottomPlace_-_Cut
 62
7
100
AcDbLine
 10
745.716000
 20
295.348246
 30
0.0
 11
745.716000
 21
281.032622
 31
0.0
  0
LINE
  5
121
100
AcDbEntity
  8
BottomPlace_-_Cut
 62
7
100
AcDbLine
 10
745.716000
 20
281.032622
 30
0.0
 11
774.061280
 21
281.032622
 31
0.0
  0
LINE
  5
122
100
AcDbEntity
  8
BottomPlace_-_Cut
 62
7
100
AcDbLine
 10
774.061280
 20
281.032622
 30
0.0
 11
774.061280
 21
295.348246
 31
0.0
  0
LINE
  5
123
100
AcDbEntity
  8
BottomPlace_-_Cut
 62
7
100
AcDbLine
 10
774.061280
 20
295.348246
 30
0.0
 11
745.716000
 21
295.348246
 31
0.0
  0
LINE
  5
124
100
AcDbEntity
  8
BottomPlace_-_Cut
 62
7
100
AcDbLine
 10
745.716000
 20
295.348246
 30
0.0
 11
745.716000
 21
295.348246
 31
0.0
  0
LINE
  5
125
100
AcDbEntity
  8
BottomPlace_-_Cut
 62
7
100
AcDbLine
 10
292.172240
 20
-594.731407
 30
0.0
 11
292.172240
 21
-609.047007
 31
0.0
  0
LINE
  5
126
100
AcDbEntity
  8
BottomPlace_-_Cut
 62
7
100
AcDbLine
 10
292.172240
 20
-609.047007
 30
0.0
 11
320.519120
 21
-609.047007
 31
0.0
  0
LINE
  5
127
100
AcDbEntity
  8
BottomPlace_-_Cut
 62
7
100
AcDbLine
 10
320.519120
 20
-609.047007
 30
0.0
 11
320.519120
 21
-594.731407
 31
0.0
  0
LINE
  5
128
100
AcDbEntity
  8
BottomPlace_-_Cut
 62
7
100
AcDbLine
 10
320.519120
 20
-594.731407
 30
0.0
 11
292.172240
 21
-594.731407
 31
0.0
  0
LINE
  5
129
100
AcDbEntity
  8
BottomPlace_-_Cut
 62
7
100
AcDbLine
 10
292.172240
 20
-594.731407
 30
0.0
 11
292.172240
 21
-594.731407
 31
0.0
  0
LINE
  5
12a
100
AcDbEntity
  8
BottomPlace_-_Cut
 62
7
100
AcDbLine
 10
377.211280
 20
-594.731407
 30
0.0
 11
377.211280
 21
-609.047007
 31
0.0
  0
LINE
  5
12b
100
AcDbEntity
  8
BottomPlace_-_Cut
 62
7
100
AcDbLine
 10
377.211280
 20
-609.047007
 30
0.0
 11
433.905040
 21
-609.047007
 31
0.0
  0
LINE
  5
12c
100
AcDbEntity
  8
BottomPlace_-_Cut
 62
7
100
AcDbLine
 10
433.905040
 20
-609.047007
 30
0.0
 11
433.905040
 21
-594.731407
 31
0.0
  0
LINE
  5
12d
100
AcDbEntity
  8
BottomPlace_-_Cut
 62
7
100
AcDbLine
 10
433.905040
 20
-594.731407
 30
0.0
 11
377.211280
 21
-594.731407
 31
0.0
  0
LINE
  5
12e
100
AcDbEntity
  8
BottomPlace_-_Cut
 62
7
100
AcDbLine
 10
377.211280
 20
-594.731407
 30
0.0
 11
377.211280
 21
-594.731407
 31
0.0
  0
LINE
  5
12f
100
AcDbEntity
  8
BottomPlace_-_Cut
 62
7
100
AcDbLine
 10
490.597200
 20
-594.731407
 30
0.0
 11
490.597200
 21
-609.047007
 31
0.0
  0
LINE
  5
130
100
AcDbEntity
  8
BottomPlace_-_Cut
 62
7
100
AcDbLine
 10
490.597200
 20
-609.047007
 30
0.0
 11
575.636320
 21
-609.047007
 31
0.0
  0
LINE
  5
131
100
AcDbEntity
  8
BottomPlace_-_Cut
 62
7
100
AcDbLine
 10
575.636320
 20
-609.047007
 30
0.0
 11
575.636320
 21
-594.731407
 31
0.0
  0
LINE
  5
132
100
AcDbEntity
  8
BottomPlace_-_Cut
 62
7
100
AcDbLine
 10
575.636320
 20
-594.731407
 30
0.0
 11
490.597200
 21
-594.731407
 31
0.0
  0
LINE
  5
133
100
AcDbEntity
  8
BottomPlace_-_Cut
 62
7
100
AcDbLine
 10
490.597200
 20
-594.731407
 30
0.0
 11
490.597200
 21
-594.731407
 31
0.0
  0
LINE
  5
134
100
AcDbEntity
  8
BottomPlace_-_Cut
 62
7
100
AcDbLine
 10
632.330080
 20
-594.731407
 30
0.0
 11
632.330080
 21
-609.047007
 31
0.0
  0
LINE
  5
135
100
AcDbEntity
  8
BottomPlace_-_Cut
 62
7
100
AcDbLine
 10
632.330080
 20
-609.047007
 30
0.0
 11
689.022240
 21
-609.047007
 31
0.0
  0
LINE
  5
136
100
AcDbEntity
  8
BottomPlace_-_Cut
 62
7
100
AcDbLine
 10
689.022240
 20
-609.047007
 30
0.0
 11
689.022240
 21
-594.731407
 31
0.0
  0
LINE
  5
137
100
AcDbEntity
  8
BottomPlace_-_Cut
 62
7
100
AcDbLine
 10
689.022240
 20
-594.731407
 30
0.0
 11
632.330080
 21
-594.731407
 31
0.0
  0
LINE
  5
138
100
AcDbEntity
  8
BottomPlace_-_Cut
 62
7
100
AcDbLine
 10
632.330080
 20
-594.731407
 30
0.0
 11
632.330080
 21
-594.731407
 31
0.0
  0
LINE
  5
139
100
AcDbEntity
  8
BottomPlace_-_Cut
 62
7
100
AcDbLine
 10
745.716000
 20
-594.731407
 30
0.0
 11
745.716000
 21
-609.047007
 31
0.0
  0
LINE
  5
13a
100
AcDbEntity
  8
BottomPlace_-_Cut
 62
7
100
AcDbLine
 10
745.716000
 20
-609.047007
 30
0.0
 11
774.061280
 21
-609.047007
 31
0.0
  0
LINE
  5
13b
100
AcDbEntity
  8
BottomPlace_-_Cut
 62
7
100
AcDbLine
 10
774.061280
 20
-609.047007
 30
0.0
 11
774.061280
 21
-594.731407
 31
0.0
  0
LINE
  5
13c
100
AcDbEntity
  8
BottomPlace_-_Cut
 62
7
100
AcDbLine
 10
774.061280
 20
-594.731407
 30
0.0
 11
745.716000
 21
-594.731407
 31
0.0
  0
LINE
  5
13d
100
AcDbEntity
  8
BottomPlace_-_Cut
 62
7
100
AcDbLine
 10
745.716000
 20
-594.731407
 30
0.0
 11
745.716000
 21
-594.731407
 31
0.0
  0
LINE
  5
13e
100
AcDbEntity
  8
BottomPlace_-_Cut
 62
7
100
AcDbLine
 10
21.029840
 20
-139.414663
 30
0.0
 11
33.427520
 21
-146.572463
 31
0.0
  0
LINE
  5
13f
100
AcDbEntity
  8
BottomPlace_-_Cut
 62
7
100
AcDbLine
 10
33.427520
 20
-146.572463
 30
0.0
 11
47.600880
 21
-122.023399
 31
0.0
  0
LINE
  5
140
100
AcDbEntity
  8
BottomPlace_-_Cut
 62
7
100
AcDbLine
 10
47.600880
 20
-122.023399
 30
0.0
 11
35.203280
 21
-114.865535
 31
0.0
  0
LINE
  5
141
100
AcDbEntity
  8
BottomPlace_-_Cut
 62
7
100
AcDbLine
 10
35.203280
 20
-114.865535
 30
0.0
 11
21.029840
 21
-139.414663
 31
0.0
  0
LINE
  5
142
100
AcDbEntity
  8
BottomPlace_-_Cut
 62
7
100
AcDbLine
 10
21.029840
 20
-139.414663
 30
0.0
 11
21.029840
 21
-139.414663
 31
0.0
  0
LINE
  5
143
100
AcDbEntity
  8
BottomPlace_-_Cut
 62
7
100
AcDbLine
 10
63.549440
 20
-65.768671
 30
0.0
 11
75.947040
 21
-72.926479
 31
0.0
  0
LINE
  5
144
100
AcDbEntity
  8
BottomPlace_-_Cut
 62
7
100
AcDbLine
 10
75.947040
 20
-72.926479
 30
0.0
 11
104.293920
 21
-23.828287
 31
0.0
  0
LINE
  5
145
100
AcDbEntity
  8
BottomPlace_-_Cut
 62
7
100
AcDbLine
 10
104.293920
 20
-23.828287
 30
0.0
 11
91.896240
 21
-16.670447
 31
0.0
  0
LINE
  5
146
100
AcDbEntity
  8
BottomPlace_-_Cut
 62
7
100
AcDbLine
 10
91.896240
 20
-16.670447
 30
0.0
 11
63.549440
 21
-65.768671
 31
0.0
  0
LINE
  5
147
100
AcDbEntity
  8
BottomPlace_-_Cut
 62
7
100
AcDbLine
 10
63.549440
 20
-65.768671
 30
0.0
 11
63.549440
 21
-65.768671
 31
0.0
  0
LINE
  5
148
100
AcDbEntity
  8
BottomPlace_-_Cut
 62
7
100
AcDbLine
 10
120.242240
 20
32.426369
 30
0.0
 11
132.640000
 21
25.268585
 31
0.0
  0
LINE
  5
149
100
AcDbEntity
  8
BottomPlace_-_Cut
 62
7
100
AcDbLine
 10
132.640000
 20
25.268585
 30
0.0
 11
175.159520
 21
98.914593
 31
0.0
  0
LINE
  5
14a
100
AcDbEntity
  8
BottomPlace_-_Cut
 62
7
100
AcDbLine
 10
175.159520
 20
98.914593
 30
0.0
 11
162.761920
 21
106.072457
 31
0.0
  0
LINE
  5
14b
100
AcDbEntity
  8
BottomPlace_-_Cut
 62
7
100
AcDbLine
 10
162.761920
 20
106.072457
 30
0.0
 11
120.242240
 21
32.426369
 31
0.0
  0
LINE
  5
14c
100
AcDbEntity
  8
BottomPlace_-_Cut
 62
7
100
AcDbLine
 10
120.242240
 20
32.426369
 30
0.0
 11
120.242240
 21
32.426369
 31
0.0
  0
LINE
  5
14d
100
AcDbEntity
  8
BottomPlace_-_Cut
 62
7
100
AcDbLine
 10
191.108720
 20
155.170673
 30
0.0
 11
203.506480
 21
148.012889
 31
0.0
  0
LINE
  5
14e
100
AcDbEntity
  8
BottomPlace_-_Cut
 62
7
100
AcDbLine
 10
203.506480
 20
148.012889
 30
0.0
 11
231.852480
 21
197.109705
 31
0.0
  0
LINE
  5
14f
100
AcDbEntity
  8
BottomPlace_-_Cut
 62
7
100
AcDbLine
 10
231.852480
 20
197.109705
 30
0.0
 11
219.454880
 21
204.267553
 31
0.0
  0
LINE
  5
150
100
AcDbEntity
  8
BottomPlace_-_Cut
 62
7
100
AcDbLine
 10
219.454880
 20
204.267553
 30
0.0
 11
191.108720
 21
155.170673
 31
0.0
  0
LINE
  5
151
100
AcDbEntity
  8
BottomPlace_-_Cut
 62
7
100
AcDbLine
 10
191.108720
 20
155.170673
 30
0.0
 11
191.108720
 21
155.170673
 31
0.0
  0
LINE
  5
152
100
AcDbEntity
  8
BottomPlace_-_Cut
 62
7
100
AcDbLine
 10
247.801680
 20
253.365726
 30
0.0
 11
260.199440
 21
246.207958
 31
0.0
  0
LINE
  5
153
100
AcDbEntity
  8
BottomPlace_-_Cut
 62
7
100
AcDbLine
 10
260.199440
 20
246.207958
 30
0.0
 11
274.372080
 21
270.755710
 31
0.0
  0
LINE
  5
154
100
AcDbEntity
  8
BottomPlace_-_Cut
 62
7
100
AcDbLine
 10
274.372080
 20
270.755710
 30
0.0
 11
261.974400
 21
277.913486
 31
0.0
  0
LINE
  5
155
100
AcDbEntity
  8
BottomPlace_-_Cut
 62
7
100
AcDbLine
 10
261.974400
 20
277.913486
 30
0.0
 11
247.801680
 21
253.365726
 31
0.0
  0
LINE
  5
156
100
AcDbEntity
  8
BottomPlace_-_Cut
 62
7
100
AcDbLine
 10
247.801680
 20
253.365726
 30
0.0
 11
247.801680
 21
253.365726
 31
0.0
  0
LINE
  5
157
100
AcDbEntity
  8
BottomPlace_-_Cut
 62
7
100
AcDbLine
 10
791.861520
 20
-584.454447
 30
0.0
 11
804.259120
 21
-591.612287
 31
0.0
  0
LINE
  5
158
100
AcDbEntity
  8
BottomPlace_-_Cut
 62
7
100
AcDbLine
 10
804.259120
 20
-591.612287
 30
0.0
 11
818.432720
 21
-567.063167
 31
0.0
  0
LINE
  5
159
100
AcDbEntity
  8
BottomPlace_-_Cut
 62
7
100
AcDbLine
 10
818.432720
 20
-567.063167
 30
0.0
 11
806.034960
 21
-559.905327
 31
0.0
  0
LINE
  5
15a
100
AcDbEntity
  8
BottomPlace_-_Cut
 62
7
100
AcDbLine
 10
806.034960
 20
-559.905327
 30
0.0
 11
791.861520
 21
-584.454447
 31
0.0
  0
LINE
  5
15b
100
AcDbEntity
  8
BottomPlace_-_Cut
 62
7
100
AcDbLine
 10
791.861520
 20
-584.454447
 30
0.0
 11
791.861520
 21
-584.454447
 31
0.0
  0
LINE
  5
15c
100
AcDbEntity
  8
BottomPlace_-_Cut
 62
7
100
AcDbLine
 10
834.381120
 20
-510.808527
 30
0.0
 11
846.778720
 21
-517.966367
 31
0.0
  0
LINE
  5
15d
100
AcDbEntity
  8
BottomPlace_-_Cut
 62
7
100
AcDbLine
 10
846.778720
 20
-517.966367
 30
0.0
 11
875.125600
 21
-468.868135
 31
0.0
  0
LINE
  5
15e
100
AcDbEntity
  8
BottomPlace_-_Cut
 62
7
100
AcDbLine
 10
875.125600
 20
-468.868135
 30
0.0
 11
862.728000
 21
-461.710295
 31
0.0
  0
LINE
  5
15f
100
AcDbEntity
  8
BottomPlace_-_Cut
 62
7
100
AcDbLine
 10
862.728000
 20
-461.710295
 30
0.0
 11
834.381120
 21
-510.808527
 31
0.0
  0
LINE
  5
160
100
AcDbEntity
  8
BottomPlace_-_Cut
 62
7
100
AcDbLine
 10
834.381120
 20
-510.808527
 30
0.0
 11
834.381120
 21
-510.808527
 31
0.0
  0
LINE
  5
161
100
AcDbEntity
  8
BottomPlace_-_Cut
 62
7
100
AcDbLine
 10
891.074080
 20
-412.613423
 30
0.0
 11
903.471680
 21
-419.771271
 31
0.0
  0
LINE
  5
162
100
AcDbEntity
  8
BottomPlace_-_Cut
 62
7
100
AcDbLine
 10
903.471680
 20
-419.771271
 30
0.0
 11
945.991360
 21
-346.125183
 31
0.0
  0
LINE
  5
163
100
AcDbEntity
  8
BottomPlace_-_Cut
 62
7
100
AcDbLine
 10
945.991360
 20
-346.125183
 30
0.0
 11
933.593600
 21
-338.967415
 31
0.0
  0
LINE
  5
164
100
AcDbEntity
  8
BottomPlace_-_Cut
 62
7
100
AcDbLine
 10
933.593600
 20
-338.967415
 30
0.0
 11
891.074080
 21
-412.613423
 31
0.0
  0
LINE
  5
165
100
AcDbEntity
  8
BottomPlace_-_Cut
 62
7
100
AcDbLine
 10
891.074080
 20
-412.613423
 30
0.0
 11
891.074080
 21
-412.613423
 31
0.0
  0
LINE
  5
166
100
AcDbEntity
  8
BottomPlace_-_Cut
 62
7
100
AcDbLine
 10
961.940480
 20
-289.869175
 30
0.0
 11
974.338160
 21
-297.026999
 31
0.0
  0
LINE
  5
167
100
AcDbEntity
  8
BottomPlace_-_Cut
 62
7
100
AcDbLine
 10
974.338160
 20
-297.026999
 30
0.0
 11
1002.684160
 21
-247.930143
 31
0.0
  0
LINE
  5
168
100
AcDbEntity
  8
BottomPlace_-_Cut
 62
7
100
AcDbLine
 10
1002.684160
 20
-247.930143
 30
0.0
 11
990.286560
 21
-240.772359
 31
0.0
  0
LINE
  5
169
100
AcDbEntity
  8
BottomPlace_-_Cut
 62
7
100
AcDbLine
 10
990.286560
 20
-240.772359
 30
0.0
 11
961.940480
 21
-289.869175
 31
0.0
  0
LINE
  5
16a
100
AcDbEntity
  8
BottomPlace_-_Cut
 62
7
100
AcDbLine
 10
961.940480
 20
-289.869175
 30
0.0
 11
961.940480
 21
-289.869175
 31
0.0
  0
LINE
  5
16b
100
AcDbEntity
  8
BottomPlace_-_Cut
 62
7
100
AcDbLine
 10
1018.633520
 20
-191.674063
 30
0.0
 11
1031.031120
 21
-198.831919
 31
0.0
  0
LINE
  5
16c
100
AcDbEntity
  8
BottomPlace_-_Cut
 62
7
100
AcDbLine
 10
1031.031120
 20
-198.831919
 30
0.0
 11
1045.203760
 21
-174.284151
 31
0.0
  0
LINE
  5
16d
100
AcDbEntity
  8
BottomPlace_-_Cut
 62
7
100
AcDbLine
 10
1045.203760
 20
-174.284151
 30
0.0
 11
1032.806080
 21
-167.126383
 31
0.0
  0
LINE
  5
16e
100
AcDbEntity
  8
BottomPlace_-_Cut
 62
7
100
AcDbLine
 10
1032.806080
 20
-167.126383
 30
0.0
 11
1018.633520
 21
-191.674063
 31
0.0
  0
LINE
  5
16f
100
AcDbEntity
  8
BottomPlace_-_Cut
 62
7
100
AcDbLine
 10
1018.633520
 20
-191.674063
 30
0.0
 11
1018.633520
 21
-191.674063
 31
0.0
  0
LINE
  5
170
100
AcDbEntity
  8
BottomPlace_-_Cut
 62
7
100
AcDbLine
 10
261.974400
 20
-591.612287
 30
0.0
 11
274.372080
 21
-584.454527
 31
0.0
  0
LINE
  5
171
100
AcDbEntity
  8
BottomPlace_-_Cut
 62
7
100
AcDbLine
 10
274.372080
 20
-584.454527
 30
0.0
 11
260.198640
 21
-559.905327
 31
0.0
  0
LINE
  5
172
100
AcDbEntity
  8
BottomPlace_-_Cut
 62
7
100
AcDbLine
 10
260.198640
 20
-559.905327
 30
0.0
 11
247.800960
 21
-567.063167
 31
0.0
  0
LINE
  5
173
100
AcDbEntity
  8
BottomPlace_-_Cut
 62
7
100
AcDbLine
 10
247.800960
 20
-567.063167
 30
0.0
 11
261.974400
 21
-591.612287
 31
0.0
  0
LINE
  5
174
100
AcDbEntity
  8
BottomPlace_-_Cut
 62
7
100
AcDbLine
 10
261.974400
 20
-591.612287
 30
0.0
 11
261.974400
 21
-591.612287
 31
0.0
  0
LINE
  5
175
100
AcDbEntity
  8
BottomPlace_-_Cut
 62
7
100
AcDbLine
 10
219.454880
 20
-517.966207
 30
0.0
 11
231.852480
 21
-510.808527
 31
0.0
  0
LINE
  5
176
100
AcDbEntity
  8
BottomPlace_-_Cut
 62
7
100
AcDbLine
 10
231.852480
 20
-510.808527
 30
0.0
 11
203.505680
 21
-461.710343
 31
0.0
  0
LINE
  5
177
100
AcDbEntity
  8
BottomPlace_-_Cut
 62
7
100
AcDbLine
 10
203.505680
 20
-461.710343
 30
0.0
 11
191.108000
 21
-468.868095
 31
0.0
  0
LINE
  5
178
100
AcDbEntity
  8
BottomPlace_-_Cut
 62
7
100
AcDbLine
 10
191.108000
 20
-468.868095
 30
0.0
 11
219.454880
 21
-517.966207
 31
0.0
  0
LINE
  5
179
100
AcDbEntity
  8
BottomPlace_-_Cut
 62
7
100
AcDbLine
 10
219.454880
 20
-517.966207
 30
0.0
 11
219.454880
 21
-517.966207
 31
0.0
  0
LINE
  5
17a
100
AcDbEntity
  8
BottomPlace_-_Cut
 62
7
100
AcDbLine
 10
162.761840
 20
-419.771375
 30
0.0
 11
175.159600
 21
-412.613463
 31
0.0
  0
LINE
  5
17b
100
AcDbEntity
  8
BottomPlace_-_Cut
 62
7
100
AcDbLine
 10
175.159600
 20
-412.613463
 30
0.0
 11
132.639920
 21
-338.967511
 31
0.0
  0
LINE
  5
17c
100
AcDbEntity
  8
BottomPlace_-_Cut
 62
7
100
AcDbLine
 10
132.639920
 20
-338.967511
 30
0.0
 11
120.242320
 21
-346.125215
 31
0.0
  0
LINE
  5
17d
100
AcDbEntity
  8
BottomPlace_-_Cut
 62
7
100
AcDbLine
 10
120.242320
 20
-346.125215
 30
0.0
 11
162.761840
 21
-419.771375
 31
0.0
  0
LINE
  5
17e
100
AcDbEntity
  8
BottomPlace_-_Cut
 62
7
100
AcDbLine
 10
162.761840
 20
-419.771375
 30
0.0
 11
162.761840
 21
-419.771375
 31
0.0
  0
LINE
  5
17f
100
AcDbEntity
  8
BottomPlace_-_Cut
 62
7
100
AcDbLine
 10
91.895440
 20
-297.026967
 30
0.0
 11
104.293120
 21
-289.869151
 31
0.0
  0
LINE
  5
180
100
AcDbEntity
  8
BottomPlace_-_Cut
 62
7
100
AcDbLine
 10
104.293120
 20
-289.869151
 30
0.0
 11
75.947120
 21
-240.772351
 31
0.0
  0
LINE
  5
181
100
AcDbEntity
  8
BottomPlace_-_Cut
 62
7
100
AcDbLine
 10
75.947120
 20
-240.772351
 30
0.0
 11
63.549360
 21
-247.930095
 31
0.0
  0
LINE
  5
182
100
AcDbEntity
  8
BottomPlace_-_Cut
 62
7
100
AcDbLine
 10
63.549360
 20
-247.930095
 30
0.0
 11
91.895440
 21
-297.026967
 31
0.0
  0
LINE
  5
183
100
AcDbEntity
  8
BottomPlace_-_Cut
 62
7
100
AcDbLine
 10
91.895440
 20
-297.026967
 30
0.0
 11
91.895440
 21
-297.026967
 31
0.0
  0
LINE
  5
184
100
AcDbEntity
  8
BottomPlace_-_Cut
 62
7
100
AcDbLine
 10
35.202480
 20
-198.831943
 30
0.0
 11
47.600160
 21
-191.673999
 31
0.0
  0
LINE
  5
185
100
AcDbEntity
  8
BottomPlace_-_Cut
 62
7
100
AcDbLine
 10
47.600160
 20
-191.673999
 30
0.0
 11
33.427520
 21
-167.126335
 31
0.0
  0
LINE
  5
186
100
AcDbEntity
  8
BottomPlace_-_Cut
 62
7
100
AcDbLine
 10
33.427520
 20
-167.126335
 30
0.0
 11
21.029840
 21
-174.284167
 31
0.0
  0
LINE
  5
187
100
AcDbEntity
  8
BottomPlace_-_Cut
 62
7
100
AcDbLine
 10
21.029840
 20
-174.284167
 30
0.0
 11
35.202480
 21
-198.831943
 31
0.0
  0
LINE
  5
188
100
AcDbEntity
  8
BottomPlace_-_Cut
 62
7
100
AcDbLine
 10
35.202480
 20
-198.831943
 30
0.0
 11
35.202480
 21
-198.831943
 31
0.0
  0
LINE
  5
189
100
AcDbEntity
  8
BottomPlace_-_Cut
 62
7
100
AcDbLine
 10
1032.806080
 20
-146.572495
 30
0.0
 11
1045.203760
 21
-139.414655
 31
0.0
  0
LINE
  5
18a
100
AcDbEntity
  8
BottomPlace_-_Cut
 62
7
100
AcDbLine
 10
1045.203760
 20
-139.414655
 30
0.0
 11
1031.030320
 21
-114.865503
 31
0.0
  0
LINE
  5
18b
100
AcDbEntity
  8
BottomPlace_-_Cut
 62
7
100
AcDbLine
 10
1031.030320
 20
-114.865503
 30
0.0
 11
1018.632640
 21
-122.023247
 31
0.0
  0
LINE
  5
18c
100
AcDbEntity
  8
BottomPlace_-_Cut
 62
7
100
AcDbLine
 10
1018.632640
 20
-122.023247
 30
0.0
 11
1032.806080
 21
-146.572495
 31
0.0
  0
LINE
  5
18d
100
AcDbEntity
  8
BottomPlace_-_Cut
 62
7
100
AcDbLine
 10
1032.806080
 20
-146.572495
 30
0.0
 11
1032.806080
 21
-146.572495
 31
0.0
  0
LINE
  5
18e
100
AcDbEntity
  8
BottomPlace_-_Cut
 62
7
100
AcDbLine
 10
990.286480
 20
-72.926479
 30
0.0
 11
1002.684240
 21
-65.768727
 31
0.0
  0
LINE
  5
18f
100
AcDbEntity
  8
BottomPlace_-_Cut
 62
7
100
AcDbLine
 10
1002.684240
 20
-65.768727
 30
0.0
 11
974.337360
 21
-16.670495
 31
0.0
  0
LINE
  5
190
100
AcDbEntity
  8
BottomPlace_-_Cut
 62
7
100
AcDbLine
 10
974.337360
 20
-16.670495
 30
0.0
 11
961.939680
 21
-23.828215
 31
0.0
  0
LINE
  5
191
100
AcDbEntity
  8
BottomPlace_-_Cut
 62
7
100
AcDbLine
 10
961.939680
 20
-23.828215
 30
0.0
 11
990.286480
 21
-72.926479
 31
0.0
  0
LINE
  5
192
100
AcDbEntity
  8
BottomPlace_-_Cut
 62
7
100
AcDbLine
 10
990.286480
 20
-72.926479
 30
0.0
 11
990.286480
 21
-72.926479
 31
0.0
  0
LINE
  5
193
100
AcDbEntity
  8
BottomPlace_-_Cut
 62
7
100
AcDbLine
 10
933.593680
 20
25.268681
 30
0.0
 11
945.991280
 21
32.426393
 31
0.0
  0
LINE
  5
194
100
AcDbEntity
  8
BottomPlace_-_Cut
 62
7
100
AcDbLine
 10
945.991280
 20
32.426393
 30
0.0
 11
903.471680
 21
106.072545
 31
0.0
  0
LINE
  5
195
100
AcDbEntity
  8
BottomPlace_-_Cut
 62
7
100
AcDbLine
 10
903.471680
 20
106.072545
 30
0.0
 11
891.074000
 21
98.914641
 31
0.0
  0
LINE
  5
196
100
AcDbEntity
  8
BottomPlace_-_Cut
 62
7
100
AcDbLine
 10
891.074000
 20
98.914641
 30
0.0
 11
933.593680
 21
25.268681
 31
0.0
  0
LINE
  5
197
100
AcDbEntity
  8
BottomPlace_-_Cut
 62
7
100
AcDbLine
 10
933.593680
 20
25.268681
 30
0.0
 11
933.593680
 21
25.268681
 31
0.0
  0
LINE
  5
198
100
AcDbEntity
  8
BottomPlace_-_Cut
 62
7
100
AcDbLine
 10
862.727120
 20
148.012873
 30
0.0
 11
875.124800
 21
155.170617
 31
0.0
  0
LINE
  5
199
100
AcDbEntity
  8
BottomPlace_-_Cut
 62
7
100
AcDbLine
 10
875.124800
 20
155.170617
 30
0.0
 11
846.778720
 21
204.267449
 31
0.0
  0
LINE
  5
19a
100
AcDbEntity
  8
BottomPlace_-_Cut
 62
7
100
AcDbLine
 10
846.778720
 20
204.267449
 30
0.0
 11
834.381200
 21
197.109745
 31
0.0
  0
LINE
  5
19b
100
AcDbEntity
  8
BottomPlace_-_Cut
 62
7
100
AcDbLine
 10
834.381200
 20
197.109745
 30
0.0
 11
862.727120
 21
148.012873
 31
0.0
  0
LINE
  5
19c
100
AcDbEntity
  8
BottomPlace_-_Cut
 62
7
100
AcDbLine
 10
862.727120
 20
148.012873
 30
0.0
 11
862.727120
 21
148.012873
 31
0.0
  0
LINE
  5
19d
100
AcDbEntity
  8
BottomPlace_-_Cut
 62
7
100
AcDbLine
 10
806.034160
 20
246.208054
 30
0.0
 11
818.431920
 21
253.365750
 31
0.0
  0
LINE
  5
19e
100
AcDbEntity
  8
BottomPlace_-_Cut
 62
7
100
AcDbLine
 10
818.431920
 20
253.365750
 30
0.0
 11
804.259120
 21
277.913502
 31
0.0
  0
LINE
  5
19f
100
AcDbEntity
  8
BottomPlace_-_Cut
 62
7
100
AcDbLine
 10
804.259120
 20
277.913502
 30
0.0
 11
791.861440
 21
270.755670
 31
0.0
  0
LINE
  5
1a0
100
AcDbEntity
  8
BottomPlace_-_Cut
 62
7
100
AcDbLine
 10
791.861440
 20
270.755670
 30
0.0
 11
806.034160
 21
246.208054
 31
0.0
  0
LINE
  5
1a1
100
AcDbEntity
  8
BottomPlace_-_Cut
 62
7
100
AcDbLine
 10
806.034160
 20
246.208054
 30
0.0
 11
806.034160
 21
246.208054
 31
0.0
  0
ENDSEC
  0
SECTION
  2
OBJECTS
  0
DICTIONARY
  5
C
330
0
100
AcDbDictionary
  3
ACAD_GROUP
350
D
  3
ACAD_MLINESTYLE
350
17
  0
DICTIONARY
  5
D
330
C
100
AcDbDictionary
  0
DICTIONARY
  5
1A
330
C
100
AcDbDictionary
  0
DICTIONARY
  5
17
330
C
100
AcDbDictionary
  3
STANDARD
350
18
  0
DICTIONARY
  5
19
330
C
100
AcDbDictionary
  0
ENDSEC
  0
EOF
