  0
SECTION
  2
HEADER
  9
$ACADVER
  1
AC1014
  9
$HANDSEED
  5
FFFF
  9
$MEASUREMENT
 70
     1
  0
ENDSEC
  0
SECTION
  2
TABLES
  0
TABLE
  2
VPORT
  5
8
330
0
100
AcDbSymbolTable
 70
     4
  0
VPORT
  5
2E
330
8
100
AcDbSymbolTableRecord
100
AcDbViewportTableRecord
  2
*ACTIVE
 70
     0
 10
0.0
 20
0.0
 11
1.0
 21
1.0
 12
210.0
 22
148.5
 13
0.0
 23
0.0
 14
10.0
 24
10.0
 15
10.0
 25
10.0
 16
0.0
 26
0.0
 36
1.0
 17
0.0
 27
0.0
 37
0.0
 40
341.0
 41
1.24
 42
50.0
 43
0.0
 44
0.0
 50
0.0
 51
0.0
 71
     0
 72
   100
 73
     1
 74
     3
 75
     0
 76
     0
 77
     0
 78
     0
  0
ENDTAB
  0
TABLE
  2
LTYPE
  5
5
330
0
100
AcDbSymbolTable
 70
     1
  0
LTYPE
  5
14
330
5
100
AcDbSymbolTableRecord
100
AcDbLinetypeTableRecord
  2
BYBLOCK
 70
     0
  3

 72
    65
 73
     0
 40
0.0
  0
LTYPE
  5
15
330
5
100
AcDbSymbolTableRecord
100
AcDbLinetypeTableRecord
  2
BYLAYER
 70
     0
  3

 72
    65
 73
     0
 40
0.0
  0
LTYPE
  5
16
330
5
100
AcDbSymbolTableRecord
100
AcDbLinetypeTableRecord
  2
CONTINUOUS
 70
     0
  3
Solid line
 72
    65
 73
     0
 40
0.0
  0
ENDTAB
  0
TABLE
  2
LAYER
  5
2
100
AcDbSymbolTable
 70
10
  0
LAYER
  5
50
100
AcDbSymbolTableRecord
100
AcDbLayerTableRecord
  2
0
 70
0
  6
CONTINUOUS
  0
LAYER
  5
51
100
AcDbSymbolTableRecord
100
AcDbLayerTableRecord
  2
BottomPlate_-_Cut
 70
0
  6
CONTINUOUS
  0
LAYER
  5
52
100
AcDbSymbolTableRecord
100
AcDbLayerTableRecord
  2
TopPlate_-_Cut
 70
0
  6
CONTINUOUS
  0
LAYER
  5
53
100
AcDbSymbolTableRecord
100
AcDbLayerTableRecord
  2
TopPlate_-_Etch
 70
0
  6
CONTINUOUS
  0
LAYER
  5
54
100
AcDbSymbolTableRecord
100
AcDbLayerTableRecord
  2
Cogs_-_Cut
 70
0
  6
CONTINUOUS
  0
LAYER
  5
55
100
AcDbSymbolTableRecord
100
AcDbLayerTableRecord
  2
Cogs_-_Secondary
 70
0
  6
CONTINUOUS
  0
LAYER
  5
56
100
AcDbSymbolTableRecord
100
AcDbLayerTableRecord
  2
Cogs_-_Etch
 70
0
  6
CONTINUOUS
  0
LAYER
  5
57
100
AcDbSymbolTableRecord
100
AcDbLayerTableRecord
  2
Edges_-_Cut
 70
0
  6
CONTINUOUS
  0
LAYER
  5
58
100
AcDbSymbolTableRecord
100
AcDbLayerTableRecord
  2
3mm_Utility_bits_-_Cut
 70
0
  6
CONTINUOUS
  0
LAYER
  5
59
100
AcDbSymbolTableRecord
100
AcDbLayerTableRecord
  2
Temp
 70
0
  6
CONTINUOUS
  0
ENDTAB
  0
TABLE
  2
STYLE
  5
3
330
0
100
AcDbSymbolTable
 70
     1
  0
STYLE
  5
11
330
3
100
AcDbSymbolTableRecord
100
AcDbTextStyleTableRecord
  2
STANDARD
 70
     0
 40
0.0
 41
1.0
 50
0.0
 71
     0
 42
2.5
  3
txt
  4

  0
ENDTAB
  0
TABLE
  2
VIEW
  5
6
330
0
100
AcDbSymbolTable
 70
     0
  0
ENDTAB
  0
TABLE
  2
UCS
  5
7
330
0
100
AcDbSymbolTable
 70
     0
  0
ENDTAB
  0
TABLE
  2
APPID
  5
9
330
0
100
AcDbSymbolTable
 70
     2
  0
APPID
  5
12
330
9
100
AcDbSymbolTableRecord
100
AcDbRegAppTableRecord
  2
ACAD
 70
     0
  0
ENDTAB
  0
TABLE
  2
DIMSTYLE
  5
A
330
0
100
AcDbSymbolTable
 70
     1
  0
DIMSTYLE
105
27
330
A
100
AcDbSymbolTableRecord
100
AcDbDimStyleTableRecord
  2
ISO-25
 70
     0
  3

  4

  5

  6

  7

 40
1.0
 41
2.5
 42
0.625
 43
3.75
 44
1.25
 45
0.0
 46
0.0
 47
0.0
 48
0.0
140
2.5
141
2.5
142
0.0
143
0.03937007874016
144
1.0
145
0.0
146
1.0
147
0.625
 71
     0
 72
     0
 73
     0
 74
     0
 75
     0
 76
     0
 77
     1
 78
     8
170
     0
171
     3
172
     1
173
     0
174
     0
175
     0
176
     0
177
     0
178
     0
270
     2
271
     2
272
     2
273
     2
274
     3
340
11
275
     0
280
     0
281
     0
282
     0
283
     0
284
     8
285
     0
286
     0
287
     3
288
     0
  0
ENDTAB
  0
TABLE
  2
BLOCK_RECORD
  5
1
330
0
100
AcDbSymbolTable
 70
     1
  0
BLOCK_RECORD
  5
1F
330
1
100
AcDbSymbolTableRecord
100
AcDbBlockTableRecord
  2
*MODEL_SPACE
  0
BLOCK_RECORD
  5
1B
330
1
100
AcDbSymbolTableRecord
100
AcDbBlockTableRecord
  2
*PAPER_SPACE
  0
ENDTAB
  0
ENDSEC
  0
SECTION
  2
BLOCKS
  0
BLOCK
  5
20
330
1F
100
AcDbEntity
  8
0
100
AcDbBlockBegin
  2
*MODEL_SPACE
 70
     0
 10
0.0
 20
0.0
 30
0.0
  3
*MODEL_SPACE
  1

  0
ENDBLK
  5
21
330
1F
100
AcDbEntity
  8
0
100
AcDbBlockEnd
  0
BLOCK
  5
1C
330
1B
100
AcDbEntity
 67
     1
  8
0
100
AcDbBlockBegin
  2
*PAPER_SPACE
  1

  0
ENDBLK
  5
1D
330
1B
100
AcDbEntity
 67
     1
  8
0
100
AcDbBlockEnd
  0
ENDSEC
  0
SECTION
  2
ENTITIES
  0
SPLINE
  5
100
100
AcDbEntity
  8
3mm_Utility_bits_-_Cut
 62
7
100
AcDbSpline
 70
8
 71
3
 72
8
 73
4
 74
0
 40
0
 40
0
 40
0
 40
0
 40
1
 40
1
 40
1
 40
1
 10
309.315019
 20
-196.333014
 30
0.0
 10
301.030804
 20
-196.333201
 30
0.0
 10
294.315251
 20
-203.048994
 30
0.0
 10
294.315360
 20
-211.333209
 30
0.0
  0
SPLINE
  5
101
100
AcDbEntity
  8
3mm_Utility_bits_-_Cut
 62
7
100
AcDbSpline
 70
8
 71
3
 72
8
 73
4
 74
0
 40
0
 40
0
 40
0
 40
0
 40
1
 40
1
 40
1
 40
1
 10
294.315360
 20
-211.333209
 30
0.0
 10
294.315532
 20
-219.617226
 30
0.0
 10
301.031003
 20
-226.332709
 30
0.0
 10
309.315019
 20
-226.332897
 30
0.0
  0
SPLINE
  5
102
100
AcDbEntity
  8
3mm_Utility_bits_-_Cut
 62
7
100
AcDbSpline
 70
8
 71
3
 72
8
 73
4
 74
0
 40
0
 40
0
 40
0
 40
0
 40
1
 40
1
 40
1
 40
1
 10
309.315019
 20
-226.332897
 30
0.0
 10
317.599256
 20
-226.333021
 30
0.0
 10
324.315071
 20
-219.617446
 30
0.0
 10
324.315243
 20
-211.333209
 30
0.0
  0
SPLINE
  5
103
100
AcDbEntity
  8
3mm_Utility_bits_-_Cut
 62
7
100
AcDbSpline
 70
8
 71
3
 72
8
 73
4
 74
0
 40
0
 40
0
 40
0
 40
0
 40
1
 40
1
 40
1
 40
1
 10
324.315243
 20
-211.333209
 30
0.0
 10
324.315295
 20
-207.354889
 30
0.0
 10
322.734935
 20
-203.539496
 30
0.0
 10
319.921835
 20
-200.726402
 30
0.0
  0
SPLINE
  5
104
100
AcDbEntity
  8
3mm_Utility_bits_-_Cut
 62
7
100
AcDbSpline
 70
8
 71
3
 72
8
 73
4
 74
0
 40
0
 40
0
 40
0
 40
0
 40
1
 40
1
 40
1
 40
1
 10
319.921835
 20
-200.726402
 30
0.0
 10
317.108735
 20
-197.913307
 30
0.0
 10
313.293339
 20
-196.332954
 30
0.0
 10
309.315019
 20
-196.333014
 30
0.0
  0
LINE
  5
105
100
AcDbEntity
  8
3mm_Utility_bits_-_Cut
 62
7
100
AcDbLine
 10
309.315019
 20
-196.333014
 30
0.0
 11
309.315019
 21
-196.333014
 31
0.0
  0
SPLINE
  5
106
100
AcDbEntity
  8
3mm_Utility_bits_-_Cut
 62
7
100
AcDbSpline
 70
8
 71
3
 72
8
 73
4
 74
0
 40
0
 40
0
 40
0
 40
0
 40
1
 40
1
 40
1
 40
1
 10
309.315019
 20
-199.833218
 30
0.0
 10
309.712892
 20
-199.833110
 30
0.0
 10
310.094507
 20
-199.991080
 30
0.0
 10
310.375896
 20
-200.272368
 30
0.0
  0
SPLINE
  5
107
100
AcDbEntity
  8
3mm_Utility_bits_-_Cut
 62
7
100
AcDbSpline
 70
8
 71
3
 72
8
 73
4
 74
0
 40
0
 40
0
 40
0
 40
0
 40
1
 40
1
 40
1
 40
1
 10
310.375896
 20
-200.272368
 30
0.0
 10
310.657285
 20
-200.553657
 30
0.0
 10
310.815391
 20
-200.935216
 30
0.0
 10
310.815426
 20
-201.333088
 30
0.0
  0
SPLINE
  5
108
100
AcDbEntity
  8
3mm_Utility_bits_-_Cut
 62
7
100
AcDbSpline
 70
8
 71
3
 72
8
 73
4
 74
0
 40
0
 40
0
 40
0
 40
0
 40
1
 40
1
 40
1
 40
1
 10
310.815426
 20
-201.333088
 30
0.0
 10
310.815384
 20
-201.730956
 30
0.0
 10
310.657274
 20
-202.112508
 30
0.0
 10
310.375886
 20
-202.393790
 30
0.0
  0
SPLINE
  5
109
100
AcDbEntity
  8
3mm_Utility_bits_-_Cut
 62
7
100
AcDbSpline
 70
8
 71
3
 72
8
 73
4
 74
0
 40
0
 40
0
 40
0
 40
0
 40
1
 40
1
 40
1
 40
1
 10
310.375886
 20
-202.393790
 30
0.0
 10
310.094498
 20
-202.675072
 30
0.0
 10
309.712887
 20
-202.833038
 30
0.0
 10
309.315019
 20
-202.832930
 30
0.0
  0
SPLINE
  5
10a
100
AcDbEntity
  8
3mm_Utility_bits_-_Cut
 62
7
100
AcDbSpline
 70
8
 71
3
 72
8
 73
4
 74
0
 40
0
 40
0
 40
0
 40
0
 40
1
 40
1
 40
1
 40
1
 10
309.315019
 20
-202.832930
 30
0.0
 10
308.486716
 20
-202.832843
 30
0.0
 10
307.815265
 20
-202.161392
 30
0.0
 10
307.815178
 20
-201.333088
 30
0.0
  0
SPLINE
  5
10b
100
AcDbEntity
  8
3mm_Utility_bits_-_Cut
 62
7
100
AcDbSpline
 70
8
 71
3
 72
8
 73
4
 74
0
 40
0
 40
0
 40
0
 40
0
 40
1
 40
1
 40
1
 40
1
 10
307.815178
 20
-201.333088
 30
0.0
 10
307.815249
 20
-200.504774
 30
0.0
 10
308.486705
 20
-199.833306
 30
0.0
 10
309.315019
 20
-199.833218
 30
0.0
  0
LINE
  5
10c
100
AcDbEntity
  8
3mm_Utility_bits_-_Cut
 62
7
100
AcDbLine
 10
309.315019
 20
-199.833218
 30
0.0
 11
309.315019
 21
-199.833218
 31
0.0
  0
LINE
  5
10d
100
AcDbEntity
  8
3mm_Utility_bits_-_Cut
 62
7
100
AcDbLine
 10
305.315394
 20
-207.333048
 30
0.0
 11
313.315181
 21
-207.333048
 31
0.0
  0
LINE
  5
10e
100
AcDbEntity
  8
3mm_Utility_bits_-_Cut
 62
7
100
AcDbLine
 10
313.315181
 20
-207.333048
 30
0.0
 11
313.315181
 21
-215.332834
 31
0.0
  0
LINE
  5
10f
100
AcDbEntity
  8
3mm_Utility_bits_-_Cut
 62
7
100
AcDbLine
 10
313.315181
 20
-215.332834
 30
0.0
 11
305.315394
 21
-215.332834
 31
0.0
  0
LINE
  5
110
100
AcDbEntity
  8
3mm_Utility_bits_-_Cut
 62
7
100
AcDbLine
 10
305.315394
 20
-215.332834
 30
0.0
 11
305.315394
 21
-207.333048
 31
0.0
  0
LINE
  5
111
100
AcDbEntity
  8
3mm_Utility_bits_-_Cut
 62
7
100
AcDbLine
 10
305.315394
 20
-207.333048
 30
0.0
 11
305.315394
 21
-207.333048
 31
0.0
  0
SPLINE
  5
112
100
AcDbEntity
  8
3mm_Utility_bits_-_Cut
 62
7
100
AcDbSpline
 70
8
 71
3
 72
8
 73
4
 74
0
 40
0
 40
0
 40
0
 40
0
 40
1
 40
1
 40
1
 40
1
 10
299.315434
 20
-209.832803
 30
0.0
 10
299.713302
 20
-209.832845
 30
0.0
 10
300.094854
 20
-209.990955
 30
0.0
 10
300.376136
 20
-210.272342
 30
0.0
  0
SPLINE
  5
113
100
AcDbEntity
  8
3mm_Utility_bits_-_Cut
 62
7
100
AcDbSpline
 70
8
 71
3
 72
8
 73
4
 74
0
 40
0
 40
0
 40
0
 40
0
 40
1
 40
1
 40
1
 40
1
 10
300.376136
 20
-210.272342
 30
0.0
 10
300.657418
 20
-210.553730
 30
0.0
 10
300.815384
 20
-210.935342
 30
0.0
 10
300.815276
 20
-211.333209
 30
0.0
  0
SPLINE
  5
114
100
AcDbEntity
  8
3mm_Utility_bits_-_Cut
 62
7
100
AcDbSpline
 70
8
 71
3
 72
8
 73
4
 74
0
 40
0
 40
0
 40
0
 40
0
 40
1
 40
1
 40
1
 40
1
 10
300.815276
 20
-211.333209
 30
0.0
 10
300.815204
 20
-212.161524
 30
0.0
 10
300.143749
 20
-212.832992
 30
0.0
 10
299.315434
 20
-212.833079
 30
0.0
  0
SPLINE
  5
115
100
AcDbEntity
  8
3mm_Utility_bits_-_Cut
 62
7
100
AcDbSpline
 70
8
 71
3
 72
8
 73
4
 74
0
 40
0
 40
0
 40
0
 40
0
 40
1
 40
1
 40
1
 40
1
 10
299.315434
 20
-212.833079
 30
0.0
 10
298.917562
 20
-212.833187
 30
0.0
 10
298.535946
 20
-212.675217
 30
0.0
 10
298.254558
 20
-212.393929
 30
0.0
  0
SPLINE
  5
116
100
AcDbEntity
  8
3mm_Utility_bits_-_Cut
 62
7
100
AcDbSpline
 70
8
 71
3
 72
8
 73
4
 74
0
 40
0
 40
0
 40
0
 40
0
 40
1
 40
1
 40
1
 40
1
 10
298.254558
 20
-212.393929
 30
0.0
 10
297.973169
 20
-212.112641
 30
0.0
 10
297.815063
 20
-211.731082
 30
0.0
 10
297.815028
 20
-211.333209
 30
0.0
  0
SPLINE
  5
117
100
AcDbEntity
  8
3mm_Utility_bits_-_Cut
 62
7
100
AcDbSpline
 70
8
 71
3
 72
8
 73
4
 74
0
 40
0
 40
0
 40
0
 40
0
 40
1
 40
1
 40
1
 40
1
 10
297.815028
 20
-211.333209
 30
0.0
 10
297.814920
 20
-210.935244
 30
0.0
 10
297.972964
 20
-210.553547
 30
0.0
 10
298.254368
 20
-210.272143
 30
0.0
  0
SPLINE
  5
118
100
AcDbEntity
  8
3mm_Utility_bits_-_Cut
 62
7
100
AcDbSpline
 70
8
 71
3
 72
8
 73
4
 74
0
 40
0
 40
0
 40
0
 40
0
 40
1
 40
1
 40
1
 40
1
 10
298.254368
 20
-210.272143
 30
0.0
 10
298.535772
 20
-209.990739
 30
0.0
 10
298.917469
 20
-209.832695
 30
0.0
 10
299.315434
 20
-209.832803
 30
0.0
  0
LINE
  5
119
100
AcDbEntity
  8
3mm_Utility_bits_-_Cut
 62
7
100
AcDbLine
 10
299.315434
 20
-209.832803
 30
0.0
 11
299.315434
 21
-209.832803
 31
0.0
  0
SPLINE
  5
11a
100
AcDbEntity
  8
3mm_Utility_bits_-_Cut
 62
7
100
AcDbSpline
 70
8
 71
3
 72
8
 73
4
 74
0
 40
0
 40
0
 40
0
 40
0
 40
1
 40
1
 40
1
 40
1
 10
319.315169
 20
-209.832803
 30
0.0
 10
319.713041
 20
-209.832838
 30
0.0
 10
320.094600
 20
-209.990944
 30
0.0
 10
320.375888
 20
-210.272332
 30
0.0
  0
SPLINE
  5
11b
100
AcDbEntity
  8
3mm_Utility_bits_-_Cut
 62
7
100
AcDbSpline
 70
8
 71
3
 72
8
 73
4
 74
0
 40
0
 40
0
 40
0
 40
0
 40
1
 40
1
 40
1
 40
1
 10
320.375888
 20
-210.272332
 30
0.0
 10
320.657177
 20
-210.553721
 30
0.0
 10
320.815146
 20
-210.935337
 30
0.0
 10
320.815039
 20
-211.333209
 30
0.0
  0
SPLINE
  5
11c
100
AcDbEntity
  8
3mm_Utility_bits_-_Cut
 62
7
100
AcDbSpline
 70
8
 71
3
 72
8
 73
4
 74
0
 40
0
 40
0
 40
0
 40
0
 40
1
 40
1
 40
1
 40
1
 10
320.815039
 20
-211.333209
 30
0.0
 10
320.814967
 20
-212.161535
 30
0.0
 10
320.143494
 20
-212.833008
 30
0.0
 10
319.315169
 20
-212.833079
 30
0.0
  0
SPLINE
  5
11d
100
AcDbEntity
  8
3mm_Utility_bits_-_Cut
 62
7
100
AcDbSpline
 70
8
 71
3
 72
8
 73
4
 74
0
 40
0
 40
0
 40
0
 40
0
 40
1
 40
1
 40
1
 40
1
 10
319.315169
 20
-212.833079
 30
0.0
 10
318.486843
 20
-212.833008
 30
0.0
 10
317.815370
 20
-212.161535
 30
0.0
 10
317.815299
 20
-211.333209
 30
0.0
  0
SPLINE
  5
11e
100
AcDbEntity
  8
3mm_Utility_bits_-_Cut
 62
7
100
AcDbSpline
 70
8
 71
3
 72
8
 73
4
 74
0
 40
0
 40
0
 40
0
 40
0
 40
1
 40
1
 40
1
 40
1
 10
317.815299
 20
-211.333209
 30
0.0
 10
317.815191
 20
-210.935337
 30
0.0
 10
317.973161
 20
-210.553721
 30
0.0
 10
318.254449
 20
-210.272332
 30
0.0
  0
SPLINE
  5
11f
100
AcDbEntity
  8
3mm_Utility_bits_-_Cut
 62
7
100
AcDbSpline
 70
8
 71
3
 72
8
 73
4
 74
0
 40
0
 40
0
 40
0
 40
0
 40
1
 40
1
 40
1
 40
1
 10
318.254449
 20
-210.272332
 30
0.0
 10
318.535737
 20
-209.990944
 30
0.0
 10
318.917296
 20
-209.832838
 30
0.0
 10
319.315169
 20
-209.832803
 30
0.0
  0
LINE
  5
120
100
AcDbEntity
  8
3mm_Utility_bits_-_Cut
 62
7
100
AcDbLine
 10
319.315169
 20
-209.832803
 30
0.0
 11
319.315169
 21
-209.832803
 31
0.0
  0
SPLINE
  5
121
100
AcDbEntity
  8
3mm_Utility_bits_-_Cut
 62
7
100
AcDbSpline
 70
8
 71
3
 72
8
 73
4
 74
0
 40
0
 40
0
 40
0
 40
0
 40
1
 40
1
 40
1
 40
1
 10
309.315019
 20
-219.832952
 30
0.0
 10
309.712892
 20
-219.832845
 30
0.0
 10
310.094507
 20
-219.990815
 30
0.0
 10
310.375896
 20
-220.272103
 30
0.0
  0
SPLINE
  5
122
100
AcDbEntity
  8
3mm_Utility_bits_-_Cut
 62
7
100
AcDbSpline
 70
8
 71
3
 72
8
 73
4
 74
0
 40
0
 40
0
 40
0
 40
0
 40
1
 40
1
 40
1
 40
1
 10
310.375896
 20
-220.272103
 30
0.0
 10
310.657285
 20
-220.553391
 30
0.0
 10
310.815391
 20
-220.934950
 30
0.0
 10
310.815426
 20
-221.332822
 30
0.0
  0
SPLINE
  5
123
100
AcDbEntity
  8
3mm_Utility_bits_-_Cut
 62
7
100
AcDbSpline
 70
8
 71
3
 72
8
 73
4
 74
0
 40
0
 40
0
 40
0
 40
0
 40
1
 40
1
 40
1
 40
1
 10
310.815426
 20
-221.332822
 30
0.0
 10
310.815533
 20
-221.730788
 30
0.0
 10
310.657490
 20
-222.112485
 30
0.0
 10
310.376086
 20
-222.393889
 30
0.0
  0
SPLINE
  5
124
100
AcDbEntity
  8
3mm_Utility_bits_-_Cut
 62
7
100
AcDbSpline
 70
8
 71
3
 72
8
 73
4
 74
0
 40
0
 40
0
 40
0
 40
0
 40
1
 40
1
 40
1
 40
1
 10
310.376086
 20
-222.393889
 30
0.0
 10
310.094682
 20
-222.675293
 30
0.0
 10
309.712985
 20
-222.833336
 30
0.0
 10
309.315019
 20
-222.833229
 30
0.0
  0
SPLINE
  5
125
100
AcDbEntity
  8
3mm_Utility_bits_-_Cut
 62
7
100
AcDbSpline
 70
8
 71
3
 72
8
 73
4
 74
0
 40
0
 40
0
 40
0
 40
0
 40
1
 40
1
 40
1
 40
1
 10
309.315019
 20
-222.833229
 30
0.0
 10
308.917152
 20
-222.833187
 30
0.0
 10
308.535600
 20
-222.675077
 30
0.0
 10
308.254318
 20
-222.393689
 30
0.0
  0
SPLINE
  5
126
100
AcDbEntity
  8
3mm_Utility_bits_-_Cut
 62
7
100
AcDbSpline
 70
8
 71
3
 72
8
 73
4
 74
0
 40
0
 40
0
 40
0
 40
0
 40
1
 40
1
 40
1
 40
1
 10
308.254318
 20
-222.393689
 30
0.0
 10
307.973036
 20
-222.112301
 30
0.0
 10
307.815070
 20
-221.730690
 30
0.0
 10
307.815178
 20
-221.332822
 30
0.0
  0
SPLINE
  5
127
100
AcDbEntity
  8
3mm_Utility_bits_-_Cut
 62
7
100
AcDbSpline
 70
8
 71
3
 72
8
 73
4
 74
0
 40
0
 40
0
 40
0
 40
0
 40
1
 40
1
 40
1
 40
1
 10
307.815178
 20
-221.332822
 30
0.0
 10
307.815249
 20
-220.504508
 30
0.0
 10
308.486705
 20
-219.833040
 30
0.0
 10
309.315019
 20
-219.832952
 30
0.0
  0
LINE
  5
128
100
AcDbEntity
  8
3mm_Utility_bits_-_Cut
 62
7
100
AcDbLine
 10
309.315019
 20
-219.832952
 30
0.0
 11
309.315019
 21
-219.832952
 31
0.0
  0
SPLINE
  5
129
100
AcDbEntity
  8
3mm_Utility_bits_-_Cut
 62
7
100
AcDbSpline
 70
8
 71
3
 72
8
 73
4
 74
0
 40
0
 40
0
 40
0
 40
0
 40
1
 40
1
 40
1
 40
1
 10
340.491939
 20
-196.333014
 30
0.0
 10
332.207724
 20
-196.333201
 30
0.0
 10
325.492171
 20
-203.048994
 30
0.0
 10
325.492279
 20
-211.333209
 30
0.0
  0
SPLINE
  5
12a
100
AcDbEntity
  8
3mm_Utility_bits_-_Cut
 62
7
100
AcDbSpline
 70
8
 71
3
 72
8
 73
4
 74
0
 40
0
 40
0
 40
0
 40
0
 40
1
 40
1
 40
1
 40
1
 10
325.492279
 20
-211.333209
 30
0.0
 10
325.492452
 20
-219.617226
 30
0.0
 10
332.207922
 20
-226.332709
 30
0.0
 10
340.491939
 20
-226.332897
 30
0.0
  0
SPLINE
  5
12b
100
AcDbEntity
  8
3mm_Utility_bits_-_Cut
 62
7
100
AcDbSpline
 70
8
 71
3
 72
8
 73
4
 74
0
 40
0
 40
0
 40
0
 40
0
 40
1
 40
1
 40
1
 40
1
 10
340.491939
 20
-226.332897
 30
0.0
 10
348.776176
 20
-226.333021
 30
0.0
 10
355.491991
 20
-219.617446
 30
0.0
 10
355.492163
 20
-211.333209
 30
0.0
  0
SPLINE
  5
12c
100
AcDbEntity
  8
3mm_Utility_bits_-_Cut
 62
7
100
AcDbSpline
 70
8
 71
3
 72
8
 73
4
 74
0
 40
0
 40
0
 40
0
 40
0
 40
1
 40
1
 40
1
 40
1
 10
355.492163
 20
-211.333209
 30
0.0
 10
355.492215
 20
-207.354889
 30
0.0
 10
353.911855
 20
-203.539496
 30
0.0
 10
351.098755
 20
-200.726402
 30
0.0
  0
SPLINE
  5
12d
100
AcDbEntity
  8
3mm_Utility_bits_-_Cut
 62
7
100
AcDbSpline
 70
8
 71
3
 72
8
 73
4
 74
0
 40
0
 40
0
 40
0
 40
0
 40
1
 40
1
 40
1
 40
1
 10
351.098755
 20
-200.726402
 30
0.0
 10
348.285655
 20
-197.913307
 30
0.0
 10
344.470259
 20
-196.332954
 30
0.0
 10
340.491939
 20
-196.333014
 30
0.0
  0
LINE
  5
12e
100
AcDbEntity
  8
3mm_Utility_bits_-_Cut
 62
7
100
AcDbLine
 10
340.491939
 20
-196.333014
 30
0.0
 11
340.491939
 21
-196.333014
 31
0.0
  0
SPLINE
  5
12f
100
AcDbEntity
  8
3mm_Utility_bits_-_Cut
 62
7
100
AcDbSpline
 70
8
 71
3
 72
8
 73
4
 74
0
 40
0
 40
0
 40
0
 40
0
 40
1
 40
1
 40
1
 40
1
 10
340.491939
 20
-199.833218
 30
0.0
 10
340.889811
 20
-199.833110
 30
0.0
 10
341.271427
 20
-199.991080
 30
0.0
 10
341.552816
 20
-200.272368
 30
0.0
  0
SPLINE
  5
130
100
AcDbEntity
  8
3mm_Utility_bits_-_Cut
 62
7
100
AcDbSpline
 70
8
 71
3
 72
8
 73
4
 74
0
 40
0
 40
0
 40
0
 40
0
 40
1
 40
1
 40
1
 40
1
 10
341.552816
 20
-200.272368
 30
0.0
 10
341.834204
 20
-200.553657
 30
0.0
 10
341.992311
 20
-200.935216
 30
0.0
 10
341.992345
 20
-201.333088
 30
0.0
  0
SPLINE
  5
131
100
AcDbEntity
  8
3mm_Utility_bits_-_Cut
 62
7
100
AcDbSpline
 70
8
 71
3
 72
8
 73
4
 74
0
 40
0
 40
0
 40
0
 40
0
 40
1
 40
1
 40
1
 40
1
 10
341.992345
 20
-201.333088
 30
0.0
 10
341.992303
 20
-201.730956
 30
0.0
 10
341.834194
 20
-202.112508
 30
0.0
 10
341.552806
 20
-202.393790
 30
0.0
  0
SPLINE
  5
132
100
AcDbEntity
  8
3mm_Utility_bits_-_Cut
 62
7
100
AcDbSpline
 70
8
 71
3
 72
8
 73
4
 74
0
 40
0
 40
0
 40
0
 40
0
 40
1
 40
1
 40
1
 40
1
 10
341.552806
 20
-202.393790
 30
0.0
 10
341.271418
 20
-202.675072
 30
0.0
 10
340.889807
 20
-202.833038
 30
0.0
 10
340.491939
 20
-202.832930
 30
0.0
  0
SPLINE
  5
133
100
AcDbEntity
  8
3mm_Utility_bits_-_Cut
 62
7
100
AcDbSpline
 70
8
 71
3
 72
8
 73
4
 74
0
 40
0
 40
0
 40
0
 40
0
 40
1
 40
1
 40
1
 40
1
 10
340.491939
 20
-202.832930
 30
0.0
 10
339.663635
 20
-202.832843
 30
0.0
 10
338.992184
 20
-202.161392
 30
0.0
 10
338.992097
 20
-201.333088
 30
0.0
  0
SPLINE
  5
134
100
AcDbEntity
  8
3mm_Utility_bits_-_Cut
 62
7
100
AcDbSpline
 70
8
 71
3
 72
8
 73
4
 74
0
 40
0
 40
0
 40
0
 40
0
 40
1
 40
1
 40
1
 40
1
 10
338.992097
 20
-201.333088
 30
0.0
 10
338.992169
 20
-200.504774
 30
0.0
 10
339.663624
 20
-199.833306
 30
0.0
 10
340.491939
 20
-199.833218
 30
0.0
  0
LINE
  5
135
100
AcDbEntity
  8
3mm_Utility_bits_-_Cut
 62
7
100
AcDbLine
 10
340.491939
 20
-199.833218
 30
0.0
 11
340.491939
 21
-199.833218
 31
0.0
  0
LINE
  5
136
100
AcDbEntity
  8
3mm_Utility_bits_-_Cut
 62
7
100
AcDbLine
 10
336.492314
 20
-207.333048
 30
0.0
 11
344.492100
 21
-207.333048
 31
0.0
  0
LINE
  5
137
100
AcDbEntity
  8
3mm_Utility_bits_-_Cut
 62
7
100
AcDbLine
 10
344.492100
 20
-207.333048
 30
0.0
 11
344.492100
 21
-215.332834
 31
0.0
  0
LINE
  5
138
100
AcDbEntity
  8
3mm_Utility_bits_-_Cut
 62
7
100
AcDbLine
 10
344.492100
 20
-215.332834
 30
0.0
 11
336.492314
 21
-215.332834
 31
0.0
  0
LINE
  5
139
100
AcDbEntity
  8
3mm_Utility_bits_-_Cut
 62
7
100
AcDbLine
 10
336.492314
 20
-215.332834
 30
0.0
 11
336.492314
 21
-207.333048
 31
0.0
  0
LINE
  5
13a
100
AcDbEntity
  8
3mm_Utility_bits_-_Cut
 62
7
100
AcDbLine
 10
336.492314
 20
-207.333048
 30
0.0
 11
336.492314
 21
-207.333048
 31
0.0
  0
SPLINE
  5
13b
100
AcDbEntity
  8
3mm_Utility_bits_-_Cut
 62
7
100
AcDbSpline
 70
8
 71
3
 72
8
 73
4
 74
0
 40
0
 40
0
 40
0
 40
0
 40
1
 40
1
 40
1
 40
1
 10
330.492354
 20
-209.832803
 30
0.0
 10
330.890222
 20
-209.832845
 30
0.0
 10
331.271774
 20
-209.990955
 30
0.0
 10
331.553056
 20
-210.272342
 30
0.0
  0
SPLINE
  5
13c
100
AcDbEntity
  8
3mm_Utility_bits_-_Cut
 62
7
100
AcDbSpline
 70
8
 71
3
 72
8
 73
4
 74
0
 40
0
 40
0
 40
0
 40
0
 40
1
 40
1
 40
1
 40
1
 10
331.553056
 20
-210.272342
 30
0.0
 10
331.834338
 20
-210.553730
 30
0.0
 10
331.992304
 20
-210.935342
 30
0.0
 10
331.992196
 20
-211.333209
 30
0.0
  0
SPLINE
  5
13d
100
AcDbEntity
  8
3mm_Utility_bits_-_Cut
 62
7
100
AcDbSpline
 70
8
 71
3
 72
8
 73
4
 74
0
 40
0
 40
0
 40
0
 40
0
 40
1
 40
1
 40
1
 40
1
 10
331.992196
 20
-211.333209
 30
0.0
 10
331.992124
 20
-212.161524
 30
0.0
 10
331.320669
 20
-212.832992
 30
0.0
 10
330.492354
 20
-212.833079
 30
0.0
  0
SPLINE
  5
13e
100
AcDbEntity
  8
3mm_Utility_bits_-_Cut
 62
7
100
AcDbSpline
 70
8
 71
3
 72
8
 73
4
 74
0
 40
0
 40
0
 40
0
 40
0
 40
1
 40
1
 40
1
 40
1
 10
330.492354
 20
-212.833079
 30
0.0
 10
330.094481
 20
-212.833187
 30
0.0
 10
329.712866
 20
-212.675217
 30
0.0
 10
329.431477
 20
-212.393929
 30
0.0
  0
SPLINE
  5
13f
100
AcDbEntity
  8
3mm_Utility_bits_-_Cut
 62
7
100
AcDbSpline
 70
8
 71
3
 72
8
 73
4
 74
0
 40
0
 40
0
 40
0
 40
0
 40
1
 40
1
 40
1
 40
1
 10
329.431477
 20
-212.393929
 30
0.0
 10
329.150088
 20
-212.112641
 30
0.0
 10
328.991982
 20
-211.731082
 30
0.0
 10
328.991948
 20
-211.333209
 30
0.0
  0
SPLINE
  5
140
100
AcDbEntity
  8
3mm_Utility_bits_-_Cut
 62
7
100
AcDbSpline
 70
8
 71
3
 72
8
 73
4
 74
0
 40
0
 40
0
 40
0
 40
0
 40
1
 40
1
 40
1
 40
1
 10
328.991948
 20
-211.333209
 30
0.0
 10
328.991840
 20
-210.935244
 30
0.0
 10
329.149883
 20
-210.553547
 30
0.0
 10
329.431288
 20
-210.272143
 30
0.0
  0
SPLINE
  5
141
100
AcDbEntity
  8
3mm_Utility_bits_-_Cut
 62
7
100
AcDbSpline
 70
8
 71
3
 72
8
 73
4
 74
0
 40
0
 40
0
 40
0
 40
0
 40
1
 40
1
 40
1
 40
1
 10
329.431288
 20
-210.272143
 30
0.0
 10
329.712692
 20
-209.990739
 30
0.0
 10
330.094388
 20
-209.832695
 30
0.0
 10
330.492354
 20
-209.832803
 30
0.0
  0
LINE
  5
142
100
AcDbEntity
  8
3mm_Utility_bits_-_Cut
 62
7
100
AcDbLine
 10
330.492354
 20
-209.832803
 30
0.0
 11
330.492354
 21
-209.832803
 31
0.0
  0
SPLINE
  5
143
100
AcDbEntity
  8
3mm_Utility_bits_-_Cut
 62
7
100
AcDbSpline
 70
8
 71
3
 72
8
 73
4
 74
0
 40
0
 40
0
 40
0
 40
0
 40
1
 40
1
 40
1
 40
1
 10
350.492088
 20
-209.832803
 30
0.0
 10
350.889961
 20
-209.832838
 30
0.0
 10
351.271520
 20
-209.990944
 30
0.0
 10
351.552808
 20
-210.272332
 30
0.0
  0
SPLINE
  5
144
100
AcDbEntity
  8
3mm_Utility_bits_-_Cut
 62
7
100
AcDbSpline
 70
8
 71
3
 72
8
 73
4
 74
0
 40
0
 40
0
 40
0
 40
0
 40
1
 40
1
 40
1
 40
1
 10
351.552808
 20
-210.272332
 30
0.0
 10
351.834096
 20
-210.553721
 30
0.0
 10
351.992066
 20
-210.935337
 30
0.0
 10
351.991958
 20
-211.333209
 30
0.0
  0
SPLINE
  5
145
100
AcDbEntity
  8
3mm_Utility_bits_-_Cut
 62
7
100
AcDbSpline
 70
8
 71
3
 72
8
 73
4
 74
0
 40
0
 40
0
 40
0
 40
0
 40
1
 40
1
 40
1
 40
1
 10
351.991958
 20
-211.333209
 30
0.0
 10
351.991886
 20
-212.161535
 30
0.0
 10
351.320414
 20
-212.833008
 30
0.0
 10
350.492088
 20
-212.833079
 30
0.0
  0
SPLINE
  5
146
100
AcDbEntity
  8
3mm_Utility_bits_-_Cut
 62
7
100
AcDbSpline
 70
8
 71
3
 72
8
 73
4
 74
0
 40
0
 40
0
 40
0
 40
0
 40
1
 40
1
 40
1
 40
1
 10
350.492088
 20
-212.833079
 30
0.0
 10
349.663763
 20
-212.833008
 30
0.0
 10
348.992290
 20
-212.161535
 30
0.0
 10
348.992218
 20
-211.333209
 30
0.0
  0
SPLINE
  5
147
100
AcDbEntity
  8
3mm_Utility_bits_-_Cut
 62
7
100
AcDbSpline
 70
8
 71
3
 72
8
 73
4
 74
0
 40
0
 40
0
 40
0
 40
0
 40
1
 40
1
 40
1
 40
1
 10
348.992218
 20
-211.333209
 30
0.0
 10
348.992110
 20
-210.935337
 30
0.0
 10
349.150080
 20
-210.553721
 30
0.0
 10
349.431368
 20
-210.272332
 30
0.0
  0
SPLINE
  5
148
100
AcDbEntity
  8
3mm_Utility_bits_-_Cut
 62
7
100
AcDbSpline
 70
8
 71
3
 72
8
 73
4
 74
0
 40
0
 40
0
 40
0
 40
0
 40
1
 40
1
 40
1
 40
1
 10
349.431368
 20
-210.272332
 30
0.0
 10
349.712657
 20
-209.990944
 30
0.0
 10
350.094216
 20
-209.832838
 30
0.0
 10
350.492088
 20
-209.832803
 30
0.0
  0
LINE
  5
149
100
AcDbEntity
  8
3mm_Utility_bits_-_Cut
 62
7
100
AcDbLine
 10
350.492088
 20
-209.832803
 30
0.0
 11
350.492088
 21
-209.832803
 31
0.0
  0
SPLINE
  5
14a
100
AcDbEntity
  8
3mm_Utility_bits_-_Cut
 62
7
100
AcDbSpline
 70
8
 71
3
 72
8
 73
4
 74
0
 40
0
 40
0
 40
0
 40
0
 40
1
 40
1
 40
1
 40
1
 10
340.491939
 20
-219.832952
 30
0.0
 10
340.889811
 20
-219.832845
 30
0.0
 10
341.271427
 20
-219.990815
 30
0.0
 10
341.552816
 20
-220.272103
 30
0.0
  0
SPLINE
  5
14b
100
AcDbEntity
  8
3mm_Utility_bits_-_Cut
 62
7
100
AcDbSpline
 70
8
 71
3
 72
8
 73
4
 74
0
 40
0
 40
0
 40
0
 40
0
 40
1
 40
1
 40
1
 40
1
 10
341.552816
 20
-220.272103
 30
0.0
 10
341.834204
 20
-220.553391
 30
0.0
 10
341.992311
 20
-220.934950
 30
0.0
 10
341.992345
 20
-221.332822
 30
0.0
  0
SPLINE
  5
14c
100
AcDbEntity
  8
3mm_Utility_bits_-_Cut
 62
7
100
AcDbSpline
 70
8
 71
3
 72
8
 73
4
 74
0
 40
0
 40
0
 40
0
 40
0
 40
1
 40
1
 40
1
 40
1
 10
341.992345
 20
-221.332822
 30
0.0
 10
341.992453
 20
-221.730788
 30
0.0
 10
341.834409
 20
-222.112485
 30
0.0
 10
341.553005
 20
-222.393889
 30
0.0
  0
SPLINE
  5
14d
100
AcDbEntity
  8
3mm_Utility_bits_-_Cut
 62
7
100
AcDbSpline
 70
8
 71
3
 72
8
 73
4
 74
0
 40
0
 40
0
 40
0
 40
0
 40
1
 40
1
 40
1
 40
1
 10
341.553005
 20
-222.393889
 30
0.0
 10
341.271601
 20
-222.675293
 30
0.0
 10
340.889904
 20
-222.833336
 30
0.0
 10
340.491939
 20
-222.833229
 30
0.0
  0
SPLINE
  5
14e
100
AcDbEntity
  8
3mm_Utility_bits_-_Cut
 62
7
100
AcDbSpline
 70
8
 71
3
 72
8
 73
4
 74
0
 40
0
 40
0
 40
0
 40
0
 40
1
 40
1
 40
1
 40
1
 10
340.491939
 20
-222.833229
 30
0.0
 10
340.094071
 20
-222.833187
 30
0.0
 10
339.712519
 20
-222.675077
 30
0.0
 10
339.431237
 20
-222.393689
 30
0.0
  0
SPLINE
  5
14f
100
AcDbEntity
  8
3mm_Utility_bits_-_Cut
 62
7
100
AcDbSpline
 70
8
 71
3
 72
8
 73
4
 74
0
 40
0
 40
0
 40
0
 40
0
 40
1
 40
1
 40
1
 40
1
 10
339.431237
 20
-222.393689
 30
0.0
 10
339.149955
 20
-222.112301
 30
0.0
 10
338.991989
 20
-221.730690
 30
0.0
 10
338.992097
 20
-221.332822
 30
0.0
  0
SPLINE
  5
150
100
AcDbEntity
  8
3mm_Utility_bits_-_Cut
 62
7
100
AcDbSpline
 70
8
 71
3
 72
8
 73
4
 74
0
 40
0
 40
0
 40
0
 40
0
 40
1
 40
1
 40
1
 40
1
 10
338.992097
 20
-221.332822
 30
0.0
 10
338.992169
 20
-220.504508
 30
0.0
 10
339.663624
 20
-219.833040
 30
0.0
 10
340.491939
 20
-219.832952
 30
0.0
  0
LINE
  5
151
100
AcDbEntity
  8
3mm_Utility_bits_-_Cut
 62
7
100
AcDbLine
 10
340.491939
 20
-219.832952
 30
0.0
 11
340.491939
 21
-219.832952
 31
0.0
  0
SPLINE
  5
152
100
AcDbEntity
  8
3mm_Utility_bits_-_Cut
 62
7
100
AcDbSpline
 70
8
 71
3
 72
8
 73
4
 74
0
 40
0
 40
0
 40
0
 40
0
 40
1
 40
1
 40
1
 40
1
 10
324.903479
 20
-223.333016
 30
0.0
 10
316.619264
 20
-223.333204
 30
0.0
 10
309.903711
 20
-230.048997
 30
0.0
 10
309.903820
 20
-238.333212
 30
0.0
  0
SPLINE
  5
153
100
AcDbEntity
  8
3mm_Utility_bits_-_Cut
 62
7
100
AcDbSpline
 70
8
 71
3
 72
8
 73
4
 74
0
 40
0
 40
0
 40
0
 40
0
 40
1
 40
1
 40
1
 40
1
 10
309.903820
 20
-238.333212
 30
0.0
 10
309.903992
 20
-246.617228
 30
0.0
 10
316.619463
 20
-253.332712
 30
0.0
 10
324.903479
 20
-253.332900
 30
0.0
  0
SPLINE
  5
154
100
AcDbEntity
  8
3mm_Utility_bits_-_Cut
 62
7
100
AcDbSpline
 70
8
 71
3
 72
8
 73
4
 74
0
 40
0
 40
0
 40
0
 40
0
 40
1
 40
1
 40
1
 40
1
 10
324.903479
 20
-253.332900
 30
0.0
 10
333.187716
 20
-253.333023
 30
0.0
 10
339.903531
 20
-246.617449
 30
0.0
 10
339.903703
 20
-238.333212
 30
0.0
  0
SPLINE
  5
155
100
AcDbEntity
  8
3mm_Utility_bits_-_Cut
 62
7
100
AcDbSpline
 70
8
 71
3
 72
8
 73
4
 74
0
 40
0
 40
0
 40
0
 40
0
 40
1
 40
1
 40
1
 40
1
 10
339.903703
 20
-238.333212
 30
0.0
 10
339.903755
 20
-234.354892
 30
0.0
 10
338.323395
 20
-230.539499
 30
0.0
 10
335.510295
 20
-227.726404
 30
0.0
  0
SPLINE
  5
156
100
AcDbEntity
  8
3mm_Utility_bits_-_Cut
 62
7
100
AcDbSpline
 70
8
 71
3
 72
8
 73
4
 74
0
 40
0
 40
0
 40
0
 40
0
 40
1
 40
1
 40
1
 40
1
 10
335.510295
 20
-227.726404
 30
0.0
 10
332.697195
 20
-224.913310
 30
0.0
 10
328.881799
 20
-223.332956
 30
0.0
 10
324.903479
 20
-223.333016
 30
0.0
  0
LINE
  5
157
100
AcDbEntity
  8
3mm_Utility_bits_-_Cut
 62
7
100
AcDbLine
 10
324.903479
 20
-223.333016
 30
0.0
 11
324.903479
 21
-223.333016
 31
0.0
  0
SPLINE
  5
158
100
AcDbEntity
  8
3mm_Utility_bits_-_Cut
 62
7
100
AcDbSpline
 70
8
 71
3
 72
8
 73
4
 74
0
 40
0
 40
0
 40
0
 40
0
 40
1
 40
1
 40
1
 40
1
 10
324.903479
 20
-226.833221
 30
0.0
 10
325.301352
 20
-226.833113
 30
0.0
 10
325.682967
 20
-226.991083
 30
0.0
 10
325.964356
 20
-227.272371
 30
0.0
  0
SPLINE
  5
159
100
AcDbEntity
  8
3mm_Utility_bits_-_Cut
 62
7
100
AcDbSpline
 70
8
 71
3
 72
8
 73
4
 74
0
 40
0
 40
0
 40
0
 40
0
 40
1
 40
1
 40
1
 40
1
 10
325.964356
 20
-227.272371
 30
0.0
 10
326.245745
 20
-227.553659
 30
0.0
 10
326.403851
 20
-227.935218
 30
0.0
 10
326.403885
 20
-228.333091
 30
0.0
  0
SPLINE
  5
15a
100
AcDbEntity
  8
3mm_Utility_bits_-_Cut
 62
7
100
AcDbSpline
 70
8
 71
3
 72
8
 73
4
 74
0
 40
0
 40
0
 40
0
 40
0
 40
1
 40
1
 40
1
 40
1
 10
326.403885
 20
-228.333091
 30
0.0
 10
326.403843
 20
-228.730958
 30
0.0
 10
326.245734
 20
-229.112510
 30
0.0
 10
325.964346
 20
-229.393792
 30
0.0
  0
SPLINE
  5
15b
100
AcDbEntity
  8
3mm_Utility_bits_-_Cut
 62
7
100
AcDbSpline
 70
8
 71
3
 72
8
 73
4
 74
0
 40
0
 40
0
 40
0
 40
0
 40
1
 40
1
 40
1
 40
1
 10
325.964346
 20
-229.393792
 30
0.0
 10
325.682958
 20
-229.675074
 30
0.0
 10
325.301347
 20
-229.833040
 30
0.0
 10
324.903479
 20
-229.832932
 30
0.0
  0
SPLINE
  5
15c
100
AcDbEntity
  8
3mm_Utility_bits_-_Cut
 62
7
100
AcDbSpline
 70
8
 71
3
 72
8
 73
4
 74
0
 40
0
 40
0
 40
0
 40
0
 40
1
 40
1
 40
1
 40
1
 10
324.903479
 20
-229.832932
 30
0.0
 10
324.075176
 20
-229.832845
 30
0.0
 10
323.403725
 20
-229.161394
 30
0.0
 10
323.403637
 20
-228.333091
 30
0.0
  0
SPLINE
  5
15d
100
AcDbEntity
  8
3mm_Utility_bits_-_Cut
 62
7
100
AcDbSpline
 70
8
 71
3
 72
8
 73
4
 74
0
 40
0
 40
0
 40
0
 40
0
 40
1
 40
1
 40
1
 40
1
 10
323.403637
 20
-228.333091
 30
0.0
 10
323.403709
 20
-227.504776
 30
0.0
 10
324.075165
 20
-226.833308
 30
0.0
 10
324.903479
 20
-226.833221
 30
0.0
  0
LINE
  5
15e
100
AcDbEntity
  8
3mm_Utility_bits_-_Cut
 62
7
100
AcDbLine
 10
324.903479
 20
-226.833221
 30
0.0
 11
324.903479
 21
-226.833221
 31
0.0
  0
LINE
  5
15f
100
AcDbEntity
  8
3mm_Utility_bits_-_Cut
 62
7
100
AcDbLine
 10
320.903854
 20
-234.333050
 30
0.0
 11
328.903640
 21
-234.333050
 31
0.0
  0
LINE
  5
160
100
AcDbEntity
  8
3mm_Utility_bits_-_Cut
 62
7
100
AcDbLine
 10
328.903640
 20
-234.333050
 30
0.0
 11
328.903640
 21
-242.332837
 31
0.0
  0
LINE
  5
161
100
AcDbEntity
  8
3mm_Utility_bits_-_Cut
 62
7
100
AcDbLine
 10
328.903640
 20
-242.332837
 30
0.0
 11
320.903854
 21
-242.332837
 31
0.0
  0
LINE
  5
162
100
AcDbEntity
  8
3mm_Utility_bits_-_Cut
 62
7
100
AcDbLine
 10
320.903854
 20
-242.332837
 30
0.0
 11
320.903854
 21
-234.333050
 31
0.0
  0
LINE
  5
163
100
AcDbEntity
  8
3mm_Utility_bits_-_Cut
 62
7
100
AcDbLine
 10
320.903854
 20
-234.333050
 30
0.0
 11
320.903854
 21
-234.333050
 31
0.0
  0
SPLINE
  5
164
100
AcDbEntity
  8
3mm_Utility_bits_-_Cut
 62
7
100
AcDbSpline
 70
8
 71
3
 72
8
 73
4
 74
0
 40
0
 40
0
 40
0
 40
0
 40
1
 40
1
 40
1
 40
1
 10
314.903894
 20
-236.832806
 30
0.0
 10
315.301762
 20
-236.832847
 30
0.0
 10
315.683314
 20
-236.990957
 30
0.0
 10
315.964596
 20
-237.272345
 30
0.0
  0
SPLINE
  5
165
100
AcDbEntity
  8
3mm_Utility_bits_-_Cut
 62
7
100
AcDbSpline
 70
8
 71
3
 72
8
 73
4
 74
0
 40
0
 40
0
 40
0
 40
0
 40
1
 40
1
 40
1
 40
1
 10
315.964596
 20
-237.272345
 30
0.0
 10
316.245878
 20
-237.553733
 30
0.0
 10
316.403844
 20
-237.935344
 30
0.0
 10
316.403736
 20
-238.333212
 30
0.0
  0
SPLINE
  5
166
100
AcDbEntity
  8
3mm_Utility_bits_-_Cut
 62
7
100
AcDbSpline
 70
8
 71
3
 72
8
 73
4
 74
0
 40
0
 40
0
 40
0
 40
0
 40
1
 40
1
 40
1
 40
1
 10
316.403736
 20
-238.333212
 30
0.0
 10
316.403664
 20
-239.161526
 30
0.0
 10
315.732209
 20
-239.832994
 30
0.0
 10
314.903894
 20
-239.833082
 30
0.0
  0
SPLINE
  5
167
100
AcDbEntity
  8
3mm_Utility_bits_-_Cut
 62
7
100
AcDbSpline
 70
8
 71
3
 72
8
 73
4
 74
0
 40
0
 40
0
 40
0
 40
0
 40
1
 40
1
 40
1
 40
1
 10
314.903894
 20
-239.833082
 30
0.0
 10
314.506022
 20
-239.833190
 30
0.0
 10
314.124406
 20
-239.675220
 30
0.0
 10
313.843017
 20
-239.393932
 30
0.0
  0
SPLINE
  5
168
100
AcDbEntity
  8
3mm_Utility_bits_-_Cut
 62
7
100
AcDbSpline
 70
8
 71
3
 72
8
 73
4
 74
0
 40
0
 40
0
 40
0
 40
0
 40
1
 40
1
 40
1
 40
1
 10
313.843017
 20
-239.393932
 30
0.0
 10
313.561629
 20
-239.112643
 30
0.0
 10
313.403522
 20
-238.731084
 30
0.0
 10
313.403488
 20
-238.333212
 30
0.0
  0
SPLINE
  5
169
100
AcDbEntity
  8
3mm_Utility_bits_-_Cut
 62
7
100
AcDbSpline
 70
8
 71
3
 72
8
 73
4
 74
0
 40
0
 40
0
 40
0
 40
0
 40
1
 40
1
 40
1
 40
1
 10
313.403488
 20
-238.333212
 30
0.0
 10
313.403380
 20
-237.935246
 30
0.0
 10
313.561424
 20
-237.553549
 30
0.0
 10
313.842828
 20
-237.272145
 30
0.0
  0
SPLINE
  5
16a
100
AcDbEntity
  8
3mm_Utility_bits_-_Cut
 62
7
100
AcDbSpline
 70
8
 71
3
 72
8
 73
4
 74
0
 40
0
 40
0
 40
0
 40
0
 40
1
 40
1
 40
1
 40
1
 10
313.842828
 20
-237.272145
 30
0.0
 10
314.124232
 20
-236.990741
 30
0.0
 10
314.505929
 20
-236.832698
 30
0.0
 10
314.903894
 20
-236.832806
 30
0.0
  0
LINE
  5
16b
100
AcDbEntity
  8
3mm_Utility_bits_-_Cut
 62
7
100
AcDbLine
 10
314.903894
 20
-236.832806
 30
0.0
 11
314.903894
 21
-236.832806
 31
0.0
  0
SPLINE
  5
16c
100
AcDbEntity
  8
3mm_Utility_bits_-_Cut
 62
7
100
AcDbSpline
 70
8
 71
3
 72
8
 73
4
 74
0
 40
0
 40
0
 40
0
 40
0
 40
1
 40
1
 40
1
 40
1
 10
334.903628
 20
-236.832806
 30
0.0
 10
335.301501
 20
-236.832840
 30
0.0
 10
335.683060
 20
-236.990946
 30
0.0
 10
335.964348
 20
-237.272335
 30
0.0
  0
SPLINE
  5
16d
100
AcDbEntity
  8
3mm_Utility_bits_-_Cut
 62
7
100
AcDbSpline
 70
8
 71
3
 72
8
 73
4
 74
0
 40
0
 40
0
 40
0
 40
0
 40
1
 40
1
 40
1
 40
1
 10
335.964348
 20
-237.272335
 30
0.0
 10
336.245636
 20
-237.553724
 30
0.0
 10
336.403606
 20
-237.935339
 30
0.0
 10
336.403498
 20
-238.333212
 30
0.0
  0
SPLINE
  5
16e
100
AcDbEntity
  8
3mm_Utility_bits_-_Cut
 62
7
100
AcDbSpline
 70
8
 71
3
 72
8
 73
4
 74
0
 40
0
 40
0
 40
0
 40
0
 40
1
 40
1
 40
1
 40
1
 10
336.403498
 20
-238.333212
 30
0.0
 10
336.403427
 20
-239.161537
 30
0.0
 10
335.731954
 20
-239.833010
 30
0.0
 10
334.903628
 20
-239.833082
 30
0.0
  0
SPLINE
  5
16f
100
AcDbEntity
  8
3mm_Utility_bits_-_Cut
 62
7
100
AcDbSpline
 70
8
 71
3
 72
8
 73
4
 74
0
 40
0
 40
0
 40
0
 40
0
 40
1
 40
1
 40
1
 40
1
 10
334.903628
 20
-239.833082
 30
0.0
 10
334.075303
 20
-239.833010
 30
0.0
 10
333.403830
 20
-239.161537
 30
0.0
 10
333.403758
 20
-238.333212
 30
0.0
  0
SPLINE
  5
170
100
AcDbEntity
  8
3mm_Utility_bits_-_Cut
 62
7
100
AcDbSpline
 70
8
 71
3
 72
8
 73
4
 74
0
 40
0
 40
0
 40
0
 40
0
 40
1
 40
1
 40
1
 40
1
 10
333.403758
 20
-238.333212
 30
0.0
 10
333.403651
 20
-237.935339
 30
0.0
 10
333.561621
 20
-237.553724
 30
0.0
 10
333.842909
 20
-237.272335
 30
0.0
  0
SPLINE
  5
171
100
AcDbEntity
  8
3mm_Utility_bits_-_Cut
 62
7
100
AcDbSpline
 70
8
 71
3
 72
8
 73
4
 74
0
 40
0
 40
0
 40
0
 40
0
 40
1
 40
1
 40
1
 40
1
 10
333.842909
 20
-237.272335
 30
0.0
 10
334.124197
 20
-236.990946
 30
0.0
 10
334.505756
 20
-236.832840
 30
0.0
 10
334.903628
 20
-236.832806
 30
0.0
  0
LINE
  5
172
100
AcDbEntity
  8
3mm_Utility_bits_-_Cut
 62
7
100
AcDbLine
 10
334.903628
 20
-236.832806
 30
0.0
 11
334.903628
 21
-236.832806
 31
0.0
  0
SPLINE
  5
173
100
AcDbEntity
  8
3mm_Utility_bits_-_Cut
 62
7
100
AcDbSpline
 70
8
 71
3
 72
8
 73
4
 74
0
 40
0
 40
0
 40
0
 40
0
 40
1
 40
1
 40
1
 40
1
 10
324.903479
 20
-246.832955
 30
0.0
 10
325.301352
 20
-246.832847
 30
0.0
 10
325.682967
 20
-246.990817
 30
0.0
 10
325.964356
 20
-247.272105
 30
0.0
  0
SPLINE
  5
174
100
AcDbEntity
  8
3mm_Utility_bits_-_Cut
 62
7
100
AcDbSpline
 70
8
 71
3
 72
8
 73
4
 74
0
 40
0
 40
0
 40
0
 40
0
 40
1
 40
1
 40
1
 40
1
 10
325.964356
 20
-247.272105
 30
0.0
 10
326.245745
 20
-247.553393
 30
0.0
 10
326.403851
 20
-247.934952
 30
0.0
 10
326.403885
 20
-248.332825
 30
0.0
  0
SPLINE
  5
175
100
AcDbEntity
  8
3mm_Utility_bits_-_Cut
 62
7
100
AcDbSpline
 70
8
 71
3
 72
8
 73
4
 74
0
 40
0
 40
0
 40
0
 40
0
 40
1
 40
1
 40
1
 40
1
 10
326.403885
 20
-248.332825
 30
0.0
 10
326.403993
 20
-248.730790
 30
0.0
 10
326.245950
 20
-249.112487
 30
0.0
 10
325.964546
 20
-249.393891
 30
0.0
  0
SPLINE
  5
176
100
AcDbEntity
  8
3mm_Utility_bits_-_Cut
 62
7
100
AcDbSpline
 70
8
 71
3
 72
8
 73
4
 74
0
 40
0
 40
0
 40
0
 40
0
 40
1
 40
1
 40
1
 40
1
 10
325.964546
 20
-249.393891
 30
0.0
 10
325.683141
 20
-249.675295
 30
0.0
 10
325.301445
 20
-249.833339
 30
0.0
 10
324.903479
 20
-249.833231
 30
0.0
  0
SPLINE
  5
177
100
AcDbEntity
  8
3mm_Utility_bits_-_Cut
 62
7
100
AcDbSpline
 70
8
 71
3
 72
8
 73
4
 74
0
 40
0
 40
0
 40
0
 40
0
 40
1
 40
1
 40
1
 40
1
 10
324.903479
 20
-249.833231
 30
0.0
 10
324.505611
 20
-249.833189
 30
0.0
 10
324.124060
 20
-249.675080
 30
0.0
 10
323.842778
 20
-249.393692
 30
0.0
  0
SPLINE
  5
178
100
AcDbEntity
  8
3mm_Utility_bits_-_Cut
 62
7
100
AcDbSpline
 70
8
 71
3
 72
8
 73
4
 74
0
 40
0
 40
0
 40
0
 40
0
 40
1
 40
1
 40
1
 40
1
 10
323.842778
 20
-249.393692
 30
0.0
 10
323.561496
 20
-249.112304
 30
0.0
 10
323.403530
 20
-248.730693
 30
0.0
 10
323.403637
 20
-248.332825
 30
0.0
  0
SPLINE
  5
179
100
AcDbEntity
  8
3mm_Utility_bits_-_Cut
 62
7
100
AcDbSpline
 70
8
 71
3
 72
8
 73
4
 74
0
 40
0
 40
0
 40
0
 40
0
 40
1
 40
1
 40
1
 40
1
 10
323.403637
 20
-248.332825
 30
0.0
 10
323.403709
 20
-247.504510
 30
0.0
 10
324.075165
 20
-246.833042
 30
0.0
 10
324.903479
 20
-246.832955
 30
0.0
  0
LINE
  5
17a
100
AcDbEntity
  8
3mm_Utility_bits_-_Cut
 62
7
100
AcDbLine
 10
324.903479
 20
-246.832955
 30
0.0
 11
324.903479
 21
-246.832955
 31
0.0
  0
SPLINE
  5
17b
100
AcDbEntity
  8
3mm_Utility_bits_-_Cut
 62
7
100
AcDbSpline
 70
8
 71
3
 72
8
 73
4
 74
0
 40
0
 40
0
 40
0
 40
0
 40
1
 40
1
 40
1
 40
1
 10
356.080399
 20
-223.333016
 30
0.0
 10
347.796184
 20
-223.333204
 30
0.0
 10
341.080631
 20
-230.048997
 30
0.0
 10
341.080739
 20
-238.333212
 30
0.0
  0
SPLINE
  5
17c
100
AcDbEntity
  8
3mm_Utility_bits_-_Cut
 62
7
100
AcDbSpline
 70
8
 71
3
 72
8
 73
4
 74
0
 40
0
 40
0
 40
0
 40
0
 40
1
 40
1
 40
1
 40
1
 10
341.080739
 20
-238.333212
 30
0.0
 10
341.080911
 20
-246.617228
 30
0.0
 10
347.796382
 20
-253.332712
 30
0.0
 10
356.080399
 20
-253.332900
 30
0.0
  0
SPLINE
  5
17d
100
AcDbEntity
  8
3mm_Utility_bits_-_Cut
 62
7
100
AcDbSpline
 70
8
 71
3
 72
8
 73
4
 74
0
 40
0
 40
0
 40
0
 40
0
 40
1
 40
1
 40
1
 40
1
 10
356.080399
 20
-253.332900
 30
0.0
 10
364.364636
 20
-253.333023
 30
0.0
 10
371.080450
 20
-246.617449
 30
0.0
 10
371.080623
 20
-238.333212
 30
0.0
  0
SPLINE
  5
17e
100
AcDbEntity
  8
3mm_Utility_bits_-_Cut
 62
7
100
AcDbSpline
 70
8
 71
3
 72
8
 73
4
 74
0
 40
0
 40
0
 40
0
 40
0
 40
1
 40
1
 40
1
 40
1
 10
371.080623
 20
-238.333212
 30
0.0
 10
371.080675
 20
-234.354892
 30
0.0
 10
369.500314
 20
-230.539499
 30
0.0
 10
366.687215
 20
-227.726404
 30
0.0
  0
SPLINE
  5
17f
100
AcDbEntity
  8
3mm_Utility_bits_-_Cut
 62
7
100
AcDbSpline
 70
8
 71
3
 72
8
 73
4
 74
0
 40
0
 40
0
 40
0
 40
0
 40
1
 40
1
 40
1
 40
1
 10
366.687215
 20
-227.726404
 30
0.0
 10
363.874115
 20
-224.913310
 30
0.0
 10
360.058719
 20
-223.332956
 30
0.0
 10
356.080399
 20
-223.333016
 30
0.0
  0
LINE
  5
180
100
AcDbEntity
  8
3mm_Utility_bits_-_Cut
 62
7
100
AcDbLine
 10
356.080399
 20
-223.333016
 30
0.0
 11
356.080399
 21
-223.333016
 31
0.0
  0
SPLINE
  5
181
100
AcDbEntity
  8
3mm_Utility_bits_-_Cut
 62
7
100
AcDbSpline
 70
8
 71
3
 72
8
 73
4
 74
0
 40
0
 40
0
 40
0
 40
0
 40
1
 40
1
 40
1
 40
1
 10
356.080399
 20
-226.833221
 30
0.0
 10
356.478271
 20
-226.833113
 30
0.0
 10
356.859887
 20
-226.991083
 30
0.0
 10
357.141275
 20
-227.272371
 30
0.0
  0
SPLINE
  5
182
100
AcDbEntity
  8
3mm_Utility_bits_-_Cut
 62
7
100
AcDbSpline
 70
8
 71
3
 72
8
 73
4
 74
0
 40
0
 40
0
 40
0
 40
0
 40
1
 40
1
 40
1
 40
1
 10
357.141275
 20
-227.272371
 30
0.0
 10
357.422664
 20
-227.553659
 30
0.0
 10
357.580770
 20
-227.935218
 30
0.0
 10
357.580805
 20
-228.333091
 30
0.0
  0
SPLINE
  5
183
100
AcDbEntity
  8
3mm_Utility_bits_-_Cut
 62
7
100
AcDbSpline
 70
8
 71
3
 72
8
 73
4
 74
0
 40
0
 40
0
 40
0
 40
0
 40
1
 40
1
 40
1
 40
1
 10
357.580805
 20
-228.333091
 30
0.0
 10
357.580763
 20
-228.730958
 30
0.0
 10
357.422653
 20
-229.112510
 30
0.0
 10
357.141266
 20
-229.393792
 30
0.0
  0
SPLINE
  5
184
100
AcDbEntity
  8
3mm_Utility_bits_-_Cut
 62
7
100
AcDbSpline
 70
8
 71
3
 72
8
 73
4
 74
0
 40
0
 40
0
 40
0
 40
0
 40
1
 40
1
 40
1
 40
1
 10
357.141266
 20
-229.393792
 30
0.0
 10
356.859878
 20
-229.675074
 30
0.0
 10
356.478266
 20
-229.833040
 30
0.0
 10
356.080399
 20
-229.832932
 30
0.0
  0
SPLINE
  5
185
100
AcDbEntity
  8
3mm_Utility_bits_-_Cut
 62
7
100
AcDbSpline
 70
8
 71
3
 72
8
 73
4
 74
0
 40
0
 40
0
 40
0
 40
0
 40
1
 40
1
 40
1
 40
1
 10
356.080399
 20
-229.832932
 30
0.0
 10
355.252095
 20
-229.832845
 30
0.0
 10
354.580644
 20
-229.161394
 30
0.0
 10
354.580557
 20
-228.333091
 30
0.0
  0
SPLINE
  5
186
100
AcDbEntity
  8
3mm_Utility_bits_-_Cut
 62
7
100
AcDbSpline
 70
8
 71
3
 72
8
 73
4
 74
0
 40
0
 40
0
 40
0
 40
0
 40
1
 40
1
 40
1
 40
1
 10
354.580557
 20
-228.333091
 30
0.0
 10
354.580629
 20
-227.504776
 30
0.0
 10
355.252084
 20
-226.833308
 30
0.0
 10
356.080399
 20
-226.833221
 30
0.0
  0
LINE
  5
187
100
AcDbEntity
  8
3mm_Utility_bits_-_Cut
 62
7
100
AcDbLine
 10
356.080399
 20
-226.833221
 30
0.0
 11
356.080399
 21
-226.833221
 31
0.0
  0
LINE
  5
188
100
AcDbEntity
  8
3mm_Utility_bits_-_Cut
 62
7
100
AcDbLine
 10
352.080774
 20
-234.333050
 30
0.0
 11
360.080560
 21
-234.333050
 31
0.0
  0
LINE
  5
189
100
AcDbEntity
  8
3mm_Utility_bits_-_Cut
 62
7
100
AcDbLine
 10
360.080560
 20
-234.333050
 30
0.0
 11
360.080560
 21
-242.332837
 31
0.0
  0
LINE
  5
18a
100
AcDbEntity
  8
3mm_Utility_bits_-_Cut
 62
7
100
AcDbLine
 10
360.080560
 20
-242.332837
 30
0.0
 11
352.080774
 21
-242.332837
 31
0.0
  0
LINE
  5
18b
100
AcDbEntity
  8
3mm_Utility_bits_-_Cut
 62
7
100
AcDbLine
 10
352.080774
 20
-242.332837
 30
0.0
 11
352.080774
 21
-234.333050
 31
0.0
  0
LINE
  5
18c
100
AcDbEntity
  8
3mm_Utility_bits_-_Cut
 62
7
100
AcDbLine
 10
352.080774
 20
-234.333050
 30
0.0
 11
352.080774
 21
-234.333050
 31
0.0
  0
SPLINE
  5
18d
100
AcDbEntity
  8
3mm_Utility_bits_-_Cut
 62
7
100
AcDbSpline
 70
8
 71
3
 72
8
 73
4
 74
0
 40
0
 40
0
 40
0
 40
0
 40
1
 40
1
 40
1
 40
1
 10
346.080814
 20
-236.832806
 30
0.0
 10
346.478681
 20
-236.832847
 30
0.0
 10
346.860233
 20
-236.990957
 30
0.0
 10
347.141515
 20
-237.272345
 30
0.0
  0
SPLINE
  5
18e
100
AcDbEntity
  8
3mm_Utility_bits_-_Cut
 62
7
100
AcDbSpline
 70
8
 71
3
 72
8
 73
4
 74
0
 40
0
 40
0
 40
0
 40
0
 40
1
 40
1
 40
1
 40
1
 10
347.141515
 20
-237.272345
 30
0.0
 10
347.422797
 20
-237.553733
 30
0.0
 10
347.580763
 20
-237.935344
 30
0.0
 10
347.580656
 20
-238.333212
 30
0.0
  0
SPLINE
  5
18f
100
AcDbEntity
  8
3mm_Utility_bits_-_Cut
 62
7
100
AcDbSpline
 70
8
 71
3
 72
8
 73
4
 74
0
 40
0
 40
0
 40
0
 40
0
 40
1
 40
1
 40
1
 40
1
 10
347.580656
 20
-238.333212
 30
0.0
 10
347.580584
 20
-239.161526
 30
0.0
 10
346.909128
 20
-239.832994
 30
0.0
 10
346.080814
 20
-239.833082
 30
0.0
  0
SPLINE
  5
190
100
AcDbEntity
  8
3mm_Utility_bits_-_Cut
 62
7
100
AcDbSpline
 70
8
 71
3
 72
8
 73
4
 74
0
 40
0
 40
0
 40
0
 40
0
 40
1
 40
1
 40
1
 40
1
 10
346.080814
 20
-239.833082
 30
0.0
 10
345.682941
 20
-239.833190
 30
0.0
 10
345.301326
 20
-239.675220
 30
0.0
 10
345.019937
 20
-239.393932
 30
0.0
  0
SPLINE
  5
191
100
AcDbEntity
  8
3mm_Utility_bits_-_Cut
 62
7
100
AcDbSpline
 70
8
 71
3
 72
8
 73
4
 74
0
 40
0
 40
0
 40
0
 40
0
 40
1
 40
1
 40
1
 40
1
 10
345.019937
 20
-239.393932
 30
0.0
 10
344.738548
 20
-239.112643
 30
0.0
 10
344.580442
 20
-238.731084
 30
0.0
 10
344.580408
 20
-238.333212
 30
0.0
  0
SPLINE
  5
192
100
AcDbEntity
  8
3mm_Utility_bits_-_Cut
 62
7
100
AcDbSpline
 70
8
 71
3
 72
8
 73
4
 74
0
 40
0
 40
0
 40
0
 40
0
 40
1
 40
1
 40
1
 40
1
 10
344.580408
 20
-238.333212
 30
0.0
 10
344.580300
 20
-237.935246
 30
0.0
 10
344.738343
 20
-237.553549
 30
0.0
 10
345.019747
 20
-237.272145
 30
0.0
  0
SPLINE
  5
193
100
AcDbEntity
  8
3mm_Utility_bits_-_Cut
 62
7
100
AcDbSpline
 70
8
 71
3
 72
8
 73
4
 74
0
 40
0
 40
0
 40
0
 40
0
 40
1
 40
1
 40
1
 40
1
 10
345.019747
 20
-237.272145
 30
0.0
 10
345.301151
 20
-236.990741
 30
0.0
 10
345.682848
 20
-236.832698
 30
0.0
 10
346.080814
 20
-236.832806
 30
0.0
  0
LINE
  5
194
100
AcDbEntity
  8
3mm_Utility_bits_-_Cut
 62
7
100
AcDbLine
 10
346.080814
 20
-236.832806
 30
0.0
 11
346.080814
 21
-236.832806
 31
0.0
  0
SPLINE
  5
195
100
AcDbEntity
  8
3mm_Utility_bits_-_Cut
 62
7
100
AcDbSpline
 70
8
 71
3
 72
8
 73
4
 74
0
 40
0
 40
0
 40
0
 40
0
 40
1
 40
1
 40
1
 40
1
 10
366.080548
 20
-236.832806
 30
0.0
 10
366.478421
 20
-236.832840
 30
0.0
 10
366.859980
 20
-236.990946
 30
0.0
 10
367.141268
 20
-237.272335
 30
0.0
  0
SPLINE
  5
196
100
AcDbEntity
  8
3mm_Utility_bits_-_Cut
 62
7
100
AcDbSpline
 70
8
 71
3
 72
8
 73
4
 74
0
 40
0
 40
0
 40
0
 40
0
 40
1
 40
1
 40
1
 40
1
 10
367.141268
 20
-237.272335
 30
0.0
 10
367.422556
 20
-237.553724
 30
0.0
 10
367.580526
 20
-237.935339
 30
0.0
 10
367.580418
 20
-238.333212
 30
0.0
  0
SPLINE
  5
197
100
AcDbEntity
  8
3mm_Utility_bits_-_Cut
 62
7
100
AcDbSpline
 70
8
 71
3
 72
8
 73
4
 74
0
 40
0
 40
0
 40
0
 40
0
 40
1
 40
1
 40
1
 40
1
 10
367.580418
 20
-238.333212
 30
0.0
 10
367.580346
 20
-239.161537
 30
0.0
 10
366.908874
 20
-239.833010
 30
0.0
 10
366.080548
 20
-239.833082
 30
0.0
  0
SPLINE
  5
198
100
AcDbEntity
  8
3mm_Utility_bits_-_Cut
 62
7
100
AcDbSpline
 70
8
 71
3
 72
8
 73
4
 74
0
 40
0
 40
0
 40
0
 40
0
 40
1
 40
1
 40
1
 40
1
 10
366.080548
 20
-239.833082
 30
0.0
 10
365.252222
 20
-239.833010
 30
0.0
 10
364.580750
 20
-239.161537
 30
0.0
 10
364.580678
 20
-238.333212
 30
0.0
  0
SPLINE
  5
199
100
AcDbEntity
  8
3mm_Utility_bits_-_Cut
 62
7
100
AcDbSpline
 70
8
 71
3
 72
8
 73
4
 74
0
 40
0
 40
0
 40
0
 40
0
 40
1
 40
1
 40
1
 40
1
 10
364.580678
 20
-238.333212
 30
0.0
 10
364.580570
 20
-237.935339
 30
0.0
 10
364.738540
 20
-237.553724
 30
0.0
 10
365.019828
 20
-237.272335
 30
0.0
  0
SPLINE
  5
19a
100
AcDbEntity
  8
3mm_Utility_bits_-_Cut
 62
7
100
AcDbSpline
 70
8
 71
3
 72
8
 73
4
 74
0
 40
0
 40
0
 40
0
 40
0
 40
1
 40
1
 40
1
 40
1
 10
365.019828
 20
-237.272335
 30
0.0
 10
365.301116
 20
-236.990946
 30
0.0
 10
365.682675
 20
-236.832840
 30
0.0
 10
366.080548
 20
-236.832806
 30
0.0
  0
LINE
  5
19b
100
AcDbEntity
  8
3mm_Utility_bits_-_Cut
 62
7
100
AcDbLine
 10
366.080548
 20
-236.832806
 30
0.0
 11
366.080548
 21
-236.832806
 31
0.0
  0
SPLINE
  5
19c
100
AcDbEntity
  8
3mm_Utility_bits_-_Cut
 62
7
100
AcDbSpline
 70
8
 71
3
 72
8
 73
4
 74
0
 40
0
 40
0
 40
0
 40
0
 40
1
 40
1
 40
1
 40
1
 10
356.080399
 20
-246.832955
 30
0.0
 10
356.478271
 20
-246.832847
 30
0.0
 10
356.859887
 20
-246.990817
 30
0.0
 10
357.141275
 20
-247.272105
 30
0.0
  0
SPLINE
  5
19d
100
AcDbEntity
  8
3mm_Utility_bits_-_Cut
 62
7
100
AcDbSpline
 70
8
 71
3
 72
8
 73
4
 74
0
 40
0
 40
0
 40
0
 40
0
 40
1
 40
1
 40
1
 40
1
 10
357.141275
 20
-247.272105
 30
0.0
 10
357.422664
 20
-247.553393
 30
0.0
 10
357.580770
 20
-247.934952
 30
0.0
 10
357.580805
 20
-248.332825
 30
0.0
  0
SPLINE
  5
19e
100
AcDbEntity
  8
3mm_Utility_bits_-_Cut
 62
7
100
AcDbSpline
 70
8
 71
3
 72
8
 73
4
 74
0
 40
0
 40
0
 40
0
 40
0
 40
1
 40
1
 40
1
 40
1
 10
357.580805
 20
-248.332825
 30
0.0
 10
357.580913
 20
-248.730790
 30
0.0
 10
357.422869
 20
-249.112487
 30
0.0
 10
357.141465
 20
-249.393891
 30
0.0
  0
SPLINE
  5
19f
100
AcDbEntity
  8
3mm_Utility_bits_-_Cut
 62
7
100
AcDbSpline
 70
8
 71
3
 72
8
 73
4
 74
0
 40
0
 40
0
 40
0
 40
0
 40
1
 40
1
 40
1
 40
1
 10
357.141465
 20
-249.393891
 30
0.0
 10
356.860061
 20
-249.675295
 30
0.0
 10
356.478364
 20
-249.833339
 30
0.0
 10
356.080399
 20
-249.833231
 30
0.0
  0
SPLINE
  5
1a0
100
AcDbEntity
  8
3mm_Utility_bits_-_Cut
 62
7
100
AcDbSpline
 70
8
 71
3
 72
8
 73
4
 74
0
 40
0
 40
0
 40
0
 40
0
 40
1
 40
1
 40
1
 40
1
 10
356.080399
 20
-249.833231
 30
0.0
 10
355.682531
 20
-249.833189
 30
0.0
 10
355.300979
 20
-249.675080
 30
0.0
 10
355.019697
 20
-249.393692
 30
0.0
  0
SPLINE
  5
1a1
100
AcDbEntity
  8
3mm_Utility_bits_-_Cut
 62
7
100
AcDbSpline
 70
8
 71
3
 72
8
 73
4
 74
0
 40
0
 40
0
 40
0
 40
0
 40
1
 40
1
 40
1
 40
1
 10
355.019697
 20
-249.393692
 30
0.0
 10
354.738415
 20
-249.112304
 30
0.0
 10
354.580449
 20
-248.730693
 30
0.0
 10
354.580557
 20
-248.332825
 30
0.0
  0
SPLINE
  5
1a2
100
AcDbEntity
  8
3mm_Utility_bits_-_Cut
 62
7
100
AcDbSpline
 70
8
 71
3
 72
8
 73
4
 74
0
 40
0
 40
0
 40
0
 40
0
 40
1
 40
1
 40
1
 40
1
 10
354.580557
 20
-248.332825
 30
0.0
 10
354.580629
 20
-247.504510
 30
0.0
 10
355.252084
 20
-246.833042
 30
0.0
 10
356.080399
 20
-246.832955
 30
0.0
  0
LINE
  5
1a3
100
AcDbEntity
  8
3mm_Utility_bits_-_Cut
 62
7
100
AcDbLine
 10
356.080399
 20
-246.832955
 30
0.0
 11
356.080399
 21
-246.832955
 31
0.0
  0
SPLINE
  5
1a4
100
AcDbEntity
  8
3mm_Utility_bits_-_Cut
 62
7
100
AcDbSpline
 70
8
 71
3
 72
8
 73
4
 74
0
 40
0
 40
0
 40
0
 40
0
 40
1
 40
1
 40
1
 40
1
 10
340.491939
 20
-250.333018
 30
0.0
 10
332.207724
 20
-250.333206
 30
0.0
 10
325.492171
 20
-257.048999
 30
0.0
 10
325.492279
 20
-265.333214
 30
0.0
  0
SPLINE
  5
1a5
100
AcDbEntity
  8
3mm_Utility_bits_-_Cut
 62
7
100
AcDbSpline
 70
8
 71
3
 72
8
 73
4
 74
0
 40
0
 40
0
 40
0
 40
0
 40
1
 40
1
 40
1
 40
1
 10
325.492279
 20
-265.333214
 30
0.0
 10
325.492452
 20
-273.617231
 30
0.0
 10
332.207922
 20
-280.332714
 30
0.0
 10
340.491939
 20
-280.332902
 30
0.0
  0
SPLINE
  5
1a6
100
AcDbEntity
  8
3mm_Utility_bits_-_Cut
 62
7
100
AcDbSpline
 70
8
 71
3
 72
8
 73
4
 74
0
 40
0
 40
0
 40
0
 40
0
 40
1
 40
1
 40
1
 40
1
 10
340.491939
 20
-280.332902
 30
0.0
 10
348.776176
 20
-280.333026
 30
0.0
 10
355.491991
 20
-273.617451
 30
0.0
 10
355.492163
 20
-265.333214
 30
0.0
  0
SPLINE
  5
1a7
100
AcDbEntity
  8
3mm_Utility_bits_-_Cut
 62
7
100
AcDbSpline
 70
8
 71
3
 72
8
 73
4
 74
0
 40
0
 40
0
 40
0
 40
0
 40
1
 40
1
 40
1
 40
1
 10
355.492163
 20
-265.333214
 30
0.0
 10
355.492215
 20
-261.354894
 30
0.0
 10
353.911855
 20
-257.539501
 30
0.0
 10
351.098755
 20
-254.726407
 30
0.0
  0
SPLINE
  5
1a8
100
AcDbEntity
  8
3mm_Utility_bits_-_Cut
 62
7
100
AcDbSpline
 70
8
 71
3
 72
8
 73
4
 74
0
 40
0
 40
0
 40
0
 40
0
 40
1
 40
1
 40
1
 40
1
 10
351.098755
 20
-254.726407
 30
0.0
 10
348.285655
 20
-251.913312
 30
0.0
 10
344.470259
 20
-250.332959
 30
0.0
 10
340.491939
 20
-250.333018
 30
0.0
  0
LINE
  5
1a9
100
AcDbEntity
  8
3mm_Utility_bits_-_Cut
 62
7
100
AcDbLine
 10
340.491939
 20
-250.333018
 30
0.0
 11
340.491939
 21
-250.333018
 31
0.0
  0
SPLINE
  5
1aa
100
AcDbEntity
  8
3mm_Utility_bits_-_Cut
 62
7
100
AcDbSpline
 70
8
 71
3
 72
8
 73
4
 74
0
 40
0
 40
0
 40
0
 40
0
 40
1
 40
1
 40
1
 40
1
 10
340.491939
 20
-253.833223
 30
0.0
 10
340.889811
 20
-253.833115
 30
0.0
 10
341.271427
 20
-253.991085
 30
0.0
 10
341.552816
 20
-254.272373
 30
0.0
  0
SPLINE
  5
1ab
100
AcDbEntity
  8
3mm_Utility_bits_-_Cut
 62
7
100
AcDbSpline
 70
8
 71
3
 72
8
 73
4
 74
0
 40
0
 40
0
 40
0
 40
0
 40
1
 40
1
 40
1
 40
1
 10
341.552816
 20
-254.272373
 30
0.0
 10
341.834204
 20
-254.553661
 30
0.0
 10
341.992311
 20
-254.935220
 30
0.0
 10
341.992345
 20
-255.333093
 30
0.0
  0
SPLINE
  5
1ac
100
AcDbEntity
  8
3mm_Utility_bits_-_Cut
 62
7
100
AcDbSpline
 70
8
 71
3
 72
8
 73
4
 74
0
 40
0
 40
0
 40
0
 40
0
 40
1
 40
1
 40
1
 40
1
 10
341.992345
 20
-255.333093
 30
0.0
 10
341.992303
 20
-255.730961
 30
0.0
 10
341.834194
 20
-256.112513
 30
0.0
 10
341.552806
 20
-256.393795
 30
0.0
  0
SPLINE
  5
1ad
100
AcDbEntity
  8
3mm_Utility_bits_-_Cut
 62
7
100
AcDbSpline
 70
8
 71
3
 72
8
 73
4
 74
0
 40
0
 40
0
 40
0
 40
0
 40
1
 40
1
 40
1
 40
1
 10
341.552806
 20
-256.393795
 30
0.0
 10
341.271418
 20
-256.675077
 30
0.0
 10
340.889807
 20
-256.833043
 30
0.0
 10
340.491939
 20
-256.832935
 30
0.0
  0
SPLINE
  5
1ae
100
AcDbEntity
  8
3mm_Utility_bits_-_Cut
 62
7
100
AcDbSpline
 70
8
 71
3
 72
8
 73
4
 74
0
 40
0
 40
0
 40
0
 40
0
 40
1
 40
1
 40
1
 40
1
 10
340.491939
 20
-256.832935
 30
0.0
 10
339.663635
 20
-256.832848
 30
0.0
 10
338.992184
 20
-256.161397
 30
0.0
 10
338.992097
 20
-255.333093
 30
0.0
  0
SPLINE
  5
1af
100
AcDbEntity
  8
3mm_Utility_bits_-_Cut
 62
7
100
AcDbSpline
 70
8
 71
3
 72
8
 73
4
 74
0
 40
0
 40
0
 40
0
 40
0
 40
1
 40
1
 40
1
 40
1
 10
338.992097
 20
-255.333093
 30
0.0
 10
338.992169
 20
-254.504779
 30
0.0
 10
339.663624
 20
-253.833310
 30
0.0
 10
340.491939
 20
-253.833223
 30
0.0
  0
LINE
  5
1b0
100
AcDbEntity
  8
3mm_Utility_bits_-_Cut
 62
7
100
AcDbLine
 10
340.491939
 20
-253.833223
 30
0.0
 11
340.491939
 21
-253.833223
 31
0.0
  0
LINE
  5
1b1
100
AcDbEntity
  8
3mm_Utility_bits_-_Cut
 62
7
100
AcDbLine
 10
336.492314
 20
-261.333053
 30
0.0
 11
344.492100
 21
-261.333053
 31
0.0
  0
LINE
  5
1b2
100
AcDbEntity
  8
3mm_Utility_bits_-_Cut
 62
7
100
AcDbLine
 10
344.492100
 20
-261.333053
 30
0.0
 11
344.492100
 21
-269.332839
 31
0.0
  0
LINE
  5
1b3
100
AcDbEntity
  8
3mm_Utility_bits_-_Cut
 62
7
100
AcDbLine
 10
344.492100
 20
-269.332839
 30
0.0
 11
336.492314
 21
-269.332839
 31
0.0
  0
LINE
  5
1b4
100
AcDbEntity
  8
3mm_Utility_bits_-_Cut
 62
7
100
AcDbLine
 10
336.492314
 20
-269.332839
 30
0.0
 11
336.492314
 21
-261.333053
 31
0.0
  0
LINE
  5
1b5
100
AcDbEntity
  8
3mm_Utility_bits_-_Cut
 62
7
100
AcDbLine
 10
336.492314
 20
-261.333053
 30
0.0
 11
336.492314
 21
-261.333053
 31
0.0
  0
SPLINE
  5
1b6
100
AcDbEntity
  8
3mm_Utility_bits_-_Cut
 62
7
100
AcDbSpline
 70
8
 71
3
 72
8
 73
4
 74
0
 40
0
 40
0
 40
0
 40
0
 40
1
 40
1
 40
1
 40
1
 10
330.492354
 20
-263.832808
 30
0.0
 10
330.890222
 20
-263.832850
 30
0.0
 10
331.271774
 20
-263.990959
 30
0.0
 10
331.553056
 20
-264.272347
 30
0.0
  0
SPLINE
  5
1b7
100
AcDbEntity
  8
3mm_Utility_bits_-_Cut
 62
7
100
AcDbSpline
 70
8
 71
3
 72
8
 73
4
 74
0
 40
0
 40
0
 40
0
 40
0
 40
1
 40
1
 40
1
 40
1
 10
331.553056
 20
-264.272347
 30
0.0
 10
331.834338
 20
-264.553735
 30
0.0
 10
331.992304
 20
-264.935347
 30
0.0
 10
331.992196
 20
-265.333214
 30
0.0
  0
SPLINE
  5
1b8
100
AcDbEntity
  8
3mm_Utility_bits_-_Cut
 62
7
100
AcDbSpline
 70
8
 71
3
 72
8
 73
4
 74
0
 40
0
 40
0
 40
0
 40
0
 40
1
 40
1
 40
1
 40
1
 10
331.992196
 20
-265.333214
 30
0.0
 10
331.992124
 20
-266.161529
 30
0.0
 10
331.320669
 20
-266.832997
 30
0.0
 10
330.492354
 20
-266.833084
 30
0.0
  0
SPLINE
  5
1b9
100
AcDbEntity
  8
3mm_Utility_bits_-_Cut
 62
7
100
AcDbSpline
 70
8
 71
3
 72
8
 73
4
 74
0
 40
0
 40
0
 40
0
 40
0
 40
1
 40
1
 40
1
 40
1
 10
330.492354
 20
-266.833084
 30
0.0
 10
330.094481
 20
-266.833192
 30
0.0
 10
329.712866
 20
-266.675222
 30
0.0
 10
329.431477
 20
-266.393934
 30
0.0
  0
SPLINE
  5
1ba
100
AcDbEntity
  8
3mm_Utility_bits_-_Cut
 62
7
100
AcDbSpline
 70
8
 71
3
 72
8
 73
4
 74
0
 40
0
 40
0
 40
0
 40
0
 40
1
 40
1
 40
1
 40
1
 10
329.431477
 20
-266.393934
 30
0.0
 10
329.150088
 20
-266.112646
 30
0.0
 10
328.991982
 20
-265.731087
 30
0.0
 10
328.991948
 20
-265.333214
 30
0.0
  0
SPLINE
  5
1bb
100
AcDbEntity
  8
3mm_Utility_bits_-_Cut
 62
7
100
AcDbSpline
 70
8
 71
3
 72
8
 73
4
 74
0
 40
0
 40
0
 40
0
 40
0
 40
1
 40
1
 40
1
 40
1
 10
328.991948
 20
-265.333214
 30
0.0
 10
328.991840
 20
-264.935249
 30
0.0
 10
329.149883
 20
-264.553552
 30
0.0
 10
329.431288
 20
-264.272148
 30
0.0
  0
SPLINE
  5
1bc
100
AcDbEntity
  8
3mm_Utility_bits_-_Cut
 62
7
100
AcDbSpline
 70
8
 71
3
 72
8
 73
4
 74
0
 40
0
 40
0
 40
0
 40
0
 40
1
 40
1
 40
1
 40
1
 10
329.431288
 20
-264.272148
 30
0.0
 10
329.712692
 20
-263.990744
 30
0.0
 10
330.094388
 20
-263.832700
 30
0.0
 10
330.492354
 20
-263.832808
 30
0.0
  0
LINE
  5
1bd
100
AcDbEntity
  8
3mm_Utility_bits_-_Cut
 62
7
100
AcDbLine
 10
330.492354
 20
-263.832808
 30
0.0
 11
330.492354
 21
-263.832808
 31
0.0
  0
SPLINE
  5
1be
100
AcDbEntity
  8
3mm_Utility_bits_-_Cut
 62
7
100
AcDbSpline
 70
8
 71
3
 72
8
 73
4
 74
0
 40
0
 40
0
 40
0
 40
0
 40
1
 40
1
 40
1
 40
1
 10
350.492088
 20
-263.832808
 30
0.0
 10
350.889961
 20
-263.832842
 30
0.0
 10
351.271520
 20
-263.990949
 30
0.0
 10
351.552808
 20
-264.272337
 30
0.0
  0
SPLINE
  5
1bf
100
AcDbEntity
  8
3mm_Utility_bits_-_Cut
 62
7
100
AcDbSpline
 70
8
 71
3
 72
8
 73
4
 74
0
 40
0
 40
0
 40
0
 40
0
 40
1
 40
1
 40
1
 40
1
 10
351.552808
 20
-264.272337
 30
0.0
 10
351.834096
 20
-264.553726
 30
0.0
 10
351.992066
 20
-264.935342
 30
0.0
 10
351.991958
 20
-265.333214
 30
0.0
  0
SPLINE
  5
1c0
100
AcDbEntity
  8
3mm_Utility_bits_-_Cut
 62
7
100
AcDbSpline
 70
8
 71
3
 72
8
 73
4
 74
0
 40
0
 40
0
 40
0
 40
0
 40
1
 40
1
 40
1
 40
1
 10
351.991958
 20
-265.333214
 30
0.0
 10
351.991886
 20
-266.161540
 30
0.0
 10
351.320414
 20
-266.833012
 30
0.0
 10
350.492088
 20
-266.833084
 30
0.0
  0
SPLINE
  5
1c1
100
AcDbEntity
  8
3mm_Utility_bits_-_Cut
 62
7
100
AcDbSpline
 70
8
 71
3
 72
8
 73
4
 74
0
 40
0
 40
0
 40
0
 40
0
 40
1
 40
1
 40
1
 40
1
 10
350.492088
 20
-266.833084
 30
0.0
 10
349.663763
 20
-266.833012
 30
0.0
 10
348.992290
 20
-266.161540
 30
0.0
 10
348.992218
 20
-265.333214
 30
0.0
  0
SPLINE
  5
1c2
100
AcDbEntity
  8
3mm_Utility_bits_-_Cut
 62
7
100
AcDbSpline
 70
8
 71
3
 72
8
 73
4
 74
0
 40
0
 40
0
 40
0
 40
0
 40
1
 40
1
 40
1
 40
1
 10
348.992218
 20
-265.333214
 30
0.0
 10
348.992110
 20
-264.935342
 30
0.0
 10
349.150080
 20
-264.553726
 30
0.0
 10
349.431368
 20
-264.272337
 30
0.0
  0
SPLINE
  5
1c3
100
AcDbEntity
  8
3mm_Utility_bits_-_Cut
 62
7
100
AcDbSpline
 70
8
 71
3
 72
8
 73
4
 74
0
 40
0
 40
0
 40
0
 40
0
 40
1
 40
1
 40
1
 40
1
 10
349.431368
 20
-264.272337
 30
0.0
 10
349.712657
 20
-263.990949
 30
0.0
 10
350.094216
 20
-263.832842
 30
0.0
 10
350.492088
 20
-263.832808
 30
0.0
  0
LINE
  5
1c4
100
AcDbEntity
  8
3mm_Utility_bits_-_Cut
 62
7
100
AcDbLine
 10
350.492088
 20
-263.832808
 30
0.0
 11
350.492088
 21
-263.832808
 31
0.0
  0
SPLINE
  5
1c5
100
AcDbEntity
  8
3mm_Utility_bits_-_Cut
 62
7
100
AcDbSpline
 70
8
 71
3
 72
8
 73
4
 74
0
 40
0
 40
0
 40
0
 40
0
 40
1
 40
1
 40
1
 40
1
 10
340.491939
 20
-273.832957
 30
0.0
 10
340.889811
 20
-273.832850
 30
0.0
 10
341.271427
 20
-273.990819
 30
0.0
 10
341.552816
 20
-274.272108
 30
0.0
  0
SPLINE
  5
1c6
100
AcDbEntity
  8
3mm_Utility_bits_-_Cut
 62
7
100
AcDbSpline
 70
8
 71
3
 72
8
 73
4
 74
0
 40
0
 40
0
 40
0
 40
0
 40
1
 40
1
 40
1
 40
1
 10
341.552816
 20
-274.272108
 30
0.0
 10
341.834204
 20
-274.553396
 30
0.0
 10
341.992311
 20
-274.934955
 30
0.0
 10
341.992345
 20
-275.332827
 30
0.0
  0
SPLINE
  5
1c7
100
AcDbEntity
  8
3mm_Utility_bits_-_Cut
 62
7
100
AcDbSpline
 70
8
 71
3
 72
8
 73
4
 74
0
 40
0
 40
0
 40
0
 40
0
 40
1
 40
1
 40
1
 40
1
 10
341.992345
 20
-275.332827
 30
0.0
 10
341.992453
 20
-275.730793
 30
0.0
 10
341.834409
 20
-276.112490
 30
0.0
 10
341.553005
 20
-276.393894
 30
0.0
  0
SPLINE
  5
1c8
100
AcDbEntity
  8
3mm_Utility_bits_-_Cut
 62
7
100
AcDbSpline
 70
8
 71
3
 72
8
 73
4
 74
0
 40
0
 40
0
 40
0
 40
0
 40
1
 40
1
 40
1
 40
1
 10
341.553005
 20
-276.393894
 30
0.0
 10
341.271601
 20
-276.675298
 30
0.0
 10
340.889904
 20
-276.833341
 30
0.0
 10
340.491939
 20
-276.833234
 30
0.0
  0
SPLINE
  5
1c9
100
AcDbEntity
  8
3mm_Utility_bits_-_Cut
 62
7
100
AcDbSpline
 70
8
 71
3
 72
8
 73
4
 74
0
 40
0
 40
0
 40
0
 40
0
 40
1
 40
1
 40
1
 40
1
 10
340.491939
 20
-276.833234
 30
0.0
 10
340.094071
 20
-276.833192
 30
0.0
 10
339.712519
 20
-276.675082
 30
0.0
 10
339.431237
 20
-276.393694
 30
0.0
  0
SPLINE
  5
1ca
100
AcDbEntity
  8
3mm_Utility_bits_-_Cut
 62
7
100
AcDbSpline
 70
8
 71
3
 72
8
 73
4
 74
0
 40
0
 40
0
 40
0
 40
0
 40
1
 40
1
 40
1
 40
1
 10
339.431237
 20
-276.393694
 30
0.0
 10
339.149955
 20
-276.112306
 30
0.0
 10
338.991989
 20
-275.730695
 30
0.0
 10
338.992097
 20
-275.332827
 30
0.0
  0
SPLINE
  5
1cb
100
AcDbEntity
  8
3mm_Utility_bits_-_Cut
 62
7
100
AcDbSpline
 70
8
 71
3
 72
8
 73
4
 74
0
 40
0
 40
0
 40
0
 40
0
 40
1
 40
1
 40
1
 40
1
 10
338.992097
 20
-275.332827
 30
0.0
 10
338.992169
 20
-274.504513
 30
0.0
 10
339.663624
 20
-273.833045
 30
0.0
 10
340.491939
 20
-273.832957
 30
0.0
  0
LINE
  5
1cc
100
AcDbEntity
  8
3mm_Utility_bits_-_Cut
 62
7
100
AcDbLine
 10
340.491939
 20
-273.832957
 30
0.0
 11
340.491939
 21
-273.832957
 31
0.0
  0
SPLINE
  5
1cd
100
AcDbEntity
  8
3mm_Utility_bits_-_Cut
 62
7
100
AcDbSpline
 70
8
 71
3
 72
8
 73
4
 74
0
 40
0
 40
0
 40
0
 40
0
 40
1
 40
1
 40
1
 40
1
 10
309.315019
 20
-250.333018
 30
0.0
 10
301.030804
 20
-250.333206
 30
0.0
 10
294.315251
 20
-257.048999
 30
0.0
 10
294.315360
 20
-265.333214
 30
0.0
  0
SPLINE
  5
1ce
100
AcDbEntity
  8
3mm_Utility_bits_-_Cut
 62
7
100
AcDbSpline
 70
8
 71
3
 72
8
 73
4
 74
0
 40
0
 40
0
 40
0
 40
0
 40
1
 40
1
 40
1
 40
1
 10
294.315360
 20
-265.333214
 30
0.0
 10
294.315532
 20
-273.617231
 30
0.0
 10
301.031003
 20
-280.332714
 30
0.0
 10
309.315019
 20
-280.332902
 30
0.0
  0
SPLINE
  5
1cf
100
AcDbEntity
  8
3mm_Utility_bits_-_Cut
 62
7
100
AcDbSpline
 70
8
 71
3
 72
8
 73
4
 74
0
 40
0
 40
0
 40
0
 40
0
 40
1
 40
1
 40
1
 40
1
 10
309.315019
 20
-280.332902
 30
0.0
 10
317.599256
 20
-280.333026
 30
0.0
 10
324.315071
 20
-273.617451
 30
0.0
 10
324.315243
 20
-265.333214
 30
0.0
  0
SPLINE
  5
1d0
100
AcDbEntity
  8
3mm_Utility_bits_-_Cut
 62
7
100
AcDbSpline
 70
8
 71
3
 72
8
 73
4
 74
0
 40
0
 40
0
 40
0
 40
0
 40
1
 40
1
 40
1
 40
1
 10
324.315243
 20
-265.333214
 30
0.0
 10
324.315295
 20
-261.354894
 30
0.0
 10
322.734935
 20
-257.539501
 30
0.0
 10
319.921835
 20
-254.726407
 30
0.0
  0
SPLINE
  5
1d1
100
AcDbEntity
  8
3mm_Utility_bits_-_Cut
 62
7
100
AcDbSpline
 70
8
 71
3
 72
8
 73
4
 74
0
 40
0
 40
0
 40
0
 40
0
 40
1
 40
1
 40
1
 40
1
 10
319.921835
 20
-254.726407
 30
0.0
 10
317.108735
 20
-251.913312
 30
0.0
 10
313.293339
 20
-250.332959
 30
0.0
 10
309.315019
 20
-250.333018
 30
0.0
  0
LINE
  5
1d2
100
AcDbEntity
  8
3mm_Utility_bits_-_Cut
 62
7
100
AcDbLine
 10
309.315019
 20
-250.333018
 30
0.0
 11
309.315019
 21
-250.333018
 31
0.0
  0
SPLINE
  5
1d3
100
AcDbEntity
  8
3mm_Utility_bits_-_Cut
 62
7
100
AcDbSpline
 70
8
 71
3
 72
8
 73
4
 74
0
 40
0
 40
0
 40
0
 40
0
 40
1
 40
1
 40
1
 40
1
 10
309.315019
 20
-253.833223
 30
0.0
 10
309.712892
 20
-253.833115
 30
0.0
 10
310.094507
 20
-253.991085
 30
0.0
 10
310.375896
 20
-254.272373
 30
0.0
  0
SPLINE
  5
1d4
100
AcDbEntity
  8
3mm_Utility_bits_-_Cut
 62
7
100
AcDbSpline
 70
8
 71
3
 72
8
 73
4
 74
0
 40
0
 40
0
 40
0
 40
0
 40
1
 40
1
 40
1
 40
1
 10
310.375896
 20
-254.272373
 30
0.0
 10
310.657285
 20
-254.553661
 30
0.0
 10
310.815391
 20
-254.935220
 30
0.0
 10
310.815426
 20
-255.333093
 30
0.0
  0
SPLINE
  5
1d5
100
AcDbEntity
  8
3mm_Utility_bits_-_Cut
 62
7
100
AcDbSpline
 70
8
 71
3
 72
8
 73
4
 74
0
 40
0
 40
0
 40
0
 40
0
 40
1
 40
1
 40
1
 40
1
 10
310.815426
 20
-255.333093
 30
0.0
 10
310.815384
 20
-255.730961
 30
0.0
 10
310.657274
 20
-256.112513
 30
0.0
 10
310.375886
 20
-256.393795
 30
0.0
  0
SPLINE
  5
1d6
100
AcDbEntity
  8
3mm_Utility_bits_-_Cut
 62
7
100
AcDbSpline
 70
8
 71
3
 72
8
 73
4
 74
0
 40
0
 40
0
 40
0
 40
0
 40
1
 40
1
 40
1
 40
1
 10
310.375886
 20
-256.393795
 30
0.0
 10
310.094498
 20
-256.675077
 30
0.0
 10
309.712887
 20
-256.833043
 30
0.0
 10
309.315019
 20
-256.832935
 30
0.0
  0
SPLINE
  5
1d7
100
AcDbEntity
  8
3mm_Utility_bits_-_Cut
 62
7
100
AcDbSpline
 70
8
 71
3
 72
8
 73
4
 74
0
 40
0
 40
0
 40
0
 40
0
 40
1
 40
1
 40
1
 40
1
 10
309.315019
 20
-256.832935
 30
0.0
 10
308.486716
 20
-256.832848
 30
0.0
 10
307.815265
 20
-256.161397
 30
0.0
 10
307.815178
 20
-255.333093
 30
0.0
  0
SPLINE
  5
1d8
100
AcDbEntity
  8
3mm_Utility_bits_-_Cut
 62
7
100
AcDbSpline
 70
8
 71
3
 72
8
 73
4
 74
0
 40
0
 40
0
 40
0
 40
0
 40
1
 40
1
 40
1
 40
1
 10
307.815178
 20
-255.333093
 30
0.0
 10
307.815249
 20
-254.504779
 30
0.0
 10
308.486705
 20
-253.833310
 30
0.0
 10
309.315019
 20
-253.833223
 30
0.0
  0
LINE
  5
1d9
100
AcDbEntity
  8
3mm_Utility_bits_-_Cut
 62
7
100
AcDbLine
 10
309.315019
 20
-253.833223
 30
0.0
 11
309.315019
 21
-253.833223
 31
0.0
  0
LINE
  5
1da
100
AcDbEntity
  8
3mm_Utility_bits_-_Cut
 62
7
100
AcDbLine
 10
305.315394
 20
-261.333053
 30
0.0
 11
313.315181
 21
-261.333053
 31
0.0
  0
LINE
  5
1db
100
AcDbEntity
  8
3mm_Utility_bits_-_Cut
 62
7
100
AcDbLine
 10
313.315181
 20
-261.333053
 30
0.0
 11
313.315181
 21
-269.332839
 31
0.0
  0
LINE
  5
1dc
100
AcDbEntity
  8
3mm_Utility_bits_-_Cut
 62
7
100
AcDbLine
 10
313.315181
 20
-269.332839
 30
0.0
 11
305.315394
 21
-269.332839
 31
0.0
  0
LINE
  5
1dd
100
AcDbEntity
  8
3mm_Utility_bits_-_Cut
 62
7
100
AcDbLine
 10
305.315394
 20
-269.332839
 30
0.0
 11
305.315394
 21
-261.333053
 31
0.0
  0
LINE
  5
1de
100
AcDbEntity
  8
3mm_Utility_bits_-_Cut
 62
7
100
AcDbLine
 10
305.315394
 20
-261.333053
 30
0.0
 11
305.315394
 21
-261.333053
 31
0.0
  0
SPLINE
  5
1df
100
AcDbEntity
  8
3mm_Utility_bits_-_Cut
 62
7
100
AcDbSpline
 70
8
 71
3
 72
8
 73
4
 74
0
 40
0
 40
0
 40
0
 40
0
 40
1
 40
1
 40
1
 40
1
 10
299.315434
 20
-263.832808
 30
0.0
 10
299.713302
 20
-263.832850
 30
0.0
 10
300.094854
 20
-263.990959
 30
0.0
 10
300.376136
 20
-264.272347
 30
0.0
  0
SPLINE
  5
1e0
100
AcDbEntity
  8
3mm_Utility_bits_-_Cut
 62
7
100
AcDbSpline
 70
8
 71
3
 72
8
 73
4
 74
0
 40
0
 40
0
 40
0
 40
0
 40
1
 40
1
 40
1
 40
1
 10
300.376136
 20
-264.272347
 30
0.0
 10
300.657418
 20
-264.553735
 30
0.0
 10
300.815384
 20
-264.935347
 30
0.0
 10
300.815276
 20
-265.333214
 30
0.0
  0
SPLINE
  5
1e1
100
AcDbEntity
  8
3mm_Utility_bits_-_Cut
 62
7
100
AcDbSpline
 70
8
 71
3
 72
8
 73
4
 74
0
 40
0
 40
0
 40
0
 40
0
 40
1
 40
1
 40
1
 40
1
 10
300.815276
 20
-265.333214
 30
0.0
 10
300.815204
 20
-266.161529
 30
0.0
 10
300.143749
 20
-266.832997
 30
0.0
 10
299.315434
 20
-266.833084
 30
0.0
  0
SPLINE
  5
1e2
100
AcDbEntity
  8
3mm_Utility_bits_-_Cut
 62
7
100
AcDbSpline
 70
8
 71
3
 72
8
 73
4
 74
0
 40
0
 40
0
 40
0
 40
0
 40
1
 40
1
 40
1
 40
1
 10
299.315434
 20
-266.833084
 30
0.0
 10
298.917562
 20
-266.833192
 30
0.0
 10
298.535946
 20
-266.675222
 30
0.0
 10
298.254558
 20
-266.393934
 30
0.0
  0
SPLINE
  5
1e3
100
AcDbEntity
  8
3mm_Utility_bits_-_Cut
 62
7
100
AcDbSpline
 70
8
 71
3
 72
8
 73
4
 74
0
 40
0
 40
0
 40
0
 40
0
 40
1
 40
1
 40
1
 40
1
 10
298.254558
 20
-266.393934
 30
0.0
 10
297.973169
 20
-266.112646
 30
0.0
 10
297.815063
 20
-265.731087
 30
0.0
 10
297.815028
 20
-265.333214
 30
0.0
  0
SPLINE
  5
1e4
100
AcDbEntity
  8
3mm_Utility_bits_-_Cut
 62
7
100
AcDbSpline
 70
8
 71
3
 72
8
 73
4
 74
0
 40
0
 40
0
 40
0
 40
0
 40
1
 40
1
 40
1
 40
1
 10
297.815028
 20
-265.333214
 30
0.0
 10
297.814920
 20
-264.935249
 30
0.0
 10
297.972964
 20
-264.553552
 30
0.0
 10
298.254368
 20
-264.272148
 30
0.0
  0
SPLINE
  5
1e5
100
AcDbEntity
  8
3mm_Utility_bits_-_Cut
 62
7
100
AcDbSpline
 70
8
 71
3
 72
8
 73
4
 74
0
 40
0
 40
0
 40
0
 40
0
 40
1
 40
1
 40
1
 40
1
 10
298.254368
 20
-264.272148
 30
0.0
 10
298.535772
 20
-263.990744
 30
0.0
 10
298.917469
 20
-263.832700
 30
0.0
 10
299.315434
 20
-263.832808
 30
0.0
  0
LINE
  5
1e6
100
AcDbEntity
  8
3mm_Utility_bits_-_Cut
 62
7
100
AcDbLine
 10
299.315434
 20
-263.832808
 30
0.0
 11
299.315434
 21
-263.832808
 31
0.0
  0
SPLINE
  5
1e7
100
AcDbEntity
  8
3mm_Utility_bits_-_Cut
 62
7
100
AcDbSpline
 70
8
 71
3
 72
8
 73
4
 74
0
 40
0
 40
0
 40
0
 40
0
 40
1
 40
1
 40
1
 40
1
 10
319.315169
 20
-263.832808
 30
0.0
 10
319.713041
 20
-263.832842
 30
0.0
 10
320.094600
 20
-263.990949
 30
0.0
 10
320.375888
 20
-264.272337
 30
0.0
  0
SPLINE
  5
1e8
100
AcDbEntity
  8
3mm_Utility_bits_-_Cut
 62
7
100
AcDbSpline
 70
8
 71
3
 72
8
 73
4
 74
0
 40
0
 40
0
 40
0
 40
0
 40
1
 40
1
 40
1
 40
1
 10
320.375888
 20
-264.272337
 30
0.0
 10
320.657177
 20
-264.553726
 30
0.0
 10
320.815146
 20
-264.935342
 30
0.0
 10
320.815039
 20
-265.333214
 30
0.0
  0
SPLINE
  5
1e9
100
AcDbEntity
  8
3mm_Utility_bits_-_Cut
 62
7
100
AcDbSpline
 70
8
 71
3
 72
8
 73
4
 74
0
 40
0
 40
0
 40
0
 40
0
 40
1
 40
1
 40
1
 40
1
 10
320.815039
 20
-265.333214
 30
0.0
 10
320.814967
 20
-266.161540
 30
0.0
 10
320.143494
 20
-266.833012
 30
0.0
 10
319.315169
 20
-266.833084
 30
0.0
  0
SPLINE
  5
1ea
100
AcDbEntity
  8
3mm_Utility_bits_-_Cut
 62
7
100
AcDbSpline
 70
8
 71
3
 72
8
 73
4
 74
0
 40
0
 40
0
 40
0
 40
0
 40
1
 40
1
 40
1
 40
1
 10
319.315169
 20
-266.833084
 30
0.0
 10
318.486843
 20
-266.833012
 30
0.0
 10
317.815370
 20
-266.161540
 30
0.0
 10
317.815299
 20
-265.333214
 30
0.0
  0
SPLINE
  5
1eb
100
AcDbEntity
  8
3mm_Utility_bits_-_Cut
 62
7
100
AcDbSpline
 70
8
 71
3
 72
8
 73
4
 74
0
 40
0
 40
0
 40
0
 40
0
 40
1
 40
1
 40
1
 40
1
 10
317.815299
 20
-265.333214
 30
0.0
 10
317.815191
 20
-264.935342
 30
0.0
 10
317.973161
 20
-264.553726
 30
0.0
 10
318.254449
 20
-264.272337
 30
0.0
  0
SPLINE
  5
1ec
100
AcDbEntity
  8
3mm_Utility_bits_-_Cut
 62
7
100
AcDbSpline
 70
8
 71
3
 72
8
 73
4
 74
0
 40
0
 40
0
 40
0
 40
0
 40
1
 40
1
 40
1
 40
1
 10
318.254449
 20
-264.272337
 30
0.0
 10
318.535737
 20
-263.990949
 30
0.0
 10
318.917296
 20
-263.832842
 30
0.0
 10
319.315169
 20
-263.832808
 30
0.0
  0
LINE
  5
1ed
100
AcDbEntity
  8
3mm_Utility_bits_-_Cut
 62
7
100
AcDbLine
 10
319.315169
 20
-263.832808
 30
0.0
 11
319.315169
 21
-263.832808
 31
0.0
  0
SPLINE
  5
1ee
100
AcDbEntity
  8
3mm_Utility_bits_-_Cut
 62
7
100
AcDbSpline
 70
8
 71
3
 72
8
 73
4
 74
0
 40
0
 40
0
 40
0
 40
0
 40
1
 40
1
 40
1
 40
1
 10
309.315019
 20
-273.832957
 30
0.0
 10
309.712892
 20
-273.832850
 30
0.0
 10
310.094507
 20
-273.990819
 30
0.0
 10
310.375896
 20
-274.272108
 30
0.0
  0
SPLINE
  5
1ef
100
AcDbEntity
  8
3mm_Utility_bits_-_Cut
 62
7
100
AcDbSpline
 70
8
 71
3
 72
8
 73
4
 74
0
 40
0
 40
0
 40
0
 40
0
 40
1
 40
1
 40
1
 40
1
 10
310.375896
 20
-274.272108
 30
0.0
 10
310.657285
 20
-274.553396
 30
0.0
 10
310.815391
 20
-274.934955
 30
0.0
 10
310.815426
 20
-275.332827
 30
0.0
  0
SPLINE
  5
1f0
100
AcDbEntity
  8
3mm_Utility_bits_-_Cut
 62
7
100
AcDbSpline
 70
8
 71
3
 72
8
 73
4
 74
0
 40
0
 40
0
 40
0
 40
0
 40
1
 40
1
 40
1
 40
1
 10
310.815426
 20
-275.332827
 30
0.0
 10
310.815533
 20
-275.730793
 30
0.0
 10
310.657490
 20
-276.112490
 30
0.0
 10
310.376086
 20
-276.393894
 30
0.0
  0
SPLINE
  5
1f1
100
AcDbEntity
  8
3mm_Utility_bits_-_Cut
 62
7
100
AcDbSpline
 70
8
 71
3
 72
8
 73
4
 74
0
 40
0
 40
0
 40
0
 40
0
 40
1
 40
1
 40
1
 40
1
 10
310.376086
 20
-276.393894
 30
0.0
 10
310.094682
 20
-276.675298
 30
0.0
 10
309.712985
 20
-276.833341
 30
0.0
 10
309.315019
 20
-276.833234
 30
0.0
  0
SPLINE
  5
1f2
100
AcDbEntity
  8
3mm_Utility_bits_-_Cut
 62
7
100
AcDbSpline
 70
8
 71
3
 72
8
 73
4
 74
0
 40
0
 40
0
 40
0
 40
0
 40
1
 40
1
 40
1
 40
1
 10
309.315019
 20
-276.833234
 30
0.0
 10
308.917152
 20
-276.833192
 30
0.0
 10
308.535600
 20
-276.675082
 30
0.0
 10
308.254318
 20
-276.393694
 30
0.0
  0
SPLINE
  5
1f3
100
AcDbEntity
  8
3mm_Utility_bits_-_Cut
 62
7
100
AcDbSpline
 70
8
 71
3
 72
8
 73
4
 74
0
 40
0
 40
0
 40
0
 40
0
 40
1
 40
1
 40
1
 40
1
 10
308.254318
 20
-276.393694
 30
0.0
 10
307.973036
 20
-276.112306
 30
0.0
 10
307.815070
 20
-275.730695
 30
0.0
 10
307.815178
 20
-275.332827
 30
0.0
  0
SPLINE
  5
1f4
100
AcDbEntity
  8
3mm_Utility_bits_-_Cut
 62
7
100
AcDbSpline
 70
8
 71
3
 72
8
 73
4
 74
0
 40
0
 40
0
 40
0
 40
0
 40
1
 40
1
 40
1
 40
1
 10
307.815178
 20
-275.332827
 30
0.0
 10
307.815249
 20
-274.504513
 30
0.0
 10
308.486705
 20
-273.833045
 30
0.0
 10
309.315019
 20
-273.832957
 30
0.0
  0
LINE
  5
1f5
100
AcDbEntity
  8
3mm_Utility_bits_-_Cut
 62
7
100
AcDbLine
 10
309.315019
 20
-273.832957
 30
0.0
 11
309.315019
 21
-273.832957
 31
0.0
  0
ENDSEC
  0
SECTION
  2
OBJECTS
  0
DICTIONARY
  5
C
330
0
100
AcDbDictionary
  3
ACAD_GROUP
350
D
  3
ACAD_MLINESTYLE
350
17
  0
DICTIONARY
  5
D
330
C
100
AcDbDictionary
  0
DICTIONARY
  5
1A
330
C
100
AcDbDictionary
  0
DICTIONARY
  5
17
330
C
100
AcDbDictionary
  3
STANDARD
350
18
  0
DICTIONARY
  5
19
330
C
100
AcDbDictionary
  0
ENDSEC
  0
EOF
