  0
SECTION
  2
HEADER
  9
$ACADVER
  1
AC1014
  9
$HANDSEED
  5
FFFF
  9
$MEASUREMENT
 70
     1
  0
ENDSEC
  0
SECTION
  2
TABLES
  0
TABLE
  2
VPORT
  5
8
330
0
100
AcDbSymbolTable
 70
     4
  0
VPORT
  5
2E
330
8
100
AcDbSymbolTableRecord
100
AcDbViewportTableRecord
  2
*ACTIVE
 70
     0
 10
0.0
 20
0.0
 11
1.0
 21
1.0
 12
210.0
 22
148.5
 13
0.0
 23
0.0
 14
10.0
 24
10.0
 15
10.0
 25
10.0
 16
0.0
 26
0.0
 36
1.0
 17
0.0
 27
0.0
 37
0.0
 40
341.0
 41
1.24
 42
50.0
 43
0.0
 44
0.0
 50
0.0
 51
0.0
 71
     0
 72
   100
 73
     1
 74
     3
 75
     0
 76
     0
 77
     0
 78
     0
  0
ENDTAB
  0
TABLE
  2
LTYPE
  5
5
330
0
100
AcDbSymbolTable
 70
     1
  0
LTYPE
  5
14
330
5
100
AcDbSymbolTableRecord
100
AcDbLinetypeTableRecord
  2
BYBLOCK
 70
     0
  3

 72
    65
 73
     0
 40
0.0
  0
LTYPE
  5
15
330
5
100
AcDbSymbolTableRecord
100
AcDbLinetypeTableRecord
  2
BYLAYER
 70
     0
  3

 72
    65
 73
     0
 40
0.0
  0
LTYPE
  5
16
330
5
100
AcDbSymbolTableRecord
100
AcDbLinetypeTableRecord
  2
CONTINUOUS
 70
     0
  3
Solid line
 72
    65
 73
     0
 40
0.0
  0
ENDTAB
  0
TABLE
  2
LAYER
  5
2
100
AcDbSymbolTable
 70
8
  0
LAYER
  5
50
100
AcDbSymbolTableRecord
100
AcDbLayerTableRecord
  2
0
 70
0
  6
CONTINUOUS
  0
LAYER
  5
51
100
AcDbSymbolTableRecord
100
AcDbLayerTableRecord
  2
BottomPlace_-_Cut
 70
0
  6
CONTINUOUS
  0
LAYER
  5
52
100
AcDbSymbolTableRecord
100
AcDbLayerTableRecord
  2
TopPlate_-_Cut
 70
0
  6
CONTINUOUS
  0
LAYER
  5
53
100
AcDbSymbolTableRecord
100
AcDbLayerTableRecord
  2
TopPlace_-_Etch
 70
0
  6
CONTINUOUS
  0
LAYER
  5
54
100
AcDbSymbolTableRecord
100
AcDbLayerTableRecord
  2
Cogs_-_Cut
 70
0
  6
CONTINUOUS
  0
LAYER
  5
55
100
AcDbSymbolTableRecord
100
AcDbLayerTableRecord
  2
Cogs_-_Etch
 70
0
  6
CONTINUOUS
  0
LAYER
  5
56
100
AcDbSymbolTableRecord
100
AcDbLayerTableRecord
  2
Edges
 70
0
  6
CONTINUOUS
  0
LAYER
  5
57
100
AcDbSymbolTableRecord
100
AcDbLayerTableRecord
  2
Temp
 70
0
  6
CONTINUOUS
  0
ENDTAB
  0
TABLE
  2
STYLE
  5
3
330
0
100
AcDbSymbolTable
 70
     1
  0
STYLE
  5
11
330
3
100
AcDbSymbolTableRecord
100
AcDbTextStyleTableRecord
  2
STANDARD
 70
     0
 40
0.0
 41
1.0
 50
0.0
 71
     0
 42
2.5
  3
txt
  4

  0
ENDTAB
  0
TABLE
  2
VIEW
  5
6
330
0
100
AcDbSymbolTable
 70
     0
  0
ENDTAB
  0
TABLE
  2
UCS
  5
7
330
0
100
AcDbSymbolTable
 70
     0
  0
ENDTAB
  0
TABLE
  2
APPID
  5
9
330
0
100
AcDbSymbolTable
 70
     2
  0
APPID
  5
12
330
9
100
AcDbSymbolTableRecord
100
AcDbRegAppTableRecord
  2
ACAD
 70
     0
  0
ENDTAB
  0
TABLE
  2
DIMSTYLE
  5
A
330
0
100
AcDbSymbolTable
 70
     1
  0
DIMSTYLE
105
27
330
A
100
AcDbSymbolTableRecord
100
AcDbDimStyleTableRecord
  2
ISO-25
 70
     0
  3

  4

  5

  6

  7

 40
1.0
 41
2.5
 42
0.625
 43
3.75
 44
1.25
 45
0.0
 46
0.0
 47
0.0
 48
0.0
140
2.5
141
2.5
142
0.0
143
0.03937007874016
144
1.0
145
0.0
146
1.0
147
0.625
 71
     0
 72
     0
 73
     0
 74
     0
 75
     0
 76
     0
 77
     1
 78
     8
170
     0
171
     3
172
     1
173
     0
174
     0
175
     0
176
     0
177
     0
178
     0
270
     2
271
     2
272
     2
273
     2
274
     3
340
11
275
     0
280
     0
281
     0
282
     0
283
     0
284
     8
285
     0
286
     0
287
     3
288
     0
  0
ENDTAB
  0
TABLE
  2
BLOCK_RECORD
  5
1
330
0
100
AcDbSymbolTable
 70
     1
  0
BLOCK_RECORD
  5
1F
330
1
100
AcDbSymbolTableRecord
100
AcDbBlockTableRecord
  2
*MODEL_SPACE
  0
BLOCK_RECORD
  5
1B
330
1
100
AcDbSymbolTableRecord
100
AcDbBlockTableRecord
  2
*PAPER_SPACE
  0
ENDTAB
  0
ENDSEC
  0
SECTION
  2
BLOCKS
  0
BLOCK
  5
20
330
1F
100
AcDbEntity
  8
0
100
AcDbBlockBegin
  2
*MODEL_SPACE
 70
     0
 10
0.0
 20
0.0
 30
0.0
  3
*MODEL_SPACE
  1

  0
ENDBLK
  5
21
330
1F
100
AcDbEntity
  8
0
100
AcDbBlockEnd
  0
BLOCK
  5
1C
330
1B
100
AcDbEntity
 67
     1
  8
0
100
AcDbBlockBegin
  2
*PAPER_SPACE
  1

  0
ENDBLK
  5
1D
330
1B
100
AcDbEntity
 67
     1
  8
0
100
AcDbBlockEnd
  0
ENDSEC
  0
SECTION
  2
ENTITIES
  0
SPLINE
  5
100
100
AcDbEntity
  8
TopPlate_-_Cut
 62
7
100
AcDbSpline
 70
8
 71
3
 72
8
 73
4
 74
0
 40
0
 40
0
 40
0
 40
0
 40
1
 40
1
 40
1
 40
1
 10
827.702640
 20
-120.907983
 30
0.0
 10
807.852860
 20
-120.907777
 30
0.0
 10
791.761122
 20
-136.998762
 30
0.0
 10
791.760400
 20
-156.848543
 30
0.0
  0
SPLINE
  5
101
100
AcDbEntity
  8
TopPlate_-_Cut
 62
7
100
AcDbSpline
 70
8
 71
3
 72
8
 73
4
 74
0
 40
0
 40
0
 40
0
 40
0
 40
1
 40
1
 40
1
 40
1
 10
791.760400
 20
-156.848543
 30
0.0
 10
791.760301
 20
-166.381048
 30
0.0
 10
795.547030
 20
-175.523154
 30
0.0
 10
802.287529
 20
-182.263653
 30
0.0
  0
SPLINE
  5
102
100
AcDbEntity
  8
TopPlate_-_Cut
 62
7
100
AcDbSpline
 70
8
 71
3
 72
8
 73
4
 74
0
 40
0
 40
0
 40
0
 40
0
 40
1
 40
1
 40
1
 40
1
 10
802.287529
 20
-182.263653
 30
0.0
 10
809.028028
 20
-189.004152
 30
0.0
 10
818.170135
 20
-192.790881
 30
0.0
 10
827.702640
 20
-192.790783
 30
0.0
  0
SPLINE
  5
103
100
AcDbEntity
  8
TopPlate_-_Cut
 62
7
100
AcDbSpline
 70
8
 71
3
 72
8
 73
4
 74
0
 40
0
 40
0
 40
0
 40
0
 40
1
 40
1
 40
1
 40
1
 10
827.702640
 20
-192.790783
 30
0.0
 10
847.552420
 20
-192.790061
 30
0.0
 10
863.643406
 20
-176.698323
 30
0.0
 10
863.643200
 20
-156.848543
 30
0.0
  0
SPLINE
  5
104
100
AcDbEntity
  8
TopPlate_-_Cut
 62
7
100
AcDbSpline
 70
8
 71
3
 72
8
 73
4
 74
0
 40
0
 40
0
 40
0
 40
0
 40
1
 40
1
 40
1
 40
1
 10
863.643200
 20
-156.848543
 30
0.0
 10
863.642478
 20
-136.999418
 30
0.0
 10
847.551764
 20
-120.908704
 30
0.0
 10
827.702640
 20
-120.907983
 30
0.0
  0
LINE
  5
105
100
AcDbEntity
  8
TopPlate_-_Cut
 62
7
100
AcDbLine
 10
827.702640
 20
-120.907983
 30
0.0
 11
827.702640
 21
-120.907983
 31
0.0
  0
SPLINE
  5
106
100
AcDbEntity
  8
TopPlate_-_Cut
 62
7
100
AcDbSpline
 70
8
 71
3
 72
8
 73
4
 74
0
 40
0
 40
0
 40
0
 40
0
 40
1
 40
1
 40
1
 40
1
 10
827.702640
 20
-130.486063
 30
0.0
 10
828.680001
 20
-130.486253
 30
0.0
 10
829.617254
 20
-130.874702
 30
0.0
 10
830.308203
 20
-131.565951
 30
0.0
  0
SPLINE
  5
107
100
AcDbEntity
  8
TopPlate_-_Cut
 62
7
100
AcDbSpline
 70
8
 71
3
 72
8
 73
4
 74
0
 40
0
 40
0
 40
0
 40
0
 40
1
 40
1
 40
1
 40
1
 10
830.308203
 20
-131.565951
 30
0.0
 10
830.999151
 20
-132.257200
 30
0.0
 10
831.387194
 20
-133.194621
 30
0.0
 10
831.386960
 20
-134.171983
 30
0.0
  0
SPLINE
  5
108
100
AcDbEntity
  8
TopPlate_-_Cut
 62
7
100
AcDbSpline
 70
8
 71
3
 72
8
 73
4
 74
0
 40
0
 40
0
 40
0
 40
0
 40
1
 40
1
 40
1
 40
1
 10
831.386960
 20
-134.171983
 30
0.0
 10
831.386607
 20
-136.206643
 30
0.0
 10
829.737301
 20
-137.855986
 30
0.0
 10
827.702640
 20
-137.856383
 30
0.0
  0
SPLINE
  5
109
100
AcDbEntity
  8
TopPlate_-_Cut
 62
7
100
AcDbSpline
 70
8
 71
3
 72
8
 73
4
 74
0
 40
0
 40
0
 40
0
 40
0
 40
1
 40
1
 40
1
 40
1
 10
827.702640
 20
-137.856383
 30
0.0
 10
826.725251
 20
-137.856637
 30
0.0
 10
825.787797
 20
-137.468594
 30
0.0
 10
825.096529
 20
-136.777625
 30
0.0
  0
SPLINE
  5
10a
100
AcDbEntity
  8
TopPlate_-_Cut
 62
7
100
AcDbSpline
 70
8
 71
3
 72
8
 73
4
 74
0
 40
0
 40
0
 40
0
 40
0
 40
1
 40
1
 40
1
 40
1
 10
825.096529
 20
-136.777625
 30
0.0
 10
824.405260
 20
-136.086657
 30
0.0
 10
824.016809
 20
-135.149371
 30
0.0
 10
824.016640
 20
-134.171983
 30
0.0
  0
SPLINE
  5
10b
100
AcDbEntity
  8
TopPlate_-_Cut
 62
7
100
AcDbSpline
 70
8
 71
3
 72
8
 73
4
 74
0
 40
0
 40
0
 40
0
 40
0
 40
1
 40
1
 40
1
 40
1
 10
824.016640
 20
-134.171983
 30
0.0
 10
824.016406
 20
-133.194330
 30
0.0
 10
824.404679
 20
-132.256654
 30
0.0
 10
825.095991
 20
-131.565357
 30
0.0
  0
SPLINE
  5
10c
100
AcDbEntity
  8
TopPlate_-_Cut
 62
7
100
AcDbSpline
 70
8
 71
3
 72
8
 73
4
 74
0
 40
0
 40
0
 40
0
 40
0
 40
1
 40
1
 40
1
 40
1
 10
825.095991
 20
-131.565357
 30
0.0
 10
825.787303
 20
-130.874060
 30
0.0
 10
826.724988
 20
-130.485808
 30
0.0
 10
827.702640
 20
-130.486063
 30
0.0
  0
LINE
  5
10d
100
AcDbEntity
  8
TopPlate_-_Cut
 62
7
100
AcDbLine
 10
827.702640
 20
-130.486063
 30
0.0
 11
827.702640
 21
-130.486063
 31
0.0
  0
SPLINE
  5
10e
100
AcDbEntity
  8
TopPlate_-_Cut
 62
7
100
AcDbSpline
 70
8
 71
3
 72
8
 73
4
 74
0
 40
0
 40
0
 40
0
 40
0
 40
1
 40
1
 40
1
 40
1
 10
808.063520
 20
-141.825103
 30
0.0
 10
809.040909
 20
-141.825272
 30
0.0
 10
809.978194
 20
-142.213723
 30
0.0
 10
810.669163
 20
-142.904991
 30
0.0
  0
SPLINE
  5
10f
100
AcDbEntity
  8
TopPlate_-_Cut
 62
7
100
AcDbSpline
 70
8
 71
3
 72
8
 73
4
 74
0
 40
0
 40
0
 40
0
 40
0
 40
1
 40
1
 40
1
 40
1
 10
810.669163
 20
-142.904991
 30
0.0
 10
811.360131
 20
-143.596260
 30
0.0
 10
811.748175
 20
-144.533714
 30
0.0
 10
811.747920
 20
-145.511103
 30
0.0
  0
SPLINE
  5
110
100
AcDbEntity
  8
TopPlate_-_Cut
 62
7
100
AcDbSpline
 70
8
 71
3
 72
8
 73
4
 74
0
 40
0
 40
0
 40
0
 40
0
 40
1
 40
1
 40
1
 40
1
 10
811.747920
 20
-145.511103
 30
0.0
 10
811.747523
 20
-147.545763
 30
0.0
 10
810.098181
 20
-149.195070
 30
0.0
 10
808.063520
 20
-149.195423
 30
0.0
  0
SPLINE
  5
111
100
AcDbEntity
  8
TopPlate_-_Cut
 62
7
100
AcDbSpline
 70
8
 71
3
 72
8
 73
4
 74
0
 40
0
 40
0
 40
0
 40
0
 40
1
 40
1
 40
1
 40
1
 10
808.063520
 20
-149.195423
 30
0.0
 10
807.086159
 20
-149.195656
 30
0.0
 10
806.148737
 20
-148.807614
 30
0.0
 10
805.457489
 20
-148.116665
 30
0.0
  0
SPLINE
  5
112
100
AcDbEntity
  8
TopPlate_-_Cut
 62
7
100
AcDbSpline
 70
8
 71
3
 72
8
 73
4
 74
0
 40
0
 40
0
 40
0
 40
0
 40
1
 40
1
 40
1
 40
1
 10
805.457489
 20
-148.116665
 30
0.0
 10
804.766240
 20
-147.425717
 30
0.0
 10
804.377791
 20
-146.488464
 30
0.0
 10
804.377600
 20
-145.511103
 30
0.0
  0
SPLINE
  5
113
100
AcDbEntity
  8
TopPlate_-_Cut
 62
7
100
AcDbSpline
 70
8
 71
3
 72
8
 73
4
 74
0
 40
0
 40
0
 40
0
 40
0
 40
1
 40
1
 40
1
 40
1
 10
804.377600
 20
-145.511103
 30
0.0
 10
804.377345
 20
-144.533450
 30
0.0
 10
804.765598
 20
-143.595766
 30
0.0
 10
805.456895
 20
-142.904454
 30
0.0
  0
SPLINE
  5
114
100
AcDbEntity
  8
TopPlate_-_Cut
 62
7
100
AcDbSpline
 70
8
 71
3
 72
8
 73
4
 74
0
 40
0
 40
0
 40
0
 40
0
 40
1
 40
1
 40
1
 40
1
 10
805.456895
 20
-142.904454
 30
0.0
 10
806.148192
 20
-142.213142
 30
0.0
 10
807.085868
 20
-141.824869
 30
0.0
 10
808.063520
 20
-141.825103
 30
0.0
  0
LINE
  5
115
100
AcDbEntity
  8
TopPlate_-_Cut
 62
7
100
AcDbLine
 10
808.063520
 20
-141.825103
 30
0.0
 11
808.063520
 21
-141.825103
 31
0.0
  0
SPLINE
  5
116
100
AcDbEntity
  8
TopPlate_-_Cut
 62
7
100
AcDbSpline
 70
8
 71
3
 72
8
 73
4
 74
0
 40
0
 40
0
 40
0
 40
0
 40
1
 40
1
 40
1
 40
1
 10
847.341680
 20
-141.825103
 30
0.0
 10
848.319069
 20
-141.825272
 30
0.0
 10
849.256354
 20
-142.213723
 30
0.0
 10
849.947323
 20
-142.904991
 30
0.0
  0
SPLINE
  5
117
100
AcDbEntity
  8
TopPlate_-_Cut
 62
7
100
AcDbSpline
 70
8
 71
3
 72
8
 73
4
 74
0
 40
0
 40
0
 40
0
 40
0
 40
1
 40
1
 40
1
 40
1
 10
849.947323
 20
-142.904991
 30
0.0
 10
850.638291
 20
-143.596260
 30
0.0
 10
851.026335
 20
-144.533714
 30
0.0
 10
851.026080
 20
-145.511103
 30
0.0
  0
SPLINE
  5
118
100
AcDbEntity
  8
TopPlate_-_Cut
 62
7
100
AcDbSpline
 70
8
 71
3
 72
8
 73
4
 74
0
 40
0
 40
0
 40
0
 40
0
 40
1
 40
1
 40
1
 40
1
 10
851.026080
 20
-145.511103
 30
0.0
 10
851.025683
 20
-147.545763
 30
0.0
 10
849.376341
 20
-149.195070
 30
0.0
 10
847.341680
 20
-149.195423
 30
0.0
  0
SPLINE
  5
119
100
AcDbEntity
  8
TopPlate_-_Cut
 62
7
100
AcDbSpline
 70
8
 71
3
 72
8
 73
4
 74
0
 40
0
 40
0
 40
0
 40
0
 40
1
 40
1
 40
1
 40
1
 10
847.341680
 20
-149.195423
 30
0.0
 10
846.364319
 20
-149.195656
 30
0.0
 10
845.426897
 20
-148.807614
 30
0.0
 10
844.735649
 20
-148.116665
 30
0.0
  0
SPLINE
  5
11a
100
AcDbEntity
  8
TopPlate_-_Cut
 62
7
100
AcDbSpline
 70
8
 71
3
 72
8
 73
4
 74
0
 40
0
 40
0
 40
0
 40
0
 40
1
 40
1
 40
1
 40
1
 10
844.735649
 20
-148.116665
 30
0.0
 10
844.044400
 20
-147.425717
 30
0.0
 10
843.655951
 20
-146.488464
 30
0.0
 10
843.655760
 20
-145.511103
 30
0.0
  0
SPLINE
  5
11b
100
AcDbEntity
  8
TopPlate_-_Cut
 62
7
100
AcDbSpline
 70
8
 71
3
 72
8
 73
4
 74
0
 40
0
 40
0
 40
0
 40
0
 40
1
 40
1
 40
1
 40
1
 10
843.655760
 20
-145.511103
 30
0.0
 10
843.655505
 20
-144.533450
 30
0.0
 10
844.043758
 20
-143.595766
 30
0.0
 10
844.735055
 20
-142.904454
 30
0.0
  0
SPLINE
  5
11c
100
AcDbEntity
  8
TopPlate_-_Cut
 62
7
100
AcDbSpline
 70
8
 71
3
 72
8
 73
4
 74
0
 40
0
 40
0
 40
0
 40
0
 40
1
 40
1
 40
1
 40
1
 10
844.735055
 20
-142.904454
 30
0.0
 10
845.426352
 20
-142.213142
 30
0.0
 10
846.364028
 20
-141.824869
 30
0.0
 10
847.341680
 20
-141.825103
 30
0.0
  0
LINE
  5
11d
100
AcDbEntity
  8
TopPlate_-_Cut
 62
7
100
AcDbLine
 10
847.341680
 20
-141.825103
 30
0.0
 11
847.341680
 21
-141.825103
 31
0.0
  0
SPLINE
  5
11e
100
AcDbEntity
  8
TopPlate_-_Cut
 62
7
100
AcDbSpline
 70
8
 71
3
 72
8
 73
4
 74
0
 40
0
 40
0
 40
0
 40
0
 40
1
 40
1
 40
1
 40
1
 10
808.063520
 20
-164.503263
 30
0.0
 10
810.098212
 20
-164.503615
 30
0.0
 10
811.747567
 20
-166.152971
 30
0.0
 10
811.747920
 20
-168.187663
 30
0.0
  0
SPLINE
  5
11f
100
AcDbEntity
  8
TopPlate_-_Cut
 62
7
100
AcDbSpline
 70
8
 71
3
 72
8
 73
4
 74
0
 40
0
 40
0
 40
0
 40
0
 40
1
 40
1
 40
1
 40
1
 10
811.747920
 20
-168.187663
 30
0.0
 10
811.747523
 20
-170.222323
 30
0.0
 10
810.098181
 20
-171.871630
 30
0.0
 10
808.063520
 20
-171.871983
 30
0.0
  0
SPLINE
  5
120
100
AcDbEntity
  8
TopPlate_-_Cut
 62
7
100
AcDbSpline
 70
8
 71
3
 72
8
 73
4
 74
0
 40
0
 40
0
 40
0
 40
0
 40
1
 40
1
 40
1
 40
1
 10
808.063520
 20
-171.871983
 30
0.0
 10
807.086159
 20
-171.872216
 30
0.0
 10
806.148737
 20
-171.484174
 30
0.0
 10
805.457489
 20
-170.793225
 30
0.0
  0
SPLINE
  5
121
100
AcDbEntity
  8
TopPlate_-_Cut
 62
7
100
AcDbSpline
 70
8
 71
3
 72
8
 73
4
 74
0
 40
0
 40
0
 40
0
 40
0
 40
1
 40
1
 40
1
 40
1
 10
805.457489
 20
-170.793225
 30
0.0
 10
804.766240
 20
-170.102277
 30
0.0
 10
804.377791
 20
-169.165024
 30
0.0
 10
804.377600
 20
-168.187663
 30
0.0
  0
SPLINE
  5
122
100
AcDbEntity
  8
TopPlate_-_Cut
 62
7
100
AcDbSpline
 70
8
 71
3
 72
8
 73
4
 74
0
 40
0
 40
0
 40
0
 40
0
 40
1
 40
1
 40
1
 40
1
 10
804.377600
 20
-168.187663
 30
0.0
 10
804.377769
 20
-167.210288
 30
0.0
 10
804.766209
 20
-166.273014
 30
0.0
 10
805.457460
 20
-165.582048
 30
0.0
  0
SPLINE
  5
123
100
AcDbEntity
  8
TopPlate_-_Cut
 62
7
100
AcDbSpline
 70
8
 71
3
 72
8
 73
4
 74
0
 40
0
 40
0
 40
0
 40
0
 40
1
 40
1
 40
1
 40
1
 10
805.457460
 20
-165.582048
 30
0.0
 10
806.148711
 20
-164.891082
 30
0.0
 10
807.086145
 20
-164.503029
 30
0.0
 10
808.063520
 20
-164.503263
 30
0.0
  0
LINE
  5
124
100
AcDbEntity
  8
TopPlate_-_Cut
 62
7
100
AcDbLine
 10
808.063520
 20
-164.503263
 30
0.0
 11
808.063520
 21
-164.503263
 31
0.0
  0
SPLINE
  5
125
100
AcDbEntity
  8
TopPlate_-_Cut
 62
7
100
AcDbSpline
 70
8
 71
3
 72
8
 73
4
 74
0
 40
0
 40
0
 40
0
 40
0
 40
1
 40
1
 40
1
 40
1
 10
847.341680
 20
-164.503263
 30
0.0
 10
849.376372
 20
-164.503615
 30
0.0
 10
851.025727
 20
-166.152971
 30
0.0
 10
851.026080
 20
-168.187663
 30
0.0
  0
SPLINE
  5
126
100
AcDbEntity
  8
TopPlate_-_Cut
 62
7
100
AcDbSpline
 70
8
 71
3
 72
8
 73
4
 74
0
 40
0
 40
0
 40
0
 40
0
 40
1
 40
1
 40
1
 40
1
 10
851.026080
 20
-168.187663
 30
0.0
 10
851.025683
 20
-170.222323
 30
0.0
 10
849.376341
 20
-171.871630
 30
0.0
 10
847.341680
 20
-171.871983
 30
0.0
  0
SPLINE
  5
127
100
AcDbEntity
  8
TopPlate_-_Cut
 62
7
100
AcDbSpline
 70
8
 71
3
 72
8
 73
4
 74
0
 40
0
 40
0
 40
0
 40
0
 40
1
 40
1
 40
1
 40
1
 10
847.341680
 20
-171.871983
 30
0.0
 10
846.364319
 20
-171.872216
 30
0.0
 10
845.426897
 20
-171.484174
 30
0.0
 10
844.735649
 20
-170.793225
 30
0.0
  0
SPLINE
  5
128
100
AcDbEntity
  8
TopPlate_-_Cut
 62
7
100
AcDbSpline
 70
8
 71
3
 72
8
 73
4
 74
0
 40
0
 40
0
 40
0
 40
0
 40
1
 40
1
 40
1
 40
1
 10
844.735649
 20
-170.793225
 30
0.0
 10
844.044400
 20
-170.102277
 30
0.0
 10
843.655951
 20
-169.165024
 30
0.0
 10
843.655760
 20
-168.187663
 30
0.0
  0
SPLINE
  5
129
100
AcDbEntity
  8
TopPlate_-_Cut
 62
7
100
AcDbSpline
 70
8
 71
3
 72
8
 73
4
 74
0
 40
0
 40
0
 40
0
 40
0
 40
1
 40
1
 40
1
 40
1
 10
843.655760
 20
-168.187663
 30
0.0
 10
843.655929
 20
-167.210288
 30
0.0
 10
844.044369
 20
-166.273014
 30
0.0
 10
844.735620
 20
-165.582048
 30
0.0
  0
SPLINE
  5
12a
100
AcDbEntity
  8
TopPlate_-_Cut
 62
7
100
AcDbSpline
 70
8
 71
3
 72
8
 73
4
 74
0
 40
0
 40
0
 40
0
 40
0
 40
1
 40
1
 40
1
 40
1
 10
844.735620
 20
-165.582048
 30
0.0
 10
845.426871
 20
-164.891082
 30
0.0
 10
846.364305
 20
-164.503029
 30
0.0
 10
847.341680
 20
-164.503263
 30
0.0
  0
LINE
  5
12b
100
AcDbEntity
  8
TopPlate_-_Cut
 62
7
100
AcDbLine
 10
847.341680
 20
-164.503263
 30
0.0
 11
847.341680
 21
-164.503263
 31
0.0
  0
SPLINE
  5
12c
100
AcDbEntity
  8
TopPlate_-_Cut
 62
7
100
AcDbSpline
 70
8
 71
3
 72
8
 73
4
 74
0
 40
0
 40
0
 40
0
 40
0
 40
1
 40
1
 40
1
 40
1
 10
827.702640
 20
-175.840783
 30
0.0
 10
828.680001
 20
-175.840973
 30
0.0
 10
829.617254
 20
-176.229422
 30
0.0
 10
830.308203
 20
-176.920671
 30
0.0
  0
SPLINE
  5
12d
100
AcDbEntity
  8
TopPlate_-_Cut
 62
7
100
AcDbSpline
 70
8
 71
3
 72
8
 73
4
 74
0
 40
0
 40
0
 40
0
 40
0
 40
1
 40
1
 40
1
 40
1
 10
830.308203
 20
-176.920671
 30
0.0
 10
830.999151
 20
-177.611920
 30
0.0
 10
831.387194
 20
-178.549341
 30
0.0
 10
831.386960
 20
-179.526703
 30
0.0
  0
SPLINE
  5
12e
100
AcDbEntity
  8
TopPlate_-_Cut
 62
7
100
AcDbSpline
 70
8
 71
3
 72
8
 73
4
 74
0
 40
0
 40
0
 40
0
 40
0
 40
1
 40
1
 40
1
 40
1
 10
831.386960
 20
-179.526703
 30
0.0
 10
831.386607
 20
-181.561363
 30
0.0
 10
829.737301
 20
-183.210706
 30
0.0
 10
827.702640
 20
-183.211103
 30
0.0
  0
SPLINE
  5
12f
100
AcDbEntity
  8
TopPlate_-_Cut
 62
7
100
AcDbSpline
 70
8
 71
3
 72
8
 73
4
 74
0
 40
0
 40
0
 40
0
 40
0
 40
1
 40
1
 40
1
 40
1
 10
827.702640
 20
-183.211103
 30
0.0
 10
826.725251
 20
-183.211357
 30
0.0
 10
825.787797
 20
-182.823314
 30
0.0
 10
825.096529
 20
-182.132345
 30
0.0
  0
SPLINE
  5
130
100
AcDbEntity
  8
TopPlate_-_Cut
 62
7
100
AcDbSpline
 70
8
 71
3
 72
8
 73
4
 74
0
 40
0
 40
0
 40
0
 40
0
 40
1
 40
1
 40
1
 40
1
 10
825.096529
 20
-182.132345
 30
0.0
 10
824.405260
 20
-181.441377
 30
0.0
 10
824.016809
 20
-180.504091
 30
0.0
 10
824.016640
 20
-179.526703
 30
0.0
  0
SPLINE
  5
131
100
AcDbEntity
  8
TopPlate_-_Cut
 62
7
100
AcDbSpline
 70
8
 71
3
 72
8
 73
4
 74
0
 40
0
 40
0
 40
0
 40
0
 40
1
 40
1
 40
1
 40
1
 10
824.016640
 20
-179.526703
 30
0.0
 10
824.016406
 20
-178.549050
 30
0.0
 10
824.404679
 20
-177.611374
 30
0.0
 10
825.095991
 20
-176.920077
 30
0.0
  0
SPLINE
  5
132
100
AcDbEntity
  8
TopPlate_-_Cut
 62
7
100
AcDbSpline
 70
8
 71
3
 72
8
 73
4
 74
0
 40
0
 40
0
 40
0
 40
0
 40
1
 40
1
 40
1
 40
1
 10
825.095991
 20
-176.920077
 30
0.0
 10
825.787303
 20
-176.228780
 30
0.0
 10
826.724988
 20
-175.840528
 30
0.0
 10
827.702640
 20
-175.840783
 30
0.0
  0
LINE
  5
133
100
AcDbEntity
  8
TopPlate_-_Cut
 62
7
100
AcDbLine
 10
827.702640
 20
-175.840783
 30
0.0
 11
827.702640
 21
-175.840783
 31
0.0
  0
SPLINE
  5
134
100
AcDbEntity
  8
TopPlate_-_Cut
 62
7
100
AcDbSpline
 70
8
 71
3
 72
8
 73
4
 74
0
 40
0
 40
0
 40
0
 40
0
 40
1
 40
1
 40
1
 40
1
 10
385.825120
 20
-376.026087
 30
0.0
 10
365.975340
 20
-376.025881
 30
0.0
 10
349.883602
 20
-392.116866
 30
0.0
 10
349.882880
 20
-411.966647
 30
0.0
  0
SPLINE
  5
135
100
AcDbEntity
  8
TopPlate_-_Cut
 62
7
100
AcDbSpline
 70
8
 71
3
 72
8
 73
4
 74
0
 40
0
 40
0
 40
0
 40
0
 40
1
 40
1
 40
1
 40
1
 10
349.882880
 20
-411.966647
 30
0.0
 10
349.882781
 20
-421.499152
 30
0.0
 10
353.669510
 20
-430.641258
 30
0.0
 10
360.410009
 20
-437.381757
 30
0.0
  0
SPLINE
  5
136
100
AcDbEntity
  8
TopPlate_-_Cut
 62
7
100
AcDbSpline
 70
8
 71
3
 72
8
 73
4
 74
0
 40
0
 40
0
 40
0
 40
0
 40
1
 40
1
 40
1
 40
1
 10
360.410009
 20
-437.381757
 30
0.0
 10
367.150508
 20
-444.122256
 30
0.0
 10
376.292615
 20
-447.908985
 30
0.0
 10
385.825120
 20
-447.908887
 30
0.0
  0
SPLINE
  5
137
100
AcDbEntity
  8
TopPlate_-_Cut
 62
7
100
AcDbSpline
 70
8
 71
3
 72
8
 73
4
 74
0
 40
0
 40
0
 40
0
 40
0
 40
1
 40
1
 40
1
 40
1
 10
385.825120
 20
-447.908887
 30
0.0
 10
405.674900
 20
-447.908165
 30
0.0
 10
421.765886
 20
-431.816427
 30
0.0
 10
421.765680
 20
-411.966647
 30
0.0
  0
SPLINE
  5
138
100
AcDbEntity
  8
TopPlate_-_Cut
 62
7
100
AcDbSpline
 70
8
 71
3
 72
8
 73
4
 74
0
 40
0
 40
0
 40
0
 40
0
 40
1
 40
1
 40
1
 40
1
 10
421.765680
 20
-411.966647
 30
0.0
 10
421.764958
 20
-392.117522
 30
0.0
 10
405.674244
 20
-376.026808
 30
0.0
 10
385.825120
 20
-376.026087
 30
0.0
  0
LINE
  5
139
100
AcDbEntity
  8
TopPlate_-_Cut
 62
7
100
AcDbLine
 10
385.825120
 20
-376.026087
 30
0.0
 11
385.825120
 21
-376.026087
 31
0.0
  0
SPLINE
  5
13a
100
AcDbEntity
  8
TopPlate_-_Cut
 62
7
100
AcDbSpline
 70
8
 71
3
 72
8
 73
4
 74
0
 40
0
 40
0
 40
0
 40
0
 40
1
 40
1
 40
1
 40
1
 10
385.825120
 20
-385.604167
 30
0.0
 10
386.802481
 20
-385.604357
 30
0.0
 10
387.739734
 20
-385.992806
 30
0.0
 10
388.430683
 20
-386.684055
 30
0.0
  0
SPLINE
  5
13b
100
AcDbEntity
  8
TopPlate_-_Cut
 62
7
100
AcDbSpline
 70
8
 71
3
 72
8
 73
4
 74
0
 40
0
 40
0
 40
0
 40
0
 40
1
 40
1
 40
1
 40
1
 10
388.430683
 20
-386.684055
 30
0.0
 10
389.121631
 20
-387.375304
 30
0.0
 10
389.509674
 20
-388.312725
 30
0.0
 10
389.509440
 20
-389.290087
 30
0.0
  0
SPLINE
  5
13c
100
AcDbEntity
  8
TopPlate_-_Cut
 62
7
100
AcDbSpline
 70
8
 71
3
 72
8
 73
4
 74
0
 40
0
 40
0
 40
0
 40
0
 40
1
 40
1
 40
1
 40
1
 10
389.509440
 20
-389.290087
 30
0.0
 10
389.509087
 20
-391.324747
 30
0.0
 10
387.859781
 20
-392.974090
 30
0.0
 10
385.825120
 20
-392.974487
 30
0.0
  0
SPLINE
  5
13d
100
AcDbEntity
  8
TopPlate_-_Cut
 62
7
100
AcDbSpline
 70
8
 71
3
 72
8
 73
4
 74
0
 40
0
 40
0
 40
0
 40
0
 40
1
 40
1
 40
1
 40
1
 10
385.825120
 20
-392.974487
 30
0.0
 10
384.847731
 20
-392.974741
 30
0.0
 10
383.910277
 20
-392.586698
 30
0.0
 10
383.219009
 20
-391.895729
 30
0.0
  0
SPLINE
  5
13e
100
AcDbEntity
  8
TopPlate_-_Cut
 62
7
100
AcDbSpline
 70
8
 71
3
 72
8
 73
4
 74
0
 40
0
 40
0
 40
0
 40
0
 40
1
 40
1
 40
1
 40
1
 10
383.219009
 20
-391.895729
 30
0.0
 10
382.527740
 20
-391.204761
 30
0.0
 10
382.139289
 20
-390.267475
 30
0.0
 10
382.139120
 20
-389.290087
 30
0.0
  0
SPLINE
  5
13f
100
AcDbEntity
  8
TopPlate_-_Cut
 62
7
100
AcDbSpline
 70
8
 71
3
 72
8
 73
4
 74
0
 40
0
 40
0
 40
0
 40
0
 40
1
 40
1
 40
1
 40
1
 10
382.139120
 20
-389.290087
 30
0.0
 10
382.138886
 20
-388.312434
 30
0.0
 10
382.527159
 20
-387.374758
 30
0.0
 10
383.218471
 20
-386.683461
 30
0.0
  0
SPLINE
  5
140
100
AcDbEntity
  8
TopPlate_-_Cut
 62
7
100
AcDbSpline
 70
8
 71
3
 72
8
 73
4
 74
0
 40
0
 40
0
 40
0
 40
0
 40
1
 40
1
 40
1
 40
1
 10
383.218471
 20
-386.683461
 30
0.0
 10
383.909783
 20
-385.992164
 30
0.0
 10
384.847468
 20
-385.603912
 30
0.0
 10
385.825120
 20
-385.604167
 30
0.0
  0
LINE
  5
141
100
AcDbEntity
  8
TopPlate_-_Cut
 62
7
100
AcDbLine
 10
385.825120
 20
-385.604167
 30
0.0
 11
385.825120
 21
-385.604167
 31
0.0
  0
SPLINE
  5
142
100
AcDbEntity
  8
TopPlate_-_Cut
 62
7
100
AcDbSpline
 70
8
 71
3
 72
8
 73
4
 74
0
 40
0
 40
0
 40
0
 40
0
 40
1
 40
1
 40
1
 40
1
 10
366.186000
 20
-396.943207
 30
0.0
 10
367.163389
 20
-396.943376
 30
0.0
 10
368.100674
 20
-397.331827
 30
0.0
 10
368.791643
 20
-398.023095
 30
0.0
  0
SPLINE
  5
143
100
AcDbEntity
  8
TopPlate_-_Cut
 62
7
100
AcDbSpline
 70
8
 71
3
 72
8
 73
4
 74
0
 40
0
 40
0
 40
0
 40
0
 40
1
 40
1
 40
1
 40
1
 10
368.791643
 20
-398.023095
 30
0.0
 10
369.482611
 20
-398.714364
 30
0.0
 10
369.870655
 20
-399.651818
 30
0.0
 10
369.870400
 20
-400.629207
 30
0.0
  0
SPLINE
  5
144
100
AcDbEntity
  8
TopPlate_-_Cut
 62
7
100
AcDbSpline
 70
8
 71
3
 72
8
 73
4
 74
0
 40
0
 40
0
 40
0
 40
0
 40
1
 40
1
 40
1
 40
1
 10
369.870400
 20
-400.629207
 30
0.0
 10
369.870003
 20
-402.663867
 30
0.0
 10
368.220661
 20
-404.313174
 30
0.0
 10
366.186000
 20
-404.313527
 30
0.0
  0
SPLINE
  5
145
100
AcDbEntity
  8
TopPlate_-_Cut
 62
7
100
AcDbSpline
 70
8
 71
3
 72
8
 73
4
 74
0
 40
0
 40
0
 40
0
 40
0
 40
1
 40
1
 40
1
 40
1
 10
366.186000
 20
-404.313527
 30
0.0
 10
365.208639
 20
-404.313760
 30
0.0
 10
364.271217
 20
-403.925718
 30
0.0
 10
363.579969
 20
-403.234769
 30
0.0
  0
SPLINE
  5
146
100
AcDbEntity
  8
TopPlate_-_Cut
 62
7
100
AcDbSpline
 70
8
 71
3
 72
8
 73
4
 74
0
 40
0
 40
0
 40
0
 40
0
 40
1
 40
1
 40
1
 40
1
 10
363.579969
 20
-403.234769
 30
0.0
 10
362.888720
 20
-402.543821
 30
0.0
 10
362.500271
 20
-401.606568
 30
0.0
 10
362.500080
 20
-400.629207
 30
0.0
  0
SPLINE
  5
147
100
AcDbEntity
  8
TopPlate_-_Cut
 62
7
100
AcDbSpline
 70
8
 71
3
 72
8
 73
4
 74
0
 40
0
 40
0
 40
0
 40
0
 40
1
 40
1
 40
1
 40
1
 10
362.500080
 20
-400.629207
 30
0.0
 10
362.499825
 20
-399.651554
 30
0.0
 10
362.888078
 20
-398.713870
 30
0.0
 10
363.579375
 20
-398.022558
 30
0.0
  0
SPLINE
  5
148
100
AcDbEntity
  8
TopPlate_-_Cut
 62
7
100
AcDbSpline
 70
8
 71
3
 72
8
 73
4
 74
0
 40
0
 40
0
 40
0
 40
0
 40
1
 40
1
 40
1
 40
1
 10
363.579375
 20
-398.022558
 30
0.0
 10
364.270672
 20
-397.331246
 30
0.0
 10
365.208348
 20
-396.942973
 30
0.0
 10
366.186000
 20
-396.943207
 30
0.0
  0
LINE
  5
149
100
AcDbEntity
  8
TopPlate_-_Cut
 62
7
100
AcDbLine
 10
366.186000
 20
-396.943207
 30
0.0
 11
366.186000
 21
-396.943207
 31
0.0
  0
SPLINE
  5
14a
100
AcDbEntity
  8
TopPlate_-_Cut
 62
7
100
AcDbSpline
 70
8
 71
3
 72
8
 73
4
 74
0
 40
0
 40
0
 40
0
 40
0
 40
1
 40
1
 40
1
 40
1
 10
405.464160
 20
-396.943207
 30
0.0
 10
406.441549
 20
-396.943376
 30
0.0
 10
407.378834
 20
-397.331827
 30
0.0
 10
408.069803
 20
-398.023095
 30
0.0
  0
SPLINE
  5
14b
100
AcDbEntity
  8
TopPlate_-_Cut
 62
7
100
AcDbSpline
 70
8
 71
3
 72
8
 73
4
 74
0
 40
0
 40
0
 40
0
 40
0
 40
1
 40
1
 40
1
 40
1
 10
408.069803
 20
-398.023095
 30
0.0
 10
408.760771
 20
-398.714364
 30
0.0
 10
409.148815
 20
-399.651818
 30
0.0
 10
409.148560
 20
-400.629207
 30
0.0
  0
SPLINE
  5
14c
100
AcDbEntity
  8
TopPlate_-_Cut
 62
7
100
AcDbSpline
 70
8
 71
3
 72
8
 73
4
 74
0
 40
0
 40
0
 40
0
 40
0
 40
1
 40
1
 40
1
 40
1
 10
409.148560
 20
-400.629207
 30
0.0
 10
409.148163
 20
-402.663867
 30
0.0
 10
407.498821
 20
-404.313174
 30
0.0
 10
405.464160
 20
-404.313527
 30
0.0
  0
SPLINE
  5
14d
100
AcDbEntity
  8
TopPlate_-_Cut
 62
7
100
AcDbSpline
 70
8
 71
3
 72
8
 73
4
 74
0
 40
0
 40
0
 40
0
 40
0
 40
1
 40
1
 40
1
 40
1
 10
405.464160
 20
-404.313527
 30
0.0
 10
404.486799
 20
-404.313760
 30
0.0
 10
403.549377
 20
-403.925718
 30
0.0
 10
402.858129
 20
-403.234769
 30
0.0
  0
SPLINE
  5
14e
100
AcDbEntity
  8
TopPlate_-_Cut
 62
7
100
AcDbSpline
 70
8
 71
3
 72
8
 73
4
 74
0
 40
0
 40
0
 40
0
 40
0
 40
1
 40
1
 40
1
 40
1
 10
402.858129
 20
-403.234769
 30
0.0
 10
402.166880
 20
-402.543821
 30
0.0
 10
401.778431
 20
-401.606568
 30
0.0
 10
401.778240
 20
-400.629207
 30
0.0
  0
SPLINE
  5
14f
100
AcDbEntity
  8
TopPlate_-_Cut
 62
7
100
AcDbSpline
 70
8
 71
3
 72
8
 73
4
 74
0
 40
0
 40
0
 40
0
 40
0
 40
1
 40
1
 40
1
 40
1
 10
401.778240
 20
-400.629207
 30
0.0
 10
401.777985
 20
-399.651554
 30
0.0
 10
402.166238
 20
-398.713870
 30
0.0
 10
402.857535
 20
-398.022558
 30
0.0
  0
SPLINE
  5
150
100
AcDbEntity
  8
TopPlate_-_Cut
 62
7
100
AcDbSpline
 70
8
 71
3
 72
8
 73
4
 74
0
 40
0
 40
0
 40
0
 40
0
 40
1
 40
1
 40
1
 40
1
 10
402.857535
 20
-398.022558
 30
0.0
 10
403.548832
 20
-397.331246
 30
0.0
 10
404.486508
 20
-396.942973
 30
0.0
 10
405.464160
 20
-396.943207
 30
0.0
  0
LINE
  5
151
100
AcDbEntity
  8
TopPlate_-_Cut
 62
7
100
AcDbLine
 10
405.464160
 20
-396.943207
 30
0.0
 11
405.464160
 21
-396.943207
 31
0.0
  0
SPLINE
  5
152
100
AcDbEntity
  8
TopPlate_-_Cut
 62
7
100
AcDbSpline
 70
8
 71
3
 72
8
 73
4
 74
0
 40
0
 40
0
 40
0
 40
0
 40
1
 40
1
 40
1
 40
1
 10
366.186000
 20
-419.621367
 30
0.0
 10
368.220692
 20
-419.621719
 30
0.0
 10
369.870047
 20
-421.271075
 30
0.0
 10
369.870400
 20
-423.305767
 30
0.0
  0
SPLINE
  5
153
100
AcDbEntity
  8
TopPlate_-_Cut
 62
7
100
AcDbSpline
 70
8
 71
3
 72
8
 73
4
 74
0
 40
0
 40
0
 40
0
 40
0
 40
1
 40
1
 40
1
 40
1
 10
369.870400
 20
-423.305767
 30
0.0
 10
369.870003
 20
-425.340427
 30
0.0
 10
368.220661
 20
-426.989734
 30
0.0
 10
366.186000
 20
-426.990087
 30
0.0
  0
SPLINE
  5
154
100
AcDbEntity
  8
TopPlate_-_Cut
 62
7
100
AcDbSpline
 70
8
 71
3
 72
8
 73
4
 74
0
 40
0
 40
0
 40
0
 40
0
 40
1
 40
1
 40
1
 40
1
 10
366.186000
 20
-426.990087
 30
0.0
 10
365.208639
 20
-426.990320
 30
0.0
 10
364.271217
 20
-426.602278
 30
0.0
 10
363.579969
 20
-425.911329
 30
0.0
  0
SPLINE
  5
155
100
AcDbEntity
  8
TopPlate_-_Cut
 62
7
100
AcDbSpline
 70
8
 71
3
 72
8
 73
4
 74
0
 40
0
 40
0
 40
0
 40
0
 40
1
 40
1
 40
1
 40
1
 10
363.579969
 20
-425.911329
 30
0.0
 10
362.888720
 20
-425.220381
 30
0.0
 10
362.500271
 20
-424.283128
 30
0.0
 10
362.500080
 20
-423.305767
 30
0.0
  0
SPLINE
  5
156
100
AcDbEntity
  8
TopPlate_-_Cut
 62
7
100
AcDbSpline
 70
8
 71
3
 72
8
 73
4
 74
0
 40
0
 40
0
 40
0
 40
0
 40
1
 40
1
 40
1
 40
1
 10
362.500080
 20
-423.305767
 30
0.0
 10
362.500249
 20
-422.328392
 30
0.0
 10
362.888689
 20
-421.391118
 30
0.0
 10
363.579940
 20
-420.700152
 30
0.0
  0
SPLINE
  5
157
100
AcDbEntity
  8
TopPlate_-_Cut
 62
7
100
AcDbSpline
 70
8
 71
3
 72
8
 73
4
 74
0
 40
0
 40
0
 40
0
 40
0
 40
1
 40
1
 40
1
 40
1
 10
363.579940
 20
-420.700152
 30
0.0
 10
364.271191
 20
-420.009186
 30
0.0
 10
365.208625
 20
-419.621133
 30
0.0
 10
366.186000
 20
-419.621367
 30
0.0
  0
LINE
  5
158
100
AcDbEntity
  8
TopPlate_-_Cut
 62
7
100
AcDbLine
 10
366.186000
 20
-419.621367
 30
0.0
 11
366.186000
 21
-419.621367
 31
0.0
  0
SPLINE
  5
159
100
AcDbEntity
  8
TopPlate_-_Cut
 62
7
100
AcDbSpline
 70
8
 71
3
 72
8
 73
4
 74
0
 40
0
 40
0
 40
0
 40
0
 40
1
 40
1
 40
1
 40
1
 10
405.464160
 20
-419.621367
 30
0.0
 10
407.498852
 20
-419.621719
 30
0.0
 10
409.148207
 20
-421.271075
 30
0.0
 10
409.148560
 20
-423.305767
 30
0.0
  0
SPLINE
  5
15a
100
AcDbEntity
  8
TopPlate_-_Cut
 62
7
100
AcDbSpline
 70
8
 71
3
 72
8
 73
4
 74
0
 40
0
 40
0
 40
0
 40
0
 40
1
 40
1
 40
1
 40
1
 10
409.148560
 20
-423.305767
 30
0.0
 10
409.148163
 20
-425.340427
 30
0.0
 10
407.498821
 20
-426.989734
 30
0.0
 10
405.464160
 20
-426.990087
 30
0.0
  0
SPLINE
  5
15b
100
AcDbEntity
  8
TopPlate_-_Cut
 62
7
100
AcDbSpline
 70
8
 71
3
 72
8
 73
4
 74
0
 40
0
 40
0
 40
0
 40
0
 40
1
 40
1
 40
1
 40
1
 10
405.464160
 20
-426.990087
 30
0.0
 10
404.486799
 20
-426.990320
 30
0.0
 10
403.549377
 20
-426.602278
 30
0.0
 10
402.858129
 20
-425.911329
 30
0.0
  0
SPLINE
  5
15c
100
AcDbEntity
  8
TopPlate_-_Cut
 62
7
100
AcDbSpline
 70
8
 71
3
 72
8
 73
4
 74
0
 40
0
 40
0
 40
0
 40
0
 40
1
 40
1
 40
1
 40
1
 10
402.858129
 20
-425.911329
 30
0.0
 10
402.166880
 20
-425.220381
 30
0.0
 10
401.778431
 20
-424.283128
 30
0.0
 10
401.778240
 20
-423.305767
 30
0.0
  0
SPLINE
  5
15d
100
AcDbEntity
  8
TopPlate_-_Cut
 62
7
100
AcDbSpline
 70
8
 71
3
 72
8
 73
4
 74
0
 40
0
 40
0
 40
0
 40
0
 40
1
 40
1
 40
1
 40
1
 10
401.778240
 20
-423.305767
 30
0.0
 10
401.778409
 20
-422.328392
 30
0.0
 10
402.166849
 20
-421.391118
 30
0.0
 10
402.858100
 20
-420.700152
 30
0.0
  0
SPLINE
  5
15e
100
AcDbEntity
  8
TopPlate_-_Cut
 62
7
100
AcDbSpline
 70
8
 71
3
 72
8
 73
4
 74
0
 40
0
 40
0
 40
0
 40
0
 40
1
 40
1
 40
1
 40
1
 10
402.858100
 20
-420.700152
 30
0.0
 10
403.549351
 20
-420.009186
 30
0.0
 10
404.486785
 20
-419.621133
 30
0.0
 10
405.464160
 20
-419.621367
 30
0.0
  0
LINE
  5
15f
100
AcDbEntity
  8
TopPlate_-_Cut
 62
7
100
AcDbLine
 10
405.464160
 20
-419.621367
 30
0.0
 11
405.464160
 21
-419.621367
 31
0.0
  0
SPLINE
  5
160
100
AcDbEntity
  8
TopPlate_-_Cut
 62
7
100
AcDbSpline
 70
8
 71
3
 72
8
 73
4
 74
0
 40
0
 40
0
 40
0
 40
0
 40
1
 40
1
 40
1
 40
1
 10
385.825120
 20
-430.958887
 30
0.0
 10
386.802481
 20
-430.959077
 30
0.0
 10
387.739734
 20
-431.347526
 30
0.0
 10
388.430683
 20
-432.038775
 30
0.0
  0
SPLINE
  5
161
100
AcDbEntity
  8
TopPlate_-_Cut
 62
7
100
AcDbSpline
 70
8
 71
3
 72
8
 73
4
 74
0
 40
0
 40
0
 40
0
 40
0
 40
1
 40
1
 40
1
 40
1
 10
388.430683
 20
-432.038775
 30
0.0
 10
389.121631
 20
-432.730024
 30
0.0
 10
389.509674
 20
-433.667445
 30
0.0
 10
389.509440
 20
-434.644807
 30
0.0
  0
SPLINE
  5
162
100
AcDbEntity
  8
TopPlate_-_Cut
 62
7
100
AcDbSpline
 70
8
 71
3
 72
8
 73
4
 74
0
 40
0
 40
0
 40
0
 40
0
 40
1
 40
1
 40
1
 40
1
 10
389.509440
 20
-434.644807
 30
0.0
 10
389.509087
 20
-436.679467
 30
0.0
 10
387.859781
 20
-438.328810
 30
0.0
 10
385.825120
 20
-438.329207
 30
0.0
  0
SPLINE
  5
163
100
AcDbEntity
  8
TopPlate_-_Cut
 62
7
100
AcDbSpline
 70
8
 71
3
 72
8
 73
4
 74
0
 40
0
 40
0
 40
0
 40
0
 40
1
 40
1
 40
1
 40
1
 10
385.825120
 20
-438.329207
 30
0.0
 10
384.847731
 20
-438.329461
 30
0.0
 10
383.910277
 20
-437.941418
 30
0.0
 10
383.219009
 20
-437.250449
 30
0.0
  0
SPLINE
  5
164
100
AcDbEntity
  8
TopPlate_-_Cut
 62
7
100
AcDbSpline
 70
8
 71
3
 72
8
 73
4
 74
0
 40
0
 40
0
 40
0
 40
0
 40
1
 40
1
 40
1
 40
1
 10
383.219009
 20
-437.250449
 30
0.0
 10
382.527740
 20
-436.559481
 30
0.0
 10
382.139289
 20
-435.622195
 30
0.0
 10
382.139120
 20
-434.644807
 30
0.0
  0
SPLINE
  5
165
100
AcDbEntity
  8
TopPlate_-_Cut
 62
7
100
AcDbSpline
 70
8
 71
3
 72
8
 73
4
 74
0
 40
0
 40
0
 40
0
 40
0
 40
1
 40
1
 40
1
 40
1
 10
382.139120
 20
-434.644807
 30
0.0
 10
382.138886
 20
-433.667154
 30
0.0
 10
382.527159
 20
-432.729478
 30
0.0
 10
383.218471
 20
-432.038181
 30
0.0
  0
SPLINE
  5
166
100
AcDbEntity
  8
TopPlate_-_Cut
 62
7
100
AcDbSpline
 70
8
 71
3
 72
8
 73
4
 74
0
 40
0
 40
0
 40
0
 40
0
 40
1
 40
1
 40
1
 40
1
 10
383.218471
 20
-432.038181
 30
0.0
 10
383.909783
 20
-431.346884
 30
0.0
 10
384.847468
 20
-430.958632
 30
0.0
 10
385.825120
 20
-430.958887
 30
0.0
  0
LINE
  5
167
100
AcDbEntity
  8
TopPlate_-_Cut
 62
7
100
AcDbLine
 10
385.825120
 20
-430.958887
 30
0.0
 11
385.825120
 21
-430.958887
 31
0.0
  0
SPLINE
  5
168
100
AcDbEntity
  8
TopPlate_-_Cut
 62
7
100
AcDbSpline
 70
8
 71
3
 72
8
 73
4
 74
0
 40
0
 40
0
 40
0
 40
0
 40
1
 40
1
 40
1
 40
1
 10
385.825120
 20
134.210122
 30
0.0
 10
365.975340
 20
134.210328
 30
0.0
 10
349.883602
 20
118.119342
 30
0.0
 10
349.882880
 20
98.269562
 30
0.0
  0
SPLINE
  5
169
100
AcDbEntity
  8
TopPlate_-_Cut
 62
7
100
AcDbSpline
 70
8
 71
3
 72
8
 73
4
 74
0
 40
0
 40
0
 40
0
 40
0
 40
1
 40
1
 40
1
 40
1
 10
349.882880
 20
98.269562
 30
0.0
 10
349.882781
 20
88.737057
 30
0.0
 10
353.669510
 20
79.594950
 30
0.0
 10
360.410009
 20
72.854451
 30
0.0
  0
SPLINE
  5
16a
100
AcDbEntity
  8
TopPlate_-_Cut
 62
7
100
AcDbSpline
 70
8
 71
3
 72
8
 73
4
 74
0
 40
0
 40
0
 40
0
 40
0
 40
1
 40
1
 40
1
 40
1
 10
360.410009
 20
72.854451
 30
0.0
 10
367.150508
 20
66.113952
 30
0.0
 10
376.292615
 20
62.327223
 30
0.0
 10
385.825120
 20
62.327322
 30
0.0
  0
SPLINE
  5
16b
100
AcDbEntity
  8
TopPlate_-_Cut
 62
7
100
AcDbSpline
 70
8
 71
3
 72
8
 73
4
 74
0
 40
0
 40
0
 40
0
 40
0
 40
1
 40
1
 40
1
 40
1
 10
385.825120
 20
62.327322
 30
0.0
 10
405.674900
 20
62.328044
 30
0.0
 10
421.765886
 20
78.419782
 30
0.0
 10
421.765680
 20
98.269562
 30
0.0
  0
SPLINE
  5
16c
100
AcDbEntity
  8
TopPlate_-_Cut
 62
7
100
AcDbSpline
 70
8
 71
3
 72
8
 73
4
 74
0
 40
0
 40
0
 40
0
 40
0
 40
1
 40
1
 40
1
 40
1
 10
421.765680
 20
98.269562
 30
0.0
 10
421.764958
 20
118.118686
 30
0.0
 10
405.674244
 20
134.209400
 30
0.0
 10
385.825120
 20
134.210122
 30
0.0
  0
LINE
  5
16d
100
AcDbEntity
  8
TopPlate_-_Cut
 62
7
100
AcDbLine
 10
385.825120
 20
134.210122
 30
0.0
 11
385.825120
 21
134.210122
 31
0.0
  0
SPLINE
  5
16e
100
AcDbEntity
  8
TopPlate_-_Cut
 62
7
100
AcDbSpline
 70
8
 71
3
 72
8
 73
4
 74
0
 40
0
 40
0
 40
0
 40
0
 40
1
 40
1
 40
1
 40
1
 10
385.825120
 20
124.632042
 30
0.0
 10
386.802481
 20
124.631852
 30
0.0
 10
387.739734
 20
124.243402
 30
0.0
 10
388.430683
 20
123.552154
 30
0.0
  0
SPLINE
  5
16f
100
AcDbEntity
  8
TopPlate_-_Cut
 62
7
100
AcDbSpline
 70
8
 71
3
 72
8
 73
4
 74
0
 40
0
 40
0
 40
0
 40
0
 40
1
 40
1
 40
1
 40
1
 10
388.430683
 20
123.552154
 30
0.0
 10
389.121631
 20
122.860905
 30
0.0
 10
389.509674
 20
121.923483
 30
0.0
 10
389.509440
 20
120.946122
 30
0.0
  0
SPLINE
  5
170
100
AcDbEntity
  8
TopPlate_-_Cut
 62
7
100
AcDbSpline
 70
8
 71
3
 72
8
 73
4
 74
0
 40
0
 40
0
 40
0
 40
0
 40
1
 40
1
 40
1
 40
1
 10
389.509440
 20
120.946122
 30
0.0
 10
389.509087
 20
118.911462
 30
0.0
 10
387.859781
 20
117.262119
 30
0.0
 10
385.825120
 20
117.261722
 30
0.0
  0
SPLINE
  5
171
100
AcDbEntity
  8
TopPlate_-_Cut
 62
7
100
AcDbSpline
 70
8
 71
3
 72
8
 73
4
 74
0
 40
0
 40
0
 40
0
 40
0
 40
1
 40
1
 40
1
 40
1
 10
385.825120
 20
117.261722
 30
0.0
 10
384.847731
 20
117.261467
 30
0.0
 10
383.910277
 20
117.649511
 30
0.0
 10
383.219009
 20
118.340479
 30
0.0
  0
SPLINE
  5
172
100
AcDbEntity
  8
TopPlate_-_Cut
 62
7
100
AcDbSpline
 70
8
 71
3
 72
8
 73
4
 74
0
 40
0
 40
0
 40
0
 40
0
 40
1
 40
1
 40
1
 40
1
 10
383.219009
 20
118.340479
 30
0.0
 10
382.527740
 20
119.031448
 30
0.0
 10
382.139289
 20
119.968733
 30
0.0
 10
382.139120
 20
120.946122
 30
0.0
  0
SPLINE
  5
173
100
AcDbEntity
  8
TopPlate_-_Cut
 62
7
100
AcDbSpline
 70
8
 71
3
 72
8
 73
4
 74
0
 40
0
 40
0
 40
0
 40
0
 40
1
 40
1
 40
1
 40
1
 10
382.139120
 20
120.946122
 30
0.0
 10
382.138886
 20
121.923774
 30
0.0
 10
382.527159
 20
122.861451
 30
0.0
 10
383.218471
 20
123.552748
 30
0.0
  0
SPLINE
  5
174
100
AcDbEntity
  8
TopPlate_-_Cut
 62
7
100
AcDbSpline
 70
8
 71
3
 72
8
 73
4
 74
0
 40
0
 40
0
 40
0
 40
0
 40
1
 40
1
 40
1
 40
1
 10
383.218471
 20
123.552748
 30
0.0
 10
383.909783
 20
124.244045
 30
0.0
 10
384.847468
 20
124.632297
 30
0.0
 10
385.825120
 20
124.632042
 30
0.0
  0
LINE
  5
175
100
AcDbEntity
  8
TopPlate_-_Cut
 62
7
100
AcDbLine
 10
385.825120
 20
124.632042
 30
0.0
 11
385.825120
 21
124.632042
 31
0.0
  0
SPLINE
  5
176
100
AcDbEntity
  8
TopPlate_-_Cut
 62
7
100
AcDbSpline
 70
8
 71
3
 72
8
 73
4
 74
0
 40
0
 40
0
 40
0
 40
0
 40
1
 40
1
 40
1
 40
1
 10
366.186000
 20
113.293002
 30
0.0
 10
367.163389
 20
113.292833
 30
0.0
 10
368.100674
 20
112.904382
 30
0.0
 10
368.791643
 20
112.213114
 30
0.0
  0
SPLINE
  5
177
100
AcDbEntity
  8
TopPlate_-_Cut
 62
7
100
AcDbSpline
 70
8
 71
3
 72
8
 73
4
 74
0
 40
0
 40
0
 40
0
 40
0
 40
1
 40
1
 40
1
 40
1
 10
368.791643
 20
112.213114
 30
0.0
 10
369.482611
 20
111.521845
 30
0.0
 10
369.870655
 20
110.584391
 30
0.0
 10
369.870400
 20
109.607002
 30
0.0
  0
SPLINE
  5
178
100
AcDbEntity
  8
TopPlate_-_Cut
 62
7
100
AcDbSpline
 70
8
 71
3
 72
8
 73
4
 74
0
 40
0
 40
0
 40
0
 40
0
 40
1
 40
1
 40
1
 40
1
 10
369.870400
 20
109.607002
 30
0.0
 10
369.870003
 20
107.572342
 30
0.0
 10
368.220661
 20
105.923035
 30
0.0
 10
366.186000
 20
105.922682
 30
0.0
  0
SPLINE
  5
179
100
AcDbEntity
  8
TopPlate_-_Cut
 62
7
100
AcDbSpline
 70
8
 71
3
 72
8
 73
4
 74
0
 40
0
 40
0
 40
0
 40
0
 40
1
 40
1
 40
1
 40
1
 10
366.186000
 20
105.922682
 30
0.0
 10
365.208639
 20
105.922449
 30
0.0
 10
364.271217
 20
106.310491
 30
0.0
 10
363.579969
 20
107.001439
 30
0.0
  0
SPLINE
  5
17a
100
AcDbEntity
  8
TopPlate_-_Cut
 62
7
100
AcDbSpline
 70
8
 71
3
 72
8
 73
4
 74
0
 40
0
 40
0
 40
0
 40
0
 40
1
 40
1
 40
1
 40
1
 10
363.579969
 20
107.001439
 30
0.0
 10
362.888720
 20
107.692388
 30
0.0
 10
362.500271
 20
108.629641
 30
0.0
 10
362.500080
 20
109.607002
 30
0.0
  0
SPLINE
  5
17b
100
AcDbEntity
  8
TopPlate_-_Cut
 62
7
100
AcDbSpline
 70
8
 71
3
 72
8
 73
4
 74
0
 40
0
 40
0
 40
0
 40
0
 40
1
 40
1
 40
1
 40
1
 10
362.500080
 20
109.607002
 30
0.0
 10
362.499825
 20
110.584654
 30
0.0
 10
362.888078
 20
111.522339
 30
0.0
 10
363.579375
 20
112.213651
 30
0.0
  0
SPLINE
  5
17c
100
AcDbEntity
  8
TopPlate_-_Cut
 62
7
100
AcDbSpline
 70
8
 71
3
 72
8
 73
4
 74
0
 40
0
 40
0
 40
0
 40
0
 40
1
 40
1
 40
1
 40
1
 10
363.579375
 20
112.213651
 30
0.0
 10
364.270672
 20
112.904963
 30
0.0
 10
365.208348
 20
113.293236
 30
0.0
 10
366.186000
 20
113.293002
 30
0.0
  0
LINE
  5
17d
100
AcDbEntity
  8
TopPlate_-_Cut
 62
7
100
AcDbLine
 10
366.186000
 20
113.293002
 30
0.0
 11
366.186000
 21
113.293002
 31
0.0
  0
SPLINE
  5
17e
100
AcDbEntity
  8
TopPlate_-_Cut
 62
7
100
AcDbSpline
 70
8
 71
3
 72
8
 73
4
 74
0
 40
0
 40
0
 40
0
 40
0
 40
1
 40
1
 40
1
 40
1
 10
405.464160
 20
113.293002
 30
0.0
 10
406.441549
 20
113.292833
 30
0.0
 10
407.378834
 20
112.904382
 30
0.0
 10
408.069803
 20
112.213114
 30
0.0
  0
SPLINE
  5
17f
100
AcDbEntity
  8
TopPlate_-_Cut
 62
7
100
AcDbSpline
 70
8
 71
3
 72
8
 73
4
 74
0
 40
0
 40
0
 40
0
 40
0
 40
1
 40
1
 40
1
 40
1
 10
408.069803
 20
112.213114
 30
0.0
 10
408.760771
 20
111.521845
 30
0.0
 10
409.148815
 20
110.584391
 30
0.0
 10
409.148560
 20
109.607002
 30
0.0
  0
SPLINE
  5
180
100
AcDbEntity
  8
TopPlate_-_Cut
 62
7
100
AcDbSpline
 70
8
 71
3
 72
8
 73
4
 74
0
 40
0
 40
0
 40
0
 40
0
 40
1
 40
1
 40
1
 40
1
 10
409.148560
 20
109.607002
 30
0.0
 10
409.148163
 20
107.572342
 30
0.0
 10
407.498821
 20
105.923035
 30
0.0
 10
405.464160
 20
105.922682
 30
0.0
  0
SPLINE
  5
181
100
AcDbEntity
  8
TopPlate_-_Cut
 62
7
100
AcDbSpline
 70
8
 71
3
 72
8
 73
4
 74
0
 40
0
 40
0
 40
0
 40
0
 40
1
 40
1
 40
1
 40
1
 10
405.464160
 20
105.922682
 30
0.0
 10
404.486799
 20
105.922449
 30
0.0
 10
403.549377
 20
106.310491
 30
0.0
 10
402.858129
 20
107.001439
 30
0.0
  0
SPLINE
  5
182
100
AcDbEntity
  8
TopPlate_-_Cut
 62
7
100
AcDbSpline
 70
8
 71
3
 72
8
 73
4
 74
0
 40
0
 40
0
 40
0
 40
0
 40
1
 40
1
 40
1
 40
1
 10
402.858129
 20
107.001439
 30
0.0
 10
402.166880
 20
107.692388
 30
0.0
 10
401.778431
 20
108.629641
 30
0.0
 10
401.778240
 20
109.607002
 30
0.0
  0
SPLINE
  5
183
100
AcDbEntity
  8
TopPlate_-_Cut
 62
7
100
AcDbSpline
 70
8
 71
3
 72
8
 73
4
 74
0
 40
0
 40
0
 40
0
 40
0
 40
1
 40
1
 40
1
 40
1
 10
401.778240
 20
109.607002
 30
0.0
 10
401.777985
 20
110.584654
 30
0.0
 10
402.166238
 20
111.522339
 30
0.0
 10
402.857535
 20
112.213651
 30
0.0
  0
SPLINE
  5
184
100
AcDbEntity
  8
TopPlate_-_Cut
 62
7
100
AcDbSpline
 70
8
 71
3
 72
8
 73
4
 74
0
 40
0
 40
0
 40
0
 40
0
 40
1
 40
1
 40
1
 40
1
 10
402.857535
 20
112.213651
 30
0.0
 10
403.548832
 20
112.904963
 30
0.0
 10
404.486508
 20
113.293236
 30
0.0
 10
405.464160
 20
113.293002
 30
0.0
  0
LINE
  5
185
100
AcDbEntity
  8
TopPlate_-_Cut
 62
7
100
AcDbLine
 10
405.464160
 20
113.293002
 30
0.0
 11
405.464160
 21
113.293002
 31
0.0
  0
SPLINE
  5
186
100
AcDbEntity
  8
TopPlate_-_Cut
 62
7
100
AcDbSpline
 70
8
 71
3
 72
8
 73
4
 74
0
 40
0
 40
0
 40
0
 40
0
 40
1
 40
1
 40
1
 40
1
 10
366.186000
 20
90.614842
 30
0.0
 10
368.220692
 20
90.614489
 30
0.0
 10
369.870047
 20
88.965134
 30
0.0
 10
369.870400
 20
86.930442
 30
0.0
  0
SPLINE
  5
187
100
AcDbEntity
  8
TopPlate_-_Cut
 62
7
100
AcDbSpline
 70
8
 71
3
 72
8
 73
4
 74
0
 40
0
 40
0
 40
0
 40
0
 40
1
 40
1
 40
1
 40
1
 10
369.870400
 20
86.930442
 30
0.0
 10
369.870003
 20
84.895782
 30
0.0
 10
368.220661
 20
83.246475
 30
0.0
 10
366.186000
 20
83.246122
 30
0.0
  0
SPLINE
  5
188
100
AcDbEntity
  8
TopPlate_-_Cut
 62
7
100
AcDbSpline
 70
8
 71
3
 72
8
 73
4
 74
0
 40
0
 40
0
 40
0
 40
0
 40
1
 40
1
 40
1
 40
1
 10
366.186000
 20
83.246122
 30
0.0
 10
365.208639
 20
83.245889
 30
0.0
 10
364.271217
 20
83.633931
 30
0.0
 10
363.579969
 20
84.324879
 30
0.0
  0
SPLINE
  5
189
100
AcDbEntity
  8
TopPlate_-_Cut
 62
7
100
AcDbSpline
 70
8
 71
3
 72
8
 73
4
 74
0
 40
0
 40
0
 40
0
 40
0
 40
1
 40
1
 40
1
 40
1
 10
363.579969
 20
84.324879
 30
0.0
 10
362.888720
 20
85.015828
 30
0.0
 10
362.500271
 20
85.953081
 30
0.0
 10
362.500080
 20
86.930442
 30
0.0
  0
SPLINE
  5
18a
100
AcDbEntity
  8
TopPlate_-_Cut
 62
7
100
AcDbSpline
 70
8
 71
3
 72
8
 73
4
 74
0
 40
0
 40
0
 40
0
 40
0
 40
1
 40
1
 40
1
 40
1
 10
362.500080
 20
86.930442
 30
0.0
 10
362.500249
 20
87.907817
 30
0.0
 10
362.888689
 20
88.845091
 30
0.0
 10
363.579940
 20
89.536057
 30
0.0
  0
SPLINE
  5
18b
100
AcDbEntity
  8
TopPlate_-_Cut
 62
7
100
AcDbSpline
 70
8
 71
3
 72
8
 73
4
 74
0
 40
0
 40
0
 40
0
 40
0
 40
1
 40
1
 40
1
 40
1
 10
363.579940
 20
89.536057
 30
0.0
 10
364.271191
 20
90.227023
 30
0.0
 10
365.208625
 20
90.615076
 30
0.0
 10
366.186000
 20
90.614842
 30
0.0
  0
LINE
  5
18c
100
AcDbEntity
  8
TopPlate_-_Cut
 62
7
100
AcDbLine
 10
366.186000
 20
90.614842
 30
0.0
 11
366.186000
 21
90.614842
 31
0.0
  0
SPLINE
  5
18d
100
AcDbEntity
  8
TopPlate_-_Cut
 62
7
100
AcDbSpline
 70
8
 71
3
 72
8
 73
4
 74
0
 40
0
 40
0
 40
0
 40
0
 40
1
 40
1
 40
1
 40
1
 10
405.464160
 20
90.614842
 30
0.0
 10
407.498852
 20
90.614489
 30
0.0
 10
409.148207
 20
88.965134
 30
0.0
 10
409.148560
 20
86.930442
 30
0.0
  0
SPLINE
  5
18e
100
AcDbEntity
  8
TopPlate_-_Cut
 62
7
100
AcDbSpline
 70
8
 71
3
 72
8
 73
4
 74
0
 40
0
 40
0
 40
0
 40
0
 40
1
 40
1
 40
1
 40
1
 10
409.148560
 20
86.930442
 30
0.0
 10
409.148163
 20
84.895782
 30
0.0
 10
407.498821
 20
83.246475
 30
0.0
 10
405.464160
 20
83.246122
 30
0.0
  0
SPLINE
  5
18f
100
AcDbEntity
  8
TopPlate_-_Cut
 62
7
100
AcDbSpline
 70
8
 71
3
 72
8
 73
4
 74
0
 40
0
 40
0
 40
0
 40
0
 40
1
 40
1
 40
1
 40
1
 10
405.464160
 20
83.246122
 30
0.0
 10
404.486799
 20
83.245889
 30
0.0
 10
403.549377
 20
83.633931
 30
0.0
 10
402.858129
 20
84.324879
 30
0.0
  0
SPLINE
  5
190
100
AcDbEntity
  8
TopPlate_-_Cut
 62
7
100
AcDbSpline
 70
8
 71
3
 72
8
 73
4
 74
0
 40
0
 40
0
 40
0
 40
0
 40
1
 40
1
 40
1
 40
1
 10
402.858129
 20
84.324879
 30
0.0
 10
402.166880
 20
85.015828
 30
0.0
 10
401.778431
 20
85.953081
 30
0.0
 10
401.778240
 20
86.930442
 30
0.0
  0
SPLINE
  5
191
100
AcDbEntity
  8
TopPlate_-_Cut
 62
7
100
AcDbSpline
 70
8
 71
3
 72
8
 73
4
 74
0
 40
0
 40
0
 40
0
 40
0
 40
1
 40
1
 40
1
 40
1
 10
401.778240
 20
86.930442
 30
0.0
 10
401.778409
 20
87.907817
 30
0.0
 10
402.166849
 20
88.845091
 30
0.0
 10
402.858100
 20
89.536057
 30
0.0
  0
SPLINE
  5
192
100
AcDbEntity
  8
TopPlate_-_Cut
 62
7
100
AcDbSpline
 70
8
 71
3
 72
8
 73
4
 74
0
 40
0
 40
0
 40
0
 40
0
 40
1
 40
1
 40
1
 40
1
 10
402.858100
 20
89.536057
 30
0.0
 10
403.549351
 20
90.227023
 30
0.0
 10
404.486785
 20
90.615076
 30
0.0
 10
405.464160
 20
90.614842
 30
0.0
  0
LINE
  5
193
100
AcDbEntity
  8
TopPlate_-_Cut
 62
7
100
AcDbLine
 10
405.464160
 20
90.614842
 30
0.0
 11
405.464160
 21
90.614842
 31
0.0
  0
SPLINE
  5
194
100
AcDbEntity
  8
TopPlate_-_Cut
 62
7
100
AcDbSpline
 70
8
 71
3
 72
8
 73
4
 74
0
 40
0
 40
0
 40
0
 40
0
 40
1
 40
1
 40
1
 40
1
 10
385.825120
 20
79.277322
 30
0.0
 10
386.802481
 20
79.277132
 30
0.0
 10
387.739734
 20
78.888682
 30
0.0
 10
388.430683
 20
78.197434
 30
0.0
  0
SPLINE
  5
195
100
AcDbEntity
  8
TopPlate_-_Cut
 62
7
100
AcDbSpline
 70
8
 71
3
 72
8
 73
4
 74
0
 40
0
 40
0
 40
0
 40
0
 40
1
 40
1
 40
1
 40
1
 10
388.430683
 20
78.197434
 30
0.0
 10
389.121631
 20
77.506185
 30
0.0
 10
389.509674
 20
76.568763
 30
0.0
 10
389.509440
 20
75.591402
 30
0.0
  0
SPLINE
  5
196
100
AcDbEntity
  8
TopPlate_-_Cut
 62
7
100
AcDbSpline
 70
8
 71
3
 72
8
 73
4
 74
0
 40
0
 40
0
 40
0
 40
0
 40
1
 40
1
 40
1
 40
1
 10
389.509440
 20
75.591402
 30
0.0
 10
389.509087
 20
73.556742
 30
0.0
 10
387.859781
 20
71.907399
 30
0.0
 10
385.825120
 20
71.907002
 30
0.0
  0
SPLINE
  5
197
100
AcDbEntity
  8
TopPlate_-_Cut
 62
7
100
AcDbSpline
 70
8
 71
3
 72
8
 73
4
 74
0
 40
0
 40
0
 40
0
 40
0
 40
1
 40
1
 40
1
 40
1
 10
385.825120
 20
71.907002
 30
0.0
 10
384.847731
 20
71.906747
 30
0.0
 10
383.910277
 20
72.294791
 30
0.0
 10
383.219009
 20
72.985759
 30
0.0
  0
SPLINE
  5
198
100
AcDbEntity
  8
TopPlate_-_Cut
 62
7
100
AcDbSpline
 70
8
 71
3
 72
8
 73
4
 74
0
 40
0
 40
0
 40
0
 40
0
 40
1
 40
1
 40
1
 40
1
 10
383.219009
 20
72.985759
 30
0.0
 10
382.527740
 20
73.676728
 30
0.0
 10
382.139289
 20
74.614013
 30
0.0
 10
382.139120
 20
75.591402
 30
0.0
  0
SPLINE
  5
199
100
AcDbEntity
  8
TopPlate_-_Cut
 62
7
100
AcDbSpline
 70
8
 71
3
 72
8
 73
4
 74
0
 40
0
 40
0
 40
0
 40
0
 40
1
 40
1
 40
1
 40
1
 10
382.139120
 20
75.591402
 30
0.0
 10
382.138886
 20
76.569054
 30
0.0
 10
382.527159
 20
77.506731
 30
0.0
 10
383.218471
 20
78.198028
 30
0.0
  0
SPLINE
  5
19a
100
AcDbEntity
  8
TopPlate_-_Cut
 62
7
100
AcDbSpline
 70
8
 71
3
 72
8
 73
4
 74
0
 40
0
 40
0
 40
0
 40
0
 40
1
 40
1
 40
1
 40
1
 10
383.218471
 20
78.198028
 30
0.0
 10
383.909783
 20
78.889325
 30
0.0
 10
384.847468
 20
79.277577
 30
0.0
 10
385.825120
 20
79.277322
 30
0.0
  0
LINE
  5
19b
100
AcDbEntity
  8
TopPlate_-_Cut
 62
7
100
AcDbLine
 10
385.825120
 20
79.277322
 30
0.0
 11
385.825120
 21
79.277322
 31
0.0
  0
SPLINE
  5
19c
100
AcDbEntity
  8
TopPlate_-_Cut
 62
7
100
AcDbSpline
 70
8
 71
3
 72
8
 73
4
 74
0
 40
0
 40
0
 40
0
 40
0
 40
1
 40
1
 40
1
 40
1
 10
819.137840
 20
276.628113
 30
0.0
 10
810.199600
 20
292.109689
 30
0.0
 10
783.385200
 20
307.590929
 30
0.0
 10
765.508800
 20
307.590889
 30
0.0
  0
LINE
  5
19d
100
AcDbEntity
  8
TopPlate_-_Cut
 62
7
100
AcDbLine
 10
765.508800
 20
307.590889
 30
0.0
 11
300.724560
 21
307.590913
 31
0.0
  0
SPLINE
  5
19e
100
AcDbEntity
  8
TopPlate_-_Cut
 62
7
100
AcDbSpline
 70
8
 71
3
 72
8
 73
4
 74
0
 40
0
 40
0
 40
0
 40
0
 40
1
 40
1
 40
1
 40
1
 10
300.724560
 20
307.590913
 30
0.0
 10
282.848240
 20
307.590913
 30
0.0
 10
256.033840
 20
292.109609
 30
0.0
 10
247.095680
 20
276.628249
 30
0.0
  0
LINE
  5
19f
100
AcDbEntity
  8
TopPlate_-_Cut
 62
7
100
AcDbLine
 10
247.095680
 20
276.628249
 30
0.0
 11
14.703360
 21
-125.886799
 31
0.0
  0
SPLINE
  5
1a0
100
AcDbEntity
  8
TopPlate_-_Cut
 62
7
100
AcDbSpline
 70
8
 71
3
 72
8
 73
4
 74
0
 40
0
 40
0
 40
0
 40
0
 40
1
 40
1
 40
1
 40
1
 10
14.703360
 20
-125.886799
 30
0.0
 10
5.765520
 20
-141.368231
 30
0.0
 10
5.765600
 20
-172.330863
 30
0.0
 10
14.703600
 20
-187.812047
 30
0.0
  0
LINE
  5
1a1
100
AcDbEntity
  8
TopPlate_-_Cut
 62
7
100
AcDbLine
 10
14.703600
 20
-187.812047
 30
0.0
 11
247.095760
 21
-590.326935
 31
0.0
  0
SPLINE
  5
1a2
100
AcDbEntity
  8
TopPlate_-_Cut
 62
7
100
AcDbSpline
 70
8
 71
3
 72
8
 73
4
 74
0
 40
0
 40
0
 40
0
 40
0
 40
1
 40
1
 40
1
 40
1
 10
247.095760
 20
-590.326935
 30
0.0
 10
256.033920
 20
-605.808631
 30
0.0
 10
282.848320
 20
-621.289663
 30
0.0
 10
300.724640
 20
-621.289679
 30
0.0
  0
LINE
  5
1a3
100
AcDbEntity
  8
TopPlate_-_Cut
 62
7
100
AcDbLine
 10
300.724640
 20
-621.289679
 30
0.0
 11
765.508720
 21
-621.289503
 31
0.0
  0
SPLINE
  5
1a4
100
AcDbEntity
  8
TopPlate_-_Cut
 62
7
100
AcDbSpline
 70
8
 71
3
 72
8
 73
4
 74
0
 40
0
 40
0
 40
0
 40
0
 40
1
 40
1
 40
1
 40
1
 10
765.508720
 20
-621.289503
 30
0.0
 10
783.385200
 20
-621.289711
 30
0.0
 10
810.199600
 20
-605.808567
 30
0.0
 10
819.137840
 20
-590.326927
 30
0.0
  0
LINE
  5
1a5
100
AcDbEntity
  8
TopPlate_-_Cut
 62
7
100
AcDbLine
 10
819.137840
 20
-590.326927
 30
0.0
 11
1051.529760
 21
-187.812063
 31
0.0
  0
SPLINE
  5
1a6
100
AcDbEntity
  8
TopPlate_-_Cut
 62
7
100
AcDbSpline
 70
8
 71
3
 72
8
 73
4
 74
0
 40
0
 40
0
 40
0
 40
0
 40
1
 40
1
 40
1
 40
1
 10
1051.529760
 20
-187.812063
 30
0.0
 10
1060.468080
 20
-172.330919
 30
0.0
 10
1060.468080
 20
-141.368039
 30
0.0
 10
1051.529840
 20
-125.886695
 30
0.0
  0
LINE
  5
1a7
100
AcDbEntity
  8
TopPlate_-_Cut
 62
7
100
AcDbLine
 10
1051.529840
 20
-125.886695
 30
0.0
 11
819.137840
 21
276.628113
 31
0.0
  0
LINE
  5
1a8
100
AcDbEntity
  8
TopPlate_-_Cut
 62
7
100
AcDbLine
 10
292.172240
 20
295.348273
 30
0.0
 11
292.172240
 21
281.032649
 31
0.0
  0
LINE
  5
1a9
100
AcDbEntity
  8
TopPlate_-_Cut
 62
7
100
AcDbLine
 10
292.172240
 20
281.032649
 30
0.0
 11
320.519120
 21
281.032649
 31
0.0
  0
LINE
  5
1aa
100
AcDbEntity
  8
TopPlate_-_Cut
 62
7
100
AcDbLine
 10
320.519120
 20
281.032649
 30
0.0
 11
320.519120
 21
295.348273
 31
0.0
  0
LINE
  5
1ab
100
AcDbEntity
  8
TopPlate_-_Cut
 62
7
100
AcDbLine
 10
320.519120
 20
295.348273
 30
0.0
 11
292.172240
 21
295.348273
 31
0.0
  0
LINE
  5
1ac
100
AcDbEntity
  8
TopPlate_-_Cut
 62
7
100
AcDbLine
 10
292.172240
 20
295.348273
 30
0.0
 11
292.172240
 21
295.348273
 31
0.0
  0
LINE
  5
1ad
100
AcDbEntity
  8
TopPlate_-_Cut
 62
7
100
AcDbLine
 10
377.211280
 20
295.348273
 30
0.0
 11
377.211280
 21
281.032649
 31
0.0
  0
LINE
  5
1ae
100
AcDbEntity
  8
TopPlate_-_Cut
 62
7
100
AcDbLine
 10
377.211280
 20
281.032649
 30
0.0
 11
433.905040
 21
281.032649
 31
0.0
  0
LINE
  5
1af
100
AcDbEntity
  8
TopPlate_-_Cut
 62
7
100
AcDbLine
 10
433.905040
 20
281.032649
 30
0.0
 11
433.905040
 21
295.348273
 31
0.0
  0
LINE
  5
1b0
100
AcDbEntity
  8
TopPlate_-_Cut
 62
7
100
AcDbLine
 10
433.905040
 20
295.348273
 30
0.0
 11
377.211280
 21
295.348273
 31
0.0
  0
LINE
  5
1b1
100
AcDbEntity
  8
TopPlate_-_Cut
 62
7
100
AcDbLine
 10
377.211280
 20
295.348273
 30
0.0
 11
377.211280
 21
295.348273
 31
0.0
  0
LINE
  5
1b2
100
AcDbEntity
  8
TopPlate_-_Cut
 62
7
100
AcDbLine
 10
490.597200
 20
295.348273
 30
0.0
 11
490.597200
 21
281.032649
 31
0.0
  0
LINE
  5
1b3
100
AcDbEntity
  8
TopPlate_-_Cut
 62
7
100
AcDbLine
 10
490.597200
 20
281.032649
 30
0.0
 11
575.636320
 21
281.032649
 31
0.0
  0
LINE
  5
1b4
100
AcDbEntity
  8
TopPlate_-_Cut
 62
7
100
AcDbLine
 10
575.636320
 20
281.032649
 30
0.0
 11
575.636320
 21
295.348273
 31
0.0
  0
LINE
  5
1b5
100
AcDbEntity
  8
TopPlate_-_Cut
 62
7
100
AcDbLine
 10
575.636320
 20
295.348273
 30
0.0
 11
490.597200
 21
295.348273
 31
0.0
  0
LINE
  5
1b6
100
AcDbEntity
  8
TopPlate_-_Cut
 62
7
100
AcDbLine
 10
490.597200
 20
295.348273
 30
0.0
 11
490.597200
 21
295.348273
 31
0.0
  0
LINE
  5
1b7
100
AcDbEntity
  8
TopPlate_-_Cut
 62
7
100
AcDbLine
 10
632.330080
 20
295.348273
 30
0.0
 11
632.330080
 21
281.032649
 31
0.0
  0
LINE
  5
1b8
100
AcDbEntity
  8
TopPlate_-_Cut
 62
7
100
AcDbLine
 10
632.330080
 20
281.032649
 30
0.0
 11
689.022240
 21
281.032649
 31
0.0
  0
LINE
  5
1b9
100
AcDbEntity
  8
TopPlate_-_Cut
 62
7
100
AcDbLine
 10
689.022240
 20
281.032649
 30
0.0
 11
689.022240
 21
295.348273
 31
0.0
  0
LINE
  5
1ba
100
AcDbEntity
  8
TopPlate_-_Cut
 62
7
100
AcDbLine
 10
689.022240
 20
295.348273
 30
0.0
 11
632.330080
 21
295.348273
 31
0.0
  0
LINE
  5
1bb
100
AcDbEntity
  8
TopPlate_-_Cut
 62
7
100
AcDbLine
 10
632.330080
 20
295.348273
 30
0.0
 11
632.330080
 21
295.348273
 31
0.0
  0
LINE
  5
1bc
100
AcDbEntity
  8
TopPlate_-_Cut
 62
7
100
AcDbLine
 10
745.716000
 20
295.348273
 30
0.0
 11
745.716000
 21
281.032649
 31
0.0
  0
LINE
  5
1bd
100
AcDbEntity
  8
TopPlate_-_Cut
 62
7
100
AcDbLine
 10
745.716000
 20
281.032649
 30
0.0
 11
774.061280
 21
281.032649
 31
0.0
  0
LINE
  5
1be
100
AcDbEntity
  8
TopPlate_-_Cut
 62
7
100
AcDbLine
 10
774.061280
 20
281.032649
 30
0.0
 11
774.061280
 21
295.348273
 31
0.0
  0
LINE
  5
1bf
100
AcDbEntity
  8
TopPlate_-_Cut
 62
7
100
AcDbLine
 10
774.061280
 20
295.348273
 30
0.0
 11
745.716000
 21
295.348273
 31
0.0
  0
LINE
  5
1c0
100
AcDbEntity
  8
TopPlate_-_Cut
 62
7
100
AcDbLine
 10
745.716000
 20
295.348273
 30
0.0
 11
745.716000
 21
295.348273
 31
0.0
  0
LINE
  5
1c1
100
AcDbEntity
  8
TopPlate_-_Cut
 62
7
100
AcDbLine
 10
292.172240
 20
-594.731439
 30
0.0
 11
292.172240
 21
-609.047039
 31
0.0
  0
LINE
  5
1c2
100
AcDbEntity
  8
TopPlate_-_Cut
 62
7
100
AcDbLine
 10
292.172240
 20
-609.047039
 30
0.0
 11
320.519120
 21
-609.047039
 31
0.0
  0
LINE
  5
1c3
100
AcDbEntity
  8
TopPlate_-_Cut
 62
7
100
AcDbLine
 10
320.519120
 20
-609.047039
 30
0.0
 11
320.519120
 21
-594.731439
 31
0.0
  0
LINE
  5
1c4
100
AcDbEntity
  8
TopPlate_-_Cut
 62
7
100
AcDbLine
 10
320.519120
 20
-594.731439
 30
0.0
 11
292.172240
 21
-594.731439
 31
0.0
  0
LINE
  5
1c5
100
AcDbEntity
  8
TopPlate_-_Cut
 62
7
100
AcDbLine
 10
292.172240
 20
-594.731439
 30
0.0
 11
292.172240
 21
-594.731439
 31
0.0
  0
LINE
  5
1c6
100
AcDbEntity
  8
TopPlate_-_Cut
 62
7
100
AcDbLine
 10
377.211280
 20
-594.731439
 30
0.0
 11
377.211280
 21
-609.047039
 31
0.0
  0
LINE
  5
1c7
100
AcDbEntity
  8
TopPlate_-_Cut
 62
7
100
AcDbLine
 10
377.211280
 20
-609.047039
 30
0.0
 11
433.905040
 21
-609.047039
 31
0.0
  0
LINE
  5
1c8
100
AcDbEntity
  8
TopPlate_-_Cut
 62
7
100
AcDbLine
 10
433.905040
 20
-609.047039
 30
0.0
 11
433.905040
 21
-594.731439
 31
0.0
  0
LINE
  5
1c9
100
AcDbEntity
  8
TopPlate_-_Cut
 62
7
100
AcDbLine
 10
433.905040
 20
-594.731439
 30
0.0
 11
377.211280
 21
-594.731439
 31
0.0
  0
LINE
  5
1ca
100
AcDbEntity
  8
TopPlate_-_Cut
 62
7
100
AcDbLine
 10
377.211280
 20
-594.731439
 30
0.0
 11
377.211280
 21
-594.731439
 31
0.0
  0
LINE
  5
1cb
100
AcDbEntity
  8
TopPlate_-_Cut
 62
7
100
AcDbLine
 10
490.597200
 20
-594.731439
 30
0.0
 11
490.597200
 21
-609.047039
 31
0.0
  0
LINE
  5
1cc
100
AcDbEntity
  8
TopPlate_-_Cut
 62
7
100
AcDbLine
 10
490.597200
 20
-609.047039
 30
0.0
 11
575.636320
 21
-609.047039
 31
0.0
  0
LINE
  5
1cd
100
AcDbEntity
  8
TopPlate_-_Cut
 62
7
100
AcDbLine
 10
575.636320
 20
-609.047039
 30
0.0
 11
575.636320
 21
-594.731439
 31
0.0
  0
LINE
  5
1ce
100
AcDbEntity
  8
TopPlate_-_Cut
 62
7
100
AcDbLine
 10
575.636320
 20
-594.731439
 30
0.0
 11
490.597200
 21
-594.731439
 31
0.0
  0
LINE
  5
1cf
100
AcDbEntity
  8
TopPlate_-_Cut
 62
7
100
AcDbLine
 10
490.597200
 20
-594.731439
 30
0.0
 11
490.597200
 21
-594.731439
 31
0.0
  0
LINE
  5
1d0
100
AcDbEntity
  8
TopPlate_-_Cut
 62
7
100
AcDbLine
 10
632.330080
 20
-594.731439
 30
0.0
 11
632.330080
 21
-609.047039
 31
0.0
  0
LINE
  5
1d1
100
AcDbEntity
  8
TopPlate_-_Cut
 62
7
100
AcDbLine
 10
632.330080
 20
-609.047039
 30
0.0
 11
689.022240
 21
-609.047039
 31
0.0
  0
LINE
  5
1d2
100
AcDbEntity
  8
TopPlate_-_Cut
 62
7
100
AcDbLine
 10
689.022240
 20
-609.047039
 30
0.0
 11
689.022240
 21
-594.731439
 31
0.0
  0
LINE
  5
1d3
100
AcDbEntity
  8
TopPlate_-_Cut
 62
7
100
AcDbLine
 10
689.022240
 20
-594.731439
 30
0.0
 11
632.330080
 21
-594.731439
 31
0.0
  0
LINE
  5
1d4
100
AcDbEntity
  8
TopPlate_-_Cut
 62
7
100
AcDbLine
 10
632.330080
 20
-594.731439
 30
0.0
 11
632.330080
 21
-594.731439
 31
0.0
  0
LINE
  5
1d5
100
AcDbEntity
  8
TopPlate_-_Cut
 62
7
100
AcDbLine
 10
745.716000
 20
-594.731439
 30
0.0
 11
745.716000
 21
-609.047039
 31
0.0
  0
LINE
  5
1d6
100
AcDbEntity
  8
TopPlate_-_Cut
 62
7
100
AcDbLine
 10
745.716000
 20
-609.047039
 30
0.0
 11
774.061280
 21
-609.047039
 31
0.0
  0
LINE
  5
1d7
100
AcDbEntity
  8
TopPlate_-_Cut
 62
7
100
AcDbLine
 10
774.061280
 20
-609.047039
 30
0.0
 11
774.061280
 21
-594.731439
 31
0.0
  0
LINE
  5
1d8
100
AcDbEntity
  8
TopPlate_-_Cut
 62
7
100
AcDbLine
 10
774.061280
 20
-594.731439
 30
0.0
 11
745.716000
 21
-594.731439
 31
0.0
  0
LINE
  5
1d9
100
AcDbEntity
  8
TopPlate_-_Cut
 62
7
100
AcDbLine
 10
745.716000
 20
-594.731439
 30
0.0
 11
745.716000
 21
-594.731439
 31
0.0
  0
LINE
  5
1da
100
AcDbEntity
  8
TopPlate_-_Cut
 62
7
100
AcDbLine
 10
21.029840
 20
-139.414639
 30
0.0
 11
33.427520
 21
-146.572439
 31
0.0
  0
LINE
  5
1db
100
AcDbEntity
  8
TopPlate_-_Cut
 62
7
100
AcDbLine
 10
33.427520
 20
-146.572439
 30
0.0
 11
47.600880
 21
-122.023375
 31
0.0
  0
LINE
  5
1dc
100
AcDbEntity
  8
TopPlate_-_Cut
 62
7
100
AcDbLine
 10
47.600880
 20
-122.023375
 30
0.0
 11
35.203280
 21
-114.865511
 31
0.0
  0
LINE
  5
1dd
100
AcDbEntity
  8
TopPlate_-_Cut
 62
7
100
AcDbLine
 10
35.203280
 20
-114.865511
 30
0.0
 11
21.029840
 21
-139.414639
 31
0.0
  0
LINE
  5
1de
100
AcDbEntity
  8
TopPlate_-_Cut
 62
7
100
AcDbLine
 10
21.029840
 20
-139.414639
 30
0.0
 11
21.029840
 21
-139.414639
 31
0.0
  0
LINE
  5
1df
100
AcDbEntity
  8
TopPlate_-_Cut
 62
7
100
AcDbLine
 10
63.549440
 20
-65.768647
 30
0.0
 11
75.947040
 21
-72.926455
 31
0.0
  0
LINE
  5
1e0
100
AcDbEntity
  8
TopPlate_-_Cut
 62
7
100
AcDbLine
 10
75.947040
 20
-72.926455
 30
0.0
 11
104.293920
 21
-23.828263
 31
0.0
  0
LINE
  5
1e1
100
AcDbEntity
  8
TopPlate_-_Cut
 62
7
100
AcDbLine
 10
104.293920
 20
-23.828263
 30
0.0
 11
91.896240
 21
-16.670423
 31
0.0
  0
LINE
  5
1e2
100
AcDbEntity
  8
TopPlate_-_Cut
 62
7
100
AcDbLine
 10
91.896240
 20
-16.670423
 30
0.0
 11
63.549440
 21
-65.768647
 31
0.0
  0
LINE
  5
1e3
100
AcDbEntity
  8
TopPlate_-_Cut
 62
7
100
AcDbLine
 10
63.549440
 20
-65.768647
 30
0.0
 11
63.549440
 21
-65.768647
 31
0.0
  0
LINE
  5
1e4
100
AcDbEntity
  8
TopPlate_-_Cut
 62
7
100
AcDbLine
 10
120.242240
 20
32.426393
 30
0.0
 11
132.640000
 21
25.268609
 31
0.0
  0
LINE
  5
1e5
100
AcDbEntity
  8
TopPlate_-_Cut
 62
7
100
AcDbLine
 10
132.640000
 20
25.268609
 30
0.0
 11
175.159520
 21
98.914616
 31
0.0
  0
LINE
  5
1e6
100
AcDbEntity
  8
TopPlate_-_Cut
 62
7
100
AcDbLine
 10
175.159520
 20
98.914616
 30
0.0
 11
162.761920
 21
106.072480
 31
0.0
  0
LINE
  5
1e7
100
AcDbEntity
  8
TopPlate_-_Cut
 62
7
100
AcDbLine
 10
162.761920
 20
106.072480
 30
0.0
 11
120.242240
 21
32.426393
 31
0.0
  0
LINE
  5
1e8
100
AcDbEntity
  8
TopPlate_-_Cut
 62
7
100
AcDbLine
 10
120.242240
 20
32.426393
 30
0.0
 11
120.242240
 21
32.426393
 31
0.0
  0
LINE
  5
1e9
100
AcDbEntity
  8
TopPlate_-_Cut
 62
7
100
AcDbLine
 10
191.108720
 20
155.170695
 30
0.0
 11
203.506480
 21
148.012913
 31
0.0
  0
LINE
  5
1ea
100
AcDbEntity
  8
TopPlate_-_Cut
 62
7
100
AcDbLine
 10
203.506480
 20
148.012913
 30
0.0
 11
231.852480
 21
197.109733
 31
0.0
  0
LINE
  5
1eb
100
AcDbEntity
  8
TopPlate_-_Cut
 62
7
100
AcDbLine
 10
231.852480
 20
197.109733
 30
0.0
 11
219.454880
 21
204.267574
 31
0.0
  0
LINE
  5
1ec
100
AcDbEntity
  8
TopPlate_-_Cut
 62
7
100
AcDbLine
 10
219.454880
 20
204.267574
 30
0.0
 11
191.108720
 21
155.170695
 31
0.0
  0
LINE
  5
1ed
100
AcDbEntity
  8
TopPlate_-_Cut
 62
7
100
AcDbLine
 10
191.108720
 20
155.170695
 30
0.0
 11
191.108720
 21
155.170695
 31
0.0
  0
LINE
  5
1ee
100
AcDbEntity
  8
TopPlate_-_Cut
 62
7
100
AcDbLine
 10
247.801680
 20
253.365753
 30
0.0
 11
260.199440
 21
246.207985
 31
0.0
  0
LINE
  5
1ef
100
AcDbEntity
  8
TopPlate_-_Cut
 62
7
100
AcDbLine
 10
260.199440
 20
246.207985
 30
0.0
 11
274.372080
 21
270.755737
 31
0.0
  0
LINE
  5
1f0
100
AcDbEntity
  8
TopPlate_-_Cut
 62
7
100
AcDbLine
 10
274.372080
 20
270.755737
 30
0.0
 11
261.974400
 21
277.913513
 31
0.0
  0
LINE
  5
1f1
100
AcDbEntity
  8
TopPlate_-_Cut
 62
7
100
AcDbLine
 10
261.974400
 20
277.913513
 30
0.0
 11
247.801680
 21
253.365753
 31
0.0
  0
LINE
  5
1f2
100
AcDbEntity
  8
TopPlate_-_Cut
 62
7
100
AcDbLine
 10
247.801680
 20
253.365753
 30
0.0
 11
247.801680
 21
253.365753
 31
0.0
  0
LINE
  5
1f3
100
AcDbEntity
  8
TopPlate_-_Cut
 62
7
100
AcDbLine
 10
791.861520
 20
-584.454455
 30
0.0
 11
804.259120
 21
-591.612263
 31
0.0
  0
LINE
  5
1f4
100
AcDbEntity
  8
TopPlate_-_Cut
 62
7
100
AcDbLine
 10
804.259120
 20
-591.612263
 30
0.0
 11
818.432640
 21
-567.063159
 31
0.0
  0
LINE
  5
1f5
100
AcDbEntity
  8
TopPlate_-_Cut
 62
7
100
AcDbLine
 10
818.432640
 20
-567.063159
 30
0.0
 11
806.034960
 21
-559.905335
 31
0.0
  0
LINE
  5
1f6
100
AcDbEntity
  8
TopPlate_-_Cut
 62
7
100
AcDbLine
 10
806.034960
 20
-559.905335
 30
0.0
 11
791.861520
 21
-584.454455
 31
0.0
  0
LINE
  5
1f7
100
AcDbEntity
  8
TopPlate_-_Cut
 62
7
100
AcDbLine
 10
791.861520
 20
-584.454455
 30
0.0
 11
791.861520
 21
-584.454455
 31
0.0
  0
LINE
  5
1f8
100
AcDbEntity
  8
TopPlate_-_Cut
 62
7
100
AcDbLine
 10
834.381040
 20
-510.808519
 30
0.0
 11
846.778640
 21
-517.966335
 31
0.0
  0
LINE
  5
1f9
100
AcDbEntity
  8
TopPlate_-_Cut
 62
7
100
AcDbLine
 10
846.778640
 20
-517.966335
 30
0.0
 11
875.125520
 21
-468.868111
 31
0.0
  0
LINE
  5
1fa
100
AcDbEntity
  8
TopPlate_-_Cut
 62
7
100
AcDbLine
 10
875.125520
 20
-468.868111
 30
0.0
 11
862.727920
 21
-461.710271
 31
0.0
  0
LINE
  5
1fb
100
AcDbEntity
  8
TopPlate_-_Cut
 62
7
100
AcDbLine
 10
862.727920
 20
-461.710271
 30
0.0
 11
834.381040
 21
-510.808519
 31
0.0
  0
LINE
  5
1fc
100
AcDbEntity
  8
TopPlate_-_Cut
 62
7
100
AcDbLine
 10
834.381040
 20
-510.808519
 30
0.0
 11
834.381040
 21
-510.808519
 31
0.0
  0
LINE
  5
1fd
100
AcDbEntity
  8
TopPlate_-_Cut
 62
7
100
AcDbLine
 10
891.074000
 20
-412.613399
 30
0.0
 11
903.471600
 21
-419.771247
 31
0.0
  0
LINE
  5
1fe
100
AcDbEntity
  8
TopPlate_-_Cut
 62
7
100
AcDbLine
 10
903.471600
 20
-419.771247
 30
0.0
 11
945.991280
 21
-346.125159
 31
0.0
  0
LINE
  5
1ff
100
AcDbEntity
  8
TopPlate_-_Cut
 62
7
100
AcDbLine
 10
945.991280
 20
-346.125159
 30
0.0
 11
933.593520
 21
-338.967391
 31
0.0
  0
LINE
  5
200
100
AcDbEntity
  8
TopPlate_-_Cut
 62
7
100
AcDbLine
 10
933.593520
 20
-338.967391
 30
0.0
 11
891.074000
 21
-412.613399
 31
0.0
  0
LINE
  5
201
100
AcDbEntity
  8
TopPlate_-_Cut
 62
7
100
AcDbLine
 10
891.074000
 20
-412.613399
 30
0.0
 11
891.074000
 21
-412.613399
 31
0.0
  0
LINE
  5
202
100
AcDbEntity
  8
TopPlate_-_Cut
 62
7
100
AcDbLine
 10
961.940400
 20
-289.869151
 30
0.0
 11
974.338080
 21
-297.026975
 31
0.0
  0
LINE
  5
203
100
AcDbEntity
  8
TopPlate_-_Cut
 62
7
100
AcDbLine
 10
974.338080
 20
-297.026975
 30
0.0
 11
1002.684080
 21
-247.930119
 31
0.0
  0
LINE
  5
204
100
AcDbEntity
  8
TopPlate_-_Cut
 62
7
100
AcDbLine
 10
1002.684080
 20
-247.930119
 30
0.0
 11
990.286480
 21
-240.772335
 31
0.0
  0
LINE
  5
205
100
AcDbEntity
  8
TopPlate_-_Cut
 62
7
100
AcDbLine
 10
990.286480
 20
-240.772335
 30
0.0
 11
961.940400
 21
-289.869151
 31
0.0
  0
LINE
  5
206
100
AcDbEntity
  8
TopPlate_-_Cut
 62
7
100
AcDbLine
 10
961.940400
 20
-289.869151
 30
0.0
 11
961.940400
 21
-289.869151
 31
0.0
  0
LINE
  5
207
100
AcDbEntity
  8
TopPlate_-_Cut
 62
7
100
AcDbLine
 10
1018.633440
 20
-191.674039
 30
0.0
 11
1031.031040
 21
-198.831895
 31
0.0
  0
LINE
  5
208
100
AcDbEntity
  8
TopPlate_-_Cut
 62
7
100
AcDbLine
 10
1031.031040
 20
-198.831895
 30
0.0
 11
1045.203680
 21
-174.284127
 31
0.0
  0
LINE
  5
209
100
AcDbEntity
  8
TopPlate_-_Cut
 62
7
100
AcDbLine
 10
1045.203680
 20
-174.284127
 30
0.0
 11
1032.806000
 21
-167.126359
 31
0.0
  0
LINE
  5
20a
100
AcDbEntity
  8
TopPlate_-_Cut
 62
7
100
AcDbLine
 10
1032.806000
 20
-167.126359
 30
0.0
 11
1018.633440
 21
-191.674039
 31
0.0
  0
LINE
  5
20b
100
AcDbEntity
  8
TopPlate_-_Cut
 62
7
100
AcDbLine
 10
1018.633440
 20
-191.674039
 30
0.0
 11
1018.633440
 21
-191.674039
 31
0.0
  0
LINE
  5
20c
100
AcDbEntity
  8
TopPlate_-_Cut
 62
7
100
AcDbLine
 10
261.974400
 20
-591.612295
 30
0.0
 11
274.372080
 21
-584.454487
 31
0.0
  0
LINE
  5
20d
100
AcDbEntity
  8
TopPlate_-_Cut
 62
7
100
AcDbLine
 10
274.372080
 20
-584.454487
 30
0.0
 11
260.198640
 21
-559.905359
 31
0.0
  0
LINE
  5
20e
100
AcDbEntity
  8
TopPlate_-_Cut
 62
7
100
AcDbLine
 10
260.198640
 20
-559.905359
 30
0.0
 11
247.800960
 21
-567.063183
 31
0.0
  0
LINE
  5
20f
100
AcDbEntity
  8
TopPlate_-_Cut
 62
7
100
AcDbLine
 10
247.800960
 20
-567.063183
 30
0.0
 11
261.974400
 21
-591.612295
 31
0.0
  0
LINE
  5
210
100
AcDbEntity
  8
TopPlate_-_Cut
 62
7
100
AcDbLine
 10
261.974400
 20
-591.612295
 30
0.0
 11
261.974400
 21
-591.612295
 31
0.0
  0
LINE
  5
211
100
AcDbEntity
  8
TopPlate_-_Cut
 62
7
100
AcDbLine
 10
219.454880
 20
-517.966239
 30
0.0
 11
231.852480
 21
-510.808559
 31
0.0
  0
LINE
  5
212
100
AcDbEntity
  8
TopPlate_-_Cut
 62
7
100
AcDbLine
 10
231.852480
 20
-510.808559
 30
0.0
 11
203.505680
 21
-461.710319
 31
0.0
  0
LINE
  5
213
100
AcDbEntity
  8
TopPlate_-_Cut
 62
7
100
AcDbLine
 10
203.505680
 20
-461.710319
 30
0.0
 11
191.108000
 21
-468.868071
 31
0.0
  0
LINE
  5
214
100
AcDbEntity
  8
TopPlate_-_Cut
 62
7
100
AcDbLine
 10
191.108000
 20
-468.868071
 30
0.0
 11
219.454880
 21
-517.966239
 31
0.0
  0
LINE
  5
215
100
AcDbEntity
  8
TopPlate_-_Cut
 62
7
100
AcDbLine
 10
219.454880
 20
-517.966239
 30
0.0
 11
219.454880
 21
-517.966239
 31
0.0
  0
LINE
  5
216
100
AcDbEntity
  8
TopPlate_-_Cut
 62
7
100
AcDbLine
 10
162.761840
 20
-419.771351
 30
0.0
 11
175.159600
 21
-412.613439
 31
0.0
  0
LINE
  5
217
100
AcDbEntity
  8
TopPlate_-_Cut
 62
7
100
AcDbLine
 10
175.159600
 20
-412.613439
 30
0.0
 11
132.639920
 21
-338.967487
 31
0.0
  0
LINE
  5
218
100
AcDbEntity
  8
TopPlate_-_Cut
 62
7
100
AcDbLine
 10
132.639920
 20
-338.967487
 30
0.0
 11
120.242320
 21
-346.125191
 31
0.0
  0
LINE
  5
219
100
AcDbEntity
  8
TopPlate_-_Cut
 62
7
100
AcDbLine
 10
120.242320
 20
-346.125191
 30
0.0
 11
162.761840
 21
-419.771351
 31
0.0
  0
LINE
  5
21a
100
AcDbEntity
  8
TopPlate_-_Cut
 62
7
100
AcDbLine
 10
162.761840
 20
-419.771351
 30
0.0
 11
162.761840
 21
-419.771351
 31
0.0
  0
LINE
  5
21b
100
AcDbEntity
  8
TopPlate_-_Cut
 62
7
100
AcDbLine
 10
91.895440
 20
-297.026943
 30
0.0
 11
104.293120
 21
-289.869127
 31
0.0
  0
LINE
  5
21c
100
AcDbEntity
  8
TopPlate_-_Cut
 62
7
100
AcDbLine
 10
104.293120
 20
-289.869127
 30
0.0
 11
75.947120
 21
-240.772327
 31
0.0
  0
LINE
  5
21d
100
AcDbEntity
  8
TopPlate_-_Cut
 62
7
100
AcDbLine
 10
75.947120
 20
-240.772327
 30
0.0
 11
63.549360
 21
-247.930071
 31
0.0
  0
LINE
  5
21e
100
AcDbEntity
  8
TopPlate_-_Cut
 62
7
100
AcDbLine
 10
63.549360
 20
-247.930071
 30
0.0
 11
91.895440
 21
-297.026943
 31
0.0
  0
LINE
  5
21f
100
AcDbEntity
  8
TopPlate_-_Cut
 62
7
100
AcDbLine
 10
91.895440
 20
-297.026943
 30
0.0
 11
91.895440
 21
-297.026943
 31
0.0
  0
LINE
  5
220
100
AcDbEntity
  8
TopPlate_-_Cut
 62
7
100
AcDbLine
 10
35.202480
 20
-198.831919
 30
0.0
 11
47.600160
 21
-191.673975
 31
0.0
  0
LINE
  5
221
100
AcDbEntity
  8
TopPlate_-_Cut
 62
7
100
AcDbLine
 10
47.600160
 20
-191.673975
 30
0.0
 11
33.427520
 21
-167.126311
 31
0.0
  0
LINE
  5
222
100
AcDbEntity
  8
TopPlate_-_Cut
 62
7
100
AcDbLine
 10
33.427520
 20
-167.126311
 30
0.0
 11
21.029840
 21
-174.284143
 31
0.0
  0
LINE
  5
223
100
AcDbEntity
  8
TopPlate_-_Cut
 62
7
100
AcDbLine
 10
21.029840
 20
-174.284143
 30
0.0
 11
35.202480
 21
-198.831919
 31
0.0
  0
LINE
  5
224
100
AcDbEntity
  8
TopPlate_-_Cut
 62
7
100
AcDbLine
 10
35.202480
 20
-198.831919
 30
0.0
 11
35.202480
 21
-198.831919
 31
0.0
  0
LINE
  5
225
100
AcDbEntity
  8
TopPlate_-_Cut
 62
7
100
AcDbLine
 10
1032.806000
 20
-146.572471
 30
0.0
 11
1045.203680
 21
-139.414631
 31
0.0
  0
LINE
  5
226
100
AcDbEntity
  8
TopPlate_-_Cut
 62
7
100
AcDbLine
 10
1045.203680
 20
-139.414631
 30
0.0
 11
1031.030240
 21
-114.865479
 31
0.0
  0
LINE
  5
227
100
AcDbEntity
  8
TopPlate_-_Cut
 62
7
100
AcDbLine
 10
1031.030240
 20
-114.865479
 30
0.0
 11
1018.632560
 21
-122.023223
 31
0.0
  0
LINE
  5
228
100
AcDbEntity
  8
TopPlate_-_Cut
 62
7
100
AcDbLine
 10
1018.632560
 20
-122.023223
 30
0.0
 11
1032.806000
 21
-146.572471
 31
0.0
  0
LINE
  5
229
100
AcDbEntity
  8
TopPlate_-_Cut
 62
7
100
AcDbLine
 10
1032.806000
 20
-146.572471
 30
0.0
 11
1032.806000
 21
-146.572471
 31
0.0
  0
LINE
  5
22a
100
AcDbEntity
  8
TopPlate_-_Cut
 62
7
100
AcDbLine
 10
990.286400
 20
-72.926455
 30
0.0
 11
1002.684160
 21
-65.768703
 31
0.0
  0
LINE
  5
22b
100
AcDbEntity
  8
TopPlate_-_Cut
 62
7
100
AcDbLine
 10
1002.684160
 20
-65.768703
 30
0.0
 11
974.337280
 21
-16.670471
 31
0.0
  0
LINE
  5
22c
100
AcDbEntity
  8
TopPlate_-_Cut
 62
7
100
AcDbLine
 10
974.337280
 20
-16.670471
 30
0.0
 11
961.939600
 21
-23.828191
 31
0.0
  0
LINE
  5
22d
100
AcDbEntity
  8
TopPlate_-_Cut
 62
7
100
AcDbLine
 10
961.939600
 20
-23.828191
 30
0.0
 11
990.286400
 21
-72.926455
 31
0.0
  0
LINE
  5
22e
100
AcDbEntity
  8
TopPlate_-_Cut
 62
7
100
AcDbLine
 10
990.286400
 20
-72.926455
 30
0.0
 11
990.286400
 21
-72.926455
 31
0.0
  0
LINE
  5
22f
100
AcDbEntity
  8
TopPlate_-_Cut
 62
7
100
AcDbLine
 10
933.593600
 20
25.268705
 30
0.0
 11
945.991200
 21
32.426417
 31
0.0
  0
LINE
  5
230
100
AcDbEntity
  8
TopPlate_-_Cut
 62
7
100
AcDbLine
 10
945.991200
 20
32.426417
 30
0.0
 11
903.471600
 21
106.072569
 31
0.0
  0
LINE
  5
231
100
AcDbEntity
  8
TopPlate_-_Cut
 62
7
100
AcDbLine
 10
903.471600
 20
106.072569
 30
0.0
 11
891.073920
 21
98.914666
 31
0.0
  0
LINE
  5
232
100
AcDbEntity
  8
TopPlate_-_Cut
 62
7
100
AcDbLine
 10
891.073920
 20
98.914666
 30
0.0
 11
933.593600
 21
25.268705
 31
0.0
  0
LINE
  5
233
100
AcDbEntity
  8
TopPlate_-_Cut
 62
7
100
AcDbLine
 10
933.593600
 20
25.268705
 30
0.0
 11
933.593600
 21
25.268705
 31
0.0
  0
LINE
  5
234
100
AcDbEntity
  8
TopPlate_-_Cut
 62
7
100
AcDbLine
 10
862.727040
 20
148.012898
 30
0.0
 11
875.124720
 21
155.170640
 31
0.0
  0
LINE
  5
235
100
AcDbEntity
  8
TopPlate_-_Cut
 62
7
100
AcDbLine
 10
875.124720
 20
155.170640
 30
0.0
 11
846.778640
 21
204.267470
 31
0.0
  0
LINE
  5
236
100
AcDbEntity
  8
TopPlate_-_Cut
 62
7
100
AcDbLine
 10
846.778640
 20
204.267470
 30
0.0
 11
834.381120
 21
197.109773
 31
0.0
  0
LINE
  5
237
100
AcDbEntity
  8
TopPlate_-_Cut
 62
7
100
AcDbLine
 10
834.381120
 20
197.109773
 30
0.0
 11
862.727040
 21
148.012898
 31
0.0
  0
LINE
  5
238
100
AcDbEntity
  8
TopPlate_-_Cut
 62
7
100
AcDbLine
 10
862.727040
 20
148.012898
 30
0.0
 11
862.727040
 21
148.012898
 31
0.0
  0
LINE
  5
239
100
AcDbEntity
  8
TopPlate_-_Cut
 62
7
100
AcDbLine
 10
806.034160
 20
246.208081
 30
0.0
 11
818.431840
 21
253.365777
 31
0.0
  0
LINE
  5
23a
100
AcDbEntity
  8
TopPlate_-_Cut
 62
7
100
AcDbLine
 10
818.431840
 20
253.365777
 30
0.0
 11
804.259120
 21
277.913529
 31
0.0
  0
LINE
  5
23b
100
AcDbEntity
  8
TopPlate_-_Cut
 62
7
100
AcDbLine
 10
804.259120
 20
277.913529
 30
0.0
 11
791.861440
 21
270.755697
 31
0.0
  0
LINE
  5
23c
100
AcDbEntity
  8
TopPlate_-_Cut
 62
7
100
AcDbLine
 10
791.861440
 20
270.755697
 30
0.0
 11
806.034160
 21
246.208081
 31
0.0
  0
LINE
  5
23d
100
AcDbEntity
  8
TopPlate_-_Cut
 62
7
100
AcDbLine
 10
806.034160
 20
246.208081
 30
0.0
 11
806.034160
 21
246.208081
 31
0.0
  0
SPLINE
  5
23e
100
AcDbEntity
  8
TopPlace_-_Etch
 62
7
100
AcDbSpline
 70
8
 71
3
 72
8
 73
4
 74
0
 40
0
 40
0
 40
0
 40
0
 40
1
 40
1
 40
1
 40
1
 10
480.429688
 20
275.589351
 30
0.0
 10
497.596568
 20
266.414381
 30
0.0
 10
513.440176
 20
254.759445
 30
0.0
 10
527.270312
 20
241.061226
 30
0.0
  0
SPLINE
  5
23f
100
AcDbEntity
  8
TopPlace_-_Etch
 62
7
100
AcDbSpline
 70
8
 71
3
 72
8
 73
4
 74
0
 40
0
 40
0
 40
0
 40
0
 40
1
 40
1
 40
1
 40
1
 10
527.270312
 20
241.061226
 30
0.0
 10
545.985808
 20
222.524241
 30
0.0
 10
561.007536
 20
200.273337
 30
0.0
 10
571.203128
 20
175.984665
 30
0.0
  0
SPLINE
  5
240
100
AcDbEntity
  8
TopPlace_-_Etch
 62
7
100
AcDbSpline
 70
8
 71
3
 72
8
 73
4
 74
0
 40
0
 40
0
 40
0
 40
0
 40
1
 40
1
 40
1
 40
1
 10
571.203128
 20
175.984665
 30
0.0
 10
583.532984
 20
193.329913
 30
0.0
 10
600.055664
 20
207.671329
 30
0.0
 10
618.962496
 20
217.439353
 30
0.0
  0
SPLINE
  5
241
100
AcDbEntity
  8
TopPlace_-_Etch
 62
7
100
AcDbSpline
 70
8
 71
3
 72
8
 73
4
 74
0
 40
0
 40
0
 40
0
 40
0
 40
1
 40
1
 40
1
 40
1
 10
618.962496
 20
217.439353
 30
0.0
 10
637.869344
 20
227.207385
 30
0.0
 10
659.128336
 20
232.385489
 30
0.0
 10
680.409376
 20
232.404977
 30
0.0
  0
SPLINE
  5
242
100
AcDbEntity
  8
TopPlace_-_Etch
 62
7
100
AcDbSpline
 70
8
 71
3
 72
8
 73
4
 74
0
 40
0
 40
0
 40
0
 40
0
 40
1
 40
1
 40
1
 40
1
 10
680.409376
 20
232.404977
 30
0.0
 10
697.967696
 20
232.404849
 30
0.0
 10
715.518880
 20
228.913377
 30
0.0
 10
731.740624
 20
222.194041
 30
0.0
  0
SPLINE
  5
243
100
AcDbEntity
  8
TopPlace_-_Etch
 62
7
100
AcDbSpline
 70
8
 71
3
 72
8
 73
4
 74
0
 40
0
 40
0
 40
0
 40
0
 40
1
 40
1
 40
1
 40
1
 10
731.740624
 20
222.194041
 30
0.0
 10
747.962368
 20
215.474705
 30
0.0
 10
762.842216
 20
205.533081
 30
0.0
 10
775.257816
 20
193.117473
 30
0.0
  0
SPLINE
  5
244
100
AcDbEntity
  8
TopPlace_-_Etch
 62
7
100
AcDbSpline
 70
8
 71
3
 72
8
 73
4
 74
0
 40
0
 40
0
 40
0
 40
0
 40
1
 40
1
 40
1
 40
1
 10
775.257816
 20
193.117473
 30
0.0
 10
787.673424
 20
180.701873
 30
0.0
 10
797.615032
 20
165.822033
 30
0.0
 10
804.334400
 20
149.600289
 30
0.0
  0
SPLINE
  5
245
100
AcDbEntity
  8
TopPlace_-_Etch
 62
7
100
AcDbSpline
 70
8
 71
3
 72
8
 73
4
 74
0
 40
0
 40
0
 40
0
 40
0
 40
1
 40
1
 40
1
 40
1
 10
804.334400
 20
149.600289
 30
0.0
 10
811.053680
 20
133.378545
 30
0.0
 10
814.545120
 20
115.827361
 30
0.0
 10
814.545280
 20
98.269041
 30
0.0
  0
SPLINE
  5
246
100
AcDbEntity
  8
TopPlace_-_Etch
 62
7
100
AcDbSpline
 70
8
 71
3
 72
8
 73
4
 74
0
 40
0
 40
0
 40
0
 40
0
 40
1
 40
1
 40
1
 40
1
 10
814.545280
 20
98.269041
 30
0.0
 10
814.498080
 20
79.082313
 30
0.0
 10
810.271520
 20
59.916697
 30
0.0
 10
802.245280
 20
42.489353
 30
0.0
  0
SPLINE
  5
247
100
AcDbEntity
  8
TopPlace_-_Etch
 62
7
100
AcDbSpline
 70
8
 71
3
 72
8
 73
4
 74
0
 40
0
 40
0
 40
0
 40
0
 40
1
 40
1
 40
1
 40
1
 10
802.245280
 20
42.489353
 30
0.0
 10
810.679840
 20
43.649497
 30
0.0
 10
819.188080
 20
44.273569
 30
0.0
 10
827.701600
 20
44.356537
 30
0.0
  0
SPLINE
  5
248
100
AcDbEntity
  8
TopPlace_-_Etch
 62
7
100
AcDbSpline
 70
8
 71
3
 72
8
 73
4
 74
0
 40
0
 40
0
 40
0
 40
0
 40
1
 40
1
 40
1
 40
1
 10
827.701600
 20
44.356537
 30
0.0
 10
849.779600
 20
44.337417
 30
0.0
 10
871.849520
 20
40.652513
 30
0.0
 10
892.735920
 20
33.497161
 30
0.0
  0
SPLINE
  5
249
100
AcDbEntity
  8
TopPlace_-_Etch
 62
7
100
AcDbSpline
 70
8
 71
3
 72
8
 73
4
 74
0
 40
0
 40
0
 40
0
 40
0
 40
1
 40
1
 40
1
 40
1
 10
892.735920
 20
33.497161
 30
0.0
 10
907.111040
 20
28.572465
 30
0.0
 10
920.921760
 20
22.004673
 30
0.0
 10
933.824960
 20
13.979977
 30
0.0
  0
LINE
  5
24a
100
AcDbEntity
  8
TopPlace_-_Etch
 62
7
100
AcDbLine
 10
933.824960
 20
13.979977
 30
0.0
 11
799.429688
 21
246.759664
 31
0.0
  0
SPLINE
  5
24b
100
AcDbEntity
  8
TopPlace_-_Etch
 62
7
100
AcDbSpline
 70
8
 71
3
 72
8
 73
4
 74
0
 40
0
 40
0
 40
0
 40
0
 40
1
 40
1
 40
1
 40
1
 10
799.429688
 20
246.759664
 30
0.0
 10
791.107208
 20
261.174479
 30
0.0
 10
766.140032
 20
275.589383
 30
0.0
 10
749.495312
 20
275.589351
 30
0.0
  0
LINE
  5
24c
100
AcDbEntity
  8
TopPlace_-_Etch
 62
7
100
AcDbLine
 10
749.495312
 20
275.589351
 30
0.0
 11
480.429688
 21
275.589351
 31
0.0
  0
LINE
  5
24d
100
AcDbEntity
  8
TopPlace_-_Etch
 62
7
100
AcDbLine
 10
480.429688
 20
275.589351
 30
0.0
 11
480.429688
 21
275.589351
 31
0.0
  0
LINE
  5
24e
100
AcDbEntity
  8
TopPlace_-_Etch
 62
7
100
AcDbLine
 10
184.778128
 20
104.686225
 30
0.0
 11
50.425000
 21
-128.020023
 31
0.0
  0
SPLINE
  5
24f
100
AcDbEntity
  8
TopPlace_-_Etch
 62
7
100
AcDbSpline
 70
8
 71
3
 72
8
 73
4
 74
0
 40
0
 40
0
 40
0
 40
0
 40
1
 40
1
 40
1
 40
1
 10
50.425000
 20
-128.020023
 30
0.0
 10
42.103080
 20
-142.434711
 30
0.0
 10
42.102920
 20
-171.263391
 30
0.0
 10
50.425000
 20
-185.677839
 30
0.0
  0
LINE
  5
250
100
AcDbEntity
  8
TopPlace_-_Etch
 62
7
100
AcDbLine
 10
50.425000
 20
-185.677839
 30
0.0
 11
184.778128
 21
-418.384087
 31
0.0
  0
SPLINE
  5
251
100
AcDbEntity
  8
TopPlace_-_Etch
 62
7
100
AcDbSpline
 70
8
 71
3
 72
8
 73
4
 74
0
 40
0
 40
0
 40
0
 40
0
 40
1
 40
1
 40
1
 40
1
 10
184.778128
 20
-418.384087
 30
0.0
 10
184.691608
 20
-416.245815
 30
0.0
 10
184.636968
 20
-414.106847
 30
0.0
 10
184.618752
 20
-411.966903
 30
0.0
  0
SPLINE
  5
252
100
AcDbEntity
  8
TopPlace_-_Etch
 62
7
100
AcDbSpline
 70
8
 71
3
 72
8
 73
4
 74
0
 40
0
 40
0
 40
0
 40
0
 40
1
 40
1
 40
1
 40
1
 10
184.618752
 20
-411.966903
 30
0.0
 10
184.663952
 20
-390.183495
 30
0.0
 10
188.277672
 20
-368.411039
 30
0.0
 10
195.271872
 20
-347.780959
 30
0.0
  0
SPLINE
  5
253
100
AcDbEntity
  8
TopPlace_-_Etch
 62
7
100
AcDbSpline
 70
8
 71
3
 72
8
 73
4
 74
0
 40
0
 40
0
 40
0
 40
0
 40
1
 40
1
 40
1
 40
1
 10
195.271872
 20
-347.780959
 30
0.0
 10
202.266072
 20
-327.150879
 30
0.0
 10
212.638136
 20
-307.670791
 30
0.0
 10
225.850000
 20
-290.351271
 30
0.0
  0
SPLINE
  5
254
100
AcDbEntity
  8
TopPlace_-_Etch
 62
7
100
AcDbSpline
 70
8
 71
3
 72
8
 73
4
 74
0
 40
0
 40
0
 40
0
 40
0
 40
1
 40
1
 40
1
 40
1
 10
225.850000
 20
-290.351271
 30
0.0
 10
209.426720
 20
-288.791519
 30
0.0
 10
193.299248
 20
-284.168143
 30
0.0
 10
178.543752
 20
-276.790335
 30
0.0
  0
SPLINE
  5
255
100
AcDbEntity
  8
TopPlace_-_Etch
 62
7
100
AcDbSpline
 70
8
 71
3
 72
8
 73
4
 74
0
 40
0
 40
0
 40
0
 40
0
 40
1
 40
1
 40
1
 40
1
 10
178.543752
 20
-276.790335
 30
0.0
 10
163.788256
 20
-269.412527
 30
0.0
 10
150.414192
 20
-259.285367
 30
0.0
 10
139.312496
 20
-247.082527
 30
0.0
  0
SPLINE
  5
256
100
AcDbEntity
  8
TopPlace_-_Etch
 62
7
100
AcDbSpline
 70
8
 71
3
 72
8
 73
4
 74
0
 40
0
 40
0
 40
0
 40
0
 40
1
 40
1
 40
1
 40
1
 10
139.312496
 20
-247.082527
 30
0.0
 10
128.210816
 20
-234.879687
 30
0.0
 10
119.388008
 20
-220.608567
 30
0.0
 10
113.434376
 20
-205.223151
 30
0.0
  0
SPLINE
  5
257
100
AcDbEntity
  8
TopPlace_-_Etch
 62
7
100
AcDbSpline
 70
8
 71
3
 72
8
 73
4
 74
0
 40
0
 40
0
 40
0
 40
0
 40
1
 40
1
 40
1
 40
1
 10
113.434376
 20
-205.223151
 30
0.0
 10
107.480752
 20
-189.837727
 30
0.0
 10
104.399544
 20
-173.346887
 30
0.0
 10
104.395312
 20
-156.849711
 30
0.0
  0
SPLINE
  5
258
100
AcDbEntity
  8
TopPlace_-_Etch
 62
7
100
AcDbSpline
 70
8
 71
3
 72
8
 73
4
 74
0
 40
0
 40
0
 40
0
 40
0
 40
1
 40
1
 40
1
 40
1
 10
104.395312
 20
-156.849711
 30
0.0
 10
104.410432
 20
-140.363295
 30
0.0
 10
107.498512
 20
-123.885111
 30
0.0
 10
113.454688
 20
-108.512215
 30
0.0
  0
SPLINE
  5
259
100
AcDbEntity
  8
TopPlace_-_Etch
 62
7
100
AcDbSpline
 70
8
 71
3
 72
8
 73
4
 74
0
 40
0
 40
0
 40
0
 40
0
 40
1
 40
1
 40
1
 40
1
 10
113.454688
 20
-108.512215
 30
0.0
 10
119.410856
 20
-93.139311
 30
0.0
 10
128.231520
 20
-78.881695
 30
0.0
 10
139.328128
 20
-66.688775
 30
0.0
  0
SPLINE
  5
25a
100
AcDbEntity
  8
TopPlace_-_Etch
 62
7
100
AcDbSpline
 70
8
 71
3
 72
8
 73
4
 74
0
 40
0
 40
0
 40
0
 40
0
 40
1
 40
1
 40
1
 40
1
 10
139.328128
 20
-66.688775
 30
0.0
 10
150.424744
 20
-54.495855
 30
0.0
 10
163.790520
 20
-44.375199
 30
0.0
 10
178.535936
 20
-37.001271
 30
0.0
  0
SPLINE
  5
25b
100
AcDbEntity
  8
TopPlace_-_Etch
 62
7
100
AcDbSpline
 70
8
 71
3
 72
8
 73
4
 74
0
 40
0
 40
0
 40
0
 40
0
 40
1
 40
1
 40
1
 40
1
 10
178.535936
 20
-37.001271
 30
0.0
 10
193.281344
 20
-29.627335
 30
0.0
 10
209.397280
 20
-25.004055
 30
0.0
 10
225.809376
 20
-23.440335
 30
0.0
  0
SPLINE
  5
25c
100
AcDbEntity
  8
TopPlace_-_Etch
 62
7
100
AcDbSpline
 70
8
 71
3
 72
8
 73
4
 74
0
 40
0
 40
0
 40
0
 40
0
 40
1
 40
1
 40
1
 40
1
 10
225.809376
 20
-23.440335
 30
0.0
 10
212.595240
 20
-6.105799
 30
0.0
 10
202.224960
 20
13.391361
 30
0.0
 10
195.237504
 20
34.037785
 30
0.0
  0
SPLINE
  5
25d
100
AcDbEntity
  8
TopPlace_-_Etch
 62
7
100
AcDbSpline
 70
8
 71
3
 72
8
 73
4
 74
0
 40
0
 40
0
 40
0
 40
0
 40
1
 40
1
 40
1
 40
1
 10
195.237504
 20
34.037785
 30
0.0
 10
188.250040
 20
54.684217
 30
0.0
 10
184.647984
 20
76.472281
 30
0.0
 10
184.618752
 20
98.269041
 30
0.0
  0
SPLINE
  5
25e
100
AcDbEntity
  8
TopPlace_-_Etch
 62
7
100
AcDbSpline
 70
8
 71
3
 72
8
 73
4
 74
0
 40
0
 40
0
 40
0
 40
0
 40
1
 40
1
 40
1
 40
1
 10
184.618752
 20
98.269041
 30
0.0
 10
184.636592
 20
100.408633
 30
0.0
 10
184.692032
 20
102.548289
 30
0.0
 10
184.778128
 20
104.686225
 30
0.0
  0
LINE
  5
25f
100
AcDbEntity
  8
TopPlace_-_Etch
 62
7
100
AcDbLine
 10
184.778128
 20
104.686225
 30
0.0
 11
184.778128
 21
104.686225
 31
0.0
  0
SPLINE
  5
260
100
AcDbEntity
  8
TopPlace_-_Etch
 62
7
100
AcDbSpline
 70
8
 71
3
 72
8
 73
4
 74
0
 40
0
 40
0
 40
0
 40
0
 40
1
 40
1
 40
1
 40
1
 10
571.346872
 20
20.465913
 30
0.0
 10
564.721640
 20
4.863385
 30
0.0
 10
556.114736
 20
-9.896423
 30
0.0
 10
545.798440
 20
-23.346591
 30
0.0
  0
SPLINE
  5
261
100
AcDbEntity
  8
TopPlace_-_Etch
 62
7
100
AcDbSpline
 70
8
 71
3
 72
8
 73
4
 74
0
 40
0
 40
0
 40
0
 40
0
 40
1
 40
1
 40
1
 40
1
 10
545.798440
 20
-23.346591
 30
0.0
 10
564.841384
 20
-25.183263
 30
0.0
 10
583.474968
 20
-31.153503
 30
0.0
 10
600.039064
 20
-40.726271
 30
0.0
  0
SPLINE
  5
262
100
AcDbEntity
  8
TopPlace_-_Etch
 62
7
100
AcDbSpline
 70
8
 71
3
 72
8
 73
4
 74
0
 40
0
 40
0
 40
0
 40
0
 40
1
 40
1
 40
1
 40
1
 10
600.039064
 20
-40.726271
 30
0.0
 10
616.603152
 20
-50.299031
 30
0.0
 10
631.079416
 20
-63.463719
 30
0.0
 10
642.178128
 20
-79.046591
 30
0.0
  0
SPLINE
  5
263
100
AcDbEntity
  8
TopPlace_-_Etch
 62
7
100
AcDbSpline
 70
8
 71
3
 72
8
 73
4
 74
0
 40
0
 40
0
 40
0
 40
0
 40
1
 40
1
 40
1
 40
1
 10
642.178128
 20
-79.046591
 30
0.0
 10
648.803360
 20
-63.444063
 30
0.0
 10
657.410264
 20
-48.684247
 30
0.0
 10
667.726560
 20
-35.234087
 30
0.0
  0
SPLINE
  5
264
100
AcDbEntity
  8
TopPlace_-_Etch
 62
7
100
AcDbSpline
 70
8
 71
3
 72
8
 73
4
 74
0
 40
0
 40
0
 40
0
 40
0
 40
1
 40
1
 40
1
 40
1
 10
667.726560
 20
-35.234087
 30
0.0
 10
648.683616
 20
-33.397407
 30
0.0
 10
630.050032
 20
-27.427167
 30
0.0
 10
613.485936
 20
-17.854399
 30
0.0
  0
SPLINE
  5
265
100
AcDbEntity
  8
TopPlace_-_Etch
 62
7
100
AcDbSpline
 70
8
 71
3
 72
8
 73
4
 74
0
 40
0
 40
0
 40
0
 40
0
 40
1
 40
1
 40
1
 40
1
 10
613.485936
 20
-17.854399
 30
0.0
 10
596.921848
 20
-8.281639
 30
0.0
 10
582.445584
 20
4.883049
 30
0.0
 10
571.346872
 20
20.465913
 30
0.0
  0
LINE
  5
266
100
AcDbEntity
  8
TopPlace_-_Etch
 62
7
100
AcDbLine
 10
571.346872
 20
20.465913
 30
0.0
 11
571.346872
 21
20.465913
 31
0.0
  0
SPLINE
  5
267
100
AcDbEntity
  8
TopPlace_-_Etch
 62
7
100
AcDbSpline
 70
8
 71
3
 72
8
 73
4
 74
0
 40
0
 40
0
 40
0
 40
0
 40
1
 40
1
 40
1
 40
1
 10
411.279688
 20
-101.070023
 30
0.0
 10
402.845176
 20
-102.230167
 30
0.0
 10
394.336960
 20
-102.854239
 30
0.0
 10
385.823440
 20
-102.937215
 30
0.0
  0
SPLINE
  5
268
100
AcDbEntity
  8
TopPlace_-_Etch
 62
7
100
AcDbSpline
 70
8
 71
3
 72
8
 73
4
 74
0
 40
0
 40
0
 40
0
 40
0
 40
1
 40
1
 40
1
 40
1
 10
385.823440
 20
-102.937215
 30
0.0
 10
377.309904
 20
-102.870415
 30
0.0
 10
368.800648
 20
-102.262543
 30
0.0
 10
360.364064
 20
-101.118463
 30
0.0
  0
SPLINE
  5
269
100
AcDbEntity
  8
TopPlace_-_Etch
 62
7
100
AcDbSpline
 70
8
 71
3
 72
8
 73
4
 74
0
 40
0
 40
0
 40
0
 40
0
 40
1
 40
1
 40
1
 40
1
 10
360.364064
 20
-101.118463
 30
0.0
 10
368.385184
 20
-118.530775
 30
0.0
 10
372.612808
 20
-137.678799
 30
0.0
 10
372.668752
 20
-156.849711
 30
0.0
  0
SPLINE
  5
26a
100
AcDbEntity
  8
TopPlace_-_Etch
 62
7
100
AcDbSpline
 70
8
 71
3
 72
8
 73
4
 74
0
 40
0
 40
0
 40
0
 40
0
 40
1
 40
1
 40
1
 40
1
 10
372.668752
 20
-156.849711
 30
0.0
 10
372.620672
 20
-176.036551
 30
0.0
 10
368.393944
 20
-195.202175
 30
0.0
 10
360.367184
 20
-212.629399
 30
0.0
  0
SPLINE
  5
26b
100
AcDbEntity
  8
TopPlace_-_Etch
 62
7
100
AcDbSpline
 70
8
 71
3
 72
8
 73
4
 74
0
 40
0
 40
0
 40
0
 40
0
 40
1
 40
1
 40
1
 40
1
 10
360.367184
 20
-212.629399
 30
0.0
 10
368.801696
 20
-211.469255
 30
0.0
 10
377.309912
 20
-210.845191
 30
0.0
 10
385.823440
 20
-210.762215
 30
0.0
  0
SPLINE
  5
26c
100
AcDbEntity
  8
TopPlace_-_Etch
 62
7
100
AcDbSpline
 70
8
 71
3
 72
8
 73
4
 74
0
 40
0
 40
0
 40
0
 40
0
 40
1
 40
1
 40
1
 40
1
 10
385.823440
 20
-210.762215
 30
0.0
 10
394.337464
 20
-210.828455
 30
0.0
 10
402.847248
 20
-211.435775
 30
0.0
 10
411.284376
 20
-212.579399
 30
0.0
  0
SPLINE
  5
26d
100
AcDbEntity
  8
TopPlace_-_Etch
 62
7
100
AcDbSpline
 70
8
 71
3
 72
8
 73
4
 74
0
 40
0
 40
0
 40
0
 40
0
 40
1
 40
1
 40
1
 40
1
 10
411.284376
 20
-212.579399
 30
0.0
 10
403.263472
 20
-195.167559
 30
0.0
 10
399.035856
 20
-176.020103
 30
0.0
 10
398.979688
 20
-156.849711
 30
0.0
  0
SPLINE
  5
26e
100
AcDbEntity
  8
TopPlace_-_Etch
 62
7
100
AcDbSpline
 70
8
 71
3
 72
8
 73
4
 74
0
 40
0
 40
0
 40
0
 40
0
 40
1
 40
1
 40
1
 40
1
 10
398.979688
 20
-156.849711
 30
0.0
 10
399.027288
 20
-137.662983
 30
0.0
 10
403.253464
 20
-118.497367
 30
0.0
 10
411.279688
 20
-101.070023
 30
0.0
  0
LINE
  5
26f
100
AcDbEntity
  8
TopPlace_-_Etch
 62
7
100
AcDbLine
 10
411.279688
 20
-101.070023
 30
0.0
 11
411.279688
 21
-101.070023
 31
0.0
  0
SPLINE
  5
270
100
AcDbEntity
  8
TopPlace_-_Etch
 62
7
100
AcDbSpline
 70
8
 71
3
 72
8
 73
4
 74
0
 40
0
 40
0
 40
0
 40
0
 40
1
 40
1
 40
1
 40
1
 10
642.321872
 20
-234.565335
 30
0.0
 10
631.211208
 20
-250.159191
 30
0.0
 10
616.717312
 20
-263.329359
 30
0.0
 10
600.134376
 20
-272.901271
 30
0.0
  0
SPLINE
  5
271
100
AcDbEntity
  8
TopPlace_-_Etch
 62
7
100
AcDbSpline
 70
8
 71
3
 72
8
 73
4
 74
0
 40
0
 40
0
 40
0
 40
0
 40
1
 40
1
 40
1
 40
1
 10
600.134376
 20
-272.901271
 30
0.0
 10
583.551440
 20
-282.473183
 30
0.0
 10
564.897880
 20
-288.436215
 30
0.0
 10
545.837504
 20
-290.257527
 30
0.0
  0
SPLINE
  5
272
100
AcDbEntity
  8
TopPlace_-_Etch
 62
7
100
AcDbSpline
 70
8
 71
3
 72
8
 73
4
 74
0
 40
0
 40
0
 40
0
 40
0
 40
1
 40
1
 40
1
 40
1
 10
545.837504
 20
-290.257527
 30
0.0
 10
556.103096
 20
-303.773895
 30
0.0
 10
564.648648
 20
-318.595175
 30
0.0
 10
571.203128
 20
-334.251271
 30
0.0
  0
SPLINE
  5
273
100
AcDbEntity
  8
TopPlace_-_Etch
 62
7
100
AcDbSpline
 70
8
 71
3
 72
8
 73
4
 74
0
 40
0
 40
0
 40
0
 40
0
 40
1
 40
1
 40
1
 40
1
 10
571.203128
 20
-334.251271
 30
0.0
 10
582.313968
 20
-318.657231
 30
0.0
 10
596.807408
 20
-305.487255
 30
0.0
 10
613.390624
 20
-295.915335
 30
0.0
  0
SPLINE
  5
274
100
AcDbEntity
  8
TopPlace_-_Etch
 62
7
100
AcDbSpline
 70
8
 71
3
 72
8
 73
4
 74
0
 40
0
 40
0
 40
0
 40
0
 40
1
 40
1
 40
1
 40
1
 10
613.390624
 20
-295.915335
 30
0.0
 10
629.973848
 20
-286.343415
 30
0.0
 10
648.628416
 20
-280.380183
 30
0.0
 10
667.689064
 20
-278.559087
 30
0.0
  0
SPLINE
  5
275
100
AcDbEntity
  8
TopPlace_-_Etch
 62
7
100
AcDbSpline
 70
8
 71
3
 72
8
 73
4
 74
0
 40
0
 40
0
 40
0
 40
0
 40
1
 40
1
 40
1
 40
1
 10
667.689064
 20
-278.559087
 30
0.0
 10
657.422928
 20
-265.042799
 30
0.0
 10
648.876840
 20
-250.221519
 30
0.0
 10
642.321872
 20
-234.565335
 30
0.0
  0
LINE
  5
276
100
AcDbEntity
  8
TopPlace_-_Etch
 62
7
100
AcDbLine
 10
642.321872
 20
-234.565335
 30
0.0
 11
642.321872
 21
-234.565335
 31
0.0
  0
SPLINE
  5
277
100
AcDbEntity
  8
TopPlace_-_Etch
 62
7
100
AcDbSpline
 70
8
 71
3
 72
8
 73
4
 74
0
 40
0
 40
0
 40
0
 40
0
 40
1
 40
1
 40
1
 40
1
 10
933.945280
 20
-327.468463
 30
0.0
 10
921.046480
 20
-335.525831
 30
0.0
 10
907.235360
 20
-342.123207
 30
0.0
 10
892.856240
 20
-347.077839
 30
0.0
  0
SPLINE
  5
278
100
AcDbEntity
  8
TopPlace_-_Etch
 62
7
100
AcDbSpline
 70
8
 71
3
 72
8
 73
4
 74
0
 40
0
 40
0
 40
0
 40
0
 40
1
 40
1
 40
1
 40
1
 10
892.856240
 20
-347.077839
 30
0.0
 10
871.938560
 20
-354.285455
 30
0.0
 10
849.826160
 20
-358.011295
 30
0.0
 10
827.701600
 20
-358.054399
 30
0.0
  0
SPLINE
  5
279
100
AcDbEntity
  8
TopPlace_-_Etch
 62
7
100
AcDbSpline
 70
8
 71
3
 72
8
 73
4
 74
0
 40
0
 40
0
 40
0
 40
0
 40
1
 40
1
 40
1
 40
1
 10
827.701600
 20
-358.054399
 30
0.0
 10
819.188080
 20
-357.988159
 30
0.0
 10
810.678800
 20
-357.380775
 30
0.0
 10
802.242160
 20
-356.237215
 30
0.0
  0
SPLINE
  5
27a
100
AcDbEntity
  8
TopPlace_-_Etch
 62
7
100
AcDbSpline
 70
8
 71
3
 72
8
 73
4
 74
0
 40
0
 40
0
 40
0
 40
0
 40
1
 40
1
 40
1
 40
1
 10
802.242160
 20
-356.237215
 30
0.0
 10
810.262560
 20
-373.649175
 30
0.0
 10
814.489600
 20
-392.796631
 30
0.0
 10
814.545280
 20
-411.966903
 30
0.0
  0
SPLINE
  5
27b
100
AcDbEntity
  8
TopPlace_-_Etch
 62
7
100
AcDbSpline
 70
8
 71
3
 72
8
 73
4
 74
0
 40
0
 40
0
 40
0
 40
0
 40
1
 40
1
 40
1
 40
1
 10
814.545280
 20
-411.966903
 30
0.0
 10
814.545360
 20
-429.525351
 30
0.0
 10
811.053680
 20
-447.076231
 30
0.0
 10
804.334400
 20
-463.298151
 30
0.0
  0
SPLINE
  5
27c
100
AcDbEntity
  8
TopPlace_-_Etch
 62
7
100
AcDbSpline
 70
8
 71
3
 72
8
 73
4
 74
0
 40
0
 40
0
 40
0
 40
0
 40
1
 40
1
 40
1
 40
1
 10
804.334400
 20
-463.298151
 30
0.0
 10
797.615160
 20
-479.520071
 30
0.0
 10
787.673440
 20
-494.399567
 30
0.0
 10
775.257816
 20
-506.815327
 30
0.0
  0
SPLINE
  5
27d
100
AcDbEntity
  8
TopPlace_-_Etch
 62
7
100
AcDbSpline
 70
8
 71
3
 72
8
 73
4
 74
0
 40
0
 40
0
 40
0
 40
0
 40
1
 40
1
 40
1
 40
1
 10
775.257816
 20
-506.815327
 30
0.0
 10
762.842192
 20
-519.231087
 30
0.0
 10
747.962464
 20
-529.174047
 30
0.0
 10
731.740624
 20
-535.893487
 30
0.0
  0
SPLINE
  5
27e
100
AcDbEntity
  8
TopPlace_-_Etch
 62
7
100
AcDbSpline
 70
8
 71
3
 72
8
 73
4
 74
0
 40
0
 40
0
 40
0
 40
0
 40
1
 40
1
 40
1
 40
1
 10
731.740624
 20
-535.893487
 30
0.0
 10
715.518776
 20
-542.612927
 30
0.0
 10
697.967824
 20
-546.104207
 30
0.0
 10
680.409376
 20
-546.104367
 30
0.0
  0
SPLINE
  5
27f
100
AcDbEntity
  8
TopPlace_-_Etch
 62
7
100
AcDbSpline
 70
8
 71
3
 72
8
 73
4
 74
0
 40
0
 40
0
 40
0
 40
0
 40
1
 40
1
 40
1
 40
1
 10
680.409376
 20
-546.104367
 30
0.0
 10
659.159696
 20
-546.071567
 30
0.0
 10
637.936064
 20
-540.897087
 30
0.0
 10
619.056248
 20
-531.145007
 30
0.0
  0
SPLINE
  5
280
100
AcDbEntity
  8
TopPlace_-_Etch
 62
7
100
AcDbSpline
 70
8
 71
3
 72
8
 73
4
 74
0
 40
0
 40
0
 40
0
 40
0
 40
1
 40
1
 40
1
 40
1
 10
619.056248
 20
-531.145007
 30
0.0
 10
600.176424
 20
-521.393007
 30
0.0
 10
583.672176
 20
-507.080047
 30
0.0
 10
571.346872
 20
-489.770047
 30
0.0
  0
SPLINE
  5
281
100
AcDbEntity
  8
TopPlace_-_Etch
 62
7
100
AcDbSpline
 70
8
 71
3
 72
8
 73
4
 74
0
 40
0
 40
0
 40
0
 40
0
 40
1
 40
1
 40
1
 40
1
 10
571.346872
 20
-489.770047
 30
0.0
 10
561.152464
 20
-514.034127
 30
0.0
 10
546.140792
 20
-536.262927
 30
0.0
 10
527.442184
 20
-554.784127
 30
0.0
  0
SPLINE
  5
282
100
AcDbEntity
  8
TopPlace_-_Etch
 62
7
100
AcDbSpline
 70
8
 71
3
 72
8
 73
4
 74
0
 40
0
 40
0
 40
0
 40
0
 40
1
 40
1
 40
1
 40
1
 10
527.442184
 20
-554.784127
 30
0.0
 10
513.625528
 20
-568.469647
 30
0.0
 10
497.799392
 20
-580.115807
 30
0.0
 10
480.651560
 20
-589.287247
 30
0.0
  0
LINE
  5
283
100
AcDbEntity
  8
TopPlace_-_Etch
 62
7
100
AcDbLine
 10
480.651560
 20
-589.287247
 30
0.0
 11
749.495312
 21
-589.287247
 31
0.0
  0
SPLINE
  5
284
100
AcDbEntity
  8
TopPlace_-_Etch
 62
7
100
AcDbSpline
 70
8
 71
3
 72
8
 73
4
 74
0
 40
0
 40
0
 40
0
 40
0
 40
1
 40
1
 40
1
 40
1
 10
749.495312
 20
-589.287247
 30
0.0
 10
766.140032
 20
-589.287487
 30
0.0
 10
791.107208
 20
-574.872287
 30
0.0
 10
799.429688
 20
-560.457487
 30
0.0
  0
LINE
  5
285
100
AcDbEntity
  8
TopPlace_-_Etch
 62
7
100
AcDbLine
 10
799.429688
 20
-560.457487
 30
0.0
 11
933.945280
 21
-327.468463
 31
0.0
  0
LINE
  5
286
100
AcDbEntity
  8
TopPlace_-_Etch
 62
7
100
AcDbLine
 10
933.945280
 20
-327.468463
 30
0.0
 11
933.945280
 21
-327.468463
 31
0.0
  0
SPLINE
  5
287
100
AcDbEntity
  8
TopPlace_-_Etch
 62
7
100
AcDbSpline
 70
8
 71
3
 72
8
 73
4
 74
0
 40
0
 40
0
 40
0
 40
0
 40
1
 40
1
 40
1
 40
1
 10
51.696271
 20
-188.097631
 30
0.0
 10
50.931903
 20
-177.758911
 30
0.0
 10
50.506549
 20
-167.338919
 30
0.0
 10
50.431520
 20
-156.849079
 30
0.0
  0
SPLINE
  5
288
100
AcDbEntity
  8
TopPlace_-_Etch
 62
7
100
AcDbSpline
 70
8
 71
3
 72
8
 73
4
 74
0
 40
0
 40
0
 40
0
 40
0
 40
1
 40
1
 40
1
 40
1
 10
50.431520
 20
-156.849079
 30
0.0
 10
50.358648
 20
-146.660911
 30
0.0
 10
50.615242
 20
-136.536511
 30
0.0
 10
51.191114
 20
-126.485975
 30
0.0
  0
SPLINE
  5
289
100
AcDbEntity
  8
TopPlace_-_Etch
 62
7
100
AcDbSpline
 70
8
 71
3
 72
8
 73
4
 74
0
 40
0
 40
0
 40
0
 40
0
 40
1
 40
1
 40
1
 40
1
 10
811.491120
 20
-539.697727
 30
0.0
 10
785.754912
 20
-558.885327
 30
0.0
 10
758.076488
 20
-575.562447
 30
0.0
 10
728.850720
 20
-589.338207
 30
0.0
  0
SPLINE
  5
28a
100
AcDbEntity
  8
TopPlace_-_Etch
 62
7
100
AcDbSpline
 70
8
 71
3
 72
8
 73
4
 74
0
 40
0
 40
0
 40
0
 40
0
 40
1
 40
1
 40
1
 40
1
 10
709.064744
 20
275.640622
 30
0.0
 10
748.799568
 20
259.441765
 30
0.0
 10
785.964248
 20
237.874787
 30
0.0
 10
819.626400
 20
211.881697
 30
0.0
  0
SPLINE
  5
28b
100
AcDbEntity
  8
TopPlace_-_Etch
 62
7
100
AcDbSpline
 70
8
 71
3
 72
8
 73
4
 74
0
 40
0
 40
0
 40
0
 40
0
 40
1
 40
1
 40
1
 40
1
 10
79.938918
 20
-236.857079
 30
0.0
 10
75.006138
 20
-210.827423
 30
0.0
 10
72.329173
 20
-184.084935
 30
0.0
 10
72.125200
 20
-156.849095
 30
0.0
  0
SPLINE
  5
28c
100
AcDbEntity
  8
TopPlace_-_Etch
 62
7
100
AcDbSpline
 70
8
 71
3
 72
8
 73
4
 74
0
 40
0
 40
0
 40
0
 40
0
 40
1
 40
1
 40
1
 40
1
 10
72.125200
 20
-156.849095
 30
0.0
 10
71.929275
 20
-130.687727
 30
0.0
 10
74.007822
 20
-104.966295
 30
0.0
 10
78.171862
 20
-79.871823
 30
0.0
  0
SPLINE
  5
28d
100
AcDbEntity
  8
TopPlace_-_Etch
 62
7
100
AcDbSpline
 70
8
 71
3
 72
8
 73
4
 74
0
 40
0
 40
0
 40
0
 40
0
 40
1
 40
1
 40
1
 40
1
 10
843.464960
 20
-484.275351
 30
0.0
 10
794.809288
 20
-531.153567
 30
0.0
 10
735.935296
 20
-567.512927
 30
0.0
 10
670.903424
 20
-589.336367
 30
0.0
  0
SPLINE
  5
28e
100
AcDbEntity
  8
TopPlace_-_Etch
 62
7
100
AcDbSpline
 70
8
 71
3
 72
8
 73
4
 74
0
 40
0
 40
0
 40
0
 40
0
 40
1
 40
1
 40
1
 40
1
 10
638.684000
 20
275.682568
 30
0.0
 10
721.246184
 20
255.678858
 30
0.0
 10
795.482808
 20
212.121417
 30
0.0
 10
853.721520
 20
152.766009
 30
0.0
  0
SPLINE
  5
28f
100
AcDbEntity
  8
TopPlace_-_Etch
 62
7
100
AcDbSpline
 70
8
 71
3
 72
8
 73
4
 74
0
 40
0
 40
0
 40
0
 40
0
 40
1
 40
1
 40
1
 40
1
 10
126.710080
 20
-317.954455
 30
0.0
 10
105.946584
 20
-267.949055
 30
0.0
 10
94.264336
 20
-213.520727
 30
0.0
 10
93.818960
 20
-156.849103
 30
0.0
  0
SPLINE
  5
290
100
AcDbEntity
  8
TopPlace_-_Etch
 62
7
100
AcDbSpline
 70
8
 71
3
 72
8
 73
4
 74
0
 40
0
 40
0
 40
0
 40
0
 40
1
 40
1
 40
1
 40
1
 10
93.818960
 20
-156.849103
 30
0.0
 10
93.416240
 20
-105.605551
 30
0.0
 10
102.170288
 20
-56.131719
 30
0.0
 10
118.517840
 20
-9.973879
 30
0.0
  0
SPLINE
  5
291
100
AcDbEntity
  8
TopPlace_-_Etch
 62
7
100
AcDbSpline
 70
8
 71
3
 72
8
 73
4
 74
0
 40
0
 40
0
 40
0
 40
0
 40
1
 40
1
 40
1
 40
1
 10
184.889672
 20
-418.289447
 30
0.0
 10
184.631400
 20
-417.953991
 30
0.0
 10
184.373600
 20
-417.618159
 30
0.0
 10
184.116272
 20
-417.281959
 30
0.0
  0
SPLINE
  5
292
100
AcDbEntity
  8
TopPlace_-_Etch
 62
7
100
AcDbSpline
 70
8
 71
3
 72
8
 73
4
 74
0
 40
0
 40
0
 40
0
 40
0
 40
1
 40
1
 40
1
 40
1
 10
924.029600
 20
-333.601391
 30
0.0
 10
860.605920
 20
-473.820319
 30
0.0
 10
723.524024
 20
-576.126847
 30
0.0
 10
564.584808
 20
-589.297647
 30
0.0
  0
SPLINE
  5
293
100
AcDbEntity
  8
TopPlace_-_Etch
 62
7
100
AcDbSpline
 70
8
 71
3
 72
8
 73
4
 74
0
 40
0
 40
0
 40
0
 40
0
 40
1
 40
1
 40
1
 40
1
 10
781.647088
 20
186.288121
 30
0.0
 10
840.204400
 20
144.127889
 30
0.0
 10
888.036720
 20
87.561289
 30
0.0
 10
919.625760
 20
22.169761
 30
0.0
  0
SPLINE
  5
294
100
AcDbEntity
  8
TopPlace_-_Etch
 62
7
100
AcDbSpline
 70
8
 71
3
 72
8
 73
4
 74
0
 40
0
 40
0
 40
0
 40
0
 40
1
 40
1
 40
1
 40
1
 10
498.846768
 20
264.467275
 30
0.0
 10
510.160560
 20
265.507290
 30
0.0
 10
521.590584
 20
266.084116
 30
0.0
 10
533.117040
 20
266.178185
 30
0.0
  0
SPLINE
  5
295
100
AcDbEntity
  8
TopPlace_-_Etch
 62
7
100
AcDbSpline
 70
8
 71
3
 72
8
 73
4
 74
0
 40
0
 40
0
 40
0
 40
0
 40
1
 40
1
 40
1
 40
1
 10
533.117040
 20
266.178185
 30
0.0
 10
594.173072
 20
266.676476
 30
0.0
 10
652.621952
 20
253.676213
 30
0.0
 10
705.645320
 20
230.027953
 30
0.0
  0
SPLINE
  5
296
100
AcDbEntity
  8
TopPlace_-_Etch
 62
7
100
AcDbSpline
 70
8
 71
3
 72
8
 73
4
 74
0
 40
0
 40
0
 40
0
 40
0
 40
1
 40
1
 40
1
 40
1
 10
119.758784
 20
-94.675351
 30
0.0
 10
128.830088
 20
-32.472847
 30
0.0
 10
152.030776
 20
25.670049
 30
0.0
 10
185.914024
 20
76.345937
 30
0.0
  0
SPLINE
  5
297
100
AcDbEntity
  8
TopPlace_-_Etch
 62
7
100
AcDbSpline
 70
8
 71
3
 72
8
 73
4
 74
0
 40
0
 40
0
 40
0
 40
0
 40
1
 40
1
 40
1
 40
1
 10
186.681944
 20
-383.859175
 30
0.0
 10
154.215648
 20
-335.818655
 30
0.0
 10
131.435240
 20
-280.888183
 30
0.0
 10
121.342864
 20
-222.105103
 30
0.0
  0
SPLINE
  5
298
100
AcDbEntity
  8
TopPlace_-_Etch
 62
7
100
AcDbSpline
 70
8
 71
3
 72
8
 73
4
 74
0
 40
0
 40
0
 40
0
 40
0
 40
1
 40
1
 40
1
 40
1
 10
665.853608
 20
-545.225167
 30
0.0
 10
624.106072
 20
-560.262127
 30
0.0
 10
579.409912
 20
-568.642287
 30
0.0
 10
533.116560
 20
-569.030047
 30
0.0
  0
SPLINE
  5
299
100
AcDbEntity
  8
TopPlace_-_Etch
 62
7
100
AcDbSpline
 70
8
 71
3
 72
8
 73
4
 74
0
 40
0
 40
0
 40
0
 40
0
 40
1
 40
1
 40
1
 40
1
 10
533.116560
 20
-569.030047
 30
0.0
 10
525.957984
 20
-569.090047
 30
0.0
 10
518.836168
 20
-568.959647
 30
0.0
 10
511.755896
 20
-568.643487
 30
0.0
  0
SPLINE
  5
29a
100
AcDbEntity
  8
TopPlace_-_Etch
 62
7
100
AcDbSpline
 70
8
 71
3
 72
8
 73
4
 74
0
 40
0
 40
0
 40
0
 40
0
 40
1
 40
1
 40
1
 40
1
 10
893.483440
 20
-346.831791
 30
0.0
 10
870.930080
 20
-389.673439
 30
0.0
 10
840.961600
 20
-428.242863
 30
0.0
 10
805.381200
 20
-460.757887
 30
0.0
  0
SPLINE
  5
29b
100
AcDbEntity
  8
TopPlace_-_Etch
 62
7
100
AcDbSpline
 70
8
 71
3
 72
8
 73
4
 74
0
 40
0
 40
0
 40
0
 40
0
 40
1
 40
1
 40
1
 40
1
 10
809.171440
 20
135.843985
 30
0.0
 10
840.681520
 20
106.548377
 30
0.0
 10
867.642720
 20
72.372729
 30
0.0
 10
888.752320
 20
34.635385
 30
0.0
  0
SPLINE
  5
29c
100
AcDbEntity
  8
TopPlace_-_Etch
 62
7
100
AcDbSpline
 70
8
 71
3
 72
8
 73
4
 74
0
 40
0
 40
0
 40
0
 40
0
 40
1
 40
1
 40
1
 40
1
 10
523.947224
 20
244.297927
 30
0.0
 10
526.996368
 20
244.395793
 30
0.0
 10
530.053112
 20
244.458109
 30
0.0
 10
533.117040
 20
244.484465
 30
0.0
  0
SPLINE
  5
29d
100
AcDbEntity
  8
TopPlace_-_Etch
 62
7
100
AcDbSpline
 70
8
 71
3
 72
8
 73
4
 74
0
 40
0
 40
0
 40
0
 40
0
 40
1
 40
1
 40
1
 40
1
 10
533.117040
 20
244.484465
 30
0.0
 10
572.857640
 20
244.826329
 30
0.0
 10
611.435216
 20
239.140837
 30
0.0
 10
647.987272
 20
228.300865
 30
0.0
  0
SPLINE
  5
29e
100
AcDbEntity
  8
TopPlace_-_Etch
 62
7
100
AcDbSpline
 70
8
 71
3
 72
8
 73
4
 74
0
 40
0
 40
0
 40
0
 40
0
 40
1
 40
1
 40
1
 40
1
 10
149.469912
 20
-56.829959
 30
0.0
 10
158.815880
 20
-20.635943
 30
0.0
 10
173.255584
 20
13.699497
 30
0.0
 10
191.951912
 20
45.349321
 30
0.0
  0
SPLINE
  5
29f
100
AcDbEntity
  8
TopPlace_-_Etch
 62
7
100
AcDbSpline
 70
8
 71
3
 72
8
 73
4
 74
0
 40
0
 40
0
 40
0
 40
0
 40
1
 40
1
 40
1
 40
1
 10
193.401424
 20
-354.217559
 30
0.0
 10
175.645072
 20
-324.738039
 30
0.0
 10
161.619072
 20
-292.847711
 30
0.0
 10
152.018992
 20
-259.250767
 30
0.0
  0
SPLINE
  5
2a0
100
AcDbEntity
  8
TopPlace_-_Etch
 62
7
100
AcDbSpline
 70
8
 71
3
 72
8
 73
4
 74
0
 40
0
 40
0
 40
0
 40
0
 40
1
 40
1
 40
1
 40
1
 10
626.837960
 20
-534.716367
 30
0.0
 10
597.154864
 20
-542.571327
 30
0.0
 10
566.180248
 20
-546.934367
 30
0.0
 10
534.402760
 20
-547.322847
 30
0.0
  0
SPLINE
  5
2a1
100
AcDbEntity
  8
TopPlace_-_Etch
 62
7
100
AcDbSpline
 70
8
 71
3
 72
8
 73
4
 74
0
 40
0
 40
0
 40
0
 40
0
 40
1
 40
1
 40
1
 40
1
 10
864.357280
 20
-354.583703
 30
0.0
 10
850.063040
 20
-378.623495
 30
0.0
 10
833.240320
 20
-401.059695
 30
0.0
 10
814.278880
 20
-421.507327
 30
0.0
  0
SPLINE
  5
2a2
100
AcDbEntity
  8
TopPlace_-_Etch
 62
7
100
AcDbSpline
 70
8
 71
3
 72
8
 73
4
 74
0
 40
0
 40
0
 40
0
 40
0
 40
1
 40
1
 40
1
 40
1
 10
814.490640
 20
100.010505
 30
0.0
 10
831.199920
 20
82.075065
 30
0.0
 10
846.246240
 20
62.570761
 30
0.0
 10
859.360720
 20
41.769825
 30
0.0
  0
SPLINE
  5
2a3
100
AcDbEntity
  8
TopPlace_-_Etch
 62
7
100
AcDbSpline
 70
8
 71
3
 72
8
 73
4
 74
0
 40
0
 40
0
 40
0
 40
0
 40
1
 40
1
 40
1
 40
1
 10
543.555768
 20
222.739249
 30
0.0
 10
567.561960
 20
222.283713
 30
0.0
 10
591.083768
 20
219.508569
 30
0.0
 10
613.905368
 20
214.632377
 30
0.0
  0
SPLINE
  5
2a4
100
AcDbEntity
  8
TopPlace_-_Etch
 62
7
100
AcDbSpline
 70
8
 71
3
 72
8
 73
4
 74
0
 40
0
 40
0
 40
0
 40
0
 40
1
 40
1
 40
1
 40
1
 10
177.798784
 20
-37.417719
 30
0.0
 10
184.209912
 20
-18.238463
 30
0.0
 10
192.153264
 20
0.295297
 30
0.0
 10
201.477816
 20
18.034465
 30
0.0
  0
SPLINE
  5
2a5
100
AcDbEntity
  8
TopPlace_-_Etch
 62
7
100
AcDbSpline
 70
8
 71
3
 72
8
 73
4
 74
0
 40
0
 40
0
 40
0
 40
0
 40
1
 40
1
 40
1
 40
1
 10
203.302152
 20
-327.949519
 30
0.0
 10
194.616576
 20
-311.882831
 30
0.0
 10
187.076248
 20
-295.137479
 30
0.0
 10
180.797016
 20
-277.830815
 30
0.0
  0
SPLINE
  5
2a6
100
AcDbEntity
  8
TopPlace_-_Etch
 62
7
100
AcDbSpline
 70
8
 71
3
 72
8
 73
4
 74
0
 40
0
 40
0
 40
0
 40
0
 40
1
 40
1
 40
1
 40
1
 10
599.434016
 20
-518.815247
 30
0.0
 10
583.934680
 20
-521.890367
 30
0.0
 10
568.112944
 20
-523.964527
 30
0.0
 10
552.042072
 20
-524.965407
 30
0.0
  0
SPLINE
  5
2a7
100
AcDbEntity
  8
TopPlace_-_Etch
 62
7
100
AcDbSpline
 70
8
 71
3
 72
8
 73
4
 74
0
 40
0
 40
0
 40
0
 40
0
 40
1
 40
1
 40
1
 40
1
 10
836.955840
 20
-357.634151
 30
0.0
 10
829.451920
 20
-369.066487
 30
0.0
 10
821.326720
 20
-380.071503
 30
0.0
 10
812.631520
 20
-390.598567
 30
0.0
  0
SPLINE
  5
2a8
100
AcDbEntity
  8
TopPlace_-_Etch
 62
7
100
AcDbSpline
 70
8
 71
3
 72
8
 73
4
 74
0
 40
0
 40
0
 40
0
 40
0
 40
1
 40
1
 40
1
 40
1
 10
811.510000
 20
70.770633
 30
0.0
 10
818.663920
 20
62.239857
 30
0.0
 10
825.438160
 20
53.382905
 30
0.0
 10
831.804480
 20
44.228401
 30
0.0
  0
SPLINE
  5
2a9
100
AcDbEntity
  8
TopPlace_-_Etch
 62
7
100
AcDbSpline
 70
8
 71
3
 72
8
 73
4
 74
0
 40
0
 40
0
 40
0
 40
0
 40
1
 40
1
 40
1
 40
1
 10
558.792184
 20
200.403329
 30
0.0
 10
569.291640
 20
199.733153
 30
0.0
 10
579.680528
 20
198.593513
 30
0.0
 10
589.937944
 20
197.005609
 30
0.0
  0
SPLINE
  5
2aa
100
AcDbEntity
  8
TopPlace_-_Etch
 62
7
100
AcDbSpline
 70
8
 71
3
 72
8
 73
4
 74
0
 40
0
 40
0
 40
0
 40
0
 40
1
 40
1
 40
1
 40
1
 10
204.499376
 20
-27.318903
 30
0.0
 10
207.391408
 20
-19.944311
 30
0.0
 10
210.526976
 20
-12.683231
 30
0.0
 10
213.895760
 20
-5.545871
 30
0.0
  0
SPLINE
  5
2ab
100
AcDbEntity
  8
TopPlace_-_Etch
 62
7
100
AcDbSpline
 70
8
 71
3
 72
8
 73
4
 74
0
 40
0
 40
0
 40
0
 40
0
 40
1
 40
1
 40
1
 40
1
 10
215.797776
 20
-304.950815
 30
0.0
 10
212.956320
 20
-299.138079
 30
0.0
 10
210.271224
 20
-293.239575
 30
0.0
 10
207.748256
 20
-287.261175
 30
0.0
  0
SPLINE
  5
2ac
100
AcDbEntity
  8
TopPlace_-_Etch
 62
7
100
AcDbSpline
 70
8
 71
3
 72
8
 73
4
 74
0
 40
0
 40
0
 40
0
 40
0
 40
1
 40
1
 40
1
 40
1
 10
579.590656
 20
-500.262207
 30
0.0
 10
574.984640
 20
-500.951087
 30
0.0
 10
570.351600
 20
-501.546287
 30
0.0
 10
565.693624
 20
-502.045807
 30
0.0
  0
SPLINE
  5
2ad
100
AcDbEntity
  8
TopPlace_-_Etch
 62
7
100
AcDbSpline
 70
8
 71
3
 72
8
 73
4
 74
0
 40
0
 40
0
 40
0
 40
0
 40
1
 40
1
 40
1
 40
1
 10
811.169200
 20
-357.043823
 30
0.0
 10
809.353120
 20
-359.590791
 30
0.0
 10
807.503520
 20
-362.112967
 30
0.0
 10
805.620960
 20
-364.609663
 30
0.0
  0
SPLINE
  5
2ae
100
AcDbEntity
  8
TopPlace_-_Etch
 62
7
100
AcDbSpline
 70
8
 71
3
 72
8
 73
4
 74
0
 40
0
 40
0
 40
0
 40
0
 40
1
 40
1
 40
1
 40
1
 10
361.397072
 20
-103.460863
 30
0.0
 10
361.616680
 20
-102.722759
 30
0.0
 10
361.840984
 20
-101.986503
 30
0.0
 10
362.069952
 20
-101.252127
 30
0.0
  0
SPLINE
  5
2af
100
AcDbEntity
  8
TopPlace_-_Etch
 62
7
100
AcDbSpline
 70
8
 71
3
 72
8
 73
4
 74
0
 40
0
 40
0
 40
0
 40
0
 40
1
 40
1
 40
1
 40
1
 10
364.330280
 20
-212.153559
 30
0.0
 10
363.723072
 20
-210.459519
 30
0.0
 10
363.141168
 20
-208.754287
 30
0.0
 10
362.585048
 20
-207.038351
 30
0.0
  0
SPLINE
  5
2b0
100
AcDbEntity
  8
TopPlace_-_Etch
 62
7
100
AcDbSpline
 70
8
 71
3
 72
8
 73
4
 74
0
 40
0
 40
0
 40
0
 40
0
 40
1
 40
1
 40
1
 40
1
 10
580.923032
 20
-322.458591
 30
0.0
 10
576.464664
 20
-323.880655
 30
0.0
 10
571.932568
 20
-325.123359
 30
0.0
 10
567.335824
 20
-326.177879
 30
0.0
  0
SPLINE
  5
2b1
100
AcDbEntity
  8
TopPlace_-_Etch
 62
7
100
AcDbSpline
 70
8
 71
3
 72
8
 73
4
 74
0
 40
0
 40
0
 40
0
 40
0
 40
1
 40
1
 40
1
 40
1
 10
660.905576
 20
-268.892751
 30
0.0
 10
656.981640
 20
-273.525807
 30
0.0
 10
652.817744
 20
-277.954415
 30
0.0
 10
648.434808
 20
-282.158247
 30
0.0
  0
SPLINE
  5
2b2
100
AcDbEntity
  8
TopPlace_-_Etch
 62
7
100
AcDbSpline
 70
8
 71
3
 72
8
 73
4
 74
0
 40
0
 40
0
 40
0
 40
0
 40
1
 40
1
 40
1
 40
1
 10
634.684456
 20
-27.577327
 30
0.0
 10
643.160464
 20
-34.017687
 30
0.0
 10
651.020688
 20
-41.253351
 30
0.0
 10
658.148392
 20
-49.164151
 30
0.0
  0
SPLINE
  5
2b3
100
AcDbEntity
  8
TopPlace_-_Etch
 62
7
100
AcDbSpline
 70
8
 71
3
 72
8
 73
4
 74
0
 40
0
 40
0
 40
0
 40
0
 40
1
 40
1
 40
1
 40
1
 10
562.991416
 20
3.674265
 30
0.0
 10
574.435320
 20
1.743977
 30
0.0
 10
585.508512
 20
-1.411487
 30
0.0
 10
596.071856
 20
-5.648871
 30
0.0
  0
SPLINE
  5
2b4
100
AcDbEntity
  8
TopPlace_-_Etch
 62
7
100
AcDbSpline
 70
8
 71
3
 72
8
 73
4
 74
0
 40
0
 40
0
 40
0
 40
0
 40
1
 40
1
 40
1
 40
1
 10
387.009272
 20
-210.865815
 30
0.0
 10
380.190768
 20
-194.022639
 30
0.0
 10
376.253216
 20
-175.796791
 30
0.0
 10
375.837280
 20
-156.849271
 30
0.0
  0
SPLINE
  5
2b5
100
AcDbEntity
  8
TopPlace_-_Etch
 62
7
100
AcDbSpline
 70
8
 71
3
 72
8
 73
4
 74
0
 40
0
 40
0
 40
0
 40
0
 40
1
 40
1
 40
1
 40
1
 10
375.837280
 20
-156.849271
 30
0.0
 10
375.423600
 20
-138.004255
 30
0.0
 10
378.461032
 20
-119.805287
 30
0.0
 10
384.352344
 20
-102.831855
 30
0.0
  0
SPLINE
  5
2b6
100
AcDbEntity
  8
TopPlace_-_Etch
 62
7
100
AcDbSpline
 70
8
 71
3
 72
8
 73
4
 74
0
 40
0
 40
0
 40
0
 40
0
 40
1
 40
1
 40
1
 40
1
 10
649.257152
 20
-248.911423
 30
0.0
 10
626.871760
 20
-278.250599
 30
0.0
 10
593.893272
 20
-299.369087
 30
0.0
 10
556.493296
 20
-306.291927
 30
0.0
  0
SPLINE
  5
2b7
100
AcDbEntity
  8
TopPlace_-_Etch
 62
7
100
AcDbSpline
 70
8
 71
3
 72
8
 73
4
 74
0
 40
0
 40
0
 40
0
 40
0
 40
1
 40
1
 40
1
 40
1
 10
550.474312
 20
-16.504383
 30
0.0
 10
588.912384
 20
-20.406759
 30
0.0
 10
623.221584
 20
-40.216431
 30
0.0
 10
646.794240
 20
-69.099911
 30
0.0
  0
ENDSEC
  0
SECTION
  2
OBJECTS
  0
DICTIONARY
  5
C
330
0
100
AcDbDictionary
  3
ACAD_GROUP
350
D
  3
ACAD_MLINESTYLE
350
17
  0
DICTIONARY
  5
D
330
C
100
AcDbDictionary
  0
DICTIONARY
  5
1A
330
C
100
AcDbDictionary
  0
DICTIONARY
  5
17
330
C
100
AcDbDictionary
  3
STANDARD
350
18
  0
DICTIONARY
  5
19
330
C
100
AcDbDictionary
  0
ENDSEC
  0
EOF
