  0
SECTION
  2
HEADER
  9
$ACADVER
  1
AC1014
  9
$HANDSEED
  5
FFFF
  9
$MEASUREMENT
 70
     1
  0
ENDSEC
  0
SECTION
  2
TABLES
  0
TABLE
  2
VPORT
  5
8
330
0
100
AcDbSymbolTable
 70
     4
  0
VPORT
  5
2E
330
8
100
AcDbSymbolTableRecord
100
AcDbViewportTableRecord
  2
*ACTIVE
 70
     0
 10
0.0
 20
0.0
 11
1.0
 21
1.0
 12
210.0
 22
148.5
 13
0.0
 23
0.0
 14
10.0
 24
10.0
 15
10.0
 25
10.0
 16
0.0
 26
0.0
 36
1.0
 17
0.0
 27
0.0
 37
0.0
 40
341.0
 41
1.24
 42
50.0
 43
0.0
 44
0.0
 50
0.0
 51
0.0
 71
     0
 72
   100
 73
     1
 74
     3
 75
     0
 76
     0
 77
     0
 78
     0
  0
ENDTAB
  0
TABLE
  2
LTYPE
  5
5
330
0
100
AcDbSymbolTable
 70
     1
  0
LTYPE
  5
14
330
5
100
AcDbSymbolTableRecord
100
AcDbLinetypeTableRecord
  2
BYBLOCK
 70
     0
  3

 72
    65
 73
     0
 40
0.0
  0
LTYPE
  5
15
330
5
100
AcDbSymbolTableRecord
100
AcDbLinetypeTableRecord
  2
BYLAYER
 70
     0
  3

 72
    65
 73
     0
 40
0.0
  0
LTYPE
  5
16
330
5
100
AcDbSymbolTableRecord
100
AcDbLinetypeTableRecord
  2
CONTINUOUS
 70
     0
  3
Solid line
 72
    65
 73
     0
 40
0.0
  0
ENDTAB
  0
TABLE
  2
LAYER
  5
2
100
AcDbSymbolTable
 70
10
  0
LAYER
  5
50
100
AcDbSymbolTableRecord
100
AcDbLayerTableRecord
  2
0
 70
0
  6
CONTINUOUS
  0
LAYER
  5
51
100
AcDbSymbolTableRecord
100
AcDbLayerTableRecord
  2
BottomPlate_-_Cut
 70
0
  6
CONTINUOUS
  0
LAYER
  5
52
100
AcDbSymbolTableRecord
100
AcDbLayerTableRecord
  2
TopPlate_-_Cut
 70
0
  6
CONTINUOUS
  0
LAYER
  5
53
100
AcDbSymbolTableRecord
100
AcDbLayerTableRecord
  2
TopPlate_-_Etch
 70
0
  6
CONTINUOUS
  0
LAYER
  5
54
100
AcDbSymbolTableRecord
100
AcDbLayerTableRecord
  2
Cogs_-_Cut
 70
0
  6
CONTINUOUS
  0
LAYER
  5
55
100
AcDbSymbolTableRecord
100
AcDbLayerTableRecord
  2
Cogs_-_Secondary
 70
0
  6
CONTINUOUS
  0
LAYER
  5
56
100
AcDbSymbolTableRecord
100
AcDbLayerTableRecord
  2
Cogs_-_Etch
 70
0
  6
CONTINUOUS
  0
LAYER
  5
57
100
AcDbSymbolTableRecord
100
AcDbLayerTableRecord
  2
Edges_-_Cut
 70
0
  6
CONTINUOUS
  0
LAYER
  5
58
100
AcDbSymbolTableRecord
100
AcDbLayerTableRecord
  2
3mm_Utility_bits_-_Cut
 70
0
  6
CONTINUOUS
  0
LAYER
  5
59
100
AcDbSymbolTableRecord
100
AcDbLayerTableRecord
  2
Temp
 70
0
  6
CONTINUOUS
  0
ENDTAB
  0
TABLE
  2
STYLE
  5
3
330
0
100
AcDbSymbolTable
 70
     1
  0
STYLE
  5
11
330
3
100
AcDbSymbolTableRecord
100
AcDbTextStyleTableRecord
  2
STANDARD
 70
     0
 40
0.0
 41
1.0
 50
0.0
 71
     0
 42
2.5
  3
txt
  4

  0
ENDTAB
  0
TABLE
  2
VIEW
  5
6
330
0
100
AcDbSymbolTable
 70
     0
  0
ENDTAB
  0
TABLE
  2
UCS
  5
7
330
0
100
AcDbSymbolTable
 70
     0
  0
ENDTAB
  0
TABLE
  2
APPID
  5
9
330
0
100
AcDbSymbolTable
 70
     2
  0
APPID
  5
12
330
9
100
AcDbSymbolTableRecord
100
AcDbRegAppTableRecord
  2
ACAD
 70
     0
  0
ENDTAB
  0
TABLE
  2
DIMSTYLE
  5
A
330
0
100
AcDbSymbolTable
 70
     1
  0
DIMSTYLE
105
27
330
A
100
AcDbSymbolTableRecord
100
AcDbDimStyleTableRecord
  2
ISO-25
 70
     0
  3

  4

  5

  6

  7

 40
1.0
 41
2.5
 42
0.625
 43
3.75
 44
1.25
 45
0.0
 46
0.0
 47
0.0
 48
0.0
140
2.5
141
2.5
142
0.0
143
0.03937007874016
144
1.0
145
0.0
146
1.0
147
0.625
 71
     0
 72
     0
 73
     0
 74
     0
 75
     0
 76
     0
 77
     1
 78
     8
170
     0
171
     3
172
     1
173
     0
174
     0
175
     0
176
     0
177
     0
178
     0
270
     2
271
     2
272
     2
273
     2
274
     3
340
11
275
     0
280
     0
281
     0
282
     0
283
     0
284
     8
285
     0
286
     0
287
     3
288
     0
  0
ENDTAB
  0
TABLE
  2
BLOCK_RECORD
  5
1
330
0
100
AcDbSymbolTable
 70
     1
  0
BLOCK_RECORD
  5
1F
330
1
100
AcDbSymbolTableRecord
100
AcDbBlockTableRecord
  2
*MODEL_SPACE
  0
BLOCK_RECORD
  5
1B
330
1
100
AcDbSymbolTableRecord
100
AcDbBlockTableRecord
  2
*PAPER_SPACE
  0
ENDTAB
  0
ENDSEC
  0
SECTION
  2
BLOCKS
  0
BLOCK
  5
20
330
1F
100
AcDbEntity
  8
0
100
AcDbBlockBegin
  2
*MODEL_SPACE
 70
     0
 10
0.0
 20
0.0
 30
0.0
  3
*MODEL_SPACE
  1

  0
ENDBLK
  5
21
330
1F
100
AcDbEntity
  8
0
100
AcDbBlockEnd
  0
BLOCK
  5
1C
330
1B
100
AcDbEntity
 67
     1
  8
0
100
AcDbBlockBegin
  2
*PAPER_SPACE
  1

  0
ENDBLK
  5
1D
330
1B
100
AcDbEntity
 67
     1
  8
0
100
AcDbBlockEnd
  0
ENDSEC
  0
SECTION
  2
ENTITIES
  0
SPLINE
  5
100
100
AcDbEntity
  8
TopPlate_-_Cut
 62
7
100
AcDbSpline
 70
8
 71
3
 72
8
 73
4
 74
0
 40
0
 40
0
 40
0
 40
0
 40
1
 40
1
 40
1
 40
1
 10
106.089097
 20
108.511239
 30
0.0
 10
99.782729
 20
108.511239
 30
0.0
 10
90.322919
 20
103.049837
 30
0.0
 10
87.169735
 20
97.588357
 30
0.0
  0
LINE
  5
101
100
AcDbEntity
  8
TopPlate_-_Cut
 62
7
100
AcDbLine
 10
87.169735
 20
97.588357
 30
0.0
 11
5.186936
 21
-44.410212
 31
0.0
  0
SPLINE
  5
102
100
AcDbEntity
  8
TopPlate_-_Cut
 62
7
100
AcDbSpline
 70
8
 71
3
 72
8
 73
4
 74
0
 40
0
 40
0
 40
0
 40
0
 40
1
 40
1
 40
1
 40
1
 10
5.186936
 20
-44.410212
 30
0.0
 10
2.033864
 20
-49.871717
 30
0.0
 10
2.033808
 20
-60.794558
 30
0.0
 10
5.186936
 20
-66.255976
 30
0.0
  0
LINE
  5
103
100
AcDbEntity
  8
TopPlate_-_Cut
 62
7
100
AcDbLine
 10
5.186936
 20
-66.255976
 30
0.0
 11
87.169735
 21
-208.253996
 31
0.0
  0
SPLINE
  5
104
100
AcDbEntity
  8
TopPlate_-_Cut
 62
7
100
AcDbSpline
 70
8
 71
3
 72
8
 73
4
 74
0
 40
0
 40
0
 40
0
 40
0
 40
1
 40
1
 40
1
 40
1
 10
87.169735
 20
-208.253996
 30
0.0
 10
90.322919
 20
-213.715588
 30
0.0
 10
99.782729
 20
-219.177407
 30
0.0
 10
106.089097
 20
-219.177435
 30
0.0
  0
LINE
  5
105
100
AcDbEntity
  8
TopPlate_-_Cut
 62
7
100
AcDbLine
 10
106.089097
 20
-219.177435
 30
0.0
 11
270.054697
 21
-219.177435
 31
0.0
  0
SPLINE
  5
106
100
AcDbEntity
  8
TopPlate_-_Cut
 62
7
100
AcDbSpline
 70
8
 71
3
 72
8
 73
4
 74
0
 40
0
 40
0
 40
0
 40
0
 40
1
 40
1
 40
1
 40
1
 10
270.054697
 20
-219.177435
 30
0.0
 10
276.361121
 20
-219.177520
 30
0.0
 10
285.820302
 20
-213.716124
 30
0.0
 10
288.973514
 20
-208.254560
 30
0.0
  0
LINE
  5
107
100
AcDbEntity
  8
TopPlate_-_Cut
 62
7
100
AcDbLine
 10
288.973514
 20
-208.254560
 30
0.0
 11
370.956304
 21
-66.256540
 31
0.0
  0
SPLINE
  5
108
100
AcDbEntity
  8
TopPlate_-_Cut
 62
7
100
AcDbSpline
 70
8
 71
3
 72
8
 73
4
 74
0
 40
0
 40
0
 40
0
 40
0
 40
1
 40
1
 40
1
 40
1
 10
370.956304
 20
-66.256540
 30
0.0
 10
374.109544
 20
-60.795137
 30
0.0
 10
374.109516
 20
-49.872250
 30
0.0
 10
370.956304
 20
-44.410776
 30
0.0
  0
LINE
  5
109
100
AcDbEntity
  8
TopPlate_-_Cut
 62
7
100
AcDbLine
 10
370.956304
 20
-44.410776
 30
0.0
 11
288.973514
 21
97.588357
 31
0.0
  0
SPLINE
  5
10a
100
AcDbEntity
  8
TopPlate_-_Cut
 62
7
100
AcDbSpline
 70
8
 71
3
 72
8
 73
4
 74
0
 40
0
 40
0
 40
0
 40
0
 40
1
 40
1
 40
1
 40
1
 10
288.973514
 20
97.588357
 30
0.0
 10
285.820302
 20
103.049913
 30
0.0
 10
276.361093
 20
108.511253
 30
0.0
 10
270.054697
 20
108.511239
 30
0.0
  0
LINE
  5
10b
100
AcDbEntity
  8
TopPlate_-_Cut
 62
7
100
AcDbLine
 10
270.054697
 20
108.511239
 30
0.0
 11
106.089097
 21
108.511239
 31
0.0
  0
LINE
  5
10c
100
AcDbEntity
  8
TopPlate_-_Cut
 62
7
100
AcDbLine
 10
106.089097
 20
108.511239
 30
0.0
 11
106.089097
 21
108.511239
 31
0.0
  0
LINE
  5
10d
100
AcDbEntity
  8
TopPlate_-_Cut
 62
7
100
AcDbLine
 10
103.071744
 20
104.192467
 30
0.0
 11
113.071893
 21
104.192467
 31
0.0
  0
LINE
  5
10e
100
AcDbEntity
  8
TopPlate_-_Cut
 62
7
100
AcDbLine
 10
113.071893
 20
104.192467
 30
0.0
 11
113.071893
 21
99.142233
 31
0.0
  0
LINE
  5
10f
100
AcDbEntity
  8
TopPlate_-_Cut
 62
7
100
AcDbLine
 10
113.071893
 20
99.142233
 30
0.0
 11
103.071744
 21
99.142233
 31
0.0
  0
LINE
  5
110
100
AcDbEntity
  8
TopPlate_-_Cut
 62
7
100
AcDbLine
 10
103.071744
 20
99.142233
 30
0.0
 11
103.071744
 21
104.192467
 31
0.0
  0
LINE
  5
111
100
AcDbEntity
  8
TopPlate_-_Cut
 62
7
100
AcDbLine
 10
103.071744
 20
104.192467
 30
0.0
 11
103.071744
 21
104.192467
 31
0.0
  0
LINE
  5
112
100
AcDbEntity
  8
TopPlate_-_Cut
 62
7
100
AcDbLine
 10
133.071636
 20
104.192467
 30
0.0
 11
153.071932
 21
104.192467
 31
0.0
  0
LINE
  5
113
100
AcDbEntity
  8
TopPlate_-_Cut
 62
7
100
AcDbLine
 10
153.071932
 20
104.192467
 30
0.0
 11
153.071932
 21
99.142233
 31
0.0
  0
LINE
  5
114
100
AcDbEntity
  8
TopPlate_-_Cut
 62
7
100
AcDbLine
 10
153.071932
 20
99.142233
 30
0.0
 11
133.071636
 21
99.142233
 31
0.0
  0
LINE
  5
115
100
AcDbEntity
  8
TopPlate_-_Cut
 62
7
100
AcDbLine
 10
133.071636
 20
99.142233
 30
0.0
 11
133.071636
 21
104.192467
 31
0.0
  0
LINE
  5
116
100
AcDbEntity
  8
TopPlate_-_Cut
 62
7
100
AcDbLine
 10
133.071636
 20
104.192467
 30
0.0
 11
133.071636
 21
104.192467
 31
0.0
  0
LINE
  5
117
100
AcDbEntity
  8
TopPlate_-_Cut
 62
7
100
AcDbLine
 10
173.071674
 20
104.192467
 30
0.0
 11
203.071566
 21
104.192467
 31
0.0
  0
LINE
  5
118
100
AcDbEntity
  8
TopPlate_-_Cut
 62
7
100
AcDbLine
 10
203.071566
 20
104.192467
 30
0.0
 11
203.071566
 21
99.142233
 31
0.0
  0
LINE
  5
119
100
AcDbEntity
  8
TopPlate_-_Cut
 62
7
100
AcDbLine
 10
203.071566
 20
99.142233
 30
0.0
 11
173.071674
 21
99.142233
 31
0.0
  0
LINE
  5
11a
100
AcDbEntity
  8
TopPlate_-_Cut
 62
7
100
AcDbLine
 10
173.071674
 20
99.142233
 30
0.0
 11
173.071674
 21
104.192467
 31
0.0
  0
LINE
  5
11b
100
AcDbEntity
  8
TopPlate_-_Cut
 62
7
100
AcDbLine
 10
173.071674
 20
104.192467
 30
0.0
 11
173.071674
 21
104.192467
 31
0.0
  0
LINE
  5
11c
100
AcDbEntity
  8
TopPlate_-_Cut
 62
7
100
AcDbLine
 10
223.071862
 20
104.192467
 30
0.0
 11
243.071605
 21
104.192467
 31
0.0
  0
LINE
  5
11d
100
AcDbEntity
  8
TopPlate_-_Cut
 62
7
100
AcDbLine
 10
243.071605
 20
104.192467
 30
0.0
 11
243.071605
 21
99.142233
 31
0.0
  0
LINE
  5
11e
100
AcDbEntity
  8
TopPlate_-_Cut
 62
7
100
AcDbLine
 10
243.071605
 20
99.142233
 30
0.0
 11
223.071862
 21
99.142233
 31
0.0
  0
LINE
  5
11f
100
AcDbEntity
  8
TopPlate_-_Cut
 62
7
100
AcDbLine
 10
223.071862
 20
99.142233
 30
0.0
 11
223.071862
 21
104.192467
 31
0.0
  0
LINE
  5
120
100
AcDbEntity
  8
TopPlate_-_Cut
 62
7
100
AcDbLine
 10
223.071862
 20
104.192467
 30
0.0
 11
223.071862
 21
104.192467
 31
0.0
  0
LINE
  5
121
100
AcDbEntity
  8
TopPlate_-_Cut
 62
7
100
AcDbLine
 10
263.071901
 20
104.192467
 30
0.0
 11
273.071497
 21
104.192467
 31
0.0
  0
LINE
  5
122
100
AcDbEntity
  8
TopPlate_-_Cut
 62
7
100
AcDbLine
 10
273.071497
 20
104.192467
 30
0.0
 11
273.071497
 21
99.142233
 31
0.0
  0
LINE
  5
123
100
AcDbEntity
  8
TopPlate_-_Cut
 62
7
100
AcDbLine
 10
273.071497
 20
99.142233
 30
0.0
 11
263.071901
 21
99.142233
 31
0.0
  0
LINE
  5
124
100
AcDbEntity
  8
TopPlate_-_Cut
 62
7
100
AcDbLine
 10
263.071901
 20
99.142233
 30
0.0
 11
263.071901
 21
104.192467
 31
0.0
  0
LINE
  5
125
100
AcDbEntity
  8
TopPlate_-_Cut
 62
7
100
AcDbLine
 10
263.071901
 20
104.192467
 30
0.0
 11
263.071901
 21
104.192467
 31
0.0
  0
LINE
  5
126
100
AcDbEntity
  8
TopPlate_-_Cut
 62
7
100
AcDbLine
 10
92.418958
 20
98.041456
 30
0.0
 11
96.792299
 21
95.516339
 31
0.0
  0
LINE
  5
127
100
AcDbEntity
  8
TopPlate_-_Cut
 62
7
100
AcDbLine
 10
96.792299
 20
95.516339
 30
0.0
 11
91.792778
 21
86.856747
 31
0.0
  0
LINE
  5
128
100
AcDbEntity
  8
TopPlate_-_Cut
 62
7
100
AcDbLine
 10
91.792778
 20
86.856747
 30
0.0
 11
87.418884
 21
89.381864
 31
0.0
  0
LINE
  5
129
100
AcDbEntity
  8
TopPlate_-_Cut
 62
7
100
AcDbLine
 10
87.418884
 20
89.381864
 30
0.0
 11
92.418958
 21
98.041456
 31
0.0
  0
LINE
  5
12a
100
AcDbEntity
  8
TopPlate_-_Cut
 62
7
100
AcDbLine
 10
92.418958
 20
98.041456
 30
0.0
 11
92.418958
 21
98.041456
 31
0.0
  0
LINE
  5
12b
100
AcDbEntity
  8
TopPlate_-_Cut
 62
7
100
AcDbLine
 10
283.724830
 20
98.041456
 30
0.0
 11
288.724368
 21
89.381864
 31
0.0
  0
LINE
  5
12c
100
AcDbEntity
  8
TopPlate_-_Cut
 62
7
100
AcDbLine
 10
288.724368
 20
89.381864
 30
0.0
 11
284.351024
 21
86.856747
 31
0.0
  0
LINE
  5
12d
100
AcDbEntity
  8
TopPlate_-_Cut
 62
7
100
AcDbLine
 10
284.351024
 20
86.856747
 30
0.0
 11
279.350941
 21
95.516339
 31
0.0
  0
LINE
  5
12e
100
AcDbEntity
  8
TopPlate_-_Cut
 62
7
100
AcDbLine
 10
279.350941
 20
95.516339
 30
0.0
 11
283.724830
 21
98.041456
 31
0.0
  0
LINE
  5
12f
100
AcDbEntity
  8
TopPlate_-_Cut
 62
7
100
AcDbLine
 10
283.724830
 20
98.041456
 30
0.0
 11
283.724830
 21
98.041456
 31
0.0
  0
SPLINE
  5
130
100
AcDbEntity
  8
TopPlate_-_Cut
 62
7
100
AcDbSpline
 70
8
 71
3
 72
8
 73
4
 74
0
 40
0
 40
0
 40
0
 40
0
 40
1
 40
1
 40
1
 40
1
 10
188.071895
 20
96.166773
 30
0.0
 10
188.900212
 20
96.166695
 30
0.0
 10
189.571675
 20
95.495232
 30
0.0
 10
189.571754
 20
94.666916
 30
0.0
  0
SPLINE
  5
131
100
AcDbEntity
  8
TopPlate_-_Cut
 62
7
100
AcDbSpline
 70
8
 71
3
 72
8
 73
4
 74
0
 40
0
 40
0
 40
0
 40
0
 40
1
 40
1
 40
1
 40
1
 10
189.571754
 20
94.666916
 30
0.0
 10
189.571675
 20
93.838600
 30
0.0
 10
188.900211
 20
93.167137
 30
0.0
 10
188.071895
 20
93.167059
 30
0.0
  0
SPLINE
  5
132
100
AcDbEntity
  8
TopPlate_-_Cut
 62
7
100
AcDbSpline
 70
8
 71
3
 72
8
 73
4
 74
0
 40
0
 40
0
 40
0
 40
0
 40
1
 40
1
 40
1
 40
1
 10
188.071895
 20
93.167059
 30
0.0
 10
187.674025
 20
93.166951
 30
0.0
 10
187.292412
 20
93.324919
 30
0.0
 10
187.011023
 20
93.606205
 30
0.0
  0
SPLINE
  5
133
100
AcDbEntity
  8
TopPlate_-_Cut
 62
7
100
AcDbSpline
 70
8
 71
3
 72
8
 73
4
 74
0
 40
0
 40
0
 40
0
 40
0
 40
1
 40
1
 40
1
 40
1
 10
187.011023
 20
93.606205
 30
0.0
 10
186.729635
 20
93.887490
 30
0.0
 10
186.571527
 20
94.269046
 30
0.0
 10
186.571489
 20
94.666916
 30
0.0
  0
SPLINE
  5
134
100
AcDbEntity
  8
TopPlate_-_Cut
 62
7
100
AcDbSpline
 70
8
 71
3
 72
8
 73
4
 74
0
 40
0
 40
0
 40
0
 40
0
 40
1
 40
1
 40
1
 40
1
 10
186.571489
 20
94.666916
 30
0.0
 10
186.571527
 20
95.064786
 30
0.0
 10
186.729635
 20
95.446342
 30
0.0
 10
187.011023
 20
95.727627
 30
0.0
  0
SPLINE
  5
135
100
AcDbEntity
  8
TopPlate_-_Cut
 62
7
100
AcDbSpline
 70
8
 71
3
 72
8
 73
4
 74
0
 40
0
 40
0
 40
0
 40
0
 40
1
 40
1
 40
1
 40
1
 10
187.011023
 20
95.727627
 30
0.0
 10
187.292412
 20
96.008913
 30
0.0
 10
187.674025
 20
96.166881
 30
0.0
 10
188.071895
 20
96.166773
 30
0.0
  0
LINE
  5
136
100
AcDbEntity
  8
TopPlate_-_Cut
 62
7
100
AcDbLine
 10
188.071895
 20
96.166773
 30
0.0
 11
188.071895
 21
96.166773
 31
0.0
  0
SPLINE
  5
137
100
AcDbEntity
  8
TopPlate_-_Cut
 62
7
100
AcDbSpline
 70
8
 71
3
 72
8
 73
4
 74
0
 40
0
 40
0
 40
0
 40
0
 40
1
 40
1
 40
1
 40
1
 10
148.753158
 20
81.916203
 30
0.0
 10
149.470945
 20
81.916074
 30
0.0
 10
150.052794
 20
81.334226
 30
0.0
 10
150.052924
 20
80.616440
 30
0.0
  0
SPLINE
  5
138
100
AcDbEntity
  8
TopPlate_-_Cut
 62
7
100
AcDbSpline
 70
8
 71
3
 72
8
 73
4
 74
0
 40
0
 40
0
 40
0
 40
0
 40
1
 40
1
 40
1
 40
1
 10
150.052924
 20
80.616440
 30
0.0
 10
150.053009
 20
80.271643
 30
0.0
 10
149.916115
 20
79.940937
 30
0.0
 10
149.672359
 20
79.697077
 30
0.0
  0
SPLINE
  5
139
100
AcDbEntity
  8
TopPlate_-_Cut
 62
7
100
AcDbSpline
 70
8
 71
3
 72
8
 73
4
 74
0
 40
0
 40
0
 40
0
 40
0
 40
1
 40
1
 40
1
 40
1
 10
149.672359
 20
79.697077
 30
0.0
 10
149.428603
 20
79.453218
 30
0.0
 10
149.097955
 20
79.316183
 30
0.0
 10
148.753158
 20
79.316120
 30
0.0
  0
SPLINE
  5
13a
100
AcDbEntity
  8
TopPlate_-_Cut
 62
7
100
AcDbSpline
 70
8
 71
3
 72
8
 73
4
 74
0
 40
0
 40
0
 40
0
 40
0
 40
1
 40
1
 40
1
 40
1
 10
148.753158
 20
79.316120
 30
0.0
 10
148.408267
 20
79.316037
 30
0.0
 10
148.077477
 20
79.453007
 30
0.0
 10
147.833602
 20
79.696883
 30
0.0
  0
SPLINE
  5
13b
100
AcDbEntity
  8
TopPlate_-_Cut
 62
7
100
AcDbSpline
 70
8
 71
3
 72
8
 73
4
 74
0
 40
0
 40
0
 40
0
 40
0
 40
1
 40
1
 40
1
 40
1
 10
147.833602
 20
79.696883
 30
0.0
 10
147.589727
 20
79.940758
 30
0.0
 10
147.452757
 20
80.271548
 30
0.0
 10
147.452842
 20
80.616440
 30
0.0
  0
SPLINE
  5
13c
100
AcDbEntity
  8
TopPlate_-_Cut
 62
7
100
AcDbSpline
 70
8
 71
3
 72
8
 73
4
 74
0
 40
0
 40
0
 40
0
 40
0
 40
1
 40
1
 40
1
 40
1
 10
147.452842
 20
80.616440
 30
0.0
 10
147.452905
 20
80.961235
 30
0.0
 10
147.589940
 20
81.291882
 30
0.0
 10
147.833799
 20
81.535637
 30
0.0
  0
SPLINE
  5
13d
100
AcDbEntity
  8
TopPlate_-_Cut
 62
7
100
AcDbSpline
 70
8
 71
3
 72
8
 73
4
 74
0
 40
0
 40
0
 40
0
 40
0
 40
1
 40
1
 40
1
 40
1
 10
147.833799
 20
81.535637
 30
0.0
 10
148.077658
 20
81.779392
 30
0.0
 10
148.408363
 20
81.916287
 30
0.0
 10
148.753158
 20
81.916203
 30
0.0
  0
LINE
  5
13e
100
AcDbEntity
  8
TopPlate_-_Cut
 62
7
100
AcDbLine
 10
148.753158
 20
81.916203
 30
0.0
 11
148.753158
 21
81.916203
 31
0.0
  0
LINE
  5
13f
100
AcDbEntity
  8
TopPlate_-_Cut
 62
7
100
AcDbLine
 10
77.418737
 20
72.061025
 30
0.0
 11
81.792631
 21
69.535910
 31
0.0
  0
LINE
  5
140
100
AcDbEntity
  8
TopPlate_-_Cut
 62
7
100
AcDbLine
 10
81.792631
 20
69.535910
 30
0.0
 11
71.792482
 21
52.215622
 31
0.0
  0
LINE
  5
141
100
AcDbEntity
  8
TopPlate_-_Cut
 62
7
100
AcDbLine
 10
71.792482
 20
52.215622
 30
0.0
 11
67.419141
 21
54.740740
 31
0.0
  0
LINE
  5
142
100
AcDbEntity
  8
TopPlate_-_Cut
 62
7
100
AcDbLine
 10
67.419141
 20
54.740740
 30
0.0
 11
77.418737
 21
72.061025
 31
0.0
  0
LINE
  5
143
100
AcDbEntity
  8
TopPlate_-_Cut
 62
7
100
AcDbLine
 10
77.418737
 20
72.061025
 30
0.0
 11
77.418737
 21
72.061025
 31
0.0
  0
LINE
  5
144
100
AcDbEntity
  8
TopPlate_-_Cut
 62
7
100
AcDbLine
 10
298.724518
 20
72.061025
 30
0.0
 11
308.724639
 21
54.740740
 31
0.0
  0
LINE
  5
145
100
AcDbEntity
  8
TopPlate_-_Cut
 62
7
100
AcDbLine
 10
308.724639
 20
54.740740
 30
0.0
 11
304.350759
 21
52.215622
 31
0.0
  0
LINE
  5
146
100
AcDbEntity
  8
TopPlate_-_Cut
 62
7
100
AcDbLine
 10
304.350759
 20
52.215622
 30
0.0
 11
294.351174
 21
69.535910
 31
0.0
  0
LINE
  5
147
100
AcDbEntity
  8
TopPlate_-_Cut
 62
7
100
AcDbLine
 10
294.351174
 20
69.535910
 30
0.0
 11
298.724518
 21
72.061025
 31
0.0
  0
LINE
  5
148
100
AcDbEntity
  8
TopPlate_-_Cut
 62
7
100
AcDbLine
 10
298.724518
 20
72.061025
 30
0.0
 11
298.724518
 21
72.061025
 31
0.0
  0
SPLINE
  5
149
100
AcDbEntity
  8
TopPlate_-_Cut
 62
7
100
AcDbSpline
 70
8
 71
3
 72
8
 73
4
 74
0
 40
0
 40
0
 40
0
 40
0
 40
1
 40
1
 40
1
 40
1
 10
171.613158
 20
71.756203
 30
0.0
 10
172.330945
 20
71.756074
 30
0.0
 10
172.912794
 20
71.174226
 30
0.0
 10
172.912924
 20
70.456440
 30
0.0
  0
SPLINE
  5
14a
100
AcDbEntity
  8
TopPlate_-_Cut
 62
7
100
AcDbSpline
 70
8
 71
3
 72
8
 73
4
 74
0
 40
0
 40
0
 40
0
 40
0
 40
1
 40
1
 40
1
 40
1
 10
172.912924
 20
70.456440
 30
0.0
 10
172.913009
 20
70.111643
 30
0.0
 10
172.776115
 20
69.780937
 30
0.0
 10
172.532359
 20
69.537077
 30
0.0
  0
SPLINE
  5
14b
100
AcDbEntity
  8
TopPlate_-_Cut
 62
7
100
AcDbSpline
 70
8
 71
3
 72
8
 73
4
 74
0
 40
0
 40
0
 40
0
 40
0
 40
1
 40
1
 40
1
 40
1
 10
172.532359
 20
69.537077
 30
0.0
 10
172.288603
 20
69.293218
 30
0.0
 10
171.957955
 20
69.156183
 30
0.0
 10
171.613158
 20
69.156120
 30
0.0
  0
SPLINE
  5
14c
100
AcDbEntity
  8
TopPlate_-_Cut
 62
7
100
AcDbSpline
 70
8
 71
3
 72
8
 73
4
 74
0
 40
0
 40
0
 40
0
 40
0
 40
1
 40
1
 40
1
 40
1
 10
171.613158
 20
69.156120
 30
0.0
 10
171.268267
 20
69.156037
 30
0.0
 10
170.937477
 20
69.293007
 30
0.0
 10
170.693602
 20
69.536883
 30
0.0
  0
SPLINE
  5
14d
100
AcDbEntity
  8
TopPlate_-_Cut
 62
7
100
AcDbSpline
 70
8
 71
3
 72
8
 73
4
 74
0
 40
0
 40
0
 40
0
 40
0
 40
1
 40
1
 40
1
 40
1
 10
170.693602
 20
69.536883
 30
0.0
 10
170.449727
 20
69.780758
 30
0.0
 10
170.312757
 20
70.111548
 30
0.0
 10
170.312842
 20
70.456440
 30
0.0
  0
SPLINE
  5
14e
100
AcDbEntity
  8
TopPlate_-_Cut
 62
7
100
AcDbSpline
 70
8
 71
3
 72
8
 73
4
 74
0
 40
0
 40
0
 40
0
 40
0
 40
1
 40
1
 40
1
 40
1
 10
170.312842
 20
70.456440
 30
0.0
 10
170.312905
 20
70.801235
 30
0.0
 10
170.449940
 20
71.131882
 30
0.0
 10
170.693799
 20
71.375637
 30
0.0
  0
SPLINE
  5
14f
100
AcDbEntity
  8
TopPlate_-_Cut
 62
7
100
AcDbSpline
 70
8
 71
3
 72
8
 73
4
 74
0
 40
0
 40
0
 40
0
 40
0
 40
1
 40
1
 40
1
 40
1
 10
170.693799
 20
71.375637
 30
0.0
 10
170.937658
 20
71.619392
 30
0.0
 10
171.268363
 20
71.756287
 30
0.0
 10
171.613158
 20
71.756203
 30
0.0
  0
LINE
  5
150
100
AcDbEntity
  8
TopPlate_-_Cut
 62
7
100
AcDbLine
 10
171.613158
 20
71.756203
 30
0.0
 11
171.613158
 21
71.756203
 31
0.0
  0
SPLINE
  5
151
100
AcDbEntity
  8
TopPlate_-_Cut
 62
7
100
AcDbSpline
 70
8
 71
3
 72
8
 73
4
 74
0
 40
0
 40
0
 40
0
 40
0
 40
1
 40
1
 40
1
 40
1
 10
235.733277
 20
38.466661
 30
0.0
 10
235.951085
 20
38.461614
 30
0.0
 10
236.164133
 20
38.401907
 30
0.0
 10
236.352842
 20
38.293026
 30
0.0
  0
SPLINE
  5
152
100
AcDbEntity
  8
TopPlate_-_Cut
 62
7
100
AcDbSpline
 70
8
 71
3
 72
8
 73
4
 74
0
 40
0
 40
0
 40
0
 40
0
 40
1
 40
1
 40
1
 40
1
 10
236.352842
 20
38.293026
 30
0.0
 10
236.651552
 20
38.120705
 30
0.0
 10
236.869554
 20
37.836758
 30
0.0
 10
236.958873
 20
37.503675
 30
0.0
  0
SPLINE
  5
153
100
AcDbEntity
  8
TopPlate_-_Cut
 62
7
100
AcDbSpline
 70
8
 71
3
 72
8
 73
4
 74
0
 40
0
 40
0
 40
0
 40
0
 40
1
 40
1
 40
1
 40
1
 10
236.958873
 20
37.503675
 30
0.0
 10
237.048191
 20
37.170591
 30
0.0
 10
237.001506
 20
36.815667
 30
0.0
 10
236.829092
 20
36.517010
 30
0.0
  0
SPLINE
  5
154
100
AcDbEntity
  8
TopPlate_-_Cut
 62
7
100
AcDbSpline
 70
8
 71
3
 72
8
 73
4
 74
0
 40
0
 40
0
 40
0
 40
0
 40
1
 40
1
 40
1
 40
1
 10
236.829092
 20
36.517010
 30
0.0
 10
236.656678
 20
36.218394
 30
0.0
 10
236.372690
 20
36.000510
 30
0.0
 10
236.039615
 20
35.911297
 30
0.0
  0
SPLINE
  5
155
100
AcDbEntity
  8
TopPlate_-_Cut
 62
7
100
AcDbSpline
 70
8
 71
3
 72
8
 73
4
 74
0
 40
0
 40
0
 40
0
 40
0
 40
1
 40
1
 40
1
 40
1
 10
236.039615
 20
35.911297
 30
0.0
 10
235.706539
 20
35.822084
 30
0.0
 10
235.351665
 20
35.868853
 30
0.0
 10
235.053076
 20
36.041314
 30
0.0
  0
SPLINE
  5
156
100
AcDbEntity
  8
TopPlate_-_Cut
 62
7
100
AcDbSpline
 70
8
 71
3
 72
8
 73
4
 74
0
 40
0
 40
0
 40
0
 40
0
 40
1
 40
1
 40
1
 40
1
 10
235.053076
 20
36.041314
 30
0.0
 10
234.431567
 20
36.400335
 30
0.0
 10
234.218623
 20
37.195114
 30
0.0
 10
234.577379
 20
37.816776
 30
0.0
  0
SPLINE
  5
157
100
AcDbEntity
  8
TopPlate_-_Cut
 62
7
100
AcDbSpline
 70
8
 71
3
 72
8
 73
4
 74
0
 40
0
 40
0
 40
0
 40
0
 40
1
 40
1
 40
1
 40
1
 10
234.577379
 20
37.816776
 30
0.0
 10
234.798600
 20
38.200131
 30
0.0
 10
235.199666
 20
38.444593
 30
0.0
 10
235.641775
 20
38.465557
 30
0.0
  0
SPLINE
  5
158
100
AcDbEntity
  8
TopPlate_-_Cut
 62
7
100
AcDbSpline
 70
8
 71
3
 72
8
 73
4
 74
0
 40
0
 40
0
 40
0
 40
0
 40
1
 40
1
 40
1
 40
1
 10
235.641775
 20
38.465557
 30
0.0
 10
235.672253
 20
38.467007
 30
0.0
 10
235.702772
 20
38.467384
 30
0.0
 10
235.733277
 20
38.466686
 30
0.0
  0
LINE
  5
159
100
AcDbEntity
  8
TopPlate_-_Cut
 62
7
100
AcDbLine
 10
235.733277
 20
38.466686
 30
0.0
 11
235.733277
 21
38.466661
 31
0.0
  0
LINE
  5
15a
100
AcDbEntity
  8
TopPlate_-_Cut
 62
7
100
AcDbLine
 10
57.418992
 20
37.419901
 30
0.0
 11
61.792335
 21
34.894786
 31
0.0
  0
LINE
  5
15b
100
AcDbEntity
  8
TopPlate_-_Cut
 62
7
100
AcDbLine
 10
61.792335
 20
34.894786
 30
0.0
 11
46.792665
 21
8.914356
 31
0.0
  0
LINE
  5
15c
100
AcDbEntity
  8
TopPlate_-_Cut
 62
7
100
AcDbLine
 10
46.792665
 20
8.914356
 30
0.0
 11
42.418770
 21
11.439472
 31
0.0
  0
LINE
  5
15d
100
AcDbEntity
  8
TopPlate_-_Cut
 62
7
100
AcDbLine
 10
42.418770
 20
11.439472
 30
0.0
 11
57.418992
 21
37.419901
 31
0.0
  0
LINE
  5
15e
100
AcDbEntity
  8
TopPlate_-_Cut
 62
7
100
AcDbLine
 10
57.418992
 20
37.419901
 30
0.0
 11
57.418992
 21
37.419901
 31
0.0
  0
LINE
  5
15f
100
AcDbEntity
  8
TopPlate_-_Cut
 62
7
100
AcDbLine
 10
318.724788
 20
37.419901
 30
0.0
 11
333.724476
 21
11.439472
 31
0.0
  0
LINE
  5
160
100
AcDbEntity
  8
TopPlate_-_Cut
 62
7
100
AcDbLine
 10
333.724476
 20
11.439472
 30
0.0
 11
329.351132
 21
8.914356
 31
0.0
  0
LINE
  5
161
100
AcDbEntity
  8
TopPlate_-_Cut
 62
7
100
AcDbLine
 10
329.351132
 20
8.914356
 30
0.0
 11
314.350908
 21
34.894786
 31
0.0
  0
LINE
  5
162
100
AcDbEntity
  8
TopPlate_-_Cut
 62
7
100
AcDbLine
 10
314.350908
 20
34.894786
 30
0.0
 11
318.724788
 21
37.419901
 31
0.0
  0
LINE
  5
163
100
AcDbEntity
  8
TopPlate_-_Cut
 62
7
100
AcDbLine
 10
318.724788
 20
37.419901
 30
0.0
 11
318.724788
 21
37.419901
 31
0.0
  0
SPLINE
  5
164
100
AcDbEntity
  8
TopPlate_-_Cut
 62
7
100
AcDbSpline
 70
8
 71
3
 72
8
 73
4
 74
0
 40
0
 40
0
 40
0
 40
0
 40
1
 40
1
 40
1
 40
1
 10
244.393971
 20
33.466586
 30
0.0
 10
244.611780
 20
33.461540
 30
0.0
 10
244.824827
 20
33.401834
 30
0.0
 10
245.013536
 20
33.292955
 30
0.0
  0
SPLINE
  5
165
100
AcDbEntity
  8
TopPlate_-_Cut
 62
7
100
AcDbSpline
 70
8
 71
3
 72
8
 73
4
 74
0
 40
0
 40
0
 40
0
 40
0
 40
1
 40
1
 40
1
 40
1
 10
245.013536
 20
33.292955
 30
0.0
 10
245.312153
 20
33.120541
 30
0.0
 10
245.530038
 20
32.836553
 30
0.0
 10
245.619252
 20
32.503478
 30
0.0
  0
SPLINE
  5
166
100
AcDbEntity
  8
TopPlate_-_Cut
 62
7
100
AcDbSpline
 70
8
 71
3
 72
8
 73
4
 74
0
 40
0
 40
0
 40
0
 40
0
 40
1
 40
1
 40
1
 40
1
 10
245.619252
 20
32.503478
 30
0.0
 10
245.708465
 20
32.170402
 30
0.0
 10
245.661696
 20
31.815528
 30
0.0
 10
245.489236
 20
31.516939
 30
0.0
  0
SPLINE
  5
167
100
AcDbEntity
  8
TopPlate_-_Cut
 62
7
100
AcDbSpline
 70
8
 71
3
 72
8
 73
4
 74
0
 40
0
 40
0
 40
0
 40
0
 40
1
 40
1
 40
1
 40
1
 10
245.489236
 20
31.516939
 30
0.0
 10
245.316822
 20
31.218322
 30
0.0
 10
245.032835
 20
31.000437
 30
0.0
 10
244.699760
 20
30.911224
 30
0.0
  0
SPLINE
  5
168
100
AcDbEntity
  8
TopPlate_-_Cut
 62
7
100
AcDbSpline
 70
8
 71
3
 72
8
 73
4
 74
0
 40
0
 40
0
 40
0
 40
0
 40
1
 40
1
 40
1
 40
1
 10
244.699760
 20
30.911224
 30
0.0
 10
244.366684
 20
30.822010
 30
0.0
 10
244.011810
 20
30.868779
 30
0.0
 10
243.713220
 20
31.041239
 30
0.0
  0
SPLINE
  5
169
100
AcDbEntity
  8
TopPlate_-_Cut
 62
7
100
AcDbSpline
 70
8
 71
3
 72
8
 73
4
 74
0
 40
0
 40
0
 40
0
 40
0
 40
1
 40
1
 40
1
 40
1
 10
243.713220
 20
31.041239
 30
0.0
 10
243.414604
 20
31.213653
 30
0.0
 10
243.196718
 20
31.497640
 30
0.0
 10
243.107505
 20
31.830715
 30
0.0
  0
SPLINE
  5
16a
100
AcDbEntity
  8
TopPlate_-_Cut
 62
7
100
AcDbSpline
 70
8
 71
3
 72
8
 73
4
 74
0
 40
0
 40
0
 40
0
 40
0
 40
1
 40
1
 40
1
 40
1
 10
243.107505
 20
31.830715
 30
0.0
 10
243.018292
 20
32.163791
 30
0.0
 10
243.065061
 20
32.518665
 30
0.0
 10
243.237520
 20
32.817255
 30
0.0
  0
SPLINE
  5
16b
100
AcDbEntity
  8
TopPlate_-_Cut
 62
7
100
AcDbSpline
 70
8
 71
3
 72
8
 73
4
 74
0
 40
0
 40
0
 40
0
 40
0
 40
1
 40
1
 40
1
 40
1
 10
243.237520
 20
32.817255
 30
0.0
 10
243.458877
 20
33.200397
 30
0.0
 10
243.859921
 20
33.444636
 30
0.0
 10
244.301919
 20
33.465483
 30
0.0
  0
SPLINE
  5
16c
100
AcDbEntity
  8
TopPlate_-_Cut
 62
7
100
AcDbSpline
 70
8
 71
3
 72
8
 73
4
 74
0
 40
0
 40
0
 40
0
 40
0
 40
1
 40
1
 40
1
 40
1
 10
244.301919
 20
33.465483
 30
0.0
 10
244.332580
 20
33.466946
 30
0.0
 10
244.363283
 20
33.467322
 30
0.0
 10
244.393971
 20
33.466612
 30
0.0
  0
LINE
  5
16d
100
AcDbEntity
  8
TopPlate_-_Cut
 62
7
100
AcDbLine
 10
244.393971
 20
33.466612
 30
0.0
 11
244.393971
 21
33.466586
 31
0.0
  0
SPLINE
  5
16e
100
AcDbEntity
  8
TopPlate_-_Cut
 62
7
100
AcDbSpline
 70
8
 71
3
 72
8
 73
4
 74
0
 40
0
 40
0
 40
0
 40
0
 40
1
 40
1
 40
1
 40
1
 10
58.168094
 20
21.166769
 30
0.0
 10
58.996410
 20
21.166691
 30
0.0
 10
59.667873
 20
20.495229
 30
0.0
 10
59.667953
 20
19.666913
 30
0.0
  0
SPLINE
  5
16f
100
AcDbEntity
  8
TopPlate_-_Cut
 62
7
100
AcDbSpline
 70
8
 71
3
 72
8
 73
4
 74
0
 40
0
 40
0
 40
0
 40
0
 40
1
 40
1
 40
1
 40
1
 10
59.667953
 20
19.666913
 30
0.0
 10
59.667875
 20
18.838596
 30
0.0
 10
58.996411
 20
18.167132
 30
0.0
 10
58.168094
 20
18.167054
 30
0.0
  0
SPLINE
  5
170
100
AcDbEntity
  8
TopPlate_-_Cut
 62
7
100
AcDbSpline
 70
8
 71
3
 72
8
 73
4
 74
0
 40
0
 40
0
 40
0
 40
0
 40
1
 40
1
 40
1
 40
1
 10
58.168094
 20
18.167054
 30
0.0
 10
57.770223
 20
18.166946
 30
0.0
 10
57.388610
 20
18.324915
 30
0.0
 10
57.107221
 20
18.606200
 30
0.0
  0
SPLINE
  5
171
100
AcDbEntity
  8
TopPlate_-_Cut
 62
7
100
AcDbSpline
 70
8
 71
3
 72
8
 73
4
 74
0
 40
0
 40
0
 40
0
 40
0
 40
1
 40
1
 40
1
 40
1
 10
57.107221
 20
18.606200
 30
0.0
 10
56.825833
 20
18.887486
 30
0.0
 10
56.667725
 20
19.269042
 30
0.0
 10
56.667688
 20
19.666913
 30
0.0
  0
SPLINE
  5
172
100
AcDbEntity
  8
TopPlate_-_Cut
 62
7
100
AcDbSpline
 70
8
 71
3
 72
8
 73
4
 74
0
 40
0
 40
0
 40
0
 40
0
 40
1
 40
1
 40
1
 40
1
 10
56.667688
 20
19.666913
 30
0.0
 10
56.667726
 20
20.064783
 30
0.0
 10
56.825834
 20
20.446338
 30
0.0
 10
57.107222
 20
20.727624
 30
0.0
  0
SPLINE
  5
173
100
AcDbEntity
  8
TopPlate_-_Cut
 62
7
100
AcDbSpline
 70
8
 71
3
 72
8
 73
4
 74
0
 40
0
 40
0
 40
0
 40
0
 40
1
 40
1
 40
1
 40
1
 10
57.107222
 20
20.727624
 30
0.0
 10
57.388611
 20
21.008909
 30
0.0
 10
57.770224
 20
21.166877
 30
0.0
 10
58.168094
 20
21.166769
 30
0.0
  0
LINE
  5
174
100
AcDbEntity
  8
TopPlate_-_Cut
 62
7
100
AcDbLine
 10
58.168094
 20
21.166769
 30
0.0
 11
58.168094
 21
21.166769
 31
0.0
  0
SPLINE
  5
175
100
AcDbEntity
  8
TopPlate_-_Cut
 62
7
100
AcDbSpline
 70
8
 71
3
 72
8
 73
4
 74
0
 40
0
 40
0
 40
0
 40
0
 40
1
 40
1
 40
1
 40
1
 10
317.975686
 20
21.166769
 30
0.0
 10
318.804006
 20
21.166697
 30
0.0
 10
319.475476
 20
20.495233
 30
0.0
 10
319.475556
 20
19.666913
 30
0.0
  0
SPLINE
  5
176
100
AcDbEntity
  8
TopPlate_-_Cut
 62
7
100
AcDbSpline
 70
8
 71
3
 72
8
 73
4
 74
0
 40
0
 40
0
 40
0
 40
0
 40
1
 40
1
 40
1
 40
1
 10
319.475556
 20
19.666913
 30
0.0
 10
319.475478
 20
18.838592
 30
0.0
 10
318.804007
 20
18.167126
 30
0.0
 10
317.975686
 20
18.167054
 30
0.0
  0
SPLINE
  5
177
100
AcDbEntity
  8
TopPlate_-_Cut
 62
7
100
AcDbSpline
 70
8
 71
3
 72
8
 73
4
 74
0
 40
0
 40
0
 40
0
 40
0
 40
1
 40
1
 40
1
 40
1
 10
317.975686
 20
18.167054
 30
0.0
 10
317.577815
 20
18.166946
 30
0.0
 10
317.196201
 20
18.324915
 30
0.0
 10
316.914813
 20
18.606200
 30
0.0
  0
SPLINE
  5
178
100
AcDbEntity
  8
TopPlate_-_Cut
 62
7
100
AcDbSpline
 70
8
 71
3
 72
8
 73
4
 74
0
 40
0
 40
0
 40
0
 40
0
 40
1
 40
1
 40
1
 40
1
 10
316.914813
 20
18.606200
 30
0.0
 10
316.633424
 20
18.887486
 30
0.0
 10
316.475317
 20
19.269042
 30
0.0
 10
316.475279
 20
19.666913
 30
0.0
  0
SPLINE
  5
179
100
AcDbEntity
  8
TopPlate_-_Cut
 62
7
100
AcDbSpline
 70
8
 71
3
 72
8
 73
4
 74
0
 40
0
 40
0
 40
0
 40
0
 40
1
 40
1
 40
1
 40
1
 10
316.475279
 20
19.666913
 30
0.0
 10
316.475318
 20
20.064783
 30
0.0
 10
316.633425
 20
20.446338
 30
0.0
 10
316.914814
 20
20.727624
 30
0.0
  0
SPLINE
  5
17a
100
AcDbEntity
  8
TopPlate_-_Cut
 62
7
100
AcDbSpline
 70
8
 71
3
 72
8
 73
4
 74
0
 40
0
 40
0
 40
0
 40
0
 40
1
 40
1
 40
1
 40
1
 10
316.914814
 20
20.727624
 30
0.0
 10
317.196202
 20
21.008909
 30
0.0
 10
317.577815
 20
21.166877
 30
0.0
 10
317.975686
 20
21.166769
 30
0.0
  0
LINE
  5
17b
100
AcDbEntity
  8
TopPlate_-_Cut
 62
7
100
AcDbLine
 10
317.975686
 20
21.166769
 30
0.0
 11
317.975686
 21
21.166769
 31
0.0
  0
SPLINE
  5
17c
100
AcDbEntity
  8
TopPlate_-_Cut
 62
7
100
AcDbSpline
 70
8
 71
3
 72
8
 73
4
 74
0
 40
0
 40
0
 40
0
 40
0
 40
1
 40
1
 40
1
 40
1
 10
103.272387
 20
0.167672
 30
0.0
 10
103.990174
 20
0.167542
 30
0.0
 10
104.572024
 20
-0.414307
 30
0.0
 10
104.572153
 20
-1.132094
 30
0.0
  0
SPLINE
  5
17d
100
AcDbEntity
  8
TopPlate_-_Cut
 62
7
100
AcDbSpline
 70
8
 71
3
 72
8
 73
4
 74
0
 40
0
 40
0
 40
0
 40
0
 40
1
 40
1
 40
1
 40
1
 10
104.572153
 20
-1.132094
 30
0.0
 10
104.572237
 20
-1.476890
 30
0.0
 10
104.435342
 20
-1.807596
 30
0.0
 10
104.191586
 20
-2.051455
 30
0.0
  0
SPLINE
  5
17e
100
AcDbEntity
  8
TopPlate_-_Cut
 62
7
100
AcDbSpline
 70
8
 71
3
 72
8
 73
4
 74
0
 40
0
 40
0
 40
0
 40
0
 40
1
 40
1
 40
1
 40
1
 10
104.191586
 20
-2.051455
 30
0.0
 10
103.947830
 20
-2.295314
 30
0.0
 10
103.617183
 20
-2.432349
 30
0.0
 10
103.272387
 20
-2.432411
 30
0.0
  0
SPLINE
  5
17f
100
AcDbEntity
  8
TopPlate_-_Cut
 62
7
100
AcDbSpline
 70
8
 71
3
 72
8
 73
4
 74
0
 40
0
 40
0
 40
0
 40
0
 40
1
 40
1
 40
1
 40
1
 10
103.272387
 20
-2.432411
 30
0.0
 10
102.927496
 20
-2.432495
 30
0.0
 10
102.596706
 20
-2.295524
 30
0.0
 10
102.352832
 20
-2.051650
 30
0.0
  0
SPLINE
  5
180
100
AcDbEntity
  8
TopPlate_-_Cut
 62
7
100
AcDbSpline
 70
8
 71
3
 72
8
 73
4
 74
0
 40
0
 40
0
 40
0
 40
0
 40
1
 40
1
 40
1
 40
1
 10
102.352832
 20
-2.051650
 30
0.0
 10
102.108957
 20
-1.807775
 30
0.0
 10
101.971987
 20
-1.476985
 30
0.0
 10
101.972070
 20
-1.132094
 30
0.0
  0
SPLINE
  5
181
100
AcDbEntity
  8
TopPlate_-_Cut
 62
7
100
AcDbSpline
 70
8
 71
3
 72
8
 73
4
 74
0
 40
0
 40
0
 40
0
 40
0
 40
1
 40
1
 40
1
 40
1
 10
101.972070
 20
-1.132094
 30
0.0
 10
101.972133
 20
-0.787299
 30
0.0
 10
102.109167
 20
-0.456651
 30
0.0
 10
102.353026
 20
-0.212895
 30
0.0
  0
SPLINE
  5
182
100
AcDbEntity
  8
TopPlate_-_Cut
 62
7
100
AcDbSpline
 70
8
 71
3
 72
8
 73
4
 74
0
 40
0
 40
0
 40
0
 40
0
 40
1
 40
1
 40
1
 40
1
 10
102.353026
 20
-0.212895
 30
0.0
 10
102.596885
 20
0.030861
 30
0.0
 10
102.927591
 20
0.167755
 30
0.0
 10
103.272387
 20
0.167672
 30
0.0
  0
LINE
  5
183
100
AcDbEntity
  8
TopPlate_-_Cut
 62
7
100
AcDbLine
 10
103.272387
 20
0.167672
 30
0.0
 11
103.272387
 21
0.167672
 31
0.0
  0
LINE
  5
184
100
AcDbEntity
  8
TopPlate_-_Cut
 62
7
100
AcDbLine
 10
32.419174
 20
-5.880814
 30
0.0
 11
36.792518
 21
-8.405932
 31
0.0
  0
LINE
  5
185
100
AcDbEntity
  8
TopPlate_-_Cut
 62
7
100
AcDbLine
 10
36.792518
 20
-8.405932
 30
0.0
 11
26.792370
 21
-25.726768
 31
0.0
  0
LINE
  5
186
100
AcDbEntity
  8
TopPlate_-_Cut
 62
7
100
AcDbLine
 10
26.792370
 20
-25.726768
 30
0.0
 11
22.419028
 21
-23.201652
 31
0.0
  0
LINE
  5
187
100
AcDbEntity
  8
TopPlate_-_Cut
 62
7
100
AcDbLine
 10
22.419028
 20
-23.201652
 30
0.0
 11
32.419174
 21
-5.880814
 31
0.0
  0
LINE
  5
188
100
AcDbEntity
  8
TopPlate_-_Cut
 62
7
100
AcDbLine
 10
32.419174
 20
-5.880814
 30
0.0
 11
32.419174
 21
-5.880814
 31
0.0
  0
LINE
  5
189
100
AcDbEntity
  8
TopPlate_-_Cut
 62
7
100
AcDbLine
 10
343.724625
 20
-5.880814
 30
0.0
 11
353.724774
 21
-23.201652
 31
0.0
  0
LINE
  5
18a
100
AcDbEntity
  8
TopPlate_-_Cut
 62
7
100
AcDbLine
 10
353.724774
 20
-23.201652
 30
0.0
 11
349.350866
 21
-25.726768
 31
0.0
  0
LINE
  5
18b
100
AcDbEntity
  8
TopPlate_-_Cut
 62
7
100
AcDbLine
 10
349.350866
 20
-25.726768
 30
0.0
 11
339.350717
 21
-8.405932
 31
0.0
  0
LINE
  5
18c
100
AcDbEntity
  8
TopPlate_-_Cut
 62
7
100
AcDbLine
 10
339.350717
 20
-8.405932
 30
0.0
 11
343.724625
 21
-5.880814
 31
0.0
  0
LINE
  5
18d
100
AcDbEntity
  8
TopPlate_-_Cut
 62
7
100
AcDbLine
 10
343.724625
 20
-5.880814
 30
0.0
 11
343.724625
 21
-5.880814
 31
0.0
  0
SPLINE
  5
18e
100
AcDbEntity
  8
TopPlate_-_Cut
 62
7
100
AcDbSpline
 70
8
 71
3
 72
8
 73
4
 74
0
 40
0
 40
0
 40
0
 40
0
 40
1
 40
1
 40
1
 40
1
 10
304.637384
 20
-8.084021
 30
0.0
 10
304.982178
 20
-8.083938
 30
0.0
 10
305.312883
 20
-8.220834
 30
0.0
 10
305.556740
 20
-8.464589
 30
0.0
  0
SPLINE
  5
18f
100
AcDbEntity
  8
TopPlate_-_Cut
 62
7
100
AcDbSpline
 70
8
 71
3
 72
8
 73
4
 74
0
 40
0
 40
0
 40
0
 40
0
 40
1
 40
1
 40
1
 40
1
 10
305.556740
 20
-8.464589
 30
0.0
 10
305.800598
 20
-8.708345
 30
0.0
 10
305.937632
 20
-9.038992
 30
0.0
 10
305.937694
 20
-9.383787
 30
0.0
  0
SPLINE
  5
190
100
AcDbEntity
  8
TopPlate_-_Cut
 62
7
100
AcDbSpline
 70
8
 71
3
 72
8
 73
4
 74
0
 40
0
 40
0
 40
0
 40
0
 40
1
 40
1
 40
1
 40
1
 10
305.937694
 20
-9.383787
 30
0.0
 10
305.937632
 20
-9.728582
 30
0.0
 10
305.800598
 20
-10.059229
 30
0.0
 10
305.556740
 20
-10.302984
 30
0.0
  0
SPLINE
  5
191
100
AcDbEntity
  8
TopPlate_-_Cut
 62
7
100
AcDbSpline
 70
8
 71
3
 72
8
 73
4
 74
0
 40
0
 40
0
 40
0
 40
0
 40
1
 40
1
 40
1
 40
1
 10
305.556740
 20
-10.302984
 30
0.0
 10
305.312883
 20
-10.546740
 30
0.0
 10
304.982178
 20
-10.683635
 30
0.0
 10
304.637384
 20
-10.683553
 30
0.0
  0
SPLINE
  5
192
100
AcDbEntity
  8
TopPlate_-_Cut
 62
7
100
AcDbSpline
 70
8
 71
3
 72
8
 73
4
 74
0
 40
0
 40
0
 40
0
 40
0
 40
1
 40
1
 40
1
 40
1
 10
304.637384
 20
-10.683553
 30
0.0
 10
303.919604
 20
-10.683413
 30
0.0
 10
303.337766
 20
-10.101566
 30
0.0
 10
303.337637
 20
-9.383787
 30
0.0
  0
SPLINE
  5
193
100
AcDbEntity
  8
TopPlate_-_Cut
 62
7
100
AcDbSpline
 70
8
 71
3
 72
8
 73
4
 74
0
 40
0
 40
0
 40
0
 40
0
 40
1
 40
1
 40
1
 40
1
 10
303.337637
 20
-9.383787
 30
0.0
 10
303.337766
 20
-8.666007
 30
0.0
 10
303.919604
 20
-8.084161
 30
0.0
 10
304.637384
 20
-8.084021
 30
0.0
  0
LINE
  5
194
100
AcDbEntity
  8
TopPlate_-_Cut
 62
7
100
AcDbLine
 10
304.637384
 20
-8.084021
 30
0.0
 11
304.637384
 21
-8.084021
 31
0.0
  0
SPLINE
  5
195
100
AcDbEntity
  8
TopPlate_-_Cut
 62
7
100
AcDbSpline
 70
8
 71
3
 72
8
 73
4
 74
0
 40
0
 40
0
 40
0
 40
0
 40
1
 40
1
 40
1
 40
1
 10
214.052325
 20
-8.833123
 30
0.0
 10
214.450196
 20
-8.833015
 30
0.0
 10
214.831810
 20
-8.990982
 30
0.0
 10
215.113199
 20
-9.272267
 30
0.0
  0
SPLINE
  5
196
100
AcDbEntity
  8
TopPlate_-_Cut
 62
7
100
AcDbSpline
 70
8
 71
3
 72
8
 73
4
 74
0
 40
0
 40
0
 40
0
 40
0
 40
1
 40
1
 40
1
 40
1
 10
215.113199
 20
-9.272267
 30
0.0
 10
215.394588
 20
-9.553553
 30
0.0
 10
215.552696
 20
-9.935108
 30
0.0
 10
215.552734
 20
-10.332979
 30
0.0
  0
SPLINE
  5
197
100
AcDbEntity
  8
TopPlate_-_Cut
 62
7
100
AcDbSpline
 70
8
 71
3
 72
8
 73
4
 74
0
 40
0
 40
0
 40
0
 40
0
 40
1
 40
1
 40
1
 40
1
 10
215.552734
 20
-10.332979
 30
0.0
 10
215.552697
 20
-10.730850
 30
0.0
 10
215.394589
 20
-11.112407
 30
0.0
 10
215.113200
 20
-11.393693
 30
0.0
  0
SPLINE
  5
198
100
AcDbEntity
  8
TopPlate_-_Cut
 62
7
100
AcDbSpline
 70
8
 71
3
 72
8
 73
4
 74
0
 40
0
 40
0
 40
0
 40
0
 40
1
 40
1
 40
1
 40
1
 10
215.113200
 20
-11.393693
 30
0.0
 10
214.831811
 20
-11.674978
 30
0.0
 10
214.450196
 20
-11.832946
 30
0.0
 10
214.052325
 20
-11.832838
 30
0.0
  0
SPLINE
  5
199
100
AcDbEntity
  8
TopPlate_-_Cut
 62
7
100
AcDbSpline
 70
8
 71
3
 72
8
 73
4
 74
0
 40
0
 40
0
 40
0
 40
0
 40
1
 40
1
 40
1
 40
1
 10
214.052325
 20
-11.832838
 30
0.0
 10
213.224009
 20
-11.832758
 30
0.0
 10
212.552547
 20
-11.161295
 30
0.0
 10
212.552469
 20
-10.332979
 30
0.0
  0
SPLINE
  5
19a
100
AcDbEntity
  8
TopPlate_-_Cut
 62
7
100
AcDbSpline
 70
8
 71
3
 72
8
 73
4
 74
0
 40
0
 40
0
 40
0
 40
0
 40
1
 40
1
 40
1
 40
1
 10
212.552469
 20
-10.332979
 30
0.0
 10
212.552549
 20
-9.504665
 30
0.0
 10
213.224010
 20
-8.833203
 30
0.0
 10
214.052325
 20
-8.833123
 30
0.0
  0
LINE
  5
19b
100
AcDbEntity
  8
TopPlate_-_Cut
 62
7
100
AcDbLine
 10
214.052325
 20
-8.833123
 30
0.0
 11
214.052325
 21
-8.833123
 31
0.0
  0
SPLINE
  5
19c
100
AcDbEntity
  8
TopPlate_-_Cut
 62
7
100
AcDbSpline
 70
8
 71
3
 72
8
 73
4
 74
0
 40
0
 40
0
 40
0
 40
0
 40
1
 40
1
 40
1
 40
1
 10
126.132387
 20
-9.992328
 30
0.0
 10
126.850174
 20
-9.992458
 30
0.0
 10
127.432024
 20
-10.574307
 30
0.0
 10
127.432153
 20
-11.292094
 30
0.0
  0
SPLINE
  5
19d
100
AcDbEntity
  8
TopPlate_-_Cut
 62
7
100
AcDbSpline
 70
8
 71
3
 72
8
 73
4
 74
0
 40
0
 40
0
 40
0
 40
0
 40
1
 40
1
 40
1
 40
1
 10
127.432153
 20
-11.292094
 30
0.0
 10
127.432237
 20
-11.636890
 30
0.0
 10
127.295342
 20
-11.967596
 30
0.0
 10
127.051586
 20
-12.211455
 30
0.0
  0
SPLINE
  5
19e
100
AcDbEntity
  8
TopPlate_-_Cut
 62
7
100
AcDbSpline
 70
8
 71
3
 72
8
 73
4
 74
0
 40
0
 40
0
 40
0
 40
0
 40
1
 40
1
 40
1
 40
1
 10
127.051586
 20
-12.211455
 30
0.0
 10
126.807830
 20
-12.455314
 30
0.0
 10
126.477183
 20
-12.592349
 30
0.0
 10
126.132387
 20
-12.592411
 30
0.0
  0
SPLINE
  5
19f
100
AcDbEntity
  8
TopPlate_-_Cut
 62
7
100
AcDbSpline
 70
8
 71
3
 72
8
 73
4
 74
0
 40
0
 40
0
 40
0
 40
0
 40
1
 40
1
 40
1
 40
1
 10
126.132387
 20
-12.592411
 30
0.0
 10
125.787496
 20
-12.592495
 30
0.0
 10
125.456706
 20
-12.455524
 30
0.0
 10
125.212832
 20
-12.211650
 30
0.0
  0
SPLINE
  5
1a0
100
AcDbEntity
  8
TopPlate_-_Cut
 62
7
100
AcDbSpline
 70
8
 71
3
 72
8
 73
4
 74
0
 40
0
 40
0
 40
0
 40
0
 40
1
 40
1
 40
1
 40
1
 10
125.212832
 20
-12.211650
 30
0.0
 10
124.968957
 20
-11.967775
 30
0.0
 10
124.831987
 20
-11.636985
 30
0.0
 10
124.832070
 20
-11.292094
 30
0.0
  0
SPLINE
  5
1a1
100
AcDbEntity
  8
TopPlate_-_Cut
 62
7
100
AcDbSpline
 70
8
 71
3
 72
8
 73
4
 74
0
 40
0
 40
0
 40
0
 40
0
 40
1
 40
1
 40
1
 40
1
 10
124.832070
 20
-11.292094
 30
0.0
 10
124.832133
 20
-10.947299
 30
0.0
 10
124.969167
 20
-10.616651
 30
0.0
 10
125.213026
 20
-10.372895
 30
0.0
  0
SPLINE
  5
1a2
100
AcDbEntity
  8
TopPlate_-_Cut
 62
7
100
AcDbSpline
 70
8
 71
3
 72
8
 73
4
 74
0
 40
0
 40
0
 40
0
 40
0
 40
1
 40
1
 40
1
 40
1
 10
125.213026
 20
-10.372895
 30
0.0
 10
125.456885
 20
-10.129139
 30
0.0
 10
125.787591
 20
-9.992245
 30
0.0
 10
126.132387
 20
-9.992328
 30
0.0
  0
LINE
  5
1a3
100
AcDbEntity
  8
TopPlate_-_Cut
 62
7
100
AcDbLine
 10
126.132387
 20
-9.992328
 30
0.0
 11
126.132387
 21
-9.992328
 31
0.0
  0
SPLINE
  5
1a4
100
AcDbEntity
  8
TopPlate_-_Cut
 62
7
100
AcDbSpline
 70
8
 71
3
 72
8
 73
4
 74
0
 40
0
 40
0
 40
0
 40
0
 40
1
 40
1
 40
1
 40
1
 10
327.497384
 20
-18.244021
 30
0.0
 10
327.842178
 20
-18.243938
 30
0.0
 10
328.172883
 20
-18.380834
 30
0.0
 10
328.416740
 20
-18.624589
 30
0.0
  0
SPLINE
  5
1a5
100
AcDbEntity
  8
TopPlate_-_Cut
 62
7
100
AcDbSpline
 70
8
 71
3
 72
8
 73
4
 74
0
 40
0
 40
0
 40
0
 40
0
 40
1
 40
1
 40
1
 40
1
 10
328.416740
 20
-18.624589
 30
0.0
 10
328.660598
 20
-18.868345
 30
0.0
 10
328.797632
 20
-19.198992
 30
0.0
 10
328.797694
 20
-19.543787
 30
0.0
  0
SPLINE
  5
1a6
100
AcDbEntity
  8
TopPlate_-_Cut
 62
7
100
AcDbSpline
 70
8
 71
3
 72
8
 73
4
 74
0
 40
0
 40
0
 40
0
 40
0
 40
1
 40
1
 40
1
 40
1
 10
328.797694
 20
-19.543787
 30
0.0
 10
328.797632
 20
-19.888582
 30
0.0
 10
328.660598
 20
-20.219229
 30
0.0
 10
328.416740
 20
-20.462984
 30
0.0
  0
SPLINE
  5
1a7
100
AcDbEntity
  8
TopPlate_-_Cut
 62
7
100
AcDbSpline
 70
8
 71
3
 72
8
 73
4
 74
0
 40
0
 40
0
 40
0
 40
0
 40
1
 40
1
 40
1
 40
1
 10
328.416740
 20
-20.462984
 30
0.0
 10
328.172883
 20
-20.706740
 30
0.0
 10
327.842178
 20
-20.843635
 30
0.0
 10
327.497384
 20
-20.843553
 30
0.0
  0
SPLINE
  5
1a8
100
AcDbEntity
  8
TopPlate_-_Cut
 62
7
100
AcDbSpline
 70
8
 71
3
 72
8
 73
4
 74
0
 40
0
 40
0
 40
0
 40
0
 40
1
 40
1
 40
1
 40
1
 10
327.497384
 20
-20.843553
 30
0.0
 10
326.779604
 20
-20.843413
 30
0.0
 10
326.197766
 20
-20.261566
 30
0.0
 10
326.197637
 20
-19.543787
 30
0.0
  0
SPLINE
  5
1a9
100
AcDbEntity
  8
TopPlate_-_Cut
 62
7
100
AcDbSpline
 70
8
 71
3
 72
8
 73
4
 74
0
 40
0
 40
0
 40
0
 40
0
 40
1
 40
1
 40
1
 40
1
 10
326.197637
 20
-19.543787
 30
0.0
 10
326.197766
 20
-18.826007
 30
0.0
 10
326.779604
 20
-18.244161
 30
0.0
 10
327.497384
 20
-18.244021
 30
0.0
  0
LINE
  5
1aa
100
AcDbEntity
  8
TopPlate_-_Cut
 62
7
100
AcDbLine
 10
327.497384
 20
-18.244021
 30
0.0
 11
327.497384
 21
-18.244021
 31
0.0
  0
LINE
  5
1ab
100
AcDbEntity
  8
TopPlate_-_Cut
 62
7
100
AcDbLine
 10
12.418880
 20
-40.521937
 30
0.0
 11
16.792773
 21
-43.047056
 31
0.0
  0
LINE
  5
1ac
100
AcDbEntity
  8
TopPlate_-_Cut
 62
7
100
AcDbLine
 10
16.792773
 20
-43.047056
 30
0.0
 11
11.792700
 21
-51.707750
 31
0.0
  0
LINE
  5
1ad
100
AcDbEntity
  8
TopPlate_-_Cut
 62
7
100
AcDbLine
 10
11.792700
 20
-51.707750
 30
0.0
 11
7.418806
 21
-49.182632
 31
0.0
  0
LINE
  5
1ae
100
AcDbEntity
  8
TopPlate_-_Cut
 62
7
100
AcDbLine
 10
7.418806
 20
-49.182632
 30
0.0
 11
12.418880
 21
-40.521937
 31
0.0
  0
LINE
  5
1af
100
AcDbEntity
  8
TopPlate_-_Cut
 62
7
100
AcDbLine
 10
12.418880
 20
-40.521937
 30
0.0
 11
12.418880
 21
-40.521937
 31
0.0
  0
LINE
  5
1b0
100
AcDbEntity
  8
TopPlate_-_Cut
 62
7
100
AcDbLine
 10
363.724359
 20
-40.521937
 30
0.0
 11
368.724434
 21
-49.182632
 31
0.0
  0
LINE
  5
1b1
100
AcDbEntity
  8
TopPlate_-_Cut
 62
7
100
AcDbLine
 10
368.724434
 20
-49.182632
 30
0.0
 11
364.351090
 21
-51.707750
 31
0.0
  0
LINE
  5
1b2
100
AcDbEntity
  8
TopPlate_-_Cut
 62
7
100
AcDbLine
 10
364.351090
 20
-51.707750
 30
0.0
 11
359.351016
 21
-43.047056
 31
0.0
  0
LINE
  5
1b3
100
AcDbEntity
  8
TopPlate_-_Cut
 62
7
100
AcDbLine
 10
359.351016
 20
-43.047056
 30
0.0
 11
363.724359
 21
-40.521937
 31
0.0
  0
LINE
  5
1b4
100
AcDbEntity
  8
TopPlate_-_Cut
 62
7
100
AcDbLine
 10
363.724359
 20
-40.521937
 30
0.0
 11
363.724359
 21
-40.521937
 31
0.0
  0
SPLINE
  5
1b5
100
AcDbEntity
  8
TopPlate_-_Cut
 62
7
100
AcDbSpline
 70
8
 71
3
 72
8
 73
4
 74
0
 40
0
 40
0
 40
0
 40
0
 40
1
 40
1
 40
1
 40
1
 10
84.148524
 20
-49.032701
 30
0.0
 10
84.493415
 20
-49.032617
 30
0.0
 10
84.824204
 20
-49.169588
 30
0.0
 10
85.068079
 20
-49.413462
 30
0.0
  0
SPLINE
  5
1b6
100
AcDbEntity
  8
TopPlate_-_Cut
 62
7
100
AcDbSpline
 70
8
 71
3
 72
8
 73
4
 74
0
 40
0
 40
0
 40
0
 40
0
 40
1
 40
1
 40
1
 40
1
 10
85.068079
 20
-49.413462
 30
0.0
 10
85.311954
 20
-49.657337
 30
0.0
 10
85.448924
 20
-49.988127
 30
0.0
 10
85.448840
 20
-50.333018
 30
0.0
  0
SPLINE
  5
1b7
100
AcDbEntity
  8
TopPlate_-_Cut
 62
7
100
AcDbSpline
 70
8
 71
3
 72
8
 73
4
 74
0
 40
0
 40
0
 40
0
 40
0
 40
1
 40
1
 40
1
 40
1
 10
85.448840
 20
-50.333018
 30
0.0
 10
85.448778
 20
-50.677813
 30
0.0
 10
85.311743
 20
-51.008461
 30
0.0
 10
85.067884
 20
-51.252217
 30
0.0
  0
SPLINE
  5
1b8
100
AcDbEntity
  8
TopPlate_-_Cut
 62
7
100
AcDbSpline
 70
8
 71
3
 72
8
 73
4
 74
0
 40
0
 40
0
 40
0
 40
0
 40
1
 40
1
 40
1
 40
1
 10
85.067884
 20
-51.252217
 30
0.0
 10
84.824025
 20
-51.495973
 30
0.0
 10
84.493319
 20
-51.632868
 30
0.0
 10
84.148524
 20
-51.632784
 30
0.0
  0
SPLINE
  5
1b9
100
AcDbEntity
  8
TopPlate_-_Cut
 62
7
100
AcDbSpline
 70
8
 71
3
 72
8
 73
4
 74
0
 40
0
 40
0
 40
0
 40
0
 40
1
 40
1
 40
1
 40
1
 10
84.148524
 20
-51.632784
 30
0.0
 10
83.430736
 20
-51.632654
 30
0.0
 10
82.848887
 20
-51.050805
 30
0.0
 10
82.848758
 20
-50.333018
 30
0.0
  0
SPLINE
  5
1ba
100
AcDbEntity
  8
TopPlate_-_Cut
 62
7
100
AcDbSpline
 70
8
 71
3
 72
8
 73
4
 74
0
 40
0
 40
0
 40
0
 40
0
 40
1
 40
1
 40
1
 40
1
 10
82.848758
 20
-50.333018
 30
0.0
 10
82.848674
 20
-49.988222
 30
0.0
 10
82.985568
 20
-49.657516
 30
0.0
 10
83.229324
 20
-49.413657
 30
0.0
  0
SPLINE
  5
1bb
100
AcDbEntity
  8
TopPlate_-_Cut
 62
7
100
AcDbSpline
 70
8
 71
3
 72
8
 73
4
 74
0
 40
0
 40
0
 40
0
 40
0
 40
1
 40
1
 40
1
 40
1
 10
83.229324
 20
-49.413657
 30
0.0
 10
83.473080
 20
-49.169798
 30
0.0
 10
83.803728
 20
-49.032763
 30
0.0
 10
84.148524
 20
-49.032701
 30
0.0
  0
LINE
  5
1bc
100
AcDbEntity
  8
TopPlate_-_Cut
 62
7
100
AcDbLine
 10
84.148524
 20
-49.032701
 30
0.0
 11
84.148524
 21
-49.032701
 31
0.0
  0
SPLINE
  5
1bd
100
AcDbEntity
  8
TopPlate_-_Cut
 62
7
100
AcDbSpline
 70
8
 71
3
 72
8
 73
4
 74
0
 40
0
 40
0
 40
0
 40
0
 40
1
 40
1
 40
1
 40
1
 10
188.071895
 20
-49.032701
 30
0.0
 10
188.416691
 20
-49.032763
 30
0.0
 10
188.747339
 20
-49.169798
 30
0.0
 10
188.991095
 20
-49.413657
 30
0.0
  0
SPLINE
  5
1be
100
AcDbEntity
  8
TopPlate_-_Cut
 62
7
100
AcDbSpline
 70
8
 71
3
 72
8
 73
4
 74
0
 40
0
 40
0
 40
0
 40
0
 40
1
 40
1
 40
1
 40
1
 10
188.991095
 20
-49.413657
 30
0.0
 10
189.234851
 20
-49.657516
 30
0.0
 10
189.371745
 20
-49.988222
 30
0.0
 10
189.371661
 20
-50.333018
 30
0.0
  0
SPLINE
  5
1bf
100
AcDbEntity
  8
TopPlate_-_Cut
 62
7
100
AcDbSpline
 70
8
 71
3
 72
8
 73
4
 74
0
 40
0
 40
0
 40
0
 40
0
 40
1
 40
1
 40
1
 40
1
 10
189.371661
 20
-50.333018
 30
0.0
 10
189.371532
 20
-51.050805
 30
0.0
 10
188.789683
 20
-51.632654
 30
0.0
 10
188.071895
 20
-51.632784
 30
0.0
  0
SPLINE
  5
1c0
100
AcDbEntity
  8
TopPlate_-_Cut
 62
7
100
AcDbSpline
 70
8
 71
3
 72
8
 73
4
 74
0
 40
0
 40
0
 40
0
 40
0
 40
1
 40
1
 40
1
 40
1
 10
188.071895
 20
-51.632784
 30
0.0
 10
187.727100
 20
-51.632868
 30
0.0
 10
187.396394
 20
-51.495973
 30
0.0
 10
187.152535
 20
-51.252217
 30
0.0
  0
SPLINE
  5
1c1
100
AcDbEntity
  8
TopPlate_-_Cut
 62
7
100
AcDbSpline
 70
8
 71
3
 72
8
 73
4
 74
0
 40
0
 40
0
 40
0
 40
0
 40
1
 40
1
 40
1
 40
1
 10
187.152535
 20
-51.252217
 30
0.0
 10
186.908676
 20
-51.008461
 30
0.0
 10
186.771641
 20
-50.677813
 30
0.0
 10
186.771579
 20
-50.333018
 30
0.0
  0
SPLINE
  5
1c2
100
AcDbEntity
  8
TopPlate_-_Cut
 62
7
100
AcDbSpline
 70
8
 71
3
 72
8
 73
4
 74
0
 40
0
 40
0
 40
0
 40
0
 40
1
 40
1
 40
1
 40
1
 10
186.771579
 20
-50.333018
 30
0.0
 10
186.771495
 20
-49.988127
 30
0.0
 10
186.908465
 20
-49.657337
 30
0.0
 10
187.152340
 20
-49.413462
 30
0.0
  0
SPLINE
  5
1c3
100
AcDbEntity
  8
TopPlate_-_Cut
 62
7
100
AcDbSpline
 70
8
 71
3
 72
8
 73
4
 74
0
 40
0
 40
0
 40
0
 40
0
 40
1
 40
1
 40
1
 40
1
 10
187.152340
 20
-49.413462
 30
0.0
 10
187.396215
 20
-49.169588
 30
0.0
 10
187.727004
 20
-49.032617
 30
0.0
 10
188.071895
 20
-49.032701
 30
0.0
  0
LINE
  5
1c4
100
AcDbEntity
  8
TopPlate_-_Cut
 62
7
100
AcDbLine
 10
188.071895
 20
-49.032701
 30
0.0
 11
188.071895
 21
-49.032701
 31
0.0
  0
SPLINE
  5
1c5
100
AcDbEntity
  8
TopPlate_-_Cut
 62
7
100
AcDbSpline
 70
8
 71
3
 72
8
 73
4
 74
0
 40
0
 40
0
 40
0
 40
0
 40
1
 40
1
 40
1
 40
1
 10
136.110486
 20
-53.833236
 30
0.0
 10
136.938801
 20
-53.833316
 30
0.0
 10
137.610262
 20
-54.504778
 30
0.0
 10
137.610342
 20
-55.333092
 30
0.0
  0
SPLINE
  5
1c6
100
AcDbEntity
  8
TopPlate_-_Cut
 62
7
100
AcDbSpline
 70
8
 71
3
 72
8
 73
4
 74
0
 40
0
 40
0
 40
0
 40
0
 40
1
 40
1
 40
1
 40
1
 10
137.610342
 20
-55.333092
 30
0.0
 10
137.610262
 20
-56.161407
 30
0.0
 10
136.938801
 20
-56.832869
 30
0.0
 10
136.110486
 20
-56.832948
 30
0.0
  0
SPLINE
  5
1c7
100
AcDbEntity
  8
TopPlate_-_Cut
 62
7
100
AcDbSpline
 70
8
 71
3
 72
8
 73
4
 74
0
 40
0
 40
0
 40
0
 40
0
 40
1
 40
1
 40
1
 40
1
 10
136.110486
 20
-56.832948
 30
0.0
 10
135.712615
 20
-56.833057
 30
0.0
 10
135.331001
 20
-56.675089
 30
0.0
 10
135.049612
 20
-56.393804
 30
0.0
  0
SPLINE
  5
1c8
100
AcDbEntity
  8
TopPlate_-_Cut
 62
7
100
AcDbSpline
 70
8
 71
3
 72
8
 73
4
 74
0
 40
0
 40
0
 40
0
 40
0
 40
1
 40
1
 40
1
 40
1
 10
135.049612
 20
-56.393804
 30
0.0
 10
134.768224
 20
-56.112519
 30
0.0
 10
134.610115
 20
-55.730963
 30
0.0
 10
134.610077
 20
-55.333092
 30
0.0
  0
SPLINE
  5
1c9
100
AcDbEntity
  8
TopPlate_-_Cut
 62
7
100
AcDbSpline
 70
8
 71
3
 72
8
 73
4
 74
0
 40
0
 40
0
 40
0
 40
0
 40
1
 40
1
 40
1
 40
1
 10
134.610077
 20
-55.333092
 30
0.0
 10
134.610115
 20
-54.935222
 30
0.0
 10
134.768224
 20
-54.553666
 30
0.0
 10
135.049612
 20
-54.272381
 30
0.0
  0
SPLINE
  5
1ca
100
AcDbEntity
  8
TopPlate_-_Cut
 62
7
100
AcDbSpline
 70
8
 71
3
 72
8
 73
4
 74
0
 40
0
 40
0
 40
0
 40
0
 40
1
 40
1
 40
1
 40
1
 10
135.049612
 20
-54.272381
 30
0.0
 10
135.331001
 20
-53.991096
 30
0.0
 10
135.712615
 20
-53.833128
 30
0.0
 10
136.110486
 20
-53.833236
 30
0.0
  0
LINE
  5
1cb
100
AcDbEntity
  8
TopPlate_-_Cut
 62
7
100
AcDbLine
 10
136.110486
 20
-53.833236
 30
0.0
 11
136.110486
 21
-53.833236
 31
0.0
  0
LINE
  5
1cc
100
AcDbEntity
  8
TopPlate_-_Cut
 62
7
100
AcDbLine
 10
11.792700
 20
-58.958434
 30
0.0
 11
16.792222
 21
-67.618578
 31
0.0
  0
LINE
  5
1cd
100
AcDbEntity
  8
TopPlate_-_Cut
 62
7
100
AcDbLine
 10
16.792222
 20
-67.618578
 30
0.0
 11
12.418880
 21
-70.143697
 31
0.0
  0
LINE
  5
1ce
100
AcDbEntity
  8
TopPlate_-_Cut
 62
7
100
AcDbLine
 10
12.418880
 20
-70.143697
 30
0.0
 11
7.418806
 21
-61.483553
 31
0.0
  0
LINE
  5
1cf
100
AcDbEntity
  8
TopPlate_-_Cut
 62
7
100
AcDbLine
 10
7.418806
 20
-61.483553
 30
0.0
 11
11.792700
 21
-58.958434
 31
0.0
  0
LINE
  5
1d0
100
AcDbEntity
  8
TopPlate_-_Cut
 62
7
100
AcDbLine
 10
11.792700
 20
-58.958434
 30
0.0
 11
11.792700
 21
-58.958434
 31
0.0
  0
LINE
  5
1d1
100
AcDbEntity
  8
TopPlate_-_Cut
 62
7
100
AcDbLine
 10
364.351090
 20
-58.958434
 30
0.0
 11
368.724434
 21
-61.483553
 31
0.0
  0
LINE
  5
1d2
100
AcDbEntity
  8
TopPlate_-_Cut
 62
7
100
AcDbLine
 10
368.724434
 20
-61.483553
 30
0.0
 11
363.724924
 21
-70.143697
 31
0.0
  0
LINE
  5
1d3
100
AcDbEntity
  8
TopPlate_-_Cut
 62
7
100
AcDbLine
 10
363.724924
 20
-70.143697
 30
0.0
 11
359.351016
 21
-67.618578
 31
0.0
  0
LINE
  5
1d4
100
AcDbEntity
  8
TopPlate_-_Cut
 62
7
100
AcDbLine
 10
359.351016
 20
-67.618578
 30
0.0
 11
364.351090
 21
-58.958434
 31
0.0
  0
LINE
  5
1d5
100
AcDbEntity
  8
TopPlate_-_Cut
 62
7
100
AcDbLine
 10
364.351090
 20
-58.958434
 30
0.0
 11
364.351090
 21
-58.958434
 31
0.0
  0
SPLINE
  5
1d6
100
AcDbEntity
  8
TopPlate_-_Cut
 62
7
100
AcDbSpline
 70
8
 71
3
 72
8
 73
4
 74
0
 40
0
 40
0
 40
0
 40
0
 40
1
 40
1
 40
1
 40
1
 10
84.148524
 20
-59.032851
 30
0.0
 10
84.493415
 20
-59.032767
 30
0.0
 10
84.824204
 20
-59.169737
 30
0.0
 10
85.068079
 20
-59.413612
 30
0.0
  0
SPLINE
  5
1d7
100
AcDbEntity
  8
TopPlate_-_Cut
 62
7
100
AcDbSpline
 70
8
 71
3
 72
8
 73
4
 74
0
 40
0
 40
0
 40
0
 40
0
 40
1
 40
1
 40
1
 40
1
 10
85.068079
 20
-59.413612
 30
0.0
 10
85.311954
 20
-59.657487
 30
0.0
 10
85.448924
 20
-59.988276
 30
0.0
 10
85.448840
 20
-60.333167
 30
0.0
  0
SPLINE
  5
1d8
100
AcDbEntity
  8
TopPlate_-_Cut
 62
7
100
AcDbSpline
 70
8
 71
3
 72
8
 73
4
 74
0
 40
0
 40
0
 40
0
 40
0
 40
1
 40
1
 40
1
 40
1
 10
85.448840
 20
-60.333167
 30
0.0
 10
85.448778
 20
-60.677963
 30
0.0
 10
85.311743
 20
-61.008611
 30
0.0
 10
85.067884
 20
-61.252366
 30
0.0
  0
SPLINE
  5
1d9
100
AcDbEntity
  8
TopPlate_-_Cut
 62
7
100
AcDbSpline
 70
8
 71
3
 72
8
 73
4
 74
0
 40
0
 40
0
 40
0
 40
0
 40
1
 40
1
 40
1
 40
1
 10
85.067884
 20
-61.252366
 30
0.0
 10
84.824025
 20
-61.496122
 30
0.0
 10
84.493319
 20
-61.633017
 30
0.0
 10
84.148524
 20
-61.632933
 30
0.0
  0
SPLINE
  5
1da
100
AcDbEntity
  8
TopPlate_-_Cut
 62
7
100
AcDbSpline
 70
8
 71
3
 72
8
 73
4
 74
0
 40
0
 40
0
 40
0
 40
0
 40
1
 40
1
 40
1
 40
1
 10
84.148524
 20
-61.632933
 30
0.0
 10
83.430736
 20
-61.632804
 30
0.0
 10
82.848887
 20
-61.050954
 30
0.0
 10
82.848758
 20
-60.333167
 30
0.0
  0
SPLINE
  5
1db
100
AcDbEntity
  8
TopPlate_-_Cut
 62
7
100
AcDbSpline
 70
8
 71
3
 72
8
 73
4
 74
0
 40
0
 40
0
 40
0
 40
0
 40
1
 40
1
 40
1
 40
1
 10
82.848758
 20
-60.333167
 30
0.0
 10
82.848674
 20
-59.988371
 30
0.0
 10
82.985568
 20
-59.657665
 30
0.0
 10
83.229324
 20
-59.413806
 30
0.0
  0
SPLINE
  5
1dc
100
AcDbEntity
  8
TopPlate_-_Cut
 62
7
100
AcDbSpline
 70
8
 71
3
 72
8
 73
4
 74
0
 40
0
 40
0
 40
0
 40
0
 40
1
 40
1
 40
1
 40
1
 10
83.229324
 20
-59.413806
 30
0.0
 10
83.473080
 20
-59.169947
 30
0.0
 10
83.803728
 20
-59.032913
 30
0.0
 10
84.148524
 20
-59.032851
 30
0.0
  0
LINE
  5
1dd
100
AcDbEntity
  8
TopPlate_-_Cut
 62
7
100
AcDbLine
 10
84.148524
 20
-59.032851
 30
0.0
 11
84.148524
 21
-59.032851
 31
0.0
  0
SPLINE
  5
1de
100
AcDbEntity
  8
TopPlate_-_Cut
 62
7
100
AcDbSpline
 70
8
 71
3
 72
8
 73
4
 74
0
 40
0
 40
0
 40
0
 40
0
 40
1
 40
1
 40
1
 40
1
 10
188.071895
 20
-59.032851
 30
0.0
 10
188.416691
 20
-59.032913
 30
0.0
 10
188.747339
 20
-59.169947
 30
0.0
 10
188.991095
 20
-59.413806
 30
0.0
  0
SPLINE
  5
1df
100
AcDbEntity
  8
TopPlate_-_Cut
 62
7
100
AcDbSpline
 70
8
 71
3
 72
8
 73
4
 74
0
 40
0
 40
0
 40
0
 40
0
 40
1
 40
1
 40
1
 40
1
 10
188.991095
 20
-59.413806
 30
0.0
 10
189.234851
 20
-59.657665
 30
0.0
 10
189.371745
 20
-59.988371
 30
0.0
 10
189.371661
 20
-60.333167
 30
0.0
  0
SPLINE
  5
1e0
100
AcDbEntity
  8
TopPlate_-_Cut
 62
7
100
AcDbSpline
 70
8
 71
3
 72
8
 73
4
 74
0
 40
0
 40
0
 40
0
 40
0
 40
1
 40
1
 40
1
 40
1
 10
189.371661
 20
-60.333167
 30
0.0
 10
189.371532
 20
-61.050954
 30
0.0
 10
188.789683
 20
-61.632804
 30
0.0
 10
188.071895
 20
-61.632933
 30
0.0
  0
SPLINE
  5
1e1
100
AcDbEntity
  8
TopPlate_-_Cut
 62
7
100
AcDbSpline
 70
8
 71
3
 72
8
 73
4
 74
0
 40
0
 40
0
 40
0
 40
0
 40
1
 40
1
 40
1
 40
1
 10
188.071895
 20
-61.632933
 30
0.0
 10
187.727100
 20
-61.633017
 30
0.0
 10
187.396394
 20
-61.496122
 30
0.0
 10
187.152535
 20
-61.252366
 30
0.0
  0
SPLINE
  5
1e2
100
AcDbEntity
  8
TopPlate_-_Cut
 62
7
100
AcDbSpline
 70
8
 71
3
 72
8
 73
4
 74
0
 40
0
 40
0
 40
0
 40
0
 40
1
 40
1
 40
1
 40
1
 10
187.152535
 20
-61.252366
 30
0.0
 10
186.908676
 20
-61.008611
 30
0.0
 10
186.771641
 20
-60.677963
 30
0.0
 10
186.771579
 20
-60.333167
 30
0.0
  0
SPLINE
  5
1e3
100
AcDbEntity
  8
TopPlate_-_Cut
 62
7
100
AcDbSpline
 70
8
 71
3
 72
8
 73
4
 74
0
 40
0
 40
0
 40
0
 40
0
 40
1
 40
1
 40
1
 40
1
 10
186.771579
 20
-60.333167
 30
0.0
 10
186.771495
 20
-59.988276
 30
0.0
 10
186.908465
 20
-59.657487
 30
0.0
 10
187.152340
 20
-59.413612
 30
0.0
  0
SPLINE
  5
1e4
100
AcDbEntity
  8
TopPlate_-_Cut
 62
7
100
AcDbSpline
 70
8
 71
3
 72
8
 73
4
 74
0
 40
0
 40
0
 40
0
 40
0
 40
1
 40
1
 40
1
 40
1
 10
187.152340
 20
-59.413612
 30
0.0
 10
187.396215
 20
-59.169737
 30
0.0
 10
187.727004
 20
-59.032767
 30
0.0
 10
188.071895
 20
-59.032851
 30
0.0
  0
LINE
  5
1e5
100
AcDbEntity
  8
TopPlate_-_Cut
 62
7
100
AcDbLine
 10
188.071895
 20
-59.032851
 30
0.0
 11
188.071895
 21
-59.032851
 31
0.0
  0
LINE
  5
1e6
100
AcDbEntity
  8
TopPlate_-_Cut
 62
7
100
AcDbLine
 10
26.792370
 20
-84.938864
 30
0.0
 11
36.792518
 21
-102.259152
 31
0.0
  0
LINE
  5
1e7
100
AcDbEntity
  8
TopPlate_-_Cut
 62
7
100
AcDbLine
 10
36.792518
 20
-102.259152
 30
0.0
 11
32.418624
 21
-104.784268
 31
0.0
  0
LINE
  5
1e8
100
AcDbEntity
  8
TopPlate_-_Cut
 62
7
100
AcDbLine
 10
32.418624
 20
-104.784268
 30
0.0
 11
22.419028
 21
-87.463982
 31
0.0
  0
LINE
  5
1e9
100
AcDbEntity
  8
TopPlate_-_Cut
 62
7
100
AcDbLine
 10
22.419028
 20
-87.463982
 30
0.0
 11
26.792370
 21
-84.938864
 31
0.0
  0
LINE
  5
1ea
100
AcDbEntity
  8
TopPlate_-_Cut
 62
7
100
AcDbLine
 10
26.792370
 20
-84.938864
 30
0.0
 11
26.792370
 21
-84.938864
 31
0.0
  0
LINE
  5
1eb
100
AcDbEntity
  8
TopPlate_-_Cut
 62
7
100
AcDbLine
 10
349.350866
 20
-84.938864
 30
0.0
 11
353.724774
 21
-87.463982
 31
0.0
  0
LINE
  5
1ec
100
AcDbEntity
  8
TopPlate_-_Cut
 62
7
100
AcDbLine
 10
353.724774
 20
-87.463982
 30
0.0
 11
343.724625
 21
-104.784268
 31
0.0
  0
LINE
  5
1ed
100
AcDbEntity
  8
TopPlate_-_Cut
 62
7
100
AcDbLine
 10
343.724625
 20
-104.784268
 30
0.0
 11
339.351281
 21
-102.259152
 31
0.0
  0
LINE
  5
1ee
100
AcDbEntity
  8
TopPlate_-_Cut
 62
7
100
AcDbLine
 10
339.351281
 20
-102.259152
 30
0.0
 11
349.350866
 21
-84.938864
 31
0.0
  0
LINE
  5
1ef
100
AcDbEntity
  8
TopPlate_-_Cut
 62
7
100
AcDbLine
 10
349.350866
 20
-84.938864
 30
0.0
 11
349.350866
 21
-84.938864
 31
0.0
  0
SPLINE
  5
1f0
100
AcDbEntity
  8
TopPlate_-_Cut
 62
7
100
AcDbSpline
 70
8
 71
3
 72
8
 73
4
 74
0
 40
0
 40
0
 40
0
 40
0
 40
1
 40
1
 40
1
 40
1
 10
259.156618
 20
-89.832555
 30
0.0
 10
259.501414
 20
-89.832470
 30
0.0
 10
259.832121
 20
-89.969365
 30
0.0
 10
260.075980
 20
-90.213120
 30
0.0
  0
SPLINE
  5
1f1
100
AcDbEntity
  8
TopPlate_-_Cut
 62
7
100
AcDbSpline
 70
8
 71
3
 72
8
 73
4
 74
0
 40
0
 40
0
 40
0
 40
0
 40
1
 40
1
 40
1
 40
1
 10
260.075980
 20
-90.213120
 30
0.0
 10
260.319840
 20
-90.456876
 30
0.0
 10
260.456875
 20
-90.787525
 30
0.0
 10
260.456937
 20
-91.132321
 30
0.0
  0
SPLINE
  5
1f2
100
AcDbEntity
  8
TopPlate_-_Cut
 62
7
100
AcDbSpline
 70
8
 71
3
 72
8
 73
4
 74
0
 40
0
 40
0
 40
0
 40
0
 40
1
 40
1
 40
1
 40
1
 10
260.456937
 20
-91.132321
 30
0.0
 10
260.456875
 20
-91.477117
 30
0.0
 10
260.319840
 20
-91.807765
 30
0.0
 10
260.075980
 20
-92.051521
 30
0.0
  0
SPLINE
  5
1f3
100
AcDbEntity
  8
TopPlate_-_Cut
 62
7
100
AcDbSpline
 70
8
 71
3
 72
8
 73
4
 74
0
 40
0
 40
0
 40
0
 40
0
 40
1
 40
1
 40
1
 40
1
 10
260.075980
 20
-92.051521
 30
0.0
 10
259.832121
 20
-92.295277
 30
0.0
 10
259.501414
 20
-92.432171
 30
0.0
 10
259.156618
 20
-92.432087
 30
0.0
  0
SPLINE
  5
1f4
100
AcDbEntity
  8
TopPlate_-_Cut
 62
7
100
AcDbSpline
 70
8
 71
3
 72
8
 73
4
 74
0
 40
0
 40
0
 40
0
 40
0
 40
1
 40
1
 40
1
 40
1
 10
259.156618
 20
-92.432087
 30
0.0
 10
258.438831
 20
-92.431956
 30
0.0
 10
257.856984
 20
-91.850107
 30
0.0
 10
257.856855
 20
-91.132321
 30
0.0
  0
SPLINE
  5
1f5
100
AcDbEntity
  8
TopPlate_-_Cut
 62
7
100
AcDbSpline
 70
8
 71
3
 72
8
 73
4
 74
0
 40
0
 40
0
 40
0
 40
0
 40
1
 40
1
 40
1
 40
1
 10
257.856855
 20
-91.132321
 30
0.0
 10
257.856984
 20
-90.414535
 30
0.0
 10
258.438831
 20
-89.832686
 30
0.0
 10
259.156618
 20
-89.832555
 30
0.0
  0
LINE
  5
1f6
100
AcDbEntity
  8
TopPlate_-_Cut
 62
7
100
AcDbLine
 10
259.156618
 20
-89.832555
 30
0.0
 11
259.156618
 21
-89.832555
 31
0.0
  0
SPLINE
  5
1f7
100
AcDbEntity
  8
TopPlate_-_Cut
 62
7
100
AcDbSpline
 70
8
 71
3
 72
8
 73
4
 74
0
 40
0
 40
0
 40
0
 40
0
 40
1
 40
1
 40
1
 40
1
 10
148.753158
 20
-98.083697
 30
0.0
 10
149.097954
 20
-98.083759
 30
0.0
 10
149.428602
 20
-98.220794
 30
0.0
 10
149.672358
 20
-98.464653
 30
0.0
  0
SPLINE
  5
1f8
100
AcDbEntity
  8
TopPlate_-_Cut
 62
7
100
AcDbSpline
 70
8
 71
3
 72
8
 73
4
 74
0
 40
0
 40
0
 40
0
 40
0
 40
1
 40
1
 40
1
 40
1
 10
149.672358
 20
-98.464653
 30
0.0
 10
149.916113
 20
-98.708512
 30
0.0
 10
150.053008
 20
-99.039217
 30
0.0
 10
150.052924
 20
-99.384013
 30
0.0
  0
SPLINE
  5
1f9
100
AcDbEntity
  8
TopPlate_-_Cut
 62
7
100
AcDbSpline
 70
8
 71
3
 72
8
 73
4
 74
0
 40
0
 40
0
 40
0
 40
0
 40
1
 40
1
 40
1
 40
1
 10
150.052924
 20
-99.384013
 30
0.0
 10
150.052795
 20
-100.101801
 30
0.0
 10
149.470946
 20
-100.683650
 30
0.0
 10
148.753158
 20
-100.683779
 30
0.0
  0
SPLINE
  5
1fa
100
AcDbEntity
  8
TopPlate_-_Cut
 62
7
100
AcDbSpline
 70
8
 71
3
 72
8
 73
4
 74
0
 40
0
 40
0
 40
0
 40
0
 40
1
 40
1
 40
1
 40
1
 10
148.753158
 20
-100.683779
 30
0.0
 10
148.408363
 20
-100.683863
 30
0.0
 10
148.077657
 20
-100.546968
 30
0.0
 10
147.833798
 20
-100.303213
 30
0.0
  0
SPLINE
  5
1fb
100
AcDbEntity
  8
TopPlate_-_Cut
 62
7
100
AcDbSpline
 70
8
 71
3
 72
8
 73
4
 74
0
 40
0
 40
0
 40
0
 40
0
 40
1
 40
1
 40
1
 40
1
 10
147.833798
 20
-100.303213
 30
0.0
 10
147.589939
 20
-100.059457
 30
0.0
 10
147.452904
 20
-99.728809
 30
0.0
 10
147.452842
 20
-99.384013
 30
0.0
  0
SPLINE
  5
1fc
100
AcDbEntity
  8
TopPlate_-_Cut
 62
7
100
AcDbSpline
 70
8
 71
3
 72
8
 73
4
 74
0
 40
0
 40
0
 40
0
 40
0
 40
1
 40
1
 40
1
 40
1
 10
147.452842
 20
-99.384013
 30
0.0
 10
147.452758
 20
-99.039122
 30
0.0
 10
147.589728
 20
-98.708333
 30
0.0
 10
147.833603
 20
-98.464458
 30
0.0
  0
SPLINE
  5
1fd
100
AcDbEntity
  8
TopPlate_-_Cut
 62
7
100
AcDbSpline
 70
8
 71
3
 72
8
 73
4
 74
0
 40
0
 40
0
 40
0
 40
0
 40
1
 40
1
 40
1
 40
1
 10
147.833603
 20
-98.464458
 30
0.0
 10
148.077478
 20
-98.220583
 30
0.0
 10
148.408267
 20
-98.083613
 30
0.0
 10
148.753158
 20
-98.083697
 30
0.0
  0
LINE
  5
1fe
100
AcDbEntity
  8
TopPlate_-_Cut
 62
7
100
AcDbLine
 10
148.753158
 20
-98.083697
 30
0.0
 11
148.753158
 21
-98.083697
 31
0.0
  0
SPLINE
  5
1ff
100
AcDbEntity
  8
TopPlate_-_Cut
 62
7
100
AcDbSpline
 70
8
 71
3
 72
8
 73
4
 74
0
 40
0
 40
0
 40
0
 40
0
 40
1
 40
1
 40
1
 40
1
 10
214.052325
 20
-98.832796
 30
0.0
 10
214.450291
 20
-98.832688
 30
0.0
 10
214.831989
 20
-98.990731
 30
0.0
 10
215.113394
 20
-99.272136
 30
0.0
  0
SPLINE
  5
200
100
AcDbEntity
  8
TopPlate_-_Cut
 62
7
100
AcDbSpline
 70
8
 71
3
 72
8
 73
4
 74
0
 40
0
 40
0
 40
0
 40
0
 40
1
 40
1
 40
1
 40
1
 10
215.113394
 20
-99.272136
 30
0.0
 10
215.394799
 20
-99.553541
 30
0.0
 10
215.552843
 20
-99.935239
 30
0.0
 10
215.552734
 20
-100.333206
 30
0.0
  0
SPLINE
  5
201
100
AcDbEntity
  8
TopPlate_-_Cut
 62
7
100
AcDbSpline
 70
8
 71
3
 72
8
 73
4
 74
0
 40
0
 40
0
 40
0
 40
0
 40
1
 40
1
 40
1
 40
1
 10
215.552734
 20
-100.333206
 30
0.0
 10
215.552696
 20
-100.731076
 30
0.0
 10
215.394588
 20
-101.112632
 30
0.0
 10
215.113199
 20
-101.393917
 30
0.0
  0
SPLINE
  5
202
100
AcDbEntity
  8
TopPlate_-_Cut
 62
7
100
AcDbSpline
 70
8
 71
3
 72
8
 73
4
 74
0
 40
0
 40
0
 40
0
 40
0
 40
1
 40
1
 40
1
 40
1
 10
215.113199
 20
-101.393917
 30
0.0
 10
214.831810
 20
-101.675202
 30
0.0
 10
214.450196
 20
-101.833170
 30
0.0
 10
214.052325
 20
-101.833061
 30
0.0
  0
SPLINE
  5
203
100
AcDbEntity
  8
TopPlate_-_Cut
 62
7
100
AcDbSpline
 70
8
 71
3
 72
8
 73
4
 74
0
 40
0
 40
0
 40
0
 40
0
 40
1
 40
1
 40
1
 40
1
 10
214.052325
 20
-101.833061
 30
0.0
 10
213.224010
 20
-101.832982
 30
0.0
 10
212.552549
 20
-101.161520
 30
0.0
 10
212.552469
 20
-100.333206
 30
0.0
  0
SPLINE
  5
204
100
AcDbEntity
  8
TopPlate_-_Cut
 62
7
100
AcDbSpline
 70
8
 71
3
 72
8
 73
4
 74
0
 40
0
 40
0
 40
0
 40
0
 40
1
 40
1
 40
1
 40
1
 10
212.552469
 20
-100.333206
 30
0.0
 10
212.552361
 20
-99.935335
 30
0.0
 10
212.710328
 20
-99.553721
 30
0.0
 10
212.991613
 20
-99.272332
 30
0.0
  0
SPLINE
  5
205
100
AcDbEntity
  8
TopPlate_-_Cut
 62
7
100
AcDbSpline
 70
8
 71
3
 72
8
 73
4
 74
0
 40
0
 40
0
 40
0
 40
0
 40
1
 40
1
 40
1
 40
1
 10
212.991613
 20
-99.272332
 30
0.0
 10
213.272898
 20
-98.990943
 30
0.0
 10
213.654454
 20
-98.832835
 30
0.0
 10
214.052325
 20
-98.832796
 30
0.0
  0
LINE
  5
206
100
AcDbEntity
  8
TopPlate_-_Cut
 62
7
100
AcDbLine
 10
214.052325
 20
-98.832796
 30
0.0
 11
214.052325
 21
-98.832796
 31
0.0
  0
SPLINE
  5
207
100
AcDbEntity
  8
TopPlate_-_Cut
 62
7
100
AcDbSpline
 70
8
 71
3
 72
8
 73
4
 74
0
 40
0
 40
0
 40
0
 40
0
 40
1
 40
1
 40
1
 40
1
 10
282.016618
 20
-99.992555
 30
0.0
 10
282.361413
 20
-99.992471
 30
0.0
 10
282.692119
 20
-100.129366
 30
0.0
 10
282.935978
 20
-100.373121
 30
0.0
  0
SPLINE
  5
208
100
AcDbEntity
  8
TopPlate_-_Cut
 62
7
100
AcDbSpline
 70
8
 71
3
 72
8
 73
4
 74
0
 40
0
 40
0
 40
0
 40
0
 40
1
 40
1
 40
1
 40
1
 10
282.935978
 20
-100.373121
 30
0.0
 10
283.179837
 20
-100.616877
 30
0.0
 10
283.316872
 20
-100.947525
 30
0.0
 10
283.316934
 20
-101.292321
 30
0.0
  0
SPLINE
  5
209
100
AcDbEntity
  8
TopPlate_-_Cut
 62
7
100
AcDbSpline
 70
8
 71
3
 72
8
 73
4
 74
0
 40
0
 40
0
 40
0
 40
0
 40
1
 40
1
 40
1
 40
1
 10
283.316934
 20
-101.292321
 30
0.0
 10
283.316872
 20
-101.637117
 30
0.0
 10
283.179837
 20
-101.967764
 30
0.0
 10
282.935978
 20
-102.211520
 30
0.0
  0
SPLINE
  5
20a
100
AcDbEntity
  8
TopPlate_-_Cut
 62
7
100
AcDbSpline
 70
8
 71
3
 72
8
 73
4
 74
0
 40
0
 40
0
 40
0
 40
0
 40
1
 40
1
 40
1
 40
1
 10
282.935978
 20
-102.211520
 30
0.0
 10
282.692119
 20
-102.455276
 30
0.0
 10
282.361413
 20
-102.592171
 30
0.0
 10
282.016618
 20
-102.592087
 30
0.0
  0
SPLINE
  5
20b
100
AcDbEntity
  8
TopPlate_-_Cut
 62
7
100
AcDbSpline
 70
8
 71
3
 72
8
 73
4
 74
0
 40
0
 40
0
 40
0
 40
0
 40
1
 40
1
 40
1
 40
1
 10
282.016618
 20
-102.592087
 30
0.0
 10
281.298831
 20
-102.591956
 30
0.0
 10
280.716984
 20
-102.010107
 30
0.0
 10
280.716855
 20
-101.292321
 30
0.0
  0
SPLINE
  5
20c
100
AcDbEntity
  8
TopPlate_-_Cut
 62
7
100
AcDbSpline
 70
8
 71
3
 72
8
 73
4
 74
0
 40
0
 40
0
 40
0
 40
0
 40
1
 40
1
 40
1
 40
1
 10
280.716855
 20
-101.292321
 30
0.0
 10
280.716984
 20
-100.574535
 30
0.0
 10
281.298831
 20
-99.992686
 30
0.0
 10
282.016618
 20
-99.992555
 30
0.0
  0
LINE
  5
20d
100
AcDbEntity
  8
TopPlate_-_Cut
 62
7
100
AcDbLine
 10
282.016618
 20
-99.992555
 30
0.0
 11
282.016618
 21
-99.992555
 31
0.0
  0
SPLINE
  5
20e
100
AcDbEntity
  8
TopPlate_-_Cut
 62
7
100
AcDbSpline
 70
8
 71
3
 72
8
 73
4
 74
0
 40
0
 40
0
 40
0
 40
0
 40
1
 40
1
 40
1
 40
1
 10
171.613158
 20
-108.243697
 30
0.0
 10
171.957954
 20
-108.243759
 30
0.0
 10
172.288602
 20
-108.380794
 30
0.0
 10
172.532358
 20
-108.624653
 30
0.0
  0
SPLINE
  5
20f
100
AcDbEntity
  8
TopPlate_-_Cut
 62
7
100
AcDbSpline
 70
8
 71
3
 72
8
 73
4
 74
0
 40
0
 40
0
 40
0
 40
0
 40
1
 40
1
 40
1
 40
1
 10
172.532358
 20
-108.624653
 30
0.0
 10
172.776113
 20
-108.868512
 30
0.0
 10
172.913008
 20
-109.199217
 30
0.0
 10
172.912924
 20
-109.544013
 30
0.0
  0
SPLINE
  5
210
100
AcDbEntity
  8
TopPlate_-_Cut
 62
7
100
AcDbSpline
 70
8
 71
3
 72
8
 73
4
 74
0
 40
0
 40
0
 40
0
 40
0
 40
1
 40
1
 40
1
 40
1
 10
172.912924
 20
-109.544013
 30
0.0
 10
172.912795
 20
-110.261801
 30
0.0
 10
172.330946
 20
-110.843650
 30
0.0
 10
171.613158
 20
-110.843779
 30
0.0
  0
SPLINE
  5
211
100
AcDbEntity
  8
TopPlate_-_Cut
 62
7
100
AcDbSpline
 70
8
 71
3
 72
8
 73
4
 74
0
 40
0
 40
0
 40
0
 40
0
 40
1
 40
1
 40
1
 40
1
 10
171.613158
 20
-110.843779
 30
0.0
 10
171.268363
 20
-110.843863
 30
0.0
 10
170.937657
 20
-110.706968
 30
0.0
 10
170.693798
 20
-110.463213
 30
0.0
  0
SPLINE
  5
212
100
AcDbEntity
  8
TopPlate_-_Cut
 62
7
100
AcDbSpline
 70
8
 71
3
 72
8
 73
4
 74
0
 40
0
 40
0
 40
0
 40
0
 40
1
 40
1
 40
1
 40
1
 10
170.693798
 20
-110.463213
 30
0.0
 10
170.449939
 20
-110.219457
 30
0.0
 10
170.312904
 20
-109.888809
 30
0.0
 10
170.312842
 20
-109.544013
 30
0.0
  0
SPLINE
  5
213
100
AcDbEntity
  8
TopPlate_-_Cut
 62
7
100
AcDbSpline
 70
8
 71
3
 72
8
 73
4
 74
0
 40
0
 40
0
 40
0
 40
0
 40
1
 40
1
 40
1
 40
1
 10
170.312842
 20
-109.544013
 30
0.0
 10
170.312758
 20
-109.199122
 30
0.0
 10
170.449728
 20
-108.868333
 30
0.0
 10
170.693603
 20
-108.624458
 30
0.0
  0
SPLINE
  5
214
100
AcDbEntity
  8
TopPlate_-_Cut
 62
7
100
AcDbSpline
 70
8
 71
3
 72
8
 73
4
 74
0
 40
0
 40
0
 40
0
 40
0
 40
1
 40
1
 40
1
 40
1
 10
170.693603
 20
-108.624458
 30
0.0
 10
170.937478
 20
-108.380583
 30
0.0
 10
171.268267
 20
-108.243613
 30
0.0
 10
171.613158
 20
-108.243697
 30
0.0
  0
LINE
  5
215
100
AcDbEntity
  8
TopPlate_-_Cut
 62
7
100
AcDbLine
 10
171.613158
 20
-108.243697
 30
0.0
 11
171.613158
 21
-108.243697
 31
0.0
  0
LINE
  5
216
100
AcDbEntity
  8
TopPlate_-_Cut
 62
7
100
AcDbLine
 10
46.792665
 20
-119.579991
 30
0.0
 11
61.792335
 21
-145.560970
 31
0.0
  0
LINE
  5
217
100
AcDbEntity
  8
TopPlate_-_Cut
 62
7
100
AcDbLine
 10
61.792335
 20
-145.560970
 30
0.0
 11
57.418992
 21
-148.086086
 31
0.0
  0
LINE
  5
218
100
AcDbEntity
  8
TopPlate_-_Cut
 62
7
100
AcDbLine
 10
57.418992
 20
-148.086086
 30
0.0
 11
42.418770
 21
-122.105106
 31
0.0
  0
LINE
  5
219
100
AcDbEntity
  8
TopPlate_-_Cut
 62
7
100
AcDbLine
 10
42.418770
 20
-122.105106
 30
0.0
 11
46.792665
 21
-119.579991
 31
0.0
  0
LINE
  5
21a
100
AcDbEntity
  8
TopPlate_-_Cut
 62
7
100
AcDbLine
 10
46.792665
 20
-119.579991
 30
0.0
 11
46.792665
 21
-119.579991
 31
0.0
  0
LINE
  5
21b
100
AcDbEntity
  8
TopPlate_-_Cut
 62
7
100
AcDbLine
 10
329.351132
 20
-119.579991
 30
0.0
 11
333.724476
 21
-122.105106
 31
0.0
  0
LINE
  5
21c
100
AcDbEntity
  8
TopPlate_-_Cut
 62
7
100
AcDbLine
 10
333.724476
 20
-122.105106
 30
0.0
 11
318.724788
 21
-148.086086
 31
0.0
  0
LINE
  5
21d
100
AcDbEntity
  8
TopPlate_-_Cut
 62
7
100
AcDbLine
 10
318.724788
 20
-148.086086
 30
0.0
 11
314.350908
 21
-145.560970
 31
0.0
  0
LINE
  5
21e
100
AcDbEntity
  8
TopPlate_-_Cut
 62
7
100
AcDbLine
 10
314.350908
 20
-145.560970
 30
0.0
 11
329.351132
 21
-119.579991
 31
0.0
  0
LINE
  5
21f
100
AcDbEntity
  8
TopPlate_-_Cut
 62
7
100
AcDbLine
 10
329.351132
 20
-119.579991
 30
0.0
 11
329.351132
 21
-119.579991
 31
0.0
  0
SPLINE
  5
220
100
AcDbEntity
  8
TopPlate_-_Cut
 62
7
100
AcDbSpline
 70
8
 71
3
 72
8
 73
4
 74
0
 40
0
 40
0
 40
0
 40
0
 40
1
 40
1
 40
1
 40
1
 10
58.168094
 20
-128.833242
 30
0.0
 10
58.996410
 20
-128.833320
 30
0.0
 10
59.667873
 20
-129.504782
 30
0.0
 10
59.667953
 20
-130.333098
 30
0.0
  0
SPLINE
  5
221
100
AcDbEntity
  8
TopPlate_-_Cut
 62
7
100
AcDbSpline
 70
8
 71
3
 72
8
 73
4
 74
0
 40
0
 40
0
 40
0
 40
0
 40
1
 40
1
 40
1
 40
1
 10
59.667953
 20
-130.333098
 30
0.0
 10
59.667873
 20
-131.161413
 30
0.0
 10
58.996410
 20
-131.832875
 30
0.0
 10
58.168094
 20
-131.832953
 30
0.0
  0
SPLINE
  5
222
100
AcDbEntity
  8
TopPlate_-_Cut
 62
7
100
AcDbSpline
 70
8
 71
3
 72
8
 73
4
 74
0
 40
0
 40
0
 40
0
 40
0
 40
1
 40
1
 40
1
 40
1
 10
58.168094
 20
-131.832953
 30
0.0
 10
57.770224
 20
-131.833061
 30
0.0
 10
57.388611
 20
-131.675093
 30
0.0
 10
57.107222
 20
-131.393808
 30
0.0
  0
SPLINE
  5
223
100
AcDbEntity
  8
TopPlate_-_Cut
 62
7
100
AcDbSpline
 70
8
 71
3
 72
8
 73
4
 74
0
 40
0
 40
0
 40
0
 40
0
 40
1
 40
1
 40
1
 40
1
 10
57.107222
 20
-131.393808
 30
0.0
 10
56.825834
 20
-131.112523
 30
0.0
 10
56.667726
 20
-130.730968
 30
0.0
 10
56.667688
 20
-130.333098
 30
0.0
  0
SPLINE
  5
224
100
AcDbEntity
  8
TopPlate_-_Cut
 62
7
100
AcDbSpline
 70
8
 71
3
 72
8
 73
4
 74
0
 40
0
 40
0
 40
0
 40
0
 40
1
 40
1
 40
1
 40
1
 10
56.667688
 20
-130.333098
 30
0.0
 10
56.667726
 20
-129.935227
 30
0.0
 10
56.825834
 20
-129.553672
 30
0.0
 10
57.107222
 20
-129.272387
 30
0.0
  0
SPLINE
  5
225
100
AcDbEntity
  8
TopPlate_-_Cut
 62
7
100
AcDbSpline
 70
8
 71
3
 72
8
 73
4
 74
0
 40
0
 40
0
 40
0
 40
0
 40
1
 40
1
 40
1
 40
1
 10
57.107222
 20
-129.272387
 30
0.0
 10
57.388611
 20
-128.991102
 30
0.0
 10
57.770224
 20
-128.833134
 30
0.0
 10
58.168094
 20
-128.833242
 30
0.0
  0
LINE
  5
226
100
AcDbEntity
  8
TopPlate_-_Cut
 62
7
100
AcDbLine
 10
58.168094
 20
-128.833242
 30
0.0
 11
58.168094
 21
-128.833242
 31
0.0
  0
SPLINE
  5
227
100
AcDbEntity
  8
TopPlate_-_Cut
 62
7
100
AcDbSpline
 70
8
 71
3
 72
8
 73
4
 74
0
 40
0
 40
0
 40
0
 40
0
 40
1
 40
1
 40
1
 40
1
 10
317.975686
 20
-128.833242
 30
0.0
 10
318.804006
 20
-128.833313
 30
0.0
 10
319.475476
 20
-129.504777
 30
0.0
 10
319.475556
 20
-130.333098
 30
0.0
  0
SPLINE
  5
228
100
AcDbEntity
  8
TopPlate_-_Cut
 62
7
100
AcDbSpline
 70
8
 71
3
 72
8
 73
4
 74
0
 40
0
 40
0
 40
0
 40
0
 40
1
 40
1
 40
1
 40
1
 10
319.475556
 20
-130.333098
 30
0.0
 10
319.475476
 20
-131.161418
 30
0.0
 10
318.804006
 20
-131.832882
 30
0.0
 10
317.975686
 20
-131.832953
 30
0.0
  0
SPLINE
  5
229
100
AcDbEntity
  8
TopPlate_-_Cut
 62
7
100
AcDbSpline
 70
8
 71
3
 72
8
 73
4
 74
0
 40
0
 40
0
 40
0
 40
0
 40
1
 40
1
 40
1
 40
1
 10
317.975686
 20
-131.832953
 30
0.0
 10
317.577815
 20
-131.833061
 30
0.0
 10
317.196202
 20
-131.675093
 30
0.0
 10
316.914814
 20
-131.393808
 30
0.0
  0
SPLINE
  5
22a
100
AcDbEntity
  8
TopPlate_-_Cut
 62
7
100
AcDbSpline
 70
8
 71
3
 72
8
 73
4
 74
0
 40
0
 40
0
 40
0
 40
0
 40
1
 40
1
 40
1
 40
1
 10
316.914814
 20
-131.393808
 30
0.0
 10
316.633425
 20
-131.112523
 30
0.0
 10
316.475318
 20
-130.730968
 30
0.0
 10
316.475279
 20
-130.333098
 30
0.0
  0
SPLINE
  5
22b
100
AcDbEntity
  8
TopPlate_-_Cut
 62
7
100
AcDbSpline
 70
8
 71
3
 72
8
 73
4
 74
0
 40
0
 40
0
 40
0
 40
0
 40
1
 40
1
 40
1
 40
1
 10
316.475279
 20
-130.333098
 30
0.0
 10
316.475318
 20
-129.935227
 30
0.0
 10
316.633425
 20
-129.553672
 30
0.0
 10
316.914814
 20
-129.272387
 30
0.0
  0
SPLINE
  5
22c
100
AcDbEntity
  8
TopPlate_-_Cut
 62
7
100
AcDbSpline
 70
8
 71
3
 72
8
 73
4
 74
0
 40
0
 40
0
 40
0
 40
0
 40
1
 40
1
 40
1
 40
1
 10
316.914814
 20
-129.272387
 30
0.0
 10
317.196202
 20
-128.991102
 30
0.0
 10
317.577815
 20
-128.833134
 30
0.0
 10
317.975686
 20
-128.833242
 30
0.0
  0
LINE
  5
22d
100
AcDbEntity
  8
TopPlate_-_Cut
 62
7
100
AcDbLine
 10
317.975686
 20
-128.833242
 30
0.0
 11
317.975686
 21
-128.833242
 31
0.0
  0
SPLINE
  5
22e
100
AcDbEntity
  8
TopPlate_-_Cut
 62
7
100
AcDbSpline
 70
8
 71
3
 72
8
 73
4
 74
0
 40
0
 40
0
 40
0
 40
0
 40
1
 40
1
 40
1
 40
1
 10
244.332785
 20
-141.533242
 30
0.0
 10
244.808106
 20
-141.522094
 30
0.0
 10
245.251598
 20
-141.771319
 30
0.0
 10
245.489236
 20
-142.183123
 30
0.0
  0
SPLINE
  5
22f
100
AcDbEntity
  8
TopPlate_-_Cut
 62
7
100
AcDbSpline
 70
8
 71
3
 72
8
 73
4
 74
0
 40
0
 40
0
 40
0
 40
0
 40
1
 40
1
 40
1
 40
1
 10
245.489236
 20
-142.183123
 30
0.0
 10
245.847992
 20
-142.804786
 30
0.0
 10
245.635046
 20
-143.599566
 30
0.0
 10
245.013536
 20
-143.958586
 30
0.0
  0
SPLINE
  5
230
100
AcDbEntity
  8
TopPlate_-_Cut
 62
7
100
AcDbSpline
 70
8
 71
3
 72
8
 73
4
 74
0
 40
0
 40
0
 40
0
 40
0
 40
1
 40
1
 40
1
 40
1
 10
245.013536
 20
-143.958586
 30
0.0
 10
244.714947
 20
-144.131046
 30
0.0
 10
244.360073
 20
-144.177815
 30
0.0
 10
244.026998
 20
-144.088603
 30
0.0
  0
SPLINE
  5
231
100
AcDbEntity
  8
TopPlate_-_Cut
 62
7
100
AcDbSpline
 70
8
 71
3
 72
8
 73
4
 74
0
 40
0
 40
0
 40
0
 40
0
 40
1
 40
1
 40
1
 40
1
 10
244.026998
 20
-144.088603
 30
0.0
 10
243.693922
 20
-143.999390
 30
0.0
 10
243.409935
 20
-143.781505
 30
0.0
 10
243.237520
 20
-143.482889
 30
0.0
  0
SPLINE
  5
232
100
AcDbEntity
  8
TopPlate_-_Cut
 62
7
100
AcDbSpline
 70
8
 71
3
 72
8
 73
4
 74
0
 40
0
 40
0
 40
0
 40
0
 40
1
 40
1
 40
1
 40
1
 10
243.237520
 20
-143.482889
 30
0.0
 10
243.065061
 20
-143.184299
 30
0.0
 10
243.018292
 20
-142.829425
 30
0.0
 10
243.107505
 20
-142.496350
 30
0.0
  0
SPLINE
  5
233
100
AcDbEntity
  8
TopPlate_-_Cut
 62
7
100
AcDbSpline
 70
8
 71
3
 72
8
 73
4
 74
0
 40
0
 40
0
 40
0
 40
0
 40
1
 40
1
 40
1
 40
1
 10
243.107505
 20
-142.496350
 30
0.0
 10
243.196718
 20
-142.163274
 30
0.0
 10
243.414604
 20
-141.879287
 30
0.0
 10
243.713220
 20
-141.706873
 30
0.0
  0
SPLINE
  5
234
100
AcDbEntity
  8
TopPlate_-_Cut
 62
7
100
AcDbSpline
 70
8
 71
3
 72
8
 73
4
 74
0
 40
0
 40
0
 40
0
 40
0
 40
1
 40
1
 40
1
 40
1
 10
243.713220
 20
-141.706873
 30
0.0
 10
243.901930
 20
-141.597994
 30
0.0
 10
244.114977
 20
-141.538288
 30
0.0
 10
244.332785
 20
-141.533242
 30
0.0
  0
LINE
  5
235
100
AcDbEntity
  8
TopPlate_-_Cut
 62
7
100
AcDbLine
 10
244.332785
 20
-141.533242
 30
0.0
 11
244.332785
 21
-141.533242
 31
0.0
  0
SPLINE
  5
236
100
AcDbEntity
  8
TopPlate_-_Cut
 62
7
100
AcDbSpline
 70
8
 71
3
 72
8
 73
4
 74
0
 40
0
 40
0
 40
0
 40
0
 40
1
 40
1
 40
1
 40
1
 10
235.672644
 20
-146.533314
 30
0.0
 10
236.147849
 20
-146.522055
 30
0.0
 10
236.591312
 20
-146.771054
 30
0.0
 10
236.829092
 20
-147.182645
 30
0.0
  0
SPLINE
  5
237
100
AcDbEntity
  8
TopPlate_-_Cut
 62
7
100
AcDbSpline
 70
8
 71
3
 72
8
 73
4
 74
0
 40
0
 40
0
 40
0
 40
0
 40
1
 40
1
 40
1
 40
1
 10
236.829092
 20
-147.182645
 30
0.0
 10
237.001506
 20
-147.481301
 30
0.0
 10
237.048191
 20
-147.836226
 30
0.0
 10
236.958873
 20
-148.169309
 30
0.0
  0
SPLINE
  5
238
100
AcDbEntity
  8
TopPlate_-_Cut
 62
7
100
AcDbSpline
 70
8
 71
3
 72
8
 73
4
 74
0
 40
0
 40
0
 40
0
 40
0
 40
1
 40
1
 40
1
 40
1
 10
236.958873
 20
-148.169309
 30
0.0
 10
236.869554
 20
-148.502392
 30
0.0
 10
236.651552
 20
-148.786339
 30
0.0
 10
236.352842
 20
-148.958661
 30
0.0
  0
SPLINE
  5
239
100
AcDbEntity
  8
TopPlate_-_Cut
 62
7
100
AcDbSpline
 70
8
 71
3
 72
8
 73
4
 74
0
 40
0
 40
0
 40
0
 40
0
 40
1
 40
1
 40
1
 40
1
 10
236.352842
 20
-148.958661
 30
0.0
 10
235.731180
 20
-149.317417
 30
0.0
 10
234.936401
 20
-149.104473
 30
0.0
 10
234.577379
 20
-148.482964
 30
0.0
  0
SPLINE
  5
23a
100
AcDbEntity
  8
TopPlate_-_Cut
 62
7
100
AcDbSpline
 70
8
 71
3
 72
8
 73
4
 74
0
 40
0
 40
0
 40
0
 40
0
 40
1
 40
1
 40
1
 40
1
 10
234.577379
 20
-148.482964
 30
0.0
 10
234.404919
 20
-148.184374
 30
0.0
 10
234.358150
 20
-147.829501
 30
0.0
 10
234.447363
 20
-147.496425
 30
0.0
  0
SPLINE
  5
23b
100
AcDbEntity
  8
TopPlate_-_Cut
 62
7
100
AcDbSpline
 70
8
 71
3
 72
8
 73
4
 74
0
 40
0
 40
0
 40
0
 40
0
 40
1
 40
1
 40
1
 40
1
 10
234.447363
 20
-147.496425
 30
0.0
 10
234.536575
 20
-147.163350
 30
0.0
 10
234.754460
 20
-146.879362
 30
0.0
 10
235.053076
 20
-146.706948
 30
0.0
  0
SPLINE
  5
23c
100
AcDbEntity
  8
TopPlate_-_Cut
 62
7
100
AcDbSpline
 70
8
 71
3
 72
8
 73
4
 74
0
 40
0
 40
0
 40
0
 40
0
 40
1
 40
1
 40
1
 40
1
 10
235.053076
 20
-146.706948
 30
0.0
 10
235.241786
 20
-146.598067
 30
0.0
 10
235.454834
 20
-146.538360
 30
0.0
 10
235.672644
 20
-146.533314
 30
0.0
  0
LINE
  5
23d
100
AcDbEntity
  8
TopPlate_-_Cut
 62
7
100
AcDbLine
 10
235.672644
 20
-146.533314
 30
0.0
 11
235.672644
 21
-146.533314
 31
0.0
  0
LINE
  5
23e
100
AcDbEntity
  8
TopPlate_-_Cut
 62
7
100
AcDbLine
 10
71.792482
 20
-162.881256
 30
0.0
 11
81.792631
 21
-180.202094
 31
0.0
  0
LINE
  5
23f
100
AcDbEntity
  8
TopPlate_-_Cut
 62
7
100
AcDbLine
 10
81.792631
 20
-180.202094
 30
0.0
 11
77.418737
 21
-182.727221
 31
0.0
  0
LINE
  5
240
100
AcDbEntity
  8
TopPlate_-_Cut
 62
7
100
AcDbLine
 10
77.418737
 20
-182.727221
 30
0.0
 11
67.418591
 21
-165.406374
 31
0.0
  0
LINE
  5
241
100
AcDbEntity
  8
TopPlate_-_Cut
 62
7
100
AcDbLine
 10
67.418591
 20
-165.406374
 30
0.0
 11
71.792482
 21
-162.881256
 31
0.0
  0
LINE
  5
242
100
AcDbEntity
  8
TopPlate_-_Cut
 62
7
100
AcDbLine
 10
71.792482
 20
-162.881256
 30
0.0
 11
71.792482
 21
-162.881256
 31
0.0
  0
LINE
  5
243
100
AcDbEntity
  8
TopPlate_-_Cut
 62
7
100
AcDbLine
 10
304.351323
 20
-162.881256
 30
0.0
 11
308.724639
 21
-165.406374
 31
0.0
  0
LINE
  5
244
100
AcDbEntity
  8
TopPlate_-_Cut
 62
7
100
AcDbLine
 10
308.724639
 20
-165.406374
 30
0.0
 11
298.724518
 21
-182.727221
 31
0.0
  0
LINE
  5
245
100
AcDbEntity
  8
TopPlate_-_Cut
 62
7
100
AcDbLine
 10
298.724518
 20
-182.727221
 30
0.0
 11
294.351174
 21
-180.202094
 31
0.0
  0
LINE
  5
246
100
AcDbEntity
  8
TopPlate_-_Cut
 62
7
100
AcDbLine
 10
294.351174
 20
-180.202094
 30
0.0
 11
304.351323
 21
-162.881256
 31
0.0
  0
LINE
  5
247
100
AcDbEntity
  8
TopPlate_-_Cut
 62
7
100
AcDbLine
 10
304.351323
 20
-162.881256
 30
0.0
 11
304.351323
 21
-162.881256
 31
0.0
  0
SPLINE
  5
248
100
AcDbEntity
  8
TopPlate_-_Cut
 62
7
100
AcDbSpline
 70
8
 71
3
 72
8
 73
4
 74
0
 40
0
 40
0
 40
0
 40
0
 40
1
 40
1
 40
1
 40
1
 10
103.272387
 20
-179.832242
 30
0.0
 10
103.617182
 20
-179.832304
 30
0.0
 10
103.947829
 20
-179.969338
 30
0.0
 10
104.191584
 20
-180.213196
 30
0.0
  0
SPLINE
  5
249
100
AcDbEntity
  8
TopPlate_-_Cut
 62
7
100
AcDbSpline
 70
8
 71
3
 72
8
 73
4
 74
0
 40
0
 40
0
 40
0
 40
0
 40
1
 40
1
 40
1
 40
1
 10
104.191584
 20
-180.213196
 30
0.0
 10
104.435340
 20
-180.457054
 30
0.0
 10
104.572235
 20
-180.787758
 30
0.0
 10
104.572153
 20
-181.132553
 30
0.0
  0
SPLINE
  5
24a
100
AcDbEntity
  8
TopPlate_-_Cut
 62
7
100
AcDbSpline
 70
8
 71
3
 72
8
 73
4
 74
0
 40
0
 40
0
 40
0
 40
0
 40
1
 40
1
 40
1
 40
1
 10
104.572153
 20
-181.132553
 30
0.0
 10
104.572013
 20
-181.850333
 30
0.0
 10
103.990167
 20
-182.432170
 30
0.0
 10
103.272387
 20
-182.432299
 30
0.0
  0
SPLINE
  5
24b
100
AcDbEntity
  8
TopPlate_-_Cut
 62
7
100
AcDbSpline
 70
8
 71
3
 72
8
 73
4
 74
0
 40
0
 40
0
 40
0
 40
0
 40
1
 40
1
 40
1
 40
1
 10
103.272387
 20
-182.432299
 30
0.0
 10
102.927595
 20
-182.432383
 30
0.0
 10
102.596892
 20
-182.295491
 30
0.0
 10
102.353033
 20
-182.051740
 30
0.0
  0
SPLINE
  5
24c
100
AcDbEntity
  8
TopPlate_-_Cut
 62
7
100
AcDbSpline
 70
8
 71
3
 72
8
 73
4
 74
0
 40
0
 40
0
 40
0
 40
0
 40
1
 40
1
 40
1
 40
1
 10
102.353033
 20
-182.051740
 30
0.0
 10
102.109175
 20
-181.807988
 30
0.0
 10
101.972138
 20
-181.477345
 30
0.0
 10
101.972070
 20
-181.132553
 30
0.0
  0
SPLINE
  5
24d
100
AcDbEntity
  8
TopPlate_-_Cut
 62
7
100
AcDbSpline
 70
8
 71
3
 72
8
 73
4
 74
0
 40
0
 40
0
 40
0
 40
0
 40
1
 40
1
 40
1
 40
1
 10
101.972070
 20
-181.132553
 30
0.0
 10
101.971988
 20
-180.787663
 30
0.0
 10
102.108959
 20
-180.456875
 30
0.0
 10
102.352834
 20
-180.213001
 30
0.0
  0
SPLINE
  5
24e
100
AcDbEntity
  8
TopPlate_-_Cut
 62
7
100
AcDbSpline
 70
8
 71
3
 72
8
 73
4
 74
0
 40
0
 40
0
 40
0
 40
0
 40
1
 40
1
 40
1
 40
1
 10
102.352834
 20
-180.213001
 30
0.0
 10
102.596708
 20
-179.969128
 30
0.0
 10
102.927497
 20
-179.832158
 30
0.0
 10
103.272387
 20
-179.832242
 30
0.0
  0
LINE
  5
24f
100
AcDbEntity
  8
TopPlate_-_Cut
 62
7
100
AcDbLine
 10
103.272387
 20
-179.832242
 30
0.0
 11
103.272387
 21
-179.832242
 31
0.0
  0
SPLINE
  5
250
100
AcDbEntity
  8
TopPlate_-_Cut
 62
7
100
AcDbSpline
 70
8
 71
3
 72
8
 73
4
 74
0
 40
0
 40
0
 40
0
 40
0
 40
1
 40
1
 40
1
 40
1
 10
126.132387
 20
-189.992242
 30
0.0
 10
126.477182
 20
-189.992304
 30
0.0
 10
126.807829
 20
-190.129338
 30
0.0
 10
127.051584
 20
-190.373196
 30
0.0
  0
SPLINE
  5
251
100
AcDbEntity
  8
TopPlate_-_Cut
 62
7
100
AcDbSpline
 70
8
 71
3
 72
8
 73
4
 74
0
 40
0
 40
0
 40
0
 40
0
 40
1
 40
1
 40
1
 40
1
 10
127.051584
 20
-190.373196
 30
0.0
 10
127.295340
 20
-190.617054
 30
0.0
 10
127.432235
 20
-190.947758
 30
0.0
 10
127.432153
 20
-191.292553
 30
0.0
  0
SPLINE
  5
252
100
AcDbEntity
  8
TopPlate_-_Cut
 62
7
100
AcDbSpline
 70
8
 71
3
 72
8
 73
4
 74
0
 40
0
 40
0
 40
0
 40
0
 40
1
 40
1
 40
1
 40
1
 10
127.432153
 20
-191.292553
 30
0.0
 10
127.432013
 20
-192.010333
 30
0.0
 10
126.850167
 20
-192.592170
 30
0.0
 10
126.132387
 20
-192.592299
 30
0.0
  0
SPLINE
  5
253
100
AcDbEntity
  8
TopPlate_-_Cut
 62
7
100
AcDbSpline
 70
8
 71
3
 72
8
 73
4
 74
0
 40
0
 40
0
 40
0
 40
0
 40
1
 40
1
 40
1
 40
1
 10
126.132387
 20
-192.592299
 30
0.0
 10
125.787595
 20
-192.592383
 30
0.0
 10
125.456892
 20
-192.455491
 30
0.0
 10
125.213033
 20
-192.211740
 30
0.0
  0
SPLINE
  5
254
100
AcDbEntity
  8
TopPlate_-_Cut
 62
7
100
AcDbSpline
 70
8
 71
3
 72
8
 73
4
 74
0
 40
0
 40
0
 40
0
 40
0
 40
1
 40
1
 40
1
 40
1
 10
125.213033
 20
-192.211740
 30
0.0
 10
124.969175
 20
-191.967988
 30
0.0
 10
124.832138
 20
-191.637345
 30
0.0
 10
124.832070
 20
-191.292553
 30
0.0
  0
SPLINE
  5
255
100
AcDbEntity
  8
TopPlate_-_Cut
 62
7
100
AcDbSpline
 70
8
 71
3
 72
8
 73
4
 74
0
 40
0
 40
0
 40
0
 40
0
 40
1
 40
1
 40
1
 40
1
 10
124.832070
 20
-191.292553
 30
0.0
 10
124.831988
 20
-190.947663
 30
0.0
 10
124.968959
 20
-190.616875
 30
0.0
 10
125.212834
 20
-190.373001
 30
0.0
  0
SPLINE
  5
256
100
AcDbEntity
  8
TopPlate_-_Cut
 62
7
100
AcDbSpline
 70
8
 71
3
 72
8
 73
4
 74
0
 40
0
 40
0
 40
0
 40
0
 40
1
 40
1
 40
1
 40
1
 10
125.212834
 20
-190.373001
 30
0.0
 10
125.456708
 20
-190.129128
 30
0.0
 10
125.787497
 20
-189.992158
 30
0.0
 10
126.132387
 20
-189.992242
 30
0.0
  0
LINE
  5
257
100
AcDbEntity
  8
TopPlate_-_Cut
 62
7
100
AcDbLine
 10
126.132387
 20
-189.992242
 30
0.0
 11
126.132387
 21
-189.992242
 31
0.0
  0
LINE
  5
258
100
AcDbEntity
  8
TopPlate_-_Cut
 62
7
100
AcDbLine
 10
91.792227
 20
-197.522383
 30
0.0
 11
96.792299
 21
-206.182513
 31
0.0
  0
LINE
  5
259
100
AcDbEntity
  8
TopPlate_-_Cut
 62
7
100
AcDbLine
 10
96.792299
 20
-206.182513
 30
0.0
 11
92.418958
 21
-208.707640
 31
0.0
  0
LINE
  5
25a
100
AcDbEntity
  8
TopPlate_-_Cut
 62
7
100
AcDbLine
 10
92.418958
 20
-208.707640
 30
0.0
 11
87.418884
 21
-200.047510
 31
0.0
  0
LINE
  5
25b
100
AcDbEntity
  8
TopPlate_-_Cut
 62
7
100
AcDbLine
 10
87.418884
 20
-200.047510
 30
0.0
 11
91.792227
 21
-197.522383
 31
0.0
  0
LINE
  5
25c
100
AcDbEntity
  8
TopPlate_-_Cut
 62
7
100
AcDbLine
 10
91.792227
 20
-197.522383
 30
0.0
 11
91.792227
 21
-197.522383
 31
0.0
  0
LINE
  5
25d
100
AcDbEntity
  8
TopPlate_-_Cut
 62
7
100
AcDbLine
 10
284.351024
 20
-197.522383
 30
0.0
 11
288.724904
 21
-200.047510
 31
0.0
  0
LINE
  5
25e
100
AcDbEntity
  8
TopPlate_-_Cut
 62
7
100
AcDbLine
 10
288.724904
 20
-200.047510
 30
0.0
 11
283.724830
 21
-208.707640
 31
0.0
  0
LINE
  5
25f
100
AcDbEntity
  8
TopPlate_-_Cut
 62
7
100
AcDbLine
 10
283.724830
 20
-208.707640
 30
0.0
 11
279.350941
 21
-206.182513
 31
0.0
  0
LINE
  5
260
100
AcDbEntity
  8
TopPlate_-_Cut
 62
7
100
AcDbLine
 10
279.350941
 20
-206.182513
 30
0.0
 11
284.351024
 21
-197.522383
 31
0.0
  0
LINE
  5
261
100
AcDbEntity
  8
TopPlate_-_Cut
 62
7
100
AcDbLine
 10
284.351024
 20
-197.522383
 30
0.0
 11
284.351024
 21
-197.522383
 31
0.0
  0
SPLINE
  5
262
100
AcDbEntity
  8
TopPlate_-_Cut
 62
7
100
AcDbSpline
 70
8
 71
3
 72
8
 73
4
 74
0
 40
0
 40
0
 40
0
 40
0
 40
1
 40
1
 40
1
 40
1
 10
188.071895
 20
-203.833238
 30
0.0
 10
188.900217
 20
-203.833316
 30
0.0
 10
189.571682
 20
-204.504787
 30
0.0
 10
189.571754
 20
-205.333108
 30
0.0
  0
SPLINE
  5
263
100
AcDbEntity
  8
TopPlate_-_Cut
 62
7
100
AcDbSpline
 70
8
 71
3
 72
8
 73
4
 74
0
 40
0
 40
0
 40
0
 40
0
 40
1
 40
1
 40
1
 40
1
 10
189.571754
 20
-205.333108
 30
0.0
 10
189.571667
 20
-206.161419
 30
0.0
 10
188.900206
 20
-206.832872
 30
0.0
 10
188.071895
 20
-206.832950
 30
0.0
  0
SPLINE
  5
264
100
AcDbEntity
  8
TopPlate_-_Cut
 62
7
100
AcDbSpline
 70
8
 71
3
 72
8
 73
4
 74
0
 40
0
 40
0
 40
0
 40
0
 40
1
 40
1
 40
1
 40
1
 10
188.071895
 20
-206.832950
 30
0.0
 10
187.674028
 20
-206.833058
 30
0.0
 10
187.292417
 20
-206.675092
 30
0.0
 10
187.011029
 20
-206.393810
 30
0.0
  0
SPLINE
  5
265
100
AcDbEntity
  8
TopPlate_-_Cut
 62
7
100
AcDbSpline
 70
8
 71
3
 72
8
 73
4
 74
0
 40
0
 40
0
 40
0
 40
0
 40
1
 40
1
 40
1
 40
1
 10
187.011029
 20
-206.393810
 30
0.0
 10
186.729641
 20
-206.112528
 30
0.0
 10
186.571531
 20
-205.730976
 30
0.0
 10
186.571489
 20
-205.333108
 30
0.0
  0
SPLINE
  5
266
100
AcDbEntity
  8
TopPlate_-_Cut
 62
7
100
AcDbSpline
 70
8
 71
3
 72
8
 73
4
 74
0
 40
0
 40
0
 40
0
 40
0
 40
1
 40
1
 40
1
 40
1
 10
186.571489
 20
-205.333108
 30
0.0
 10
186.571524
 20
-204.935236
 30
0.0
 10
186.729630
 20
-204.553677
 30
0.0
 10
187.011019
 20
-204.272389
 30
0.0
  0
SPLINE
  5
267
100
AcDbEntity
  8
TopPlate_-_Cut
 62
7
100
AcDbSpline
 70
8
 71
3
 72
8
 73
4
 74
0
 40
0
 40
0
 40
0
 40
0
 40
1
 40
1
 40
1
 40
1
 10
187.011019
 20
-204.272389
 30
0.0
 10
187.292407
 20
-203.991101
 30
0.0
 10
187.674023
 20
-203.833131
 30
0.0
 10
188.071895
 20
-203.833238
 30
0.0
  0
LINE
  5
268
100
AcDbEntity
  8
TopPlate_-_Cut
 62
7
100
AcDbLine
 10
188.071895
 20
-203.833238
 30
0.0
 11
188.071895
 21
-203.833238
 31
0.0
  0
LINE
  5
269
100
AcDbEntity
  8
TopPlate_-_Cut
 62
7
100
AcDbLine
 10
103.071744
 20
-209.807855
 30
0.0
 11
113.071893
 21
-209.807855
 31
0.0
  0
LINE
  5
26a
100
AcDbEntity
  8
TopPlate_-_Cut
 62
7
100
AcDbLine
 10
113.071893
 20
-209.807855
 30
0.0
 11
113.071893
 21
-214.858108
 31
0.0
  0
LINE
  5
26b
100
AcDbEntity
  8
TopPlate_-_Cut
 62
7
100
AcDbLine
 10
113.071893
 20
-214.858108
 30
0.0
 11
103.071744
 21
-214.858108
 31
0.0
  0
LINE
  5
26c
100
AcDbEntity
  8
TopPlate_-_Cut
 62
7
100
AcDbLine
 10
103.071744
 20
-214.858108
 30
0.0
 11
103.071744
 21
-209.807855
 31
0.0
  0
LINE
  5
26d
100
AcDbEntity
  8
TopPlate_-_Cut
 62
7
100
AcDbLine
 10
103.071744
 20
-209.807855
 30
0.0
 11
103.071744
 21
-209.807855
 31
0.0
  0
LINE
  5
26e
100
AcDbEntity
  8
TopPlate_-_Cut
 62
7
100
AcDbLine
 10
133.071636
 20
-209.807855
 30
0.0
 11
153.071932
 21
-209.807855
 31
0.0
  0
LINE
  5
26f
100
AcDbEntity
  8
TopPlate_-_Cut
 62
7
100
AcDbLine
 10
153.071932
 20
-209.807855
 30
0.0
 11
153.071932
 21
-214.858108
 31
0.0
  0
LINE
  5
270
100
AcDbEntity
  8
TopPlate_-_Cut
 62
7
100
AcDbLine
 10
153.071932
 20
-214.858108
 30
0.0
 11
133.071636
 21
-214.858108
 31
0.0
  0
LINE
  5
271
100
AcDbEntity
  8
TopPlate_-_Cut
 62
7
100
AcDbLine
 10
133.071636
 20
-214.858108
 30
0.0
 11
133.071636
 21
-209.807855
 31
0.0
  0
LINE
  5
272
100
AcDbEntity
  8
TopPlate_-_Cut
 62
7
100
AcDbLine
 10
133.071636
 20
-209.807855
 30
0.0
 11
133.071636
 21
-209.807855
 31
0.0
  0
LINE
  5
273
100
AcDbEntity
  8
TopPlate_-_Cut
 62
7
100
AcDbLine
 10
173.071674
 20
-209.807855
 30
0.0
 11
203.071566
 21
-209.807855
 31
0.0
  0
LINE
  5
274
100
AcDbEntity
  8
TopPlate_-_Cut
 62
7
100
AcDbLine
 10
203.071566
 20
-209.807855
 30
0.0
 11
203.071566
 21
-214.858108
 31
0.0
  0
LINE
  5
275
100
AcDbEntity
  8
TopPlate_-_Cut
 62
7
100
AcDbLine
 10
203.071566
 20
-214.858108
 30
0.0
 11
173.071674
 21
-214.858108
 31
0.0
  0
LINE
  5
276
100
AcDbEntity
  8
TopPlate_-_Cut
 62
7
100
AcDbLine
 10
173.071674
 20
-214.858108
 30
0.0
 11
173.071674
 21
-209.807855
 31
0.0
  0
LINE
  5
277
100
AcDbEntity
  8
TopPlate_-_Cut
 62
7
100
AcDbLine
 10
173.071674
 20
-209.807855
 30
0.0
 11
173.071674
 21
-209.807855
 31
0.0
  0
LINE
  5
278
100
AcDbEntity
  8
TopPlate_-_Cut
 62
7
100
AcDbLine
 10
223.071862
 20
-209.807855
 30
0.0
 11
243.071605
 21
-209.807855
 31
0.0
  0
LINE
  5
279
100
AcDbEntity
  8
TopPlate_-_Cut
 62
7
100
AcDbLine
 10
243.071605
 20
-209.807855
 30
0.0
 11
243.071605
 21
-214.858108
 31
0.0
  0
LINE
  5
27a
100
AcDbEntity
  8
TopPlate_-_Cut
 62
7
100
AcDbLine
 10
243.071605
 20
-214.858108
 30
0.0
 11
223.071862
 21
-214.858108
 31
0.0
  0
LINE
  5
27b
100
AcDbEntity
  8
TopPlate_-_Cut
 62
7
100
AcDbLine
 10
223.071862
 20
-214.858108
 30
0.0
 11
223.071862
 21
-209.807855
 31
0.0
  0
LINE
  5
27c
100
AcDbEntity
  8
TopPlate_-_Cut
 62
7
100
AcDbLine
 10
223.071862
 20
-209.807855
 30
0.0
 11
223.071862
 21
-209.807855
 31
0.0
  0
LINE
  5
27d
100
AcDbEntity
  8
TopPlate_-_Cut
 62
7
100
AcDbLine
 10
263.071901
 20
-209.807855
 30
0.0
 11
273.071497
 21
-209.807855
 31
0.0
  0
LINE
  5
27e
100
AcDbEntity
  8
TopPlate_-_Cut
 62
7
100
AcDbLine
 10
273.071497
 20
-209.807855
 30
0.0
 11
273.071497
 21
-214.858108
 31
0.0
  0
LINE
  5
27f
100
AcDbEntity
  8
TopPlate_-_Cut
 62
7
100
AcDbLine
 10
273.071497
 20
-214.858108
 30
0.0
 11
263.071901
 21
-214.858108
 31
0.0
  0
LINE
  5
280
100
AcDbEntity
  8
TopPlate_-_Cut
 62
7
100
AcDbLine
 10
263.071901
 20
-214.858108
 30
0.0
 11
263.071901
 21
-209.807855
 31
0.0
  0
LINE
  5
281
100
AcDbEntity
  8
TopPlate_-_Cut
 62
7
100
AcDbLine
 10
263.071901
 20
-209.807855
 30
0.0
 11
263.071901
 21
-209.807855
 31
0.0
  0
SPLINE
  5
282
100
AcDbEntity
  8
TopPlate_-_Cut
 62
7
100
AcDbSpline
 70
8
 71
3
 72
8
 73
4
 74
0
 40
0
 40
0
 40
0
 40
0
 40
1
 40
1
 40
1
 40
1
 10
291.995098
 20
-42.653649
 30
0.0
 10
284.992537
 20
-42.653577
 30
0.0
 10
279.315729
 20
-48.330119
 30
0.0
 10
279.315474
 20
-55.332680
 30
0.0
  0
SPLINE
  5
283
100
AcDbEntity
  8
TopPlate_-_Cut
 62
7
100
AcDbSpline
 70
8
 71
3
 72
8
 73
4
 74
0
 40
0
 40
0
 40
0
 40
0
 40
1
 40
1
 40
1
 40
1
 10
279.315474
 20
-55.332680
 30
0.0
 10
279.315440
 20
-58.695536
 30
0.0
 10
280.651313
 20
-61.920668
 30
0.0
 10
283.029212
 20
-64.298567
 30
0.0
  0
SPLINE
  5
284
100
AcDbEntity
  8
TopPlate_-_Cut
 62
7
100
AcDbSpline
 70
8
 71
3
 72
8
 73
4
 74
0
 40
0
 40
0
 40
0
 40
0
 40
1
 40
1
 40
1
 40
1
 10
283.029212
 20
-64.298567
 30
0.0
 10
285.407110
 20
-66.676465
 30
0.0
 10
288.632242
 20
-68.012339
 30
0.0
 10
291.995098
 20
-68.012304
 30
0.0
  0
SPLINE
  5
285
100
AcDbEntity
  8
TopPlate_-_Cut
 62
7
100
AcDbSpline
 70
8
 71
3
 72
8
 73
4
 74
0
 40
0
 40
0
 40
0
 40
0
 40
1
 40
1
 40
1
 40
1
 10
291.995098
 20
-68.012304
 30
0.0
 10
298.997659
 20
-68.012049
 30
0.0
 10
304.674202
 20
-62.335242
 30
0.0
 10
304.674129
 20
-55.332680
 30
0.0
  0
SPLINE
  5
286
100
AcDbEntity
  8
TopPlate_-_Cut
 62
7
100
AcDbSpline
 70
8
 71
3
 72
8
 73
4
 74
0
 40
0
 40
0
 40
0
 40
0
 40
1
 40
1
 40
1
 40
1
 10
304.674129
 20
-55.332680
 30
0.0
 10
304.673874
 20
-48.330350
 30
0.0
 10
298.997428
 20
-42.653904
 30
0.0
 10
291.995098
 20
-42.653649
 30
0.0
  0
LINE
  5
287
100
AcDbEntity
  8
TopPlate_-_Cut
 62
7
100
AcDbLine
 10
291.995098
 20
-42.653649
 30
0.0
 11
291.995098
 21
-42.653649
 31
0.0
  0
SPLINE
  5
288
100
AcDbEntity
  8
TopPlate_-_Cut
 62
7
100
AcDbSpline
 70
8
 71
3
 72
8
 73
4
 74
0
 40
0
 40
0
 40
0
 40
0
 40
1
 40
1
 40
1
 40
1
 10
291.995098
 20
-46.032583
 30
0.0
 10
292.339889
 20
-46.032650
 30
0.0
 10
292.670531
 20
-46.169687
 30
0.0
 10
292.914283
 20
-46.413544
 30
0.0
  0
SPLINE
  5
289
100
AcDbEntity
  8
TopPlate_-_Cut
 62
7
100
AcDbSpline
 70
8
 71
3
 72
8
 73
4
 74
0
 40
0
 40
0
 40
0
 40
0
 40
1
 40
1
 40
1
 40
1
 10
292.914283
 20
-46.413544
 30
0.0
 10
293.158034
 20
-46.657401
 30
0.0
 10
293.294927
 20
-46.988103
 30
0.0
 10
293.294844
 20
-47.332894
 30
0.0
  0
SPLINE
  5
28a
100
AcDbEntity
  8
TopPlate_-_Cut
 62
7
100
AcDbSpline
 70
8
 71
3
 72
8
 73
4
 74
0
 40
0
 40
0
 40
0
 40
0
 40
1
 40
1
 40
1
 40
1
 10
293.294844
 20
-47.332894
 30
0.0
 10
293.294720
 20
-48.050677
 30
0.0
 10
292.712881
 20
-48.632528
 30
0.0
 10
291.995098
 20
-48.632668
 30
0.0
  0
SPLINE
  5
28b
100
AcDbEntity
  8
TopPlate_-_Cut
 62
7
100
AcDbSpline
 70
8
 71
3
 72
8
 73
4
 74
0
 40
0
 40
0
 40
0
 40
0
 40
1
 40
1
 40
1
 40
1
 10
291.995098
 20
-48.632668
 30
0.0
 10
291.650297
 20
-48.632758
 30
0.0
 10
291.319584
 20
-48.495865
 30
0.0
 10
291.075720
 20
-48.252107
 30
0.0
  0
SPLINE
  5
28c
100
AcDbEntity
  8
TopPlate_-_Cut
 62
7
100
AcDbSpline
 70
8
 71
3
 72
8
 73
4
 74
0
 40
0
 40
0
 40
0
 40
0
 40
1
 40
1
 40
1
 40
1
 10
291.075720
 20
-48.252107
 30
0.0
 10
290.831856
 20
-48.008348
 30
0.0
 10
290.694819
 20
-47.677695
 30
0.0
 10
290.694759
 20
-47.332894
 30
0.0
  0
SPLINE
  5
28d
100
AcDbEntity
  8
TopPlate_-_Cut
 62
7
100
AcDbSpline
 70
8
 71
3
 72
8
 73
4
 74
0
 40
0
 40
0
 40
0
 40
0
 40
1
 40
1
 40
1
 40
1
 10
290.694759
 20
-47.332894
 30
0.0
 10
290.694677
 20
-46.988000
 30
0.0
 10
290.831651
 20
-46.657209
 30
0.0
 10
291.075530
 20
-46.413334
 30
0.0
  0
SPLINE
  5
28e
100
AcDbEntity
  8
TopPlate_-_Cut
 62
7
100
AcDbSpline
 70
8
 71
3
 72
8
 73
4
 74
0
 40
0
 40
0
 40
0
 40
0
 40
1
 40
1
 40
1
 40
1
 10
291.075530
 20
-46.413334
 30
0.0
 10
291.319410
 20
-46.169460
 30
0.0
 10
291.650204
 20
-46.032493
 30
0.0
 10
291.995098
 20
-46.032583
 30
0.0
  0
LINE
  5
28f
100
AcDbEntity
  8
TopPlate_-_Cut
 62
7
100
AcDbLine
 10
291.995098
 20
-46.032583
 30
0.0
 11
291.995098
 21
-46.032583
 31
0.0
  0
SPLINE
  5
290
100
AcDbEntity
  8
TopPlate_-_Cut
 62
7
100
AcDbSpline
 70
8
 71
3
 72
8
 73
4
 74
0
 40
0
 40
0
 40
0
 40
0
 40
1
 40
1
 40
1
 40
1
 10
285.066853
 20
-50.032745
 30
0.0
 10
285.411654
 20
-50.032804
 30
0.0
 10
285.742307
 20
-50.169841
 30
0.0
 10
285.986066
 20
-50.413705
 30
0.0
  0
SPLINE
  5
291
100
AcDbEntity
  8
TopPlate_-_Cut
 62
7
100
AcDbSpline
 70
8
 71
3
 72
8
 73
4
 74
0
 40
0
 40
0
 40
0
 40
0
 40
1
 40
1
 40
1
 40
1
 10
285.986066
 20
-50.413705
 30
0.0
 10
286.229824
 20
-50.657569
 30
0.0
 10
286.366717
 20
-50.988282
 30
0.0
 10
286.366627
 20
-51.333083
 30
0.0
  0
SPLINE
  5
292
100
AcDbEntity
  8
TopPlate_-_Cut
 62
7
100
AcDbSpline
 70
8
 71
3
 72
8
 73
4
 74
0
 40
0
 40
0
 40
0
 40
0
 40
1
 40
1
 40
1
 40
1
 10
286.366627
 20
-51.333083
 30
0.0
 10
286.366487
 20
-52.050866
 30
0.0
 10
285.784636
 20
-52.632705
 30
0.0
 10
285.066853
 20
-52.632830
 30
0.0
  0
SPLINE
  5
293
100
AcDbEntity
  8
TopPlate_-_Cut
 62
7
100
AcDbSpline
 70
8
 71
3
 72
8
 73
4
 74
0
 40
0
 40
0
 40
0
 40
0
 40
1
 40
1
 40
1
 40
1
 10
285.066853
 20
-52.632830
 30
0.0
 10
284.722062
 20
-52.632912
 30
0.0
 10
284.391360
 20
-52.496019
 30
0.0
 10
284.147503
 20
-52.252268
 30
0.0
  0
SPLINE
  5
294
100
AcDbEntity
  8
TopPlate_-_Cut
 62
7
100
AcDbSpline
 70
8
 71
3
 72
8
 73
4
 74
0
 40
0
 40
0
 40
0
 40
0
 40
1
 40
1
 40
1
 40
1
 10
284.147503
 20
-52.252268
 30
0.0
 10
283.903646
 20
-52.008517
 30
0.0
 10
283.766609
 20
-51.677875
 30
0.0
 10
283.766542
 20
-51.333083
 30
0.0
  0
SPLINE
  5
295
100
AcDbEntity
  8
TopPlate_-_Cut
 62
7
100
AcDbSpline
 70
8
 71
3
 72
8
 73
4
 74
0
 40
0
 40
0
 40
0
 40
0
 40
1
 40
1
 40
1
 40
1
 10
283.766542
 20
-51.333083
 30
0.0
 10
283.766452
 20
-50.988189
 30
0.0
 10
283.903419
 20
-50.657395
 30
0.0
 10
284.147293
 20
-50.413516
 30
0.0
  0
SPLINE
  5
296
100
AcDbEntity
  8
TopPlate_-_Cut
 62
7
100
AcDbSpline
 70
8
 71
3
 72
8
 73
4
 74
0
 40
0
 40
0
 40
0
 40
0
 40
1
 40
1
 40
1
 40
1
 10
284.147293
 20
-50.413516
 30
0.0
 10
284.391168
 20
-50.169636
 30
0.0
 10
284.721959
 20
-50.032662
 30
0.0
 10
285.066853
 20
-50.032745
 30
0.0
  0
LINE
  5
297
100
AcDbEntity
  8
TopPlate_-_Cut
 62
7
100
AcDbLine
 10
285.066853
 20
-50.032745
 30
0.0
 11
285.066853
 21
-50.032745
 31
0.0
  0
SPLINE
  5
298
100
AcDbEntity
  8
TopPlate_-_Cut
 62
7
100
AcDbSpline
 70
8
 71
3
 72
8
 73
4
 74
0
 40
0
 40
0
 40
0
 40
0
 40
1
 40
1
 40
1
 40
1
 10
298.923315
 20
-50.032745
 30
0.0
 10
299.268116
 20
-50.032804
 30
0.0
 10
299.598769
 20
-50.169841
 30
0.0
 10
299.842528
 20
-50.413705
 30
0.0
  0
SPLINE
  5
299
100
AcDbEntity
  8
TopPlate_-_Cut
 62
7
100
AcDbSpline
 70
8
 71
3
 72
8
 73
4
 74
0
 40
0
 40
0
 40
0
 40
0
 40
1
 40
1
 40
1
 40
1
 10
299.842528
 20
-50.413705
 30
0.0
 10
300.086286
 20
-50.657569
 30
0.0
 10
300.223179
 20
-50.988282
 30
0.0
 10
300.223089
 20
-51.333083
 30
0.0
  0
SPLINE
  5
29a
100
AcDbEntity
  8
TopPlate_-_Cut
 62
7
100
AcDbSpline
 70
8
 71
3
 72
8
 73
4
 74
0
 40
0
 40
0
 40
0
 40
0
 40
1
 40
1
 40
1
 40
1
 10
300.223089
 20
-51.333083
 30
0.0
 10
300.222949
 20
-52.050866
 30
0.0
 10
299.641098
 20
-52.632705
 30
0.0
 10
298.923315
 20
-52.632830
 30
0.0
  0
SPLINE
  5
29b
100
AcDbEntity
  8
TopPlate_-_Cut
 62
7
100
AcDbSpline
 70
8
 71
3
 72
8
 73
4
 74
0
 40
0
 40
0
 40
0
 40
0
 40
1
 40
1
 40
1
 40
1
 10
298.923315
 20
-52.632830
 30
0.0
 10
298.578524
 20
-52.632912
 30
0.0
 10
298.247822
 20
-52.496019
 30
0.0
 10
298.003965
 20
-52.252268
 30
0.0
  0
SPLINE
  5
29c
100
AcDbEntity
  8
TopPlate_-_Cut
 62
7
100
AcDbSpline
 70
8
 71
3
 72
8
 73
4
 74
0
 40
0
 40
0
 40
0
 40
0
 40
1
 40
1
 40
1
 40
1
 10
298.003965
 20
-52.252268
 30
0.0
 10
297.760108
 20
-52.008517
 30
0.0
 10
297.623071
 20
-51.677875
 30
0.0
 10
297.623004
 20
-51.333083
 30
0.0
  0
SPLINE
  5
29d
100
AcDbEntity
  8
TopPlate_-_Cut
 62
7
100
AcDbSpline
 70
8
 71
3
 72
8
 73
4
 74
0
 40
0
 40
0
 40
0
 40
0
 40
1
 40
1
 40
1
 40
1
 10
297.623004
 20
-51.333083
 30
0.0
 10
297.622914
 20
-50.988189
 30
0.0
 10
297.759881
 20
-50.657395
 30
0.0
 10
298.003755
 20
-50.413516
 30
0.0
  0
SPLINE
  5
29e
100
AcDbEntity
  8
TopPlate_-_Cut
 62
7
100
AcDbSpline
 70
8
 71
3
 72
8
 73
4
 74
0
 40
0
 40
0
 40
0
 40
0
 40
1
 40
1
 40
1
 40
1
 10
298.003755
 20
-50.413516
 30
0.0
 10
298.247630
 20
-50.169636
 30
0.0
 10
298.578421
 20
-50.032662
 30
0.0
 10
298.923315
 20
-50.032745
 30
0.0
  0
LINE
  5
29f
100
AcDbEntity
  8
TopPlate_-_Cut
 62
7
100
AcDbLine
 10
298.923315
 20
-50.032745
 30
0.0
 11
298.923315
 21
-50.032745
 31
0.0
  0
SPLINE
  5
2a0
100
AcDbEntity
  8
TopPlate_-_Cut
 62
7
100
AcDbSpline
 70
8
 71
3
 72
8
 73
4
 74
0
 40
0
 40
0
 40
0
 40
0
 40
1
 40
1
 40
1
 40
1
 10
285.066853
 20
-58.033095
 30
0.0
 10
285.784647
 20
-58.033220
 30
0.0
 10
286.366503
 20
-58.615076
 30
0.0
 10
286.366627
 20
-59.332870
 30
0.0
  0
SPLINE
  5
2a1
100
AcDbEntity
  8
TopPlate_-_Cut
 62
7
100
AcDbSpline
 70
8
 71
3
 72
8
 73
4
 74
0
 40
0
 40
0
 40
0
 40
0
 40
1
 40
1
 40
1
 40
1
 10
286.366627
 20
-59.332870
 30
0.0
 10
286.366487
 20
-60.050653
 30
0.0
 10
285.784636
 20
-60.632492
 30
0.0
 10
285.066853
 20
-60.632616
 30
0.0
  0
SPLINE
  5
2a2
100
AcDbEntity
  8
TopPlate_-_Cut
 62
7
100
AcDbSpline
 70
8
 71
3
 72
8
 73
4
 74
0
 40
0
 40
0
 40
0
 40
0
 40
1
 40
1
 40
1
 40
1
 10
285.066853
 20
-60.632616
 30
0.0
 10
284.722062
 20
-60.632699
 30
0.0
 10
284.391360
 20
-60.495806
 30
0.0
 10
284.147503
 20
-60.252054
 30
0.0
  0
SPLINE
  5
2a3
100
AcDbEntity
  8
TopPlate_-_Cut
 62
7
100
AcDbSpline
 70
8
 71
3
 72
8
 73
4
 74
0
 40
0
 40
0
 40
0
 40
0
 40
1
 40
1
 40
1
 40
1
 10
284.147503
 20
-60.252054
 30
0.0
 10
283.903646
 20
-60.008303
 30
0.0
 10
283.766609
 20
-59.677661
 30
0.0
 10
283.766542
 20
-59.332870
 30
0.0
  0
SPLINE
  5
2a4
100
AcDbEntity
  8
TopPlate_-_Cut
 62
7
100
AcDbSpline
 70
8
 71
3
 72
8
 73
4
 74
0
 40
0
 40
0
 40
0
 40
0
 40
1
 40
1
 40
1
 40
1
 10
283.766542
 20
-59.332870
 30
0.0
 10
283.766602
 20
-58.988074
 30
0.0
 10
283.903635
 20
-58.657424
 30
0.0
 10
284.147493
 20
-58.413667
 30
0.0
  0
SPLINE
  5
2a5
100
AcDbEntity
  8
TopPlate_-_Cut
 62
7
100
AcDbSpline
 70
8
 71
3
 72
8
 73
4
 74
0
 40
0
 40
0
 40
0
 40
0
 40
1
 40
1
 40
1
 40
1
 10
284.147493
 20
-58.413667
 30
0.0
 10
284.391351
 20
-58.169910
 30
0.0
 10
284.722057
 20
-58.033013
 30
0.0
 10
285.066853
 20
-58.033095
 30
0.0
  0
LINE
  5
2a6
100
AcDbEntity
  8
TopPlate_-_Cut
 62
7
100
AcDbLine
 10
285.066853
 20
-58.033095
 30
0.0
 11
285.066853
 21
-58.033095
 31
0.0
  0
SPLINE
  5
2a7
100
AcDbEntity
  8
TopPlate_-_Cut
 62
7
100
AcDbSpline
 70
8
 71
3
 72
8
 73
4
 74
0
 40
0
 40
0
 40
0
 40
0
 40
1
 40
1
 40
1
 40
1
 10
298.923315
 20
-58.033095
 30
0.0
 10
299.641109
 20
-58.033220
 30
0.0
 10
300.222965
 20
-58.615076
 30
0.0
 10
300.223089
 20
-59.332870
 30
0.0
  0
SPLINE
  5
2a8
100
AcDbEntity
  8
TopPlate_-_Cut
 62
7
100
AcDbSpline
 70
8
 71
3
 72
8
 73
4
 74
0
 40
0
 40
0
 40
0
 40
0
 40
1
 40
1
 40
1
 40
1
 10
300.223089
 20
-59.332870
 30
0.0
 10
300.222949
 20
-60.050653
 30
0.0
 10
299.641098
 20
-60.632492
 30
0.0
 10
298.923315
 20
-60.632616
 30
0.0
  0
SPLINE
  5
2a9
100
AcDbEntity
  8
TopPlate_-_Cut
 62
7
100
AcDbSpline
 70
8
 71
3
 72
8
 73
4
 74
0
 40
0
 40
0
 40
0
 40
0
 40
1
 40
1
 40
1
 40
1
 10
298.923315
 20
-60.632616
 30
0.0
 10
298.578524
 20
-60.632699
 30
0.0
 10
298.247822
 20
-60.495806
 30
0.0
 10
298.003965
 20
-60.252054
 30
0.0
  0
SPLINE
  5
2aa
100
AcDbEntity
  8
TopPlate_-_Cut
 62
7
100
AcDbSpline
 70
8
 71
3
 72
8
 73
4
 74
0
 40
0
 40
0
 40
0
 40
0
 40
1
 40
1
 40
1
 40
1
 10
298.003965
 20
-60.252054
 30
0.0
 10
297.760108
 20
-60.008303
 30
0.0
 10
297.623071
 20
-59.677661
 30
0.0
 10
297.623004
 20
-59.332870
 30
0.0
  0
SPLINE
  5
2ab
100
AcDbEntity
  8
TopPlate_-_Cut
 62
7
100
AcDbSpline
 70
8
 71
3
 72
8
 73
4
 74
0
 40
0
 40
0
 40
0
 40
0
 40
1
 40
1
 40
1
 40
1
 10
297.623004
 20
-59.332870
 30
0.0
 10
297.623064
 20
-58.988074
 30
0.0
 10
297.760097
 20
-58.657424
 30
0.0
 10
298.003955
 20
-58.413667
 30
0.0
  0
SPLINE
  5
2ac
100
AcDbEntity
  8
TopPlate_-_Cut
 62
7
100
AcDbSpline
 70
8
 71
3
 72
8
 73
4
 74
0
 40
0
 40
0
 40
0
 40
0
 40
1
 40
1
 40
1
 40
1
 10
298.003955
 20
-58.413667
 30
0.0
 10
298.247813
 20
-58.169910
 30
0.0
 10
298.578519
 20
-58.033013
 30
0.0
 10
298.923315
 20
-58.033095
 30
0.0
  0
LINE
  5
2ad
100
AcDbEntity
  8
TopPlate_-_Cut
 62
7
100
AcDbLine
 10
298.923315
 20
-58.033095
 30
0.0
 11
298.923315
 21
-58.033095
 31
0.0
  0
SPLINE
  5
2ae
100
AcDbEntity
  8
TopPlate_-_Cut
 62
7
100
AcDbSpline
 70
8
 71
3
 72
8
 73
4
 74
0
 40
0
 40
0
 40
0
 40
0
 40
1
 40
1
 40
1
 40
1
 10
291.995098
 20
-62.032721
 30
0.0
 10
292.339889
 20
-62.032788
 30
0.0
 10
292.670531
 20
-62.169824
 30
0.0
 10
292.914283
 20
-62.413681
 30
0.0
  0
SPLINE
  5
2af
100
AcDbEntity
  8
TopPlate_-_Cut
 62
7
100
AcDbSpline
 70
8
 71
3
 72
8
 73
4
 74
0
 40
0
 40
0
 40
0
 40
0
 40
1
 40
1
 40
1
 40
1
 10
292.914283
 20
-62.413681
 30
0.0
 10
293.158034
 20
-62.657538
 30
0.0
 10
293.294927
 20
-62.988240
 30
0.0
 10
293.294844
 20
-63.333031
 30
0.0
  0
SPLINE
  5
2b0
100
AcDbEntity
  8
TopPlate_-_Cut
 62
7
100
AcDbSpline
 70
8
 71
3
 72
8
 73
4
 74
0
 40
0
 40
0
 40
0
 40
0
 40
1
 40
1
 40
1
 40
1
 10
293.294844
 20
-63.333031
 30
0.0
 10
293.294720
 20
-64.050814
 30
0.0
 10
292.712881
 20
-64.632666
 30
0.0
 10
291.995098
 20
-64.632806
 30
0.0
  0
SPLINE
  5
2b1
100
AcDbEntity
  8
TopPlate_-_Cut
 62
7
100
AcDbSpline
 70
8
 71
3
 72
8
 73
4
 74
0
 40
0
 40
0
 40
0
 40
0
 40
1
 40
1
 40
1
 40
1
 10
291.995098
 20
-64.632806
 30
0.0
 10
291.650297
 20
-64.632896
 30
0.0
 10
291.319584
 20
-64.496002
 30
0.0
 10
291.075720
 20
-64.252244
 30
0.0
  0
SPLINE
  5
2b2
100
AcDbEntity
  8
TopPlate_-_Cut
 62
7
100
AcDbSpline
 70
8
 71
3
 72
8
 73
4
 74
0
 40
0
 40
0
 40
0
 40
0
 40
1
 40
1
 40
1
 40
1
 10
291.075720
 20
-64.252244
 30
0.0
 10
290.831856
 20
-64.008486
 30
0.0
 10
290.694819
 20
-63.677832
 30
0.0
 10
290.694759
 20
-63.333031
 30
0.0
  0
SPLINE
  5
2b3
100
AcDbEntity
  8
TopPlate_-_Cut
 62
7
100
AcDbSpline
 70
8
 71
3
 72
8
 73
4
 74
0
 40
0
 40
0
 40
0
 40
0
 40
1
 40
1
 40
1
 40
1
 10
290.694759
 20
-63.333031
 30
0.0
 10
290.694677
 20
-62.988137
 30
0.0
 10
290.831651
 20
-62.657346
 30
0.0
 10
291.075530
 20
-62.413472
 30
0.0
  0
SPLINE
  5
2b4
100
AcDbEntity
  8
TopPlate_-_Cut
 62
7
100
AcDbSpline
 70
8
 71
3
 72
8
 73
4
 74
0
 40
0
 40
0
 40
0
 40
0
 40
1
 40
1
 40
1
 40
1
 10
291.075530
 20
-62.413472
 30
0.0
 10
291.319410
 20
-62.169597
 30
0.0
 10
291.650204
 20
-62.032631
 30
0.0
 10
291.995098
 20
-62.032721
 30
0.0
  0
LINE
  5
2b5
100
AcDbEntity
  8
TopPlate_-_Cut
 62
7
100
AcDbLine
 10
291.995098
 20
-62.032721
 30
0.0
 11
291.995098
 21
-62.032721
 31
0.0
  0
SPLINE
  5
2b6
100
AcDbEntity
  8
TopPlate_-_Cut
 62
7
100
AcDbSpline
 70
8
 71
3
 72
8
 73
4
 74
0
 40
0
 40
0
 40
0
 40
0
 40
1
 40
1
 40
1
 40
1
 10
136.110528
 20
-132.653647
 30
0.0
 10
129.107967
 20
-132.653575
 30
0.0
 10
123.431160
 20
-138.330117
 30
0.0
 10
123.430905
 20
-145.332678
 30
0.0
  0
SPLINE
  5
2b7
100
AcDbEntity
  8
TopPlate_-_Cut
 62
7
100
AcDbSpline
 70
8
 71
3
 72
8
 73
4
 74
0
 40
0
 40
0
 40
0
 40
0
 40
1
 40
1
 40
1
 40
1
 10
123.430905
 20
-145.332678
 30
0.0
 10
123.430870
 20
-148.695534
 30
0.0
 10
124.766744
 20
-151.920666
 30
0.0
 10
127.144642
 20
-154.298564
 30
0.0
  0
SPLINE
  5
2b8
100
AcDbEntity
  8
TopPlate_-_Cut
 62
7
100
AcDbSpline
 70
8
 71
3
 72
8
 73
4
 74
0
 40
0
 40
0
 40
0
 40
0
 40
1
 40
1
 40
1
 40
1
 10
127.144642
 20
-154.298564
 30
0.0
 10
129.522540
 20
-156.676463
 30
0.0
 10
132.747672
 20
-158.012337
 30
0.0
 10
136.110528
 20
-158.012302
 30
0.0
  0
SPLINE
  5
2b9
100
AcDbEntity
  8
TopPlate_-_Cut
 62
7
100
AcDbSpline
 70
8
 71
3
 72
8
 73
4
 74
0
 40
0
 40
0
 40
0
 40
0
 40
1
 40
1
 40
1
 40
1
 10
136.110528
 20
-158.012302
 30
0.0
 10
143.113090
 20
-158.012047
 30
0.0
 10
148.789632
 20
-152.335239
 30
0.0
 10
148.789559
 20
-145.332678
 30
0.0
  0
SPLINE
  5
2ba
100
AcDbEntity
  8
TopPlate_-_Cut
 62
7
100
AcDbSpline
 70
8
 71
3
 72
8
 73
4
 74
0
 40
0
 40
0
 40
0
 40
0
 40
1
 40
1
 40
1
 40
1
 10
148.789559
 20
-145.332678
 30
0.0
 10
148.789305
 20
-138.330348
 30
0.0
 10
143.112858
 20
-132.653902
 30
0.0
 10
136.110528
 20
-132.653647
 30
0.0
  0
LINE
  5
2bb
100
AcDbEntity
  8
TopPlate_-_Cut
 62
7
100
AcDbLine
 10
136.110528
 20
-132.653647
 30
0.0
 11
136.110528
 21
-132.653647
 31
0.0
  0
SPLINE
  5
2bc
100
AcDbEntity
  8
TopPlate_-_Cut
 62
7
100
AcDbSpline
 70
8
 71
3
 72
8
 73
4
 74
0
 40
0
 40
0
 40
0
 40
0
 40
1
 40
1
 40
1
 40
1
 10
136.110528
 20
-136.032581
 30
0.0
 10
136.455320
 20
-136.032648
 30
0.0
 10
136.785962
 20
-136.169685
 30
0.0
 10
137.029713
 20
-136.413542
 30
0.0
  0
SPLINE
  5
2bd
100
AcDbEntity
  8
TopPlate_-_Cut
 62
7
100
AcDbSpline
 70
8
 71
3
 72
8
 73
4
 74
0
 40
0
 40
0
 40
0
 40
0
 40
1
 40
1
 40
1
 40
1
 10
137.029713
 20
-136.413542
 30
0.0
 10
137.273464
 20
-136.657399
 30
0.0
 10
137.410357
 20
-136.988100
 30
0.0
 10
137.410275
 20
-137.332892
 30
0.0
  0
SPLINE
  5
2be
100
AcDbEntity
  8
TopPlate_-_Cut
 62
7
100
AcDbSpline
 70
8
 71
3
 72
8
 73
4
 74
0
 40
0
 40
0
 40
0
 40
0
 40
1
 40
1
 40
1
 40
1
 10
137.410275
 20
-137.332892
 30
0.0
 10
137.410150
 20
-138.050675
 30
0.0
 10
136.828311
 20
-138.632526
 30
0.0
 10
136.110528
 20
-138.632666
 30
0.0
  0
SPLINE
  5
2bf
100
AcDbEntity
  8
TopPlate_-_Cut
 62
7
100
AcDbSpline
 70
8
 71
3
 72
8
 73
4
 74
0
 40
0
 40
0
 40
0
 40
0
 40
1
 40
1
 40
1
 40
1
 10
136.110528
 20
-138.632666
 30
0.0
 10
135.765727
 20
-138.632756
 30
0.0
 10
135.435014
 20
-138.495863
 30
0.0
 10
135.191150
 20
-138.252105
 30
0.0
  0
SPLINE
  5
2c0
100
AcDbEntity
  8
TopPlate_-_Cut
 62
7
100
AcDbSpline
 70
8
 71
3
 72
8
 73
4
 74
0
 40
0
 40
0
 40
0
 40
0
 40
1
 40
1
 40
1
 40
1
 10
135.191150
 20
-138.252105
 30
0.0
 10
134.947286
 20
-138.008346
 30
0.0
 10
134.810249
 20
-137.677693
 30
0.0
 10
134.810190
 20
-137.332892
 30
0.0
  0
SPLINE
  5
2c1
100
AcDbEntity
  8
TopPlate_-_Cut
 62
7
100
AcDbSpline
 70
8
 71
3
 72
8
 73
4
 74
0
 40
0
 40
0
 40
0
 40
0
 40
1
 40
1
 40
1
 40
1
 10
134.810190
 20
-137.332892
 30
0.0
 10
134.810107
 20
-136.987998
 30
0.0
 10
134.947081
 20
-136.657206
 30
0.0
 10
135.190961
 20
-136.413332
 30
0.0
  0
SPLINE
  5
2c2
100
AcDbEntity
  8
TopPlate_-_Cut
 62
7
100
AcDbSpline
 70
8
 71
3
 72
8
 73
4
 74
0
 40
0
 40
0
 40
0
 40
0
 40
1
 40
1
 40
1
 40
1
 10
135.190961
 20
-136.413332
 30
0.0
 10
135.434840
 20
-136.169458
 30
0.0
 10
135.765634
 20
-136.032491
 30
0.0
 10
136.110528
 20
-136.032581
 30
0.0
  0
LINE
  5
2c3
100
AcDbEntity
  8
TopPlate_-_Cut
 62
7
100
AcDbLine
 10
136.110528
 20
-136.032581
 30
0.0
 11
136.110528
 21
-136.032581
 31
0.0
  0
SPLINE
  5
2c4
100
AcDbEntity
  8
TopPlate_-_Cut
 62
7
100
AcDbSpline
 70
8
 71
3
 72
8
 73
4
 74
0
 40
0
 40
0
 40
0
 40
0
 40
1
 40
1
 40
1
 40
1
 10
129.182283
 20
-140.032742
 30
0.0
 10
129.527084
 20
-140.032802
 30
0.0
 10
129.857738
 20
-140.169839
 30
0.0
 10
130.101496
 20
-140.413703
 30
0.0
  0
SPLINE
  5
2c5
100
AcDbEntity
  8
TopPlate_-_Cut
 62
7
100
AcDbSpline
 70
8
 71
3
 72
8
 73
4
 74
0
 40
0
 40
0
 40
0
 40
0
 40
1
 40
1
 40
1
 40
1
 10
130.101496
 20
-140.413703
 30
0.0
 10
130.345254
 20
-140.657567
 30
0.0
 10
130.482148
 20
-140.988280
 30
0.0
 10
130.482058
 20
-141.333081
 30
0.0
  0
SPLINE
  5
2c6
100
AcDbEntity
  8
TopPlate_-_Cut
 62
7
100
AcDbSpline
 70
8
 71
3
 72
8
 73
4
 74
0
 40
0
 40
0
 40
0
 40
0
 40
1
 40
1
 40
1
 40
1
 10
130.482058
 20
-141.333081
 30
0.0
 10
130.481918
 20
-142.050864
 30
0.0
 10
129.900066
 20
-142.632703
 30
0.0
 10
129.182283
 20
-142.632827
 30
0.0
  0
SPLINE
  5
2c7
100
AcDbEntity
  8
TopPlate_-_Cut
 62
7
100
AcDbSpline
 70
8
 71
3
 72
8
 73
4
 74
0
 40
0
 40
0
 40
0
 40
0
 40
1
 40
1
 40
1
 40
1
 10
129.182283
 20
-142.632827
 30
0.0
 10
128.837492
 20
-142.632910
 30
0.0
 10
128.506791
 20
-142.496017
 30
0.0
 10
128.262933
 20
-142.252266
 30
0.0
  0
SPLINE
  5
2c8
100
AcDbEntity
  8
TopPlate_-_Cut
 62
7
100
AcDbSpline
 70
8
 71
3
 72
8
 73
4
 74
0
 40
0
 40
0
 40
0
 40
0
 40
1
 40
1
 40
1
 40
1
 10
128.262933
 20
-142.252266
 30
0.0
 10
128.019076
 20
-142.008515
 30
0.0
 10
127.882040
 20
-141.677873
 30
0.0
 10
127.881973
 20
-141.333081
 30
0.0
  0
SPLINE
  5
2c9
100
AcDbEntity
  8
TopPlate_-_Cut
 62
7
100
AcDbSpline
 70
8
 71
3
 72
8
 73
4
 74
0
 40
0
 40
0
 40
0
 40
0
 40
1
 40
1
 40
1
 40
1
 10
127.881973
 20
-141.333081
 30
0.0
 10
127.881883
 20
-140.988187
 30
0.0
 10
128.018850
 20
-140.657393
 30
0.0
 10
128.262724
 20
-140.413513
 30
0.0
  0
SPLINE
  5
2ca
100
AcDbEntity
  8
TopPlate_-_Cut
 62
7
100
AcDbSpline
 70
8
 71
3
 72
8
 73
4
 74
0
 40
0
 40
0
 40
0
 40
0
 40
1
 40
1
 40
1
 40
1
 10
128.262724
 20
-140.413513
 30
0.0
 10
128.506598
 20
-140.169634
 30
0.0
 10
128.837389
 20
-140.032660
 30
0.0
 10
129.182283
 20
-140.032742
 30
0.0
  0
LINE
  5
2cb
100
AcDbEntity
  8
TopPlate_-_Cut
 62
7
100
AcDbLine
 10
129.182283
 20
-140.032742
 30
0.0
 11
129.182283
 21
-140.032742
 31
0.0
  0
SPLINE
  5
2cc
100
AcDbEntity
  8
TopPlate_-_Cut
 62
7
100
AcDbSpline
 70
8
 71
3
 72
8
 73
4
 74
0
 40
0
 40
0
 40
0
 40
0
 40
1
 40
1
 40
1
 40
1
 10
143.038745
 20
-140.032742
 30
0.0
 10
143.383546
 20
-140.032802
 30
0.0
 10
143.714200
 20
-140.169839
 30
0.0
 10
143.957958
 20
-140.413703
 30
0.0
  0
SPLINE
  5
2cd
100
AcDbEntity
  8
TopPlate_-_Cut
 62
7
100
AcDbSpline
 70
8
 71
3
 72
8
 73
4
 74
0
 40
0
 40
0
 40
0
 40
0
 40
1
 40
1
 40
1
 40
1
 10
143.957958
 20
-140.413703
 30
0.0
 10
144.201716
 20
-140.657567
 30
0.0
 10
144.338610
 20
-140.988280
 30
0.0
 10
144.338520
 20
-141.333081
 30
0.0
  0
SPLINE
  5
2ce
100
AcDbEntity
  8
TopPlate_-_Cut
 62
7
100
AcDbSpline
 70
8
 71
3
 72
8
 73
4
 74
0
 40
0
 40
0
 40
0
 40
0
 40
1
 40
1
 40
1
 40
1
 10
144.338520
 20
-141.333081
 30
0.0
 10
144.338380
 20
-142.050864
 30
0.0
 10
143.756528
 20
-142.632703
 30
0.0
 10
143.038745
 20
-142.632827
 30
0.0
  0
SPLINE
  5
2cf
100
AcDbEntity
  8
TopPlate_-_Cut
 62
7
100
AcDbSpline
 70
8
 71
3
 72
8
 73
4
 74
0
 40
0
 40
0
 40
0
 40
0
 40
1
 40
1
 40
1
 40
1
 10
143.038745
 20
-142.632827
 30
0.0
 10
142.693954
 20
-142.632910
 30
0.0
 10
142.363253
 20
-142.496017
 30
0.0
 10
142.119395
 20
-142.252266
 30
0.0
  0
SPLINE
  5
2d0
100
AcDbEntity
  8
TopPlate_-_Cut
 62
7
100
AcDbSpline
 70
8
 71
3
 72
8
 73
4
 74
0
 40
0
 40
0
 40
0
 40
0
 40
1
 40
1
 40
1
 40
1
 10
142.119395
 20
-142.252266
 30
0.0
 10
141.875538
 20
-142.008515
 30
0.0
 10
141.738502
 20
-141.677873
 30
0.0
 10
141.738435
 20
-141.333081
 30
0.0
  0
SPLINE
  5
2d1
100
AcDbEntity
  8
TopPlate_-_Cut
 62
7
100
AcDbSpline
 70
8
 71
3
 72
8
 73
4
 74
0
 40
0
 40
0
 40
0
 40
0
 40
1
 40
1
 40
1
 40
1
 10
141.738435
 20
-141.333081
 30
0.0
 10
141.738345
 20
-140.988187
 30
0.0
 10
141.875312
 20
-140.657393
 30
0.0
 10
142.119186
 20
-140.413513
 30
0.0
  0
SPLINE
  5
2d2
100
AcDbEntity
  8
TopPlate_-_Cut
 62
7
100
AcDbSpline
 70
8
 71
3
 72
8
 73
4
 74
0
 40
0
 40
0
 40
0
 40
0
 40
1
 40
1
 40
1
 40
1
 10
142.119186
 20
-140.413513
 30
0.0
 10
142.363060
 20
-140.169634
 30
0.0
 10
142.693851
 20
-140.032660
 30
0.0
 10
143.038745
 20
-140.032742
 30
0.0
  0
LINE
  5
2d3
100
AcDbEntity
  8
TopPlate_-_Cut
 62
7
100
AcDbLine
 10
143.038745
 20
-140.032742
 30
0.0
 11
143.038745
 21
-140.032742
 31
0.0
  0
SPLINE
  5
2d4
100
AcDbEntity
  8
TopPlate_-_Cut
 62
7
100
AcDbSpline
 70
8
 71
3
 72
8
 73
4
 74
0
 40
0
 40
0
 40
0
 40
0
 40
1
 40
1
 40
1
 40
1
 10
129.182283
 20
-148.033093
 30
0.0
 10
129.900077
 20
-148.033218
 30
0.0
 10
130.481933
 20
-148.615074
 30
0.0
 10
130.482058
 20
-149.332868
 30
0.0
  0
SPLINE
  5
2d5
100
AcDbEntity
  8
TopPlate_-_Cut
 62
7
100
AcDbSpline
 70
8
 71
3
 72
8
 73
4
 74
0
 40
0
 40
0
 40
0
 40
0
 40
1
 40
1
 40
1
 40
1
 10
130.482058
 20
-149.332868
 30
0.0
 10
130.481918
 20
-150.050651
 30
0.0
 10
129.900066
 20
-150.632489
 30
0.0
 10
129.182283
 20
-150.632614
 30
0.0
  0
SPLINE
  5
2d6
100
AcDbEntity
  8
TopPlate_-_Cut
 62
7
100
AcDbSpline
 70
8
 71
3
 72
8
 73
4
 74
0
 40
0
 40
0
 40
0
 40
0
 40
1
 40
1
 40
1
 40
1
 10
129.182283
 20
-150.632614
 30
0.0
 10
128.837492
 20
-150.632696
 30
0.0
 10
128.506791
 20
-150.495804
 30
0.0
 10
128.262933
 20
-150.252052
 30
0.0
  0
SPLINE
  5
2d7
100
AcDbEntity
  8
TopPlate_-_Cut
 62
7
100
AcDbSpline
 70
8
 71
3
 72
8
 73
4
 74
0
 40
0
 40
0
 40
0
 40
0
 40
1
 40
1
 40
1
 40
1
 10
128.262933
 20
-150.252052
 30
0.0
 10
128.019076
 20
-150.008301
 30
0.0
 10
127.882040
 20
-149.677659
 30
0.0
 10
127.881973
 20
-149.332868
 30
0.0
  0
SPLINE
  5
2d8
100
AcDbEntity
  8
TopPlate_-_Cut
 62
7
100
AcDbSpline
 70
8
 71
3
 72
8
 73
4
 74
0
 40
0
 40
0
 40
0
 40
0
 40
1
 40
1
 40
1
 40
1
 10
127.881973
 20
-149.332868
 30
0.0
 10
127.882032
 20
-148.988071
 30
0.0
 10
128.019065
 20
-148.657422
 30
0.0
 10
128.262923
 20
-148.413665
 30
0.0
  0
SPLINE
  5
2d9
100
AcDbEntity
  8
TopPlate_-_Cut
 62
7
100
AcDbSpline
 70
8
 71
3
 72
8
 73
4
 74
0
 40
0
 40
0
 40
0
 40
0
 40
1
 40
1
 40
1
 40
1
 10
128.262923
 20
-148.413665
 30
0.0
 10
128.506781
 20
-148.169907
 30
0.0
 10
128.837487
 20
-148.033011
 30
0.0
 10
129.182283
 20
-148.033093
 30
0.0
  0
LINE
  5
2da
100
AcDbEntity
  8
TopPlate_-_Cut
 62
7
100
AcDbLine
 10
129.182283
 20
-148.033093
 30
0.0
 11
129.182283
 21
-148.033093
 31
0.0
  0
SPLINE
  5
2db
100
AcDbEntity
  8
TopPlate_-_Cut
 62
7
100
AcDbSpline
 70
8
 71
3
 72
8
 73
4
 74
0
 40
0
 40
0
 40
0
 40
0
 40
1
 40
1
 40
1
 40
1
 10
143.038745
 20
-148.033093
 30
0.0
 10
143.756539
 20
-148.033218
 30
0.0
 10
144.338395
 20
-148.615074
 30
0.0
 10
144.338520
 20
-149.332868
 30
0.0
  0
SPLINE
  5
2dc
100
AcDbEntity
  8
TopPlate_-_Cut
 62
7
100
AcDbSpline
 70
8
 71
3
 72
8
 73
4
 74
0
 40
0
 40
0
 40
0
 40
0
 40
1
 40
1
 40
1
 40
1
 10
144.338520
 20
-149.332868
 30
0.0
 10
144.338380
 20
-150.050651
 30
0.0
 10
143.756528
 20
-150.632489
 30
0.0
 10
143.038745
 20
-150.632614
 30
0.0
  0
SPLINE
  5
2dd
100
AcDbEntity
  8
TopPlate_-_Cut
 62
7
100
AcDbSpline
 70
8
 71
3
 72
8
 73
4
 74
0
 40
0
 40
0
 40
0
 40
0
 40
1
 40
1
 40
1
 40
1
 10
143.038745
 20
-150.632614
 30
0.0
 10
142.693954
 20
-150.632696
 30
0.0
 10
142.363253
 20
-150.495804
 30
0.0
 10
142.119395
 20
-150.252052
 30
0.0
  0
SPLINE
  5
2de
100
AcDbEntity
  8
TopPlate_-_Cut
 62
7
100
AcDbSpline
 70
8
 71
3
 72
8
 73
4
 74
0
 40
0
 40
0
 40
0
 40
0
 40
1
 40
1
 40
1
 40
1
 10
142.119395
 20
-150.252052
 30
0.0
 10
141.875538
 20
-150.008301
 30
0.0
 10
141.738502
 20
-149.677659
 30
0.0
 10
141.738435
 20
-149.332868
 30
0.0
  0
SPLINE
  5
2df
100
AcDbEntity
  8
TopPlate_-_Cut
 62
7
100
AcDbSpline
 70
8
 71
3
 72
8
 73
4
 74
0
 40
0
 40
0
 40
0
 40
0
 40
1
 40
1
 40
1
 40
1
 10
141.738435
 20
-149.332868
 30
0.0
 10
141.738494
 20
-148.988071
 30
0.0
 10
141.875527
 20
-148.657422
 30
0.0
 10
142.119385
 20
-148.413665
 30
0.0
  0
SPLINE
  5
2e0
100
AcDbEntity
  8
TopPlate_-_Cut
 62
7
100
AcDbSpline
 70
8
 71
3
 72
8
 73
4
 74
0
 40
0
 40
0
 40
0
 40
0
 40
1
 40
1
 40
1
 40
1
 10
142.119385
 20
-148.413665
 30
0.0
 10
142.363243
 20
-148.169907
 30
0.0
 10
142.693949
 20
-148.033011
 30
0.0
 10
143.038745
 20
-148.033093
 30
0.0
  0
LINE
  5
2e1
100
AcDbEntity
  8
TopPlate_-_Cut
 62
7
100
AcDbLine
 10
143.038745
 20
-148.033093
 30
0.0
 11
143.038745
 21
-148.033093
 31
0.0
  0
SPLINE
  5
2e2
100
AcDbEntity
  8
TopPlate_-_Cut
 62
7
100
AcDbSpline
 70
8
 71
3
 72
8
 73
4
 74
0
 40
0
 40
0
 40
0
 40
0
 40
1
 40
1
 40
1
 40
1
 10
136.110528
 20
-152.032718
 30
0.0
 10
136.455320
 20
-152.032786
 30
0.0
 10
136.785962
 20
-152.169822
 30
0.0
 10
137.029713
 20
-152.413679
 30
0.0
  0
SPLINE
  5
2e3
100
AcDbEntity
  8
TopPlate_-_Cut
 62
7
100
AcDbSpline
 70
8
 71
3
 72
8
 73
4
 74
0
 40
0
 40
0
 40
0
 40
0
 40
1
 40
1
 40
1
 40
1
 10
137.029713
 20
-152.413679
 30
0.0
 10
137.273464
 20
-152.657536
 30
0.0
 10
137.410357
 20
-152.988238
 30
0.0
 10
137.410275
 20
-153.333029
 30
0.0
  0
SPLINE
  5
2e4
100
AcDbEntity
  8
TopPlate_-_Cut
 62
7
100
AcDbSpline
 70
8
 71
3
 72
8
 73
4
 74
0
 40
0
 40
0
 40
0
 40
0
 40
1
 40
1
 40
1
 40
1
 10
137.410275
 20
-153.333029
 30
0.0
 10
137.410150
 20
-154.050812
 30
0.0
 10
136.828311
 20
-154.632663
 30
0.0
 10
136.110528
 20
-154.632803
 30
0.0
  0
SPLINE
  5
2e5
100
AcDbEntity
  8
TopPlate_-_Cut
 62
7
100
AcDbSpline
 70
8
 71
3
 72
8
 73
4
 74
0
 40
0
 40
0
 40
0
 40
0
 40
1
 40
1
 40
1
 40
1
 10
136.110528
 20
-154.632803
 30
0.0
 10
135.765727
 20
-154.632893
 30
0.0
 10
135.435014
 20
-154.496000
 30
0.0
 10
135.191150
 20
-154.252242
 30
0.0
  0
SPLINE
  5
2e6
100
AcDbEntity
  8
TopPlate_-_Cut
 62
7
100
AcDbSpline
 70
8
 71
3
 72
8
 73
4
 74
0
 40
0
 40
0
 40
0
 40
0
 40
1
 40
1
 40
1
 40
1
 10
135.191150
 20
-154.252242
 30
0.0
 10
134.947286
 20
-154.008484
 30
0.0
 10
134.810249
 20
-153.677830
 30
0.0
 10
134.810190
 20
-153.333029
 30
0.0
  0
SPLINE
  5
2e7
100
AcDbEntity
  8
TopPlate_-_Cut
 62
7
100
AcDbSpline
 70
8
 71
3
 72
8
 73
4
 74
0
 40
0
 40
0
 40
0
 40
0
 40
1
 40
1
 40
1
 40
1
 10
134.810190
 20
-153.333029
 30
0.0
 10
134.810107
 20
-152.988135
 30
0.0
 10
134.947081
 20
-152.657344
 30
0.0
 10
135.190961
 20
-152.413469
 30
0.0
  0
SPLINE
  5
2e8
100
AcDbEntity
  8
TopPlate_-_Cut
 62
7
100
AcDbSpline
 70
8
 71
3
 72
8
 73
4
 74
0
 40
0
 40
0
 40
0
 40
0
 40
1
 40
1
 40
1
 40
1
 10
135.190961
 20
-152.413469
 30
0.0
 10
135.434840
 20
-152.169595
 30
0.0
 10
135.765634
 20
-152.032628
 30
0.0
 10
136.110528
 20
-152.032718
 30
0.0
  0
LINE
  5
2e9
100
AcDbEntity
  8
TopPlate_-_Cut
 62
7
100
AcDbLine
 10
136.110528
 20
-152.032718
 30
0.0
 11
136.110528
 21
-152.032718
 31
0.0
  0
SPLINE
  5
2ea
100
AcDbEntity
  8
TopPlate_-_Cut
 62
7
100
AcDbSpline
 70
8
 71
3
 72
8
 73
4
 74
0
 40
0
 40
0
 40
0
 40
0
 40
1
 40
1
 40
1
 40
1
 10
136.110528
 20
47.346349
 30
0.0
 10
129.107967
 20
47.346421
 30
0.0
 10
123.431160
 20
41.669879
 30
0.0
 10
123.430905
 20
34.667318
 30
0.0
  0
SPLINE
  5
2eb
100
AcDbEntity
  8
TopPlate_-_Cut
 62
7
100
AcDbSpline
 70
8
 71
3
 72
8
 73
4
 74
0
 40
0
 40
0
 40
0
 40
0
 40
1
 40
1
 40
1
 40
1
 10
123.430905
 20
34.667318
 30
0.0
 10
123.430870
 20
31.304462
 30
0.0
 10
124.766744
 20
28.079330
 30
0.0
 10
127.144642
 20
25.701431
 30
0.0
  0
SPLINE
  5
2ec
100
AcDbEntity
  8
TopPlate_-_Cut
 62
7
100
AcDbSpline
 70
8
 71
3
 72
8
 73
4
 74
0
 40
0
 40
0
 40
0
 40
0
 40
1
 40
1
 40
1
 40
1
 10
127.144642
 20
25.701431
 30
0.0
 10
129.522540
 20
23.323533
 30
0.0
 10
132.747672
 20
21.987659
 30
0.0
 10
136.110528
 20
21.987694
 30
0.0
  0
SPLINE
  5
2ed
100
AcDbEntity
  8
TopPlate_-_Cut
 62
7
100
AcDbSpline
 70
8
 71
3
 72
8
 73
4
 74
0
 40
0
 40
0
 40
0
 40
0
 40
1
 40
1
 40
1
 40
1
 10
136.110528
 20
21.987694
 30
0.0
 10
143.113090
 20
21.987949
 30
0.0
 10
148.789632
 20
27.664756
 30
0.0
 10
148.789559
 20
34.667318
 30
0.0
  0
SPLINE
  5
2ee
100
AcDbEntity
  8
TopPlate_-_Cut
 62
7
100
AcDbSpline
 70
8
 71
3
 72
8
 73
4
 74
0
 40
0
 40
0
 40
0
 40
0
 40
1
 40
1
 40
1
 40
1
 10
148.789559
 20
34.667318
 30
0.0
 10
148.789305
 20
41.669648
 30
0.0
 10
143.112858
 20
47.346094
 30
0.0
 10
136.110528
 20
47.346349
 30
0.0
  0
LINE
  5
2ef
100
AcDbEntity
  8
TopPlate_-_Cut
 62
7
100
AcDbLine
 10
136.110528
 20
47.346349
 30
0.0
 11
136.110528
 21
47.346349
 31
0.0
  0
SPLINE
  5
2f0
100
AcDbEntity
  8
TopPlate_-_Cut
 62
7
100
AcDbSpline
 70
8
 71
3
 72
8
 73
4
 74
0
 40
0
 40
0
 40
0
 40
0
 40
1
 40
1
 40
1
 40
1
 10
136.110528
 20
43.967415
 30
0.0
 10
136.455320
 20
43.967348
 30
0.0
 10
136.785962
 20
43.830311
 30
0.0
 10
137.029713
 20
43.586454
 30
0.0
  0
SPLINE
  5
2f1
100
AcDbEntity
  8
TopPlate_-_Cut
 62
7
100
AcDbSpline
 70
8
 71
3
 72
8
 73
4
 74
0
 40
0
 40
0
 40
0
 40
0
 40
1
 40
1
 40
1
 40
1
 10
137.029713
 20
43.586454
 30
0.0
 10
137.273464
 20
43.342597
 30
0.0
 10
137.410357
 20
43.011896
 30
0.0
 10
137.410275
 20
42.667104
 30
0.0
  0
SPLINE
  5
2f2
100
AcDbEntity
  8
TopPlate_-_Cut
 62
7
100
AcDbSpline
 70
8
 71
3
 72
8
 73
4
 74
0
 40
0
 40
0
 40
0
 40
0
 40
1
 40
1
 40
1
 40
1
 10
137.410275
 20
42.667104
 30
0.0
 10
137.410150
 20
41.949321
 30
0.0
 10
136.828311
 20
41.367470
 30
0.0
 10
136.110528
 20
41.367330
 30
0.0
  0
SPLINE
  5
2f3
100
AcDbEntity
  8
TopPlate_-_Cut
 62
7
100
AcDbSpline
 70
8
 71
3
 72
8
 73
4
 74
0
 40
0
 40
0
 40
0
 40
0
 40
1
 40
1
 40
1
 40
1
 10
136.110528
 20
41.367330
 30
0.0
 10
135.765727
 20
41.367240
 30
0.0
 10
135.435014
 20
41.504133
 30
0.0
 10
135.191150
 20
41.747891
 30
0.0
  0
SPLINE
  5
2f4
100
AcDbEntity
  8
TopPlate_-_Cut
 62
7
100
AcDbSpline
 70
8
 71
3
 72
8
 73
4
 74
0
 40
0
 40
0
 40
0
 40
0
 40
1
 40
1
 40
1
 40
1
 10
135.191150
 20
41.747891
 30
0.0
 10
134.947286
 20
41.991650
 30
0.0
 10
134.810249
 20
42.322303
 30
0.0
 10
134.810190
 20
42.667104
 30
0.0
  0
SPLINE
  5
2f5
100
AcDbEntity
  8
TopPlate_-_Cut
 62
7
100
AcDbSpline
 70
8
 71
3
 72
8
 73
4
 74
0
 40
0
 40
0
 40
0
 40
0
 40
1
 40
1
 40
1
 40
1
 10
134.810190
 20
42.667104
 30
0.0
 10
134.810107
 20
43.011998
 30
0.0
 10
134.947081
 20
43.342790
 30
0.0
 10
135.190961
 20
43.586664
 30
0.0
  0
SPLINE
  5
2f6
100
AcDbEntity
  8
TopPlate_-_Cut
 62
7
100
AcDbSpline
 70
8
 71
3
 72
8
 73
4
 74
0
 40
0
 40
0
 40
0
 40
0
 40
1
 40
1
 40
1
 40
1
 10
135.190961
 20
43.586664
 30
0.0
 10
135.434840
 20
43.830538
 30
0.0
 10
135.765634
 20
43.967505
 30
0.0
 10
136.110528
 20
43.967415
 30
0.0
  0
LINE
  5
2f7
100
AcDbEntity
  8
TopPlate_-_Cut
 62
7
100
AcDbLine
 10
136.110528
 20
43.967415
 30
0.0
 11
136.110528
 21
43.967415
 31
0.0
  0
SPLINE
  5
2f8
100
AcDbEntity
  8
TopPlate_-_Cut
 62
7
100
AcDbSpline
 70
8
 71
3
 72
8
 73
4
 74
0
 40
0
 40
0
 40
0
 40
0
 40
1
 40
1
 40
1
 40
1
 10
129.182283
 20
39.967254
 30
0.0
 10
129.527084
 20
39.967194
 30
0.0
 10
129.857738
 20
39.830157
 30
0.0
 10
130.101496
 20
39.586293
 30
0.0
  0
SPLINE
  5
2f9
100
AcDbEntity
  8
TopPlate_-_Cut
 62
7
100
AcDbSpline
 70
8
 71
3
 72
8
 73
4
 74
0
 40
0
 40
0
 40
0
 40
0
 40
1
 40
1
 40
1
 40
1
 10
130.101496
 20
39.586293
 30
0.0
 10
130.345254
 20
39.342429
 30
0.0
 10
130.482148
 20
39.011716
 30
0.0
 10
130.482058
 20
38.666915
 30
0.0
  0
SPLINE
  5
2fa
100
AcDbEntity
  8
TopPlate_-_Cut
 62
7
100
AcDbSpline
 70
8
 71
3
 72
8
 73
4
 74
0
 40
0
 40
0
 40
0
 40
0
 40
1
 40
1
 40
1
 40
1
 10
130.482058
 20
38.666915
 30
0.0
 10
130.481918
 20
37.949132
 30
0.0
 10
129.900066
 20
37.367293
 30
0.0
 10
129.182283
 20
37.367168
 30
0.0
  0
SPLINE
  5
2fb
100
AcDbEntity
  8
TopPlate_-_Cut
 62
7
100
AcDbSpline
 70
8
 71
3
 72
8
 73
4
 74
0
 40
0
 40
0
 40
0
 40
0
 40
1
 40
1
 40
1
 40
1
 10
129.182283
 20
37.367168
 30
0.0
 10
128.837492
 20
37.367086
 30
0.0
 10
128.506791
 20
37.503979
 30
0.0
 10
128.262933
 20
37.747730
 30
0.0
  0
SPLINE
  5
2fc
100
AcDbEntity
  8
TopPlate_-_Cut
 62
7
100
AcDbSpline
 70
8
 71
3
 72
8
 73
4
 74
0
 40
0
 40
0
 40
0
 40
0
 40
1
 40
1
 40
1
 40
1
 10
128.262933
 20
37.747730
 30
0.0
 10
128.019076
 20
37.991481
 30
0.0
 10
127.882040
 20
38.322123
 30
0.0
 10
127.881973
 20
38.666915
 30
0.0
  0
SPLINE
  5
2fd
100
AcDbEntity
  8
TopPlate_-_Cut
 62
7
100
AcDbSpline
 70
8
 71
3
 72
8
 73
4
 74
0
 40
0
 40
0
 40
0
 40
0
 40
1
 40
1
 40
1
 40
1
 10
127.881973
 20
38.666915
 30
0.0
 10
127.881883
 20
39.011809
 30
0.0
 10
128.018850
 20
39.342603
 30
0.0
 10
128.262724
 20
39.586482
 30
0.0
  0
SPLINE
  5
2fe
100
AcDbEntity
  8
TopPlate_-_Cut
 62
7
100
AcDbSpline
 70
8
 71
3
 72
8
 73
4
 74
0
 40
0
 40
0
 40
0
 40
0
 40
1
 40
1
 40
1
 40
1
 10
128.262724
 20
39.586482
 30
0.0
 10
128.506598
 20
39.830362
 30
0.0
 10
128.837389
 20
39.967336
 30
0.0
 10
129.182283
 20
39.967254
 30
0.0
  0
LINE
  5
2ff
100
AcDbEntity
  8
TopPlate_-_Cut
 62
7
100
AcDbLine
 10
129.182283
 20
39.967254
 30
0.0
 11
129.182283
 21
39.967254
 31
0.0
  0
SPLINE
  5
300
100
AcDbEntity
  8
TopPlate_-_Cut
 62
7
100
AcDbSpline
 70
8
 71
3
 72
8
 73
4
 74
0
 40
0
 40
0
 40
0
 40
0
 40
1
 40
1
 40
1
 40
1
 10
143.038745
 20
39.967254
 30
0.0
 10
143.383546
 20
39.967194
 30
0.0
 10
143.714200
 20
39.830157
 30
0.0
 10
143.957958
 20
39.586293
 30
0.0
  0
SPLINE
  5
301
100
AcDbEntity
  8
TopPlate_-_Cut
 62
7
100
AcDbSpline
 70
8
 71
3
 72
8
 73
4
 74
0
 40
0
 40
0
 40
0
 40
0
 40
1
 40
1
 40
1
 40
1
 10
143.957958
 20
39.586293
 30
0.0
 10
144.201716
 20
39.342429
 30
0.0
 10
144.338610
 20
39.011716
 30
0.0
 10
144.338520
 20
38.666915
 30
0.0
  0
SPLINE
  5
302
100
AcDbEntity
  8
TopPlate_-_Cut
 62
7
100
AcDbSpline
 70
8
 71
3
 72
8
 73
4
 74
0
 40
0
 40
0
 40
0
 40
0
 40
1
 40
1
 40
1
 40
1
 10
144.338520
 20
38.666915
 30
0.0
 10
144.338380
 20
37.949132
 30
0.0
 10
143.756528
 20
37.367293
 30
0.0
 10
143.038745
 20
37.367168
 30
0.0
  0
SPLINE
  5
303
100
AcDbEntity
  8
TopPlate_-_Cut
 62
7
100
AcDbSpline
 70
8
 71
3
 72
8
 73
4
 74
0
 40
0
 40
0
 40
0
 40
0
 40
1
 40
1
 40
1
 40
1
 10
143.038745
 20
37.367168
 30
0.0
 10
142.693954
 20
37.367086
 30
0.0
 10
142.363253
 20
37.503979
 30
0.0
 10
142.119395
 20
37.747730
 30
0.0
  0
SPLINE
  5
304
100
AcDbEntity
  8
TopPlate_-_Cut
 62
7
100
AcDbSpline
 70
8
 71
3
 72
8
 73
4
 74
0
 40
0
 40
0
 40
0
 40
0
 40
1
 40
1
 40
1
 40
1
 10
142.119395
 20
37.747730
 30
0.0
 10
141.875538
 20
37.991481
 30
0.0
 10
141.738502
 20
38.322123
 30
0.0
 10
141.738435
 20
38.666915
 30
0.0
  0
SPLINE
  5
305
100
AcDbEntity
  8
TopPlate_-_Cut
 62
7
100
AcDbSpline
 70
8
 71
3
 72
8
 73
4
 74
0
 40
0
 40
0
 40
0
 40
0
 40
1
 40
1
 40
1
 40
1
 10
141.738435
 20
38.666915
 30
0.0
 10
141.738345
 20
39.011809
 30
0.0
 10
141.875312
 20
39.342603
 30
0.0
 10
142.119186
 20
39.586482
 30
0.0
  0
SPLINE
  5
306
100
AcDbEntity
  8
TopPlate_-_Cut
 62
7
100
AcDbSpline
 70
8
 71
3
 72
8
 73
4
 74
0
 40
0
 40
0
 40
0
 40
0
 40
1
 40
1
 40
1
 40
1
 10
142.119186
 20
39.586482
 30
0.0
 10
142.363060
 20
39.830362
 30
0.0
 10
142.693851
 20
39.967336
 30
0.0
 10
143.038745
 20
39.967254
 30
0.0
  0
LINE
  5
307
100
AcDbEntity
  8
TopPlate_-_Cut
 62
7
100
AcDbLine
 10
143.038745
 20
39.967254
 30
0.0
 11
143.038745
 21
39.967254
 31
0.0
  0
SPLINE
  5
308
100
AcDbEntity
  8
TopPlate_-_Cut
 62
7
100
AcDbSpline
 70
8
 71
3
 72
8
 73
4
 74
0
 40
0
 40
0
 40
0
 40
0
 40
1
 40
1
 40
1
 40
1
 10
129.182283
 20
31.966903
 30
0.0
 10
129.900077
 20
31.966778
 30
0.0
 10
130.481933
 20
31.384922
 30
0.0
 10
130.482058
 20
30.667128
 30
0.0
  0
SPLINE
  5
309
100
AcDbEntity
  8
TopPlate_-_Cut
 62
7
100
AcDbSpline
 70
8
 71
3
 72
8
 73
4
 74
0
 40
0
 40
0
 40
0
 40
0
 40
1
 40
1
 40
1
 40
1
 10
130.482058
 20
30.667128
 30
0.0
 10
130.481918
 20
29.949345
 30
0.0
 10
129.900066
 20
29.367506
 30
0.0
 10
129.182283
 20
29.367382
 30
0.0
  0
SPLINE
  5
30a
100
AcDbEntity
  8
TopPlate_-_Cut
 62
7
100
AcDbSpline
 70
8
 71
3
 72
8
 73
4
 74
0
 40
0
 40
0
 40
0
 40
0
 40
1
 40
1
 40
1
 40
1
 10
129.182283
 20
29.367382
 30
0.0
 10
128.837492
 20
29.367300
 30
0.0
 10
128.506791
 20
29.504192
 30
0.0
 10
128.262933
 20
29.747944
 30
0.0
  0
SPLINE
  5
30b
100
AcDbEntity
  8
TopPlate_-_Cut
 62
7
100
AcDbSpline
 70
8
 71
3
 72
8
 73
4
 74
0
 40
0
 40
0
 40
0
 40
0
 40
1
 40
1
 40
1
 40
1
 10
128.262933
 20
29.747944
 30
0.0
 10
128.019076
 20
29.991695
 30
0.0
 10
127.882040
 20
30.322337
 30
0.0
 10
127.881973
 20
30.667128
 30
0.0
  0
SPLINE
  5
30c
100
AcDbEntity
  8
TopPlate_-_Cut
 62
7
100
AcDbSpline
 70
8
 71
3
 72
8
 73
4
 74
0
 40
0
 40
0
 40
0
 40
0
 40
1
 40
1
 40
1
 40
1
 10
127.881973
 20
30.667128
 30
0.0
 10
127.882032
 20
31.011924
 30
0.0
 10
128.019065
 20
31.342574
 30
0.0
 10
128.262923
 20
31.586331
 30
0.0
  0
SPLINE
  5
30d
100
AcDbEntity
  8
TopPlate_-_Cut
 62
7
100
AcDbSpline
 70
8
 71
3
 72
8
 73
4
 74
0
 40
0
 40
0
 40
0
 40
0
 40
1
 40
1
 40
1
 40
1
 10
128.262923
 20
31.586331
 30
0.0
 10
128.506781
 20
31.830089
 30
0.0
 10
128.837487
 20
31.966985
 30
0.0
 10
129.182283
 20
31.966903
 30
0.0
  0
LINE
  5
30e
100
AcDbEntity
  8
TopPlate_-_Cut
 62
7
100
AcDbLine
 10
129.182283
 20
31.966903
 30
0.0
 11
129.182283
 21
31.966903
 31
0.0
  0
SPLINE
  5
30f
100
AcDbEntity
  8
TopPlate_-_Cut
 62
7
100
AcDbSpline
 70
8
 71
3
 72
8
 73
4
 74
0
 40
0
 40
0
 40
0
 40
0
 40
1
 40
1
 40
1
 40
1
 10
143.038745
 20
31.966903
 30
0.0
 10
143.756539
 20
31.966778
 30
0.0
 10
144.338395
 20
31.384922
 30
0.0
 10
144.338520
 20
30.667128
 30
0.0
  0
SPLINE
  5
310
100
AcDbEntity
  8
TopPlate_-_Cut
 62
7
100
AcDbSpline
 70
8
 71
3
 72
8
 73
4
 74
0
 40
0
 40
0
 40
0
 40
0
 40
1
 40
1
 40
1
 40
1
 10
144.338520
 20
30.667128
 30
0.0
 10
144.338380
 20
29.949345
 30
0.0
 10
143.756528
 20
29.367506
 30
0.0
 10
143.038745
 20
29.367382
 30
0.0
  0
SPLINE
  5
311
100
AcDbEntity
  8
TopPlate_-_Cut
 62
7
100
AcDbSpline
 70
8
 71
3
 72
8
 73
4
 74
0
 40
0
 40
0
 40
0
 40
0
 40
1
 40
1
 40
1
 40
1
 10
143.038745
 20
29.367382
 30
0.0
 10
142.693954
 20
29.367300
 30
0.0
 10
142.363253
 20
29.504192
 30
0.0
 10
142.119395
 20
29.747944
 30
0.0
  0
SPLINE
  5
312
100
AcDbEntity
  8
TopPlate_-_Cut
 62
7
100
AcDbSpline
 70
8
 71
3
 72
8
 73
4
 74
0
 40
0
 40
0
 40
0
 40
0
 40
1
 40
1
 40
1
 40
1
 10
142.119395
 20
29.747944
 30
0.0
 10
141.875538
 20
29.991695
 30
0.0
 10
141.738502
 20
30.322337
 30
0.0
 10
141.738435
 20
30.667128
 30
0.0
  0
SPLINE
  5
313
100
AcDbEntity
  8
TopPlate_-_Cut
 62
7
100
AcDbSpline
 70
8
 71
3
 72
8
 73
4
 74
0
 40
0
 40
0
 40
0
 40
0
 40
1
 40
1
 40
1
 40
1
 10
141.738435
 20
30.667128
 30
0.0
 10
141.738494
 20
31.011924
 30
0.0
 10
141.875527
 20
31.342574
 30
0.0
 10
142.119385
 20
31.586331
 30
0.0
  0
SPLINE
  5
314
100
AcDbEntity
  8
TopPlate_-_Cut
 62
7
100
AcDbSpline
 70
8
 71
3
 72
8
 73
4
 74
0
 40
0
 40
0
 40
0
 40
0
 40
1
 40
1
 40
1
 40
1
 10
142.119385
 20
31.586331
 30
0.0
 10
142.363243
 20
31.830089
 30
0.0
 10
142.693949
 20
31.966985
 30
0.0
 10
143.038745
 20
31.966903
 30
0.0
  0
LINE
  5
315
100
AcDbEntity
  8
TopPlate_-_Cut
 62
7
100
AcDbLine
 10
143.038745
 20
31.966903
 30
0.0
 11
143.038745
 21
31.966903
 31
0.0
  0
SPLINE
  5
316
100
AcDbEntity
  8
TopPlate_-_Cut
 62
7
100
AcDbSpline
 70
8
 71
3
 72
8
 73
4
 74
0
 40
0
 40
0
 40
0
 40
0
 40
1
 40
1
 40
1
 40
1
 10
136.110528
 20
27.967278
 30
0.0
 10
136.455320
 20
27.967210
 30
0.0
 10
136.785962
 20
27.830174
 30
0.0
 10
137.029713
 20
27.586317
 30
0.0
  0
SPLINE
  5
317
100
AcDbEntity
  8
TopPlate_-_Cut
 62
7
100
AcDbSpline
 70
8
 71
3
 72
8
 73
4
 74
0
 40
0
 40
0
 40
0
 40
0
 40
1
 40
1
 40
1
 40
1
 10
137.029713
 20
27.586317
 30
0.0
 10
137.273464
 20
27.342460
 30
0.0
 10
137.410357
 20
27.011758
 30
0.0
 10
137.410275
 20
26.666967
 30
0.0
  0
SPLINE
  5
318
100
AcDbEntity
  8
TopPlate_-_Cut
 62
7
100
AcDbSpline
 70
8
 71
3
 72
8
 73
4
 74
0
 40
0
 40
0
 40
0
 40
0
 40
1
 40
1
 40
1
 40
1
 10
137.410275
 20
26.666967
 30
0.0
 10
137.410150
 20
25.949184
 30
0.0
 10
136.828311
 20
25.367333
 30
0.0
 10
136.110528
 20
25.367192
 30
0.0
  0
SPLINE
  5
319
100
AcDbEntity
  8
TopPlate_-_Cut
 62
7
100
AcDbSpline
 70
8
 71
3
 72
8
 73
4
 74
0
 40
0
 40
0
 40
0
 40
0
 40
1
 40
1
 40
1
 40
1
 10
136.110528
 20
25.367192
 30
0.0
 10
135.765727
 20
25.367103
 30
0.0
 10
135.435014
 20
25.503996
 30
0.0
 10
135.191150
 20
25.747754
 30
0.0
  0
SPLINE
  5
31a
100
AcDbEntity
  8
TopPlate_-_Cut
 62
7
100
AcDbSpline
 70
8
 71
3
 72
8
 73
4
 74
0
 40
0
 40
0
 40
0
 40
0
 40
1
 40
1
 40
1
 40
1
 10
135.191150
 20
25.747754
 30
0.0
 10
134.947286
 20
25.991512
 30
0.0
 10
134.810249
 20
26.322166
 30
0.0
 10
134.810190
 20
26.666967
 30
0.0
  0
SPLINE
  5
31b
100
AcDbEntity
  8
TopPlate_-_Cut
 62
7
100
AcDbSpline
 70
8
 71
3
 72
8
 73
4
 74
0
 40
0
 40
0
 40
0
 40
0
 40
1
 40
1
 40
1
 40
1
 10
134.810190
 20
26.666967
 30
0.0
 10
134.810107
 20
27.011861
 30
0.0
 10
134.947081
 20
27.342652
 30
0.0
 10
135.190961
 20
27.586526
 30
0.0
  0
SPLINE
  5
31c
100
AcDbEntity
  8
TopPlate_-_Cut
 62
7
100
AcDbSpline
 70
8
 71
3
 72
8
 73
4
 74
0
 40
0
 40
0
 40
0
 40
0
 40
1
 40
1
 40
1
 40
1
 10
135.190961
 20
27.586526
 30
0.0
 10
135.434840
 20
27.830401
 30
0.0
 10
135.765634
 20
27.967368
 30
0.0
 10
136.110528
 20
27.967278
 30
0.0
  0
LINE
  5
31d
100
AcDbEntity
  8
TopPlate_-_Cut
 62
7
100
AcDbLine
 10
136.110528
 20
27.967278
 30
0.0
 11
136.110528
 21
27.967278
 31
0.0
  0
SPLINE
  5
31e
100
AcDbEntity
  8
TopPlate_-_Etch
 62
7
100
AcDbSpline
 70
8
 71
3
 72
8
 73
4
 74
0
 40
0
 40
0
 40
0
 40
0
 40
1
 40
1
 40
1
 40
1
 10
169.484918
 20
97.221799
 30
0.0
 10
175.541011
 20
93.985073
 30
0.0
 10
181.130284
 20
89.873471
 30
0.0
 10
186.009249
 20
85.041044
 30
0.0
  0
SPLINE
  5
31f
100
AcDbEntity
  8
TopPlate_-_Etch
 62
7
100
AcDbSpline
 70
8
 71
3
 72
8
 73
4
 74
0
 40
0
 40
0
 40
0
 40
0
 40
1
 40
1
 40
1
 40
1
 10
186.009249
 20
85.041044
 30
0.0
 10
192.611660
 20
78.501607
 30
0.0
 10
197.910992
 20
70.651983
 30
0.0
 10
201.507770
 20
62.083479
 30
0.0
  0
SPLINE
  5
320
100
AcDbEntity
  8
TopPlate_-_Etch
 62
7
100
AcDbSpline
 70
8
 71
3
 72
8
 73
4
 74
0
 40
0
 40
0
 40
0
 40
0
 40
1
 40
1
 40
1
 40
1
 10
201.507770
 20
62.083479
 30
0.0
 10
205.857469
 20
68.202497
 30
0.0
 10
211.686304
 20
73.261830
 30
0.0
 10
218.356214
 20
76.707772
 30
0.0
  0
SPLINE
  5
321
100
AcDbEntity
  8
TopPlate_-_Etch
 62
7
100
AcDbSpline
 70
8
 71
3
 72
8
 73
4
 74
0
 40
0
 40
0
 40
0
 40
0
 40
1
 40
1
 40
1
 40
1
 10
218.356214
 20
76.707772
 30
0.0
 10
225.026130
 20
80.153717
 30
0.0
 10
232.525830
 20
81.980437
 30
0.0
 10
240.033308
 20
81.987311
 30
0.0
  0
SPLINE
  5
322
100
AcDbEntity
  8
TopPlate_-_Etch
 62
7
100
AcDbSpline
 70
8
 71
3
 72
8
 73
4
 74
0
 40
0
 40
0
 40
0
 40
0
 40
1
 40
1
 40
1
 40
1
 10
240.033308
 20
81.987311
 30
0.0
 10
246.227493
 20
81.987266
 30
0.0
 10
252.419160
 20
80.755553
 30
0.0
 10
258.141831
 20
78.385120
 30
0.0
  0
SPLINE
  5
323
100
AcDbEntity
  8
TopPlate_-_Etch
 62
7
100
AcDbSpline
 70
8
 71
3
 72
8
 73
4
 74
0
 40
0
 40
0
 40
0
 40
0
 40
1
 40
1
 40
1
 40
1
 10
258.141831
 20
78.385120
 30
0.0
 10
263.864502
 20
76.014688
 30
0.0
 10
269.113782
 20
72.507504
 30
0.0
 10
273.493730
 20
68.127553
 30
0.0
  0
SPLINE
  5
324
100
AcDbEntity
  8
TopPlate_-_Etch
 62
7
100
AcDbSpline
 70
8
 71
3
 72
8
 73
4
 74
0
 40
0
 40
0
 40
0
 40
0
 40
1
 40
1
 40
1
 40
1
 10
273.493730
 20
68.127553
 30
0.0
 10
277.873680
 20
63.747605
 30
0.0
 10
281.380859
 20
58.498328
 30
0.0
 10
283.751302
 20
52.775658
 30
0.0
  0
SPLINE
  5
325
100
AcDbEntity
  8
TopPlate_-_Etch
 62
7
100
AcDbSpline
 70
8
 71
3
 72
8
 73
4
 74
0
 40
0
 40
0
 40
0
 40
0
 40
1
 40
1
 40
1
 40
1
 10
283.751302
 20
52.775658
 30
0.0
 10
286.121715
 20
47.052987
 30
0.0
 10
287.353417
 20
40.861319
 30
0.0
 10
287.353474
 20
34.667134
 30
0.0
  0
SPLINE
  5
326
100
AcDbEntity
  8
TopPlate_-_Etch
 62
7
100
AcDbSpline
 70
8
 71
3
 72
8
 73
4
 74
0
 40
0
 40
0
 40
0
 40
0
 40
1
 40
1
 40
1
 40
1
 10
287.353474
 20
34.667134
 30
0.0
 10
287.336823
 20
27.898483
 30
0.0
 10
285.845786
 20
21.137279
 30
0.0
 10
283.014307
 20
14.989300
 30
0.0
  0
SPLINE
  5
327
100
AcDbEntity
  8
TopPlate_-_Etch
 62
7
100
AcDbSpline
 70
8
 71
3
 72
8
 73
4
 74
0
 40
0
 40
0
 40
0
 40
0
 40
1
 40
1
 40
1
 40
1
 10
283.014307
 20
14.989300
 30
0.0
 10
285.989832
 20
15.398573
 30
0.0
 10
288.991350
 20
15.618731
 30
0.0
 10
291.994731
 20
15.648001
 30
0.0
  0
SPLINE
  5
328
100
AcDbEntity
  8
TopPlate_-_Etch
 62
7
100
AcDbSpline
 70
8
 71
3
 72
8
 73
4
 74
0
 40
0
 40
0
 40
0
 40
0
 40
1
 40
1
 40
1
 40
1
 10
291.994731
 20
15.648001
 30
0.0
 10
299.783359
 20
15.641256
 30
0.0
 10
307.569136
 20
14.341303
 30
0.0
 10
314.937394
 20
11.817054
 30
0.0
  0
SPLINE
  5
329
100
AcDbEntity
  8
TopPlate_-_Etch
 62
7
100
AcDbSpline
 70
8
 71
3
 72
8
 73
4
 74
0
 40
0
 40
0
 40
0
 40
0
 40
1
 40
1
 40
1
 40
1
 10
314.937394
 20
11.817054
 30
0.0
 10
320.008617
 20
10.079731
 30
0.0
 10
324.880732
 20
7.762760
 30
0.0
 10
329.432694
 20
4.931825
 30
0.0
  0
LINE
  5
32a
100
AcDbEntity
  8
TopPlate_-_Etch
 62
7
100
AcDbLine
 10
329.432694
 20
4.931825
 30
0.0
 11
282.021029
 21
87.051326
 31
0.0
  0
SPLINE
  5
32b
100
AcDbEntity
  8
TopPlate_-_Etch
 62
7
100
AcDbSpline
 70
8
 71
3
 72
8
 73
4
 74
0
 40
0
 40
0
 40
0
 40
0
 40
1
 40
1
 40
1
 40
1
 10
282.021029
 20
87.051326
 30
0.0
 10
279.085043
 20
92.136552
 30
0.0
 10
270.277178
 20
97.221810
 30
0.0
 10
264.405291
 20
97.221799
 30
0.0
  0
LINE
  5
32c
100
AcDbEntity
  8
TopPlate_-_Etch
 62
7
100
AcDbLine
 10
264.405291
 20
97.221799
 30
0.0
 11
169.484918
 21
97.221799
 31
0.0
  0
LINE
  5
32d
100
AcDbEntity
  8
TopPlate_-_Etch
 62
7
100
AcDbLine
 10
169.484918
 20
97.221799
 30
0.0
 11
169.484918
 21
97.221799
 31
0.0
  0
LINE
  5
32e
100
AcDbEntity
  8
TopPlate_-_Etch
 62
7
100
AcDbLine
 10
65.185617
 20
36.930974
 30
0.0
 11
17.788819
 21
-45.162619
 31
0.0
  0
SPLINE
  5
32f
100
AcDbEntity
  8
TopPlate_-_Etch
 62
7
100
AcDbSpline
 70
8
 71
3
 72
8
 73
4
 74
0
 40
0
 40
0
 40
0
 40
0
 40
1
 40
1
 40
1
 40
1
 10
17.788819
 20
-45.162619
 30
0.0
 10
14.853031
 20
-50.247801
 30
0.0
 10
14.852975
 20
-60.417918
 30
0.0
 10
17.788819
 20
-65.503015
 30
0.0
  0
LINE
  5
330
100
AcDbEntity
  8
TopPlate_-_Etch
 62
7
100
AcDbLine
 10
17.788819
 20
-65.503015
 30
0.0
 11
65.185617
 21
-147.596608
 31
0.0
  0
SPLINE
  5
331
100
AcDbEntity
  8
TopPlate_-_Etch
 62
7
100
AcDbSpline
 70
8
 71
3
 72
8
 73
4
 74
0
 40
0
 40
0
 40
0
 40
0
 40
1
 40
1
 40
1
 40
1
 10
65.185617
 20
-147.596608
 30
0.0
 10
65.155095
 20
-146.842273
 30
0.0
 10
65.135819
 20
-146.087693
 30
0.0
 10
65.129393
 20
-145.332768
 30
0.0
  0
SPLINE
  5
332
100
AcDbEntity
  8
TopPlate_-_Etch
 62
7
100
AcDbSpline
 70
8
 71
3
 72
8
 73
4
 74
0
 40
0
 40
0
 40
0
 40
0
 40
1
 40
1
 40
1
 40
1
 10
65.129393
 20
-145.332768
 30
0.0
 10
65.145339
 20
-137.648066
 30
0.0
 10
66.420179
 20
-129.967227
 30
0.0
 10
68.887577
 20
-122.689394
 30
0.0
  0
SPLINE
  5
333
100
AcDbEntity
  8
TopPlate_-_Etch
 62
7
100
AcDbSpline
 70
8
 71
3
 72
8
 73
4
 74
0
 40
0
 40
0
 40
0
 40
0
 40
1
 40
1
 40
1
 40
1
 10
68.887577
 20
-122.689394
 30
0.0
 10
71.354975
 20
-115.411560
 30
0.0
 10
75.014009
 20
-108.539418
 30
0.0
 10
79.674861
 20
-102.429476
 30
0.0
  0
SPLINE
  5
334
100
AcDbEntity
  8
TopPlate_-_Etch
 62
7
100
AcDbSpline
 70
8
 71
3
 72
8
 73
4
 74
0
 40
0
 40
0
 40
0
 40
0
 40
1
 40
1
 40
1
 40
1
 10
79.674861
 20
-102.429476
 30
0.0
 10
73.881093
 20
-101.879230
 30
0.0
 10
68.191679
 20
-100.248206
 30
0.0
 10
62.986268
 20
-97.645479
 30
0.0
  0
SPLINE
  5
335
100
AcDbEntity
  8
TopPlate_-_Etch
 62
7
100
AcDbSpline
 70
8
 71
3
 72
8
 73
4
 74
0
 40
0
 40
0
 40
0
 40
0
 40
1
 40
1
 40
1
 40
1
 10
62.986268
 20
-97.645479
 30
0.0
 10
57.780857
 20
-95.042752
 30
0.0
 10
53.062784
 20
-91.470115
 30
0.0
 10
49.146353
 20
-87.165225
 30
0.0
  0
SPLINE
  5
336
100
AcDbEntity
  8
TopPlate_-_Etch
 62
7
100
AcDbSpline
 70
8
 71
3
 72
8
 73
4
 74
0
 40
0
 40
0
 40
0
 40
0
 40
1
 40
1
 40
1
 40
1
 10
49.146353
 20
-87.165225
 30
0.0
 10
45.229927
 20
-82.860334
 30
0.0
 10
42.117436
 20
-77.825800
 30
0.0
 10
40.017127
 20
-72.398167
 30
0.0
  0
SPLINE
  5
337
100
AcDbEntity
  8
TopPlate_-_Etch
 62
7
100
AcDbSpline
 70
8
 71
3
 72
8
 73
4
 74
0
 40
0
 40
0
 40
0
 40
0
 40
1
 40
1
 40
1
 40
1
 10
40.017127
 20
-72.398167
 30
0.0
 10
37.916821
 20
-66.970531
 30
0.0
 10
36.829839
 20
-61.152929
 30
0.0
 10
36.828346
 20
-55.333092
 30
0.0
  0
SPLINE
  5
338
100
AcDbEntity
  8
TopPlate_-_Etch
 62
7
100
AcDbSpline
 70
8
 71
3
 72
8
 73
4
 74
0
 40
0
 40
0
 40
0
 40
0
 40
1
 40
1
 40
1
 40
1
 10
36.828346
 20
-55.333092
 30
0.0
 10
36.833680
 20
-49.517051
 30
0.0
 10
37.923086
 20
-43.703914
 30
0.0
 10
40.024293
 20
-38.280698
 30
0.0
  0
SPLINE
  5
339
100
AcDbEntity
  8
TopPlate_-_Etch
 62
7
100
AcDbSpline
 70
8
 71
3
 72
8
 73
4
 74
0
 40
0
 40
0
 40
0
 40
0
 40
1
 40
1
 40
1
 40
1
 10
40.024293
 20
-38.280698
 30
0.0
 10
42.125496
 20
-32.857479
 30
0.0
 10
45.237231
 20
-27.827709
 30
0.0
 10
49.151867
 20
-23.526318
 30
0.0
  0
SPLINE
  5
33a
100
AcDbEntity
  8
TopPlate_-_Etch
 62
7
100
AcDbSpline
 70
8
 71
3
 72
8
 73
4
 74
0
 40
0
 40
0
 40
0
 40
0
 40
1
 40
1
 40
1
 40
1
 10
49.151867
 20
-23.526318
 30
0.0
 10
53.066507
 20
-19.224926
 30
0.0
 10
57.781656
 20
-15.654584
 30
0.0
 10
62.983511
 20
-13.053226
 30
0.0
  0
SPLINE
  5
33b
100
AcDbEntity
  8
TopPlate_-_Etch
 62
7
100
AcDbSpline
 70
8
 71
3
 72
8
 73
4
 74
0
 40
0
 40
0
 40
0
 40
0
 40
1
 40
1
 40
1
 40
1
 10
62.983511
 20
-13.053226
 30
0.0
 10
68.185363
 20
-10.451865
 30
0.0
 10
73.870707
 20
-8.820875
 30
0.0
 10
79.660530
 20
-8.269229
 30
0.0
  0
SPLINE
  5
33c
100
AcDbEntity
  8
TopPlate_-_Etch
 62
7
100
AcDbSpline
 70
8
 71
3
 72
8
 73
4
 74
0
 40
0
 40
0
 40
0
 40
0
 40
1
 40
1
 40
1
 40
1
 10
79.660530
 20
-8.269229
 30
0.0
 10
74.998876
 20
-2.153990
 30
0.0
 10
71.340472
 20
4.724175
 30
0.0
 10
68.875453
 20
12.007774
 30
0.0
  0
SPLINE
  5
33d
100
AcDbEntity
  8
TopPlate_-_Etch
 62
7
100
AcDbSpline
 70
8
 71
3
 72
8
 73
4
 74
0
 40
0
 40
0
 40
0
 40
0
 40
1
 40
1
 40
1
 40
1
 10
68.875453
 20
12.007774
 30
0.0
 10
66.410431
 20
19.291377
 30
0.0
 10
65.139705
 20
26.977722
 30
0.0
 10
65.129393
 20
34.667134
 30
0.0
  0
SPLINE
  5
33e
100
AcDbEntity
  8
TopPlate_-_Etch
 62
7
100
AcDbSpline
 70
8
 71
3
 72
8
 73
4
 74
0
 40
0
 40
0
 40
0
 40
0
 40
1
 40
1
 40
1
 40
1
 10
65.129393
 20
34.667134
 30
0.0
 10
65.135687
 20
35.421935
 30
0.0
 10
65.155245
 20
36.176758
 30
0.0
 10
65.185617
 20
36.930974
 30
0.0
  0
LINE
  5
33f
100
AcDbEntity
  8
TopPlate_-_Etch
 62
7
100
AcDbLine
 10
65.185617
 20
36.930974
 30
0.0
 11
65.185617
 21
36.930974
 31
0.0
  0
SPLINE
  5
340
100
AcDbEntity
  8
TopPlate_-_Etch
 62
7
100
AcDbSpline
 70
8
 71
3
 72
8
 73
4
 74
0
 40
0
 40
0
 40
0
 40
0
 40
1
 40
1
 40
1
 40
1
 10
201.558480
 20
7.219919
 30
0.0
 10
199.221245
 20
1.715694
 30
0.0
 10
196.184921
 20
-3.491238
 30
0.0
 10
192.545561
 20
-8.236158
 30
0.0
  0
SPLINE
  5
341
100
AcDbEntity
  8
TopPlate_-_Etch
 62
7
100
AcDbSpline
 70
8
 71
3
 72
8
 73
4
 74
0
 40
0
 40
0
 40
0
 40
0
 40
1
 40
1
 40
1
 40
1
 10
192.545561
 20
-8.236158
 30
0.0
 10
199.263488
 20
-8.884095
 30
0.0
 10
205.837003
 20
-10.990263
 30
0.0
 10
211.680448
 20
-14.367323
 30
0.0
  0
SPLINE
  5
342
100
AcDbEntity
  8
TopPlate_-_Etch
 62
7
100
AcDbSpline
 70
8
 71
3
 72
8
 73
4
 74
0
 40
0
 40
0
 40
0
 40
0
 40
1
 40
1
 40
1
 40
1
 10
211.680448
 20
-14.367323
 30
0.0
 10
217.523890
 20
-17.744380
 30
0.0
 10
222.630794
 20
-22.388590
 30
0.0
 10
226.546173
 20
-27.885881
 30
0.0
  0
SPLINE
  5
343
100
AcDbEntity
  8
TopPlate_-_Etch
 62
7
100
AcDbSpline
 70
8
 71
3
 72
8
 73
4
 74
0
 40
0
 40
0
 40
0
 40
0
 40
1
 40
1
 40
1
 40
1
 10
226.546173
 20
-27.885881
 30
0.0
 10
228.883408
 20
-22.381655
 30
0.0
 10
231.919732
 20
-17.174720
 30
0.0
 10
235.559092
 20
-12.429803
 30
0.0
  0
SPLINE
  5
344
100
AcDbEntity
  8
TopPlate_-_Etch
 62
7
100
AcDbSpline
 70
8
 71
3
 72
8
 73
4
 74
0
 40
0
 40
0
 40
0
 40
0
 40
1
 40
1
 40
1
 40
1
 10
235.559092
 20
-12.429803
 30
0.0
 10
228.841165
 20
-11.781863
 30
0.0
 10
222.267650
 20
-9.675695
 30
0.0
 10
216.424205
 20
-6.298635
 30
0.0
  0
SPLINE
  5
345
100
AcDbEntity
  8
TopPlate_-_Etch
 62
7
100
AcDbSpline
 70
8
 71
3
 72
8
 73
4
 74
0
 40
0
 40
0
 40
0
 40
0
 40
1
 40
1
 40
1
 40
1
 10
216.424205
 20
-6.298635
 30
0.0
 10
210.580763
 20
-2.921578
 30
0.0
 10
205.473859
 20
1.722631
 30
0.0
 10
201.558480
 20
7.219919
 30
0.0
  0
LINE
  5
346
100
AcDbEntity
  8
TopPlate_-_Etch
 62
7
100
AcDbLine
 10
201.558480
 20
7.219919
 30
0.0
 11
201.558480
 21
7.219919
 31
0.0
  0
SPLINE
  5
347
100
AcDbEntity
  8
TopPlate_-_Etch
 62
7
100
AcDbSpline
 70
8
 71
3
 72
8
 73
4
 74
0
 40
0
 40
0
 40
0
 40
0
 40
1
 40
1
 40
1
 40
1
 10
145.090334
 20
-35.655258
 30
0.0
 10
142.114826
 20
-36.064531
 30
0.0
 10
139.113316
 20
-36.284690
 30
0.0
 10
136.109936
 20
-36.313962
 30
0.0
  0
SPLINE
  5
348
100
AcDbEntity
  8
TopPlate_-_Etch
 62
7
100
AcDbSpline
 70
8
 71
3
 72
8
 73
4
 74
0
 40
0
 40
0
 40
0
 40
0
 40
1
 40
1
 40
1
 40
1
 10
136.109936
 20
-36.313962
 30
0.0
 10
133.106549
 20
-36.290396
 30
0.0
 10
130.104673
 20
-36.075953
 30
0.0
 10
127.128434
 20
-35.672347
 30
0.0
  0
SPLINE
  5
349
100
AcDbEntity
  8
TopPlate_-_Etch
 62
7
100
AcDbSpline
 70
8
 71
3
 72
8
 73
4
 74
0
 40
0
 40
0
 40
0
 40
0
 40
1
 40
1
 40
1
 40
1
 10
127.128434
 20
-35.672347
 30
0.0
 10
129.958107
 20
-41.815023
 30
0.0
 10
131.449518
 20
-48.570021
 30
0.0
 10
131.469254
 20
-55.333092
 30
0.0
  0
SPLINE
  5
34a
100
AcDbEntity
  8
TopPlate_-_Etch
 62
7
100
AcDbSpline
 70
8
 71
3
 72
8
 73
4
 74
0
 40
0
 40
0
 40
0
 40
0
 40
1
 40
1
 40
1
 40
1
 10
131.469254
 20
-55.333092
 30
0.0
 10
131.452293
 20
-62.101783
 30
0.0
 10
129.961197
 20
-68.862989
 30
0.0
 10
127.129534
 20
-75.010927
 30
0.0
  0
SPLINE
  5
34b
100
AcDbEntity
  8
TopPlate_-_Etch
 62
7
100
AcDbSpline
 70
8
 71
3
 72
8
 73
4
 74
0
 40
0
 40
0
 40
0
 40
0
 40
1
 40
1
 40
1
 40
1
 10
127.129534
 20
-75.010927
 30
0.0
 10
130.105043
 20
-74.601654
 30
0.0
 10
133.106552
 20
-74.381498
 30
0.0
 10
136.109936
 20
-74.352226
 30
0.0
  0
SPLINE
  5
34c
100
AcDbEntity
  8
TopPlate_-_Etch
 62
7
100
AcDbSpline
 70
8
 71
3
 72
8
 73
4
 74
0
 40
0
 40
0
 40
0
 40
0
 40
1
 40
1
 40
1
 40
1
 10
136.109936
 20
-74.352226
 30
0.0
 10
139.113494
 20
-74.375594
 30
0.0
 10
142.115557
 20
-74.589843
 30
0.0
 10
145.091988
 20
-74.993288
 30
0.0
  0
SPLINE
  5
34d
100
AcDbEntity
  8
TopPlate_-_Etch
 62
7
100
AcDbSpline
 70
8
 71
3
 72
8
 73
4
 74
0
 40
0
 40
0
 40
0
 40
0
 40
1
 40
1
 40
1
 40
1
 10
145.091988
 20
-74.993288
 30
0.0
 10
142.262392
 20
-68.850778
 30
0.0
 10
140.770983
 20
-62.095981
 30
0.0
 10
140.751168
 20
-55.333092
 30
0.0
  0
SPLINE
  5
34e
100
AcDbEntity
  8
TopPlate_-_Etch
 62
7
100
AcDbSpline
 70
8
 71
3
 72
8
 73
4
 74
0
 40
0
 40
0
 40
0
 40
0
 40
1
 40
1
 40
1
 40
1
 10
140.751168
 20
-55.333092
 30
0.0
 10
140.767960
 20
-48.564441
 30
0.0
 10
142.258861
 20
-41.803238
 30
0.0
 10
145.090334
 20
-35.655258
 30
0.0
  0
LINE
  5
34f
100
AcDbEntity
  8
TopPlate_-_Etch
 62
7
100
AcDbLine
 10
145.090334
 20
-35.655258
 30
0.0
 11
145.090334
 21
-35.655258
 31
0.0
  0
SPLINE
  5
350
100
AcDbEntity
  8
TopPlate_-_Etch
 62
7
100
AcDbSpline
 70
8
 71
3
 72
8
 73
4
 74
0
 40
0
 40
0
 40
0
 40
0
 40
1
 40
1
 40
1
 40
1
 10
226.596883
 20
-82.749437
 30
0.0
 10
222.677287
 20
-88.250603
 30
0.0
 10
217.564163
 20
-92.896746
 30
0.0
 10
211.714072
 20
-96.273504
 30
0.0
  0
SPLINE
  5
351
100
AcDbEntity
  8
TopPlate_-_Etch
 62
7
100
AcDbSpline
 70
8
 71
3
 72
8
 73
4
 74
0
 40
0
 40
0
 40
0
 40
0
 40
1
 40
1
 40
1
 40
1
 10
211.714072
 20
-96.273504
 30
0.0
 10
205.863980
 20
-99.650262
 30
0.0
 10
199.283419
 20
-101.753887
 30
0.0
 10
192.559342
 20
-102.396405
 30
0.0
  0
SPLINE
  5
352
100
AcDbEntity
  8
TopPlate_-_Etch
 62
7
100
AcDbSpline
 70
8
 71
3
 72
8
 73
4
 74
0
 40
0
 40
0
 40
0
 40
0
 40
1
 40
1
 40
1
 40
1
 10
192.559342
 20
-102.396405
 30
0.0
 10
196.180814
 20
-107.164679
 30
0.0
 10
199.195495
 20
-112.393298
 30
0.0
 10
201.507770
 20
-117.916420
 30
0.0
  0
SPLINE
  5
353
100
AcDbEntity
  8
TopPlate_-_Etch
 62
7
100
AcDbSpline
 70
8
 71
3
 72
8
 73
4
 74
0
 40
0
 40
0
 40
0
 40
0
 40
1
 40
1
 40
1
 40
1
 10
201.507770
 20
-117.916420
 30
0.0
 10
205.427428
 20
-112.415190
 30
0.0
 10
210.540391
 20
-107.769115
 30
0.0
 10
216.390581
 20
-104.392354
 30
0.0
  0
SPLINE
  5
354
100
AcDbEntity
  8
TopPlate_-_Etch
 62
7
100
AcDbSpline
 70
8
 71
3
 72
8
 73
4
 74
0
 40
0
 40
0
 40
0
 40
0
 40
1
 40
1
 40
1
 40
1
 10
216.390581
 20
-104.392354
 30
0.0
 10
222.240774
 20
-101.015593
 30
0.0
 10
228.821691
 20
-98.911898
 30
0.0
 10
235.545864
 20
-98.269456
 30
0.0
  0
SPLINE
  5
355
100
AcDbEntity
  8
TopPlate_-_Etch
 62
7
100
AcDbSpline
 70
8
 71
3
 72
8
 73
4
 74
0
 40
0
 40
0
 40
0
 40
0
 40
1
 40
1
 40
1
 40
1
 10
235.545864
 20
-98.269456
 30
0.0
 10
231.924200
 20
-93.501209
 30
0.0
 10
228.909330
 20
-88.272591
 30
0.0
 10
226.596883
 20
-82.749437
 30
0.0
  0
LINE
  5
356
100
AcDbEntity
  8
TopPlate_-_Etch
 62
7
100
AcDbLine
 10
226.596883
 20
-82.749437
 30
0.0
 11
226.596883
 21
-82.749437
 31
0.0
  0
SPLINE
  5
357
100
AcDbEntity
  8
TopPlate_-_Etch
 62
7
100
AcDbSpline
 70
8
 71
3
 72
8
 73
4
 74
0
 40
0
 40
0
 40
0
 40
0
 40
1
 40
1
 40
1
 40
1
 10
329.475140
 20
-115.523597
 30
0.0
 10
324.924730
 20
-118.366057
 30
0.0
 10
320.052474
 20
-120.693465
 30
0.0
 10
314.979840
 20
-122.441349
 30
0.0
  0
SPLINE
  5
358
100
AcDbEntity
  8
TopPlate_-_Etch
 62
7
100
AcDbSpline
 70
8
 71
3
 72
8
 73
4
 74
0
 40
0
 40
0
 40
0
 40
0
 40
1
 40
1
 40
1
 40
1
 10
314.979840
 20
-122.441349
 30
0.0
 10
307.600548
 20
-124.984035
 30
0.0
 10
299.799784
 20
-126.298429
 30
0.0
 10
291.994731
 20
-126.313635
 30
0.0
  0
SPLINE
  5
359
100
AcDbEntity
  8
TopPlate_-_Etch
 62
7
100
AcDbSpline
 70
8
 71
3
 72
8
 73
4
 74
0
 40
0
 40
0
 40
0
 40
0
 40
1
 40
1
 40
1
 40
1
 10
291.994731
 20
-126.313635
 30
0.0
 10
288.991350
 20
-126.290267
 30
0.0
 10
285.989466
 20
-126.075995
 30
0.0
 10
283.013206
 20
-125.672573
 30
0.0
  0
SPLINE
  5
35a
100
AcDbEntity
  8
TopPlate_-_Etch
 62
7
100
AcDbSpline
 70
8
 71
3
 72
8
 73
4
 74
0
 40
0
 40
0
 40
0
 40
0
 40
1
 40
1
 40
1
 40
1
 10
283.013206
 20
-125.672573
 30
0.0
 10
285.842625
 20
-131.815125
 30
0.0
 10
287.333831
 20
-138.569922
 30
0.0
 10
287.353474
 20
-145.332768
 30
0.0
  0
SPLINE
  5
35b
100
AcDbEntity
  8
TopPlate_-_Etch
 62
7
100
AcDbSpline
 70
8
 71
3
 72
8
 73
4
 74
0
 40
0
 40
0
 40
0
 40
0
 40
1
 40
1
 40
1
 40
1
 10
287.353474
 20
-145.332768
 30
0.0
 10
287.353502
 20
-151.526999
 30
0.0
 10
286.121715
 20
-157.718559
 30
0.0
 10
283.751302
 20
-163.441292
 30
0.0
  0
SPLINE
  5
35c
100
AcDbEntity
  8
TopPlate_-_Etch
 62
7
100
AcDbSpline
 70
8
 71
3
 72
8
 73
4
 74
0
 40
0
 40
0
 40
0
 40
0
 40
1
 40
1
 40
1
 40
1
 10
283.751302
 20
-163.441292
 30
0.0
 10
281.380904
 20
-169.164025
 30
0.0
 10
277.873686
 20
-174.413180
 30
0.0
 10
273.493730
 20
-178.793185
 30
0.0
  0
SPLINE
  5
35d
100
AcDbEntity
  8
TopPlate_-_Etch
 62
7
100
AcDbSpline
 70
8
 71
3
 72
8
 73
4
 74
0
 40
0
 40
0
 40
0
 40
0
 40
1
 40
1
 40
1
 40
1
 10
273.493730
 20
-178.793185
 30
0.0
 10
269.113773
 20
-183.173189
 30
0.0
 10
263.864536
 20
-186.680844
 30
0.0
 10
258.141831
 20
-189.051313
 30
0.0
  0
SPLINE
  5
35e
100
AcDbEntity
  8
TopPlate_-_Etch
 62
7
100
AcDbSpline
 70
8
 71
3
 72
8
 73
4
 74
0
 40
0
 40
0
 40
0
 40
0
 40
1
 40
1
 40
1
 40
1
 10
258.141831
 20
-189.051313
 30
0.0
 10
252.419124
 20
-191.421782
 30
0.0
 10
246.227538
 20
-192.653428
 30
0.0
 10
240.033308
 20
-192.653485
 30
0.0
  0
SPLINE
  5
35f
100
AcDbEntity
  8
TopPlate_-_Etch
 62
7
100
AcDbSpline
 70
8
 71
3
 72
8
 73
4
 74
0
 40
0
 40
0
 40
0
 40
0
 40
1
 40
1
 40
1
 40
1
 10
240.033308
 20
-192.653485
 30
0.0
 10
232.536893
 20
-192.641914
 30
0.0
 10
225.049667
 20
-190.816472
 30
0.0
 10
218.389287
 20
-187.376155
 30
0.0
  0
SPLINE
  5
360
100
AcDbEntity
  8
TopPlate_-_Etch
 62
7
100
AcDbSpline
 70
8
 71
3
 72
8
 73
4
 74
0
 40
0
 40
0
 40
0
 40
0
 40
1
 40
1
 40
1
 40
1
 10
218.389287
 20
-187.376155
 30
0.0
 10
211.728905
 20
-183.935866
 30
0.0
 10
205.906573
 20
-178.886572
 30
0.0
 10
201.558480
 20
-172.779989
 30
0.0
  0
SPLINE
  5
361
100
AcDbEntity
  8
TopPlate_-_Etch
 62
7
100
AcDbSpline
 70
8
 71
3
 72
8
 73
4
 74
0
 40
0
 40
0
 40
0
 40
0
 40
1
 40
1
 40
1
 40
1
 10
201.558480
 20
-172.779989
 30
0.0
 10
197.962119
 20
-181.339817
 30
0.0
 10
192.666335
 20
-189.181644
 30
0.0
 10
186.069882
 20
-195.715511
 30
0.0
  0
SPLINE
  5
362
100
AcDbEntity
  8
TopPlate_-_Etch
 62
7
100
AcDbSpline
 70
8
 71
3
 72
8
 73
4
 74
0
 40
0
 40
0
 40
0
 40
0
 40
1
 40
1
 40
1
 40
1
 10
186.069882
 20
-195.715511
 30
0.0
 10
181.195672
 20
-200.543459
 30
0.0
 10
175.612563
 20
-204.651965
 30
0.0
 10
169.563189
 20
-207.887445
 30
0.0
  0
LINE
  5
363
100
AcDbEntity
  8
TopPlate_-_Etch
 62
7
100
AcDbLine
 10
169.563189
 20
-207.887445
 30
0.0
 11
264.405291
 21
-207.887445
 31
0.0
  0
SPLINE
  5
364
100
AcDbEntity
  8
TopPlate_-_Etch
 62
7
100
AcDbSpline
 70
8
 71
3
 72
8
 73
4
 74
0
 40
0
 40
0
 40
0
 40
0
 40
1
 40
1
 40
1
 40
1
 10
264.405291
 20
-207.887445
 30
0.0
 10
270.277178
 20
-207.887530
 30
0.0
 10
279.085043
 20
-202.802168
 30
0.0
 10
282.021029
 20
-197.716947
 30
0.0
  0
LINE
  5
365
100
AcDbEntity
  8
TopPlate_-_Etch
 62
7
100
AcDbLine
 10
282.021029
 20
-197.716947
 30
0.0
 11
329.475140
 21
-115.523597
 31
0.0
  0
LINE
  5
366
100
AcDbEntity
  8
TopPlate_-_Etch
 62
7
100
AcDbLine
 10
329.475140
 20
-115.523597
 30
0.0
 11
329.475140
 21
-115.523597
 31
0.0
  0
SPLINE
  5
367
100
AcDbEntity
  8
TopPlate_-_Etch
 62
7
100
AcDbSpline
 70
8
 71
3
 72
8
 73
4
 74
0
 40
0
 40
0
 40
0
 40
0
 40
1
 40
1
 40
1
 40
1
 10
18.237296
 20
-66.356664
 30
0.0
 10
17.967644
 20
-62.709393
 30
0.0
 10
17.817588
 20
-59.033452
 30
0.0
 10
17.791120
 20
-55.332869
 30
0.0
  0
SPLINE
  5
368
100
AcDbEntity
  8
TopPlate_-_Etch
 62
7
100
AcDbSpline
 70
8
 71
3
 72
8
 73
4
 74
0
 40
0
 40
0
 40
0
 40
0
 40
1
 40
1
 40
1
 40
1
 10
17.791120
 20
-55.332869
 30
0.0
 10
17.765412
 20
-51.738710
 30
0.0
 10
17.855932
 20
-48.167047
 30
0.0
 10
18.059087
 20
-44.621441
 30
0.0
  0
SPLINE
  5
369
100
AcDbEntity
  8
TopPlate_-_Etch
 62
7
100
AcDbSpline
 70
8
 71
3
 72
8
 73
4
 74
0
 40
0
 40
0
 40
0
 40
0
 40
1
 40
1
 40
1
 40
1
 10
286.276034
 20
-190.393365
 30
0.0
 10
277.196872
 20
-197.162324
 30
0.0
 10
267.432539
 20
-203.045641
 30
0.0
 10
257.122337
 20
-207.905423
 30
0.0
  0
SPLINE
  5
36a
100
AcDbEntity
  8
TopPlate_-_Etch
 62
7
100
AcDbSpline
 70
8
 71
3
 72
8
 73
4
 74
0
 40
0
 40
0
 40
0
 40
0
 40
1
 40
1
 40
1
 40
1
 10
250.142285
 20
97.239886
 30
0.0
 10
264.159848
 20
91.525289
 30
0.0
 10
277.270721
 20
83.916939
 30
0.0
 10
289.145980
 20
74.747154
 30
0.0
  0
SPLINE
  5
36b
100
AcDbEntity
  8
TopPlate_-_Etch
 62
7
100
AcDbSpline
 70
8
 71
3
 72
8
 73
4
 74
0
 40
0
 40
0
 40
0
 40
0
 40
1
 40
1
 40
1
 40
1
 10
28.200674
 20
-83.557914
 30
0.0
 10
26.460499
 20
-74.375230
 30
0.0
 10
25.516125
 20
-64.941074
 30
0.0
 10
25.444168
 20
-55.332875
 30
0.0
  0
SPLINE
  5
36c
100
AcDbEntity
  8
TopPlate_-_Etch
 62
7
100
AcDbSpline
 70
8
 71
3
 72
8
 73
4
 74
0
 40
0
 40
0
 40
0
 40
0
 40
1
 40
1
 40
1
 40
1
 10
25.444168
 20
-55.332875
 30
0.0
 10
25.375050
 20
-46.103726
 30
0.0
 10
26.108315
 20
-37.029776
 30
0.0
 10
27.577296
 20
-28.177004
 30
0.0
  0
SPLINE
  5
36d
100
AcDbEntity
  8
TopPlate_-_Etch
 62
7
100
AcDbSpline
 70
8
 71
3
 72
8
 73
4
 74
0
 40
0
 40
0
 40
0
 40
0
 40
1
 40
1
 40
1
 40
1
 10
297.555694
 20
-170.841582
 30
0.0
 10
280.391054
 20
-187.379175
 30
0.0
 10
259.621618
 20
-200.205949
 30
0.0
 10
236.679819
 20
-207.904774
 30
0.0
  0
SPLINE
  5
36e
100
AcDbEntity
  8
TopPlate_-_Etch
 62
7
100
AcDbSpline
 70
8
 71
3
 72
8
 73
4
 74
0
 40
0
 40
0
 40
0
 40
0
 40
1
 40
1
 40
1
 40
1
 10
225.313522
 20
97.254684
 30
0.0
 10
254.439626
 20
90.197819
 30
0.0
 10
280.628657
 20
74.831722
 30
0.0
 10
301.173981
 20
53.892453
 30
0.0
  0
SPLINE
  5
36f
100
AcDbEntity
  8
TopPlate_-_Etch
 62
7
100
AcDbSpline
 70
8
 71
3
 72
8
 73
4
 74
0
 40
0
 40
0
 40
0
 40
0
 40
1
 40
1
 40
1
 40
1
 10
44.700500
 20
-112.167266
 30
0.0
 10
37.375600
 20
-94.526472
 30
0.0
 10
33.254363
 20
-75.325367
 30
0.0
 10
33.097244
 20
-55.332878
 30
0.0
  0
SPLINE
  5
370
100
AcDbEntity
  8
TopPlate_-_Etch
 62
7
100
AcDbSpline
 70
8
 71
3
 72
8
 73
4
 74
0
 40
0
 40
0
 40
0
 40
0
 40
1
 40
1
 40
1
 40
1
 10
33.097244
 20
-55.332878
 30
0.0
 10
32.955174
 20
-37.255291
 30
0.0
 10
36.043407
 20
-19.802023
 30
0.0
 10
41.810460
 20
-3.518563
 30
0.0
  0
SPLINE
  5
371
100
AcDbEntity
  8
TopPlate_-_Etch
 62
7
100
AcDbSpline
 70
8
 71
3
 72
8
 73
4
 74
0
 40
0
 40
0
 40
0
 40
0
 40
1
 40
1
 40
1
 40
1
 10
65.224968
 20
-147.563221
 30
0.0
 10
65.133855
 20
-147.444880
 30
0.0
 10
65.042909
 20
-147.326406
 30
0.0
 10
64.952129
 20
-147.207802
 30
0.0
  0
SPLINE
  5
372
100
AcDbEntity
  8
TopPlate_-_Etch
 62
7
100
AcDbSpline
 70
8
 71
3
 72
8
 73
4
 74
0
 40
0
 40
0
 40
0
 40
0
 40
1
 40
1
 40
1
 40
1
 10
325.977109
 20
-117.687157
 30
0.0
 10
303.602644
 20
-167.153279
 30
0.0
 10
255.243197
 20
-203.244749
 30
0.0
 10
199.172974
 20
-207.891114
 30
0.0
  0
SPLINE
  5
373
100
AcDbEntity
  8
TopPlate_-_Etch
 62
7
100
AcDbSpline
 70
8
 71
3
 72
8
 73
4
 74
0
 40
0
 40
0
 40
0
 40
0
 40
1
 40
1
 40
1
 40
1
 10
275.747723
 20
65.718310
 30
0.0
 10
296.405441
 20
50.845117
 30
0.0
 10
313.279621
 20
30.889677
 30
0.0
 10
324.423532
 20
7.820999
 30
0.0
  0
SPLINE
  5
374
100
AcDbEntity
  8
TopPlate_-_Etch
 62
7
100
AcDbSpline
 70
8
 71
3
 72
8
 73
4
 74
0
 40
0
 40
0
 40
0
 40
0
 40
1
 40
1
 40
1
 40
1
 10
175.982054
 20
93.298178
 30
0.0
 10
179.973309
 20
93.665072
 30
0.0
 10
184.005567
 20
93.868563
 30
0.0
 10
188.071845
 20
93.901749
 30
0.0
  0
SPLINE
  5
375
100
AcDbEntity
  8
TopPlate_-_Etch
 62
7
100
AcDbSpline
 70
8
 71
3
 72
8
 73
4
 74
0
 40
0
 40
0
 40
0
 40
0
 40
1
 40
1
 40
1
 40
1
 10
188.071845
 20
93.901749
 30
0.0
 10
209.611056
 20
94.077535
 30
0.0
 10
230.230522
 20
89.491331
 30
0.0
 10
248.935988
 20
81.148750
 30
0.0
  0
SPLINE
  5
376
100
AcDbEntity
  8
TopPlate_-_Etch
 62
7
100
AcDbSpline
 70
8
 71
3
 72
8
 73
4
 74
0
 40
0
 40
0
 40
0
 40
0
 40
1
 40
1
 40
1
 40
1
 10
42.248238
 20
-33.399360
 30
0.0
 10
45.448392
 20
-11.455699
 30
0.0
 10
53.633079
 20
9.055823
 30
0.0
 10
65.586336
 20
26.933150
 30
0.0
  0
SPLINE
  5
377
100
AcDbEntity
  8
TopPlate_-_Etch
 62
7
100
AcDbSpline
 70
8
 71
3
 72
8
 73
4
 74
0
 40
0
 40
0
 40
0
 40
0
 40
1
 40
1
 40
1
 40
1
 10
65.857241
 20
-135.416987
 30
0.0
 10
54.403854
 20
-118.469359
 30
0.0
 10
46.367432
 20
-99.091109
 30
0.0
 10
42.807066
 20
-78.353745
 30
0.0
  0
SPLINE
  5
378
100
AcDbEntity
  8
TopPlate_-_Etch
 62
7
100
AcDbSpline
 70
8
 71
3
 72
8
 73
4
 74
0
 40
0
 40
0
 40
0
 40
0
 40
1
 40
1
 40
1
 40
1
 10
234.898356
 20
-192.343323
 30
0.0
 10
220.170753
 20
-197.648028
 30
0.0
 10
204.402941
 20
-200.604362
 30
0.0
 10
188.071675
 20
-200.741155
 30
0.0
  0
SPLINE
  5
379
100
AcDbEntity
  8
TopPlate_-_Etch
 62
7
100
AcDbSpline
 70
8
 71
3
 72
8
 73
4
 74
0
 40
0
 40
0
 40
0
 40
0
 40
1
 40
1
 40
1
 40
1
 10
188.071675
 20
-200.741155
 30
0.0
 10
185.546289
 20
-200.762322
 30
0.0
 10
183.033870
 20
-200.716320
 30
0.0
 10
180.536108
 20
-200.604786
 30
0.0
  0
SPLINE
  5
37a
100
AcDbEntity
  8
TopPlate_-_Etch
 62
7
100
AcDbSpline
 70
8
 71
3
 72
8
 73
4
 74
0
 40
0
 40
0
 40
0
 40
0
 40
1
 40
1
 40
1
 40
1
 10
315.201102
 20
-122.354548
 30
0.0
 10
307.244778
 20
-137.468130
 30
0.0
 10
296.672564
 20
-151.074565
 30
0.0
 10
284.120590
 20
-162.545143
 30
0.0
  0
SPLINE
  5
37b
100
AcDbEntity
  8
TopPlate_-_Etch
 62
7
100
AcDbSpline
 70
8
 71
3
 72
8
 73
4
 74
0
 40
0
 40
0
 40
0
 40
0
 40
1
 40
1
 40
1
 40
1
 10
285.457702
 20
47.922739
 30
0.0
 10
296.573758
 20
37.587900
 30
0.0
 10
306.085071
 20
25.531491
 30
0.0
 10
313.532068
 20
12.218594
 30
0.0
  0
SPLINE
  5
37c
100
AcDbEntity
  8
TopPlate_-_Etch
 62
7
100
AcDbSpline
 70
8
 71
3
 72
8
 73
4
 74
0
 40
0
 40
0
 40
0
 40
0
 40
1
 40
1
 40
1
 40
1
 10
184.836937
 20
86.182880
 30
0.0
 10
185.912608
 20
86.217405
 30
0.0
 10
186.990959
 20
86.239388
 30
0.0
 10
188.071845
 20
86.248686
 30
0.0
  0
SPLINE
  5
37d
100
AcDbEntity
  8
TopPlate_-_Etch
 62
7
100
AcDbSpline
 70
8
 71
3
 72
8
 73
4
 74
0
 40
0
 40
0
 40
0
 40
0
 40
1
 40
1
 40
1
 40
1
 10
188.071845
 20
86.248686
 30
0.0
 10
202.091445
 20
86.369288
 30
0.0
 10
215.700757
 20
84.363573
 30
0.0
 10
228.595510
 20
80.539472
 30
0.0
  0
SPLINE
  5
37e
100
AcDbEntity
  8
TopPlate_-_Etch
 62
7
100
AcDbSpline
 70
8
 71
3
 72
8
 73
4
 74
0
 40
0
 40
0
 40
0
 40
0
 40
1
 40
1
 40
1
 40
1
 10
52.729663
 20
-20.048346
 30
0.0
 10
56.026713
 20
-7.279902
 30
0.0
 10
61.120720
 20
4.832878
 30
0.0
 10
67.716369
 20
15.998233
 30
0.0
  0
SPLINE
  5
37f
100
AcDbEntity
  8
TopPlate_-_Etch
 62
7
100
AcDbSpline
 70
8
 71
3
 72
8
 73
4
 74
0
 40
0
 40
0
 40
0
 40
0
 40
1
 40
1
 40
1
 40
1
 10
68.227725
 20
-124.960083
 30
0.0
 10
61.963678
 20
-114.560364
 30
0.0
 10
57.015617
 20
-103.310165
 30
0.0
 10
53.628922
 20
-91.457909
 30
0.0
  0
SPLINE
  5
380
100
AcDbEntity
  8
TopPlate_-_Etch
 62
7
100
AcDbSpline
 70
8
 71
3
 72
8
 73
4
 74
0
 40
0
 40
0
 40
0
 40
0
 40
1
 40
1
 40
1
 40
1
 10
221.134503
 20
-188.636052
 30
0.0
 10
210.662966
 20
-191.407107
 30
0.0
 10
199.735810
 20
-192.946290
 30
0.0
 10
188.525418
 20
-193.083338
 30
0.0
  0
SPLINE
  5
381
100
AcDbEntity
  8
TopPlate_-_Etch
 62
7
100
AcDbSpline
 70
8
 71
3
 72
8
 73
4
 74
0
 40
0
 40
0
 40
0
 40
0
 40
1
 40
1
 40
1
 40
1
 10
304.926040
 20
-125.089251
 30
0.0
 10
299.883350
 20
-133.569955
 30
0.0
 10
293.948668
 20
-141.484948
 30
0.0
 10
287.259494
 20
-148.698418
 30
0.0
  0
SPLINE
  5
382
100
AcDbEntity
  8
TopPlate_-_Etch
 62
7
100
AcDbSpline
 70
8
 71
3
 72
8
 73
4
 74
0
 40
0
 40
0
 40
0
 40
0
 40
1
 40
1
 40
1
 40
1
 10
287.334198
 20
35.281484
 30
0.0
 10
293.228861
 20
28.954259
 30
0.0
 10
298.536868
 20
22.073574
 30
0.0
 10
303.163365
 20
14.735466
 30
0.0
  0
SPLINE
  5
383
100
AcDbEntity
  8
TopPlate_-_Etch
 62
7
100
AcDbSpline
 70
8
 71
3
 72
8
 73
4
 74
0
 40
0
 40
0
 40
0
 40
0
 40
1
 40
1
 40
1
 40
1
 10
191.754396
 20
78.577457
 30
0.0
 10
200.223247
 20
78.416754
 30
0.0
 10
208.521218
 20
77.437745
 30
0.0
 10
216.572171
 20
75.717533
 30
0.0
  0
SPLINE
  5
384
100
AcDbEntity
  8
TopPlate_-_Etch
 62
7
100
AcDbSpline
 70
8
 71
3
 72
8
 73
4
 74
0
 40
0
 40
0
 40
0
 40
0
 40
1
 40
1
 40
1
 40
1
 10
62.723460
 20
-13.200140
 30
0.0
 10
64.985163
 20
-6.434124
 30
0.0
 10
67.787401
 20
0.104174
 30
0.0
 10
71.076896
 20
6.362159
 30
0.0
  0
SPLINE
  5
385
100
AcDbEntity
  8
TopPlate_-_Etch
 62
7
100
AcDbSpline
 70
8
 71
3
 72
8
 73
4
 74
0
 40
0
 40
0
 40
0
 40
0
 40
1
 40
1
 40
1
 40
1
 10
71.720481
 20
-115.693302
 30
0.0
 10
68.656403
 20
-110.025332
 30
0.0
 10
65.996343
 20
-104.117944
 30
0.0
 10
63.781170
 20
-98.012537
 30
0.0
  0
SPLINE
  5
386
100
AcDbEntity
  8
TopPlate_-_Etch
 62
7
100
AcDbSpline
 70
8
 71
3
 72
8
 73
4
 74
0
 40
0
 40
0
 40
0
 40
0
 40
1
 40
1
 40
1
 40
1
 10
211.467000
 20
-183.026490
 30
0.0
 10
205.999179
 20
-184.111324
 30
0.0
 10
200.417622
 20
-184.843041
 30
0.0
 10
194.748175
 20
-185.196130
 30
0.0
  0
SPLINE
  5
387
100
AcDbEntity
  8
TopPlate_-_Etch
 62
7
100
AcDbSpline
 70
8
 71
3
 72
8
 73
4
 74
0
 40
0
 40
0
 40
0
 40
0
 40
1
 40
1
 40
1
 40
1
 10
295.259421
 20
-126.165381
 30
0.0
 10
292.612205
 20
-130.198455
 30
0.0
 10
289.745815
 20
-134.080780
 30
0.0
 10
286.678342
 20
-137.794494
 30
0.0
  0
SPLINE
  5
388
100
AcDbEntity
  8
TopPlate_-_Etch
 62
7
100
AcDbSpline
 70
8
 71
3
 72
8
 73
4
 74
0
 40
0
 40
0
 40
0
 40
0
 40
1
 40
1
 40
1
 40
1
 10
286.282694
 20
24.966307
 30
0.0
 10
288.806438
 20
21.956839
 30
0.0
 10
291.196240
 20
18.832303
 30
0.0
 10
293.442136
 20
15.602797
 30
0.0
  0
SPLINE
  5
389
100
AcDbEntity
  8
TopPlate_-_Etch
 62
7
100
AcDbSpline
 70
8
 71
3
 72
8
 73
4
 74
0
 40
0
 40
0
 40
0
 40
0
 40
1
 40
1
 40
1
 40
1
 10
197.129465
 20
70.697841
 30
0.0
 10
200.833440
 20
70.461418
 30
0.0
 10
204.498408
 20
70.059378
 30
0.0
 10
208.116997
 20
69.499201
 30
0.0
  0
SPLINE
  5
38a
100
AcDbEntity
  8
TopPlate_-_Etch
 62
7
100
AcDbSpline
 70
8
 71
3
 72
8
 73
4
 74
0
 40
0
 40
0
 40
0
 40
0
 40
1
 40
1
 40
1
 40
1
 10
72.142835
 20
-9.637502
 30
0.0
 10
73.163080
 20
-7.035910
 30
0.0
 10
74.269239
 20
-4.474362
 30
0.0
 10
75.457671
 20
-1.956460
 30
0.0
  0
SPLINE
  5
38b
100
AcDbEntity
  8
TopPlate_-_Etch
 62
7
100
AcDbSpline
 70
8
 71
3
 72
8
 73
4
 74
0
 40
0
 40
0
 40
0
 40
0
 40
1
 40
1
 40
1
 40
1
 10
76.128660
 20
-107.579871
 30
0.0
 10
75.126257
 20
-105.529267
 30
0.0
 10
74.179015
 20
-103.448405
 30
0.0
 10
73.288968
 20
-101.339359
 30
0.0
  0
SPLINE
  5
38c
100
AcDbEntity
  8
TopPlate_-_Etch
 62
7
100
AcDbSpline
 70
8
 71
3
 72
8
 73
4
 74
0
 40
0
 40
0
 40
0
 40
0
 40
1
 40
1
 40
1
 40
1
 10
204.466704
 20
-176.481390
 30
0.0
 10
202.841804
 20
-176.724411
 30
0.0
 10
201.207370
 20
-176.934384
 30
0.0
 10
199.564140
 20
-177.110604
 30
0.0
  0
SPLINE
  5
38d
100
AcDbEntity
  8
TopPlate_-_Etch
 62
7
100
AcDbSpline
 70
8
 71
3
 72
8
 73
4
 74
0
 40
0
 40
0
 40
0
 40
0
 40
1
 40
1
 40
1
 40
1
 10
286.162468
 20
-125.957126
 30
0.0
 10
285.521795
 20
-126.855640
 30
0.0
 10
284.869297
 20
-127.745408
 30
0.0
 10
284.205172
 20
-128.626187
 30
0.0
  0
SPLINE
  5
38e
100
AcDbEntity
  8
TopPlate_-_Etch
 62
7
100
AcDbSpline
 70
8
 71
3
 72
8
 73
4
 74
0
 40
0
 40
0
 40
0
 40
0
 40
1
 40
1
 40
1
 40
1
 10
127.492856
 20
-36.498693
 30
0.0
 10
127.570329
 20
-36.238306
 30
0.0
 10
127.649458
 20
-35.978572
 30
0.0
 10
127.730233
 20
-35.719500
 30
0.0
  0
SPLINE
  5
38f
100
AcDbEntity
  8
TopPlate_-_Etch
 62
7
100
AcDbSpline
 70
8
 71
3
 72
8
 73
4
 74
0
 40
0
 40
0
 40
0
 40
0
 40
1
 40
1
 40
1
 40
1
 10
128.527627
 20
-74.843061
 30
0.0
 10
128.313417
 20
-74.245441
 30
0.0
 10
128.108134
 20
-73.643873
 30
0.0
 10
127.911947
 20
-73.038529
 30
0.0
  0
SPLINE
  5
390
100
AcDbEntity
  8
TopPlate_-_Etch
 62
7
100
AcDbSpline
 70
8
 71
3
 72
8
 73
4
 74
0
 40
0
 40
0
 40
0
 40
0
 40
1
 40
1
 40
1
 40
1
 10
204.936736
 20
-113.756225
 30
0.0
 10
203.363923
 20
-114.257898
 30
0.0
 10
201.765100
 20
-114.696296
 30
0.0
 10
200.143471
 20
-115.068307
 30
0.0
  0
SPLINE
  5
391
100
AcDbEntity
  8
TopPlate_-_Etch
 62
7
100
AcDbSpline
 70
8
 71
3
 72
8
 73
4
 74
0
 40
0
 40
0
 40
0
 40
0
 40
1
 40
1
 40
1
 40
1
 10
233.152800
 20
-94.859387
 30
0.0
 10
231.768523
 20
-96.493826
 30
0.0
 10
230.299593
 20
-98.056141
 30
0.0
 10
228.753391
 20
-99.539159
 30
0.0
  0
SPLINE
  5
392
100
AcDbEntity
  8
TopPlate_-_Etch
 62
7
100
AcDbSpline
 70
8
 71
3
 72
8
 73
4
 74
0
 40
0
 40
0
 40
0
 40
0
 40
1
 40
1
 40
1
 40
1
 10
223.902572
 20
-9.728668
 30
0.0
 10
226.892719
 20
-12.000684
 30
0.0
 10
229.665632
 20
-14.553265
 30
0.0
 10
232.180127
 20
-17.344020
 30
0.0
  0
SPLINE
  5
393
100
AcDbEntity
  8
TopPlate_-_Etch
 62
7
100
AcDbSpline
 70
8
 71
3
 72
8
 73
4
 74
0
 40
0
 40
0
 40
0
 40
0
 40
1
 40
1
 40
1
 40
1
 10
198.610861
 20
1.296199
 30
0.0
 10
202.648016
 20
0.615236
 30
0.0
 10
206.554392
 20
-0.497941
 30
0.0
 10
210.280905
 20
-1.992796
 30
0.0
  0
SPLINE
  5
394
100
AcDbEntity
  8
TopPlate_-_Etch
 62
7
100
AcDbSpline
 70
8
 71
3
 72
8
 73
4
 74
0
 40
0
 40
0
 40
0
 40
0
 40
1
 40
1
 40
1
 40
1
 10
136.528271
 20
-74.388773
 30
0.0
 10
134.122854
 20
-68.446875
 30
0.0
 10
132.733773
 20
-62.017201
 30
0.0
 10
132.587040
 20
-55.332937
 30
0.0
  0
SPLINE
  5
395
100
AcDbEntity
  8
TopPlate_-_Etch
 62
7
100
AcDbSpline
 70
8
 71
3
 72
8
 73
4
 74
0
 40
0
 40
0
 40
0
 40
0
 40
1
 40
1
 40
1
 40
1
 10
132.587040
 20
-55.332937
 30
0.0
 10
132.441103
 20
-48.684834
 30
0.0
 10
133.512642
 20
-42.264643
 30
0.0
 10
135.590966
 20
-36.276793
 30
0.0
  0
SPLINE
  5
396
100
AcDbEntity
  8
TopPlate_-_Etch
 62
7
100
AcDbSpline
 70
8
 71
3
 72
8
 73
4
 74
0
 40
0
 40
0
 40
0
 40
0
 40
1
 40
1
 40
1
 40
1
 10
229.043495
 20
-87.810419
 30
0.0
 10
221.146426
 20
-98.160628
 30
0.0
 10
209.512349
 20
-105.610761
 30
0.0
 10
196.318468
 20
-108.052985
 30
0.0
  0
SPLINE
  5
397
100
AcDbEntity
  8
TopPlate_-_Etch
 62
7
100
AcDbSpline
 70
8
 71
3
 72
8
 73
4
 74
0
 40
0
 40
0
 40
0
 40
0
 40
1
 40
1
 40
1
 40
1
 10
194.195105
 20
-5.822379
 30
0.0
 10
207.755202
 20
-7.199051
 30
0.0
 10
219.858725
 20
-14.187463
 30
0.0
 10
228.174635
 20
-24.376913
 30
0.0
  0
ENDSEC
  0
SECTION
  2
OBJECTS
  0
DICTIONARY
  5
C
330
0
100
AcDbDictionary
  3
ACAD_GROUP
350
D
  3
ACAD_MLINESTYLE
350
17
  0
DICTIONARY
  5
D
330
C
100
AcDbDictionary
  0
DICTIONARY
  5
1A
330
C
100
AcDbDictionary
  0
DICTIONARY
  5
17
330
C
100
AcDbDictionary
  3
STANDARD
350
18
  0
DICTIONARY
  5
19
330
C
100
AcDbDictionary
  0
ENDSEC
  0
EOF
